<svg width="51" height="50" viewBox="0 0 51 50" fill="none" xmlns="http://www.w3.org/2000/svg">
<g opacity="0.3">
<path d="M23.0756 2.44444C24.4827 1.08187 26.7172 1.08187 28.1244 2.44444L29.469 3.74643C30.3705 4.61935 31.6589 4.96459 32.8761 4.65936L34.6915 4.2041C36.5915 3.72766 38.5266 4.84493 39.064 6.72853L39.5774 8.52837C39.9217 9.73508 40.8649 10.6783 42.0716 11.0226L43.8714 11.536C45.755 12.0734 46.8723 14.0085 46.3959 15.9084L45.9406 17.7239C45.6354 18.941 45.9806 20.2295 46.8535 21.131L48.1555 22.4756C49.5181 23.8827 49.5181 26.1173 48.1555 27.5244L46.8535 28.869C45.9806 29.7705 45.6354 31.059 45.9406 32.2761L46.3959 34.0916C46.8723 35.9915 45.755 37.9266 43.8714 38.464L42.0716 38.9774C40.8649 39.3217 39.9217 40.2649 39.5774 41.4716L39.064 43.2715C38.5266 45.1551 36.5915 46.2723 34.6915 45.7959L32.8761 45.3406C31.6589 45.0354 30.3705 45.3807 29.469 46.2536L28.1244 47.5556C26.7172 48.9181 24.4827 48.9181 23.0756 47.5556L21.731 46.2536C20.8295 45.3807 19.541 45.0354 18.3238 45.3406L16.5084 45.7959C14.6085 46.2723 12.6733 45.1551 12.136 43.2715L11.6225 41.4716C11.2783 40.2649 10.3351 39.3217 9.12834 38.9774L7.3285 38.464C5.44491 37.9266 4.32763 35.9915 4.80408 34.0916L5.25934 32.2761C5.56457 31.059 5.21932 29.7705 4.3464 28.869L3.04442 27.5244C1.68185 26.1173 1.68185 23.8827 3.04442 22.4756L4.3464 21.131C5.21932 20.2295 5.56457 18.941 5.25934 17.7239L4.80408 15.9084C4.32764 14.0085 5.4449 12.0734 7.3285 11.536L9.12834 11.0226C10.3351 10.6783 11.2783 9.73508 11.6225 8.52837L12.136 6.72853C12.6733 4.84493 14.6085 3.72766 16.5084 4.2041L18.3238 4.65936C19.541 4.96459 20.8295 4.61935 21.731 3.74643L23.0756 2.44444Z" fill="#F2F4F6"/>
<path d="M18.3694 24.7096C18.2057 24.531 18.1239 24.319 18.1239 24.0735C18.1239 23.8279 18.2057 23.6159 18.3694 23.4373L20.8694 20.9373L19.9096 19.9775L19.6418 20.2453C19.4632 20.4239 19.2511 20.5132 19.0056 20.5132C18.7601 20.5132 18.548 20.4239 18.3694 20.2453C18.2057 20.0668 18.1239 19.8547 18.1239 19.6092C18.1239 19.3636 18.2057 19.159 18.3694 18.9953L20.1552 17.2096C20.3337 17.031 20.5458 16.9418 20.7913 16.9418C21.0368 16.9418 21.2489 17.031 21.4275 17.2096C21.606 17.3733 21.6953 17.5816 21.6953 17.8346C21.6953 18.0876 21.606 18.2959 21.4275 18.4596L21.1596 18.7275L22.1194 19.6873L24.6194 17.1873C24.798 17.0087 25.0101 16.9194 25.2556 16.9194C25.5011 16.9194 25.7132 17.0087 25.8918 17.1873C26.0703 17.3659 26.1596 17.5779 26.1596 17.8235C26.1596 18.069 26.0703 18.281 25.8918 18.4596L25.2891 19.04L26.673 20.4239L24.1507 22.9239C23.987 23.1025 23.9052 23.3145 23.9052 23.5601C23.9052 23.8056 23.987 24.0176 24.1507 24.1962C24.3293 24.3748 24.5413 24.4641 24.7868 24.4641C25.0324 24.4641 25.2444 24.3748 25.423 24.1962L27.923 21.6739L29.2846 23.0132L26.7623 25.5355C26.5837 25.7141 26.4944 25.9261 26.4944 26.1717C26.4944 26.4172 26.5837 26.6293 26.7623 26.8078C26.926 26.9715 27.1306 27.0496 27.3761 27.0422C27.6217 27.0348 27.8337 26.9492 28.0123 26.7855L30.5123 24.2632L31.8739 25.6248C32.2162 25.9671 32.3873 26.3874 32.3873 26.886C32.3873 27.3845 32.2162 27.8048 31.8739 28.1471L31.2489 28.7944L34.7087 32.2319C34.8575 32.3807 34.8947 32.5444 34.8203 32.723C34.7459 32.9016 34.6046 32.9909 34.3962 32.9909H33.481C33.3025 32.9909 33.1276 32.9537 32.9565 32.8793C32.7854 32.8048 32.6403 32.7081 32.5212 32.5891L29.9766 30.0444L29.3516 30.6918C29.0093 31.034 28.5889 31.2051 28.0904 31.2051C27.5919 31.2051 27.1715 31.034 26.8293 30.6918L20.2444 24.1069L19.6418 24.7096C19.4632 24.8733 19.2511 24.9551 19.0056 24.9551C18.7601 24.9551 18.548 24.8733 18.3694 24.7096Z" fill="#B0B8C1"/>
</g>
</svg>
