<svg width="220" height="62" viewBox="0 0 220 62" fill="none" xmlns="http://www.w3.org/2000/svg">
<g clip-path="url(#clip0_728_21033)">
<path d="M41.1413 29.1092C41.1413 32.0615 37.0342 35.8451 32.5886 35.8451C28.1431 35.8451 24.5352 32.0615 24.5352 29.1092C24.5352 26.157 28.1409 23.7617 32.5886 23.7617C37.0363 23.7617 41.1413 26.1548 41.1413 29.1092Z" fill="white"/>
<path d="M36.2651 27.179C36.1065 27.3825 35.948 27.6032 35.9159 27.8581C35.8773 28.1559 36.0144 28.4452 36.1472 28.713C36.7193 29.8763 37.332 31.0868 38.3797 31.8495C39.9479 32.9893 42.2832 32.7943 43.7722 31.5539C43.9179 31.4339 44.0593 31.2989 44.1278 31.1232C44.2242 30.8833 44.1664 30.6133 44.1621 30.3541C44.1514 29.6364 44.5542 28.9701 44.6227 28.2566C44.7963 26.4399 43.0287 24.5159 41.3448 24.231C39.3695 23.8968 37.4198 25.7071 36.2629 27.1769L36.2651 27.179Z" fill="white"/>
<path d="M41.0127 23.3506C40.9698 23.1685 40.9163 22.9821 40.7856 22.8492C40.6335 22.695 40.4107 22.6414 40.1986 22.5943C39.2837 22.395 38.3261 22.1958 37.4241 22.4465C36.0765 22.8214 35.1381 24.2268 35.1681 25.6258C35.1703 25.7608 35.1831 25.9022 35.2517 26.02C35.3438 26.1829 35.5216 26.2707 35.6695 26.3843C36.0808 26.7013 36.2758 27.2262 36.6485 27.5862C37.5976 28.501 39.4787 28.366 40.3957 27.5433C41.4733 26.5771 41.3255 24.6639 41.0148 23.3484L41.0127 23.3506Z" fill="white"/>
<path d="M30.789 21.6816C30.5705 21.823 30.3477 21.9836 30.232 22.2172C30.097 22.4892 30.1334 22.8106 30.172 23.1106C30.337 24.411 30.5233 25.7715 31.2753 26.8448C32.4001 28.4517 34.6968 29.0323 36.5286 28.3381C36.7064 28.2695 36.8864 28.1881 37.0106 28.0446C37.1799 27.8453 37.2163 27.569 37.2956 27.3226C37.5205 26.6327 38.1247 26.1293 38.4268 25.4672C39.1916 23.7876 38.1333 21.3645 36.6186 20.5375C34.8382 19.567 32.3808 20.6575 30.789 21.6816Z" fill="white"/>
<path d="M29.8184 19.8305C29.5656 19.7855 29.2978 19.7512 29.0579 19.8433C28.7794 19.9504 28.5887 20.2054 28.4152 20.4475C27.661 21.4973 26.8854 22.6028 26.7098 23.8818C26.4462 25.795 27.7124 27.7532 29.5014 28.4795C29.6749 28.5502 29.8613 28.6123 30.0477 28.5909C30.3026 28.5609 30.5126 28.3852 30.7376 28.2609C31.3631 27.9139 32.1366 27.9546 32.7964 27.6803C34.474 26.9798 35.3331 24.5245 34.7932 22.9113C34.159 21.0174 31.6545 20.1582 29.8184 19.8305Z" fill="white"/>
<path d="M30.414 22.1549C30.3241 21.9107 30.2169 21.6578 30.0134 21.495C29.7777 21.3043 29.4564 21.2679 29.1543 21.2401C27.8474 21.1158 26.4805 21.0023 25.2679 21.5015C23.4554 22.2492 22.3842 24.3616 22.6627 26.3027C22.6905 26.4912 22.7313 26.6861 22.8448 26.8383C23.0012 27.0482 23.2626 27.1425 23.4875 27.2753C24.1131 27.646 24.4709 28.3465 25.0515 28.7836C26.5255 29.8977 29.1179 29.3942 30.2576 28.0937C31.5945 26.5683 31.0675 23.931 30.414 22.1549Z" fill="white"/>
<path d="M28.6358 23.8496C28.473 23.5518 28.2888 23.2497 27.9974 23.0783C27.6589 22.8791 27.239 22.8941 26.8469 22.9155C25.1479 23.0055 23.3719 23.1169 21.9129 23.9889C19.7297 25.2915 18.7592 28.2073 19.4855 30.6433C19.5562 30.8811 19.6462 31.1211 19.8197 31.2946C20.0597 31.5345 20.4153 31.6052 20.7281 31.7338C21.6001 32.0916 22.1935 32.9207 23.0205 33.3728C25.1222 34.5211 28.353 33.3813 29.5678 31.4981C30.9925 29.2871 29.8142 26.0049 28.638 23.8496H28.6358Z" fill="white"/>
<path d="M21.3108 30.0198C21.1073 30.2234 20.9038 30.4505 20.8352 30.7311C20.7538 31.0568 20.8695 31.3953 20.9809 31.7123C21.4672 33.0792 21.99 34.5061 23.0569 35.4895C24.653 36.9592 27.2732 37.0449 29.09 35.8601C29.2657 35.7444 29.4414 35.6137 29.5421 35.4273C29.6792 35.1724 29.6513 34.866 29.6792 34.5789C29.7585 33.7777 30.2941 33.0921 30.4633 32.3058C30.8918 30.309 29.1757 27.9417 27.3418 27.406C25.1886 26.7783 22.7891 28.5373 21.3108 30.0241V30.0198Z" fill="white"/>
<path d="M25.54 31.0525C25.2979 31.1511 25.0472 31.2668 24.8887 31.4767C24.7045 31.721 24.6787 32.0445 24.6595 32.3487C24.5781 33.6642 24.5052 35.0418 25.0451 36.2458C25.8528 38.0433 28.0124 39.0503 29.9534 38.7096C30.142 38.6775 30.3348 38.6282 30.4847 38.5104C30.6904 38.3475 30.7761 38.0797 30.9025 37.8505C31.256 37.2099 31.9459 36.8285 32.368 36.2308C33.4392 34.714 32.85 32.1238 31.5088 31.0225C29.9341 29.7285 27.3011 30.3434 25.5357 31.0568L25.54 31.0525Z" fill="white"/>
<path d="M27.4339 35.5389C27.3118 35.7938 27.1982 36.0702 27.2239 36.3508C27.2561 36.6786 27.4703 36.955 27.6781 37.2121C28.5737 38.3197 29.5206 39.4702 30.8297 40.0337C32.7857 40.8757 35.2409 40.1022 36.5371 38.4119C36.6635 38.2469 36.7835 38.0691 36.8156 37.8634C36.8606 37.5827 36.7342 37.3085 36.6678 37.0321C36.4814 36.2651 36.7535 35.4553 36.6528 34.6733C36.4 32.683 34.039 31.0505 32.1665 31.1533C29.9684 31.2733 28.3187 33.6835 27.4339 35.541V35.5389Z" fill="white"/>
<path d="M37.332 31.3997C37.197 31.2647 37.047 31.1319 36.8628 31.0869C36.6464 31.0334 36.4236 31.1105 36.2158 31.1855C35.3138 31.509 34.3711 31.8561 33.7241 32.5652C32.7557 33.6214 32.7043 35.3547 33.4906 36.5523C33.5677 36.668 33.6534 36.7837 33.7777 36.8501C33.9469 36.9401 34.1483 36.9208 34.339 36.9401C34.8682 36.9915 35.3224 37.3428 35.843 37.4543C37.1649 37.7349 38.7246 36.5951 39.0759 35.3825C39.4873 33.9578 38.3196 32.3767 37.3363 31.4019L37.332 31.3997Z" fill="white"/>
<path d="M35.3181 31.4467C35.1788 31.6266 35.0439 31.8216 35.016 32.0466C34.9839 32.3079 35.106 32.5607 35.2238 32.7964C35.7337 33.8141 36.2801 34.8724 37.2056 35.5344C38.5896 36.5243 40.6378 36.3379 41.9382 35.2388C42.0646 35.1317 42.1889 35.0117 42.2489 34.8574C42.3303 34.6453 42.2789 34.4097 42.2746 34.1826C42.2596 33.5527 42.6088 32.9657 42.6645 32.3379C42.8059 30.7418 41.2398 29.0643 39.7594 28.8243C38.0219 28.5437 36.325 30.1462 35.3181 31.4467Z" fill="white"/>
<path d="M38.416 26.1657C38.2018 26.2428 37.9833 26.337 37.8397 26.5149C37.6726 26.7205 37.6426 27.0012 37.6169 27.2626C37.5076 28.4002 37.4048 29.5914 37.8376 30.6498C38.4867 32.2309 40.3271 33.1671 42.0196 32.9272C42.1846 32.9036 42.3538 32.8693 42.4867 32.7686C42.6688 32.6337 42.7523 32.4044 42.868 32.2095C43.1915 31.6653 43.8021 31.3546 44.1856 30.849C45.1583 29.5657 44.7234 27.3054 43.5922 26.3092C42.266 25.1416 39.965 25.5979 38.4139 26.1635L38.416 26.1657Z" fill="white"/>
<path d="M0.683451 45.471C12.7261 60.1788 35.5109 60.2195 51.2578 52.1168C61.6958 46.7457 74.9339 33.0941 71.7245 19.9867C70.8633 16.4667 65.4279 17.9578 66.2913 21.4843C68.8515 31.9415 56.3311 43.1893 48.4127 47.2514C34.7118 54.2807 15.0978 54.2271 4.66624 41.4861C2.36741 38.6795 -1.59824 42.6858 0.683451 45.4688V45.471Z" fill="white"/>
<path d="M17.0624 8.63831C17.0624 6.33337 15.1939 4.46484 12.8889 4.46484C10.584 4.46484 8.71545 6.33337 8.71545 8.63831V13.9023C8.71545 16.2072 10.584 18.0757 12.8889 18.0757C15.1939 18.0757 17.0624 16.2072 17.0624 13.9023V8.63831Z" fill="white"/>
<path d="M50.583 8.63831C50.583 6.33337 48.7144 4.46484 46.4095 4.46484C44.1045 4.46484 42.236 6.33337 42.236 8.63831V13.9023C42.236 16.2072 44.1045 18.0757 46.4095 18.0757C48.7144 18.0757 50.583 16.2072 50.583 13.9023V8.63831Z" fill="white"/>
<path d="M117.348 17.4823H104.142C102.576 17.4823 101.365 16.2075 101.365 14.5129C101.365 12.8182 102.576 11.5435 104.142 11.5435H117.348V5.10329C117.348 3.19437 118.841 1.70538 120.904 1.70538C122.967 1.70538 124.461 3.19009 124.461 5.10329V29.1629C124.461 31.1939 122.802 32.8414 120.761 32.8414H105.959C101.241 32.8414 97.4188 29.0407 97.4188 24.3509V5.09686C97.4188 3.18366 98.912 1.69895 100.975 1.69895C103.038 1.69895 104.532 3.18366 104.532 5.09686V23.9225C104.532 25.4864 105.806 26.7548 107.379 26.7548H117.346V17.4823H117.348ZM104.748 46.146C103.038 46.146 101.689 44.7319 101.689 42.9623C101.689 41.1926 103.043 39.7786 104.748 39.7786H132.291C142.746 39.7786 151.224 48.207 151.224 58.6042C151.224 60.5131 149.587 62.0021 147.524 62.0021C145.461 62.0021 143.824 60.5174 143.824 58.6042C143.824 51.7227 138.217 46.1481 131.297 46.1481H104.75L104.748 46.146ZM137.562 15.0742H143.967V3.39791C143.967 1.48899 145.604 0 147.597 0C149.589 0 151.226 1.48471 151.226 3.39791V29.7949C151.226 31.7038 149.589 33.1928 147.597 33.1928C145.604 33.1928 143.967 31.7081 143.967 29.7949V21.4415H137.562V29.4371C137.562 31.346 135.995 32.835 134.005 32.835C132.015 32.835 130.449 31.3503 130.449 29.4371V3.75141C130.449 1.8425 132.015 0.353502 134.005 0.353502C135.995 0.353502 137.562 1.83821 137.562 3.75141V15.0742Z" fill="white"/>
<path d="M162.971 32.4129C161.261 32.4129 159.911 30.9989 159.911 29.2292C159.911 27.4596 161.266 26.0456 162.971 26.0456H183.114V17.5551C183.114 15.6462 184.751 14.1572 186.814 14.1572C188.877 14.1572 190.514 15.6419 190.514 17.5551V26.0456H216.35C218.059 26.0456 219.409 27.4596 219.409 29.2292C219.409 30.9989 218.055 32.4129 216.35 32.4129H162.971ZM170.017 39.0673H204.695C209.678 39.0673 213.717 43.0822 213.717 48.0377V57.8929C213.717 59.9239 212.058 61.5715 210.017 61.5715H174.857C170.139 61.5715 166.317 57.7708 166.317 53.081V42.748C166.317 40.7127 167.976 39.0694 170.017 39.0694V39.0673ZM167.241 8.07265C165.531 8.07265 164.181 6.65864 164.181 4.88898C164.181 3.11933 165.535 1.70532 167.241 1.70532H195.851C205.715 1.70532 213.715 9.66019 213.715 19.4683C213.715 21.3772 212.078 22.8662 210.015 22.8662C207.951 22.8662 206.315 21.3815 206.315 19.4683C206.315 13.1759 201.183 8.07265 194.855 8.07265H167.241ZM173.574 52.5154C173.574 54.0793 174.849 55.3477 176.421 55.3477H206.458V48.1684C206.458 46.583 205.164 45.2954 203.568 45.2954H173.574V52.5154Z" fill="white"/>
</g>
<defs>
<clipPath id="clip0_728_21033">
<rect width="219.409" height="62" fill="white"/>
</clipPath>
</defs>
</svg>
