<svg width="393" height="689" viewBox="0 0 393 689" fill="none" xmlns="http://www.w3.org/2000/svg">
<g filter="url(#filter0_b_97_2305)">
<path d="M318.102 330.431C319.806 335.63 317.241 341.215 312.265 343.141L308.152 344.733C304.966 345.966 302.641 348.777 301.98 352.194L301.113 356.674C300.073 362.05 295.049 365.568 289.719 364.652L285.715 363.963C282.276 363.371 278.809 364.628 276.548 367.287L273.824 370.489C270.268 374.67 264.042 375.135 259.807 371.535L256.909 369.071C254.174 366.746 250.466 366.035 247.14 367.198L243.55 368.453C238.363 370.266 232.644 367.464 230.722 362.167L229.392 358.502C228.16 355.106 225.281 352.59 221.807 351.873L218.126 351.114C212.748 350.004 209.157 344.729 210.042 339.24L210.72 335.035C211.283 331.544 210.033 327.976 207.413 325.599L204.363 322.832C200.305 319.149 199.764 312.905 203.137 308.672L205.948 305.143C208.091 302.454 208.727 298.815 207.637 295.487L206.228 291.189C204.525 285.99 207.089 280.405 212.066 278.479L216.179 276.887C219.364 275.654 221.69 272.843 222.351 269.426L223.218 264.946C224.258 259.57 229.282 256.052 234.611 256.968L238.616 257.657C242.055 258.249 245.521 256.992 247.783 254.333L250.506 251.131C254.062 246.95 260.289 246.485 264.523 250.085L267.422 252.549C270.157 254.874 273.865 255.585 277.191 254.422L280.78 253.167C285.967 251.354 291.687 254.156 293.609 259.453L294.938 263.118C296.171 266.514 299.05 269.03 302.523 269.747L306.204 270.506C311.582 271.616 315.173 276.891 314.288 282.38L313.61 286.585C313.047 290.076 314.298 293.644 316.917 296.021L319.967 298.788C324.026 302.471 324.567 308.715 321.194 312.948L318.383 316.477C316.239 319.166 315.603 322.805 316.694 326.133L318.102 330.431Z" fill="#0073FE" fill-opacity="0.4"/>
</g>
<g clip-path="url(#clip0_97_2305)">
<path d="M270.944 293.524C271.548 293.332 272.14 293.377 272.72 293.661C273.299 293.945 273.707 294.389 273.945 294.995L277.046 303.976L280.384 302.746L280.052 301.784C279.83 301.143 279.857 300.523 280.132 299.924C280.406 299.326 280.854 298.913 281.475 298.684C282.08 298.491 282.672 298.537 283.251 298.821C283.83 299.105 284.221 299.541 284.424 300.129L286.639 306.544C286.86 307.185 286.833 307.805 286.559 308.403C286.284 309.002 285.836 309.415 285.215 309.644C284.629 309.89 284.038 309.866 283.441 309.574C282.844 309.282 282.452 308.823 282.266 308.199L281.934 307.237L278.596 308.466L281.696 317.447C281.917 318.089 281.891 318.709 281.616 319.307C281.341 319.905 280.893 320.319 280.272 320.547C279.651 320.776 279.051 320.748 278.472 320.465C277.892 320.181 277.492 319.718 277.271 319.077L276.576 316.937L271.762 318.71L268.687 309.675C268.449 309.069 268.041 308.625 267.461 308.341C266.882 308.057 266.29 308.012 265.686 308.204C265.065 308.433 264.617 308.846 264.342 309.445C264.067 310.043 264.041 310.663 264.262 311.304L267.415 320.311L262.732 322.081L259.604 313.02C259.383 312.378 258.982 311.915 258.403 311.632C257.824 311.348 257.224 311.32 256.603 311.549C256.033 311.759 255.62 312.167 255.363 312.774C255.106 313.381 255.07 313.996 255.256 314.621L258.409 323.627L253.673 325.371C252.483 325.81 251.3 325.741 250.124 325.165C248.948 324.588 248.148 323.686 247.723 322.456L246.895 320.185L234.915 324.642C234.397 324.833 233.969 324.734 233.631 324.347C233.293 323.959 233.241 323.511 233.474 323.004L234.498 320.774C234.698 320.339 234.981 319.956 235.348 319.625C235.715 319.294 236.106 319.052 236.52 318.899L245.37 315.64L244.543 313.369C244.118 312.14 244.185 310.917 244.743 309.703C245.301 308.488 246.175 307.662 247.365 307.223L270.268 298.789L269.52 296.624C269.334 296 269.378 295.389 269.653 294.79C269.928 294.192 270.358 293.77 270.944 293.524Z" fill="white"/>
</g>
<g filter="url(#filter1_b_97_2305)">
<path d="M92.986 491.243C98.1293 489.285 103.929 491.933 105.99 497.179L107.261 500.416C108.582 503.78 111.53 506.219 115.026 506.841L118.321 507.427C123.732 508.389 127.464 513.565 126.722 519.076L126.206 522.903C125.734 526.406 127.078 529.938 129.759 532.243L132.579 534.667C136.732 538.236 137.437 544.458 134.179 548.778L131.686 552.083C129.616 554.827 129.076 558.476 130.251 561.769L131.642 565.668C133.478 570.813 131.063 576.457 126.143 578.518L122.415 580.08C119.266 581.399 117.017 584.268 116.446 587.696L115.758 591.825C114.858 597.222 109.929 600.872 104.578 600.103L100.944 599.58C97.4887 599.084 94.0555 600.435 91.865 603.154L89.4726 606.123C86.0262 610.4 79.808 611.034 75.4771 607.548L72.8397 605.426C70.0411 603.174 66.3098 602.564 63.0119 603.819L59.8393 605.027C54.696 606.985 48.8958 604.337 46.8355 599.091L45.5646 595.854C44.2436 592.49 41.2952 590.051 37.7989 589.429L34.5039 588.843C29.0933 587.881 25.361 582.705 26.1036 577.194L26.6192 573.367C27.0912 569.864 25.7476 566.332 23.0663 564.027L20.2461 561.603C16.093 558.034 15.3878 551.812 18.6466 547.492L21.1396 544.187C23.2092 541.443 23.7498 537.794 22.5745 534.501L21.1832 530.602C19.3471 525.457 21.7622 519.813 26.682 517.752L30.41 516.19C33.5592 514.871 35.8079 512.002 36.3792 508.574L37.0673 504.445C37.9668 499.048 42.896 495.398 48.2475 496.167L51.8815 496.69C55.3365 497.186 58.7698 495.835 60.9603 493.116L63.3527 490.147C66.7991 485.87 73.0173 485.236 77.3482 488.722L79.9856 490.844C82.7842 493.096 86.5155 493.706 89.8133 492.451L92.986 491.243Z" fill="#90C9F6" fill-opacity="0.4"/>
<path d="M83.7753 551.769C82.7665 554.127 78.2227 555.666 74.6959 554.056C71.1691 552.446 69.6058 548.118 70.6146 545.761C71.6234 543.403 75.3007 542.791 78.8275 544.401C82.3543 546.011 84.788 549.403 83.7753 551.769Z" fill="white"/>
<path d="M80.5822 548.46C80.3879 548.565 80.1859 548.688 80.0744 548.874C79.9475 549.096 79.9545 549.378 79.9603 549.639C80.0191 550.774 80.0854 551.966 80.6578 552.948C81.5099 554.423 83.4236 555.114 85.0347 554.666C85.1931 554.62 85.3464 554.561 85.4667 554.455C85.619 554.298 85.6667 554.062 85.7553 553.855C85.9928 553.275 86.5414 552.891 86.8376 552.349C87.5914 550.961 86.857 548.786 85.614 547.95C84.167 546.967 82.0024 547.71 80.5822 548.46Z" fill="white"/>
<path d="M85.646 547.126C85.6719 546.966 85.6928 546.792 85.6407 546.639C85.5786 546.46 85.4154 546.343 85.265 546.221C84.6111 545.728 83.9177 545.229 83.1187 545.101C81.9202 544.909 80.6978 545.695 80.2471 546.823C80.2009 546.931 80.1597 547.052 80.1748 547.167C80.1923 547.325 80.3044 547.462 80.382 547.605C80.5956 548.004 80.5753 548.5 80.7467 548.923C81.1848 549.994 82.7221 550.567 83.7354 550.244C84.9236 549.862 85.4532 548.275 85.6588 547.121L85.646 547.126Z" fill="white"/>
<path d="M78.1184 542.097C77.8987 542.137 77.6662 542.181 77.4999 542.321C77.3004 542.488 77.2155 542.761 77.1511 543.011C76.8422 544.107 76.5192 545.261 76.7516 546.389C77.0938 548.083 78.7189 549.374 80.404 549.476C80.57 549.487 80.7398 549.49 80.8881 549.418C81.0913 549.317 81.2105 549.113 81.3577 548.944C81.7712 548.476 82.4266 548.291 82.8859 547.866C84.0668 546.803 84.0554 544.485 83.1311 543.278C82.0515 541.86 79.7316 541.844 78.1223 542.088L78.1184 542.097Z" fill="white"/>
<path d="M77.9756 540.258C77.7946 540.132 77.5918 540.007 77.3735 539.994C77.1157 539.973 76.8753 540.11 76.6567 540.247C75.7004 540.811 74.707 541.412 74.1341 542.376C73.2741 543.812 73.6041 545.834 74.7773 547.058C74.8882 547.173 75.0168 547.297 75.1674 547.344C75.3843 547.411 75.6028 547.349 75.8237 547.332C76.4431 547.281 77.0348 547.594 77.6579 547.61C79.227 547.659 80.745 546.007 80.867 544.525C81.0139 542.785 79.3244 541.196 77.9807 540.271L77.9756 540.258Z" fill="white"/>
<path d="M77.6522 542.337C77.6655 542.106 77.6609 541.867 77.558 541.659C77.4359 541.42 77.1975 541.279 76.9679 541.142C75.9746 540.57 74.9327 539.987 73.799 539.943C72.1074 539.881 70.5353 541.185 70.0962 542.835C70.0486 542.996 70.0189 543.165 70.0542 543.332C70.1061 543.56 70.2806 543.725 70.413 543.915C70.777 544.436 70.824 545.124 71.1381 545.687C71.9265 547.112 74.1534 547.645 75.498 547.022C77.0803 546.292 77.5617 543.995 77.6522 542.337Z" fill="white"/>
<path d="M75.6731 543.046C75.6482 542.755 75.6004 542.443 75.426 542.202C75.2275 541.918 74.8894 541.785 74.5731 541.651C73.1941 541.108 71.7538 540.558 70.2966 540.721C68.1178 540.974 66.3565 542.945 66.1013 545.162C66.074 545.376 66.0645 545.597 66.1458 545.806C66.2524 546.081 66.515 546.265 66.7188 546.487C67.2831 547.089 67.4752 547.962 67.973 548.62C69.241 550.296 72.1962 550.548 73.7997 549.494C75.6794 548.244 75.8752 545.193 75.6731 543.046Z" fill="white"/>
<path d="M67.7492 545.324C67.5192 545.413 67.2815 545.519 67.1316 545.72C66.9575 545.952 66.9312 546.263 66.9127 546.556C66.8307 547.82 66.7614 549.154 67.2657 550.32C68.0329 552.069 70.0736 553.086 71.9154 552.798C72.0967 552.773 72.2769 552.726 72.4188 552.619C72.6145 552.461 72.7006 552.21 72.8148 551.993C73.1507 551.382 73.8141 551.029 74.2176 550.461C75.2384 549.023 74.6899 546.514 73.4193 545.417C71.9296 544.135 69.4271 544.67 67.7492 545.324Z" fill="white"/>
<path d="M70.7583 547.675C70.5272 547.666 70.2923 547.667 70.0941 547.78C69.8666 547.913 69.732 548.153 69.6191 548.392C69.1061 549.416 68.5738 550.485 68.5904 551.644C68.6172 553.377 69.9798 554.956 71.64 555.392C71.8033 555.434 71.9705 555.467 72.1289 555.421C72.3474 555.36 72.5074 555.185 72.6865 555.041C73.1827 554.655 73.8672 554.601 74.4017 554.275C75.7697 553.448 76.1872 551.175 75.502 549.808C74.6948 548.203 72.4027 547.748 70.7583 547.675Z" fill="white"/>
<path d="M70.7241 551.941C70.5373 552.103 70.3556 552.279 70.2772 552.512C70.1923 552.785 70.2657 553.087 70.3417 553.359C70.6697 554.562 71.0359 555.827 71.8791 556.749C73.1439 558.134 75.3471 558.397 76.9514 557.516C77.1074 557.426 77.2634 557.336 77.3633 557.177C77.4953 556.969 77.4895 556.708 77.5322 556.458C77.6422 555.777 78.1427 555.231 78.328 554.574C78.8131 552.891 77.4926 550.74 75.9758 550.144C74.1924 549.448 72.0648 550.779 70.728 551.932L70.7241 551.941Z" fill="white"/>
<path d="M79.9772 552.218C79.9162 552.061 79.8464 551.9 79.71 551.795C79.5596 551.672 79.3541 551.654 79.1575 551.639C78.3315 551.574 77.4621 551.511 76.7145 551.836C75.5847 552.332 74.9471 553.697 75.1639 554.936C75.1879 555.055 75.217 555.186 75.287 555.272C75.3901 555.405 75.5585 555.46 75.7026 555.548C76.103 555.784 76.3408 556.226 76.713 556.504C77.6614 557.206 79.2914 556.863 79.984 556.018C80.7995 555.035 80.4139 553.342 79.9682 552.214L79.9772 552.218Z" fill="white"/>
<path d="M78.3722 551.528C78.2034 551.623 78.0308 551.727 77.927 551.895C77.8117 552.089 77.8213 552.341 77.8297 552.571C77.885 553.564 77.9605 554.61 78.4655 555.475C79.2249 556.768 80.9153 557.357 82.3156 556.953C82.4485 556.917 82.589 556.862 82.6965 556.761C82.8322 556.619 82.8773 556.413 82.9454 556.229C83.1521 555.721 83.6291 555.38 83.8894 554.896C84.5433 553.667 83.8849 551.764 82.7872 551.037C81.5084 550.184 79.6135 550.847 78.3722 551.528Z" fill="white"/>
<path d="M82.6304 548.439C82.4338 548.424 82.2334 548.419 82.0557 548.51C81.8525 548.611 81.7294 548.823 81.623 549.022C81.1448 549.89 80.6563 550.807 80.6426 551.812C80.6213 553.308 81.7571 554.72 83.1773 555.142C83.3189 555.185 83.4644 555.219 83.5972 555.183C83.7863 555.14 83.9347 554.993 84.0933 554.872C84.5371 554.558 85.127 554.526 85.6039 554.26C86.8107 553.585 87.2454 551.621 86.6824 550.418C86.0293 549.001 84.05 548.538 82.6343 548.43L82.6304 548.439Z" fill="white"/>
<path d="M44.6568 543.178C45.6297 559.838 61.5205 571.895 76.6145 574.529C86.6219 576.271 102.774 573.7 107.162 562.824C108.342 559.91 103.788 558.079 102.61 561.008C99.1055 569.683 84.6716 570.953 77.0807 569.622C63.9528 567.315 50.2792 556.921 49.4475 542.491C49.2617 539.312 44.4674 540.021 44.6432 543.18L44.6568 543.178Z" fill="white"/>
<path d="M71.8323 522.793L71.8233 522.789C69.9988 521.956 67.8819 522.771 67.0951 524.61L65.293 528.821C64.5062 530.66 65.3474 532.826 67.1719 533.659L67.1808 533.663C69.0054 534.496 71.1223 533.68 71.9091 531.842L73.7111 527.63C74.498 525.792 73.6568 523.626 71.8323 522.793Z" fill="white"/>
<path d="M98.387 534.916L98.378 534.912C96.5535 534.079 94.4366 534.894 93.6498 536.733L91.8477 540.944C91.0609 542.783 91.9021 544.949 93.7266 545.782L93.7355 545.786C95.5601 546.619 97.677 545.803 98.4638 543.964L100.266 539.753C101.053 537.915 100.211 535.749 98.387 534.916Z" fill="white"/>
</g>
<g filter="url(#filter2_b_97_2305)">
<path d="M349.906 46.6613C351.054 41.1646 356.259 37.5723 361.615 38.5805L365.111 39.2386C368.544 39.8848 372.077 38.6402 374.432 35.9549L376.804 33.2506C380.462 29.0795 386.654 28.627 390.763 32.2305L393.628 34.7419C396.249 37.0401 399.854 37.7696 403.162 36.671L406.7 35.4957C411.841 33.7883 417.328 36.547 419.126 41.7427L420.452 45.5728C421.598 48.8849 424.321 51.344 427.668 52.0895L431.498 52.9429C436.724 54.1073 440.086 59.3042 439.127 64.7366L438.425 68.7184C437.811 72.197 438.968 75.7361 441.492 78.0976L444.411 80.8284C448.37 84.5328 448.738 90.8251 445.243 95.0767L442.838 98.0033C440.589 100.739 439.862 104.459 440.914 107.84L442.065 111.534C443.715 116.835 440.941 122.57 435.81 124.465L432.483 125.693C429.18 126.913 426.715 129.808 425.979 133.331L425.23 136.919C424.082 142.416 418.877 146.008 413.521 145L410.024 144.342C406.591 143.695 403.059 144.94 400.704 147.625L398.332 150.33C394.674 154.501 388.482 154.953 384.372 151.35L381.508 148.838C378.887 146.54 375.281 145.811 371.973 146.909L368.435 148.084C363.295 149.792 357.807 147.033 356.009 141.837L354.683 138.007C353.537 134.695 350.814 132.236 347.468 131.491L343.637 130.637C338.411 129.473 335.05 124.276 336.008 118.844L336.711 114.862C337.324 111.383 336.167 107.844 333.643 105.483L330.724 102.752C326.765 99.0474 326.398 92.7551 329.892 88.5034L332.298 85.5768C334.546 82.841 335.273 79.1212 334.221 75.7405L333.071 72.0462C331.42 66.7455 334.195 61.0099 339.326 59.1154L342.652 57.887C345.955 56.6673 348.421 53.7725 349.156 50.2494L349.906 46.6613Z" fill="#90C9F6" fill-opacity="0.4"/>
<path d="M394.344 87.4961C395.736 89.6492 394.582 94.4397 391.391 96.6418C388.201 98.8439 383.829 97.8666 382.437 95.7135C381.044 93.5605 382.496 90.0261 385.687 87.824C388.878 85.6219 392.945 85.3348 394.344 87.4961Z" fill="white"/>
<path d="M389.94 88.4894C389.923 88.7154 389.916 88.9578 390.009 89.1553C390.123 89.3857 390.358 89.5325 390.575 89.6684C391.534 90.2305 392.544 90.817 393.652 90.8491C395.312 90.9042 396.893 89.6105 397.383 87.9651C397.43 87.8022 397.463 87.6367 397.439 87.4744C397.392 87.2572 397.224 87.0879 397.102 86.8988C396.754 86.3785 396.731 85.6929 396.445 85.1418C395.71 83.7351 393.541 83.1995 392.196 83.8303C390.623 84.5594 390.081 86.8469 389.94 88.4894Z" fill="white"/>
<path d="M391.539 83.3568C391.421 83.2477 391.291 83.1358 391.138 83.0985C390.958 83.056 390.776 83.1346 390.596 83.1994C389.846 83.5031 389.069 83.8372 388.539 84.464C387.745 85.4042 387.739 86.8941 388.423 87.8964C388.487 87.995 388.564 88.0963 388.665 88.145C388.804 88.2155 388.976 88.192 389.134 88.2017C389.574 88.2311 389.969 88.517 390.406 88.596C391.515 88.7934 392.8 87.7638 393.075 86.7067C393.393 85.4648 392.376 84.1458 391.541 83.343L391.539 83.3568Z" fill="white"/>
<path d="M383.426 87.1966C383.342 87.4094 383.254 87.636 383.28 87.8561C383.311 88.1202 383.489 88.3418 383.66 88.5331C384.392 89.3946 385.165 90.2997 386.211 90.7069C387.779 91.3246 389.698 90.6064 390.677 89.1938C390.774 89.0553 390.866 88.9085 390.886 88.7404C390.912 88.5088 390.808 88.2949 390.748 88.0751C390.585 87.4623 390.782 86.7914 390.678 86.1616C390.436 84.5581 388.533 83.3153 387.055 83.468C385.321 83.6421 384.076 85.6545 383.421 87.1884L383.426 87.1966Z" fill="white"/>
<path d="M381.845 86.3268C381.646 86.4166 381.436 86.5258 381.309 86.7086C381.155 86.9219 381.14 87.2057 381.135 87.4701C381.089 88.6079 381.052 89.7979 381.537 90.8184C382.255 92.3436 384.085 93.1491 385.709 92.7887C385.862 92.7543 386.032 92.7089 386.15 92.6033C386.32 92.4504 386.386 92.2268 386.489 92.0249C386.776 91.4579 387.347 91.1117 387.691 90.5773C388.565 89.2372 388.02 87.022 386.872 86.1144C385.526 85.046 383.329 85.6591 381.858 86.3295L381.845 86.3268Z" fill="white"/>
<path d="M383.374 87.732C383.193 87.5958 382.995 87.4708 382.77 87.4479C382.51 87.4252 382.267 87.5567 382.033 87.6826C381.038 88.2389 380.007 88.8312 379.369 89.7949C378.419 91.2349 378.651 93.3094 379.767 94.5835C379.874 94.7121 379.997 94.8295 380.152 94.8888C380.366 94.9669 380.594 94.9044 380.82 94.8915C381.439 94.8561 382.027 95.1872 382.655 95.2178C384.239 95.301 385.858 93.649 386.063 92.1409C386.306 90.3681 384.683 88.7071 383.374 87.732Z" fill="white"/>
<path d="M382.902 89.8399C382.651 89.7043 382.37 89.5772 382.08 89.5988C381.742 89.6182 381.454 89.8409 381.177 90.0442C379.999 90.9518 378.784 91.9092 378.144 93.2667C377.193 95.3015 377.87 97.9012 379.549 99.3221C379.709 99.4612 379.885 99.5892 380.099 99.6315C380.381 99.687 380.671 99.5579 380.961 99.5004C381.753 99.3341 382.569 99.6385 383.372 99.5603C385.416 99.3616 387.193 96.9234 387.182 94.9571C387.158 92.644 384.766 90.8241 382.902 89.8399Z" fill="white"/>
<path d="M380.557 97.9736C380.507 98.2219 380.468 98.4866 380.553 98.7255C380.65 99.0028 380.891 99.1936 381.12 99.3679C382.111 100.123 383.166 100.904 384.387 101.095C386.226 101.372 388.142 100.144 388.885 98.3838C388.961 98.2124 389.018 98.0301 389.006 97.8485C388.98 97.5926 388.821 97.3818 388.704 97.1653C388.383 96.5428 388.447 95.7739 388.196 95.115C387.562 93.4486 385.217 92.5702 383.645 93.0845C381.805 93.6891 380.914 96.1585 380.557 97.9736Z" fill="white"/>
<path d="M384.079 96.6236C383.949 96.8202 383.824 97.025 383.812 97.2592C383.8 97.5292 383.924 97.776 384.06 98.0035C384.625 99.004 385.217 100.046 386.174 100.657C387.606 101.571 389.622 101.237 390.86 100.026C390.982 99.9069 391.098 99.7793 391.144 99.6164C391.21 99.3928 391.152 99.1592 391.129 98.9253C391.077 98.284 391.397 97.659 391.414 97.0172C391.464 95.3782 389.826 93.7862 388.344 93.6442C386.602 93.4796 385.012 95.2306 384.079 96.6236Z" fill="white"/>
<path d="M387.551 98.9586C387.584 99.2089 387.631 99.4619 387.78 99.6562C387.959 99.8778 388.245 99.9773 388.507 100.058C389.667 100.423 390.895 100.787 392.098 100.551C393.903 100.198 395.289 98.4208 395.42 96.547C395.429 96.3624 395.439 96.1778 395.362 96.0049C395.261 95.7772 395.045 95.6413 394.863 95.4693C394.365 95.0052 394.184 94.2742 393.744 93.7573C392.626 92.4254 390.164 92.4127 388.871 93.4121C387.354 94.5896 387.312 97.1622 387.546 98.9503L387.551 98.9586Z" fill="white"/>
<path d="M392.693 91.0482C392.532 91.0165 392.363 90.9904 392.205 91.0523C392.024 91.1171 391.9 91.2861 391.784 91.4496C391.292 92.1339 390.778 92.857 390.647 93.6842C390.452 94.9361 391.23 96.2296 392.359 96.7104C392.469 96.7536 392.592 96.7994 392.7 96.7847C392.863 96.7668 392.998 96.65 393.146 96.5717C393.552 96.3508 394.04 96.3825 394.465 96.2083C395.543 95.7615 396.129 94.1565 395.805 93.0962C395.434 91.8545 393.845 91.2755 392.685 91.0538L392.693 91.0482Z" fill="white"/>
<path d="M391.276 92.0726C391.264 92.271 391.258 92.4776 391.34 92.6586C391.438 92.8644 391.649 92.9921 391.841 93.1089C392.683 93.5976 393.579 94.0969 394.555 94.1246C396.016 94.1621 397.396 93.0078 397.809 91.5695C397.85 91.4342 397.881 91.2825 397.855 91.134C397.81 90.9389 397.666 90.7886 397.552 90.6298C397.246 90.1752 397.22 89.575 396.963 89.0869C396.305 87.8531 394.398 87.398 393.22 87.9613C391.843 88.6144 391.378 90.6231 391.276 92.0726Z" fill="white"/>
<path d="M391.011 86.6935C390.895 86.8569 390.784 87.0286 390.764 87.2325C390.738 87.4641 390.847 87.6863 390.953 87.8864C391.409 88.7722 391.9 89.6934 392.715 90.2485C393.927 91.0756 395.685 90.849 396.785 89.8402C396.896 89.7401 397.001 89.6319 397.042 89.4966C397.108 89.3088 397.066 89.0998 397.051 88.8961C397.03 88.34 397.317 87.8089 397.353 87.2495C397.442 85.8332 396.066 84.3933 394.782 84.2332C393.276 84.0364 391.846 85.5106 391.005 86.6852L391.011 86.6935Z" fill="white"/>
<path d="M366.534 116.93C380.681 125.087 398.987 117.761 409.16 106.036C415.902 98.2595 422.379 82.7994 415.813 73.0989C414.055 70.4948 410.138 73.4724 411.908 76.082C417.144 83.8239 410.515 97.0843 405.393 102.977C396.532 113.167 380.764 119.46 368.517 112.386C365.818 110.829 363.851 115.389 366.528 116.943L366.534 116.93Z" fill="white"/>
<path d="M364.293 82.2384L364.285 82.2439C362.634 83.3831 362.177 85.668 363.263 87.3472L365.751 91.1932C366.837 92.8725 369.056 93.3103 370.707 92.1711L370.715 92.1655C372.366 91.0263 372.823 88.7415 371.737 87.0622L369.249 83.2163C368.163 81.537 365.944 81.0992 364.293 82.2384Z" fill="white"/>
<path d="M388.318 65.6578L388.31 65.6634C386.659 66.8026 386.201 69.0874 387.288 70.7667L389.776 74.6126C390.862 76.2919 393.081 76.7297 394.732 75.5905L394.74 75.585C396.39 74.4457 396.848 72.1609 395.762 70.4816L393.274 66.6357C392.187 64.9564 389.968 64.5186 388.318 65.6578Z" fill="white"/>
</g>
<g filter="url(#filter3_b_97_2305)">
<path d="M3.865 223.15C7.44901 218.812 13.8493 218.182 18.1626 221.742L20.7428 223.872C23.5096 226.156 27.2854 226.797 30.6695 225.557L33.729 224.436C38.9454 222.526 44.7034 225.147 46.6655 230.327L48.0604 234.009C49.3029 237.289 52.1532 239.683 55.598 240.341L59.2604 241.04C64.5773 242.055 68.1362 247.076 67.3469 252.448L66.7037 256.825C66.2044 260.223 67.4494 263.634 70.0145 265.895L73.2394 268.737C77.2481 272.27 77.8076 278.329 74.5177 282.581L71.8712 286.002C69.766 288.723 69.1676 292.315 70.2797 295.554L71.7124 299.727C73.4706 304.848 70.8947 310.473 65.8594 312.508L62.391 313.91C59.1288 315.228 56.768 318.136 56.1481 321.599L55.4522 325.487C54.4733 330.956 49.299 334.655 43.8269 333.797L40.6174 333.294C37.0675 332.738 33.4771 334.104 31.1782 336.887L29.0342 339.482C25.4502 343.82 19.0499 344.451 14.7366 340.891L12.1563 338.761C9.38955 336.477 5.61378 335.836 2.22972 337.076L-0.829812 338.196C-6.04625 340.107 -11.8042 337.485 -13.7663 332.306L-15.1612 328.624C-16.4037 325.344 -19.2541 322.95 -22.6988 322.292L-26.3612 321.592C-31.6781 320.577 -35.237 315.557 -34.4477 310.185L-33.8045 305.807C-33.3052 302.409 -34.5502 298.999 -37.1153 296.738L-40.3402 293.896C-44.3489 290.363 -44.9084 284.303 -41.6185 280.051L-38.972 276.631C-36.8669 273.91 -36.2684 270.318 -37.3805 267.078L-38.8132 262.905C-40.5714 257.785 -37.9955 252.16 -32.9602 250.124L-29.4918 248.723C-26.2296 247.404 -23.8688 244.496 -23.2489 241.033L-22.553 237.145C-21.5741 231.676 -16.3998 227.978 -10.9277 228.835L-7.71823 229.339C-4.16833 229.895 -0.577942 228.528 1.72103 225.746L3.865 223.15Z" fill="#0073FE" fill-opacity="0.4"/>
</g>
<path d="M-2.10915 282.371C-2.57121 281.94 -2.83217 281.401 -2.89204 280.753C-2.95191 280.104 -2.79436 279.524 -2.41939 279.011L3.36287 271.779L0.674807 269.486L0.0552794 270.261C-0.357739 270.778 -0.878134 271.067 -1.50591 271.129C-2.13368 271.19 -2.69762 271.008 -3.19772 270.582C-3.65978 270.151 -3.92074 269.612 -3.98061 268.963C-4.04048 268.315 -3.88112 267.754 -3.50252 267.281L0.627666 262.115C1.04068 261.599 1.56108 261.309 2.18885 261.247C2.81662 261.186 3.38056 261.368 3.88066 261.795C4.37714 262.182 4.65622 262.71 4.71791 263.378C4.77959 264.046 4.60211 264.618 4.18546 265.096L3.56594 265.87L6.25399 268.163L12.0363 260.932C12.4493 260.415 12.9697 260.126 13.5974 260.064C14.2252 260.002 14.7891 260.185 15.2893 260.611C15.7894 261.038 16.0693 261.575 16.1292 262.224C16.1891 262.872 16.0125 263.455 15.5995 263.971L14.2001 265.656L18.0759 268.962L12.2366 276.199C11.8616 276.712 11.7041 277.292 11.7639 277.941C11.8238 278.589 12.0848 279.129 12.5468 279.559C13.0469 279.986 13.6109 280.168 14.2386 280.106C14.8664 280.044 15.3868 279.755 15.7998 279.239L21.5766 271.948L25.3845 275.142L19.5506 282.438C19.1376 282.955 18.961 283.537 19.0209 284.185C19.0808 284.834 19.3607 285.371 19.8609 285.798C20.3193 286.189 20.8615 286.344 21.4874 286.262C22.1134 286.181 22.6347 285.901 23.0513 285.424L28.8282 278.134L32.6414 281.386C33.6 282.204 34.14 283.271 34.2616 284.588C34.3831 285.904 34.0481 287.057 33.2565 288.047L31.8164 289.914L41.5004 298.121C41.9172 298.476 42.0522 298.899 41.9055 299.389C41.7588 299.88 41.4192 300.151 40.8865 300.203L38.5466 300.434C38.0901 300.479 37.634 300.425 37.1783 300.271C36.7226 300.118 36.3281 299.899 35.9946 299.615L28.8682 293.536L27.428 295.403C26.6364 296.393 25.6033 296.95 24.3288 297.076C23.0542 297.201 21.9377 296.855 20.9791 296.038L2.53779 280.307L1.14385 282.05C0.727201 282.528 0.204992 282.797 -0.42278 282.859C-1.05055 282.921 -1.61267 282.758 -2.10915 282.371Z" fill="white"/>
<path d="M278.566 365.615C278.566 352.573 267.966 342 254.889 342C241.813 342 231.213 352.573 231.213 365.615V397.854C231.213 410.896 241.813 421.469 254.889 421.469C267.966 421.469 278.566 410.896 278.566 397.854V365.615Z" fill="white"/>
<path d="M352.012 365.615C352.012 352.573 341.412 342 328.336 342C315.259 342 304.659 352.573 304.659 365.615V397.853C304.659 410.896 315.259 421.468 328.336 421.468C341.412 421.468 352.012 410.896 352.012 397.853V365.615Z" fill="white"/>
<path d="M271.619 367.778C271.619 358.561 264.128 351.09 254.889 351.09C245.649 351.09 238.158 358.561 238.158 367.778V390.563C238.158 399.78 245.649 407.251 254.889 407.251C264.128 407.251 271.619 399.78 271.619 390.563V367.778Z" fill="#E9ECF2"/>
<path d="M345.066 367.778C345.066 358.562 337.576 351.09 328.336 351.09C319.096 351.09 311.606 358.562 311.606 367.778V390.563C311.606 399.78 319.096 407.251 328.336 407.251C337.576 407.251 345.066 399.78 345.066 390.563V367.778Z" fill="#E9ECF2"/>
<path d="M280.726 353.579H302.509C329.837 353.579 352.023 375.702 352.023 402.953V556.977H231.213V402.953C231.213 375.702 253.398 353.579 280.726 353.579Z" fill="white"/>
<path d="M298.788 405.74C298.788 408.183 295.385 411.316 291.692 411.316C287.999 411.316 285.008 408.183 285.008 405.74C285.008 403.298 287.999 401.312 291.692 401.312C295.385 401.312 298.788 403.288 298.788 405.74Z" fill="black"/>
<path d="M294.749 404.137C294.618 404.305 294.487 404.492 294.459 404.697C294.431 404.939 294.543 405.181 294.646 405.405C295.123 406.365 295.628 407.372 296.497 407.997C297.797 408.939 299.732 408.78 300.975 407.755C301.097 407.652 301.209 407.54 301.274 407.4C301.349 407.204 301.303 406.981 301.303 406.766C301.293 406.17 301.63 405.62 301.686 405.032C301.826 403.531 300.368 401.937 298.965 401.704C297.329 401.424 295.712 402.925 294.749 404.137Z" fill="black"/>
<path d="M298.686 400.977C298.648 400.828 298.601 400.669 298.499 400.557C298.377 400.427 298.19 400.389 298.012 400.343C297.255 400.175 296.461 400.016 295.713 400.222C294.591 400.529 293.815 401.695 293.843 402.851C293.843 402.962 293.852 403.084 293.908 403.177C293.983 403.307 294.133 403.382 294.254 403.475C294.591 403.736 294.759 404.174 295.068 404.473C295.853 405.228 297.414 405.116 298.181 404.436C299.078 403.634 298.947 402.049 298.695 400.967L298.686 400.977Z" fill="black"/>
<path d="M290.207 399.597C290.029 399.718 289.842 399.848 289.748 400.035C289.636 400.259 289.664 400.529 289.702 400.771C289.842 401.844 289.991 402.972 290.618 403.857C291.553 405.191 293.46 405.666 294.975 405.088C295.124 405.032 295.274 404.967 295.377 404.846C295.517 404.678 295.545 404.454 295.61 404.249C295.797 403.68 296.302 403.261 296.545 402.711C297.181 401.321 296.302 399.317 295.04 398.636C293.563 397.835 291.525 398.739 290.207 399.587V399.597Z" fill="black"/>
<path d="M289.392 398.058C289.186 398.021 288.962 397.993 288.766 398.068C288.532 398.152 288.373 398.366 288.233 398.571C287.606 399.438 286.961 400.352 286.821 401.415C286.606 402.999 287.653 404.622 289.14 405.218C289.28 405.274 289.439 405.33 289.588 405.312C289.803 405.284 289.972 405.144 290.159 405.041C290.682 404.752 291.318 404.789 291.87 404.556C293.263 403.978 293.973 401.946 293.524 400.613C293.001 399.047 290.925 398.338 289.401 398.068L289.392 398.058Z" fill="black"/>
<path d="M289.889 399.988C289.814 399.783 289.72 399.578 289.552 399.438C289.356 399.28 289.094 399.252 288.842 399.224C287.757 399.121 286.626 399.028 285.616 399.438C284.111 400.054 283.223 401.806 283.457 403.41C283.475 403.568 283.513 403.727 283.606 403.857C283.737 404.034 283.952 404.109 284.139 404.221C284.653 404.529 284.952 405.107 285.439 405.47C286.663 406.393 288.814 405.974 289.758 404.902C290.87 403.643 290.431 401.461 289.889 399.988Z" fill="black"/>
<path d="M288.42 401.387C288.289 401.145 288.131 400.893 287.887 400.753C287.607 400.585 287.261 400.604 286.934 400.613C285.522 400.688 284.054 400.781 282.839 401.499C281.025 402.58 280.221 404.986 280.829 407.009C280.885 407.204 280.96 407.4 281.109 407.549C281.306 407.745 281.605 407.801 281.867 407.913C282.586 408.211 283.082 408.892 283.764 409.265C285.503 410.216 288.187 409.265 289.196 407.717C290.374 405.89 289.402 403.168 288.42 401.387Z" fill="black"/>
<path d="M282.334 406.496C282.165 406.664 281.997 406.85 281.941 407.084C281.876 407.354 281.969 407.634 282.063 407.895C282.465 409.023 282.904 410.207 283.783 411.018C285.11 412.23 287.279 412.304 288.785 411.325C288.934 411.232 289.074 411.12 289.159 410.971C289.271 410.757 289.252 410.505 289.271 410.272C289.336 409.61 289.785 409.041 289.925 408.389C290.281 406.739 288.859 404.781 287.336 404.333C285.55 403.811 283.558 405.266 282.334 406.496Z" fill="black"/>
<path d="M285.85 407.344C285.644 407.428 285.438 407.521 285.307 407.698C285.158 407.904 285.13 408.165 285.12 408.416C285.055 409.507 284.99 410.645 285.438 411.642C286.111 413.134 287.897 413.963 289.515 413.684C289.673 413.656 289.832 413.619 289.954 413.516C290.122 413.376 290.197 413.162 290.3 412.966C290.59 412.435 291.169 412.118 291.515 411.623C292.403 410.365 291.917 408.23 290.805 407.316C289.496 406.244 287.317 406.757 285.85 407.344Z" fill="black"/>
<path d="M287.421 411.055C287.318 411.269 287.224 411.493 287.243 411.726C287.271 411.996 287.449 412.229 287.617 412.435C288.356 413.348 289.15 414.299 290.235 414.765C291.862 415.464 293.89 414.821 294.966 413.423C295.068 413.283 295.171 413.143 295.199 412.966C295.237 412.733 295.134 412.509 295.078 412.276C294.919 411.642 295.153 410.971 295.068 410.328C294.863 408.677 292.899 407.335 291.347 407.419C289.524 407.521 288.159 409.516 287.421 411.045V411.055Z" fill="black"/>
<path d="M295.628 407.634C295.516 407.522 295.395 407.41 295.236 407.372C295.058 407.326 294.871 407.391 294.694 407.456C293.946 407.727 293.16 408.016 292.627 408.594C291.823 409.47 291.777 410.906 292.431 411.894C292.497 411.987 292.571 412.09 292.665 412.136C292.805 412.211 292.973 412.192 293.132 412.211C293.572 412.258 293.946 412.547 294.376 412.64C295.47 412.873 296.769 411.931 297.059 410.925C297.405 409.75 296.433 408.435 295.619 407.634H295.628Z" fill="black"/>
<path d="M293.965 407.671C293.852 407.82 293.74 407.978 293.712 408.165C293.684 408.379 293.787 408.594 293.88 408.789C294.301 409.628 294.759 410.505 295.526 411.055C296.676 411.875 298.377 411.717 299.453 410.812C299.555 410.729 299.658 410.626 299.714 410.496C299.78 410.318 299.742 410.123 299.733 409.936C299.724 409.414 300.014 408.929 300.06 408.407C300.172 407.083 298.882 405.694 297.648 405.498C296.208 405.265 294.797 406.589 293.965 407.671Z" fill="black"/>
<path d="M296.536 403.307C296.358 403.373 296.18 403.447 296.059 403.596C295.919 403.764 295.891 403.997 295.872 404.212C295.778 405.153 295.694 406.142 296.059 407.018C296.601 408.323 298.125 409.097 299.527 408.901C299.668 408.883 299.808 408.855 299.911 408.771C300.06 408.659 300.135 408.472 300.229 408.304C300.5 407.857 301.005 407.596 301.322 407.176C302.126 406.114 301.771 404.24 300.827 403.419C299.724 402.45 297.816 402.832 296.536 403.298V403.307Z" fill="black"/>
<path d="M260.986 413.774C268.083 427.829 286.523 431.992 300.732 428.302C310.152 425.852 323.337 417.233 323.103 406.07C323.045 403.076 318.37 403.292 318.435 406.296C318.617 415.203 306.45 422.015 299.301 423.865C286.937 427.06 271.063 423.461 264.925 411.283C263.571 408.601 259.637 411.113 260.975 413.781L260.986 413.774Z" fill="black"/>
<path d="M275.359 385.352H275.35C273.44 385.352 271.891 386.896 271.891 388.801V393.164C271.891 395.069 273.44 396.614 275.35 396.614H275.359C277.27 396.614 278.819 395.069 278.819 393.164V388.801C278.819 386.896 277.27 385.352 275.359 385.352Z" fill="black"/>
<path d="M303.164 385.352H303.155C301.244 385.352 299.695 386.896 299.695 388.801V393.164C299.695 395.069 301.244 396.614 303.155 396.614H303.164C305.074 396.614 306.623 395.069 306.623 393.164V388.801C306.623 386.896 305.074 385.352 303.164 385.352Z" fill="black"/>
<path d="M231.444 455.478C231.444 455.478 235.729 476.013 205.666 525.471C175.603 574.93 181.407 647.217 181.407 647.217H351.827V511.34L231.453 455.478H231.444Z" fill="white"/>
<path d="M137.068 383.934L135.006 385.369C133.947 386.105 133.687 387.558 134.426 388.614L183.605 458.913C184.344 459.969 185.801 460.228 186.86 459.491L188.922 458.056C189.981 457.32 190.24 455.867 189.502 454.811L140.322 384.512C139.584 383.456 138.127 383.197 137.068 383.934Z" fill="#3D3F4D"/>
<path d="M189.922 446.279L175.437 456.355C174.099 457.286 173.771 459.122 174.705 460.456L189.875 482.141C190.808 483.476 192.65 483.803 193.988 482.872L208.472 472.796C209.811 471.865 210.139 470.028 209.205 468.694L194.035 447.009C193.102 445.675 191.26 445.348 189.922 446.279Z" fill="#69AFEE"/>
<path d="M306.238 612.552L291.754 622.628C290.416 623.559 290.088 625.395 291.021 626.73L317.269 664.25C318.203 665.584 320.044 665.912 321.383 664.981L335.867 654.905C337.205 653.974 337.533 652.137 336.6 650.803L310.352 613.283C309.418 611.948 307.577 611.621 306.238 612.552Z" fill="#3B80D3"/>
<path d="M207.278 453.911L176.631 475.231C175.292 476.162 174.964 477.999 175.898 479.333L191.068 501.018C192.001 502.352 193.843 502.679 195.181 501.749L225.829 480.428C227.167 479.497 227.495 477.661 226.562 476.326L211.392 454.642C210.458 453.307 208.617 452.98 207.278 453.911Z" fill="#3B80D3"/>
<path d="M186.934 495.367L222.658 470.516C228.524 466.435 236.6 467.876 240.686 473.718L327.876 598.352L270.913 637.978L183.723 513.345C179.631 507.496 181.076 499.442 186.934 495.367Z" fill="#E1F4FF"/>
<path d="M326.098 590.086L263.752 633.457C262.414 634.388 262.086 636.225 263.019 637.559L271.043 649.029C271.977 650.363 273.818 650.69 275.156 649.759L337.503 606.388C338.841 605.457 339.169 603.62 338.235 602.286L330.212 590.817C329.278 589.482 327.437 589.155 326.098 590.086Z" fill="#6DB2F8"/>
<path d="M352.377 627.674L290.03 671.045C288.692 671.976 288.364 673.813 289.298 675.147L297.321 686.617C298.255 687.951 300.097 688.278 301.435 687.347L363.781 643.976C365.119 643.045 365.447 641.208 364.514 639.874L356.49 628.405C355.557 627.07 353.715 626.743 352.377 627.674Z" fill="#6DB2F8"/>
<path d="M249.297 486.029L253.411 491.909L230.714 507.697C229.656 508.433 228.198 508.175 227.46 507.119L226.021 505.063C225.283 504.007 225.543 502.554 226.601 501.817L249.297 486.029Z" fill="#AAC5E2"/>
<path d="M308.548 570.748L312.662 576.628L289.965 592.417C288.907 593.153 287.449 592.894 286.711 591.839L285.272 589.782C284.534 588.727 284.793 587.273 285.852 586.537L308.548 570.748Z" fill="#AAC5E2"/>
<path d="M278.924 528.378L283.037 534.258L250.741 556.725C249.682 557.461 248.225 557.202 247.486 556.147L246.047 554.09C245.309 553.035 245.569 551.581 246.627 550.845L278.924 528.378Z" fill="#AAC5E2"/>
<path d="M264.109 507.209L268.222 513.089L252.442 524.067C251.384 524.803 249.926 524.544 249.188 523.489L247.749 521.432C247.011 520.377 247.271 518.923 248.329 518.187L264.109 507.209Z" fill="#AAC5E2"/>
<path d="M293.739 549.567L297.852 555.447L282.072 566.424C281.014 567.16 279.556 566.901 278.818 565.846L277.379 563.789C276.641 562.734 276.9 561.28 277.958 560.544L293.739 549.567Z" fill="#AAC5E2"/>
<path d="M176.361 601.458C176.361 601.458 129.915 570.795 192.713 510.773C255.511 450.752 267.291 523.826 242.432 547.31C217.572 570.795 207.756 622.332 207.756 622.332L176.352 601.458H176.361Z" fill="white"/>
<path d="M371.618 534.398C371.618 534.398 401.666 574.794 329.631 606.548C257.595 638.302 270.189 572.482 298.619 560.148C327.05 547.804 351.358 506.96 351.358 506.96L371.627 534.398H371.618Z" fill="white"/>
<defs>
<filter id="filter0_b_97_2305" x="116.924" y="163.663" width="290.483" height="294.294" filterUnits="userSpaceOnUse" color-interpolation-filters="sRGB">
<feFlood flood-opacity="0" result="BackgroundImageFix"/>
<feGaussianBlur in="BackgroundImageFix" stdDeviation="42"/>
<feComposite in2="SourceAlpha" operator="in" result="effect1_backgroundBlur_97_2305"/>
<feBlend mode="normal" in="SourceGraphic" in2="effect1_backgroundBlur_97_2305" result="shape"/>
</filter>
<filter id="filter1_b_97_2305" x="-71.5278" y="401.472" width="292.753" height="299.614" filterUnits="userSpaceOnUse" color-interpolation-filters="sRGB">
<feFlood flood-opacity="0" result="BackgroundImageFix"/>
<feGaussianBlur in="BackgroundImageFix" stdDeviation="42.5"/>
<feComposite in2="SourceAlpha" operator="in" result="effect1_backgroundBlur_97_2305"/>
<feBlend mode="normal" in="SourceGraphic" in2="effect1_backgroundBlur_97_2305" result="shape"/>
</filter>
<filter id="filter2_b_97_2305" x="241.841" y="-55.2009" width="298.08" height="302.66" filterUnits="userSpaceOnUse" color-interpolation-filters="sRGB">
<feFlood flood-opacity="0" result="BackgroundImageFix"/>
<feGaussianBlur in="BackgroundImageFix" stdDeviation="42.5"/>
<feComposite in2="SourceAlpha" operator="in" result="effect1_backgroundBlur_97_2305"/>
<feBlend mode="normal" in="SourceGraphic" in2="effect1_backgroundBlur_97_2305" result="shape"/>
</filter>
<filter id="filter3_b_97_2305" x="-127.76" y="135.435" width="288.418" height="291.762" filterUnits="userSpaceOnUse" color-interpolation-filters="sRGB">
<feFlood flood-opacity="0" result="BackgroundImageFix"/>
<feGaussianBlur in="BackgroundImageFix" stdDeviation="42"/>
<feComposite in2="SourceAlpha" operator="in" result="effect1_backgroundBlur_97_2305"/>
<feBlend mode="normal" in="SourceGraphic" in2="effect1_backgroundBlur_97_2305" result="shape"/>
</filter>
<clipPath id="clip0_97_2305">
<rect width="57.4559" height="56.2922" fill="white" transform="matrix(-0.417342 0.908749 -0.898011 -0.439974 298.378 296.571)"/>
</clipPath>
</defs>
</svg>
