<svg width="170" height="220" viewBox="0 0 170 220" fill="none" xmlns="http://www.w3.org/2000/svg">
<g filter="url(#filter0_b_13_10249)">
<rect width="169.5" height="220" fill="#4196FD"/>
<mask id="mask0_13_10249" style="mask-type:alpha" maskUnits="userSpaceOnUse" x="0" y="0" width="160" height="220">
<rect width="160" height="220" fill="#4196FD"/>
<rect width="160" height="220" fill="url(#paint0_linear_13_10249)" fill-opacity="0.3"/>
</mask>
<g mask="url(#mask0_13_10249)">
<g opacity="0.3">
<path d="M67.4871 41.2334C69.9979 46.4756 65.9144 56.6965 57.9889 60.4925C50.0634 64.2885 40.4228 60.641 37.912 55.3989C35.4012 50.1567 39.7806 42.8197 47.7061 39.0236C55.6316 35.2276 64.9667 35.9712 67.4871 41.2334Z" fill="white"/>
<path d="M57.1725 41.9413C57.0641 42.436 56.9749 42.9707 57.1255 43.4397C57.3145 43.9888 57.8044 44.3937 58.2551 44.7682C60.2655 46.3389 62.384 47.9808 64.892 48.4276C68.6489 49.1127 72.6394 46.7832 74.2538 43.3041C74.4092 42.9591 74.535 42.6037 74.5317 42.2363C74.491 41.7392 74.1606 41.3071 73.9402 40.8469C73.3068 39.576 73.4638 38.0495 72.9804 36.7313C71.7385 33.3659 66.9697 31.4436 63.7204 32.385C59.9216 33.4665 57.9933 38.3504 57.1725 41.9413Z" fill="white"/>
<path d="M62.3699 31.1133C62.1363 30.8316 61.873 30.5395 61.5373 30.4051C61.1423 30.2499 60.7027 30.3621 60.2736 30.4446C58.4758 30.8629 56.6074 31.3396 55.2131 32.5486C53.1216 34.3621 52.6542 37.6608 53.9027 40.113C54.0177 40.3531 54.1623 40.6036 54.3785 40.746C54.6732 40.9493 55.0709 40.9556 55.4276 41.0307C56.4183 41.245 57.2298 42.0124 58.1986 42.3355C60.6603 43.1489 63.8961 41.3039 64.8418 39.0553C65.9438 36.412 64.0338 33.1451 62.3804 31.0836L62.3699 31.1133Z" fill="white"/>
<path d="M42.7547 36.868C42.498 37.3107 42.2309 37.783 42.2219 38.2793C42.2111 38.8748 42.5492 39.4262 42.8786 39.908C44.2817 42.0648 45.7623 44.332 48.0171 45.5889C51.3939 47.4891 55.9758 46.549 58.6321 43.7516C58.8956 43.4778 59.1496 43.184 59.2457 42.8182C59.3742 42.3139 59.2044 41.8048 59.134 41.2974C58.9507 39.8847 59.603 38.4654 59.5592 37.035C59.4957 33.4003 55.5492 30.0019 52.1409 29.8386C48.1466 29.6363 44.7021 33.6722 42.7451 36.848L42.7547 36.868Z" fill="white"/>
<path d="M39.4257 34.4035C38.946 34.5349 38.4356 34.7055 38.091 35.0674C37.6756 35.4877 37.5549 36.1113 37.4648 36.6956C37.0117 39.2002 36.5664 41.8242 37.3579 44.2492C38.5256 47.8717 42.4403 50.2768 46.2439 50.0293C46.6024 50.0052 47.001 49.9619 47.3028 49.7681C47.7356 49.487 47.953 49.0139 48.2489 48.6016C49.0754 47.4432 50.4781 46.8697 51.4223 45.8025C53.8178 43.1301 53.2536 38.0379 50.9201 35.638C48.1865 32.8148 43.0038 33.4276 39.4554 34.4139L39.4257 34.4035Z" fill="white"/>
<path d="M42.4739 38.0354C42.1025 37.6721 41.691 37.328 41.1861 37.2009C40.6019 37.0626 40.0113 37.2716 39.4408 37.4711C37.0079 38.3658 34.4843 39.3285 32.7389 41.2468C30.1411 44.1146 30.0366 48.7891 32.1865 51.9903C32.3896 52.3112 32.6327 52.6129 32.9675 52.7969C33.4305 53.0425 33.9687 52.9816 34.485 53.0294C35.9048 53.1612 37.141 54.0941 38.5581 54.3747C42.1353 55.0966 46.3189 51.9859 47.2433 48.7143C48.3373 44.8696 45.1518 40.6393 42.4739 38.0354Z" fill="white"/>
<path d="M40.7603 42.545C40.2303 42.1593 39.6304 41.7824 38.965 41.7322C38.1906 41.6603 37.4673 42.0559 36.7747 42.4123C33.8216 44.0235 30.7673 45.7324 28.8968 48.5224C26.1159 52.7077 26.8629 58.6963 30.2466 62.4134C30.5683 62.776 30.93 63.1192 31.4044 63.2856C32.027 63.504 32.7266 63.3165 33.4034 63.2875C35.255 63.1878 37.018 64.139 38.866 64.2378C43.5755 64.4912 48.3566 59.6922 48.9327 55.3329C49.5825 50.2004 44.6975 45.3575 40.7603 42.545Z" fill="white"/>
<path d="M32.95 59.7682C32.7614 60.3013 32.5919 60.8745 32.7111 61.4323C32.8485 62.0798 33.3367 62.584 33.8056 63.0481C35.828 65.0559 37.9881 67.1452 40.7079 67.9826C44.8029 69.219 49.5345 67.1495 51.7587 63.5014C51.9839 63.1476 52.1699 62.7633 52.1971 62.3567C52.2175 61.7812 51.9186 61.2602 51.7192 60.7408C51.1792 59.2529 51.5577 57.5711 51.1878 56.0264C50.2541 52.1197 45.1918 49.3787 41.4612 49.9848C37.0923 50.6999 34.3135 55.8682 32.95 59.7682Z" fill="white"/>
<path d="M41.3669 57.9726C41.0117 58.3641 40.6661 58.7756 40.5673 59.2903C40.4571 59.8843 40.6652 60.4733 40.9039 61.0232C41.8847 63.4314 42.9134 65.9397 44.9019 67.6193C47.8799 70.1287 52.5651 70.0739 55.7488 67.811C56.0611 67.5876 56.3639 67.3442 56.5193 66.9992C56.7367 66.5261 56.6768 65.989 56.6963 65.4632C56.772 64.0248 57.6902 62.7486 57.9247 61.3326C58.5371 57.7185 55.2992 53.6364 51.9723 52.8192C48.0612 51.8637 43.9132 55.2033 41.3669 57.9726Z" fill="white"/>
<path d="M48.5515 64.3224C48.5512 64.8883 48.5805 65.4646 48.8603 65.9456C49.1984 66.497 49.8192 66.8146 50.3912 67.0818C52.9154 68.2834 55.5984 69.5074 58.4051 69.393C62.615 69.2215 66.3078 65.7555 67.1777 61.6491C67.2547 61.2432 67.3316 60.8374 67.2097 60.4284C67.0504 59.8898 66.5997 59.5153 66.2397 59.0727C65.247 57.8755 65.0586 56.1947 64.2168 54.9006C62.0791 51.5706 56.4856 50.7075 53.2411 52.4829C49.434 54.577 48.5554 60.2618 48.5419 64.3024L48.5515 64.3224Z" fill="white"/>
<path d="M62.6509 48.5431C62.2951 48.4183 61.9193 48.3031 61.5399 48.3865C61.1107 48.469 60.7765 48.8013 60.4624 49.1239C59.1351 50.473 57.7468 51.9005 57.1973 53.6888C56.3725 56.3961 57.748 59.5254 60.1684 60.9735C60.4047 61.1064 60.6706 61.2496 60.9192 61.2535C61.2968 61.2694 61.6388 61.0564 61.9991 60.9331C62.99 60.5814 64.0896 60.8173 65.1084 60.5753C67.6956 59.9511 69.5167 56.5944 69.1037 54.1356C68.6386 51.259 65.2006 49.4373 62.6308 48.5527L62.6509 48.5431Z" fill="white"/>
<path d="M59.1176 50.3314C59.0301 50.7669 58.9522 51.2224 59.0837 51.6514C59.2439 52.1404 59.685 52.4949 60.0869 52.8189C61.8523 54.1872 63.7363 55.5971 65.9471 55.9895C69.2583 56.5682 72.7471 54.479 74.125 51.433C74.2594 51.1472 74.3747 50.8214 74.361 50.4837C74.3193 50.0362 74.0378 49.6545 73.8261 49.264C73.2694 48.1531 73.393 46.8148 72.9567 45.6462C71.8366 42.6898 67.6398 41.0347 64.7901 41.8831C61.4605 42.8629 59.7916 47.1552 59.1176 50.3314Z" fill="white"/>
<path d="M60.1534 38.3254C59.8392 38.648 59.5346 38.9907 59.4271 39.4357C59.2987 39.94 59.4781 40.4691 59.6584 40.9485C60.4256 43.0654 61.2608 45.2728 62.9442 46.7788C65.4496 49.0225 69.5155 49.1168 72.324 47.2551C72.6058 47.0709 72.878 46.8667 73.0125 46.5809C73.2185 46.1871 73.1873 45.71 73.2155 45.2538C73.3374 44.0147 74.1525 42.9355 74.4035 41.7084C75.0365 38.6009 72.3478 34.9445 69.478 34.1544C66.1137 33.2075 62.4135 35.9883 60.1438 38.3054L60.1534 38.3254Z" fill="white"/>
<path d="M-4.70865 97.0067C24.97 119.875 68.824 109.855 95.5255 87.3298C113.222 72.3899 132.659 40.338 120.684 16.621C117.482 10.2561 107.669 15.5237 110.898 21.9053C120.444 40.832 101.333 67.9594 87.8927 79.2771C64.6416 98.8442 26.8742 107.438 1.18451 87.6113C-4.47895 83.2481 -10.3405 92.6818 -4.72534 97.0334L-4.70865 97.0067Z" fill="white"/>
<path d="M0.764969 19.3935L0.744915 19.4031C-3.35518 21.3669 -5.09145 26.2733 -3.13316 30.3619L1.35181 39.7258C3.3101 43.8144 8.2214 45.5369 12.3215 43.5731L12.3415 43.5635C16.4416 41.5997 18.1779 36.6932 16.2196 32.6046L11.7347 23.2407C9.77636 19.1522 4.86507 17.4297 0.764969 19.3935Z" fill="white"/>
<path d="M60.4389 -9.18844L60.4188 -9.17882C56.3187 -7.21501 54.5824 -2.30858 56.5407 1.78002L61.0257 11.1439C62.984 15.2325 67.8953 16.955 71.9954 14.9912L72.0155 14.9815C76.1156 13.0177 77.8518 8.1113 75.8935 4.02271L71.4086 -5.34116C69.4503 -9.42975 64.539 -11.1522 60.4389 -9.18844Z" fill="white"/>
</g>
</g>
</g>
<defs>
<filter id="filter0_b_13_10249" x="-21.4612" y="-21.4612" width="212.422" height="262.922" filterUnits="userSpaceOnUse" color-interpolation-filters="sRGB">
<feFlood flood-opacity="0" result="BackgroundImageFix"/>
<feGaussianBlur in="BackgroundImageFix" stdDeviation="10.7306"/>
<feComposite in2="SourceAlpha" operator="in" result="effect1_backgroundBlur_13_10249"/>
<feBlend mode="normal" in="SourceGraphic" in2="effect1_backgroundBlur_13_10249" result="shape"/>
</filter>
<linearGradient id="paint0_linear_13_10249" x1="150.042" y1="200.322" x2="-4.58469" y2="38.1137" gradientUnits="userSpaceOnUse">
<stop stop-color="#6DB2F8"/>
<stop offset="1" stop-color="white"/>
</linearGradient>
</defs>
</svg>
