<svg width="151" height="150" viewBox="0 0 151 150" fill="none" xmlns="http://www.w3.org/2000/svg">
<path d="M87.9601 72.3162C87.9601 76.4191 82.2439 81.6808 76.0408 81.6808C69.8378 81.6808 64.8125 76.4191 64.8125 72.3162C64.8125 68.2133 69.8378 64.8777 76.0408 64.8777C82.2439 64.8777 87.9601 68.1976 87.9601 72.3162Z" fill="#4196FD"/>
<path d="M81.1778 69.6224C80.9579 69.9043 80.738 70.2175 80.6909 70.562C80.6438 70.9692 80.8323 71.3763 81.005 71.7522C81.8059 73.3651 82.6539 75.0564 84.1144 76.1056C86.2972 77.6873 89.548 77.4211 91.6366 75.6985C91.8408 75.5262 92.0292 75.3383 92.1391 75.1034C92.2648 74.7745 92.1862 74.3987 92.1862 74.0385C92.1705 73.0363 92.7359 72.1123 92.8301 71.1258C93.0657 68.6045 90.6158 65.9267 88.2602 65.5352C85.512 65.0654 82.7953 67.5866 81.1778 69.6224Z" fill="#4196FD"/>
<path d="M87.7882 64.3135C87.7254 64.063 87.6469 63.7968 87.4742 63.6088C87.27 63.3896 86.9559 63.327 86.6575 63.2487C85.3855 62.9668 84.0507 62.7006 82.7944 63.0451C80.9099 63.5619 79.6065 65.5193 79.6536 67.4612C79.6536 67.6491 79.6693 67.8527 79.7635 68.0093C79.8891 68.2285 80.1404 68.3538 80.3446 68.5104C80.9099 68.9489 81.1926 69.6849 81.7108 70.186C83.0299 71.4545 85.6525 71.2665 86.9402 70.1234C88.4478 68.7766 88.228 66.1144 87.8039 64.2979L87.7882 64.3135Z" fill="#4196FD"/>
<path d="M73.544 61.9958C73.2456 62.1994 72.9315 62.4186 72.7745 62.7318C72.586 63.1076 72.6331 63.5618 72.696 63.9689C72.9315 65.7698 73.1828 67.6647 74.235 69.1524C75.8054 71.3917 79.009 72.1904 81.553 71.2195C81.8043 71.1255 82.0555 71.0159 82.2283 70.8123C82.4638 70.5305 82.511 70.1546 82.6209 69.8101C82.935 68.8548 83.783 68.1501 84.1913 67.2262C85.2592 64.8929 83.783 61.526 81.6629 60.3828C79.1817 59.0361 75.7582 60.5551 73.544 61.9801V61.9958Z" fill="#4196FD"/>
<path d="M72.1781 59.4122C71.8327 59.3496 71.4557 59.3026 71.126 59.4279C70.7334 59.5688 70.4664 59.929 70.2308 60.2735C69.1787 61.7299 68.0951 63.2646 67.8595 65.0498C67.4984 67.712 69.2572 70.4368 71.7541 71.4391C71.9897 71.533 72.2566 71.627 72.5079 71.5957C72.8691 71.5487 73.1518 71.3138 73.4659 71.1415C74.3453 70.6561 75.4131 70.7187 76.3397 70.3272C78.6796 69.3563 79.8731 65.9424 79.1193 63.7031C78.2399 61.0722 74.7536 59.882 72.1938 59.4279L72.1781 59.4122Z" fill="#4196FD"/>
<path d="M73.0112 62.6539C72.8856 62.3094 72.7285 61.9648 72.4459 61.7299C72.1161 61.4637 71.6764 61.4167 71.2523 61.3698C69.4307 61.1975 67.5305 61.0409 65.8345 61.7299C63.3061 62.7635 61.8143 65.7076 62.2069 68.4011C62.2383 68.6673 62.3011 68.9335 62.4581 69.1527C62.678 69.4503 63.0392 69.5756 63.3533 69.7635C64.217 70.2803 64.7195 71.2512 65.5361 71.8619C67.5933 73.4122 71.2053 72.7075 72.7914 70.9067C74.6601 68.7926 73.922 65.1281 73.0112 62.6539Z" fill="#4196FD"/>
<path d="M70.5453 65.0027C70.3254 64.5956 70.0585 64.1727 69.6501 63.9378C69.179 63.656 68.598 63.6873 68.0483 63.7029C65.677 63.8282 63.2115 63.9848 61.17 65.1906C58.1234 67.0072 56.7729 71.0474 57.7936 74.4456C57.8879 74.7745 58.0135 75.1034 58.2648 75.3539C58.5946 75.6828 59.0971 75.7767 59.5368 75.9646C60.746 76.4658 61.5783 77.6089 62.7247 78.2353C65.6456 79.8327 70.1527 78.2353 71.8487 75.6358C73.8274 72.5664 72.1942 67.9938 70.5453 65.0027Z" fill="#4196FD"/>
<path d="M60.3213 73.5845C60.0386 73.8664 59.756 74.1796 59.6617 74.5711C59.5518 75.0252 59.7088 75.495 59.8659 75.9335C60.5411 77.8284 61.2792 79.8172 62.7554 81.1796C64.9854 83.2154 68.6287 83.3407 71.157 81.6964C71.4083 81.5398 71.6439 81.3518 71.7852 81.1013C71.9737 80.7411 71.9422 80.3183 71.9736 79.9268C72.0836 78.8149 72.8374 77.8597 73.0729 76.7635C73.6697 73.9917 71.2827 70.7031 68.7229 69.9514C65.7235 69.0745 62.3785 71.5174 60.3213 73.5845Z" fill="#4196FD"/>
<path d="M66.2272 75.0094C65.8817 75.1503 65.5362 75.3069 65.3163 75.6044C65.0651 75.949 65.018 76.3874 65.0023 76.8103C64.8923 78.6425 64.7824 80.553 65.5362 82.2286C66.6669 84.7342 69.6663 86.1279 72.3831 85.6581C72.6501 85.6111 72.9171 85.5485 73.1212 85.3762C73.4039 85.1413 73.5295 84.7812 73.7023 84.4523C74.1891 83.5597 75.1627 83.0272 75.7438 82.1973C77.2357 80.0832 76.4191 76.4971 74.5503 74.9624C72.3517 73.1615 68.6927 74.0228 66.2272 75.0094Z" fill="#4196FD"/>
<path d="M68.8649 81.2421C68.6922 81.6022 68.5351 81.9781 68.5665 82.3696C68.6136 82.8237 68.912 83.2152 69.1947 83.5597C70.4353 85.0944 71.7701 86.6917 73.5918 87.4747C76.3243 88.6492 79.732 87.5687 81.538 85.2197C81.7107 84.9848 81.8835 84.7499 81.9306 84.4523C81.9934 84.0608 81.8207 83.685 81.7264 83.2935C81.4595 82.2286 81.8521 81.1011 81.7107 80.0206C81.3653 77.2488 78.0674 74.9937 75.4606 75.1347C72.3983 75.3069 70.1055 78.6582 68.8649 81.2264V81.2421Z" fill="#4196FD"/>
<path d="M82.6544 75.495C82.4659 75.3071 82.2618 75.1192 81.9948 75.0565C81.6964 74.9782 81.3824 75.0879 81.084 75.1975C79.8277 75.6516 78.5085 76.1371 77.6134 77.108C76.2628 78.58 76.1843 80.9916 77.2836 82.6516C77.3935 82.8082 77.5192 82.9805 77.6762 83.0588C77.9118 83.184 78.1945 83.1527 78.4614 83.184C79.1995 83.2623 79.8276 83.7478 80.55 83.9044C82.3874 84.2959 84.5703 82.7142 85.0571 81.023C85.6381 79.0498 84.0049 76.8418 82.6387 75.495H82.6544Z" fill="#4196FD"/>
<path d="M79.8577 75.5578C79.6692 75.8084 79.4808 76.0746 79.4337 76.3878C79.3866 76.748 79.5593 77.1081 79.7163 77.437C80.423 78.8464 81.1925 80.3184 82.4802 81.2423C84.4118 82.6204 87.27 82.3542 89.0759 80.8352C89.2487 80.6942 89.4214 80.522 89.5156 80.3028C89.6255 80.0052 89.5627 79.6764 89.547 79.3632C89.5313 78.4862 90.0181 77.6719 90.0967 76.7949C90.2851 74.5712 88.118 72.2379 86.045 71.909C83.6266 71.5175 81.2553 73.7413 79.8577 75.5578Z" fill="#4196FD"/>
<path d="M84.178 68.2291C83.8797 68.3387 83.5813 68.464 83.3771 68.7145C83.1416 68.9964 83.0944 69.3879 83.063 69.7481C82.906 71.3298 82.7647 72.9897 83.3771 74.4617C84.2879 76.6541 86.8477 77.9539 89.2033 77.625C89.4389 77.5937 89.6744 77.5467 89.8472 77.4058C90.0984 77.2179 90.2241 76.9047 90.3811 76.6228C90.8365 75.8711 91.6845 75.4327 92.2185 74.728C93.569 72.9427 92.9722 69.7951 91.3861 68.417C89.5331 66.7884 86.3295 67.4304 84.178 68.2134V68.2291Z" fill="#4196FD"/>
<path d="M24.992 85.8097C36.9131 109.418 67.887 116.411 91.7543 110.213C107.576 106.098 129.723 91.6193 129.332 72.8691C129.234 67.8405 121.38 68.2018 121.49 73.2491C121.796 88.2092 101.358 99.652 89.3505 102.759C68.5818 108.126 41.9178 102.081 31.6086 81.6253C29.3335 77.1207 22.7254 81.3391 24.9732 85.8216L24.992 85.8097Z" fill="#4196FD"/>
<path d="M52.1426 38.0682H52.1269C48.9178 38.0682 46.3164 40.6623 46.3164 43.8623V51.1912C46.3164 54.3912 48.9178 56.9854 52.1269 56.9854H52.1426C55.3516 56.9854 57.953 54.3912 57.953 51.1912V43.8623C57.953 40.6623 55.3516 38.0682 52.1426 38.0682Z" fill="#4196FD"/>
<path d="M98.8477 38.0682H98.832C95.6229 38.0682 93.0215 40.6623 93.0215 43.8623V51.1912C93.0215 54.3912 95.6229 56.9854 98.832 56.9854H98.8477C102.057 56.9854 104.658 54.3912 104.658 51.1912V43.8623C104.658 40.6623 102.057 38.0682 98.8477 38.0682Z" fill="#4196FD"/>
</svg>
