<svg width="295" height="362" viewBox="0 0 295 362" fill="none" xmlns="http://www.w3.org/2000/svg">
<g clip-path="url(#clip0_75_2030)">
<g clip-path="url(#clip1_75_2030)">
<path d="M174.357 28.4813C174.357 12.7515 161.572 3.05176e-05 145.801 3.05176e-05C130.03 3.05176e-05 117.245 12.7515 117.245 28.4813V67.3634C117.245 83.0931 130.03 95.8446 145.801 95.8446C161.572 95.8446 174.357 83.0931 174.357 67.3634V28.4813Z" fill="white"/>
<path d="M262.939 28.4813C262.939 12.7515 250.154 3.05176e-05 234.383 3.05176e-05C218.612 3.05176e-05 205.827 12.7515 205.827 28.4813V67.3634C205.827 83.0931 218.612 95.8446 234.383 95.8446C250.154 95.8446 262.939 83.0931 262.939 67.3634V28.4813Z" fill="white"/>
<path d="M165.979 31.09C165.979 19.9742 156.945 10.963 145.801 10.963C134.657 10.963 125.623 19.9742 125.623 31.09V58.5705C125.623 69.6863 134.657 78.6974 145.801 78.6974C156.945 78.6974 165.979 69.6863 165.979 58.5705V31.09Z" fill="#E9ECF2"/>
<path d="M254.561 31.09C254.561 19.9742 245.527 10.963 234.383 10.963C223.239 10.963 214.205 19.9742 214.205 31.09V58.5705C214.205 69.6863 223.239 78.6974 234.383 78.6974C245.527 78.6974 254.561 69.6863 254.561 58.5705V31.09Z" fill="#E9ECF2"/>
<path d="M176.961 13.965H203.234C236.193 13.965 262.95 40.6472 262.95 73.5136V259.277H117.245V73.5136C117.245 40.6472 144.002 13.965 176.961 13.965Z" fill="white"/>
<path d="M198.746 76.8758C198.746 79.8217 194.641 83.5997 190.187 83.5997C185.733 83.5997 182.125 79.8217 182.125 76.8758C182.125 73.9298 185.733 71.5348 190.187 71.5348C194.641 71.5348 198.746 73.9186 198.746 76.8758Z" fill="black"/>
<path d="M193.875 74.9417C193.717 75.1441 193.559 75.3689 193.525 75.6163C193.491 75.9087 193.627 76.201 193.751 76.4709C194.326 77.629 194.935 78.8434 195.983 79.5967C197.551 80.7324 199.885 80.5412 201.384 79.3044C201.531 79.1807 201.666 79.0458 201.745 78.8771C201.835 78.641 201.779 78.3711 201.779 78.1125C201.768 77.3929 202.174 76.7295 202.241 76.0211C202.41 74.2108 200.651 72.2881 198.96 72.007C196.987 71.6696 195.036 73.4799 193.875 74.9417Z" fill="black"/>
<path d="M198.622 71.1299C198.577 70.95 198.52 70.7588 198.396 70.6239C198.25 70.4665 198.024 70.4215 197.81 70.3653C196.896 70.1629 195.938 69.9717 195.036 70.2191C193.683 70.5902 192.747 71.9957 192.781 73.3899C192.781 73.5249 192.792 73.671 192.86 73.7835C192.95 73.9409 193.13 74.0308 193.277 74.1433C193.683 74.4581 193.886 74.9866 194.258 75.3464C195.205 76.2572 197.088 76.1222 198.013 75.3014C199.095 74.3344 198.937 72.4229 198.633 71.1186L198.622 71.1299Z" fill="black"/>
<path d="M188.395 69.4657C188.181 69.6118 187.955 69.7693 187.842 69.9941C187.707 70.264 187.741 70.5901 187.786 70.8824C187.955 72.1755 188.135 73.536 188.891 74.6042C190.018 76.2121 192.319 76.7856 194.145 76.0884C194.326 76.021 194.506 75.9423 194.63 75.7961C194.799 75.5937 194.833 75.3238 194.912 75.0765C195.138 74.3906 195.747 73.8846 196.04 73.2212C196.806 71.5458 195.747 69.1283 194.224 68.3075C192.443 67.3405 189.985 68.4312 188.395 69.4544V69.4657Z" fill="black"/>
<path d="M187.414 67.6106C187.166 67.5656 186.895 67.5318 186.658 67.6218C186.376 67.723 186.185 67.9816 186.016 68.229C185.26 69.2747 184.482 70.3766 184.313 71.6584C184.054 73.5699 185.316 75.5264 187.109 76.246C187.278 76.3135 187.47 76.3809 187.65 76.3585C187.91 76.3247 188.113 76.1561 188.338 76.0324C188.97 75.6838 189.737 75.7288 190.402 75.4477C192.082 74.7505 192.939 72.2993 192.398 70.6914C191.766 68.8024 189.263 67.9479 187.425 67.6218L187.414 67.6106Z" fill="black"/>
<path d="M188.011 69.938C187.921 69.6906 187.808 69.4433 187.605 69.2746C187.369 69.0835 187.053 69.0497 186.748 69.016C185.44 68.8923 184.076 68.7799 182.858 69.2746C181.043 70.0167 179.972 72.1306 180.254 74.0646C180.276 74.2557 180.321 74.4469 180.434 74.6043C180.592 74.8179 180.851 74.9079 181.077 75.0428C181.697 75.4139 182.058 76.111 182.644 76.5495C184.121 77.6627 186.715 77.1567 187.853 75.8636C189.195 74.3457 188.665 71.7146 188.011 69.938Z" fill="black"/>
<path d="M186.241 71.6247C186.083 71.3324 185.891 71.0288 185.598 70.8601C185.26 70.6577 184.843 70.6802 184.448 70.6915C182.746 70.7814 180.975 70.8939 179.509 71.7597C177.322 73.064 176.352 75.965 177.085 78.4049C177.153 78.641 177.243 78.8772 177.423 79.0571C177.66 79.2932 178.021 79.3607 178.337 79.4956C179.205 79.8554 179.803 80.6762 180.626 81.126C182.723 82.2729 185.959 81.126 187.177 79.2595C188.598 77.0556 187.425 73.7724 186.241 71.6247Z" fill="black"/>
<path d="M178.9 77.7865C178.698 77.9889 178.495 78.2137 178.427 78.4948C178.348 78.8209 178.461 79.1582 178.573 79.4731C179.058 80.8336 179.588 82.2616 180.648 83.2399C182.249 84.7016 184.865 84.7915 186.681 83.6109C186.861 83.4985 187.03 83.3635 187.132 83.1836C187.267 82.925 187.245 82.6214 187.267 82.3403C187.346 81.542 187.887 80.8561 188.056 80.069C188.485 78.0788 186.771 75.7176 184.933 75.1778C182.779 74.5482 180.378 76.3023 178.9 77.7865Z" fill="black"/>
<path d="M183.14 78.8098C182.892 78.911 182.644 79.0234 182.486 79.237C182.306 79.4844 182.272 79.7992 182.261 80.1028C182.182 81.4184 182.103 82.7902 182.644 83.9933C183.456 85.7923 185.609 86.7931 187.56 86.4557C187.752 86.422 187.944 86.377 188.09 86.2533C188.293 86.0847 188.383 85.8261 188.507 85.5899C188.857 84.949 189.556 84.5667 189.973 83.9708C191.044 82.4528 190.458 79.8779 189.116 78.776C187.538 77.483 184.91 78.1014 183.14 78.8098Z" fill="black"/>
<path d="M185.034 83.2848C184.91 83.5434 184.798 83.8132 184.82 84.0943C184.854 84.4204 185.068 84.7015 185.271 84.9489C186.162 86.0508 187.12 87.1977 188.428 87.7599C190.39 88.6032 192.837 87.8274 194.134 86.1408C194.258 85.9721 194.382 85.8034 194.416 85.5898C194.461 85.3087 194.337 85.0388 194.269 84.7577C194.078 83.9931 194.359 83.1836 194.258 82.4077C194.01 80.4175 191.642 78.7984 189.77 78.8996C187.571 79.0233 185.925 81.4295 185.034 83.2735V83.2848Z" fill="black"/>
<path d="M194.935 79.1583C194.799 79.0234 194.653 78.8884 194.461 78.8435C194.247 78.7872 194.021 78.8659 193.807 78.9447C192.905 79.2707 191.958 79.6193 191.315 80.3164C190.345 81.3734 190.289 83.105 191.078 84.2968C191.157 84.4093 191.247 84.533 191.36 84.5892C191.529 84.6791 191.732 84.6566 191.924 84.6791C192.454 84.7354 192.905 85.0839 193.424 85.1964C194.743 85.4775 196.31 84.3418 196.66 83.1275C197.077 81.7107 195.904 80.1253 194.923 79.1583H194.935Z" fill="black"/>
<path d="M192.928 79.2032C192.792 79.3831 192.657 79.5743 192.623 79.7992C192.589 80.0578 192.713 80.3164 192.826 80.5525C193.334 81.5645 193.886 82.6214 194.811 83.2848C196.198 84.2743 198.25 84.0832 199.546 82.9925C199.67 82.8913 199.795 82.7676 199.862 82.6102C199.941 82.3966 199.896 82.1604 199.885 81.9356C199.873 81.3059 200.223 80.7212 200.279 80.0915C200.415 78.4949 198.859 76.8195 197.37 76.5834C195.634 76.3023 193.931 77.8989 192.928 79.2032Z" fill="black"/>
<path d="M196.029 73.941C195.814 74.0197 195.6 74.1097 195.454 74.2896C195.284 74.492 195.251 74.7731 195.228 75.0317C195.115 76.1674 195.014 77.3592 195.454 78.4162C196.108 79.9904 197.945 80.9236 199.637 80.6875C199.806 80.665 199.975 80.6313 200.099 80.5301C200.28 80.3951 200.37 80.1703 200.482 79.9679C200.809 79.4282 201.418 79.1133 201.802 78.6073C202.771 77.3255 202.343 75.0654 201.204 74.076C199.874 72.9066 197.573 73.3676 196.029 73.9298V73.941Z" fill="black"/>
<path d="M153.154 86.5642C161.713 103.515 183.953 108.537 201.09 104.086C212.451 101.131 228.353 90.7356 228.071 77.2726C228.001 73.662 222.362 73.9214 222.441 77.5455C222.661 88.2871 207.986 96.5031 199.364 98.7338C184.452 102.588 165.307 98.247 157.905 83.5597C156.271 80.3253 151.526 83.3542 153.14 86.5727L153.154 86.5642Z" fill="black"/>
<path d="M170.489 52.285H170.478C168.173 52.285 166.306 54.1476 166.306 56.4453V61.7075C166.306 64.0052 168.173 65.8679 170.478 65.8679H170.489C172.793 65.8679 174.661 64.0052 174.661 61.7075V56.4453C174.661 54.1476 172.793 52.285 170.489 52.285Z" fill="black"/>
<path d="M204.023 52.285H204.012C201.707 52.285 199.84 54.1476 199.84 56.4453V61.7075C199.84 64.0052 201.707 65.8679 204.012 65.8679H204.023C206.327 65.8679 208.195 64.0052 208.195 61.7075V56.4453C208.195 54.1476 206.327 52.285 204.023 52.285Z" fill="black"/>
<path d="M117.245 136.616C117.245 136.616 122.432 160.667 86.045 218.596C49.6583 276.526 56.683 361.194 56.683 361.194H262.95V202.045L117.256 136.616H117.245Z" fill="white"/>
<path d="M3.70092 50.5748L1.21326 52.3054C-0.0635982 53.1936 -0.376601 54.9459 0.514145 56.2192L59.8279 141.005C60.7187 142.278 62.4758 142.59 63.7527 141.702L66.2404 139.972C67.5172 139.083 67.8302 137.331 66.9395 136.058L7.62571 51.272C6.73496 49.9987 4.97777 49.6866 3.70092 50.5748Z" fill="#3D3F4D"/>
<path d="M67.4445 125.767L49.9754 137.92C48.3615 139.042 47.9658 141.257 49.0917 142.867L67.3878 169.02C68.5137 170.629 70.7348 171.024 72.3487 169.901L89.8178 157.749C91.4318 156.626 91.8274 154.411 90.7015 152.802L72.4054 126.648C71.2795 125.039 69.0585 124.644 67.4445 125.767Z" fill="#69AFEE"/>
<path d="M207.731 326.304L190.262 338.457C188.648 339.579 188.252 341.794 189.378 343.404L221.035 388.655C222.161 390.265 224.382 390.659 225.996 389.537L243.465 377.384C245.079 376.261 245.474 374.047 244.348 372.437L212.692 327.186C211.566 325.576 209.345 325.182 207.731 326.304Z" fill="#3B80D3"/>
<path d="M88.3794 134.972L51.4159 160.686C49.802 161.809 49.4063 164.023 50.5322 165.633L68.8283 191.786C69.9542 193.396 72.1753 193.79 73.7892 192.667L110.753 166.954C112.367 165.831 112.762 163.616 111.636 162.007L93.3403 135.853C92.2144 134.244 89.9933 133.849 88.3794 134.972Z" fill="#3B80D3"/>
<path d="M63.8407 184.972L106.926 154.999C114.001 150.078 123.741 151.816 128.67 158.861L233.827 309.178L165.125 356.97L59.9676 206.654C55.0323 199.599 56.7754 189.887 63.8407 184.972Z" fill="#E1F4FF"/>
<path d="M231.684 299.209L156.49 351.518C154.876 352.641 154.481 354.855 155.606 356.465L165.283 370.298C166.409 371.907 168.63 372.302 170.244 371.179L245.438 318.87C247.052 317.747 247.448 315.532 246.322 313.923L236.645 300.09C235.519 298.481 233.298 298.086 231.684 299.209Z" fill="#6DB2F8"/>
<path d="M263.377 344.542L188.183 396.851C186.569 397.974 186.174 400.189 187.3 401.798L196.977 415.631C198.103 417.24 200.324 417.635 201.938 416.512L277.132 364.203C278.746 363.08 279.141 360.866 278.015 359.256L268.338 345.423C267.212 343.814 264.991 343.419 263.377 344.542Z" fill="#6DB2F8"/>
<path d="M139.056 173.709L144.017 180.8L116.644 199.843C115.368 200.731 113.609 200.418 112.719 199.146L110.984 196.665C110.093 195.392 110.407 193.639 111.683 192.751L139.056 173.709Z" fill="#AAC5E2"/>
<path d="M210.516 275.886L215.477 282.977L188.104 302.02C186.828 302.908 185.069 302.595 184.179 301.323L182.444 298.842C181.553 297.569 181.867 295.816 183.143 294.928L210.516 275.886Z" fill="#AAC5E2"/>
<path d="M174.788 224.784L179.749 231.876L140.797 258.973C139.521 259.86 137.763 259.548 136.872 258.275L135.137 255.795C134.247 254.522 134.56 252.769 135.836 251.881L174.788 224.784Z" fill="#AAC5E2"/>
<path d="M156.92 199.254L161.882 206.346L142.85 219.585C141.573 220.473 139.815 220.161 138.925 218.888L137.189 216.408C136.299 215.135 136.612 213.382 137.888 212.494L156.92 199.254Z" fill="#AAC5E2"/>
<path d="M192.655 250.34L197.616 257.431L178.584 270.671C177.308 271.559 175.55 271.246 174.66 269.974L172.924 267.493C172.034 266.22 172.347 264.467 173.623 263.579L192.655 250.34Z" fill="#AAC5E2"/>
<path d="M51.0902 312.923C51.0902 312.923 -4.92762 275.941 70.8114 203.552C146.55 131.162 160.758 219.293 130.776 247.617C100.794 275.941 88.954 338.098 88.954 338.098L51.0789 312.923H51.0902Z" fill="white"/>
<path d="M286.584 232.044C286.584 232.044 322.824 280.765 235.945 319.062C149.065 357.359 164.254 277.976 198.543 263.1C232.833 248.213 262.149 198.953 262.149 198.953L286.595 232.044H286.584Z" fill="white"/>
</g>
</g>
<defs>
<clipPath id="clip0_75_2030">
<rect width="294.082" height="361.82" rx="49.5644" fill="white"/>
</clipPath>
<clipPath id="clip1_75_2030">
<rect width="294.082" height="417.167" fill="white"/>
</clipPath>
</defs>
</svg>
