<svg width="105" height="120" viewBox="0 0 105 120" fill="none" xmlns="http://www.w3.org/2000/svg">
<path d="M0.46934 119.099L1.26606 119.772C1.675 120.117 2.28526 120.065 2.62913 119.655L25.5268 92.3906C25.8706 91.9812 25.8179 91.3694 25.4089 91.0241L24.6122 90.3514C24.2033 90.0061 23.593 90.0581 23.2491 90.4676L0.351518 117.732C0.00765203 118.142 0.0604027 118.754 0.46934 119.099Z" fill="#3D3F4D"/>
<path d="M19.7835 91.2161L25.3783 95.94C25.8952 96.3764 26.6666 96.3107 27.1013 95.7932L34.1643 87.383C34.599 86.8655 34.5323 86.0921 34.0154 85.6557L28.4206 80.9318C27.9037 80.4954 27.1323 80.5611 26.6977 81.0787L19.6346 89.4888C19.2 90.0063 19.2666 90.7797 19.7835 91.2161Z" fill="#69AFEE"/>
<path d="M73.9416 26.7306L79.5364 31.4545C80.0533 31.8909 80.8247 31.8251 81.2593 31.3076L93.4802 16.7559C93.9148 16.2384 93.8482 15.465 93.3313 15.0286L87.7365 10.3047C87.2196 9.86826 86.4482 9.93402 86.0135 10.4516L73.7927 25.0032C73.358 25.5208 73.4247 26.2941 73.9416 26.7306Z" fill="#3B80D3"/>
<path d="M20.9789 83.438L32.8172 93.4334C33.3341 93.8698 34.1055 93.8041 34.5401 93.2865L41.6032 84.8764C42.0378 84.3588 41.9711 83.5855 41.4542 83.1491L29.616 73.1536C29.0991 72.7172 28.3277 72.783 27.8931 73.3005L20.83 81.7106C20.3954 82.2282 20.462 83.0015 20.9789 83.438Z" fill="#3B80D3"/>
<path d="M39.7824 87.1413L25.9835 75.4903C23.7177 73.5773 23.428 70.1852 25.3307 67.9196L65.9258 19.5821L87.9289 38.16L47.3338 86.4976C45.4286 88.7662 42.0452 89.0518 39.7824 87.1413Z" fill="#E1F4FF"/>
<path d="M62.8034 21.1819L86.8857 41.5153C87.4026 41.9518 88.1739 41.886 88.6086 41.3685L92.3443 36.9202C92.779 36.4027 92.7123 35.6293 92.1954 35.1929L68.1131 14.8594C67.5963 14.423 66.8249 14.4887 66.3902 15.0063L62.6545 19.4545C62.2198 19.9721 62.2865 20.7454 62.8034 21.1819Z" fill="#6DB2F8"/>
<path d="M75.0476 6.61118L99.1299 26.9446C99.6468 27.3811 100.418 27.3153 100.853 26.7978L104.589 22.3495C105.023 21.832 104.957 21.0586 104.44 20.6222L80.3574 0.288743C79.8405 -0.14769 79.0691 -0.0819364 78.6344 0.435607L74.8987 4.88385C74.4641 5.40139 74.5307 6.17474 75.0476 6.61118Z" fill="#6DB2F8"/>
<path d="M29.3404 63.1454L31.2556 60.865L40.0225 68.2671C40.4312 68.6122 40.484 69.2244 40.1403 69.6337L39.4703 70.4314C39.1267 70.8406 38.516 70.8927 38.1073 70.5476L29.3404 63.1454Z" fill="#AAC5E2"/>
<path d="M56.9363 30.2948L58.8515 28.0144L67.6184 35.4165C68.0271 35.7616 68.0799 36.3738 67.7362 36.7831L67.0663 37.5808C66.7226 37.99 66.1119 38.0421 65.7032 37.697L56.9363 30.2948Z" fill="#AAC5E2"/>
<path d="M43.1338 46.7199L45.049 44.4394L57.5241 54.9725C57.9328 55.3176 57.9856 55.9299 57.6419 56.3391L56.9719 57.1368C56.6282 57.5461 56.0176 57.5981 55.6089 57.253L43.1338 46.7199Z" fill="#AAC5E2"/>
<path d="M36.24 54.9329L38.1552 52.6524L44.2505 57.7989C44.6593 58.144 44.7121 58.7562 44.3684 59.1655L43.6984 59.9632C43.3547 60.3724 42.7441 60.4245 42.3353 60.0794L36.24 54.9329Z" fill="#AAC5E2"/>
<path d="M50.0367 38.5057L51.9519 36.2253L58.0473 41.3718C58.456 41.7169 58.5088 42.3291 58.1651 42.7383L57.4951 43.536C57.1514 43.9453 56.5408 43.9973 56.1321 43.6522L50.0367 38.5057Z" fill="#AAC5E2"/>
</svg>
