<svg width="56" height="56" viewBox="0 0 56 56" fill="none" xmlns="http://www.w3.org/2000/svg">
<path d="M25.1726 2.73778C26.7487 1.2117 29.2513 1.2117 30.8274 2.73778L32.3333 4.196C33.3429 5.17367 34.786 5.56034 36.1493 5.21849L38.1826 4.7086C40.3105 4.17498 42.4778 5.42632 43.0797 7.53595L43.6547 9.55177C44.0403 10.9033 45.0967 11.9597 46.4482 12.3453L48.464 12.9203C50.5737 13.5222 51.825 15.6895 51.2914 17.8174L50.7815 19.8507C50.4397 21.214 50.8263 22.6571 51.804 23.6667L53.2622 25.1726C54.7883 26.7487 54.7883 29.2513 53.2622 30.8274L51.804 32.3333C50.8263 33.3429 50.4397 34.786 50.7815 36.1493L51.2914 38.1826C51.825 40.3105 50.5737 42.4778 48.4641 43.0797L46.4482 43.6547C45.0967 44.0403 44.0403 45.0967 43.6547 46.4482L43.0797 48.4641C42.4778 50.5737 40.3105 51.825 38.1826 51.2914L36.1493 50.7815C34.786 50.4397 33.3429 50.8263 32.3333 51.804L30.8274 53.2622C29.2513 54.7883 26.7487 54.7883 25.1726 53.2622L23.6667 51.804C22.6571 50.8263 21.214 50.4397 19.8507 50.7815L17.8174 51.2914C15.6895 51.825 13.5222 50.5737 12.9203 48.4641L12.3453 46.4482C11.9597 45.0967 10.9033 44.0403 9.55177 43.6547L7.53595 43.0797C5.42632 42.4778 4.17498 40.3105 4.7086 38.1826L5.21849 36.1493C5.56034 34.786 5.17367 33.3429 4.196 32.3333L2.73778 30.8274C1.2117 29.2513 1.2117 26.7487 2.73778 25.1726L4.196 23.6667C5.17367 22.6571 5.56034 21.214 5.21849 19.8507L4.7086 17.8174C4.17498 15.6895 5.42632 13.5222 7.53595 12.9203L9.55177 12.3453C10.9033 11.9597 11.9597 10.9033 12.3453 9.55177L12.9203 7.53595C13.5222 5.42632 15.6895 4.17498 17.8174 4.7086L19.8507 5.21849C21.214 5.56034 22.6571 5.17367 23.6667 4.196L25.1726 2.73778Z" fill="#F2F4F6"/>
<path d="M19.9 27.6752C19.7167 27.4752 19.625 27.2377 19.625 26.9627C19.625 26.6877 19.7167 26.4502 19.9 26.2502L22.7 23.4502L21.625 22.3752L21.325 22.6752C21.125 22.8752 20.8875 22.9752 20.6125 22.9752C20.3375 22.9752 20.1 22.8752 19.9 22.6752C19.7167 22.4752 19.625 22.2377 19.625 21.9627C19.625 21.6877 19.7167 21.4585 19.9 21.2752L21.9 19.2752C22.1 19.0752 22.3375 18.9752 22.6125 18.9752C22.8875 18.9752 23.125 19.0752 23.325 19.2752C23.525 19.4585 23.625 19.6919 23.625 19.9752C23.625 20.2585 23.525 20.4919 23.325 20.6752L23.025 20.9752L24.1 22.0502L26.9 19.2502C27.1 19.0502 27.3375 18.9502 27.6125 18.9502C27.8875 18.9502 28.125 19.0502 28.325 19.2502C28.525 19.4502 28.625 19.6877 28.625 19.9627C28.625 20.2377 28.525 20.4752 28.325 20.6752L27.65 21.3252L29.2 22.8752L26.375 25.6752C26.1917 25.8752 26.1 26.1127 26.1 26.3877C26.1 26.6627 26.1917 26.9002 26.375 27.1002C26.575 27.3002 26.8125 27.4002 27.0875 27.4002C27.3625 27.4002 27.6 27.3002 27.8 27.1002L30.6 24.2752L32.125 25.7752L29.3 28.6002C29.1 28.8002 29 29.0377 29 29.3127C29 29.5877 29.1 29.8252 29.3 30.0252C29.4833 30.2085 29.7125 30.296 29.9875 30.2877C30.2625 30.2794 30.5 30.1835 30.7 30.0002L33.5 27.1752L35.025 28.7002C35.4083 29.0835 35.6 29.5544 35.6 30.1127C35.6 30.671 35.4083 31.1419 35.025 31.5252L34.325 32.2502L38.2 36.1002C38.3667 36.2669 38.4083 36.4502 38.325 36.6502C38.2417 36.8502 38.0833 36.9502 37.85 36.9502H36.825C36.625 36.9502 36.4292 36.9085 36.2375 36.8252C36.0458 36.7419 35.8833 36.6335 35.75 36.5002L32.9 33.6502L32.2 34.3752C31.8167 34.7585 31.3458 34.9502 30.7875 34.9502C30.2292 34.9502 29.7583 34.7585 29.375 34.3752L22 27.0002L21.325 27.6752C21.125 27.8585 20.8875 27.9502 20.6125 27.9502C20.3375 27.9502 20.1 27.8585 19.9 27.6752Z" fill="#8B95A1"/>
</svg>
