<svg width="353" height="520" viewBox="0 0 353 520" fill="none" xmlns="http://www.w3.org/2000/svg">
<g filter="url(#filter0_b_142_2231)">
<rect width="353" height="520" rx="28" fill="#414141"/>
<mask id="mask0_142_2231" style="mask-type:alpha" maskUnits="userSpaceOnUse" x="0" y="0" width="353" height="486">
<rect width="353" height="485.375" rx="28" fill="#4196FD"/>
<rect width="353" height="485.375" rx="28" fill="url(#paint0_linear_142_2231)" fill-opacity="0.3"/>
</mask>
<g mask="url(#mask0_142_2231)">
<g opacity="0.3">
<path d="M148.893 90.9712C154.433 102.537 145.424 125.087 127.938 133.462C110.452 141.837 89.1827 133.789 83.6432 122.224C78.1037 110.658 87.7658 94.4709 105.251 86.0959C122.737 77.7209 143.333 79.3616 148.893 90.9712Z" fill="white"/>
<path d="M126.137 92.533C125.898 93.6245 125.701 94.8042 126.033 95.8389C126.45 97.0502 127.531 97.9436 128.525 98.7698C132.961 102.235 137.635 105.858 143.168 106.843C151.457 108.355 160.261 103.215 163.822 95.5397C164.165 94.7785 164.443 93.9944 164.435 93.1838C164.346 92.0872 163.617 91.1338 163.131 90.1185C161.733 87.3145 162.079 83.9468 161.013 81.0385C158.273 73.6134 147.752 69.3725 140.583 71.4493C132.202 73.8355 127.948 84.6106 126.137 92.533Z" fill="white"/>
<path d="M137.603 68.6436C137.088 68.0222 136.507 67.3777 135.767 67.0812C134.895 66.7389 133.925 66.9864 132.978 67.1685C129.012 68.0913 124.89 69.1431 121.814 71.8104C117.199 75.8115 116.168 83.0892 118.923 88.4993C119.176 89.029 119.496 89.5817 119.973 89.8959C120.623 90.3443 121.5 90.3582 122.287 90.524C124.473 90.9967 126.263 92.6898 128.401 93.4027C133.832 95.1973 140.971 91.1268 143.057 86.1657C145.488 80.3339 141.274 73.1264 137.627 68.5783L137.603 68.6436Z" fill="white"/>
<path d="M94.3274 81.34C93.7612 82.3167 93.1718 83.3588 93.152 84.4536C93.1282 85.7675 93.8741 86.9841 94.6009 88.047C97.6964 92.8054 100.963 97.8075 105.938 100.581C113.388 104.773 123.497 102.699 129.357 96.5271C129.938 95.923 130.499 95.2747 130.711 94.4676C130.994 93.355 130.62 92.2319 130.464 91.1124C130.06 87.9956 131.499 84.8642 131.402 81.7085C131.262 73.6894 122.555 66.1916 115.036 65.8315C106.223 65.3852 98.6239 74.2892 94.3062 81.2958L94.3274 81.34Z" fill="white"/>
<path d="M86.9829 75.9027C85.9245 76.1925 84.7985 76.569 84.0381 77.3674C83.1217 78.2947 82.8555 79.6705 82.6566 80.9596C81.657 86.4855 80.6746 92.2745 82.4209 97.6249C84.997 105.617 93.6339 110.923 102.026 110.377C102.816 110.324 103.696 110.228 104.362 109.801C105.317 109.181 105.796 108.137 106.449 107.227C108.272 104.672 111.367 103.406 113.45 101.052C118.735 95.1557 117.491 83.9211 112.342 78.6264C106.311 72.3976 94.877 73.7497 87.0483 75.9256L86.9829 75.9027Z" fill="white"/>
<path d="M93.7079 83.9156C92.8886 83.1141 91.9808 82.355 90.8668 82.0745C89.5778 81.7693 88.2748 82.2305 87.0162 82.6706C81.6486 84.6445 76.0808 86.7686 72.2302 91.0007C66.4986 97.3278 66.2681 107.641 71.0114 114.704C71.4594 115.412 71.9959 116.077 72.7346 116.483C73.756 117.025 74.9433 116.891 76.0823 116.996C79.2148 117.287 81.9422 119.345 85.0687 119.964C92.9609 121.557 102.191 114.694 104.231 107.476C106.644 98.9935 99.616 89.6605 93.7079 83.9156Z" fill="white"/>
<path d="M89.9274 93.8648C88.7579 93.0139 87.4345 92.1825 85.9665 92.0716C84.2579 91.9131 82.6622 92.7859 81.134 93.5721C74.6188 97.1269 67.8802 100.897 63.7535 107.052C57.6182 116.286 59.2661 129.499 66.7315 137.7C67.4412 138.499 68.2393 139.257 69.2859 139.624C70.6595 140.106 72.2029 139.692 73.6961 139.628C77.7813 139.408 81.6709 141.507 85.7481 141.725C96.1385 142.284 106.687 131.696 107.958 122.078C109.391 110.755 98.6138 100.07 89.9274 93.8648Z" fill="white"/>
<path d="M72.6959 131.864C72.2797 133.04 71.9058 134.304 72.1687 135.535C72.472 136.964 73.5489 138.076 74.5836 139.1C79.0454 143.53 83.8112 148.139 89.8118 149.987C98.8464 152.714 109.286 148.149 114.193 140.1C114.689 139.319 115.1 138.472 115.16 137.574C115.205 136.305 114.545 135.155 114.105 134.009C112.914 130.727 113.749 127.016 112.933 123.608C110.873 114.989 99.7042 108.942 91.4738 110.279C81.8347 111.857 75.7041 123.259 72.6959 131.864Z" fill="white"/>
<path d="M91.2655 127.902C90.4819 128.766 89.7195 129.674 89.5015 130.809C89.2583 132.12 89.7176 133.419 90.2441 134.632C92.408 139.946 94.6776 145.479 99.0647 149.185C105.635 154.721 115.972 154.6 122.996 149.608C123.685 149.115 124.353 148.578 124.696 147.817C125.175 146.773 125.043 145.588 125.086 144.428C125.253 141.255 127.279 138.439 127.796 135.315C129.147 127.342 122.004 118.335 114.664 116.532C106.035 114.424 96.8835 121.792 91.2655 127.902Z" fill="white"/>
<path d="M107.117 141.911C107.116 143.16 107.181 144.431 107.798 145.492C108.544 146.709 109.913 147.41 111.175 147.999C116.745 150.65 122.664 153.351 128.856 153.098C138.144 152.72 146.291 145.073 148.211 136.013C148.381 135.118 148.55 134.222 148.281 133.32C147.93 132.132 146.936 131.306 146.141 130.329C143.951 127.688 143.535 123.98 141.678 121.124C136.962 113.778 124.621 111.873 117.463 115.79C109.064 120.41 107.125 132.953 107.095 141.867L107.117 141.911Z" fill="white"/>
<path d="M138.223 107.098C137.439 106.823 136.609 106.569 135.772 106.753C134.825 106.935 134.088 107.668 133.395 108.38C130.467 111.356 127.404 114.506 126.191 118.451C124.372 124.424 127.407 131.328 132.746 134.523C133.268 134.816 133.854 135.132 134.403 135.141C135.236 135.176 135.99 134.706 136.785 134.434C138.972 133.658 141.398 134.178 143.645 133.644C149.353 132.267 153.371 124.861 152.46 119.437C151.434 113.09 143.849 109.071 138.179 107.119L138.223 107.098Z" fill="white"/>
<path d="M130.428 111.044C130.235 112.004 130.063 113.009 130.353 113.956C130.707 115.035 131.68 115.817 132.567 116.532C136.462 119.551 140.618 122.661 145.496 123.527C152.801 124.804 160.498 120.194 163.538 113.474C163.835 112.844 164.089 112.125 164.059 111.38C163.967 110.392 163.346 109.55 162.879 108.689C161.65 106.238 161.923 103.285 160.961 100.707C158.49 94.1843 149.23 90.5329 142.943 92.4046C135.597 94.5662 131.915 104.036 130.428 111.044Z" fill="white"/>
<path d="M132.713 84.5553C132.02 85.2672 131.348 86.0232 131.111 87.0051C130.828 88.1177 131.223 89.2849 131.621 90.3426C133.314 95.0131 135.157 99.8831 138.871 103.206C144.398 108.156 153.369 108.364 159.565 104.256C160.186 103.85 160.787 103.4 161.084 102.769C161.538 101.9 161.469 100.848 161.532 99.8411C161.8 97.1074 163.599 94.7264 164.153 92.0191C165.549 85.1633 159.617 77.0962 153.286 75.3531C145.863 73.2641 137.7 79.3993 132.692 84.5112L132.713 84.5553Z" fill="white"/>
<path d="M-10.3886 214.021C55.0899 264.474 151.843 242.368 210.753 192.671C249.797 159.71 292.679 88.9958 266.259 36.6701C259.194 22.6276 237.544 34.2493 244.669 48.3285C265.73 90.0856 223.567 149.935 193.913 174.905C142.615 218.075 59.2911 237.035 2.61324 193.293C-9.88178 183.666 -22.8137 204.479 -10.4254 214.08L-10.3886 214.021Z" fill="white"/>
<path d="M1.68762 42.7868L1.64337 42.808C-7.40247 47.1407 -11.2331 57.9655 -6.91262 66.986L2.98233 87.645C7.30282 96.6655 18.1384 100.466 27.1842 96.1331L27.2284 96.1119C36.2743 91.7792 40.1049 80.9544 35.7844 71.9339L25.8895 51.2749C21.569 42.2544 10.7335 38.4542 1.68762 42.7868Z" fill="white"/>
<path d="M133.343 -20.272L133.299 -20.2508C124.253 -15.9181 120.422 -5.0933 124.743 3.92716L134.638 24.5862C138.958 33.6067 149.794 37.4069 158.84 33.0743L158.884 33.053C167.93 28.7204 171.761 17.8956 167.44 8.8751L157.545 -11.7839C153.225 -20.8044 142.389 -24.6046 133.343 -20.272Z" fill="white"/>
</g>
</g>
<rect y="80" width="353" height="440" rx="28" fill="url(#paint1_linear_142_2231)"/>
</g>
<defs>
<filter id="filter0_b_142_2231" x="-42.9224" y="-42.9224" width="438.845" height="605.845" filterUnits="userSpaceOnUse" color-interpolation-filters="sRGB">
<feFlood flood-opacity="0" result="BackgroundImageFix"/>
<feGaussianBlur in="BackgroundImageFix" stdDeviation="21.4612"/>
<feComposite in2="SourceAlpha" operator="in" result="effect1_backgroundBlur_142_2231"/>
<feBlend mode="normal" in="SourceGraphic" in2="effect1_backgroundBlur_142_2231" result="shape"/>
</filter>
<linearGradient id="paint0_linear_142_2231" x1="331.031" y1="441.96" x2="-10.115" y2="84.0883" gradientUnits="userSpaceOnUse">
<stop stop-color="#6DB2F8"/>
<stop offset="1" stop-color="white"/>
</linearGradient>
<linearGradient id="paint1_linear_142_2231" x1="176.5" y1="80" x2="176.5" y2="520" gradientUnits="userSpaceOnUse">
<stop offset="0.6" stop-color="#414141" stop-opacity="0"/>
<stop offset="0.85" stop-color="#414141"/>
</linearGradient>
</defs>
</svg>
