<svg width="353" height="520" viewBox="0 0 353 520" fill="none" xmlns="http://www.w3.org/2000/svg">
<g filter="url(#filter0_b_19_11636)">
<rect width="353" height="520" fill="#4196FD"/>
<mask id="mask0_19_11636" style="mask-type:alpha" maskUnits="userSpaceOnUse" x="0" y="0" width="320" height="440">
<rect width="320" height="440" rx="28" fill="#4196FD"/>
<rect width="320" height="440" rx="28" fill="url(#paint0_linear_19_11636)" fill-opacity="0.3"/>
</mask>
<g mask="url(#mask0_19_11636)">
<g opacity="0.3">
<path d="M134.974 82.4668C139.996 92.9512 131.829 113.393 115.978 120.985C100.127 128.577 80.8456 121.282 75.824 110.798C70.8023 100.313 79.5611 85.6393 95.4121 78.0473C111.263 70.4552 129.933 71.9425 134.974 82.4668Z" fill="white"/>
<path d="M114.345 83.8827C114.128 84.872 113.95 85.9414 114.251 86.8795C114.629 87.9776 115.609 88.7874 116.51 89.5363C120.531 92.6778 124.768 95.9617 129.784 96.8553C137.298 98.2253 145.279 93.5664 148.508 86.6082C148.818 85.9182 149.07 85.2074 149.063 84.4726C148.982 83.4785 148.321 82.6142 147.88 81.6938C146.614 79.152 146.928 76.099 145.961 73.4627C143.477 66.7317 133.939 62.8873 127.441 64.7699C119.843 66.933 115.987 76.7008 114.345 83.8827Z" fill="white"/>
<path d="M124.74 62.2265C124.273 61.6631 123.746 61.079 123.075 60.8102C122.285 60.4998 121.405 60.7242 120.547 60.8893C116.952 61.7258 113.215 62.6793 110.426 65.0973C106.243 68.7243 105.308 75.3216 107.805 80.226C108.035 80.7062 108.325 81.2072 108.757 81.4921C109.346 81.8985 110.142 81.9111 110.855 82.0614C112.837 82.49 114.46 84.0248 116.397 84.671C121.321 86.2979 127.792 82.6078 129.684 78.1106C131.888 72.824 128.068 66.2902 124.761 62.1673L124.74 62.2265Z" fill="white"/>
<path d="M85.5093 73.736C84.996 74.6214 84.4618 75.566 84.4438 76.5585C84.4222 77.7496 85.0984 78.8524 85.7573 79.816C88.5634 84.1296 91.5246 88.664 96.0341 91.1778C102.788 94.9781 111.952 93.098 117.264 87.5033C117.791 86.9557 118.299 86.368 118.491 85.6364C118.748 84.6278 118.409 83.6097 118.268 82.5948C117.901 79.7694 119.206 76.9307 119.118 74.07C118.991 66.8006 111.098 60.0037 104.282 59.6773C96.2932 59.2727 89.4042 67.3444 85.4902 73.6959L85.5093 73.736Z" fill="white"/>
<path d="M78.8514 68.8069C77.8919 69.0697 76.8713 69.411 76.1819 70.1347C75.3512 70.9754 75.1098 72.2225 74.9296 73.3912C74.0234 78.4005 73.1328 83.6483 74.7159 88.4985C77.0512 95.7434 84.8806 100.554 92.4878 100.059C93.2048 100.01 94.0019 99.9237 94.6057 99.5362C95.4711 98.9741 95.906 98.0278 96.4977 97.2033C98.1508 94.8864 100.956 93.7395 102.845 91.605C107.636 86.2602 106.507 76.0758 101.84 71.276C96.3729 65.6296 86.0076 66.8553 78.9107 68.8277L78.8514 68.8069Z" fill="white"/>
<path d="M84.9477 76.0708C84.2051 75.3442 83.3821 74.6561 82.3723 74.4018C81.2037 74.1251 80.0226 74.5433 78.8816 74.9422C74.0158 76.7316 68.9685 78.6571 65.4779 82.4936C60.2821 88.2292 60.0732 97.5782 64.373 103.981C64.7791 104.622 65.2655 105.226 65.9351 105.594C66.8611 106.085 67.9373 105.963 68.9699 106.059C71.8095 106.322 74.282 108.188 77.1162 108.749C84.2706 110.193 92.6378 103.972 94.4867 97.4286C96.6746 89.7391 90.3035 81.2786 84.9477 76.0708Z" fill="white"/>
<path d="M81.5207 85.0899C80.4605 84.3186 79.2609 83.5649 77.93 83.4644C76.3811 83.3207 74.9347 84.1119 73.5493 84.8246C67.6432 88.047 61.5345 91.4648 57.7936 97.0447C52.2319 105.415 53.7257 117.393 60.4933 124.827C61.1365 125.552 61.8601 126.238 62.8088 126.571C64.054 127.008 65.4531 126.633 66.8067 126.575C70.51 126.376 74.036 128.278 77.7321 128.476C87.1511 128.982 96.7131 119.384 97.8654 110.666C99.1651 100.401 89.395 90.7149 81.5207 85.0899Z" fill="white"/>
<path d="M65.9001 119.536C65.5228 120.603 65.1838 121.749 65.4222 122.865C65.6971 124.16 66.6733 125.168 67.6113 126.096C71.656 130.112 75.9762 134.29 81.4159 135.965C89.6058 138.438 99.0691 134.299 103.517 127.003C103.968 126.295 104.34 125.527 104.394 124.713C104.435 123.562 103.837 122.52 103.438 121.482C102.358 118.506 103.115 115.142 102.376 112.053C100.508 104.239 90.3835 98.7575 82.9225 99.9696C74.1845 101.4 68.627 111.736 65.9001 119.536Z" fill="white"/>
<path d="M82.7337 115.945C82.0234 116.728 81.3322 117.551 81.1346 118.581C80.9142 119.769 81.3304 120.947 81.8078 122.046C83.7694 126.863 85.8268 131.879 89.8038 135.239C95.7597 140.257 105.13 140.148 111.498 135.622C112.122 135.175 112.728 134.688 113.039 133.998C113.473 133.052 113.354 131.978 113.393 130.926C113.544 128.05 115.38 125.497 115.849 122.665C117.074 115.437 110.598 107.273 103.945 105.638C96.1224 103.727 87.8265 110.407 82.7337 115.945Z" fill="white"/>
<path d="M97.103 128.645C97.1024 129.777 97.1611 130.929 97.7205 131.891C98.3967 132.994 99.6383 133.629 100.782 134.164C105.831 136.567 111.197 139.015 116.81 138.786C125.23 138.443 132.616 131.511 134.355 123.298C134.509 122.486 134.663 121.675 134.419 120.857C134.101 119.78 133.199 119.031 132.479 118.145C130.494 115.751 130.117 112.389 128.434 109.801C124.158 103.141 112.971 101.415 106.482 104.966C98.8679 109.154 97.1107 120.524 97.0838 128.605L97.103 128.645Z" fill="white"/>
<path d="M125.302 97.0862C124.59 96.8366 123.839 96.6063 123.08 96.7729C122.221 96.9381 121.553 97.6026 120.925 98.2479C118.27 100.946 115.494 103.801 114.395 107.378C112.745 112.792 115.496 119.051 120.337 121.947C120.809 122.213 121.341 122.499 121.838 122.507C122.594 122.539 123.278 122.113 123.998 121.866C125.98 121.163 128.179 121.635 130.217 121.151C135.391 119.902 139.033 113.189 138.207 108.271C137.277 102.518 130.401 98.8746 125.262 97.1054L125.302 97.0862Z" fill="white"/>
<path d="M118.235 100.663C118.06 101.534 117.904 102.445 118.167 103.303C118.488 104.281 119.37 104.99 120.174 105.638C123.705 108.374 127.473 111.194 131.894 111.979C138.517 113.136 145.494 108.958 148.25 102.866C148.519 102.294 148.749 101.643 148.722 100.967C148.639 100.072 148.076 99.309 147.652 98.5279C146.539 96.3062 146.786 93.6295 145.913 91.2925C143.673 85.3795 135.28 82.0695 129.58 83.7662C122.921 85.7257 119.583 94.3104 118.235 100.663Z" fill="white"/>
<path d="M120.307 76.6507C119.678 77.296 119.069 77.9814 118.854 78.8715C118.597 79.8801 118.956 80.9382 119.317 81.897C120.851 86.1309 122.522 90.5456 125.888 93.5575C130.899 98.0451 139.031 98.2335 144.648 94.5101C145.212 94.1418 145.756 93.7334 146.025 93.1618C146.437 92.3741 146.375 91.42 146.431 90.5075C146.675 88.0293 148.305 85.871 148.807 83.4167C150.073 77.2019 144.696 69.8889 138.956 68.3087C132.227 66.415 124.827 71.9767 120.288 76.6107L120.307 76.6507Z" fill="white"/>
<path d="M-9.41731 194.013C49.9399 239.75 137.648 219.711 191.051 174.66C226.445 144.78 265.318 80.6761 241.368 33.242C234.963 20.5123 215.338 31.0475 221.796 43.8105C240.889 81.664 202.667 135.919 175.785 158.554C129.283 197.688 53.7484 214.876 2.36903 175.223C-8.9579 166.496 -20.6809 185.364 -9.45067 194.067L-9.41731 194.013Z" fill="white"/>
<path d="M1.52994 38.7869L1.48983 38.8061C-6.71037 42.7338 -10.1829 52.5466 -6.26631 60.7238L2.70362 79.4516C6.62021 87.6287 16.4428 91.0737 24.643 87.1461L24.6831 87.1269C32.8833 83.1993 36.3558 73.3864 32.4392 65.2092L23.4693 46.4815C19.5527 38.3043 9.73013 34.8593 1.52994 38.7869Z" fill="white"/>
<path d="M120.878 -18.3769L120.838 -18.3576C112.637 -14.43 109.165 -4.61716 113.081 3.56003L122.051 22.2878C125.968 30.465 135.791 33.9099 143.991 29.9823L144.031 29.9631C152.231 26.0355 155.704 16.2226 151.787 8.04542L142.817 -10.6823C138.901 -18.8595 129.078 -22.3045 120.878 -18.3769Z" fill="white"/>
</g>
</g>
</g>
<defs>
<filter id="filter0_b_19_11636" x="-42.9224" y="-42.9224" width="438.845" height="605.845" filterUnits="userSpaceOnUse" color-interpolation-filters="sRGB">
<feFlood flood-opacity="0" result="BackgroundImageFix"/>
<feGaussianBlur in="BackgroundImageFix" stdDeviation="21.4612"/>
<feComposite in2="SourceAlpha" operator="in" result="effect1_backgroundBlur_19_11636"/>
<feBlend mode="normal" in="SourceGraphic" in2="effect1_backgroundBlur_19_11636" result="shape"/>
</filter>
<linearGradient id="paint0_linear_19_11636" x1="300.084" y1="400.644" x2="-9.16937" y2="76.2274" gradientUnits="userSpaceOnUse">
<stop stop-color="#6DB2F8"/>
<stop offset="1" stop-color="white"/>
</linearGradient>
</defs>
</svg>
