<svg width="122" height="62" viewBox="0 0 122 62" fill="none" xmlns="http://www.w3.org/2000/svg">
<g clip-path="url(#clip0_126_18343)">
<path d="M19.929 17.4835H6.72175C5.1563 17.4835 3.94528 16.208 3.94528 14.513C3.94528 12.8179 5.1563 11.5424 6.72175 11.5424H19.929V5.10198C19.929 3.19293 21.4227 1.70346 23.486 1.70346C25.5494 1.70346 27.0431 3.18874 27.0431 5.10198V29.1644C27.0431 31.1951 25.3848 32.844 23.3426 32.844H8.54038C3.82292 32.844 0 29.0427 0 24.3519V5.09779C0 3.18454 1.49372 1.69926 3.55709 1.69926C5.62045 1.69926 7.11417 3.18454 7.11417 5.09779V23.9239C7.11417 25.4889 8.38848 26.756 9.96237 26.756H19.929V17.4835ZM7.32937 46.1486C5.62045 46.1486 4.27019 44.7347 4.27019 42.9641C4.27019 41.1935 5.62467 39.7795 7.32937 39.7795H34.8746C45.3307 39.7795 53.8078 48.2087 53.8078 58.6057C53.8078 60.5147 52.1706 62.0042 50.1072 62.0042C48.0439 62.0042 46.4067 60.5189 46.4067 58.6057C46.4067 51.7247 40.7989 46.1486 33.8788 46.1486H7.33359H7.32937ZM40.1448 15.0752H46.5501V3.39852C46.5501 1.48948 48.1873 0 50.179 0C52.1706 0 53.8078 1.48528 53.8078 3.39852V29.7979C53.8078 31.707 52.1706 33.1965 50.179 33.1965C48.1873 33.1965 46.5501 31.7112 46.5501 29.7979V21.4443H40.1448V29.4413C40.1448 31.3503 38.5794 32.8398 36.5878 32.8398C34.5961 32.8398 33.0307 31.3545 33.0307 29.4413V3.75096C33.0307 1.84192 34.5961 0.35244 36.5878 0.35244C38.5794 0.35244 40.1448 1.83772 40.1448 3.75096V15.0752Z" fill="white"/>
<path d="M65.555 32.4161C63.8461 32.4161 62.4958 31.0021 62.4958 29.2315C62.4958 27.4609 63.8503 26.047 65.555 26.047H85.6992V17.5549C85.6992 15.6458 87.3364 14.1563 89.3997 14.1563C91.4631 14.1563 93.1003 15.6416 93.1003 17.5549V26.047H118.937C120.646 26.047 121.996 27.4609 121.996 29.2315C121.996 31.0021 120.641 32.4161 118.937 32.4161H65.555ZM72.6017 39.0705H107.282C112.265 39.0705 116.304 43.0857 116.304 48.0409V57.8966C116.304 59.9273 114.645 61.5762 112.603 61.5762H77.4415C72.724 61.5762 68.9011 57.7749 68.9011 53.0841V42.7501C68.9011 40.7152 70.5594 39.0705 72.6017 39.0705ZM69.8252 8.07255C68.1163 8.07255 66.766 6.65859 66.766 4.888C66.766 3.11741 68.1205 1.70346 69.8252 1.70346H98.438C108.303 1.70346 116.304 9.65853 116.304 19.4681C116.304 21.3771 114.666 22.8666 112.603 22.8666C110.54 22.8666 108.903 21.3813 108.903 19.4681C108.903 13.1745 103.772 8.07255 97.4422 8.07255H69.8252ZM76.1588 52.5177C76.1588 54.0827 77.4331 55.3498 79.007 55.3498H109.046V48.1709C109.046 46.585 107.751 45.2969 106.156 45.2969H76.1588V52.5177Z" fill="white"/>
</g>
<defs>
<clipPath id="clip0_126_18343">
<rect width="122" height="62" fill="white"/>
</clipPath>
</defs>
</svg>
