<svg width="56" height="56" viewBox="0 0 56 56" fill="none" xmlns="http://www.w3.org/2000/svg">
<path d="M25.1726 2.73778C26.7487 1.2117 29.2513 1.2117 30.8274 2.73778L32.3333 4.196C33.3429 5.17367 34.786 5.56034 36.1493 5.21849L38.1826 4.7086C40.3105 4.17498 42.4778 5.42632 43.0797 7.53595L43.6547 9.55177C44.0403 10.9033 45.0967 11.9597 46.4482 12.3453L48.464 12.9203C50.5737 13.5222 51.825 15.6895 51.2914 17.8174L50.7815 19.8507C50.4397 21.214 50.8263 22.6571 51.804 23.6667L53.2622 25.1726C54.7883 26.7487 54.7883 29.2513 53.2622 30.8274L51.804 32.3333C50.8263 33.3429 50.4397 34.786 50.7815 36.1493L51.2914 38.1826C51.825 40.3105 50.5737 42.4778 48.4641 43.0797L46.4482 43.6547C45.0967 44.0403 44.0403 45.0967 43.6547 46.4482L43.0797 48.4641C42.4778 50.5737 40.3105 51.825 38.1826 51.2914L36.1493 50.7815C34.786 50.4397 33.3429 50.8263 32.3333 51.804L30.8274 53.2622C29.2513 54.7883 26.7487 54.7883 25.1726 53.2622L23.6667 51.804C22.6571 50.8263 21.214 50.4397 19.8507 50.7815L17.8174 51.2914C15.6895 51.825 13.5222 50.5737 12.9203 48.4641L12.3453 46.4482C11.9597 45.0967 10.9033 44.0403 9.55177 43.6547L7.53595 43.0797C5.42632 42.4778 4.17498 40.3105 4.7086 38.1826L5.21849 36.1493C5.56034 34.786 5.17367 33.3429 4.196 32.3333L2.73778 30.8274C1.2117 29.2513 1.2117 26.7487 2.73778 25.1726L4.196 23.6667C5.17367 22.6571 5.56034 21.214 5.21849 19.8507L4.7086 17.8174C4.17498 15.6895 5.42632 13.5222 7.53595 12.9203L9.55177 12.3453C10.9033 11.9597 11.9597 10.9033 12.3453 9.55177L12.9203 7.53595C13.5222 5.42632 15.6895 4.17498 17.8174 4.7086L19.8507 5.21849C21.214 5.56034 22.6571 5.17367 23.6667 4.196L25.1726 2.73778Z" fill="#4196FD"/>
<path d="M30.8651 28.0793C30.8651 29.1051 29.4361 30.4205 27.8853 30.4205C26.3345 30.4205 25.0782 29.1051 25.0782 28.0793C25.0782 27.0536 26.3345 26.2197 27.8853 26.2197C29.4361 26.2197 30.8651 27.0497 30.8651 28.0793Z" fill="white"/>
<path d="M29.1694 27.4057C29.1145 27.4762 29.0595 27.5545 29.0477 27.6406C29.036 27.7424 29.0831 27.8442 29.1263 27.9382C29.3265 28.3414 29.5385 28.7642 29.9036 29.0265C30.4493 29.4219 31.262 29.3554 31.7842 28.9247C31.8352 28.8817 31.8823 28.8347 31.9098 28.776C31.9412 28.6938 31.9216 28.5998 31.9216 28.5098C31.9176 28.2592 32.059 28.0282 32.0825 27.7816C32.1414 27.1513 31.529 26.4818 30.9401 26.3839C30.253 26.2665 29.5738 26.8968 29.1694 27.4057Z" fill="white"/>
<path d="M30.8224 26.0786C30.8067 26.0159 30.7871 25.9494 30.7439 25.9024C30.6929 25.8476 30.6143 25.8319 30.5398 25.8123C30.2217 25.7419 29.888 25.6753 29.574 25.7615C29.1028 25.8906 28.777 26.38 28.7888 26.8655C28.7888 26.9125 28.7927 26.9634 28.8162 27.0025C28.8476 27.0573 28.9105 27.0886 28.9615 27.1278C29.1028 27.2374 29.1735 27.4214 29.3031 27.5467C29.6328 27.8638 30.2885 27.8168 30.6104 27.531C30.9873 27.1943 30.9324 26.5288 30.8264 26.0747L30.8224 26.0786Z" fill="white"/>
<path d="M27.2615 25.4992C27.1869 25.5501 27.1084 25.6049 27.0691 25.6832C27.022 25.7772 27.0338 25.8907 27.0495 25.9925C27.1084 26.4427 27.1712 26.9164 27.4342 27.2883C27.8268 27.8482 28.6277 28.0478 29.2638 27.8051C29.3266 27.7816 29.3894 27.7542 29.4326 27.7033C29.4915 27.6329 29.5032 27.5389 29.5307 27.4528C29.6092 27.214 29.8212 27.0378 29.9233 26.8068C30.1903 26.2235 29.8212 25.3817 29.2912 25.0959C28.6709 24.7593 27.8151 25.139 27.2615 25.4953V25.4992Z" fill="white"/>
<path d="M26.9199 24.8532C26.8335 24.8375 26.7393 24.8258 26.6568 24.8571C26.5587 24.8923 26.4919 24.9824 26.4331 25.0685C26.17 25.4326 25.8991 25.8163 25.8402 26.2626C25.7499 26.9281 26.1896 27.6093 26.8139 27.8599C26.8728 27.8834 26.9395 27.9069 27.0023 27.899C27.0926 27.8873 27.1633 27.8286 27.2418 27.7855C27.4617 27.6641 27.7286 27.6798 27.9603 27.5819C28.5452 27.3392 28.8436 26.4857 28.6552 25.9259C28.4353 25.2682 27.5637 24.9706 26.9238 24.8571L26.9199 24.8532Z" fill="white"/>
<path d="M27.1278 25.6636C27.0964 25.5775 27.0571 25.4913 26.9865 25.4326C26.904 25.3661 26.7941 25.3543 26.6881 25.3426C26.2327 25.2995 25.7576 25.2603 25.3336 25.4326C24.7015 25.691 24.3286 26.427 24.4267 27.1004C24.4346 27.1669 24.4503 27.2335 24.4895 27.2883C24.5445 27.3627 24.6348 27.394 24.7133 27.441C24.9292 27.5702 25.0549 27.8129 25.259 27.9656C25.7733 28.3532 26.6763 28.177 27.0728 27.7268C27.54 27.1983 27.3555 26.2822 27.1278 25.6636Z" fill="white"/>
<path d="M26.5116 26.2507C26.4566 26.1489 26.3899 26.0432 26.2878 25.9845C26.17 25.914 26.0248 25.9218 25.8873 25.9257C25.2945 25.9571 24.6781 25.9962 24.1678 26.2977C23.4061 26.7518 23.0685 27.7619 23.3237 28.6114C23.3472 28.6936 23.3786 28.7759 23.4415 28.8385C23.5239 28.9207 23.6495 28.9442 23.7595 28.9912C24.0618 29.1165 24.2698 29.4023 24.5564 29.5589C25.2867 29.9582 26.4134 29.5589 26.8374 28.909C27.3321 28.1416 26.9238 26.9985 26.5116 26.2507Z" fill="white"/>
<path d="M23.9554 28.3965C23.8848 28.467 23.8141 28.5453 23.7905 28.6431C23.7631 28.7567 23.8023 28.8741 23.8416 28.9837C24.0104 29.4575 24.1949 29.9547 24.564 30.2953C25.1215 30.8042 26.0323 30.8355 26.6644 30.4245C26.7272 30.3853 26.7861 30.3383 26.8214 30.2757C26.8685 30.1856 26.8607 30.0799 26.8685 29.9821C26.896 29.7041 27.0844 29.4653 27.1433 29.1912C27.2925 28.4983 26.6958 27.6761 26.0558 27.4882C25.306 27.269 24.4697 27.8797 23.9554 28.3965Z" fill="white"/>
<path d="M25.4322 28.7523C25.3458 28.7876 25.2594 28.8267 25.2045 28.9011C25.1417 28.9872 25.1299 29.0969 25.1259 29.2026C25.0985 29.6606 25.071 30.1382 25.2594 30.5571C25.5421 31.1835 26.292 31.532 26.9712 31.4145C27.0379 31.4028 27.1046 31.3871 27.1557 31.3441C27.2264 31.2853 27.2578 31.1953 27.3009 31.1131C27.4227 30.8899 27.6661 30.7568 27.8113 30.5493C28.1843 30.0208 27.9801 29.1243 27.513 28.7406C26.9633 28.2904 26.0486 28.5057 25.4322 28.7523Z" fill="white"/>
<path d="M26.0913 30.3106C26.0482 30.4007 26.0089 30.4946 26.0168 30.5925C26.0285 30.706 26.1031 30.8039 26.1738 30.8901C26.4839 31.2737 26.8177 31.6731 27.2731 31.8688C27.9562 32.1624 28.8081 31.8923 29.2596 31.305C29.3028 31.2463 29.346 31.1876 29.3578 31.1132C29.3735 31.0153 29.3303 30.9214 29.3067 30.8235C29.24 30.5573 29.3381 30.2754 29.3028 30.0053C29.2164 29.3123 28.392 28.7486 27.7403 28.7838C26.9747 28.8269 26.4015 29.6647 26.0913 30.3067V30.3106Z" fill="white"/>
<path d="M29.5385 28.8741C29.4914 28.8271 29.4403 28.7801 29.3736 28.7644C29.299 28.7449 29.2205 28.7723 29.1459 28.7997C28.8318 28.9132 28.502 29.0346 28.2782 29.2773C27.9406 29.6453 27.921 30.2482 28.1958 30.6632C28.2233 30.7024 28.2547 30.7454 28.2939 30.765C28.3528 30.7963 28.4235 30.7885 28.4902 30.7963C28.6748 30.8159 28.8318 30.9373 29.0124 30.9764C29.4717 31.0743 30.0175 30.6789 30.1392 30.256C30.2844 29.7628 29.8761 29.2107 29.5346 28.8741H29.5385Z" fill="white"/>
<path d="M28.8394 28.8893C28.7923 28.952 28.7452 29.0185 28.7334 29.0968C28.7217 29.1869 28.7648 29.2769 28.8041 29.3591C28.9808 29.7115 29.1731 30.0795 29.4951 30.3105C29.978 30.655 30.6925 30.5884 31.144 30.2087C31.1872 30.1735 31.2304 30.1304 31.2539 30.0756C31.2814 30.0012 31.2657 29.919 31.2618 29.8407C31.2578 29.6214 31.3796 29.4179 31.3992 29.1986C31.4463 28.6427 30.9045 28.0594 30.3863 27.9771C29.7817 27.8793 29.1889 28.4352 28.8394 28.8893Z" fill="white"/>
<path d="M29.9195 27.0575C29.8449 27.0849 29.7703 27.1162 29.7193 27.1788C29.6604 27.2493 29.6486 27.3472 29.6407 27.4372C29.6015 27.8326 29.5661 28.2476 29.7193 28.6156C29.947 29.1637 30.5869 29.4887 31.1758 29.4064C31.2347 29.3986 31.2936 29.3869 31.3368 29.3516C31.3996 29.3047 31.431 29.2264 31.4703 29.1559C31.5841 28.968 31.7961 28.8583 31.9296 28.6822C32.2672 28.2359 32.118 27.449 31.7215 27.1044C31.2583 26.6973 30.4574 26.8578 29.9195 27.0535V27.0575Z" fill="white"/>
<path d="M15.1234 31.4525C18.1037 37.3545 25.8472 39.1029 31.814 37.5532C35.7695 36.5245 41.3062 32.9049 41.2083 28.2173C41.1838 26.9602 39.2205 27.0505 39.248 28.3123C39.3245 32.0524 34.215 34.9131 31.213 35.6897C26.0209 37.0315 19.3548 35.5202 16.7776 30.4064C16.2088 29.2802 14.5568 30.3348 15.1187 31.4555L15.1234 31.4525Z" fill="white"/>
<path d="M21.9108 19.5171H21.9069C21.1046 19.5171 20.4543 20.1656 20.4543 20.9656V22.7978C20.4543 23.5979 21.1046 24.2464 21.9069 24.2464H21.9108C22.7131 24.2464 23.3634 23.5979 23.3634 22.7978V20.9656C23.3634 20.1656 22.7131 19.5171 21.9108 19.5171Z" fill="white"/>
<path d="M33.5869 19.5171H33.583C32.7807 19.5171 32.1303 20.1656 32.1303 20.9656V22.7978C32.1303 23.5979 32.7807 24.2464 33.583 24.2464H33.5869C34.3891 24.2464 35.0395 23.5979 35.0395 22.7978V20.9656C35.0395 20.1656 34.3891 19.5171 33.5869 19.5171Z" fill="white"/>
</svg>
