<svg width="24" height="25" viewBox="0 0 24 25" fill="none" xmlns="http://www.w3.org/2000/svg">
<g id="Group">
<path id="Vector" d="M23.7656 10.1431H22.8V10.0963H12V14.8944H18.7781C17.7844 17.687 15.1313 19.6925 12 19.6925C8.025 19.6925 4.8 16.4688 4.8 12.4953C4.8 8.52187 8.025 5.29813 12 5.29813C13.8375 5.29813 15.5062 5.9916 16.7812 7.11617L20.175 3.72374C18.0281 1.72765 15.1594 0.5 12 0.5C5.37187 0.5 0 5.86978 0 12.4953C0 19.1209 5.37187 24.4906 12 24.4906C18.6281 24.4906 24 19.1209 24 12.4953C24 11.6894 23.9156 10.9022 23.7656 10.1431Z" fill="#FAE52C"/>
<path id="Vector_2" d="M1.38611 6.91L5.33298 9.79637C6.40173 7.15365 8.97986 5.28875 12.008 5.28875C13.8455 5.28875 15.5142 5.98223 16.7892 7.10679L20.183 3.71437C18.0267 1.72765 15.158 0.5 11.9986 0.5C7.38611 0.5 3.39236 3.10523 1.38611 6.91Z" fill="#D32C2C"/>
<path id="Vector_3" d="M12.0006 24.4904C15.1038 24.4904 17.9163 23.3002 20.0444 21.3791L16.3319 18.2397C15.1225 19.1487 13.6319 19.7017 12.0006 19.7017C8.87876 19.7017 6.22564 17.7149 5.23189 14.9316L1.32251 17.9492C3.31001 21.8383 7.34126 24.4998 12.01 24.4998L12.0006 24.4904Z" fill="#0C9D1A"/>
<path id="Vector_4" d="M23.7656 10.1445H22.8V10.0977H12V14.8958H18.7781C18.3 16.2359 17.4375 17.3979 16.3219 18.2414L20.0344 21.3807C19.7719 21.615 23.9906 18.4944 23.9906 12.4967C23.9906 11.6908 23.9062 10.9036 23.7562 10.1445H23.7656Z" fill="#4B79EE"/>
</g>
</svg>
