<svg width="101" height="100" viewBox="0 0 101 100" fill="none" xmlns="http://www.w3.org/2000/svg">
<ellipse cx="50.3135" cy="50.1079" rx="42.0464" ry="42.0464" fill="#FFC8CB"/>
<path d="M59.7385 32.4849C59.9283 32.2787 60.2711 32.3643 60.3417 32.6355L61.8261 38.3404C61.8529 38.4433 61.9245 38.5288 62.0212 38.5731L67.3798 41.0296C67.6346 41.1464 67.6591 41.4989 67.423 41.6498L62.456 44.8245C62.3664 44.8818 62.3073 44.9763 62.295 45.082L61.6146 50.9374C61.5823 51.2158 61.2546 51.348 61.0381 51.1701L56.4839 47.4273C56.4018 47.3598 56.2936 47.3328 56.1893 47.3537L50.4102 48.5161C50.1354 48.5713 49.9084 48.3006 50.0108 48.0397L52.163 42.5518C52.2019 42.4528 52.1941 42.3415 52.142 42.2489L49.2507 37.1118C49.1132 36.8675 49.3006 36.568 49.5803 36.5847L55.4647 36.9358C55.5709 36.9421 55.6743 36.9004 55.7463 36.8221L59.7385 32.4849Z" fill="#FF5761"/>
<ellipse cx="53.8999" cy="37.9448" rx="2.02276" ry="2.02276" transform="rotate(14.0213 53.8999 37.9448)" fill="#FF5761"/>
<ellipse cx="2.02276" cy="2.02276" rx="2.02276" ry="2.02276" transform="matrix(-0.970206 -0.242283 -0.242283 0.970206 65.3801 38.7266)" fill="#FF5761"/>
<ellipse cx="57.2356" cy="36.2758" rx="2.02276" ry="2.02276" transform="rotate(14.0213 57.2356 36.2758)" fill="#FF5761"/>
<ellipse cx="2.02276" cy="2.02276" rx="2.02276" ry="2.02276" transform="matrix(-0.970206 -0.242283 -0.242283 0.970206 63.2207 35.6855)" fill="#FF5761"/>
<ellipse cx="2.02276" cy="2.02276" rx="2.02276" ry="2.02276" transform="matrix(0.629038 0.777375 0.777375 -0.629037 49.5852 40.1978)" fill="#FF5761"/>
<ellipse cx="58.3195" cy="47.4074" rx="2.02276" ry="2.02276" transform="rotate(-125.822 58.3195 47.4074)" fill="#FF5761"/>
<ellipse cx="63.0414" cy="43.5471" rx="2.02276" ry="2.02276" transform="rotate(159.178 63.0414 43.5471)" fill="#FF5761"/>
<ellipse cx="2.02276" cy="2.02276" rx="2.02276" ry="2.02276" transform="matrix(0.629038 0.777375 0.777375 -0.629037 49.4795 43.9258)" fill="#FF5761"/>
<ellipse cx="54.6938" cy="46.532" rx="2.02276" ry="2.02276" transform="rotate(-125.822 54.6938 46.532)" fill="#FF5761"/>
<ellipse cx="61.2573" cy="46.8225" rx="2.02276" ry="2.02276" transform="rotate(159.178 61.2573 46.8225)" fill="#FF5761"/>
<ellipse cx="57.6789" cy="42.0159" rx="1.82049" ry="1.82049" transform="rotate(14.0213 57.6789 42.0159)" fill="#F32834"/>
<path d="M67.4423 19.1357C67.5333 18.8426 67.9288 18.7963 68.0851 19.0604L70.8213 23.6829C70.878 23.7788 70.9766 23.8424 71.0873 23.8545L75.755 24.3676C76.0115 24.3958 76.1526 24.68 76.0201 24.9014L73.265 29.5044C73.2183 29.5824 73.2034 29.6754 73.2234 29.7642L74.4882 35.3707C74.552 35.6537 74.2671 35.8891 74.0012 35.7732L69.6758 33.8867C69.5588 33.8356 69.4235 33.8515 69.3215 33.9282L65.5492 36.7633C65.3173 36.9376 64.9857 36.7744 64.9824 36.4843L64.9171 30.7373C64.916 30.6463 64.8801 30.5593 64.8166 30.4942L61.0722 26.6526C60.8921 26.4678 60.9637 26.1587 61.2067 26.072L65.6294 24.4939C65.7344 24.4565 65.8155 24.3719 65.8486 24.2655L67.4423 19.1357Z" fill="#FF5761"/>
<ellipse cx="64.8105" cy="25.927" rx="1.62084" ry="1.99097" transform="rotate(-6.68188 64.8105 25.927)" fill="#FF5761"/>
<ellipse cx="1.62084" cy="1.99097" rx="1.62084" ry="1.99097" transform="matrix(-0.993207 0.116357 0.116357 0.993207 73.5938 22.8936)" fill="#FF5761"/>
<ellipse cx="66.7863" cy="23.2898" rx="1.62084" ry="1.99097" transform="rotate(-6.68188 66.7863 23.2898)" fill="#FF5761"/>
<ellipse cx="1.62084" cy="1.99097" rx="1.62084" ry="1.99097" transform="matrix(-0.993207 0.116357 0.116357 0.993207 71.0618 20.7847)" fill="#FF5761"/>
<ellipse cx="1.76388" cy="1.86542" rx="1.76388" ry="1.86542" transform="matrix(0.807928 0.589282 0.42017 -0.907445 62.283 29.4243)" fill="#FF5761"/>
<ellipse cx="1.78411" cy="1.84608" rx="1.78411" ry="1.84608" transform="matrix(-0.773363 -0.633964 0.466437 -0.884554 71.4946 36.0049)" fill="#FF5761"/>
<ellipse cx="1.75029" cy="1.87818" rx="1.75029" ry="1.87818" transform="matrix(-0.679231 0.733924 -0.590937 -0.806718 75.6162 28.3521)" fill="#FF5761"/>
<ellipse cx="1.76388" cy="1.86542" rx="1.76388" ry="1.86542" transform="matrix(0.807928 0.589282 0.42017 -0.907445 63.3372 32.9111)" fill="#FF5761"/>
<ellipse cx="1.78411" cy="1.84608" rx="1.78411" ry="1.84608" transform="matrix(-0.773363 -0.633964 0.466437 -0.884554 68.5295 36.3809)" fill="#FF5761"/>
<ellipse cx="1.75029" cy="1.87818" rx="1.75029" ry="1.87818" transform="matrix(-0.679231 0.733924 -0.590937 -0.806718 75.2839 31.9683)" fill="#FF5761"/>
<ellipse cx="68.8605" cy="28.4591" rx="1.45875" ry="1.79187" transform="rotate(-6.68188 68.8605 28.4591)" fill="#F32834"/>
<path d="M82.5983 39.8068C82.8603 39.7593 83.0789 40.007 82.9994 40.261L81.3669 45.4734C81.3361 45.5717 81.3496 45.6786 81.404 45.7661L84.477 50.711C84.6308 50.9586 84.4363 51.2756 84.1459 51.2506L78.683 50.7809C78.5689 50.7711 78.4571 50.8171 78.3829 50.9044L74.982 54.9049C74.803 55.1155 74.4626 55.049 74.376 54.7866L72.5534 49.266C72.523 49.174 72.4564 49.0986 72.3689 49.0571L67.1165 46.5647C66.8669 46.4462 66.8431 46.1002 67.0742 45.9487L71.4651 43.0695C71.5609 43.0067 71.6204 42.9014 71.6248 42.787L71.8353 37.308C71.8465 37.0167 72.1852 36.863 72.4119 37.0463L76.9381 40.708C77.0182 40.7728 77.1225 40.7995 77.2239 40.7812L82.5983 39.8068Z" fill="#FF5761"/>
<ellipse cx="75.1732" cy="40.5609" rx="2.02276" ry="1.8239" transform="rotate(48.5573 75.1732 40.5609)" fill="#FF5761"/>
<ellipse cx="2.02276" cy="1.8239" rx="2.02276" ry="1.8239" transform="matrix(-0.66187 -0.749618 -0.749619 0.66187 84.0376 47.8447)" fill="#FF5761"/>
<ellipse cx="78.6884" cy="41.2352" rx="2.02276" ry="1.8239" transform="rotate(48.5573 78.6884 41.2352)" fill="#FF5761"/>
<ellipse cx="2.02276" cy="1.8239" rx="2.02276" ry="1.8239" transform="matrix(-0.66187 -0.749618 -0.749619 0.66187 83.804 44.2734)" fill="#FF5761"/>
<ellipse cx="1.95308" cy="1.89833" rx="1.95308" ry="1.89833" transform="matrix(0.126167 0.992009 0.999631 -0.0271729 70.5798 39.7598)" fill="#FF5761"/>
<ellipse cx="1.94254" cy="1.90912" rx="1.94254" ry="1.90912" transform="matrix(-0.0728651 -0.997341 0.999582 0.0289066 72.2805 52.2153)" fill="#FF5761"/>
<ellipse cx="1.96007" cy="1.89112" rx="1.96007" ry="1.89112" transform="matrix(-0.959115 -0.283018 0.188878 -0.982 81.2878 52.5601)" fill="#FF5761"/>
<ellipse cx="1.95308" cy="1.89833" rx="1.95308" ry="1.89833" transform="matrix(0.126167 0.992009 0.999631 -0.0271729 68.6477 42.5337)" fill="#FF5761"/>
<ellipse cx="1.94254" cy="1.90912" rx="1.94254" ry="1.90912" transform="matrix(-0.0728651 -0.997341 0.999582 0.0289066 69.7925 49.4365)" fill="#FF5761"/>
<ellipse cx="1.96007" cy="1.89112" rx="1.96007" ry="1.89112" transform="matrix(-0.959115 -0.283018 0.188878 -0.982 78.2273 54.0117)" fill="#FF5761"/>
<ellipse cx="76.2017" cy="45.8589" rx="1.82049" ry="1.64151" transform="rotate(48.5573 76.2017 45.8589)" fill="#F32834"/>
<path d="M88.5085 28.2927C88.7486 28.2693 88.9413 28.4875 88.8883 28.7228L88.0754 32.3338C88.0543 32.4277 88.0723 32.5262 88.1253 32.6065L90.4937 36.1979C90.6647 36.4572 90.4427 36.7954 90.1368 36.7415L86.5534 36.1112C86.4262 36.0888 86.297 36.1374 86.2161 36.2381L84.2008 38.7449C84.031 38.9562 83.6964 38.9061 83.596 38.6543L81.9789 34.5999C81.9485 34.5238 81.8927 34.4605 81.8209 34.421L77.998 32.3142C77.7606 32.1834 77.7523 31.8451 77.983 31.7028L80.7202 30.0135C80.83 29.9457 80.8943 29.8235 80.8878 29.6946L80.7062 26.0607C80.6907 25.7504 81.0537 25.572 81.2898 25.7738L84.5602 28.5688C84.6334 28.6313 84.7289 28.6614 84.8247 28.652L88.5085 28.2927Z" fill="#FF5761"/>
<ellipse cx="83.2993" cy="28.3619" rx="1.60123" ry="1.20766" transform="rotate(48.5573 83.2993 28.3619)" fill="#FF5761"/>
<ellipse cx="1.60123" cy="1.20766" rx="1.60123" ry="1.20766" transform="matrix(-0.66187 -0.749618 -0.749619 0.66187 90.1394 34.2847)" fill="#FF5761"/>
<ellipse cx="85.8696" cy="29.0836" rx="1.60123" ry="1.20766" transform="rotate(48.5573 85.8696 29.0836)" fill="#FF5761"/>
<ellipse cx="1.60123" cy="1.20766" rx="1.60123" ry="1.20766" transform="matrix(-0.66187 -0.749618 -0.749619 0.66187 89.7422 31.645)" fill="#FF5761"/>
<ellipse cx="1.4709" cy="1.36339" rx="1.4709" ry="1.36339" transform="matrix(0.205043 0.978753 0.9981 0.0616094 79.946 27.478)" fill="#FF5761"/>
<ellipse cx="1.45059" cy="1.38498" rx="1.45059" ry="1.38498" transform="matrix(-0.155941 -0.987766 0.993038 0.117797 81.9685 36.7407)" fill="#FF5761"/>
<ellipse cx="1.48428" cy="1.34882" rx="1.48428" ry="1.34882" transform="matrix(-0.934478 -0.356022 0.101915 -0.994793 88.4656 37.5728)" fill="#FF5761"/>
<ellipse cx="1.4709" cy="1.36339" rx="1.4709" ry="1.36339" transform="matrix(0.205043 0.978753 0.9981 0.0616094 78.7351 29.3931)" fill="#FF5761"/>
<ellipse cx="1.45059" cy="1.38498" rx="1.45059" ry="1.38498" transform="matrix(-0.155941 -0.987766 0.993038 0.117797 80.0015 34.5391)" fill="#FF5761"/>
<ellipse cx="1.48428" cy="1.34882" rx="1.48428" ry="1.34882" transform="matrix(-0.934478 -0.356022 0.101915 -0.994793 86.3589 38.4434)" fill="#FF5761"/>
<ellipse cx="84.3793" cy="32.3216" rx="1.44111" ry="1.08689" transform="rotate(48.5573 84.3793 32.3216)" fill="#F32834"/>
<path d="M95.5486 49.8758C95.7419 50.0201 95.7374 50.3112 95.5398 50.4496L92.5077 52.5723C92.4289 52.6275 92.3759 52.7125 92.361 52.8075L91.6943 57.0576C91.6462 57.3645 91.2544 57.4651 91.0644 57.2193L88.8391 54.3407C88.7602 54.2385 88.6319 54.1875 88.5043 54.2074L85.3265 54.7043C85.0586 54.7462 84.845 54.4839 84.9403 54.2301L86.4741 50.1435C86.5029 50.0668 86.5042 49.9824 86.4778 49.9048L85.0695 45.7733C84.982 45.5167 85.2035 45.261 85.47 45.3111L88.6312 45.9048C88.758 45.9286 88.8878 45.8815 88.9699 45.7818L91.2821 42.9725C91.4795 42.7327 91.868 42.8452 91.9067 43.1534L92.4432 47.4218C92.4552 47.5173 92.5056 47.6038 92.5827 47.6614L95.5486 49.8758Z" fill="#FF5761"/>
<ellipse cx="91.6504" cy="46.42" rx="1.60123" ry="1.20766" transform="rotate(90.8752 91.6504 46.42)" fill="#FF5761"/>
<ellipse cx="1.60123" cy="1.20766" rx="1.60123" ry="1.20766" transform="matrix(0.0152753 -0.999883 -0.999883 -0.0152752 92.7207 55.4038)" fill="#FF5761"/>
<ellipse cx="93.0654" cy="48.6837" rx="1.60123" ry="1.20766" transform="rotate(90.8752 93.0654 48.6837)" fill="#FF5761"/>
<ellipse cx="1.60123" cy="1.20766" rx="1.60123" ry="1.20766" transform="matrix(0.0152753 -0.999883 -0.999883 -0.0152752 94.2039 53.1851)" fill="#FF5761"/>
<ellipse cx="1.4709" cy="1.36339" rx="1.4709" ry="1.36339" transform="matrix(-0.507326 0.861754 0.696538 0.717519 89.7656 43.5093)" fill="#FF5761"/>
<ellipse cx="1.45059" cy="1.38498" rx="1.45059" ry="1.38498" transform="matrix(0.549701 -0.835361 0.654967 0.755658 85.0249 51.7197)" fill="#FF5761"/>
<ellipse cx="1.48428" cy="1.34882" rx="1.48428" ry="1.34882" transform="matrix(-0.451283 -0.892381 0.745096 -0.666957 89.269 56.7095)" fill="#FF5761"/>
<ellipse cx="1.4709" cy="1.36339" rx="1.4709" ry="1.36339" transform="matrix(-0.507326 0.861754 0.696538 0.717519 87.5811 44.1099)" fill="#FF5761"/>
<ellipse cx="1.45059" cy="1.38498" rx="1.45059" ry="1.38498" transform="matrix(0.549701 -0.835361 0.654967 0.755658 85.053 48.7676)" fill="#FF5761"/>
<ellipse cx="1.48428" cy="1.34882" rx="1.48428" ry="1.34882" transform="matrix(-0.451283 -0.892381 0.745096 -0.666957 87.1252 55.9346)" fill="#FF5761"/>
<ellipse cx="89.7828" cy="50.0747" rx="1.44111" ry="1.08689" transform="rotate(90.8752 89.7828 50.0747)" fill="#F32834"/>
<path d="M55.721 18.0071C55.9624 17.8657 56.2647 18.0468 56.2538 18.3264L56.0376 23.8825C56.0335 23.9887 56.0772 24.0911 56.1568 24.1615L60.332 27.8548C60.5422 28.0408 60.4628 28.3858 60.1924 28.4611L54.8352 29.9532C54.7324 29.9819 54.648 30.0553 54.6055 30.1531L52.3907 35.2448C52.279 35.5016 51.9274 35.5332 51.7717 35.3003L48.6739 30.6666C48.615 30.5785 48.5197 30.5214 48.4143 30.5111L42.8673 29.9648C42.5885 29.9374 42.4505 29.6124 42.6243 29.3928L46.0696 25.0384C46.1358 24.9548 46.1607 24.8457 46.1375 24.7416L44.9267 19.3139C44.8655 19.04 45.1323 18.8072 45.3955 18.9049L50.6213 20.8447C50.7209 20.8816 50.8319 20.8719 50.9235 20.8182L55.721 18.0071Z" fill="#FF5761"/>
<ellipse cx="48.9254" cy="21.3293" rx="1.92698" ry="1.9194" transform="rotate(30.93 48.9254 21.3293)" fill="#FF5761"/>
<ellipse cx="1.92698" cy="1.9194" rx="1.92698" ry="1.9194" transform="matrix(-0.857796 -0.51399 -0.51399 0.857796 59.1685 25.2295)" fill="#FF5761"/>
<ellipse cx="52.4235" cy="20.7404" rx="1.92698" ry="1.9194" transform="rotate(30.93 52.4235 20.7404)" fill="#FF5761"/>
<ellipse cx="1.92698" cy="1.9194" rx="1.92698" ry="1.9194" transform="matrix(-0.857796 -0.51399 -0.51399 0.857796 58.0381 21.8672)" fill="#FF5761"/>
<ellipse cx="1.92424" cy="1.92215" rx="1.92424" ry="1.92215" transform="matrix(0.3775 0.926009 0.927433 -0.37399 44.375 22.1763)" fill="#FF5761"/>
<ellipse cx="1.92383" cy="1.92255" rx="1.92383" ry="1.92255" transform="matrix(-0.325981 -0.945376 0.946635 -0.322307 49.1548 33.5903)" fill="#FF5761"/>
<ellipse cx="1.92451" cy="1.92188" rx="1.92451" ry="1.92188" transform="matrix(-0.997792 0.0664132 -0.0700994 -0.99754 57.7664 30.7471)" fill="#FF5761"/>
<ellipse cx="1.92424" cy="1.92215" rx="1.92424" ry="1.92215" transform="matrix(0.3775 0.926009 0.927433 -0.37399 43.2524 25.5337)" fill="#FF5761"/>
<ellipse cx="1.92383" cy="1.92255" rx="1.92383" ry="1.92255" transform="matrix(-0.325981 -0.945376 0.946635 -0.322307 46.0928 31.7876)" fill="#FF5761"/>
<ellipse cx="1.92451" cy="1.92188" rx="1.92451" ry="1.92188" transform="matrix(-0.997792 0.0664132 -0.0700994 -0.99754 55.2397 33.2266)" fill="#FF5761"/>
<ellipse cx="51.2477" cy="26.0773" rx="1.73428" ry="1.72746" transform="rotate(30.93 51.2477 26.0773)" fill="#F32834"/>
<path d="M57.3756 6.68233C57.5485 6.53382 57.8145 6.58483 57.9201 6.78672L59.9283 10.6248C59.971 10.7065 60.044 10.7683 60.1316 10.7971L65.168 12.4506C65.4725 12.5506 65.4981 12.9715 65.2079 13.1076L61.3039 14.9384C61.1799 14.9965 61.1005 15.121 61.1001 15.258L61.0909 18.8646C61.0902 19.1337 60.8014 19.3037 60.5658 19.1736L55.8715 16.5825C55.8059 16.5463 55.7305 16.5319 55.6561 16.5412L50.3364 17.2125C50.0694 17.2462 49.8639 16.9814 49.9628 16.7311L51.2881 13.3769C51.3384 13.2495 51.3107 13.1045 51.217 13.0045L48.2669 9.85978C48.0476 9.626 48.227 9.24439 48.547 9.26413L53.8378 9.59044C53.9299 9.59612 54.0205 9.56567 54.0904 9.50558L57.3756 6.68233Z" fill="#FF5761"/>
<ellipse cx="52.4641" cy="10.2334" rx="1.92698" ry="1.3225" transform="rotate(10.8529 52.4641 10.2334)" fill="#FF5761"/>
<ellipse cx="1.92698" cy="1.3225" rx="1.92698" ry="1.3225" transform="matrix(-0.982114 -0.188288 -0.188288 0.982114 63.311 10.9663)" fill="#FF5761"/>
<ellipse cx="55.4125" cy="9.18316" rx="1.92698" ry="1.3225" transform="rotate(10.8529 55.4125 9.18316)" fill="#FF5761"/>
<ellipse cx="1.92698" cy="1.3225" rx="1.92698" ry="1.3225" transform="matrix(-0.982114 -0.188288 -0.188288 0.982114 60.9607 8.8999)" fill="#FF5761"/>
<ellipse cx="1.73258" cy="1.56857" rx="1.73258" ry="1.56857" transform="matrix(0.785866 0.618396 0.852881 -0.522106 48.6604 11.6548)" fill="#FF5761"/>
<ellipse cx="1.70188" cy="1.60183" rx="1.70188" ry="1.60183" transform="matrix(-0.755544 -0.655097 0.88071 -0.473655 57.4978 18.4941)" fill="#FF5761"/>
<ellipse cx="1.75273" cy="1.54602" rx="1.75273" ry="1.54602" transform="matrix(-0.967337 0.253494 -0.567198 -0.823581 64.208 14.9644)" fill="#FF5761"/>
<ellipse cx="1.73258" cy="1.56857" rx="1.73258" ry="1.56857" transform="matrix(0.785866 0.618396 0.852881 -0.522106 48.9612 14.1372)" fill="#FF5761"/>
<ellipse cx="1.70188" cy="1.60183" rx="1.70188" ry="1.60183" transform="matrix(-0.755544 -0.655097 0.88071 -0.473655 54.0046 17.8438)" fill="#FF5761"/>
<ellipse cx="1.75273" cy="1.54602" rx="1.75273" ry="1.54602" transform="matrix(-0.967337 0.253494 -0.567198 -0.823581 62.8865 17.1143)" fill="#FF5761"/>
<ellipse cx="56.444" cy="13.016" rx="1.73428" ry="1.19025" transform="rotate(10.8529 56.444 13.016)" fill="#F32834"/>
<path d="M75.0585 13.0069C75.2391 12.9693 75.4184 13.0766 75.4705 13.2536L76.4395 16.5469C76.4614 16.6213 76.5071 16.6865 76.5696 16.7324L80.2606 19.4432C80.5437 19.6511 80.384 20.0999 80.0332 20.0822L76.8619 19.9218C76.6986 19.9136 76.5508 20.0183 76.5045 20.1752L75.8811 22.2864C75.8055 22.5423 75.4848 22.6259 75.294 22.4394L71.8195 19.0435C71.7798 19.0047 71.7314 18.9757 71.6784 18.959L67.0444 17.4996C66.7899 17.4194 66.7122 17.0973 66.9021 16.9099L68.4688 15.3635C68.5852 15.2486 68.6078 15.0689 68.5234 14.9288L66.8847 12.209C66.7035 11.9081 67.0237 11.5554 67.3406 11.7068L71.473 13.6805C71.5429 13.7139 71.6219 13.7235 71.6978 13.7076L75.0585 13.0069Z" fill="#FF5761"/>
<ellipse cx="70.1669" cy="13.6087" rx="1.79461" ry="0.902848" transform="rotate(30.9129 70.1669 13.6087)" fill="#FF5761"/>
<ellipse cx="1.79461" cy="0.902848" rx="1.79461" ry="0.902848" transform="matrix(-0.85795 -0.513734 -0.513734 0.857949 79.2527 17.9966)" fill="#FF5761"/>
<ellipse cx="72.8791" cy="13.97" rx="1.79461" ry="0.902848" transform="rotate(30.9129 72.8791 13.97)" fill="#FF5761"/>
<ellipse cx="1.79461" cy="0.902848" rx="1.79461" ry="0.902848" transform="matrix(-0.85795 -0.513734 -0.513734 0.857949 77.6541 15.7764)" fill="#FF5761"/>
<ellipse cx="1.53278" cy="1.29859" rx="1.53278" ry="1.29859" transform="matrix(0.620129 0.7845 0.998793 -0.049119 66.655 13.1865)" fill="#FF5761"/>
<ellipse cx="1.49006" cy="1.3474" rx="1.49006" ry="1.3474" transform="matrix(-0.589008 -0.808127 0.999998 0.00187603 72.8467 20.915)" fill="#FF5761"/>
<ellipse cx="1.56058" cy="1.26505" rx="1.56058" ry="1.26505" transform="matrix(-0.979536 -0.201272 -0.394465 -0.918911 79.2405 20.9795)" fill="#FF5761"/>
<ellipse cx="1.53278" cy="1.29859" rx="1.53278" ry="1.29859" transform="matrix(0.620129 0.7845 0.998793 -0.049119 66.4294 14.9463)" fill="#FF5761"/>
<ellipse cx="1.49006" cy="1.3474" rx="1.49006" ry="1.3474" transform="matrix(-0.589008 -0.808127 0.999998 0.00187603 70.001 19.2261)" fill="#FF5761"/>
<ellipse cx="1.56058" cy="1.26505" rx="1.56058" ry="1.26505" transform="matrix(-0.979536 -0.201272 -0.394465 -0.918911 77.699 21.9346)" fill="#FF5761"/>
<ellipse cx="73.013" cy="16.8907" rx="1.61515" ry="0.812563" transform="rotate(30.9129 73.013 16.8907)" fill="#F32834"/>
<path d="M33.7717 30.1367C33.8242 29.8614 34.1606 29.7533 34.3636 29.9465L38.6339 34.0102C38.711 34.0835 38.8169 34.1183 38.9224 34.105L44.7707 33.3655C45.0487 33.3304 45.2555 33.6169 45.1345 33.8697L42.5892 39.1867C42.5433 39.2826 42.5429 39.3941 42.5882 39.4904L45.0987 44.8239C45.2181 45.0775 45.0095 45.3626 44.7317 45.3257L38.8884 44.5481C38.7829 44.534 38.6768 44.5681 38.5992 44.641L34.3026 48.6767C34.0983 48.8686 33.7626 48.7583 33.7119 48.4827L32.6458 42.6851C32.6265 42.5805 32.5613 42.49 32.4681 42.4388L27.3021 39.5995C27.0565 39.4646 27.0576 39.1112 27.3041 38.9778L32.4885 36.1723C32.5821 36.1217 32.6479 36.0317 32.6678 35.9272L33.7717 30.1367Z" fill="#FF5761"/>
<ellipse cx="31.692" cy="37.8553" rx="2.02276" ry="2.02276" transform="rotate(-17.8132 31.692 37.8553)" fill="#FF5761"/>
<ellipse cx="2.02276" cy="2.02276" rx="2.02276" ry="2.02276" transform="matrix(-0.952059 0.305914 0.305914 0.952059 41.8574 32.4644)" fill="#FF5761"/>
<ellipse cx="33.6454" cy="34.6781" rx="2.02276" ry="2.02276" transform="rotate(-17.8132 33.6454 34.6781)" fill="#FF5761"/>
<ellipse cx="2.02276" cy="2.02276" rx="2.02276" ry="2.02276" transform="matrix(-0.952059 0.305914 0.305914 0.952059 38.4189 31.0195)" fill="#FF5761"/>
<circle cx="2.02276" cy="2.02276" r="2.02276" transform="matrix(0.944455 0.328642 0.328642 -0.944454 29.2139 42.0444)" fill="#FF5761"/>
<ellipse cx="40.4374" cy="43.5628" rx="2.02276" ry="2.02276" transform="rotate(-157.657 40.4374 43.5628)" fill="#FF5761"/>
<ellipse cx="42.4127" cy="37.7923" rx="2.02276" ry="2.02276" transform="rotate(127.343 42.4127 37.7923)" fill="#FF5761"/>
<circle cx="2.02276" cy="2.02276" r="2.02276" transform="matrix(0.944455 0.328642 0.328642 -0.944454 31.0906 45.2676)" fill="#FF5761"/>
<ellipse cx="36.8951" cy="44.7312" rx="2.02276" ry="2.02276" transform="rotate(-157.657 36.8951 44.7312)" fill="#FF5761"/>
<ellipse cx="42.6246" cy="41.5164" rx="2.02276" ry="2.02276" transform="rotate(127.343 42.6246 41.5164)" fill="#FF5761"/>
<ellipse cx="37.0492" cy="39.3203" rx="1.82049" ry="1.82049" transform="rotate(-17.8132 37.0492 39.3203)" fill="#F32834"/>
<path d="M15.1234 30.2604C15.0138 30.0349 15.1668 29.77 15.4169 29.7523L20.5536 29.3894C20.6523 29.3824 20.7436 29.3345 20.8054 29.2571L24.4525 24.6891C24.6418 24.452 25.0222 24.5473 25.0774 24.8457L26.0193 29.9418C26.0417 30.0633 26.1259 30.1643 26.2413 30.2083L30.6437 31.8873C30.8987 31.9845 30.9525 32.3214 30.7405 32.4932L26.2006 36.1734C26.1327 36.2284 26.0876 36.3066 26.0739 36.3928L25.1545 42.1643C25.1116 42.4337 24.7929 42.5554 24.5813 42.3832L20.9272 39.4087C20.8314 39.3308 20.7018 39.3083 20.5854 39.3496L15.7004 41.0801C15.4144 41.1815 15.1418 40.8996 15.2526 40.6171L17.387 35.1754C17.4232 35.0833 17.4191 34.9802 17.3758 34.8912L15.1234 30.2604Z" fill="#FF5761"/>
<ellipse cx="17.6995" cy="36.8652" rx="2.05424" ry="1.65771" transform="rotate(-59.9895 17.6995 36.8652)" fill="#FF5761"/>
<ellipse cx="2.05424" cy="1.65771" rx="2.05424" ry="1.65771" transform="matrix(-0.500159 0.865933 0.865934 0.500159 22.0176 26.0747)" fill="#FF5761"/>
<ellipse cx="17.4153" cy="33.3799" rx="2.05424" ry="1.65771" transform="rotate(-59.9895 17.4153 33.3799)" fill="#FF5761"/>
<ellipse cx="2.05424" cy="1.65771" rx="2.05424" ry="1.65771" transform="matrix(-0.500159 0.865933 0.865934 0.500159 18.8567 27.5698)" fill="#FF5761"/>
<ellipse cx="1.92011" cy="1.81138" rx="1.92011" ry="1.81138" transform="matrix(0.877261 -0.480015 -0.291542 -0.956558 18.1428 41.3911)" fill="#FF5761"/>
<ellipse cx="1.89942" cy="1.83306" rx="1.89942" ry="1.83306" transform="matrix(-0.900781 0.434274 -0.237054 -0.971496 28.9421 35.3584)" fill="#FF5761"/>
<ellipse cx="1.93376" cy="1.7968" rx="1.93376" ry="1.7968" transform="matrix(-0.0119463 0.999928 -0.982376 0.186918 26.9673 26.9229)" fill="#FF5761"/>
<ellipse cx="1.92011" cy="1.81138" rx="1.92011" ry="1.81138" transform="matrix(0.877261 -0.480015 -0.291542 -0.956558 21.1345 42.1802)" fill="#FF5761"/>
<ellipse cx="1.89942" cy="1.83306" rx="1.89942" ry="1.83306" transform="matrix(-0.900781 0.434274 -0.237054 -0.971496 27.0684 38.6504)" fill="#FF5761"/>
<ellipse cx="1.93376" cy="1.7968" rx="1.93376" ry="1.7968" transform="matrix(-0.0119463 0.999928 -0.982376 0.186918 29.053 29.2271)" fill="#FF5761"/>
<ellipse cx="22.2152" cy="34.0178" rx="1.84882" ry="1.49194" transform="rotate(-59.9895 22.2152 34.0178)" fill="#F32834"/>
<path d="M7.69024 38.9238C7.57465 38.7738 7.59761 38.5594 7.74233 38.4372L10.0175 36.5165C10.0781 36.4654 10.1198 36.3954 10.1359 36.3177L10.9182 32.536C10.9887 32.1954 11.4568 32.1499 11.5914 32.4707L12.6204 34.9219C12.6825 35.0699 12.8364 35.1576 12.9953 35.1356L14.8837 34.8749C15.1479 34.8384 15.3561 35.0962 15.2648 35.3468L13.8427 39.2508C13.823 39.3048 13.8168 39.3629 13.8246 39.42L14.3881 43.5365C14.4243 43.8008 14.1663 44.0086 13.9157 43.917L12.1254 43.2625C11.9747 43.2074 11.8058 43.2605 11.7137 43.392L10.1892 45.5699C9.98969 45.8549 9.54182 45.7114 9.54505 45.3635L9.58091 41.5019C9.58165 41.4226 9.55574 41.3454 9.50734 41.2825L7.69024 38.9238Z" fill="#FF5761"/>
<ellipse cx="10.0208" cy="42.5452" rx="1.56414" ry="0.815747" transform="rotate(-83.8899 10.0208 42.5452)" fill="#FF5761"/>
<ellipse cx="1.56414" cy="0.815747" rx="1.56414" ry="0.815747" transform="matrix(-0.106439 0.994319 0.994319 0.106439 10.1418 33.749)" fill="#FF5761"/>
<ellipse cx="9.28058" cy="40.264" rx="1.56414" ry="0.815747" transform="rotate(-83.8899 9.28058 40.264)" fill="#FF5761"/>
<ellipse cx="1.56414" cy="0.815747" rx="1.56414" ry="0.815747" transform="matrix(-0.106439 0.994319 0.994319 0.106439 8.93555 35.8223)" fill="#FF5761"/>
<ellipse cx="1.34219" cy="1.14477" rx="1.34219" ry="1.14477" transform="matrix(0.462749 -0.886489 -0.478343 -0.878173 11.0164 45.4829)" fill="#FF5761"/>
<ellipse cx="1.30608" cy="1.18581" rx="1.30608" ry="1.18581" transform="matrix(-0.497909 0.867229 -0.432248 -0.901755 14.9768 37.7705)" fill="#FF5761"/>
<ellipse cx="1.3657" cy="1.11662" rx="1.3657" ry="1.11662" transform="matrix(0.23928 0.970951 -0.681351 0.731957 12.5876 32.6772)" fill="#FF5761"/>
<ellipse cx="1.34219" cy="1.14477" rx="1.34219" ry="1.14477" transform="matrix(0.462749 -0.886489 -0.478343 -0.878173 12.5432 45.0234)" fill="#FF5761"/>
<ellipse cx="1.30608" cy="1.18581" rx="1.30608" ry="1.18581" transform="matrix(-0.497909 0.867229 -0.432248 -0.901755 14.6816 40.6392)" fill="#FF5761"/>
<ellipse cx="1.3657" cy="1.11662" rx="1.3657" ry="1.11662" transform="matrix(0.23928 0.970951 -0.681351 0.731957 13.9583 33.5527)" fill="#FF5761"/>
<ellipse cx="11.6203" cy="39.0983" rx="1.40773" ry="0.734172" transform="rotate(-83.8899 11.6203 39.0983)" fill="#F32834"/>
<path d="M33.0359 15.173C33.1134 14.9509 33.3818 14.8647 33.5741 15.0001L37.4324 17.7168C37.5096 17.7712 37.6054 17.7924 37.6983 17.7759L43.268 16.7833C43.5783 16.728 43.8007 17.0751 43.6209 17.3339L40.9189 21.2232C40.8432 21.3321 40.8348 21.4743 40.897 21.5914L42.807 25.1848C42.9337 25.4234 42.7574 25.7103 42.4874 25.705L36.8018 25.5935C36.7231 25.5919 36.6461 25.6167 36.583 25.6638L32.0265 29.0663C31.8101 29.2279 31.4997 29.0973 31.4638 28.8296L30.9231 24.7962C30.9054 24.6647 30.8158 24.5541 30.6908 24.5097L26.229 22.9222C25.9321 22.8166 25.9107 22.4049 26.1951 22.2691L31.3005 19.8316C31.3858 19.7909 31.4512 19.7178 31.4823 19.6287L33.0359 15.173Z" fill="#FF5761"/>
<ellipse cx="30.3711" cy="21.1642" rx="2.02276" ry="1.46201" transform="rotate(-17.8132 30.3711 21.1642)" fill="#FF5761"/>
<ellipse cx="2.02276" cy="1.46201" rx="2.02276" ry="1.46201" transform="matrix(-0.952059 0.305914 0.305914 0.952059 40.7083 16.3071)" fill="#FF5761"/>
<ellipse cx="32.5305" cy="18.6276" rx="2.02276" ry="1.46201" transform="rotate(-17.8132 32.5305 18.6276)" fill="#FF5761"/>
<ellipse cx="2.02276" cy="1.46201" rx="2.02276" ry="1.46201" transform="matrix(-0.952059 0.305914 0.305914 0.952059 37.4756 15.5029)" fill="#FF5761"/>
<ellipse cx="1.83953" cy="1.68677" rx="1.83953" ry="1.68677" transform="matrix(0.982413 0.186722 0.475325 -0.87981 27.6196 24.501)" fill="#FF5761"/>
<ellipse cx="1.81079" cy="1.71759" rx="1.81079" ry="1.71759" transform="matrix(-0.972109 -0.234528 0.524027 -0.851701 39.2896 26.6191)" fill="#FF5761"/>
<ellipse cx="1.85841" cy="1.66594" rx="1.85841" ry="1.66594" transform="matrix(-0.712968 0.701196 -0.880792 -0.473504 43.6116 19.7373)" fill="#FF5761"/>
<ellipse cx="1.83953" cy="1.68677" rx="1.83953" ry="1.68677" transform="matrix(0.982413 0.186722 0.475325 -0.87981 29.1873 26.7627)" fill="#FF5761"/>
<ellipse cx="1.81079" cy="1.71759" rx="1.81079" ry="1.71759" transform="matrix(-0.972109 -0.234528 0.524027 -0.851701 35.7451 27.7798)" fill="#FF5761"/>
<ellipse cx="1.85841" cy="1.66594" rx="1.85841" ry="1.66594" transform="matrix(-0.712968 0.701196 -0.880792 -0.473504 43.5173 22.5083)" fill="#FF5761"/>
<ellipse cx="35.4714" cy="21.8286" rx="1.82049" ry="1.31581" transform="rotate(-17.8132 35.4714 21.8286)" fill="#F32834"/>
<path d="M21.0408 15.709C21.0464 15.5039 21.2246 15.3465 21.4289 15.3662L24.6013 15.6732C24.6857 15.6813 24.7703 15.6589 24.8396 15.61L28.1486 13.2751C28.4238 13.0809 28.7891 13.3444 28.6917 13.6669L27.8305 16.5148C27.7869 16.659 27.8393 16.815 27.9612 16.9036L29.811 18.249C30.0271 18.4062 29.9979 18.7369 29.7577 18.8538L25.9338 20.7145C25.876 20.7426 25.827 20.786 25.7919 20.8398L23.4733 24.4047C23.3276 24.6286 22.9958 24.6167 22.8666 24.3829L21.7599 22.3811C21.687 22.2493 21.5387 22.178 21.3902 22.2035L18.4577 22.7063C18.1257 22.7633 17.9093 22.3682 18.136 22.1191L20.8616 19.1237C20.9187 19.061 20.9514 18.9798 20.9537 18.8951L21.0408 15.709Z" fill="#FF5761"/>
<ellipse cx="20.5259" cy="20.2522" rx="1.58807" ry="0.928105" transform="rotate(-41.4536 20.5259 20.2522)" fill="#FF5761"/>
<ellipse cx="1.58807" cy="0.928105" rx="1.58807" ry="0.928105" transform="matrix(-0.749492 0.662013 0.662013 0.749492 26.5767 13.6689)" fill="#FF5761"/>
<ellipse cx="21.4548" cy="17.9456" rx="1.58807" ry="0.928105" transform="rotate(-41.4536 21.4548 17.9456)" fill="#FF5761"/>
<ellipse cx="1.58807" cy="0.928105" rx="1.58807" ry="0.928105" transform="matrix(-0.749492 0.662013 0.662013 0.749492 24.1731 14.3062)" fill="#FF5761"/>
<ellipse cx="1.38583" cy="1.20946" rx="1.38583" ry="1.20946" transform="matrix(0.952739 -0.303791 0.186529 -0.982449 19.3647 23.2549)" fill="#FF5761"/>
<ellipse cx="1.35328" cy="1.24577" rx="1.35328" ry="1.24577" transform="matrix(-0.964993 0.262275 0.23918 -0.970975 27.8687 20.4751)" fill="#FF5761"/>
<ellipse cx="1.40709" cy="1.18467" rx="1.40709" ry="1.18467" transform="matrix(-0.444753 0.895653 -0.999684 0.0251274 29.3311 14.7544)" fill="#FF5761"/>
<ellipse cx="1.38583" cy="1.20946" rx="1.38583" ry="1.20946" transform="matrix(0.952739 -0.303791 0.186529 -0.982449 20.9424 24.0918)" fill="#FF5761"/>
<ellipse cx="1.35328" cy="1.24577" rx="1.35328" ry="1.24577" transform="matrix(-0.964993 0.262275 0.23918 -0.970975 25.6829 22.4238)" fill="#FF5761"/>
<ellipse cx="1.40709" cy="1.18467" rx="1.40709" ry="1.18467" transform="matrix(-0.444753 0.895653 -0.999684 0.0251274 29.8762 16.4829)" fill="#FF5761"/>
<ellipse cx="24.1847" cy="18.8771" rx="1.42926" ry="0.835294" transform="rotate(-41.4536 24.1847 18.8771)" fill="#F32834"/>
<path d="M38.8551 7.04726C38.9426 6.87389 39.1535 6.8034 39.3277 6.88928L42.086 8.24909C42.1587 8.28491 42.2414 8.29473 42.3205 8.27691L46.1984 7.40252C46.5345 7.32674 46.7699 7.72689 46.5403 7.98382L44.6761 10.0706C44.5712 10.188 44.5564 10.3605 44.6398 10.4941L45.7256 12.2323C45.8669 12.4585 45.7167 12.7539 45.4506 12.773L41.2256 13.0759C41.1662 13.0802 41.1089 13.0994 41.0588 13.1317L37.5009 15.4302C37.2768 15.575 36.9792 15.4293 36.9561 15.1635L36.7784 13.1218C36.7647 12.965 36.6491 12.836 36.4947 12.8052L33.7503 12.2589C33.4125 12.1917 33.3599 11.7304 33.674 11.5889L37.2983 9.9556C37.3721 9.92232 37.4324 9.86471 37.4689 9.7924L38.8551 7.04726Z" fill="#FF5761"/>
<ellipse cx="36.5281" cy="10.8214" rx="1.58807" ry="0.857805" transform="rotate(-18.4824 36.5281 10.8214)" fill="#FF5761"/>
<ellipse cx="1.58807" cy="0.857805" rx="1.58807" ry="0.857805" transform="matrix(-0.948421 0.317014 0.317014 0.948421 44.6904 7.18848)" fill="#FF5761"/>
<ellipse cx="38.3103" cy="9.1402" rx="1.58807" ry="0.857805" transform="rotate(-18.4824 38.3103 9.1402)" fill="#FF5761"/>
<ellipse cx="1.58807" cy="0.857805" rx="1.58807" ry="0.857805" transform="matrix(-0.948421 0.317014 0.317014 0.948421 42.2556 6.91699)" fill="#FF5761"/>
<ellipse cx="1.36933" cy="1.17589" rx="1.36933" ry="1.17589" transform="matrix(0.997954 0.0639298 0.586141 -0.810209 34.2515 13.0269)" fill="#FF5761"/>
<ellipse cx="1.33386" cy="1.21598" rx="1.33386" ry="1.21598" transform="matrix(-0.994487 -0.104863 0.62784 -0.778342 43.0808 13.5312)" fill="#FF5761"/>
<ellipse cx="1.39245" cy="1.14842" rx="1.39245" ry="1.14842" transform="matrix(-0.776153 0.630544 -0.94365 -0.330945 46.7397 9.07324)" fill="#FF5761"/>
<ellipse cx="1.36933" cy="1.17589" rx="1.36933" ry="1.17589" transform="matrix(0.997954 0.0639298 0.586141 -0.810209 35.3374 14.2925)" fill="#FF5761"/>
<ellipse cx="1.33386" cy="1.21598" rx="1.33386" ry="1.21598" transform="matrix(-0.994487 -0.104863 0.62784 -0.778342 40.3076 14.4712)" fill="#FF5761"/>
<ellipse cx="1.39245" cy="1.14842" rx="1.39245" ry="1.14842" transform="matrix(-0.776153 0.630544 -0.94365 -0.330945 46.5271 10.7583)" fill="#FF5761"/>
<ellipse cx="40.4001" cy="10.8831" rx="1.42926" ry="0.772025" transform="rotate(-18.4824 40.4001 10.8831)" fill="#F32834"/>
<path d="M47.6749 48.3687C47.9015 48.2037 48.2208 48.3548 48.2369 48.6346L48.5743 54.5198C48.5804 54.6259 48.6339 54.7238 48.7201 54.7862L53.4932 58.2454C53.7202 58.4098 53.6751 58.7603 53.414 58.862L47.9211 61.0016C47.822 61.0402 47.7455 61.1213 47.7128 61.2225L45.8979 66.831C45.8116 67.0976 45.4644 67.1631 45.2869 66.9461L41.5547 62.3833C41.4873 62.301 41.3866 62.2533 41.2802 62.2534L35.3854 62.2605C35.1051 62.2608 34.9356 61.9508 35.0871 61.715L38.2732 56.7555C38.3307 56.666 38.3449 56.5554 38.312 56.4543L36.4836 50.8501C36.3967 50.5837 36.6391 50.3266 36.9102 50.3979L42.6116 51.8955C42.7145 51.9225 42.8241 51.9019 42.91 51.8393L47.6749 48.3687Z" fill="#FF5761"/>
<ellipse cx="40.8799" cy="52.5784" rx="2.02276" ry="2.02276" transform="rotate(25.3248 40.8799 52.5784)" fill="#FF5761"/>
<ellipse cx="2.02276" cy="2.02276" rx="2.02276" ry="2.02276" transform="matrix(-0.903898 -0.427748 -0.427749 0.903898 51.9841 55.5952)" fill="#FF5761"/>
<ellipse cx="44.478" cy="51.5955" rx="2.02276" ry="2.02276" transform="rotate(25.3248 44.478 51.5955)" fill="#FF5761"/>
<ellipse cx="2.02276" cy="2.02276" rx="2.02276" ry="2.02276" transform="matrix(-0.903898 -0.427748 -0.427749 0.903898 50.4626 52.1899)" fill="#FF5761"/>
<ellipse cx="2.02276" cy="2.02276" rx="2.02276" ry="2.02276" transform="matrix(0.464466 0.88559 0.885591 -0.464466 36.2068 53.9414)" fill="#FF5761"/>
<ellipse cx="43.3586" cy="62.7235" rx="2.02276" ry="2.02276" transform="rotate(-114.519 43.3586 62.7235)" fill="#FF5761"/>
<ellipse cx="48.7455" cy="59.8635" rx="2.02276" ry="2.02276" transform="rotate(170.481 48.7455 59.8635)" fill="#FF5761"/>
<ellipse cx="2.02276" cy="2.02276" rx="2.02276" ry="2.02276" transform="matrix(0.464466 0.88559 0.885591 -0.464466 35.3723 57.5767)" fill="#FF5761"/>
<ellipse cx="39.9748" cy="61.1542" rx="2.02276" ry="2.02276" transform="rotate(-114.519 39.9748 61.1542)" fill="#FF5761"/>
<ellipse cx="46.3539" cy="62.7258" rx="2.02276" ry="2.02276" transform="rotate(170.481 46.3539 62.7258)" fill="#FF5761"/>
<ellipse cx="43.7872" cy="57.311" rx="1.82049" ry="1.82049" transform="rotate(25.3248 43.7872 57.311)" fill="#F32834"/>
<path d="M37.9464 66.4077C38.1877 66.365 38.3984 66.5745 38.3571 66.816L37.5262 71.6741C37.5098 71.77 37.5336 71.8685 37.5921 71.9464L41.0214 76.5134C41.2062 76.7595 41.0107 77.108 40.7043 77.0785L35.7725 76.6038C35.6462 76.5916 35.5231 76.6479 35.4497 76.7514L32.8959 80.3537C32.7388 80.5754 32.4008 80.5447 32.2861 80.2983L29.8717 75.1117C29.8362 75.0354 29.7747 74.9743 29.6983 74.9393L24.4982 72.5538C24.2512 72.4405 24.2187 72.1027 24.4395 71.9443L28.0274 69.3704C28.1305 69.2965 28.1861 69.173 28.1733 69.0468L27.671 64.1177C27.6398 63.8116 27.9872 63.6141 28.2343 63.7975L32.8204 67.2013C32.8986 67.2593 32.9972 67.2826 33.0931 67.2657L37.9464 66.4077Z" fill="#FF5761"/>
<ellipse cx="31.1634" cy="67.0413" rx="2.02276" ry="1.56761" transform="rotate(44.84 31.1634 67.0413)" fill="#FF5761"/>
<ellipse cx="2.02276" cy="1.56761" rx="2.02276" ry="1.56761" transform="matrix(-0.709079 -0.705129 -0.70513 0.709078 40.3008 73.917)" fill="#FF5761"/>
<ellipse cx="34.4979" cy="67.7044" rx="2.02276" ry="1.56761" transform="rotate(44.84 34.4979 67.7044)" fill="#FF5761"/>
<ellipse cx="2.02276" cy="1.56761" rx="2.02276" ry="1.56761" transform="matrix(-0.709079 -0.705129 -0.70513 0.709078 39.6191 70.5864)" fill="#FF5761"/>
<ellipse cx="1.87076" cy="1.74621" rx="1.87076" ry="1.74621" transform="matrix(0.256724 0.966484 0.999859 -0.0168198 26.8167 66.2495)" fill="#FF5761"/>
<ellipse cx="1.84716" cy="1.77116" rx="1.84716" ry="1.77116" transform="matrix(-0.207559 -0.978222 0.999214 0.0396565 30.0117 77.874)" fill="#FF5761"/>
<ellipse cx="1.8863" cy="1.72941" rx="1.8863" ry="1.72941" transform="matrix(-0.958855 -0.283895 0.0507219 -0.998713 38.376 78.2842)" fill="#FF5761"/>
<ellipse cx="1.87076" cy="1.74621" rx="1.87076" ry="1.74621" transform="matrix(0.256724 0.966484 0.999859 -0.0168198 25.3938 68.8159)" fill="#FF5761"/>
<ellipse cx="1.84716" cy="1.77116" rx="1.84716" ry="1.77116" transform="matrix(-0.207559 -0.978222 0.999214 0.0396565 27.3513 75.2603)" fill="#FF5761"/>
<ellipse cx="1.8863" cy="1.72941" rx="1.8863" ry="1.72941" transform="matrix(-0.958855 -0.283895 0.0507219 -0.998713 35.7385 79.6069)" fill="#FF5761"/>
<ellipse cx="32.8046" cy="71.9892" rx="1.82049" ry="1.41085" transform="rotate(44.84 32.8046 71.9892)" fill="#F32834"/>
<path d="M28.0882 77.0655C28.311 76.9614 28.5696 77.1105 28.5909 77.3555L28.8536 80.37C28.862 80.4673 28.9103 80.5567 28.9869 80.6172L31.6789 82.7426C31.9199 82.9329 31.8209 83.3188 31.5181 83.3697L28.6329 83.8545C28.5084 83.8754 28.4044 83.9612 28.36 84.0795L27.4325 86.5553C27.3371 86.81 27.0022 86.8665 26.8285 86.6573L24.5881 83.9587C24.534 83.8936 24.4585 83.85 24.3751 83.8358L20.9175 83.2469C20.6495 83.2012 20.5308 82.883 20.7035 82.673L22.3827 80.6308C22.4629 80.5332 22.4851 80.4002 22.4408 80.2819L21.4165 77.5415C21.309 77.2538 21.5935 76.9751 21.8789 77.0885L25.0663 78.3552C25.157 78.3912 25.2586 78.3882 25.347 78.3469L28.0882 77.0655Z" fill="#FF5761"/>
<ellipse cx="24.0339" cy="78.5559" rx="1.32919" ry="1.0367" transform="rotate(29.9832 24.0339 78.5559)" fill="#FF5761"/>
<ellipse cx="1.32919" cy="1.0367" rx="1.32919" ry="1.0367" transform="matrix(-0.866172 -0.499746 -0.499746 0.866172 30.9993 81.3774)" fill="#FF5761"/>
<ellipse cx="26.2673" cy="78.4084" rx="1.32919" ry="1.0367" transform="rotate(29.9832 26.2673 78.4084)" fill="#FF5761"/>
<ellipse cx="1.32919" cy="1.0367" rx="1.32919" ry="1.0367" transform="matrix(-0.866172 -0.499746 -0.499746 0.866172 30.009 79.3701)" fill="#FF5761"/>
<ellipse cx="1.23131" cy="1.15125" rx="1.23131" ry="1.15125" transform="matrix(0.493533 0.869726 0.961246 -0.275693 21.134 78.7949)" fill="#FF5761"/>
<ellipse cx="1.21613" cy="1.16727" rx="1.21613" ry="1.16727" transform="matrix(-0.448827 -0.893618 0.97528 -0.220975 25.1094 85.6616)" fill="#FF5761"/>
<ellipse cx="1.24131" cy="1.14045" rx="1.24131" ry="1.14045" transform="matrix(-0.999665 -0.0258795 -0.203944 -0.978982 30.5029 84.4922)" fill="#FF5761"/>
<ellipse cx="1.23131" cy="1.15125" rx="1.23131" ry="1.15125" transform="matrix(0.493533 0.869726 0.961246 -0.275693 20.6567 80.6748)" fill="#FF5761"/>
<ellipse cx="1.21613" cy="1.16727" rx="1.21613" ry="1.16727" transform="matrix(-0.448827 -0.893618 0.97528 -0.220975 22.979 84.4497)" fill="#FF5761"/>
<ellipse cx="1.24131" cy="1.14045" rx="1.24131" ry="1.14045" transform="matrix(-0.999665 -0.0258795 -0.203944 -0.978982 29.0447 85.7871)" fill="#FF5761"/>
<ellipse cx="25.9046" cy="81.4309" rx="1.19627" ry="0.933028" transform="rotate(29.9832 25.9046 81.4309)" fill="#F32834"/>
<path d="M51.5755 65.3414C51.6992 65.1071 52.0268 65.0866 52.1787 65.3035L55.2905 69.7464C55.3494 69.8305 55.442 69.8849 55.5441 69.8955L61.3283 70.4932C61.6193 70.5233 61.7503 70.8733 61.5507 71.0871L57.8332 75.0677C57.7544 75.1519 57.7217 75.2693 57.7454 75.3821L58.8128 80.4645C58.8695 80.7346 58.6092 80.9629 58.3488 80.8713L52.8709 78.9446C52.7804 78.9128 52.6808 78.919 52.595 78.9619L47.4011 81.5587C47.1543 81.6821 46.8674 81.4882 46.8899 81.2131L47.3132 76.0371C47.3226 75.9222 47.2754 75.8099 47.1868 75.7361L43.0006 72.2518C42.7757 72.0646 42.862 71.701 43.1469 71.6348L48.8109 70.3182C48.911 70.295 48.996 70.2294 49.0439 70.1386L51.5755 65.3414Z" fill="#FF5761"/>
<ellipse cx="47.6098" cy="71.6095" rx="2.02276" ry="1.80621" transform="rotate(-3.59268 47.6098 71.6095)" fill="#FF5761"/>
<ellipse cx="2.02276" cy="1.80621" rx="2.02276" ry="1.80621" transform="matrix(-0.998035 0.0626631 0.0626631 0.998035 58.802 69.0972)" fill="#FF5761"/>
<ellipse cx="50.3007" cy="69.2692" rx="2.02276" ry="1.80621" transform="rotate(-3.59268 50.3007 69.2692)" fill="#FF5761"/>
<ellipse cx="2.02276" cy="1.80621" rx="2.02276" ry="1.80621" transform="matrix(-0.998035 0.0626631 0.0626631 0.998035 55.8401 67.1113)" fill="#FF5761"/>
<ellipse cx="1.94712" cy="1.88751" rx="1.94712" ry="1.88751" transform="matrix(0.86302 0.50517 0.595775 -0.803151 44.1577 74.7173)" fill="#FF5761"/>
<ellipse cx="1.93565" cy="1.89927" rx="1.93565" ry="1.89927" transform="matrix(-0.834823 -0.550519 0.639911 -0.768449 55.032 80.9492)" fill="#FF5761"/>
<ellipse cx="1.95471" cy="1.87964" rx="1.95471" ry="1.87964" transform="matrix(-0.814534 0.580115 -0.663054 -0.748571 60.8352 74.1118)" fill="#FF5761"/>
<ellipse cx="1.94712" cy="1.88751" rx="1.94712" ry="1.88751" transform="matrix(0.86302 0.50517 0.595775 -0.803151 45.1606 77.9131)" fill="#FF5761"/>
<ellipse cx="1.93565" cy="1.89927" rx="1.93565" ry="1.89927" transform="matrix(-0.834823 -0.550519 0.639911 -0.768449 51.3115 81.209)" fill="#FF5761"/>
<ellipse cx="1.95471" cy="1.87964" rx="1.95471" ry="1.87964" transform="matrix(-0.814534 0.580115 -0.663054 -0.748571 60.1016 77.3877)" fill="#FF5761"/>
<ellipse cx="52.4234" cy="74.022" rx="1.82049" ry="1.62559" transform="rotate(-3.59268 52.4234 74.022)" fill="#F32834"/>
<path d="M58.1826 82.3347C58.3872 82.2126 58.6516 82.3233 58.7081 82.5548L59.5361 85.9481C59.5587 86.0408 59.6177 86.1204 59.6998 86.169L63.2182 88.2498C63.4874 88.409 63.433 88.8137 63.1312 88.8961L59.8432 89.7942C59.717 89.8287 59.6201 89.9299 59.5912 90.0576L58.9316 92.9695C58.8718 93.2335 58.5501 93.3355 58.3492 93.1543L55.2556 90.3641C55.1959 90.3102 55.1197 90.2783 55.0395 90.2735L50.8808 90.0264C50.6107 90.0103 50.4577 89.7095 50.6038 89.4817L52.2163 86.9688C52.287 86.8587 52.2911 86.7186 52.2272 86.6045L50.5605 83.6313C50.4076 83.3584 50.6577 83.0357 50.9601 83.1159L54.9113 84.1634C55.0034 84.1879 55.1016 84.1741 55.1835 84.1252L58.1826 82.3347Z" fill="#FF5761"/>
<ellipse cx="53.7427" cy="84.4991" rx="1.54082" ry="1.13822" transform="rotate(22.7248 53.7427 84.4991)" fill="#FF5761"/>
<ellipse cx="1.54082" cy="1.13822" rx="1.54082" ry="1.13822" transform="matrix(-0.922371 -0.386305 -0.386305 0.922371 62.1414 86.7827)" fill="#FF5761"/>
<ellipse cx="56.2603" cy="84.0728" rx="1.54082" ry="1.13822" transform="rotate(22.7248 56.2603 84.0728)" fill="#FF5761"/>
<ellipse cx="1.54082" cy="1.13822" rx="1.54082" ry="1.13822" transform="matrix(-0.922371 -0.386305 -0.386305 0.922371 60.6792 84.6895)" fill="#FF5761"/>
<ellipse cx="1.40837" cy="1.29853" rx="1.40837" ry="1.29853" transform="matrix(0.618036 0.786149 0.929096 -0.369838 50.4827 85.1045)" fill="#FF5761"/>
<ellipse cx="1.38765" cy="1.32064" rx="1.38765" ry="1.32064" transform="matrix(-0.578433 -0.81573 0.94845 -0.316928 56.1536 92.1948)" fill="#FF5761"/>
<ellipse cx="1.42199" cy="1.2836" rx="1.42199" ry="1.2836" transform="matrix(-0.996931 0.0782815 -0.351456 -0.936204 62.0967 90.27)" fill="#FF5761"/>
<ellipse cx="1.40837" cy="1.29853" rx="1.40837" ry="1.29853" transform="matrix(0.618036 0.786149 0.929096 -0.369838 50.2534 87.231)" fill="#FF5761"/>
<ellipse cx="1.38765" cy="1.32064" rx="1.38765" ry="1.32064" transform="matrix(-0.578433 -0.81573 0.94845 -0.316928 53.5266 91.1128)" fill="#FF5761"/>
<ellipse cx="1.42199" cy="1.2836" rx="1.42199" ry="1.2836" transform="matrix(-0.996931 0.0782815 -0.351456 -0.936204 60.6531 91.8682)" fill="#FF5761"/>
<ellipse cx="56.3524" cy="87.443" rx="1.38674" ry="1.02439" transform="rotate(22.7248 56.3524 87.443)" fill="#F32834"/>
<path d="M41.502 80.5653C41.6742 80.422 41.9345 80.4727 42.0404 80.67L43.9231 84.1769C43.9661 84.257 44.0384 84.3175 44.1248 84.3459L48.7872 85.8729C49.0945 85.9736 49.1172 86.3996 48.8223 86.5323L45.2481 88.1408C45.1211 88.198 45.0394 88.3243 45.0393 88.4636L45.0387 91.6988C45.0387 91.9675 44.7511 92.1382 44.5152 92.0096L40.1294 89.6188C40.0653 89.5839 39.9919 89.5696 39.9194 89.578L34.9572 90.1506C34.6903 90.1814 34.4877 89.9153 34.5884 89.6662L35.8004 86.6666C35.8526 86.5374 35.8242 86.3897 35.7279 86.289L33.0172 83.4581C32.7936 83.2246 32.9743 82.8381 33.2969 82.86L38.1917 83.1918C38.2825 83.198 38.3722 83.169 38.4421 83.1108L41.502 80.5653Z" fill="#FF5761"/>
<ellipse cx="36.9079" cy="83.7715" rx="1.81365" ry="1.2112" transform="rotate(11.007 36.9079 83.7715)" fill="#FF5761"/>
<ellipse cx="1.81365" cy="1.2112" rx="1.81365" ry="1.2112" transform="matrix(-0.981604 -0.190929 -0.190929 0.981604 47.1089 84.522)" fill="#FF5761"/>
<ellipse cx="39.6782" cy="82.8296" rx="1.81365" ry="1.2112" transform="rotate(11.007 39.6782 82.8296)" fill="#FF5761"/>
<ellipse cx="1.81365" cy="1.2112" rx="1.81365" ry="1.2112" transform="matrix(-0.981604 -0.190929 -0.190929 0.981604 44.894 82.6104)" fill="#FF5761"/>
<ellipse cx="1.62152" cy="1.45843" rx="1.62152" ry="1.45843" transform="matrix(0.79101 0.611803 0.861259 -0.508167 33.3347 85.0474)" fill="#FF5761"/>
<ellipse cx="1.59107" cy="1.49159" rx="1.59107" ry="1.49159" transform="matrix(-0.761455 -0.648218 0.888184 -0.459489 41.6589 91.3813)" fill="#FF5761"/>
<ellipse cx="1.64149" cy="1.43592" rx="1.64149" ry="1.43592" transform="matrix(-0.970603 0.240685 -0.576187 -0.817318 47.9612 88.1938)" fill="#FF5761"/>
<ellipse cx="1.62152" cy="1.45843" rx="1.62152" ry="1.45843" transform="matrix(0.79101 0.611803 0.861259 -0.508167 33.6226 87.3257)" fill="#FF5761"/>
<ellipse cx="1.59107" cy="1.49159" rx="1.59107" ry="1.49159" transform="matrix(-0.761455 -0.648218 0.888184 -0.459489 38.3733 90.7598)" fill="#FF5761"/>
<ellipse cx="1.64149" cy="1.43592" rx="1.64149" ry="1.43592" transform="matrix(-0.970603 0.240685 -0.576187 -0.817318 46.7231 90.1553)" fill="#FF5761"/>
<ellipse cx="40.6559" cy="86.3514" rx="1.63229" ry="1.09008" transform="rotate(11.007 40.6559 86.3514)" fill="#F32834"/>
<path d="M88.8317 58.9009C89.1224 58.769 89.4254 59.0589 89.3066 59.3552L87.2631 64.4497C87.221 64.5546 87.2316 64.6733 87.2914 64.7691L89.6645 68.5671C89.7955 68.7767 89.6768 69.0527 89.4345 69.1017L84.054 70.1909C83.9718 70.2075 83.8982 70.2528 83.8463 70.3186L80.1062 75.0593C79.923 75.2915 79.5527 75.21 79.4839 74.9223L78.4324 70.5263C78.4 70.3911 78.2915 70.2873 78.155 70.261L73.7166 69.406C73.4261 69.35 73.3283 68.9837 73.5521 68.7903L78.1218 64.8432C78.1853 64.7884 78.2272 64.7129 78.2402 64.63L79.089 59.2065C79.1273 58.9622 79.3977 58.8313 79.6129 58.9529L83.5127 61.1548C83.6111 61.2103 83.7301 61.2156 83.833 61.1689L88.8317 58.9009Z" fill="#FF5761"/>
<ellipse cx="81.8886" cy="61.5239" rx="1.53591" ry="2.08691" transform="rotate(43.726 81.8886 61.5239)" fill="#FF5761"/>
<ellipse cx="1.53591" cy="2.08691" rx="1.53591" ry="2.08691" transform="matrix(-0.722654 -0.69121 -0.69121 0.722654 89.5471 65.9604)" fill="#FF5761"/>
<ellipse cx="85.174" cy="61.2006" rx="1.53591" ry="2.08691" transform="rotate(43.726 85.174 61.2006)" fill="#FF5761"/>
<ellipse cx="1.53591" cy="2.08691" rx="1.53591" ry="2.08691" transform="matrix(-0.722654 -0.69121 -0.69121 0.722654 89.7241 62.6646)" fill="#FF5761"/>
<ellipse cx="1.75556" cy="1.90584" rx="1.75556" ry="1.90584" transform="matrix(0.0104413 0.999945 0.954959 -0.296739 77.5876 62.0215)" fill="#FF5761"/>
<ellipse cx="1.78582" cy="1.87751" rx="1.78582" ry="1.87751" transform="matrix(0.0458722 -0.998947 0.968434 -0.249272 77.8167 73.2754)" fill="#FF5761"/>
<ellipse cx="1.73512" cy="1.92447" rx="1.73512" ry="1.92447" transform="matrix(-0.999985 -0.00556358 0.28565 -0.958334 86.3896 71.1455)" fill="#FF5761"/>
<ellipse cx="1.75556" cy="1.90584" rx="1.75556" ry="1.90584" transform="matrix(0.0104413 0.999945 0.954959 -0.296739 75.4292 65.1577)" fill="#FF5761"/>
<ellipse cx="1.78582" cy="1.87751" rx="1.78582" ry="1.87751" transform="matrix(0.0458722 -0.998947 0.968434 -0.249272 75.7495 71.3394)" fill="#FF5761"/>
<ellipse cx="1.73512" cy="1.92447" rx="1.73512" ry="1.92447" transform="matrix(-0.999985 -0.00556358 0.28565 -0.958334 83.3008 73.3452)" fill="#FF5761"/>
<ellipse cx="82.2783" cy="66.2278" rx="1.38232" ry="1.87822" transform="rotate(43.726 82.2783 66.2278)" fill="#F32834"/>
<path d="M67.9807 52.1118C68.1767 51.9114 68.5167 52.0073 68.5791 52.2806L69.8912 58.0275C69.9149 58.1312 69.9839 58.2188 70.0792 58.266L75.3615 60.8826C75.6126 61.007 75.6265 61.3601 75.3859 61.5038L70.3257 64.5276C70.2344 64.5822 70.1725 64.6749 70.157 64.7801L69.3008 70.6124C69.26 70.8897 68.9286 71.0121 68.7175 70.8277L64.278 66.9495C64.1979 66.8796 64.0906 66.8493 63.9857 66.8671L58.1743 67.855C57.898 67.902 57.6792 67.6246 57.7893 67.3668L60.1058 61.9462C60.1476 61.8484 60.1432 61.737 60.0939 61.6428L57.3585 56.421C57.2284 56.1728 57.4247 55.879 57.7038 55.9041L63.575 56.4321C63.6809 56.4416 63.7855 56.403 63.8599 56.327L67.9807 52.1118Z" fill="#FF5761"/>
<ellipse cx="61.9802" cy="57.3942" rx="2.02276" ry="2.02276" transform="rotate(15.7457 61.9802 57.3942)" fill="#FF5761"/>
<ellipse cx="2.02276" cy="2.02276" rx="2.02276" ry="2.02276" transform="matrix(-0.962476 -0.271368 -0.271368 0.962475 73.4314 58.521)" fill="#FF5761"/>
<ellipse cx="65.3645" cy="55.8263" rx="2.02276" ry="2.02276" transform="rotate(15.7457 65.3645 55.8263)" fill="#FF5761"/>
<ellipse cx="2.02276" cy="2.02276" rx="2.02276" ry="2.02276" transform="matrix(-0.962476 -0.271368 -0.271368 0.962475 71.3647 55.4165)" fill="#FF5761"/>
<ellipse cx="2.02276" cy="2.02276" rx="2.02276" ry="2.02276" transform="matrix(0.60536 0.795952 0.795952 -0.60536 57.5996 59.5156)" fill="#FF5761"/>
<ellipse cx="66.113" cy="66.985" rx="2.02276" ry="2.02276" transform="rotate(-124.098 66.113 66.985)" fill="#FF5761"/>
<ellipse cx="70.9487" cy="63.2685" rx="2.02276" ry="2.02276" transform="rotate(160.902 70.9487 63.2685)" fill="#FF5761"/>
<ellipse cx="2.02276" cy="2.02276" rx="2.02276" ry="2.02276" transform="matrix(0.60536 0.795952 0.795952 -0.60536 57.3818 63.2388)" fill="#FF5761"/>
<ellipse cx="62.5154" cy="66.0006" rx="2.02276" ry="2.02276" transform="rotate(-124.098 62.5154 66.0006)" fill="#FF5761"/>
<ellipse cx="69.0671" cy="66.4887" rx="2.02276" ry="2.02276" transform="rotate(160.902 69.0671 66.4887)" fill="#FF5761"/>
<ellipse cx="65.6351" cy="61.5768" rx="1.82049" ry="1.82049" transform="rotate(15.7457 65.6351 61.5768)" fill="#F32834"/>
<path d="M76.7399 73.9617C77.0242 73.8224 77.3345 74.0979 77.2298 74.3967L75.4686 79.4234C75.4314 79.5298 75.447 79.6476 75.5107 79.7406L78.0049 83.3821C78.1459 83.5879 78.0355 83.8711 77.7924 83.9272L72.596 85.1254C72.5129 85.1446 72.4394 85.1931 72.3892 85.2621L68.9584 89.9785C68.7851 90.2167 68.4137 90.1516 68.3319 89.8686L67.097 85.5985C67.059 85.4673 66.949 85.3696 66.8143 85.3475L62.4281 84.6259C62.1375 84.5781 62.0289 84.217 62.2449 84.0168L66.5228 80.0525C66.5853 79.9945 66.6249 79.9159 66.6341 79.831L67.2097 74.5295C67.2367 74.2815 67.5048 74.1383 67.7259 74.254L71.6367 76.3003C71.7365 76.3526 71.8553 76.3542 71.9566 76.3046L76.7399 73.9617Z" fill="#FF5761"/>
<ellipse cx="70.0642" cy="76.7036" rx="1.52099" ry="2.02276" transform="rotate(41.606 70.0642 76.7036)" fill="#FF5761"/>
<ellipse cx="1.52099" cy="2.02276" rx="1.52099" ry="2.02276" transform="matrix(-0.747729 -0.664004 -0.664005 0.747728 77.7761 80.8472)" fill="#FF5761"/>
<ellipse cx="73.2683" cy="76.3027" rx="1.52099" ry="2.02276" transform="rotate(41.606 73.2683 76.3027)" fill="#FF5761"/>
<ellipse cx="1.52099" cy="2.02276" rx="1.52099" ry="2.02276" transform="matrix(-0.747729 -0.664004 -0.664005 0.747728 77.7957 77.6182)" fill="#FF5761"/>
<ellipse cx="1.71971" cy="1.85676" rx="1.71971" ry="1.85676" transform="matrix(0.0581378 0.998308 0.946326 -0.323214 65.8718 77.3022)" fill="#FF5761"/>
<ellipse cx="1.74725" cy="1.83088" rx="1.74725" ry="1.83088" transform="matrix(-0.00175713 -0.999998 0.961258 -0.275651 66.6221 88.3052)" fill="#FF5761"/>
<ellipse cx="1.70114" cy="1.8738" rx="1.70114" ry="1.8738" transform="matrix(-0.999785 0.0207298 0.24151 -0.970398 74.9238 86.001)" fill="#FF5761"/>
<ellipse cx="1.71971" cy="1.85676" rx="1.71971" ry="1.85676" transform="matrix(0.0581378 0.998308 0.946326 -0.323214 63.9033 80.4258)" fill="#FF5761"/>
<ellipse cx="1.74725" cy="1.83088" rx="1.74725" ry="1.83088" transform="matrix(-0.00175713 -0.999998 0.961258 -0.275651 64.5059 86.4648)" fill="#FF5761"/>
<ellipse cx="1.70114" cy="1.8738" rx="1.70114" ry="1.8738" transform="matrix(-0.999785 0.0207298 0.24151 -0.970398 71.9995 88.2324)" fill="#FF5761"/>
<ellipse cx="70.6653" cy="81.2956" rx="1.36889" ry="1.82049" transform="rotate(41.606 70.6653 81.2956)" fill="#F32834"/>
<path d="M26.5572 43.9671C26.7327 43.7282 27.1065 43.7978 27.1843 44.0838L28.6631 49.5211C28.6918 49.6269 28.768 49.7134 28.8693 49.7554L33.6762 51.7457C33.9229 51.8478 33.9721 52.1758 33.7663 52.3458L29.4351 55.9232C29.3603 55.985 29.3141 56.0748 29.3074 56.1716L28.8987 62.0286C28.8788 62.3137 28.5467 62.459 28.3238 62.2801L24.253 59.0119C24.1605 58.9376 24.0369 58.9146 23.9238 58.9507L18.95 60.5362C18.6776 60.623 18.42 60.368 18.504 60.0948L20.2291 54.4827C20.2576 54.3899 20.2468 54.2895 20.1992 54.205L17.4443 49.3093C17.3134 49.0766 17.4773 48.7883 17.7441 48.7817L22.9453 48.6533C23.0549 48.6506 23.157 48.5973 23.2219 48.5089L26.5572 43.9671Z" fill="#FF5761"/>
<ellipse cx="21.6135" cy="49.7817" rx="1.78928" ry="2.02276" transform="rotate(10.5387 21.6135 49.7817)" fill="#FF5761"/>
<ellipse cx="1.78928" cy="2.02276" rx="1.78928" ry="2.02276" transform="matrix(-0.983131 -0.1829 -0.1829 0.983131 31.8345 49.626)" fill="#FF5761"/>
<ellipse cx="24.5205" cy="47.854" rx="1.78928" ry="2.02276" transform="rotate(10.5387 24.5205 47.854)" fill="#FF5761"/>
<ellipse cx="1.78928" cy="2.02276" rx="1.78928" ry="2.02276" transform="matrix(-0.983131 -0.1829 -0.1829 0.983131 29.8159 46.7812)" fill="#FF5761"/>
<ellipse cx="1.8772" cy="1.94145" rx="1.8772" ry="1.94145" transform="matrix(0.629788 0.776767 0.697473 -0.716611 17.8567 52.3696)" fill="#FF5761"/>
<ellipse cx="1.88988" cy="1.9291" rx="1.88988" ry="1.9291" transform="matrix(-0.585156 -0.81092 0.734619 -0.67848 25.542 61.6606)" fill="#FF5761"/>
<ellipse cx="1.8687" cy="1.94962" rx="1.8687" ry="1.94962" transform="matrix(-0.885687 0.464282 -0.359766 -0.933042 32.2744 55.5542)" fill="#FF5761"/>
<ellipse cx="1.8772" cy="1.94145" rx="1.8772" ry="1.94145" transform="matrix(0.629788 0.776767 0.697473 -0.716611 17.887 56.0801)" fill="#FF5761"/>
<ellipse cx="1.88988" cy="1.9291" rx="1.88988" ry="1.9291" transform="matrix(-0.585156 -0.81092 0.734619 -0.67848 22.293 61.0859)" fill="#FF5761"/>
<ellipse cx="1.8687" cy="1.94962" rx="1.8687" ry="1.94962" transform="matrix(-0.885687 0.464282 -0.359766 -0.933042 30.7988 58.9517)" fill="#FF5761"/>
<ellipse cx="25.105" cy="53.5174" rx="1.61035" ry="1.82049" transform="rotate(10.5387 25.105 53.5174)" fill="#F32834"/>
<path d="M19.3304 63.1101C19.5047 62.8608 19.8913 62.9328 19.9643 63.228L20.7981 66.6013C20.8247 66.709 20.9003 66.798 21.0023 66.8417L23.8669 68.0704C24.1063 68.173 24.1567 68.4903 23.9608 68.662L21.2966 70.9985C21.227 71.0596 21.1841 71.1454 21.1771 71.2377L20.8915 74.9732C20.8694 75.2612 20.5303 75.4031 20.3097 75.2165L17.955 73.2248C17.8595 73.1439 17.7284 73.1196 17.6102 73.1606L14.6966 74.1723C14.4237 74.267 14.1583 74.0127 14.2414 73.736L15.3183 70.1478C15.3449 70.0591 15.3357 69.9635 15.2927 69.8816L13.647 66.7432C13.5261 66.5126 13.6872 66.2347 13.9474 66.225L17.0623 66.1088C17.1731 66.1046 17.2757 66.0487 17.3392 65.9578L19.3304 63.1101Z" fill="#FF5761"/>
<ellipse cx="16.258" cy="66.8873" rx="1.15305" ry="1.3848" transform="rotate(10.5387 16.258 66.8873)" fill="#FF5761"/>
<ellipse cx="1.15305" cy="1.3848" rx="1.15305" ry="1.3848" transform="matrix(-0.983131 -0.1829 -0.1829 0.983131 22.8596 66.707)" fill="#FF5761"/>
<ellipse cx="18.1494" cy="65.5489" rx="1.15305" ry="1.3848" transform="rotate(10.5387 18.1494 65.5489)" fill="#FF5761"/>
<ellipse cx="1.15305" cy="1.3848" rx="1.15305" ry="1.3848" transform="matrix(-0.983131 -0.1829 -0.1829 0.983131 21.5764 64.7778)" fill="#FF5761"/>
<ellipse cx="1.24199" cy="1.30563" rx="1.24199" ry="1.30563" transform="matrix(0.606214 0.795301 0.677444 -0.735574 13.8135 68.6821)" fill="#FF5761"/>
<ellipse cx="1.25464" cy="1.29348" rx="1.25464" ry="1.29348" transform="matrix(-0.560372 -0.828241 0.714824 -0.699305 18.709 74.9751)" fill="#FF5761"/>
<ellipse cx="1.2335" cy="1.31365" rx="1.2335" ry="1.31365" transform="matrix(-0.871562 0.490285 -0.334792 -0.942292 23.1008 70.7539)" fill="#FF5761"/>
<ellipse cx="1.24199" cy="1.30563" rx="1.24199" ry="1.30563" transform="matrix(0.606214 0.795301 0.677444 -0.735574 13.8059 71.2173)" fill="#FF5761"/>
<ellipse cx="1.25464" cy="1.29348" rx="1.25464" ry="1.29348" transform="matrix(-0.560372 -0.828241 0.714824 -0.699305 16.615 74.606)" fill="#FF5761"/>
<ellipse cx="1.2335" cy="1.31365" rx="1.2335" ry="1.31365" transform="matrix(-0.871562 0.490285 -0.334792 -0.942292 22.1235 73.0859)" fill="#FF5761"/>
<ellipse cx="18.4856" cy="69.4146" rx="1.03774" ry="1.24632" transform="rotate(10.5387 18.4856 69.4146)" fill="#F32834"/>
<path d="M11.6275 47.0088C11.7204 46.6847 12.1709 46.6615 12.2965 46.9745L14.164 51.6284C14.2066 51.7345 14.2979 51.8136 14.409 51.8406L17.9962 52.7116C18.2203 52.766 18.3334 53.0167 18.2259 53.2207L15.845 57.7384C15.8108 57.8035 15.7976 57.8775 15.8073 57.9504L16.5714 63.6751C16.6119 63.9781 16.275 64.1865 16.0219 64.0151L12.9424 61.9289C12.8114 61.8402 12.6375 61.8491 12.5163 61.9508L9.66662 64.3413C9.43237 64.5378 9.07594 64.365 9.08515 64.0594L9.25903 58.2865C9.26124 58.2131 9.24054 58.1407 9.19981 58.0796L6.3689 53.8294C6.24106 53.6374 6.3279 53.3765 6.54525 53.2994L10.0243 52.0657C10.1322 52.0274 10.2149 51.9395 10.2464 51.8295L11.6275 47.0088Z" fill="#FF5761"/>
<ellipse cx="9.36449" cy="53.4388" rx="1.27174" ry="2.02276" transform="rotate(-2.93863 9.36449 53.4388)" fill="#FF5761"/>
<ellipse cx="1.27174" cy="2.02276" rx="1.27174" ry="2.02276" transform="matrix(-0.998685 0.0512663 0.0512663 0.998685 16.373 51.0532)" fill="#FF5761"/>
<ellipse cx="11.0183" cy="50.9232" rx="1.27174" ry="2.02276" transform="rotate(-2.93863 11.0183 50.9232)" fill="#FF5761"/>
<ellipse cx="1.27174" cy="2.02276" rx="1.27174" ry="2.02276" transform="matrix(-0.998685 0.0512663 0.0512663 0.998685 14.4707 48.7207)" fill="#FF5761"/>
<ellipse cx="1.58538" cy="1.78759" rx="1.58538" ry="1.78759" transform="matrix(0.679165 0.733986 0.381251 -0.924471 7.24438 56.7822)" fill="#FF5761"/>
<ellipse cx="1.62674" cy="1.75004" rx="1.62674" ry="1.75004" transform="matrix(-0.637824 -0.770182 0.422722 -0.906259 14.2097 64.1641)" fill="#FF5761"/>
<ellipse cx="1.55724" cy="1.81215" rx="1.55724" ry="1.81215" transform="matrix(-0.631319 0.775523 -0.447395 -0.894337 17.7444 56.7378)" fill="#FF5761"/>
<ellipse cx="1.58538" cy="1.78759" rx="1.58538" ry="1.78759" transform="matrix(0.679165 0.733986 0.381251 -0.924471 7.93384 60.3945)" fill="#FF5761"/>
<ellipse cx="1.62674" cy="1.75004" rx="1.62674" ry="1.75004" transform="matrix(-0.637824 -0.770182 0.422722 -0.906259 11.8694 64.3135)" fill="#FF5761"/>
<ellipse cx="1.55724" cy="1.81215" rx="1.55724" ry="1.81215" transform="matrix(-0.631319 0.775523 -0.447395 -0.894337 17.3408 60.3735)" fill="#FF5761"/>
<ellipse cx="12.4405" cy="56.319" rx="1.14457" ry="1.82049" transform="rotate(-2.93863 12.4405 56.319)" fill="#F32834"/>
</svg>
