<svg width="40" height="40" viewBox="0 0 40 40" fill="none" xmlns="http://www.w3.org/2000/svg">
<rect width="40" height="40" rx="20" fill="#F9FAFB"/>
<path d="M19.6876 21.1414L21.0461 19.7828L26.8425 25.5792L25.4839 26.9377L19.6876 21.1414Z" fill="#6B7684"/>
<path d="M22.7669 24.7641C22.6169 24.6141 22.6169 24.3708 22.7669 24.2207L24.1255 22.8622C24.2755 22.7122 24.5188 22.7122 24.6689 22.8622L28.2463 26.4396C28.7715 26.9648 28.7715 27.8164 28.2463 28.3416C27.7211 28.8668 26.8696 28.8668 26.3444 28.3416L22.7669 24.7641Z" fill="#4196FD"/>
<path d="M21.4537 12.0391C24.0797 14.6652 24.0797 18.9228 21.4537 21.5488C18.8276 24.1748 14.5701 24.1748 11.9441 21.5488C9.31806 18.9227 9.31807 14.6651 11.9441 12.0391C14.5701 9.41313 18.8277 9.41313 21.4537 12.0391Z" fill="white" fill-opacity="0.7"/>
<path fill-rule="evenodd" clip-rule="evenodd" d="M20.0046 20.0997C21.8303 18.274 21.8303 15.3139 20.0046 13.4882C18.1789 11.6625 15.2189 11.6625 13.3932 13.4882C11.5675 15.3139 11.5675 18.274 13.3931 20.0997C15.2188 21.9254 18.1789 21.9254 20.0046 20.0997ZM21.4537 21.5488C24.0797 18.9228 24.0797 14.6652 21.4537 12.0391C18.8277 9.41313 14.5701 9.41313 11.9441 12.0391C9.31807 14.6651 9.31806 18.9227 11.9441 21.5488C14.5701 24.1748 18.8276 24.1748 21.4537 21.5488Z" fill="#8B95A1"/>
</svg>
