<svg width="25" height="24" viewBox="0 0 25 24" fill="none" xmlns="http://www.w3.org/2000/svg">
<path d="M3.99998 11.1752C3.81664 10.9752 3.72498 10.7377 3.72498 10.4627C3.72498 10.1877 3.81664 9.9502 3.99998 9.7502L6.79998 6.9502L5.72498 5.8752L5.42498 6.1752C5.22498 6.3752 4.98748 6.4752 4.71248 6.4752C4.43748 6.4752 4.19998 6.3752 3.99998 6.1752C3.81664 5.9752 3.72498 5.7377 3.72498 5.4627C3.72498 5.1877 3.81664 4.95853 3.99998 4.7752L5.99998 2.7752C6.19998 2.5752 6.43748 2.4752 6.71248 2.4752C6.98748 2.4752 7.22498 2.5752 7.42498 2.7752C7.62498 2.95853 7.72498 3.19186 7.72498 3.4752C7.72498 3.75853 7.62498 3.99186 7.42498 4.1752L7.12498 4.4752L8.19998 5.5502L11 2.7502C11.2 2.5502 11.4375 2.4502 11.7125 2.4502C11.9875 2.4502 12.225 2.5502 12.425 2.7502C12.625 2.9502 12.725 3.1877 12.725 3.4627C12.725 3.7377 12.625 3.9752 12.425 4.1752L11.75 4.8252L13.3 6.3752L10.475 9.1752C10.2916 9.3752 10.2 9.6127 10.2 9.8877C10.2 10.1627 10.2916 10.4002 10.475 10.6002C10.675 10.8002 10.9125 10.9002 11.1875 10.9002C11.4625 10.9002 11.7 10.8002 11.9 10.6002L14.7 7.7752L16.225 9.2752L13.4 12.1002C13.2 12.3002 13.1 12.5377 13.1 12.8127C13.1 13.0877 13.2 13.3252 13.4 13.5252C13.5833 13.7085 13.8125 13.796 14.0875 13.7877C14.3625 13.7794 14.6 13.6835 14.8 13.5002L17.6 10.6752L19.125 12.2002C19.5083 12.5835 19.7 13.0544 19.7 13.6127C19.7 14.171 19.5083 14.6419 19.125 15.0252L18.425 15.7502L22.3 19.6002C22.4666 19.7669 22.5083 19.9502 22.425 20.1502C22.3416 20.3502 22.1833 20.4502 21.95 20.4502H20.925C20.725 20.4502 20.5291 20.4085 20.3375 20.3252C20.1458 20.2419 19.9833 20.1335 19.85 20.0002L17 17.1502L16.3 17.8752C15.9166 18.2585 15.4458 18.4502 14.8875 18.4502C14.3291 18.4502 13.8583 18.2585 13.475 17.8752L6.09998 10.5002L5.42498 11.1752C5.22498 11.3585 4.98748 11.4502 4.71248 11.4502C4.43748 11.4502 4.19998 11.3585 3.99998 11.1752Z" fill="#4196FD"/>
</svg>
