<svg width="353" height="220" viewBox="0 0 353 220" fill="none" xmlns="http://www.w3.org/2000/svg">
<g filter="url(#filter0_b_853_9871)">
<g clip-path="url(#clip0_853_9871)">
<rect width="353" height="220" rx="14" fill="#4196FD"/>
<mask id="mask0_853_9871" style="mask-type:alpha" maskUnits="userSpaceOnUse" x="0" y="0" width="160" height="220">
<rect width="160" height="220" rx="14" fill="#4196FD"/>
<rect width="160" height="220" rx="14" fill="url(#paint0_linear_853_9871)" fill-opacity="0.3"/>
</mask>
<g mask="url(#mask0_853_9871)">
<g opacity="0.3">
<path d="M67.4871 41.2334C69.9979 46.4756 65.9144 56.6965 57.9889 60.4925C50.0634 64.2885 40.4228 60.641 37.912 55.3989C35.4012 50.1567 39.7806 42.8197 47.7061 39.0236C55.6316 35.2276 64.9667 35.9712 67.4871 41.2334Z" fill="white"/>
<path d="M57.1725 41.9413C57.0641 42.436 56.9749 42.9707 57.1255 43.4397C57.3145 43.9888 57.8044 44.3937 58.2551 44.7682C60.2655 46.3389 62.384 47.9808 64.892 48.4276C68.6489 49.1127 72.6394 46.7832 74.2538 43.3041C74.4092 42.9591 74.535 42.6037 74.5317 42.2363C74.491 41.7392 74.1606 41.3071 73.9402 40.8469C73.3068 39.576 73.4638 38.0495 72.9804 36.7313C71.7385 33.3659 66.9697 31.4436 63.7204 32.385C59.9216 33.4665 57.9933 38.3504 57.1725 41.9413Z" fill="white"/>
<path d="M62.3699 31.1133C62.1363 30.8316 61.873 30.5395 61.5373 30.4051C61.1423 30.2499 60.7027 30.3621 60.2736 30.4446C58.4758 30.8629 56.6074 31.3396 55.2131 32.5486C53.1216 34.3621 52.6542 37.6608 53.9027 40.113C54.0177 40.3531 54.1623 40.6036 54.3785 40.746C54.6732 40.9493 55.0709 40.9556 55.4276 41.0307C56.4183 41.245 57.2298 42.0124 58.1986 42.3355C60.6603 43.1489 63.8961 41.3039 64.8418 39.0553C65.9438 36.412 64.0338 33.1451 62.3804 31.0836L62.3699 31.1133Z" fill="white"/>
<path d="M42.7547 36.868C42.498 37.3107 42.2309 37.783 42.2219 38.2793C42.2111 38.8748 42.5492 39.4262 42.8786 39.908C44.2817 42.0648 45.7623 44.332 48.0171 45.5889C51.3939 47.4891 55.9758 46.549 58.6321 43.7516C58.8956 43.4778 59.1496 43.184 59.2457 42.8182C59.3742 42.3139 59.2044 41.8048 59.134 41.2974C58.9507 39.8847 59.603 38.4654 59.5592 37.035C59.4957 33.4003 55.5492 30.0019 52.1409 29.8386C48.1466 29.6363 44.7021 33.6722 42.7451 36.848L42.7547 36.868Z" fill="white"/>
<path d="M39.4257 34.4035C38.946 34.5349 38.4356 34.7055 38.091 35.0674C37.6756 35.4877 37.5549 36.1113 37.4648 36.6956C37.0117 39.2002 36.5664 41.8242 37.3579 44.2492C38.5256 47.8717 42.4403 50.2768 46.2439 50.0293C46.6024 50.0052 47.001 49.9619 47.3028 49.7681C47.7356 49.487 47.953 49.0139 48.2489 48.6016C49.0754 47.4432 50.4781 46.8697 51.4223 45.8025C53.8178 43.1301 53.2536 38.0379 50.9201 35.638C48.1865 32.8148 43.0038 33.4276 39.4554 34.4139L39.4257 34.4035Z" fill="white"/>
<path d="M42.4739 38.0354C42.1025 37.6721 41.691 37.328 41.1861 37.2009C40.6019 37.0626 40.0113 37.2716 39.4408 37.4711C37.0079 38.3658 34.4843 39.3285 32.7389 41.2468C30.1411 44.1146 30.0366 48.7891 32.1865 51.9903C32.3896 52.3112 32.6327 52.6129 32.9675 52.7969C33.4305 53.0425 33.9687 52.9816 34.485 53.0294C35.9048 53.1612 37.141 54.0941 38.5581 54.3747C42.1353 55.0966 46.3189 51.9859 47.2433 48.7143C48.3373 44.8696 45.1518 40.6393 42.4739 38.0354Z" fill="white"/>
<path d="M40.7603 42.545C40.2303 42.1593 39.6304 41.7824 38.965 41.7322C38.1906 41.6603 37.4673 42.0559 36.7747 42.4123C33.8216 44.0235 30.7673 45.7324 28.8968 48.5224C26.1159 52.7077 26.8629 58.6963 30.2466 62.4134C30.5683 62.776 30.93 63.1192 31.4044 63.2856C32.027 63.504 32.7266 63.3165 33.4034 63.2875C35.255 63.1878 37.018 64.139 38.866 64.2378C43.5755 64.4912 48.3566 59.6922 48.9327 55.3329C49.5825 50.2004 44.6975 45.3575 40.7603 42.545Z" fill="white"/>
<path d="M32.95 59.7682C32.7614 60.3013 32.5919 60.8745 32.7111 61.4323C32.8485 62.0798 33.3367 62.584 33.8056 63.0481C35.828 65.0559 37.9881 67.1452 40.7079 67.9826C44.8029 69.219 49.5345 67.1495 51.7587 63.5014C51.9839 63.1476 52.1699 62.7633 52.1971 62.3567C52.2175 61.7812 51.9186 61.2602 51.7192 60.7408C51.1792 59.2529 51.5577 57.5711 51.1878 56.0264C50.2541 52.1197 45.1918 49.3787 41.4612 49.9848C37.0923 50.6999 34.3135 55.8681 32.95 59.7682Z" fill="white"/>
<path d="M41.3669 57.9726C41.0117 58.3641 40.6661 58.7756 40.5673 59.2903C40.4571 59.8843 40.6652 60.4733 40.9039 61.0232C41.8847 63.4314 42.9134 65.9397 44.9019 67.6193C47.8799 70.1287 52.5651 70.0739 55.7488 67.811C56.0611 67.5876 56.3639 67.3442 56.5193 66.9992C56.7367 66.5261 56.6768 65.989 56.6963 65.4632C56.772 64.0248 57.6902 62.7486 57.9247 61.3326C58.5371 57.7185 55.2992 53.6364 51.9723 52.8192C48.0612 51.8637 43.9132 55.2033 41.3669 57.9726Z" fill="white"/>
<path d="M48.5515 64.3224C48.5512 64.8883 48.5805 65.4646 48.8603 65.9456C49.1984 66.497 49.8192 66.8146 50.3912 67.0818C52.9154 68.2834 55.5984 69.5074 58.4051 69.393C62.615 69.2215 66.3078 65.7555 67.1777 61.6491C67.2547 61.2432 67.3316 60.8374 67.2097 60.4284C67.0504 59.8898 66.5997 59.5153 66.2397 59.0727C65.247 57.8755 65.0586 56.1947 64.2168 54.9006C62.0791 51.5706 56.4856 50.7075 53.2411 52.4829C49.434 54.577 48.5554 60.2618 48.5419 64.3024L48.5515 64.3224Z" fill="white"/>
<path d="M62.6509 48.5431C62.2951 48.4183 61.9193 48.3031 61.5399 48.3865C61.1107 48.469 60.7765 48.8013 60.4624 49.1239C59.1351 50.473 57.7468 51.9005 57.1973 53.6888C56.3725 56.3961 57.748 59.5254 60.1684 60.9735C60.4047 61.1064 60.6706 61.2496 60.9192 61.2535C61.2968 61.2694 61.6388 61.0564 61.9991 60.9331C62.99 60.5814 64.0896 60.8173 65.1084 60.5753C67.6956 59.9511 69.5167 56.5944 69.1037 54.1356C68.6386 51.259 65.2006 49.4373 62.6308 48.5527L62.6509 48.5431Z" fill="white"/>
<path d="M59.1176 50.3314C59.0301 50.7669 58.9522 51.2224 59.0837 51.6514C59.2439 52.1404 59.685 52.4949 60.0869 52.8189C61.8523 54.1872 63.7363 55.5971 65.9471 55.9895C69.2583 56.5682 72.7471 54.479 74.125 51.433C74.2594 51.1472 74.3747 50.8214 74.361 50.4837C74.3193 50.0362 74.0378 49.6545 73.8261 49.264C73.2694 48.1531 73.393 46.8148 72.9567 45.6462C71.8366 42.6898 67.6398 41.0347 64.7901 41.8831C61.4605 42.8629 59.7916 47.1552 59.1176 50.3314Z" fill="white"/>
<path d="M60.1534 38.3254C59.8392 38.648 59.5346 38.9907 59.4271 39.4357C59.2987 39.94 59.4781 40.4691 59.6584 40.9485C60.4256 43.0654 61.2608 45.2728 62.9442 46.7788C65.4496 49.0225 69.5155 49.1168 72.324 47.2551C72.6058 47.0709 72.878 46.8667 73.0125 46.5809C73.2185 46.1871 73.1873 45.71 73.2155 45.2538C73.3374 44.0147 74.1525 42.9355 74.4035 41.7084C75.0365 38.6009 72.3478 34.9445 69.478 34.1544C66.1137 33.2075 62.4135 35.9883 60.1438 38.3054L60.1534 38.3254Z" fill="white"/>
<path d="M-4.70865 97.0067C24.97 119.875 68.824 109.855 95.5255 87.3298C113.222 72.3899 132.659 40.338 120.684 16.621C117.482 10.2561 107.669 15.5237 110.898 21.9053C120.444 40.832 101.333 67.9594 87.8927 79.2771C64.6416 98.8442 26.8742 107.438 1.18451 87.6113C-4.47895 83.2481 -10.3405 92.6818 -4.72534 97.0334L-4.70865 97.0067Z" fill="white"/>
<path d="M0.764969 19.3935L0.744915 19.4031C-3.35518 21.3669 -5.09145 26.2733 -3.13316 30.3619L1.35181 39.7258C3.3101 43.8144 8.2214 45.5369 12.3215 43.5731L12.3415 43.5635C16.4416 41.5997 18.1779 36.6932 16.2196 32.6046L11.7347 23.2407C9.77636 19.1522 4.86507 17.4297 0.764969 19.3935Z" fill="white"/>
<path d="M60.4389 -9.18844L60.4188 -9.17882C56.3187 -7.21501 54.5824 -2.30858 56.5407 1.78002L61.0257 11.1439C62.984 15.2325 67.8953 16.955 71.9954 14.9912L72.0155 14.9815C76.1156 13.0177 77.8518 8.1113 75.8935 4.02271L71.4086 -5.34116C69.4503 -9.42975 64.539 -11.1522 60.4389 -9.18844Z" fill="white"/>
</g>
</g>
<g clip-path="url(#clip1_853_9871)">
<g clip-path="url(#clip2_853_9871)">
<path d="M272.896 50.6646C272.896 42.0133 265.864 35 257.19 35C248.516 35 241.485 42.0133 241.485 50.6646V72.0496C241.485 80.701 248.516 87.7143 257.19 87.7143C265.864 87.7143 272.896 80.701 272.896 72.0496V50.6646Z" fill="white"/>
<path d="M321.615 50.6646C321.615 42.0133 314.583 35 305.909 35C297.235 35 290.204 42.0133 290.204 50.6646V72.0496C290.204 80.701 297.235 87.7143 305.909 87.7143C314.583 87.7143 321.615 80.701 321.615 72.0496V50.6646Z" fill="white"/>
<path d="M268.288 52.099C268.288 45.9854 263.319 41.0293 257.19 41.0293C251.061 41.0293 246.092 45.9854 246.092 52.099V67.2133C246.092 73.3269 251.061 78.283 257.19 78.283C263.319 78.283 268.288 73.3269 268.288 67.2133V52.099Z" fill="#E9ECF2"/>
<path d="M317.008 52.099C317.008 45.9854 312.039 41.0293 305.91 41.0293C299.781 41.0293 294.812 45.9854 294.812 52.099V67.2133C294.812 73.3269 299.781 78.283 305.91 78.283C312.039 78.283 317.008 73.3269 317.008 67.2133V52.099Z" fill="#E9ECF2"/>
<path d="M274.329 42.6802H288.778C306.906 42.6802 321.622 57.3553 321.622 75.4318V177.601H241.485V75.4318C241.485 57.3553 256.201 42.6802 274.329 42.6802Z" fill="white"/>
<path d="M286.309 77.2813C286.309 78.9015 284.052 80.9794 281.602 80.9794C279.153 80.9794 277.168 78.9015 277.168 77.2813C277.168 75.661 279.153 74.3438 281.602 74.3438C284.052 74.3438 286.309 75.6548 286.309 77.2813Z" fill="#191F28"/>
<path d="M283.631 76.2172C283.544 76.3285 283.457 76.4522 283.439 76.5883C283.42 76.7491 283.494 76.9099 283.563 77.0583C283.879 77.6952 284.214 78.3631 284.791 78.7775C285.653 79.4021 286.936 79.297 287.761 78.6167C287.842 78.5487 287.916 78.4745 287.96 78.3817C288.009 78.2518 287.978 78.1034 287.978 77.9612C287.972 77.5654 288.195 77.2005 288.232 76.8109C288.325 75.8152 287.358 74.7577 286.428 74.6031C285.342 74.4176 284.27 75.4133 283.631 76.2172Z" fill="#191F28"/>
<path d="M286.242 74.1214C286.217 74.0225 286.186 73.9174 286.118 73.8432C286.037 73.7566 285.913 73.7318 285.795 73.7009C285.293 73.5896 284.766 73.4845 284.27 73.6205C283.525 73.8246 283.011 74.5976 283.029 75.3645C283.029 75.4387 283.035 75.5191 283.073 75.5809C283.122 75.6675 283.222 75.717 283.302 75.7788C283.525 75.952 283.637 76.2426 283.842 76.4405C284.363 76.9414 285.398 76.8672 285.907 76.4158C286.502 75.8839 286.415 74.8326 286.248 74.1153L286.242 74.1214Z" fill="#191F28"/>
<path d="M280.617 73.2061C280.499 73.2865 280.375 73.3731 280.313 73.4968C280.239 73.6452 280.257 73.8245 280.282 73.9853C280.375 74.6965 280.474 75.4448 280.89 76.0323C281.51 76.9166 282.775 77.232 283.78 76.8486C283.879 76.8115 283.978 76.7682 284.046 76.6878C284.139 76.5765 284.158 76.4281 284.201 76.292C284.325 75.9148 284.66 75.6365 284.822 75.2716C285.243 74.3502 284.66 73.0206 283.823 72.5691C282.843 72.0373 281.491 72.6371 280.617 73.1999V73.2061Z" fill="#191F28"/>
<path d="M280.078 72.1856C279.941 72.1608 279.792 72.1423 279.662 72.1918C279.507 72.2474 279.402 72.3896 279.309 72.5257C278.893 73.1008 278.465 73.7069 278.372 74.4119C278.23 75.4632 278.924 76.5393 279.91 76.935C280.003 76.9722 280.109 77.0093 280.208 76.9969C280.35 76.9783 280.462 76.8856 280.586 76.8176C280.933 76.6258 281.355 76.6506 281.721 76.496C282.645 76.1125 283.116 74.7644 282.819 73.88C282.471 72.8411 281.095 72.3711 280.084 72.1918L280.078 72.1856Z" fill="#191F28"/>
<path d="M280.407 73.4653C280.357 73.3292 280.295 73.1932 280.183 73.1004C280.053 72.9953 279.879 72.9767 279.712 72.9582C278.993 72.8902 278.242 72.8283 277.572 73.1004C276.574 73.5086 275.985 74.6712 276.14 75.7349C276.152 75.84 276.177 75.9452 276.239 76.0317C276.326 76.1492 276.468 76.1987 276.593 76.2729C276.934 76.477 277.132 76.8604 277.455 77.1016C278.267 77.7139 279.693 77.4356 280.32 76.7244C281.058 75.8895 280.766 74.4424 280.407 73.4653Z" fill="#191F28"/>
<path d="M279.432 74.394C279.346 74.2333 279.24 74.0663 279.079 73.9735C278.893 73.8622 278.663 73.8746 278.446 73.8808C277.51 73.9302 276.536 73.9921 275.73 74.4683C274.527 75.1856 273.994 76.7812 274.397 78.1231C274.434 78.253 274.484 78.3829 274.583 78.4818C274.713 78.6117 274.911 78.6488 275.085 78.723C275.563 78.9209 275.891 79.3723 276.344 79.6197C277.498 80.2505 279.277 79.6197 279.947 78.5931C280.729 77.381 280.084 75.5752 279.432 74.394Z" fill="#191F28"/>
<path d="M275.395 77.7823C275.284 77.8936 275.172 78.0173 275.135 78.1719C275.091 78.3512 275.153 78.5368 275.215 78.7099C275.482 79.4582 275.774 80.2436 276.357 80.7816C277.237 81.5856 278.676 81.6351 279.674 80.9857C279.774 80.9239 279.867 80.8497 279.922 80.7507C279.997 80.6085 279.984 80.4415 279.997 80.2869C280.04 79.8478 280.338 79.4706 280.431 79.0377C280.667 77.9431 279.724 76.6444 278.713 76.3476C277.529 76.0012 276.208 76.966 275.395 77.7823Z" fill="#191F28"/>
<path d="M277.726 78.3451C277.59 78.4008 277.454 78.4626 277.367 78.5801C277.267 78.7162 277.249 78.8894 277.243 79.0563C277.199 79.7799 277.156 80.5344 277.454 81.1961C277.9 82.1855 279.085 82.7359 280.157 82.5504C280.263 82.5319 280.368 82.5071 280.449 82.4391C280.561 82.3463 280.61 82.2041 280.678 82.0742C280.871 81.7217 281.255 81.5115 281.485 81.1837C282.074 80.3488 281.751 78.9326 281.013 78.3266C280.145 77.6154 278.7 77.9555 277.726 78.3451Z" fill="#191F28"/>
<path d="M278.769 80.8062C278.701 80.9484 278.639 81.0968 278.652 81.2514C278.67 81.4308 278.788 81.5854 278.9 81.7214C279.39 82.3275 279.917 82.9583 280.636 83.2675C281.715 83.7313 283.061 83.3046 283.774 82.377C283.842 82.2842 283.911 82.1914 283.929 82.0739C283.954 81.9193 283.886 81.7709 283.849 81.6163C283.743 81.1958 283.898 80.7505 283.842 80.3238C283.706 79.2292 282.404 78.3387 281.374 78.3943C280.165 78.4623 279.259 79.7858 278.769 80.8V80.8062Z" fill="#191F28"/>
<path d="M284.214 78.5364C284.139 78.4622 284.059 78.388 283.953 78.3633C283.836 78.3323 283.711 78.3756 283.594 78.4189C283.098 78.5982 282.577 78.79 282.223 79.1734C281.69 79.7547 281.659 80.7071 282.093 81.3626C282.136 81.4244 282.186 81.4925 282.248 81.5234C282.341 81.5729 282.453 81.5605 282.558 81.5729C282.849 81.6038 283.098 81.7955 283.383 81.8573C284.108 82.0119 284.97 81.3873 285.163 80.7194C285.392 79.9402 284.747 79.0683 284.208 78.5364H284.214Z" fill="#191F28"/>
<path d="M283.111 78.5614C283.036 78.6603 282.962 78.7654 282.943 78.8891C282.925 79.0314 282.993 79.1736 283.055 79.3035C283.334 79.86 283.638 80.4414 284.146 80.8062C284.909 81.3504 286.038 81.2453 286.751 80.6454C286.819 80.5898 286.887 80.5218 286.925 80.4352C286.968 80.3177 286.943 80.1878 286.937 80.0641C286.931 79.7178 287.123 79.3962 287.154 79.0499C287.229 78.1718 286.373 77.2503 285.554 77.1204C284.599 76.9658 283.663 77.844 283.111 78.5614Z" fill="#191F28"/>
<path d="M284.816 75.6666C284.698 75.7099 284.581 75.7593 284.5 75.8583C284.407 75.9696 284.388 76.1242 284.376 76.2665C284.314 76.8911 284.258 77.5466 284.5 78.1279C284.86 78.9937 285.871 79.507 286.801 79.3771C286.894 79.3647 286.987 79.3462 287.055 79.2905C287.154 79.2163 287.204 79.0926 287.266 78.9813C287.446 78.6845 287.781 78.5113 287.992 78.233C288.525 77.528 288.289 76.285 287.663 75.7408C286.931 75.0976 285.666 75.3512 284.816 75.6604V75.6666Z" fill="#191F28"/>
<path d="M264.046 86.2603C270.675 94.3307 283.215 94.3554 291.879 89.909C297.621 86.9591 304.908 79.47 303.141 72.2778C302.669 70.3483 299.674 71.1646 300.152 73.1003C301.559 78.8392 294.669 85.0111 290.31 87.2436C282.768 91.1025 271.971 91.0716 266.235 84.0773C264.97 82.5374 262.787 84.7328 264.04 86.2665L264.046 86.2603Z" fill="#191F28"/>
<path d="M270.768 63.7566H270.762C269.495 63.7566 268.468 64.781 268.468 66.0448V68.939C268.468 70.2027 269.495 71.2271 270.762 71.2271H270.768C272.036 71.2271 273.063 70.2027 273.063 68.939V66.0448C273.063 64.781 272.036 63.7566 270.768 63.7566Z" fill="#191F28"/>
<path d="M289.213 63.7566H289.206C287.939 63.7566 286.912 64.781 286.912 66.0448V68.939C286.912 70.2027 287.939 71.2271 289.206 71.2271H289.213C290.48 71.2271 291.507 70.2027 291.507 68.939V66.0448C291.507 64.781 290.48 63.7566 289.213 63.7566Z" fill="#191F28"/>
<path d="M241.484 110.138C241.484 110.138 244.337 123.366 224.325 155.227C204.312 187.088 208.176 233.655 208.176 233.655H321.622V146.124L241.491 110.138H241.484Z" fill="white"/>
<path d="M179.035 62.8157L177.667 63.7675C176.965 64.2561 176.793 65.2198 177.283 65.9201L209.905 112.552C210.395 113.252 211.361 113.424 212.064 112.935L213.432 111.984C214.134 111.495 214.306 110.531 213.816 109.831L181.194 63.1992C180.704 62.4989 179.738 62.3272 179.035 62.8157Z" fill="#3D3F4D"/>
<path d="M214.094 104.171L204.486 110.855C203.599 111.473 203.381 112.691 204 113.576L214.063 127.96C214.682 128.845 215.904 129.062 216.792 128.445L226.4 121.761C227.287 121.143 227.505 119.925 226.886 119.04L216.823 104.656C216.204 103.771 214.982 103.554 214.094 104.171Z" fill="#69AFEE"/>
<path d="M291.251 214.466L281.643 221.149C280.755 221.767 280.538 222.985 281.157 223.87L298.568 248.759C299.187 249.644 300.409 249.861 301.297 249.243L310.905 242.559C311.792 241.942 312.01 240.724 311.391 239.839L293.98 214.95C293.36 214.065 292.139 213.848 291.251 214.466Z" fill="#3B80D3"/>
<path d="M225.609 109.234L205.279 123.377C204.391 123.994 204.174 125.212 204.793 126.098L214.856 140.482C215.475 141.367 216.697 141.584 217.584 140.966L237.914 126.824C238.802 126.206 239.019 124.988 238.4 124.103L228.337 109.719C227.718 108.834 226.496 108.617 225.609 109.234Z" fill="#3B80D3"/>
<path d="M212.112 136.734L235.809 120.249C239.7 117.542 245.057 118.498 247.768 122.373L305.604 205.046L267.818 231.332L209.982 148.659C207.268 144.779 208.226 139.437 212.112 136.734Z" fill="#E1F4FF"/>
<path d="M304.426 199.564L263.069 228.334C262.182 228.951 261.964 230.169 262.583 231.054L267.906 238.662C268.525 239.548 269.747 239.765 270.634 239.147L311.991 210.377C312.878 209.76 313.096 208.542 312.477 207.657L307.154 200.049C306.535 199.163 305.313 198.946 304.426 199.564Z" fill="#6DB2F8"/>
<path d="M253.48 130.539L256.209 134.439L241.154 144.912C240.452 145.401 239.485 145.229 238.995 144.529L238.041 143.165C237.551 142.465 237.723 141.5 238.425 141.012L253.48 130.539Z" fill="#AAC5E2"/>
<path d="M292.783 186.736L295.512 190.636L280.457 201.109C279.755 201.598 278.788 201.426 278.298 200.726L277.343 199.362C276.854 198.662 277.026 197.697 277.728 197.209L292.783 186.736Z" fill="#AAC5E2"/>
<path d="M273.133 158.63L275.862 162.53L254.439 177.433C253.737 177.922 252.77 177.75 252.28 177.05L251.326 175.686C250.836 174.986 251.008 174.021 251.71 173.533L273.133 158.63Z" fill="#AAC5E2"/>
<path d="M263.305 144.589L266.034 148.489L255.566 155.771C254.865 156.259 253.897 156.088 253.408 155.388L252.453 154.023C251.964 153.323 252.136 152.359 252.838 151.871L263.305 144.589Z" fill="#AAC5E2"/>
<path d="M282.96 172.686L285.689 176.586L275.221 183.868C274.519 184.356 273.552 184.185 273.063 183.485L272.108 182.12C271.619 181.42 271.791 180.456 272.493 179.968L282.96 172.686Z" fill="#AAC5E2"/>
<path d="M205.1 207.106C205.1 207.106 174.29 186.766 215.946 146.952C257.602 107.138 265.416 155.61 248.926 171.188C232.436 186.766 225.925 220.953 225.925 220.953L205.093 207.106H205.1Z" fill="white"/>
<path d="M334.62 162.623C334.62 162.623 354.552 189.419 306.769 210.483C258.985 231.546 267.339 187.886 286.198 179.704C305.057 171.516 321.181 144.423 321.181 144.423L334.626 162.623H334.62Z" fill="white"/>
</g>
</g>
<path d="M28.1641 122.754C28.1533 125.912 29.7861 129.296 33.0625 130.66L31.5801 132.809C29.2812 131.831 27.6914 129.887 26.8105 127.523C25.9297 130.091 24.3076 132.239 21.998 133.303L20.4297 131.133C23.6738 129.683 25.3496 126.062 25.3496 122.754V121.551H21.2031V119.316H32.2461V121.551H28.1641V122.754ZM34.1797 136.977V117.426H36.9512V136.977H34.1797ZM55.3633 118.307V119.875C55.374 121.4 55.374 123.087 54.9014 125.332H57.4902V127.545H39.5938V125.332H52.1406C52.5596 123.388 52.6133 121.873 52.6348 120.498H41.7852V118.307H55.3633ZM41.7207 136.762V129.607H55.2988V136.762H41.7207ZM44.4062 134.57H52.5703V131.756H44.4062V134.57ZM62.7324 133.41L60.8848 139.533H58.6074L59.6816 133.41H62.7324ZM38.7773 152.838V155.072H36.0059V164.934H33.2559V145.426H36.0059V152.838H38.7773ZM21.2031 160.164V147.295H23.9316V157.897C26.4346 157.854 29.1201 157.618 31.9453 157.049L32.2246 159.326C28.9482 159.992 25.7793 160.164 22.9004 160.164H21.2031ZM56.5449 145.426V164.977H53.9238V145.426H56.5449ZM39.7656 153.891C39.7656 149.519 41.4307 146.812 44.0195 146.822C46.3721 146.812 47.9834 149.014 48.2842 152.666H49.8848V145.705H52.4629V164.074H49.8848V154.836H48.3057C48.0693 158.671 46.4258 161.002 44.0195 161.002C41.4307 161.002 39.7656 158.284 39.7656 153.891ZM42.3008 153.891C42.2793 156.898 42.9238 158.381 44.0195 158.359C45.1475 158.381 45.8135 156.898 45.8027 153.891C45.8135 150.894 45.1475 149.4 44.0195 149.4C42.9238 149.4 42.2793 150.894 42.3008 153.891ZM75.5586 145.426V164.977H72.9805V145.426H75.5586ZM58.3711 158.982C62.3242 156.641 64.0645 153.794 64.4404 149.959H59.4453V147.746H67.1582C67.1582 149.615 66.9541 151.355 66.4814 152.967H68.834V145.855H71.3906V164.117H68.834V155.137H65.6328C64.5156 157.371 62.7002 159.305 59.918 160.916L58.3711 158.982ZM92.6602 146.693V155.266H83.2715V146.693H92.6602ZM84.4316 162.807C87.9443 162.377 89.8564 160.98 90.2969 159.477H85.2695V157.307H98.4395V159.477H93.4336C93.8848 160.938 95.8291 162.388 99.2988 162.85L98.332 164.934C95.1953 164.515 92.9824 163.269 91.8545 161.593C90.7373 163.269 88.5459 164.493 85.4199 164.891L84.4316 162.807ZM85.9785 153.096H89.9531V148.863H85.9785V153.096ZM95.4531 156.383V145.426H98.2031V149.68H100.846V151.914H98.2031V156.383H95.4531ZM117.582 150.754V152.902H103.918V146.113H106.646V150.754H117.582ZM101.684 157.156V155.008H119.58V157.156H101.684ZM103.746 164.547V158.746H106.496V162.355H117.711V164.547H103.746ZM129.076 146.65V149.443H131.74V146.65H134.275V156.125H126.477V146.65H129.076ZM129.076 160.293V158.102H142.59V164.977H139.861V160.293H129.076ZM129.076 153.955H131.74V151.527H129.076V153.955ZM135.801 157.113V145.791H138.357V150.217H139.99V145.447H142.59V157.221H139.99V152.43H138.357V157.113H135.801ZM161.174 145.447V159.713H158.424V145.447H161.174ZM144.738 154.879C148.015 153.783 149.443 151.065 149.443 148.412V146.521H152.301V148.412C152.279 151.001 153.665 153.525 156.877 154.557L155.48 156.705C153.268 155.975 151.753 154.514 150.883 152.655C150.002 154.653 148.444 156.265 146.156 157.049L144.738 154.879ZM148.068 164.633V158.338H150.84V162.441H161.689V164.633H148.068ZM172.732 145.705C177.233 145.705 179.833 146.887 179.844 149.035C179.833 151.216 177.233 152.387 172.732 152.387C168.221 152.387 165.6 151.216 165.6 149.035C165.6 146.887 168.221 145.705 172.732 145.705ZM163.816 155.48V153.311H181.648V155.48H163.816ZM165.879 158.617V156.619H179.479V161.604H168.586V162.785H179.994V164.848H165.9V159.691H176.771V158.617H165.879ZM168.479 149.035C168.468 149.991 169.864 150.367 172.732 150.367C175.622 150.367 177.008 149.991 177.008 149.035C177.008 148.165 175.622 147.703 172.732 147.703C169.864 147.703 168.468 148.165 168.479 149.035ZM38.4121 185.135V187.369H30.8281V192.998H28.1211V187.369H20.5801V185.135H38.4121ZM21.4824 181.934C25.543 181.482 27.7451 179.57 28.0781 177.83H22.1914V175.682H28.1211V173.447H30.8281V175.682H36.7793V177.83H30.9141C31.2148 179.549 33.417 181.482 37.4668 181.934L36.4785 184.082C33.1592 183.706 30.7637 182.342 29.4961 180.569C28.2178 182.363 25.8115 183.706 22.4707 184.082L21.4824 181.934ZM46.791 178.023C46.8018 180.226 48.2305 182.471 51.4102 183.438L50.0996 185.564C47.9082 184.931 46.3613 183.588 45.4805 181.891C44.6104 183.728 43.0635 185.178 40.7969 185.887L39.4648 183.738C42.6445 182.782 44.0625 180.408 44.0625 178.023V177.873H40.1309V175.725H44.0625V173.555H46.834V175.725H50.7441V177.873H46.791V178.023ZM43.0957 192.633V186.703H45.8457V190.441H56.5449V192.633H43.0957ZM50.0996 181.354V179.141H53.3438V173.447H56.0723V187.949H53.3438V181.354H50.0996ZM79.1895 173.426V177.873H81.832V180.129H79.1895V184.834H76.4395V173.426H79.1895ZM64.2578 183.867V174.564H66.9863V177.057H70.9824V174.564H73.7324V183.867H64.2578ZM66.4062 192.719V185.715H79.2969V187.885H69.1348V190.57H79.6621V192.719H66.4062ZM66.9863 181.719H70.9824V179.184H66.9863V181.719ZM87.9551 174.801C90.9414 174.801 93.1006 177.497 93.1113 181.762C93.1006 186.059 90.9414 188.744 87.9551 188.744C84.958 188.744 82.7881 186.059 82.7988 181.762C82.7881 177.497 84.958 174.801 87.9551 174.801ZM85.4414 181.762C85.4414 184.673 86.4619 186.263 87.9551 186.252C89.4805 186.263 90.4795 184.673 90.4902 181.762C90.4795 178.861 89.4805 177.271 87.9551 177.271C86.4619 177.271 85.4414 178.861 85.4414 181.762ZM95.3672 192.977V173.426H98.1172V180.795H100.996V183.072H98.1172V192.977H95.3672ZM119.602 188.465V190.699H101.705V188.465H109.246V184.855H103.596V174.672H106.346V177.701H114.875V174.672H117.604V184.855H111.975V188.465H119.602ZM106.346 182.664H114.875V179.893H106.346V182.664ZM126.992 178.346C126.981 181.515 127.862 184.78 130.537 186.488L129.055 188.615C127.357 187.595 126.294 185.897 125.671 183.899C124.973 186.112 123.802 187.971 122.029 189.045L120.354 187.025C123.254 185.231 124.328 181.783 124.328 178.475V175.102H126.992V178.346ZM128.475 182.256V180.021H131.01V173.705H133.566V192.074H131.01V182.256H128.475ZM135.049 192.977V173.426H137.67V192.977H135.049ZM157.629 188.443V190.699H139.732V188.443H143.729V183.652C142.214 182.739 141.301 181.354 141.301 179.635C141.301 176.466 144.395 174.382 148.648 174.371C152.881 174.382 156.007 176.466 156.018 179.635C156.007 181.321 155.126 182.686 153.654 183.599V188.443H157.629ZM144.008 179.635C144.008 181.547 145.845 182.729 148.648 182.729C151.409 182.729 153.3 181.547 153.311 179.635C153.3 177.669 151.409 176.53 148.648 176.541C145.845 176.53 144.008 177.669 144.008 179.635ZM146.436 188.443H150.883V184.641C150.185 184.78 149.433 184.855 148.648 184.855C147.864 184.855 147.123 184.78 146.436 184.651V188.443Z" fill="white"/>
</g>
</g>
<defs>
<filter id="filter0_b_853_9871" x="-21.4612" y="-21.4612" width="395.922" height="262.922" filterUnits="userSpaceOnUse" color-interpolation-filters="sRGB">
<feFlood flood-opacity="0" result="BackgroundImageFix"/>
<feGaussianBlur in="BackgroundImageFix" stdDeviation="10.7306"/>
<feComposite in2="SourceAlpha" operator="in" result="effect1_backgroundBlur_853_9871"/>
<feBlend mode="normal" in="SourceGraphic" in2="effect1_backgroundBlur_853_9871" result="shape"/>
</filter>
<linearGradient id="paint0_linear_853_9871" x1="150.042" y1="200.322" x2="-4.58469" y2="38.1137" gradientUnits="userSpaceOnUse">
<stop stop-color="#6DB2F8"/>
<stop offset="1" stop-color="white"/>
</linearGradient>
<clipPath id="clip0_853_9871">
<rect width="353" height="220" rx="14" fill="white"/>
</clipPath>
<clipPath id="clip1_853_9871">
<rect x="177" y="35" width="161.744" height="199" rx="27.2603" fill="white"/>
</clipPath>
<clipPath id="clip2_853_9871">
<rect width="161.744" height="229.441" fill="white" transform="translate(177 35)"/>
</clipPath>
</defs>
</svg>
