<svg width="600" height="600" viewBox="0 0 600 600" fill="none" xmlns="http://www.w3.org/2000/svg">
<path d="M269.311 298.594C280.092 341.812 273.844 436.477 262.448 488.77C248.016 554.962 192.534 576.562 141.562 584.737C90.989 592.866 53.878 589.983 39.8437 546.009C-14.0204 377.287 105.469 251.864 163.383 227.606C207.394 209.18 250.27 222.37 269.311 298.594Z" fill="#FF5761"/>
<path d="M332.034 298.594C321.253 341.812 327.501 436.477 338.897 488.77C353.33 554.962 408.811 576.562 459.764 584.737C510.337 592.866 547.448 589.983 561.483 546.009C615.347 377.287 495.858 251.864 437.944 227.606C393.951 209.18 351.094 222.37 332.034 298.594Z" fill="#FF5761"/>
<path d="M469.546 141.722C473.525 141.722 476.751 138.496 476.751 134.517C476.751 130.538 473.525 127.312 469.546 127.312C465.567 127.312 462.342 130.538 462.342 134.517C462.342 138.496 465.567 141.722 469.546 141.722Z" fill="#0C5FC3"/>
<path d="M455.376 111.647C458.594 111.647 461.203 109.038 461.203 105.82C461.203 102.602 458.594 99.9938 455.376 99.9938C452.158 99.9938 449.55 102.602 449.55 105.82C449.55 109.038 452.158 111.647 455.376 111.647Z" fill="#0C5FC3"/>
<path d="M494.92 103.341C497.737 103.341 500.02 101.057 500.02 98.2406C500.02 95.424 497.737 93.1406 494.92 93.1406C492.104 93.1406 489.82 95.424 489.82 98.2406C489.82 101.057 492.104 103.341 494.92 103.341Z" fill="#0C5FC3"/>
<path d="M477.543 114.98C479.835 114.98 481.692 113.122 481.692 110.831C481.692 108.54 479.835 106.683 477.543 106.683C475.252 106.683 473.395 108.54 473.395 110.831C473.395 113.122 475.252 114.98 477.543 114.98Z" fill="#0C5FC3"/>
<path d="M496.495 131.419C498.729 131.419 500.54 129.608 500.54 127.373C500.54 125.139 498.729 123.328 496.495 123.328C494.261 123.328 492.45 125.139 492.45 127.373C492.45 129.608 494.261 131.419 496.495 131.419Z" fill="#0C5FC3"/>
<path d="M515.573 304.842C517.176 304.842 518.475 303.543 518.475 301.941C518.475 300.338 517.176 299.039 515.573 299.039C513.971 299.039 512.672 300.338 512.672 301.941C512.672 303.543 513.971 304.842 515.573 304.842Z" fill="#0C5FC3"/>
<path d="M269.311 298.594C280.092 341.812 273.309 459.23 261.914 511.523C247.481 577.716 193.542 581.325 142.969 589.453C92.3951 597.581 53.878 589.983 39.8437 546.009C-14.0204 377.287 105.469 251.864 163.383 227.606C207.394 209.18 250.27 222.37 269.311 298.594Z" fill="#FF5761"/>
<path d="M332.034 298.594C321.253 341.812 327.501 436.477 338.897 488.77C353.33 554.962 408.811 576.562 459.764 584.737C510.337 592.866 547.448 589.983 561.483 546.009C615.347 377.287 495.858 251.864 437.944 227.606C393.951 209.18 351.094 222.37 332.034 298.594Z" fill="#FF5761"/>
<path d="M307.917 244.299C307.204 242.975 306.146 241.868 304.854 241.097C303.563 240.325 302.086 239.918 300.582 239.918C299.077 239.918 297.6 240.325 296.309 241.097C295.017 241.868 293.959 242.975 293.247 244.299C275.184 278.204 234.352 319.138 219.515 331.072C214.168 335.364 214.361 345.007 215.715 348.077C219.656 356.535 224.989 364.271 231.494 370.964C233.619 372.752 235.055 375.223 235.557 377.953C236.058 380.683 235.594 383.502 234.243 385.928C232.892 388.353 230.739 390.234 228.153 391.247C225.567 392.26 222.708 392.343 220.067 391.482C212.968 389.24 206.462 385.434 201.032 380.345C199.087 378.589 196.53 377.668 193.912 377.779C191.294 377.89 188.824 379.026 187.037 380.94C181.469 387.132 176.229 393.609 171.337 400.345C170.578 401.365 170.037 402.53 169.747 403.767C169.456 405.004 169.423 406.287 169.649 407.537C169.875 408.788 170.355 409.978 171.06 411.036C171.765 412.093 172.68 412.995 173.747 413.685C180.643 417.744 186.666 423.127 191.468 429.525C192.802 431.663 193.473 434.147 193.395 436.665C193.317 439.182 192.494 441.62 191.03 443.671C189.141 446.381 186.27 448.249 183.025 448.879C179.781 449.51 176.418 448.853 173.651 447.047C168.058 443.832 162.246 441.012 156.259 438.608C154.507 437.839 152.535 437.733 150.71 438.309C148.885 438.885 147.332 440.104 146.34 441.74C140.112 452 130.386 467.933 127.173 472.496C125.617 475.196 123.178 477.279 120.267 478.396C117.355 479.512 114.148 479.594 111.184 478.627C108.009 477.421 105.433 475.02 104.008 471.938C102.583 468.857 102.423 465.341 103.562 462.143C103.873 461.329 107.068 452.123 109.847 444.985C110.021 444.531 110.091 444.045 110.052 443.561C110.013 443.077 109.867 442.608 109.623 442.188C109.379 441.768 109.044 441.408 108.643 441.134C108.242 440.86 107.785 440.68 107.305 440.605C96.8073 438.954 91.1225 437.732 85.6744 433.865C83.5479 432.311 82.0056 430.088 81.295 427.553C80.5844 425.018 80.7467 422.318 81.756 419.886L81.8568 419.641C82.9225 416.969 84.915 414.769 87.4702 413.444C90.0254 412.119 92.9725 411.757 95.7729 412.424C103.226 414.03 110.797 415.03 118.411 415.415C120.094 415.524 121.775 415.17 123.27 414.39C124.765 413.61 126.016 412.434 126.888 410.992C130.149 405.601 133.682 399.816 136.846 393.934C138.497 390.911 138.968 387.383 138.168 384.033C137.369 380.683 135.355 377.748 132.516 375.795C124.226 370.166 114.343 367.351 104.329 367.767C102.73 367.795 101.141 367.502 99.6574 366.907C98.1733 366.312 96.8235 365.426 95.6872 364.302C94.5509 363.178 93.6513 361.838 93.0412 360.361C92.4312 358.884 92.1231 357.3 92.135 355.702V355.387C92.1929 352.157 93.4084 349.055 95.5605 346.644C97.7127 344.233 100.659 342.673 103.864 342.248C119.207 340.143 134.82 343.079 148.348 350.613C151.234 352.097 154.552 352.516 157.717 351.795C160.882 351.074 163.69 349.259 165.647 346.672C166.651 345.358 167.668 344.044 168.654 342.796C170.776 340.092 171.808 336.693 171.547 333.267C171.287 329.841 169.753 326.637 167.247 324.284C158.209 315.744 149.654 305.672 146.546 294.855C145.847 292.197 146.151 289.375 147.402 286.927C148.653 284.479 150.762 282.578 153.327 281.585C155.512 280.785 157.885 280.649 160.147 281.194C162.409 281.74 164.459 282.943 166.037 284.651C170.829 291.13 176.584 296.838 183.105 301.577C185.825 303.3 189.012 304.14 192.229 303.984C195.446 303.827 198.536 302.68 201.076 300.701C218.822 285.745 258.883 255.773 270.047 196.524C279.449 146.63 273.067 72.1011 271.112 25.3379C271.022 23.2752 271.351 21.2157 272.079 19.2834C272.807 17.3511 273.919 15.586 275.348 14.0945C276.777 12.603 278.493 11.416 280.393 10.6049C282.293 9.79377 284.338 9.37541 286.405 9.375H314.758C316.825 9.37541 318.87 9.79377 320.77 10.6049C322.67 11.416 324.387 12.603 325.815 14.0945C327.244 15.586 328.356 17.3511 329.084 19.2834C329.812 21.2157 330.141 23.2752 330.051 25.3379C328.096 72.1011 321.723 146.647 331.116 196.524C342.28 255.773 382.354 285.745 400.088 300.662C402.627 302.641 405.717 303.787 408.934 303.944C412.151 304.101 415.338 303.26 418.058 301.538C424.577 296.811 430.334 291.116 435.13 284.651C436.709 282.943 438.759 281.74 441.021 281.194C443.283 280.649 445.656 280.785 447.841 281.585C450.405 282.579 452.513 284.482 453.762 286.931C455.011 289.379 455.314 292.202 454.613 294.859C451.514 305.654 442.958 315.727 433.925 324.271C431.419 326.624 429.885 329.828 429.624 333.254C429.364 336.68 430.396 340.079 432.518 342.783C433.504 344.04 434.521 345.345 435.525 346.658C437.482 349.246 440.29 351.06 443.455 351.781C446.62 352.503 449.938 352.084 452.824 350.6C466.352 343.066 481.965 340.13 497.308 342.235C500.513 342.66 503.459 344.22 505.611 346.631C507.764 349.041 508.979 352.144 509.037 355.374V355.689C509.049 357.287 508.741 358.871 508.131 360.348C507.521 361.824 506.621 363.165 505.485 364.289C504.348 365.413 502.999 366.299 501.514 366.894C500.03 367.489 498.442 367.782 496.843 367.754C486.829 367.338 476.946 370.152 468.656 375.781C465.817 377.735 463.803 380.67 463.003 384.02C462.204 387.37 462.675 390.897 464.325 393.921C467.49 399.802 471.023 405.588 474.284 410.979C475.156 412.421 476.407 413.597 477.902 414.377C479.397 415.157 481.078 415.511 482.761 415.402C490.375 415.017 497.946 414.016 505.399 412.411C508.199 411.744 511.146 412.106 513.702 413.431C516.257 414.756 518.249 416.956 519.315 419.628L519.416 419.873C520.425 422.305 520.588 425.005 519.877 427.54C519.166 430.075 517.624 432.298 515.497 433.852C510.049 437.719 504.365 438.941 493.867 440.592C493.387 440.667 492.931 440.848 492.53 441.123C492.129 441.397 491.795 441.757 491.551 442.176C491.308 442.596 491.161 443.065 491.122 443.548C491.083 444.032 491.152 444.518 491.325 444.972C494.113 452.11 497.303 461.315 497.61 462.13C498.749 465.328 498.589 468.844 497.164 471.925C495.739 475.007 493.163 477.408 489.988 478.614C487.024 479.581 483.816 479.499 480.905 478.382C477.994 477.266 475.555 475.183 473.999 472.483C470.786 467.92 461.06 451.987 454.832 441.726C453.84 440.091 452.287 438.872 450.462 438.296C448.637 437.72 446.665 437.826 444.913 438.595C438.926 440.999 433.114 443.819 427.521 447.034C424.753 448.839 421.391 449.497 418.147 448.866C414.902 448.236 412.031 446.368 410.142 443.658C408.678 441.607 407.855 439.169 407.777 436.651C407.699 434.134 408.37 431.649 409.704 429.512C414.506 423.114 420.528 417.73 427.425 413.672C428.492 412.982 429.407 412.08 430.112 411.023C430.816 409.965 431.297 408.774 431.523 407.524C431.749 406.274 431.715 404.99 431.425 403.753C431.135 402.516 430.594 401.352 429.835 400.332C424.943 393.596 419.703 387.118 414.135 380.927C412.347 379.013 409.878 377.877 407.26 377.766C404.642 377.654 402.084 378.576 400.14 380.332C394.71 385.421 388.204 389.227 381.105 391.468C378.455 392.362 375.576 392.3 372.967 391.293C370.358 390.287 368.184 388.4 366.823 385.959C365.461 383.519 364.998 380.679 365.513 377.933C366.028 375.186 367.489 372.707 369.643 370.925C376.147 364.232 381.481 356.495 385.422 348.038C386.776 344.972 386.969 335.338 381.622 331.033C366.812 319.138 325.979 278.204 307.917 244.299Z" fill="#FFC8CB"/>
<path d="M446.311 50.7093C444.898 51.8296 443.809 53.3059 443.155 54.9865C442.502 56.6672 442.308 58.4914 442.594 60.2718C442.916 61.7557 443.598 63.1378 444.579 64.2973C445.559 65.4569 446.809 66.3585 448.219 66.9234C448.694 67.1061 449.122 67.3962 449.467 67.771C449.813 68.1457 450.067 68.5952 450.211 69.0843L452.376 76.8047C452.786 78.2356 452.771 79.7545 452.334 81.1773C451.897 82.6 451.057 83.8655 449.915 84.8203C448.368 86.0958 446.921 87.489 445.589 88.9875C442.693 92.2505 440.355 95.9693 438.67 99.9937C438.08 101.387 437.091 102.574 435.829 103.408C434.567 104.242 433.086 104.685 431.573 104.681H423.511C423.066 104.678 422.629 104.573 422.232 104.373C421.835 104.173 421.49 103.884 421.223 103.528C420.146 102.127 418.642 101.115 416.938 100.646C415.235 100.177 413.424 100.276 411.782 100.927C410.139 101.579 408.754 102.748 407.835 104.258C406.917 105.768 406.516 107.535 406.692 109.294C406.814 110.777 407.353 112.195 408.248 113.385C409.142 114.574 410.354 115.486 411.745 116.016C413.096 116.553 414.566 116.72 416.003 116.5C417.439 116.28 418.792 115.681 419.92 114.764C420.259 114.486 420.657 114.29 421.084 114.194C421.512 114.097 421.956 114.101 422.381 114.206L430.261 116.123C431.72 116.471 433.046 117.238 434.075 118.33C435.104 119.422 435.79 120.791 436.05 122.269C436.986 127.865 439.101 133.199 442.256 137.916C443.102 139.202 443.541 140.712 443.518 142.251C443.494 143.789 443.009 145.286 442.125 146.545L439.851 149.827C439.503 150.322 439.045 150.729 438.514 151.018C437.982 151.307 437.39 151.468 436.786 151.491C434.588 151.59 432.47 152.343 430.702 153.653C428.934 154.962 427.597 156.769 426.861 158.843C426.126 160.916 426.025 163.162 426.572 165.293C427.119 167.424 428.289 169.343 429.933 170.806C431.577 172.268 433.619 173.208 435.799 173.504C437.979 173.8 440.198 173.439 442.172 172.467C444.146 171.496 445.785 169.958 446.881 168.05C447.976 166.142 448.478 163.951 448.322 161.756C448.267 161.147 448.355 160.534 448.578 159.965C448.801 159.395 449.153 158.885 449.606 158.475L453.876 154.697C454.961 153.76 456.279 153.135 457.69 152.887C459.101 152.64 460.553 152.779 461.892 153.291C467.797 155.443 474.124 156.18 480.365 155.442C481.82 155.293 483.287 155.56 484.596 156.213C485.904 156.865 487.001 157.875 487.758 159.127L492.558 166.842C492.795 167.22 492.941 167.648 492.985 168.092C493.029 168.536 492.969 168.984 492.811 169.402C492.158 171.095 492.076 172.955 492.578 174.699C493.08 176.443 494.139 177.975 495.593 179.061C497.047 180.148 498.816 180.729 500.631 180.716C502.445 180.704 504.206 180.098 505.645 178.992C506.868 178.085 507.81 176.851 508.363 175.432C508.915 174.013 509.055 172.467 508.767 170.972C508.507 169.507 507.86 168.139 506.893 167.008C505.926 165.877 504.675 165.025 503.269 164.541C502.846 164.393 502.462 164.151 502.148 163.831C501.835 163.512 501.599 163.124 501.459 162.698L498.881 154.809C498.395 153.34 498.362 151.759 498.787 150.271C499.211 148.783 500.074 147.457 501.262 146.466C502.828 145.177 504.288 143.766 505.631 142.247C508.5 139.016 510.821 135.338 512.503 131.358C513.091 129.995 514.062 128.833 515.297 128.011C516.533 127.189 517.98 126.743 519.464 126.727L527.573 126.586C528.057 126.58 528.535 126.686 528.971 126.896C529.407 127.106 529.789 127.414 530.086 127.795C531.28 129.304 532.934 130.383 534.797 130.866C536.66 131.35 538.629 131.212 540.407 130.475C542.184 129.737 543.673 128.44 544.646 126.779C545.619 125.119 546.023 123.186 545.798 121.275C545.504 119.585 544.764 118.003 543.655 116.694C542.546 115.385 541.108 114.395 539.489 113.827C538.09 113.42 536.612 113.365 535.187 113.667C533.762 113.969 532.433 114.618 531.319 115.556C530.955 115.864 530.524 116.082 530.061 116.194C529.598 116.307 529.116 116.31 528.651 116.203L520.997 114.464C519.539 114.151 518.205 113.417 517.16 112.353C516.115 111.289 515.405 109.941 515.119 108.478C514.275 103.796 512.603 99.3027 510.183 95.2078C509.417 93.965 509.027 92.528 509.058 91.069C509.088 89.6099 509.539 88.1906 510.356 86.9812L516.919 77.5078C517.212 77.0893 517.598 76.7445 518.047 76.5005C518.496 76.2565 518.995 76.1199 519.506 76.1015C521.069 76.0343 522.591 75.583 523.937 74.7874C525.284 73.9919 526.413 72.8767 527.226 71.5406C528.097 69.9145 528.518 68.0859 528.447 66.243C528.376 64.4 527.816 62.6092 526.823 61.0547C525.613 59.3786 523.889 58.1428 521.913 57.5346C519.937 56.9264 517.817 56.979 515.873 57.6844C513.93 58.3898 512.269 59.7095 511.143 61.4436C510.018 63.1776 509.488 65.2314 509.634 67.2937C509.68 67.8162 509.604 68.3422 509.412 68.8303C509.22 69.3184 508.918 69.7552 508.528 70.1062L500.058 77.6062C498.968 78.5876 497.619 79.2356 496.171 79.4733C494.724 79.7109 493.239 79.5282 491.892 78.9468C485.546 76.1374 478.581 75.0214 471.675 75.7078C470.192 75.8461 468.701 75.5507 467.383 74.8575C466.065 74.1643 464.976 73.1032 464.25 71.8031L460.326 64.8656C460.079 64.4219 459.938 63.9267 459.914 63.4191C459.89 62.9115 459.985 62.4054 460.19 61.9406C460.986 60.0814 461.154 58.0133 460.668 56.0502C460.181 54.0872 459.068 52.3364 457.496 51.0637C455.924 49.7911 453.98 49.066 451.959 48.9987C449.938 48.9313 447.95 49.5254 446.297 50.6906L446.311 50.7093Z" fill="#49B340"/>
<path d="M469.547 141.722C473.526 141.722 476.752 138.496 476.752 134.517C476.752 130.538 473.526 127.312 469.547 127.312C465.568 127.312 462.342 130.538 462.342 134.517C462.342 138.496 465.568 141.722 469.547 141.722Z" fill="#86D37F"/>
<path d="M455.377 111.647C458.595 111.647 461.203 109.038 461.203 105.82C461.203 102.602 458.595 99.9937 455.377 99.9937C452.159 99.9937 449.55 102.602 449.55 105.82C449.55 109.038 452.159 111.647 455.377 111.647Z" fill="#86D37F"/>
<path d="M494.92 103.34C497.737 103.34 500.02 101.057 500.02 98.2405C500.02 95.4238 497.737 93.1405 494.92 93.1405C492.104 93.1405 489.82 95.4238 489.82 98.2405C489.82 101.057 492.104 103.34 494.92 103.34Z" fill="#86D37F"/>
<path d="M477.543 114.98C479.835 114.98 481.692 113.122 481.692 110.831C481.692 108.54 479.835 106.683 477.543 106.683C475.252 106.683 473.395 108.54 473.395 110.831C473.395 113.122 475.252 114.98 477.543 114.98Z" fill="#86D37F"/>
<path d="M496.496 131.419C498.73 131.419 500.541 129.607 500.541 127.373C500.541 125.139 498.73 123.328 496.496 123.328C494.261 123.328 492.45 125.139 492.45 127.373C492.45 129.607 494.261 131.419 496.496 131.419Z" fill="#86D37F"/>
<path d="M226.862 172.303C225.593 169.773 223.673 167.626 221.299 166.084C218.926 164.542 216.185 163.659 213.357 163.528C210.972 163.549 208.629 164.155 206.532 165.291C204.435 166.428 202.649 168.061 201.329 170.048C200.896 170.721 200.313 171.285 199.626 171.697C198.939 172.108 198.166 172.356 197.368 172.42L184.815 173.273C182.486 173.444 180.157 172.935 178.111 171.808C176.065 170.682 174.39 168.986 173.288 166.926C171.825 164.143 170.146 161.479 168.268 158.957C164.184 153.457 159.217 148.672 153.568 144.796C151.625 143.44 150.124 141.541 149.252 139.337C148.381 137.133 148.179 134.721 148.67 132.403L151.229 120.009C151.374 119.326 151.676 118.686 152.11 118.14C152.544 117.593 153.1 117.155 153.732 116.859C156.232 115.651 158.269 113.662 159.536 111.192C160.804 108.723 161.231 105.907 160.754 103.172C160.277 100.438 158.922 97.9333 156.893 96.0383C154.865 94.1434 152.274 92.9614 149.513 92.6714C147.194 92.385 144.841 92.7613 142.726 93.7568C140.612 94.7523 138.822 96.3262 137.565 98.2964C136.308 100.199 135.581 102.403 135.46 104.681C135.339 106.958 135.828 109.227 136.876 111.253C137.193 111.863 137.365 112.539 137.377 113.227C137.389 113.915 137.242 114.597 136.946 115.218L131.471 126.707C130.472 128.841 128.87 130.635 126.862 131.867C124.854 133.099 122.529 133.716 120.174 133.64C111.275 133.284 102.401 134.827 94.1446 138.168C91.8975 139.055 89.436 139.246 87.079 138.717C84.722 138.188 82.5784 136.963 80.9258 135.201L76.604 130.65C75.9548 129.958 75.4748 129.125 75.2015 128.217C74.9283 127.308 74.8692 126.349 75.029 125.414C75.5742 122.009 75.0925 118.52 73.6454 115.391C72.1983 112.262 69.8515 109.635 66.9046 107.846C63.9577 106.056 60.5444 105.186 57.1006 105.346C53.6567 105.505 50.3386 106.688 47.5698 108.742C44.801 110.796 42.7072 113.628 41.5557 116.878C40.4042 120.128 40.2473 123.647 41.105 126.986C41.9627 130.325 43.7961 133.333 46.3711 135.625C48.9461 137.917 52.1458 139.39 55.5618 139.856C56.5079 139.97 57.4147 140.302 58.2115 140.825C59.0084 141.348 59.6737 142.048 60.1555 142.87L64.5946 150.642C65.6847 152.608 66.2215 154.834 66.148 157.081C66.0746 159.329 65.3936 161.514 64.1774 163.406C58.9797 171.79 55.8231 181.277 54.9618 191.104C54.7179 193.379 53.8367 195.539 52.4194 197.335C51.0022 199.131 49.1066 200.491 46.9508 201.257L33.5586 206.165C32.9008 206.407 32.1958 206.494 31.4989 206.418C30.802 206.343 30.132 206.107 29.5415 205.729C27.1471 204.176 24.3098 203.45 21.4637 203.662C18.6176 203.874 15.9193 205.013 13.7816 206.904C11.644 208.795 10.1846 211.334 9.62685 214.133C9.06907 216.932 9.44355 219.837 10.693 222.403C11.6925 224.574 13.2866 226.419 15.2909 227.722C17.2951 229.025 19.6275 229.734 22.018 229.767C24.3512 229.834 26.6602 229.278 28.7069 228.156C30.7536 227.033 32.464 225.386 33.6618 223.382C34.022 222.777 34.5176 222.264 35.1097 221.882C35.7018 221.501 36.3742 221.262 37.0743 221.184L50.0211 219.75C52.4341 219.473 54.8744 219.93 57.024 221.06C59.1737 222.191 60.933 223.942 62.0727 226.087C63.5522 228.892 65.2463 231.578 67.1399 234.121C71.1849 239.569 76.0934 244.32 81.6712 248.184C83.5773 249.525 85.0536 251.39 85.9214 253.553C86.7891 255.716 87.011 258.085 86.5602 260.371L84.1836 272.882C84.0358 273.627 83.7177 274.327 83.2542 274.928C82.7906 275.529 82.1943 276.014 81.5118 276.346C78.8074 277.698 76.6182 279.896 75.2769 282.606C73.9355 285.316 73.5154 288.389 74.0803 291.359C74.6452 294.33 76.1642 297.034 78.4066 299.063C80.6489 301.091 83.4921 302.332 86.504 302.596C89.1962 302.682 91.8628 302.05 94.2297 300.764C96.5965 299.478 98.5782 297.585 99.9711 295.279C101.047 293.258 101.606 291.001 101.598 288.711C101.591 286.421 101.017 284.169 99.929 282.154C99.5741 281.495 99.3767 280.763 99.3523 280.014C99.3279 279.266 99.4771 278.523 99.7883 277.842L104.907 266.643C105.857 264.502 107.414 262.687 109.385 261.421C111.357 260.156 113.655 259.496 115.998 259.523C123.463 259.724 130.904 258.593 137.973 256.185C140.127 255.409 142.46 255.269 144.692 255.785C146.923 256.3 148.959 257.449 150.554 259.092L162.999 272.217C163.553 272.8 163.965 273.505 164.2 274.274C164.436 275.044 164.49 275.857 164.359 276.651C163.96 279.074 164.165 281.558 164.956 283.882C165.747 286.207 167.098 288.3 168.891 289.978C171.112 291.835 173.787 293.067 176.642 293.547C179.497 294.028 182.428 293.739 185.134 292.71C188.098 291.389 190.551 289.137 192.12 286.295C193.689 283.453 194.288 280.178 193.826 276.965C193.364 273.752 191.867 270.777 189.561 268.492C187.256 266.207 184.268 264.737 181.051 264.304C180.241 264.203 179.465 263.917 178.784 263.467C178.103 263.017 177.534 262.417 177.123 261.712L168.287 246.309C167.126 244.32 166.56 242.039 166.658 239.738C166.757 237.437 167.514 235.212 168.84 233.329C175.191 224.477 179.137 214.129 180.291 203.296C180.556 200.973 181.488 198.777 182.976 196.973C184.463 195.169 186.442 193.835 188.673 193.134L200.593 189.332C201.354 189.094 202.16 189.036 202.947 189.162C203.734 189.288 204.482 189.595 205.131 190.059C207.733 191.875 210.856 192.793 214.027 192.673C217.198 192.554 220.243 191.403 222.701 189.396C225.159 187.389 226.895 184.635 227.646 181.552C228.397 178.468 228.121 175.225 226.862 172.312V172.303Z" fill="#49B340"/>
<path d="M124.477 207.553C128.073 207.553 130.988 204.638 130.988 201.042C130.988 197.446 128.073 194.531 124.477 194.531C120.881 194.531 117.966 197.446 117.966 201.042C117.966 204.638 120.881 207.553 124.477 207.553Z" fill="#86D37F"/>
<path d="M90.6383 192.477C96.8826 192.477 101.945 187.416 101.945 181.171C101.945 174.927 96.8826 169.865 90.6383 169.865C84.394 169.865 79.332 174.927 79.332 181.171C79.332 187.416 84.394 192.477 90.6383 192.477Z" fill="#86D37F"/>
<path d="M139.271 177.731C144.322 177.731 148.416 173.636 148.416 168.585C148.416 163.535 144.322 159.44 139.271 159.44C134.22 159.44 130.125 163.535 130.125 168.585C130.125 173.636 134.22 177.731 139.271 177.731Z" fill="#86D37F"/>
<path d="M138.259 239.774C142.678 239.774 146.26 236.192 146.26 231.773C146.26 227.354 142.678 223.771 138.259 223.771C133.84 223.771 130.257 227.354 130.257 231.773C130.257 236.192 133.84 239.774 138.259 239.774Z" fill="#86D37F"/>
<path d="M92.9868 231.215C96.4947 231.215 99.3384 228.371 99.3384 224.864C99.3384 221.356 96.4947 218.512 92.9868 218.512C89.4789 218.512 86.6353 221.356 86.6353 224.864C86.6353 228.371 89.4789 231.215 92.9868 231.215Z" fill="#86D37F"/>
<path d="M407.026 537.689C406.932 536.4 406.497 535.16 405.764 534.095C405.032 533.031 404.029 532.181 402.859 531.633C401.848 531.225 400.753 531.072 399.67 531.185C398.586 531.299 397.547 531.676 396.643 532.284C396.344 532.494 396.001 532.632 395.639 532.685C395.278 532.739 394.909 532.708 394.562 532.593L389.11 530.765C388.099 530.43 387.207 529.809 386.541 528.977C385.876 528.145 385.466 527.138 385.36 526.078C385.227 524.647 384.984 523.229 384.634 521.836C383.864 518.8 382.597 515.912 380.884 513.29C380.298 512.378 379.995 511.313 380.012 510.229C380.03 509.144 380.367 508.09 380.982 507.197L384.226 502.411C384.406 502.149 384.645 501.932 384.923 501.777C385.201 501.623 385.511 501.535 385.829 501.52C387.093 501.445 388.298 500.961 389.263 500.14C390.227 499.32 390.899 498.207 391.175 496.972C391.451 495.736 391.318 494.444 390.795 493.291C390.272 492.137 389.388 491.186 388.276 490.579C387.347 490.055 386.289 489.803 385.223 489.854C384.157 489.904 383.128 490.255 382.252 490.865C381.39 491.449 380.699 492.253 380.251 493.193C379.803 494.133 379.613 495.176 379.702 496.214C379.729 496.527 379.683 496.843 379.567 497.135C379.452 497.428 379.27 497.69 379.037 497.901L374.724 501.797C373.928 502.52 372.937 502.994 371.874 503.161C370.811 503.327 369.723 503.179 368.743 502.734C365.048 501.034 361.035 500.138 356.968 500.104C355.865 500.088 354.792 499.74 353.889 499.105C352.986 498.471 352.295 497.579 351.906 496.547L350.879 493.875C350.726 493.469 350.668 493.033 350.711 492.601C350.754 492.169 350.897 491.753 351.127 491.386C351.954 490.043 352.362 488.483 352.298 486.907C352.234 485.331 351.702 483.81 350.769 482.538C349.837 481.266 348.546 480.301 347.062 479.767C345.579 479.232 343.969 479.152 342.439 479.536C340.91 479.921 339.53 480.753 338.475 481.926C337.421 483.099 336.74 484.559 336.52 486.121C336.3 487.683 336.55 489.275 337.239 490.693C337.928 492.112 339.025 493.293 340.388 494.086C340.767 494.299 341.092 494.598 341.336 494.959C341.58 495.319 341.737 495.731 341.795 496.162L342.31 500.212C342.429 501.232 342.268 502.266 341.845 503.202C341.423 504.138 340.754 504.942 339.91 505.528C336.253 508.159 333.265 511.613 331.187 515.611C330.688 516.531 329.94 517.291 329.027 517.804C328.115 518.317 327.076 518.56 326.031 518.508L319.52 518.24C319.2 518.229 318.888 518.143 318.607 517.99C318.327 517.837 318.085 517.621 317.902 517.359C317.161 516.29 316.09 515.492 314.853 515.087C313.616 514.683 312.281 514.694 311.051 515.118C309.821 515.543 308.763 516.358 308.039 517.44C307.316 518.521 306.965 519.81 307.042 521.109C307.085 522.2 307.437 523.256 308.055 524.155C308.674 525.054 309.535 525.76 310.538 526.19C311.511 526.626 312.583 526.795 313.642 526.679C314.702 526.563 315.711 526.166 316.567 525.529C316.824 525.337 317.123 525.206 317.439 525.148C317.756 525.091 318.081 525.107 318.39 525.197L324.104 526.851C325.171 527.155 326.122 527.773 326.832 528.625C327.542 529.477 327.978 530.524 328.084 531.628C328.218 533.073 328.464 534.505 328.82 535.912C329.576 538.916 330.819 541.776 332.499 544.378C333.07 545.275 333.367 546.319 333.356 547.382C333.346 548.445 333.027 549.483 332.438 550.368L329.251 555.234C329.059 555.523 328.804 555.763 328.503 555.937C328.203 556.11 327.867 556.211 327.521 556.233C326.147 556.335 324.843 556.882 323.807 557.791C322.772 558.701 322.06 559.923 321.781 561.273C321.502 562.622 321.67 564.026 322.26 565.272C322.85 566.518 323.83 567.537 325.051 568.176C326.173 568.686 327.412 568.887 328.638 568.758C329.864 568.63 331.034 568.176 332.026 567.445C332.83 566.779 333.458 565.925 333.853 564.959C334.248 563.992 334.398 562.943 334.29 561.904C334.256 561.565 334.3 561.222 334.421 560.902C334.541 560.582 334.734 560.295 334.984 560.062L339.099 556.228C339.874 555.491 340.847 554.996 341.899 554.807C342.952 554.617 344.036 554.739 345.02 555.159C348.131 556.544 351.464 557.364 354.863 557.583C355.908 557.631 356.917 557.979 357.77 558.586C358.622 559.193 359.281 560.033 359.668 561.004L362.631 568.725C362.762 569.068 362.812 569.437 362.777 569.803C362.742 570.169 362.623 570.522 362.429 570.834C361.842 571.786 361.498 572.867 361.428 573.983C361.358 575.099 361.563 576.215 362.026 577.233C362.64 578.404 363.554 579.39 364.675 580.091C365.797 580.792 367.084 581.182 368.406 581.222C369.887 581.179 371.314 580.656 372.47 579.73C373.627 578.804 374.45 577.526 374.816 576.09C375.182 574.655 375.069 573.139 374.496 571.773C373.923 570.406 372.92 569.264 371.64 568.518C371.315 568.335 371.036 568.079 370.827 567.77C370.617 567.461 370.481 567.107 370.431 566.737L369.395 558.689C369.255 557.65 369.416 556.592 369.859 555.642C370.302 554.691 371.008 553.888 371.893 553.326C376.117 550.698 379.586 547.019 381.962 542.648C382.481 541.716 383.258 540.954 384.201 540.455C385.143 539.956 386.21 539.741 387.273 539.836L392.968 540.304C393.331 540.335 393.682 540.451 393.993 540.641C394.304 540.832 394.566 541.092 394.759 541.401C395.539 542.625 396.698 543.56 398.06 544.065C399.421 544.569 400.91 544.614 402.299 544.193C403.688 543.773 404.902 542.91 405.756 541.735C406.609 540.561 407.055 539.14 407.026 537.689Z" fill="#49B340"/>
<path d="M347.982 522.83C350.835 522.83 353.148 520.517 353.148 517.664C353.148 514.811 350.835 512.498 347.982 512.498C345.129 512.498 342.816 514.811 342.816 517.664C342.816 520.517 345.129 522.83 347.982 522.83Z" fill="#86D37F"/>
<path d="M370.707 525.019C373.013 525.019 374.883 523.149 374.883 520.842C374.883 518.535 373.013 516.666 370.707 516.666C368.4 516.666 366.53 518.535 366.53 520.842C366.53 523.149 368.4 525.019 370.707 525.019Z" fill="#86D37F"/>
<path d="M359.25 550.987C361.27 550.987 362.907 549.35 362.907 547.331C362.907 545.312 361.27 543.675 359.25 543.675C357.231 543.675 355.594 545.312 355.594 547.331C355.594 549.35 357.231 550.987 359.25 550.987Z" fill="#86D37F"/>
<path d="M358.796 534.928C360.437 534.928 361.768 533.598 361.768 531.956C361.768 530.315 360.437 528.984 358.796 528.984C357.155 528.984 355.824 530.315 355.824 531.956C355.824 533.598 357.155 534.928 358.796 534.928Z" fill="#86D37F"/>
<path d="M341.349 539.419C342.952 539.419 344.251 538.12 344.251 536.517C344.251 534.915 342.952 533.615 341.349 533.615C339.747 533.615 338.448 534.915 338.448 536.517C338.448 538.12 339.747 539.419 341.349 539.419Z" fill="#86D37F"/>
</svg>
