<svg width="40" height="40" viewBox="0 0 40 40" fill="none" xmlns="http://www.w3.org/2000/svg">
<path d="M23.8889 2.5V10.2778C23.8889 10.7935 24.0938 11.2881 24.4584 11.6527C24.8231 12.0174 25.3176 12.2222 25.8333 12.2222H33.6111" fill="#4196FD"/>
<path d="M29.7222 37.5H10.2778C9.24638 37.5 8.25723 37.0903 7.52792 36.361C6.79861 35.6317 6.38889 34.6425 6.38889 33.6111V6.38889C6.38889 5.35749 6.79861 4.36834 7.52792 3.63903C8.25723 2.90972 9.24638 2.5 10.2778 2.5H23.8889L33.6111 12.2222V33.6111C33.6111 34.6425 33.2014 35.6317 32.4721 36.361C31.7428 37.0903 30.7536 37.5 29.7222 37.5Z" fill="#4196FD"/>
<path d="M23.8889 2.5V10.2778C23.8889 10.7935 24.0938 11.2881 24.4584 11.6527C24.8231 12.0174 25.3177 12.2222 25.8334 12.2222H33.6111" fill="#8DC8FF"/>
<path d="M12.2222 18.0557H20" stroke="white" stroke-width="1.94444" stroke-linecap="round"/>
<path d="M12.2222 23.8896H25.8333" stroke="white" stroke-width="1.94444" stroke-linecap="round"/>
<path d="M12.2222 29.7227H29.7222" stroke="white" stroke-width="1.94444" stroke-linecap="round"/>
</svg>
