<svg width="353" height="220" viewBox="0 0 353 220" fill="none" xmlns="http://www.w3.org/2000/svg">
<g filter="url(#filter0_b_1131_32288)">
<g clip-path="url(#clip0_1131_32288)">
<rect width="353" height="220" rx="14" fill="#4196FD"/>
<mask id="mask0_1131_32288" style="mask-type:alpha" maskUnits="userSpaceOnUse" x="0" y="0" width="160" height="220">
<rect width="160" height="220" rx="14" fill="#4196FD"/>
<rect width="160" height="220" rx="14" fill="url(#paint0_linear_1131_32288)" fill-opacity="0.3"/>
</mask>
<g mask="url(#mask0_1131_32288)">
<g opacity="0.3">
<path d="M67.4871 41.2334C69.9979 46.4756 65.9144 56.6965 57.9889 60.4925C50.0634 64.2885 40.4228 60.641 37.912 55.3989C35.4012 50.1567 39.7806 42.8197 47.7061 39.0236C55.6316 35.2276 64.9667 35.9712 67.4871 41.2334Z" fill="white"/>
<path d="M57.1725 41.9413C57.0641 42.436 56.9749 42.9707 57.1255 43.4397C57.3145 43.9888 57.8044 44.3937 58.2551 44.7682C60.2655 46.3389 62.384 47.9808 64.892 48.4276C68.6489 49.1127 72.6394 46.7832 74.2538 43.3041C74.4092 42.9591 74.535 42.6037 74.5317 42.2363C74.491 41.7392 74.1606 41.3071 73.9402 40.8469C73.3068 39.576 73.4638 38.0495 72.9804 36.7313C71.7385 33.3659 66.9697 31.4436 63.7204 32.385C59.9216 33.4665 57.9933 38.3504 57.1725 41.9413Z" fill="white"/>
<path d="M62.3699 31.1133C62.1363 30.8316 61.873 30.5395 61.5373 30.4051C61.1423 30.2499 60.7027 30.3621 60.2736 30.4446C58.4758 30.8629 56.6074 31.3396 55.2131 32.5486C53.1216 34.3621 52.6542 37.6608 53.9027 40.113C54.0177 40.3531 54.1623 40.6036 54.3785 40.746C54.6732 40.9493 55.0709 40.9556 55.4276 41.0307C56.4183 41.245 57.2298 42.0124 58.1986 42.3355C60.6603 43.1489 63.8961 41.3039 64.8418 39.0553C65.9438 36.412 64.0338 33.1451 62.3804 31.0836L62.3699 31.1133Z" fill="white"/>
<path d="M42.7547 36.868C42.498 37.3107 42.2309 37.783 42.2219 38.2793C42.2111 38.8748 42.5492 39.4262 42.8786 39.908C44.2817 42.0648 45.7623 44.332 48.0171 45.5889C51.3939 47.4891 55.9758 46.549 58.6321 43.7516C58.8956 43.4778 59.1496 43.184 59.2457 42.8182C59.3742 42.3139 59.2044 41.8048 59.134 41.2974C58.9507 39.8847 59.603 38.4654 59.5592 37.035C59.4957 33.4003 55.5492 30.0019 52.1409 29.8386C48.1466 29.6363 44.7021 33.6722 42.7451 36.848L42.7547 36.868Z" fill="white"/>
<path d="M39.4257 34.4035C38.946 34.5349 38.4356 34.7055 38.091 35.0674C37.6756 35.4877 37.5549 36.1113 37.4648 36.6956C37.0117 39.2002 36.5664 41.8242 37.3579 44.2492C38.5256 47.8717 42.4403 50.2768 46.2439 50.0293C46.6024 50.0052 47.001 49.9619 47.3028 49.7681C47.7356 49.487 47.953 49.0139 48.2489 48.6016C49.0754 47.4432 50.4781 46.8697 51.4223 45.8025C53.8178 43.1301 53.2536 38.0379 50.9201 35.638C48.1865 32.8148 43.0038 33.4276 39.4554 34.4139L39.4257 34.4035Z" fill="white"/>
<path d="M42.4739 38.0354C42.1025 37.6721 41.691 37.328 41.1861 37.2009C40.6019 37.0626 40.0113 37.2716 39.4408 37.4711C37.0079 38.3658 34.4843 39.3285 32.7389 41.2468C30.1411 44.1146 30.0366 48.7891 32.1865 51.9903C32.3896 52.3112 32.6327 52.6129 32.9675 52.7969C33.4305 53.0425 33.9687 52.9816 34.485 53.0294C35.9048 53.1612 37.141 54.0941 38.5581 54.3747C42.1353 55.0966 46.3189 51.9859 47.2433 48.7143C48.3373 44.8696 45.1518 40.6393 42.4739 38.0354Z" fill="white"/>
<path d="M40.7603 42.545C40.2303 42.1593 39.6304 41.7824 38.965 41.7322C38.1906 41.6603 37.4673 42.0559 36.7747 42.4123C33.8216 44.0235 30.7673 45.7324 28.8968 48.5224C26.1159 52.7077 26.8629 58.6963 30.2466 62.4134C30.5683 62.776 30.93 63.1192 31.4044 63.2856C32.027 63.504 32.7266 63.3165 33.4034 63.2875C35.255 63.1878 37.018 64.139 38.866 64.2378C43.5755 64.4912 48.3566 59.6922 48.9327 55.3329C49.5825 50.2004 44.6975 45.3575 40.7603 42.545Z" fill="white"/>
<path d="M32.95 59.7682C32.7614 60.3013 32.5919 60.8745 32.7111 61.4323C32.8485 62.0798 33.3367 62.584 33.8056 63.0481C35.828 65.0559 37.9881 67.1452 40.7079 67.9826C44.8029 69.219 49.5345 67.1495 51.7587 63.5014C51.9839 63.1476 52.1699 62.7633 52.1971 62.3567C52.2175 61.7812 51.9186 61.2602 51.7192 60.7408C51.1792 59.2529 51.5577 57.5711 51.1878 56.0264C50.2541 52.1197 45.1918 49.3787 41.4612 49.9848C37.0923 50.6999 34.3135 55.8681 32.95 59.7682Z" fill="white"/>
<path d="M41.3669 57.9726C41.0117 58.3641 40.6661 58.7756 40.5673 59.2903C40.4571 59.8843 40.6652 60.4733 40.9039 61.0232C41.8847 63.4314 42.9134 65.9397 44.9019 67.6193C47.8799 70.1287 52.5651 70.0739 55.7488 67.811C56.0611 67.5876 56.3639 67.3442 56.5193 66.9992C56.7367 66.5261 56.6768 65.989 56.6963 65.4632C56.772 64.0248 57.6902 62.7486 57.9247 61.3326C58.5371 57.7185 55.2992 53.6364 51.9723 52.8192C48.0612 51.8637 43.9132 55.2033 41.3669 57.9726Z" fill="white"/>
<path d="M48.5515 64.3224C48.5512 64.8883 48.5805 65.4646 48.8603 65.9456C49.1984 66.497 49.8192 66.8146 50.3912 67.0818C52.9154 68.2834 55.5984 69.5074 58.4051 69.393C62.615 69.2215 66.3078 65.7555 67.1777 61.6491C67.2547 61.2432 67.3316 60.8374 67.2097 60.4284C67.0504 59.8898 66.5997 59.5153 66.2397 59.0727C65.247 57.8755 65.0586 56.1947 64.2168 54.9006C62.0791 51.5706 56.4856 50.7075 53.2411 52.4829C49.434 54.577 48.5554 60.2618 48.5419 64.3024L48.5515 64.3224Z" fill="white"/>
<path d="M62.6509 48.5431C62.2951 48.4183 61.9193 48.3031 61.5399 48.3865C61.1107 48.469 60.7765 48.8013 60.4624 49.1239C59.1351 50.473 57.7468 51.9005 57.1973 53.6888C56.3725 56.3961 57.748 59.5254 60.1684 60.9735C60.4047 61.1064 60.6706 61.2496 60.9192 61.2535C61.2968 61.2694 61.6388 61.0564 61.9991 60.9331C62.99 60.5814 64.0896 60.8173 65.1084 60.5753C67.6956 59.9511 69.5167 56.5944 69.1037 54.1356C68.6386 51.259 65.2006 49.4373 62.6308 48.5527L62.6509 48.5431Z" fill="white"/>
<path d="M59.1176 50.3314C59.0301 50.7669 58.9522 51.2224 59.0837 51.6514C59.2439 52.1404 59.685 52.4949 60.0869 52.8189C61.8523 54.1872 63.7363 55.5971 65.9471 55.9895C69.2583 56.5682 72.7471 54.479 74.125 51.433C74.2594 51.1472 74.3747 50.8214 74.361 50.4837C74.3193 50.0362 74.0378 49.6545 73.8261 49.264C73.2694 48.1531 73.393 46.8148 72.9567 45.6462C71.8366 42.6898 67.6398 41.0347 64.7901 41.8831C61.4605 42.8629 59.7916 47.1552 59.1176 50.3314Z" fill="white"/>
<path d="M60.1534 38.3254C59.8392 38.648 59.5346 38.9907 59.4271 39.4357C59.2987 39.94 59.4781 40.4691 59.6584 40.9485C60.4256 43.0654 61.2608 45.2728 62.9442 46.7788C65.4496 49.0225 69.5155 49.1168 72.324 47.2551C72.6058 47.0709 72.878 46.8667 73.0125 46.5809C73.2185 46.1871 73.1873 45.71 73.2155 45.2538C73.3374 44.0147 74.1525 42.9355 74.4035 41.7084C75.0365 38.6009 72.3478 34.9445 69.478 34.1544C66.1137 33.2075 62.4135 35.9883 60.1438 38.3054L60.1534 38.3254Z" fill="white"/>
<path d="M-4.70865 97.0067C24.97 119.875 68.824 109.855 95.5255 87.3298C113.222 72.3899 132.659 40.338 120.684 16.621C117.482 10.2561 107.669 15.5237 110.898 21.9053C120.444 40.832 101.333 67.9594 87.8927 79.2771C64.6416 98.8442 26.8742 107.438 1.18451 87.6113C-4.47895 83.2481 -10.3405 92.6818 -4.72534 97.0334L-4.70865 97.0067Z" fill="white"/>
<path d="M0.764969 19.3935L0.744915 19.4031C-3.35518 21.3669 -5.09145 26.2733 -3.13316 30.3619L1.35181 39.7258C3.3101 43.8144 8.2214 45.5369 12.3215 43.5731L12.3415 43.5635C16.4416 41.5997 18.1779 36.6932 16.2196 32.6046L11.7347 23.2407C9.77636 19.1522 4.86507 17.4297 0.764969 19.3935Z" fill="white"/>
<path d="M60.4389 -9.18844L60.4188 -9.17882C56.3187 -7.21501 54.5824 -2.30858 56.5407 1.78002L61.0257 11.1439C62.984 15.2325 67.8953 16.955 71.9954 14.9912L72.0155 14.9815C76.1156 13.0177 77.8518 8.1113 75.8935 4.02271L71.4086 -5.34116C69.4503 -9.42975 64.539 -11.1522 60.4389 -9.18844Z" fill="white"/>
</g>
</g>
<g clip-path="url(#clip1_1131_32288)">
<g clip-path="url(#clip2_1131_32288)">
<path d="M272.896 50.6646C272.896 42.0133 265.864 35 257.19 35C248.516 35 241.485 42.0133 241.485 50.6646V72.0496C241.485 80.701 248.516 87.7143 257.19 87.7143C265.864 87.7143 272.896 80.701 272.896 72.0496V50.6646Z" fill="white"/>
<path d="M321.615 50.6646C321.615 42.0133 314.583 35 305.909 35C297.235 35 290.204 42.0133 290.204 50.6646V72.0496C290.204 80.701 297.235 87.7143 305.909 87.7143C314.583 87.7143 321.615 80.701 321.615 72.0496V50.6646Z" fill="white"/>
<path d="M268.288 52.099C268.288 45.9854 263.319 41.0293 257.19 41.0293C251.061 41.0293 246.093 45.9854 246.093 52.099V67.2133C246.093 73.3269 251.061 78.283 257.19 78.283C263.319 78.283 268.288 73.3269 268.288 67.2133V52.099Z" fill="#E9ECF2"/>
<path d="M317.008 52.099C317.008 45.9854 312.039 41.0293 305.91 41.0293C299.781 41.0293 294.812 45.9854 294.812 52.099V67.2133C294.812 73.3269 299.781 78.283 305.91 78.283C312.039 78.283 317.008 73.3269 317.008 67.2133V52.099Z" fill="#E9ECF2"/>
<path d="M274.329 42.6802H288.778C306.906 42.6802 321.622 57.3553 321.622 75.4318V177.601H241.485V75.4318C241.485 57.3553 256.201 42.6802 274.329 42.6802Z" fill="white"/>
<path d="M286.31 77.2813C286.31 78.9015 284.052 80.9794 281.602 80.9794C279.153 80.9794 277.168 78.9015 277.168 77.2813C277.168 75.661 279.153 74.3438 281.602 74.3438C284.052 74.3438 286.31 75.6548 286.31 77.2813Z" fill="#191F28"/>
<path d="M283.631 76.2172C283.544 76.3285 283.457 76.4522 283.439 76.5883C283.42 76.7491 283.494 76.9099 283.563 77.0583C283.879 77.6952 284.214 78.3631 284.791 78.7775C285.653 79.4021 286.936 79.297 287.761 78.6167C287.842 78.5487 287.916 78.4745 287.96 78.3817C288.009 78.2518 287.978 78.1034 287.978 77.9612C287.972 77.5654 288.195 77.2005 288.232 76.8109C288.325 75.8152 287.358 74.7577 286.428 74.6031C285.342 74.4176 284.27 75.4133 283.631 76.2172Z" fill="#191F28"/>
<path d="M286.242 74.1214C286.217 74.0225 286.186 73.9174 286.118 73.8432C286.037 73.7566 285.913 73.7318 285.795 73.7009C285.293 73.5896 284.766 73.4845 284.27 73.6205C283.525 73.8246 283.011 74.5976 283.029 75.3645C283.029 75.4387 283.035 75.5191 283.073 75.5809C283.122 75.6675 283.222 75.717 283.302 75.7788C283.525 75.952 283.637 76.2426 283.842 76.4405C284.363 76.9414 285.398 76.8672 285.907 76.4158C286.502 75.8839 286.415 74.8326 286.248 74.1153L286.242 74.1214Z" fill="#191F28"/>
<path d="M280.617 73.2061C280.499 73.2865 280.375 73.3731 280.313 73.4968C280.239 73.6452 280.257 73.8245 280.282 73.9853C280.375 74.6965 280.474 75.4448 280.89 76.0323C281.51 76.9166 282.775 77.232 283.78 76.8486C283.879 76.8115 283.978 76.7682 284.046 76.6878C284.139 76.5765 284.158 76.4281 284.201 76.292C284.325 75.9148 284.66 75.6365 284.822 75.2716C285.243 74.3502 284.66 73.0206 283.823 72.5691C282.843 72.0373 281.491 72.6371 280.617 73.1999V73.2061Z" fill="#191F28"/>
<path d="M280.078 72.1856C279.941 72.1608 279.792 72.1423 279.662 72.1918C279.507 72.2474 279.402 72.3896 279.309 72.5257C278.893 73.1008 278.465 73.7069 278.372 74.4119C278.229 75.4632 278.924 76.5393 279.91 76.935C280.003 76.9722 280.109 77.0093 280.208 76.9969C280.35 76.9783 280.462 76.8856 280.586 76.8176C280.933 76.6258 281.355 76.6506 281.721 76.496C282.645 76.1125 283.116 74.7644 282.819 73.88C282.471 72.8411 281.095 72.3711 280.084 72.1918L280.078 72.1856Z" fill="#191F28"/>
<path d="M280.406 73.4653C280.357 73.3292 280.295 73.1932 280.183 73.1004C280.053 72.9953 279.879 72.9767 279.712 72.9582C278.992 72.8902 278.242 72.8283 277.572 73.1004C276.574 73.5086 275.985 74.6712 276.14 75.7349C276.152 75.84 276.177 75.9452 276.239 76.0317C276.326 76.1492 276.468 76.1987 276.592 76.2729C276.934 76.477 277.132 76.8604 277.454 77.1016C278.267 77.7139 279.693 77.4356 280.32 76.7244C281.058 75.8895 280.766 74.4424 280.406 73.4653Z" fill="#191F28"/>
<path d="M279.432 74.394C279.346 74.2333 279.24 74.0663 279.079 73.9735C278.893 73.8622 278.663 73.8746 278.446 73.8808C277.51 73.9302 276.536 73.9921 275.73 74.4683C274.527 75.1856 273.994 76.7812 274.397 78.1231C274.434 78.253 274.484 78.3829 274.583 78.4818C274.713 78.6117 274.911 78.6488 275.085 78.723C275.563 78.9209 275.891 79.3723 276.344 79.6197C277.498 80.2505 279.277 79.6197 279.947 78.5931C280.729 77.381 280.084 75.5752 279.432 74.394Z" fill="#191F28"/>
<path d="M275.395 77.7823C275.284 77.8936 275.172 78.0173 275.135 78.1719C275.091 78.3512 275.153 78.5368 275.215 78.7099C275.482 79.4582 275.774 80.2436 276.357 80.7816C277.237 81.5856 278.676 81.6351 279.674 80.9857C279.774 80.9239 279.867 80.8497 279.923 80.7507C279.997 80.6085 279.985 80.4415 279.997 80.2869C280.04 79.8478 280.338 79.4706 280.431 79.0377C280.667 77.9431 279.724 76.6444 278.713 76.3476C277.529 76.0012 276.208 76.966 275.395 77.7823Z" fill="#191F28"/>
<path d="M277.726 78.3451C277.59 78.4008 277.453 78.4626 277.367 78.5801C277.267 78.7162 277.249 78.8894 277.243 79.0563C277.199 79.7799 277.156 80.5344 277.453 81.1961C277.9 82.1855 279.085 82.7359 280.157 82.5504C280.263 82.5319 280.368 82.5071 280.449 82.4391C280.561 82.3463 280.61 82.2041 280.678 82.0742C280.871 81.7217 281.255 81.5115 281.485 81.1837C282.074 80.3488 281.751 78.9326 281.013 78.3266C280.145 77.6154 278.7 77.9555 277.726 78.3451Z" fill="#191F28"/>
<path d="M278.769 80.8062C278.701 80.9484 278.639 81.0968 278.652 81.2514C278.67 81.4308 278.788 81.5854 278.9 81.7214C279.39 82.3275 279.917 82.9583 280.636 83.2675C281.715 83.7313 283.061 83.3046 283.774 82.377C283.842 82.2842 283.911 82.1914 283.929 82.0739C283.954 81.9193 283.886 81.7709 283.849 81.6163C283.743 81.1958 283.898 80.7505 283.842 80.3238C283.706 79.2292 282.404 78.3387 281.374 78.3943C280.165 78.4623 279.259 79.7858 278.769 80.8V80.8062Z" fill="#191F28"/>
<path d="M284.214 78.5364C284.139 78.4622 284.059 78.388 283.953 78.3633C283.835 78.3323 283.711 78.3756 283.594 78.4189C283.097 78.5982 282.577 78.79 282.223 79.1734C281.69 79.7547 281.659 80.7071 282.093 81.3626C282.136 81.4244 282.186 81.4925 282.248 81.5234C282.341 81.5729 282.452 81.5605 282.558 81.5729C282.849 81.6038 283.097 81.7955 283.383 81.8573C284.108 82.0119 284.97 81.3873 285.163 80.7194C285.392 79.9402 284.747 79.0683 284.208 78.5364H284.214Z" fill="#191F28"/>
<path d="M283.111 78.5614C283.036 78.6603 282.962 78.7654 282.943 78.8891C282.925 79.0314 282.993 79.1736 283.055 79.3035C283.334 79.86 283.638 80.4414 284.146 80.8062C284.909 81.3504 286.038 81.2453 286.751 80.6454C286.819 80.5898 286.887 80.5218 286.925 80.4352C286.968 80.3177 286.943 80.1878 286.937 80.0641C286.931 79.7178 287.123 79.3962 287.154 79.0499C287.228 78.1718 286.373 77.2503 285.554 77.1204C284.599 76.9658 283.663 77.844 283.111 78.5614Z" fill="#191F28"/>
<path d="M284.816 75.6666C284.698 75.7099 284.581 75.7593 284.5 75.8583C284.407 75.9696 284.388 76.1242 284.376 76.2665C284.314 76.8911 284.258 77.5466 284.5 78.1279C284.86 78.9937 285.871 79.507 286.801 79.3771C286.894 79.3647 286.987 79.3462 287.055 79.2905C287.154 79.2163 287.204 79.0926 287.266 78.9813C287.446 78.6845 287.781 78.5113 287.991 78.233C288.525 77.528 288.289 76.285 287.663 75.7408C286.931 75.0976 285.666 75.3512 284.816 75.6604V75.6666Z" fill="#191F28"/>
<path d="M264.046 86.2603C270.675 94.3307 283.215 94.3554 291.879 89.909C297.621 86.9591 304.908 79.47 303.141 72.2778C302.669 70.3483 299.674 71.1646 300.152 73.1003C301.559 78.8392 294.669 85.0111 290.31 87.2436C282.768 91.1025 271.971 91.0716 266.235 84.0773C264.97 82.5374 262.787 84.7328 264.04 86.2665L264.046 86.2603Z" fill="#191F28"/>
<path d="M270.768 63.7566H270.762C269.495 63.7566 268.468 64.781 268.468 66.0448V68.939C268.468 70.2027 269.495 71.2271 270.762 71.2271H270.768C272.036 71.2271 273.063 70.2027 273.063 68.939V66.0448C273.063 64.781 272.036 63.7566 270.768 63.7566Z" fill="#191F28"/>
<path d="M289.213 63.7566H289.206C287.939 63.7566 286.912 64.781 286.912 66.0448V68.939C286.912 70.2027 287.939 71.2271 289.206 71.2271H289.213C290.48 71.2271 291.507 70.2027 291.507 68.939V66.0448C291.507 64.781 290.48 63.7566 289.213 63.7566Z" fill="#191F28"/>
<path d="M241.484 110.138C241.484 110.138 244.337 123.366 224.325 155.227C204.312 187.088 208.176 233.655 208.176 233.655H321.622V146.124L241.491 110.138H241.484Z" fill="white"/>
<path d="M179.035 62.8157L177.667 63.7675C176.965 64.2561 176.793 65.2198 177.283 65.9201L209.905 112.552C210.395 113.252 211.361 113.424 212.064 112.935L213.432 111.984C214.134 111.495 214.306 110.531 213.816 109.831L181.194 63.1992C180.704 62.4989 179.738 62.3272 179.035 62.8157Z" fill="#3D3F4D"/>
<path d="M214.094 104.171L204.486 110.855C203.599 111.473 203.381 112.691 204 113.576L214.063 127.96C214.682 128.845 215.904 129.062 216.792 128.445L226.4 121.761C227.287 121.143 227.505 119.925 226.886 119.04L216.823 104.656C216.204 103.771 214.982 103.554 214.094 104.171Z" fill="#69AFEE"/>
<path d="M291.251 214.466L281.643 221.149C280.755 221.767 280.538 222.985 281.157 223.87L298.568 248.759C299.188 249.644 300.409 249.861 301.297 249.243L310.905 242.559C311.792 241.942 312.01 240.724 311.391 239.839L293.98 214.95C293.36 214.065 292.139 213.848 291.251 214.466Z" fill="#3B80D3"/>
<path d="M225.609 109.234L205.279 123.377C204.391 123.994 204.174 125.212 204.793 126.098L214.856 140.482C215.475 141.367 216.697 141.584 217.584 140.966L237.914 126.824C238.802 126.206 239.019 124.988 238.4 124.103L228.337 109.719C227.718 108.834 226.496 108.617 225.609 109.234Z" fill="#3B80D3"/>
<path d="M212.112 136.734L235.809 120.249C239.7 117.542 245.057 118.498 247.768 122.373L305.604 205.046L267.818 231.332L209.982 148.659C207.268 144.779 208.226 139.437 212.112 136.734Z" fill="#E1F4FF"/>
<path d="M304.426 199.564L263.069 228.334C262.182 228.951 261.964 230.169 262.583 231.054L267.906 238.662C268.525 239.548 269.746 239.765 270.634 239.147L311.991 210.377C312.878 209.76 313.096 208.542 312.477 207.657L307.154 200.049C306.535 199.163 305.313 198.946 304.426 199.564Z" fill="#6DB2F8"/>
<path d="M253.48 130.539L256.209 134.439L241.154 144.912C240.452 145.401 239.485 145.229 238.995 144.529L238.041 143.165C237.551 142.465 237.723 141.5 238.425 141.012L253.48 130.539Z" fill="#AAC5E2"/>
<path d="M292.783 186.736L295.512 190.636L280.456 201.109C279.755 201.598 278.787 201.426 278.298 200.726L277.343 199.362C276.854 198.662 277.026 197.697 277.728 197.209L292.783 186.736Z" fill="#AAC5E2"/>
<path d="M273.133 158.63L275.862 162.53L254.439 177.433C253.737 177.922 252.77 177.75 252.28 177.05L251.326 175.686C250.836 174.986 251.008 174.021 251.71 173.533L273.133 158.63Z" fill="#AAC5E2"/>
<path d="M263.305 144.589L266.034 148.489L255.566 155.771C254.865 156.259 253.898 156.088 253.408 155.388L252.453 154.023C251.964 153.323 252.136 152.359 252.838 151.871L263.305 144.589Z" fill="#AAC5E2"/>
<path d="M282.96 172.686L285.689 176.586L275.221 183.868C274.519 184.356 273.552 184.185 273.063 183.485L272.108 182.12C271.619 181.42 271.791 180.456 272.493 179.968L282.96 172.686Z" fill="#AAC5E2"/>
<path d="M205.1 207.106C205.1 207.106 174.29 186.766 215.946 146.952C257.602 107.138 265.416 155.61 248.926 171.188C232.436 186.766 225.925 220.953 225.925 220.953L205.093 207.106H205.1Z" fill="white"/>
<path d="M334.62 162.623C334.62 162.623 354.552 189.419 306.769 210.483C258.985 231.546 267.339 187.886 286.198 179.704C305.057 171.516 321.181 144.423 321.181 144.423L334.626 162.623H334.62Z" fill="white"/>
</g>
</g>
<path d="M28.1641 76.7539C28.1533 79.9121 29.7861 83.2959 33.0625 84.6602L31.5801 86.8086C29.2812 85.8311 27.6914 83.8867 26.8105 81.5234C25.9297 84.0908 24.3076 86.2393 21.998 87.3027L20.4297 85.1328C23.6738 83.6826 25.3496 80.0625 25.3496 76.7539V75.5508H21.2031V73.3164H32.2461V75.5508H28.1641V76.7539ZM34.1797 90.9766V71.4258H36.9512V90.9766H34.1797ZM55.3633 72.3066V73.875C55.374 75.4004 55.374 77.0869 54.9014 79.332H57.4902V81.5449H39.5938V79.332H52.1406C52.5596 77.3877 52.6133 75.873 52.6348 74.498H41.7852V72.3066H55.3633ZM41.7207 90.7617V83.6074H55.2988V90.7617H41.7207ZM44.4062 88.5703H52.5703V85.7559H44.4062V88.5703ZM62.7324 87.4102L60.8848 93.5332H58.6074L59.6816 87.4102H62.7324ZM38.7773 106.838V109.072H36.0059V118.934H33.2559V99.4258H36.0059V106.838H38.7773ZM21.2031 114.164V101.295H23.9316V111.897C26.4346 111.854 29.1201 111.618 31.9453 111.049L32.2246 113.326C28.9482 113.992 25.7793 114.164 22.9004 114.164H21.2031ZM56.5449 99.4258V118.977H53.9238V99.4258H56.5449ZM39.7656 107.891C39.7656 103.519 41.4307 100.812 44.0195 100.822C46.3721 100.812 47.9834 103.014 48.2842 106.666H49.8848V99.7051H52.4629V118.074H49.8848V108.836H48.3057C48.0693 112.671 46.4258 115.002 44.0195 115.002C41.4307 115.002 39.7656 112.284 39.7656 107.891ZM42.3008 107.891C42.2793 110.898 42.9238 112.381 44.0195 112.359C45.1475 112.381 45.8135 110.898 45.8027 107.891C45.8135 104.894 45.1475 103.4 44.0195 103.4C42.9238 103.4 42.2793 104.894 42.3008 107.891ZM75.5586 99.4258V118.977H72.9805V99.4258H75.5586ZM58.3711 112.982C62.3242 110.641 64.0645 107.794 64.4404 103.959H59.4453V101.746H67.1582C67.1582 103.615 66.9541 105.355 66.4814 106.967H68.834V99.8555H71.3906V118.117H68.834V109.137H65.6328C64.5156 111.371 62.7002 113.305 59.918 114.916L58.3711 112.982ZM92.6602 100.693V109.266H83.2715V100.693H92.6602ZM84.4316 116.807C87.9443 116.377 89.8564 114.98 90.2969 113.477H85.2695V111.307H98.4395V113.477H93.4336C93.8848 114.938 95.8291 116.388 99.2988 116.85L98.332 118.934C95.1953 118.515 92.9824 117.269 91.8545 115.593C90.7373 117.269 88.5459 118.493 85.4199 118.891L84.4316 116.807ZM85.9785 107.096H89.9531V102.863H85.9785V107.096ZM95.4531 110.383V99.4258H98.2031V103.68H100.846V105.914H98.2031V110.383H95.4531ZM117.582 104.754V106.902H103.918V100.113H106.646V104.754H117.582ZM101.684 111.156V109.008H119.58V111.156H101.684ZM103.746 118.547V112.746H106.496V116.355H117.711V118.547H103.746ZM129.076 100.65V103.443H131.74V100.65H134.275V110.125H126.477V100.65H129.076ZM129.076 114.293V112.102H142.59V118.977H139.861V114.293H129.076ZM129.076 107.955H131.74V105.527H129.076V107.955ZM135.801 111.113V99.791H138.357V104.217H139.99V99.4473H142.59V111.221H139.99V106.43H138.357V111.113H135.801ZM161.174 99.4473V113.713H158.424V99.4473H161.174ZM144.738 108.879C148.015 107.783 149.443 105.065 149.443 102.412V100.521H152.301V102.412C152.279 105.001 153.665 107.525 156.877 108.557L155.48 110.705C153.268 109.975 151.753 108.514 150.883 106.655C150.002 108.653 148.444 110.265 146.156 111.049L144.738 108.879ZM148.068 118.633V112.338H150.84V116.441H161.689V118.633H148.068ZM172.732 99.7051C177.233 99.7051 179.833 100.887 179.844 103.035C179.833 105.216 177.233 106.387 172.732 106.387C168.221 106.387 165.6 105.216 165.6 103.035C165.6 100.887 168.221 99.7051 172.732 99.7051ZM163.816 109.48V107.311H181.648V109.48H163.816ZM165.879 112.617V110.619H179.479V115.604H168.586V116.785H179.994V118.848H165.9V113.691H176.771V112.617H165.879ZM168.479 103.035C168.468 103.991 169.864 104.367 172.732 104.367C175.622 104.367 177.008 103.991 177.008 103.035C177.008 102.165 175.622 101.703 172.732 101.703C169.864 101.703 168.468 102.165 168.479 103.035ZM38.4121 139.135V141.369H30.8281V146.998H28.1211V141.369H20.5801V139.135H38.4121ZM21.4824 135.934C25.543 135.482 27.7451 133.57 28.0781 131.83H22.1914V129.682H28.1211V127.447H30.8281V129.682H36.7793V131.83H30.9141C31.2148 133.549 33.417 135.482 37.4668 135.934L36.4785 138.082C33.1592 137.706 30.7637 136.342 29.4961 134.569C28.2178 136.363 25.8115 137.706 22.4707 138.082L21.4824 135.934ZM46.791 132.023C46.8018 134.226 48.2305 136.471 51.4102 137.438L50.0996 139.564C47.9082 138.931 46.3613 137.588 45.4805 135.891C44.6104 137.728 43.0635 139.178 40.7969 139.887L39.4648 137.738C42.6445 136.782 44.0625 134.408 44.0625 132.023V131.873H40.1309V129.725H44.0625V127.555H46.834V129.725H50.7441V131.873H46.791V132.023ZM43.0957 146.633V140.703H45.8457V144.441H56.5449V146.633H43.0957ZM50.0996 135.354V133.141H53.3438V127.447H56.0723V141.949H53.3438V135.354H50.0996ZM79.1895 127.426V131.873H81.832V134.129H79.1895V138.834H76.4395V127.426H79.1895ZM64.2578 137.867V128.564H66.9863V131.057H70.9824V128.564H73.7324V137.867H64.2578ZM66.4062 146.719V139.715H79.2969V141.885H69.1348V144.57H79.6621V146.719H66.4062ZM66.9863 135.719H70.9824V133.184H66.9863V135.719ZM87.9551 128.801C90.9414 128.801 93.1006 131.497 93.1113 135.762C93.1006 140.059 90.9414 142.744 87.9551 142.744C84.958 142.744 82.7881 140.059 82.7988 135.762C82.7881 131.497 84.958 128.801 87.9551 128.801ZM85.4414 135.762C85.4414 138.673 86.4619 140.263 87.9551 140.252C89.4805 140.263 90.4795 138.673 90.4902 135.762C90.4795 132.861 89.4805 131.271 87.9551 131.271C86.4619 131.271 85.4414 132.861 85.4414 135.762ZM95.3672 146.977V127.426H98.1172V134.795H100.996V137.072H98.1172V146.977H95.3672ZM119.602 142.465V144.699H101.705V142.465H109.246V138.855H103.596V128.672H106.346V131.701H114.875V128.672H117.604V138.855H111.975V142.465H119.602ZM106.346 136.664H114.875V133.893H106.346V136.664ZM126.992 132.346C126.981 135.515 127.862 138.78 130.537 140.488L129.055 142.615C127.357 141.595 126.294 139.897 125.671 137.899C124.973 140.112 123.802 141.971 122.029 143.045L120.354 141.025C123.254 139.231 124.328 135.783 124.328 132.475V129.102H126.992V132.346ZM128.475 136.256V134.021H131.01V127.705H133.566V146.074H131.01V136.256H128.475ZM135.049 146.977V127.426H137.67V146.977H135.049ZM157.629 142.443V144.699H139.732V142.443H143.729V137.652C142.214 136.739 141.301 135.354 141.301 133.635C141.301 130.466 144.395 128.382 148.648 128.371C152.881 128.382 156.007 130.466 156.018 133.635C156.007 135.321 155.126 136.686 153.654 137.599V142.443H157.629ZM144.008 133.635C144.008 135.547 145.845 136.729 148.648 136.729C151.409 136.729 153.3 135.547 153.311 133.635C153.3 131.669 151.409 130.53 148.648 130.541C145.845 130.53 144.008 131.669 144.008 133.635ZM146.436 142.443H150.883V138.641C150.185 138.78 149.433 138.855 148.648 138.855C147.864 138.855 147.123 138.78 146.436 138.651V142.443Z" fill="white"/>
<path d="M20.75 170V169.062L23.6914 166.098C24.623 165.131 25.0859 164.592 25.0859 163.848C25.0859 163.01 24.4062 162.477 23.5156 162.477C22.5723 162.477 21.9746 163.074 21.9688 163.977H20.75C20.7383 162.424 21.9219 161.398 23.5391 161.398C25.1738 161.398 26.3047 162.436 26.3164 163.812C26.3047 164.762 25.8594 165.518 24.2656 167.082L22.543 168.828V168.898H26.457V170H20.75ZM30.8398 170.117C28.877 170.117 27.7227 168.535 27.7227 165.758C27.7227 162.998 28.8887 161.398 30.8398 161.398C32.7852 161.398 33.9512 162.998 33.957 165.758C33.9512 168.535 32.8027 170.117 30.8398 170.117ZM29.0117 165.758C29.0059 167.873 29.6914 169.004 30.8398 169.004C31.9824 169.004 32.668 167.873 32.668 165.758C32.668 163.648 31.9766 162.494 30.8398 162.488C29.6973 162.494 29.0117 163.648 29.0117 165.758ZM38.2461 170.117C36.2832 170.117 35.1289 168.535 35.1289 165.758C35.1289 162.998 36.2949 161.398 38.2461 161.398C40.1914 161.398 41.3574 162.998 41.3633 165.758C41.3574 168.535 40.209 170.117 38.2461 170.117ZM36.418 165.758C36.4121 167.873 37.0977 169.004 38.2461 169.004C39.3887 169.004 40.0742 167.873 40.0742 165.758C40.0742 163.648 39.3828 162.494 38.2461 162.488C37.1035 162.494 36.418 163.648 36.418 165.758ZM42.6992 170V169.062L45.6406 166.098C46.5723 165.131 47.0352 164.592 47.0352 163.848C47.0352 163.01 46.3555 162.477 45.4648 162.477C44.5215 162.477 43.9238 163.074 43.918 163.977H42.6992C42.6875 162.424 43.8711 161.398 45.4883 161.398C47.123 161.398 48.2539 162.436 48.2656 163.812C48.2539 164.762 47.8086 165.518 46.2148 167.082L44.4922 168.828V168.898H48.4062V170H42.6992ZM58.2266 160.508V168.266H57.1133V164.691H54.2305V163.801H57.1133V162.699H54.2305V161.809H57.1133V160.508H58.2266ZM50.0938 166.766V161.234H51.1953V165.828C52.5898 165.822 53.9141 165.746 55.4141 165.465L55.5312 166.379C53.8672 166.689 52.4434 166.754 50.9023 166.766H50.0938ZM51.3828 170.773V167.586H52.5078V169.871H58.4961V170.773H51.3828ZM71.4688 160.496V171.02H70.3555V160.496H71.4688ZM63.1367 164.961C63.1367 162.717 64.2676 161.287 65.8555 161.281C67.4141 161.287 68.5625 162.717 68.5625 164.961C68.5625 167.229 67.4141 168.658 65.8555 168.652C64.2676 168.658 63.1367 167.229 63.1367 164.961ZM64.2148 164.961C64.209 166.631 64.877 167.656 65.8555 167.656C66.8164 167.656 67.4844 166.631 67.4844 164.961C67.4844 163.314 66.8164 162.283 65.8555 162.277C64.877 162.283 64.209 163.314 64.2148 164.961ZM82.1797 161.656V162.57H73.6367V161.656H77.375V160.449H78.4766V161.656H82.1797ZM73.1445 168.207V167.293H82.7539V168.207H78.4766V171.008H77.375V168.207H73.1445ZM74.4336 164.879C74.4277 163.73 75.7402 163.104 77.9258 163.109C80.1055 163.104 81.418 163.73 81.418 164.879C81.418 165.998 80.1055 166.631 77.9258 166.637C75.7402 166.631 74.4277 165.998 74.4336 164.879ZM75.582 164.879C75.582 165.465 76.4199 165.799 77.9258 165.793C79.4258 165.799 80.2637 165.465 80.2695 164.879C80.2637 164.275 79.4258 163.941 77.9258 163.941C76.4199 163.941 75.582 164.275 75.582 164.879ZM95.1875 160.496V166.215H94.0859V163.895H92.1172V162.98H94.0859V160.496H95.1875ZM86.457 165.512C88.0684 164.949 89.0762 163.572 89.0703 162.125V161.984H86.7969V161.082H92.457V161.984H90.207V162.137C90.2012 163.438 91.1504 164.756 92.7383 165.289L92.1641 166.156C90.9805 165.734 90.1133 164.902 89.6562 163.871C89.1992 165.025 88.2793 165.951 87.0312 166.391L86.457 165.512ZM88.3555 170.867V166.684H89.457V167.891H94.0859V166.684H95.1875V170.867H88.3555ZM89.457 169.965H94.0859V168.758H89.457V169.965ZM102.148 164.234V165.652H106.391V166.566H96.8164V165.652H101.047V164.234H102.148ZM97.3086 163.906C99.207 163.713 100.695 162.881 100.848 161.867H97.6953V160.977H105.535V161.867H102.348C102.506 162.875 103.994 163.713 105.898 163.906L105.5 164.785C103.678 164.574 102.172 163.824 101.598 162.717C101.023 163.824 99.5293 164.574 97.707 164.785L97.3086 163.906ZM97.9531 169.156C97.9531 167.979 99.3125 167.328 101.598 167.328C103.865 167.328 105.213 167.979 105.219 169.156C105.213 170.328 103.865 170.979 101.598 170.973C99.3125 170.979 97.9531 170.328 97.9531 169.156ZM99.0781 169.156C99.0723 169.783 99.9746 170.129 101.598 170.129C103.197 170.129 104.105 169.783 104.105 169.156C104.105 168.529 103.197 168.189 101.598 168.184C99.9746 168.189 99.0723 168.529 99.0781 169.156ZM115.438 160.508V163.883H116.961V164.809H115.438V168.359H114.324V160.508H115.438ZM107.199 162.629V161.727H109.777V160.496H110.891V161.727H113.457V162.629H107.199ZM107.773 165.113C107.768 163.912 108.805 163.127 110.328 163.133C111.834 163.127 112.871 163.912 112.871 165.113C112.871 166.303 111.834 167.076 110.328 167.082C108.805 167.076 107.768 166.303 107.773 165.113ZM108.781 170.773V167.738H109.895V169.871H115.883V170.773H108.781ZM108.852 165.113C108.84 165.799 109.438 166.221 110.328 166.215C111.219 166.221 111.816 165.799 111.828 165.113C111.816 164.422 111.219 163.994 110.328 163.988C109.438 163.994 108.84 164.422 108.852 165.113ZM29.4219 178.496V188.996H28.3555V178.496H29.4219ZM20.5039 183.031C20.5039 180.758 21.3945 179.334 22.7656 179.34C23.6621 179.334 24.3535 179.932 24.7285 180.969H26.2578V178.695H27.3125V188.48H26.2578V185.094H24.7344C24.3535 186.137 23.6621 186.74 22.7656 186.734C21.3945 186.74 20.5039 185.311 20.5039 183.031ZM21.5234 183.031C21.5176 184.701 21.9863 185.686 22.7656 185.68C23.5391 185.686 24.0312 184.701 24.0312 183.031C24.0312 181.355 23.5391 180.377 22.7656 180.383C21.9863 180.377 21.5176 181.355 21.5234 183.031ZM24.9629 181.871C25.0215 182.229 25.0508 182.615 25.0508 183.031C25.0508 183.441 25.0215 183.828 24.9629 184.18H26.2578V181.871H24.9629ZM35.6211 185.035C37.7832 185.035 39.1016 185.762 39.1016 187.004C39.1016 188.264 37.7832 188.99 35.6211 188.996C33.4355 188.99 32.0938 188.264 32.0938 187.004C32.0938 185.762 33.4355 185.035 35.6211 185.035ZM31.168 184.027V179.152H32.2578V180.664H35.0117V179.152H36.1133V184.027H31.168ZM32.2578 183.137H35.0117V181.543H32.2578V183.137ZM33.207 187.004C33.2012 187.707 34.1035 188.105 35.6211 188.105C37.127 188.105 38.0176 187.707 38.0117 187.004C38.0176 186.307 37.127 185.914 35.6211 185.914C34.1035 185.914 33.2012 186.307 33.207 187.004ZM37.8945 184.766V178.496H39.0078V181.062H40.5312V182.012H39.0078V184.766H37.8945ZM49.8711 178.496V184.215H48.7695V181.895H46.8008V180.98H48.7695V178.496H49.8711ZM41.1406 183.512C42.752 182.949 43.7598 181.572 43.7539 180.125V179.984H41.4805V179.082H47.1406V179.984H44.8906V180.137C44.8848 181.438 45.834 182.756 47.4219 183.289L46.8477 184.156C45.6641 183.734 44.7969 182.902 44.3398 181.871C43.8828 183.025 42.9629 183.951 41.7148 184.391L41.1406 183.512ZM43.0391 188.867V184.684H44.1406V185.891H48.7695V184.684H49.8711V188.867H43.0391ZM44.1406 187.965H48.7695V186.758H44.1406V187.965ZM56.832 182.234V183.652H61.0742V184.566H51.5V183.652H55.7305V182.234H56.832ZM51.9922 181.906C53.8906 181.713 55.3789 180.881 55.5312 179.867H52.3789V178.977H60.2188V179.867H57.0312C57.1895 180.875 58.6777 181.713 60.582 181.906L60.1836 182.785C58.3613 182.574 56.8555 181.824 56.2812 180.717C55.707 181.824 54.2129 182.574 52.3906 182.785L51.9922 181.906ZM52.6367 187.156C52.6367 185.979 53.9961 185.328 56.2812 185.328C58.5488 185.328 59.8965 185.979 59.9023 187.156C59.8965 188.328 58.5488 188.979 56.2812 188.973C53.9961 188.979 52.6367 188.328 52.6367 187.156ZM53.7617 187.156C53.7559 187.783 54.6582 188.129 56.2812 188.129C57.8809 188.129 58.7891 187.783 58.7891 187.156C58.7891 186.529 57.8809 186.189 56.2812 186.184C54.6582 186.189 53.7559 186.529 53.7617 187.156ZM70.6016 178.496V188.996H69.4766V178.496H70.6016ZM61.9766 186.184C64.7656 184.854 66.1309 182.961 66.3477 180.512H62.4805V179.621H67.4727C67.4727 182.697 66.166 185.357 62.5625 187.086L61.9766 186.184ZM81.8398 184.227V185.129H72.2305V184.227H76.4844V183.23H73.4609V180.559H79.5195V179.621H73.4375V178.742H80.6328V181.379H74.5625V182.363H80.8438V183.23H77.5859V184.227H81.8398ZM73.3086 186.758V185.867H80.6914V188.914H79.5664V186.758H73.3086ZM87.3945 178.672C89.7617 178.666 91.1387 179.305 91.1445 180.477C91.1387 181.654 89.7617 182.293 87.3945 182.293C85.0273 182.293 83.6387 181.654 83.6445 180.477C83.6387 179.305 85.0273 178.666 87.3945 178.672ZM82.6133 183.828V182.938H92.1875V183.828H82.6133ZM83.7617 185.469V184.637H90.9805V187.098H84.8633V188.035H91.2734V188.891H83.7734V186.289H89.8789V185.469H83.7617ZM84.8047 180.477C84.7988 181.127 85.7246 181.461 87.3945 181.461C89.0762 181.461 90.002 181.127 89.9961 180.477C90.002 179.855 89.0762 179.492 87.3945 179.492C85.7246 179.492 84.7988 179.855 84.8047 180.477ZM104.176 178.508V181.625H105.676V182.539H104.176V185.574H103.062V178.508H104.176ZM95.8438 184.402C96.6582 184.402 97.6016 184.402 98.5859 184.379V183.67C97.3906 183.535 96.6289 182.973 96.6406 182.129C96.6289 181.168 97.6309 180.57 99.1367 180.582C100.643 180.57 101.627 181.168 101.633 182.129C101.627 182.967 100.883 183.529 99.6992 183.67V184.338C100.637 184.291 101.586 184.215 102.465 184.086L102.559 184.883C100.303 185.275 97.8125 185.293 95.9609 185.293L95.8438 184.402ZM96.1133 180.23V179.398H98.5859V178.414H99.6992V179.398H102.172V180.23H96.1133ZM97.1562 186.934V186.066H104.176V188.996H103.062V186.934H97.1562ZM97.6953 182.129C97.6953 182.621 98.2402 182.943 99.1367 182.938C100.021 182.943 100.572 182.621 100.566 182.129C100.572 181.625 100.021 181.332 99.1367 181.344C98.2402 181.332 97.6953 181.625 97.6953 182.129ZM114.992 178.508V186.137H113.879V178.508H114.992ZM106.496 181.812C106.502 180.295 107.709 179.217 109.297 179.211C110.879 179.217 112.086 180.295 112.086 181.812C112.086 183.354 110.879 184.426 109.297 184.426C107.709 184.426 106.502 183.354 106.496 181.812ZM107.586 181.812C107.58 182.803 108.318 183.453 109.297 183.453C110.258 183.453 110.996 182.803 110.996 181.812C110.996 180.846 110.258 180.184 109.297 180.184C108.318 180.184 107.58 180.846 107.586 181.812ZM108.125 188.773V185.363H109.25V187.871H115.309V188.773H108.125ZM124.906 178.461V180.922H126.441V181.836H124.906V184.238H123.793V178.461H124.906ZM116.668 180.266V179.387H119.246V178.402H120.359V179.387H122.926V180.266H116.668ZM117.242 182.387C117.236 181.326 118.256 180.664 119.797 180.664C121.338 180.664 122.34 181.326 122.34 182.387C122.34 183.453 121.338 184.104 119.797 184.098C118.256 184.104 117.236 183.453 117.242 182.387ZM118.121 185.562V184.73H124.906V187.168H119.234V188.047H125.27V188.891H118.145V186.383H123.805V185.562H118.121ZM118.32 182.387C118.309 182.955 118.889 183.289 119.797 183.289C120.699 183.289 121.285 182.955 121.297 182.387C121.285 181.818 120.699 181.467 119.797 181.461C118.889 181.467 118.309 181.818 118.32 182.387ZM135.336 179.422C135.33 180.816 137.035 182.123 139.098 182.398L138.664 183.312C136.947 183.037 135.441 182.146 134.756 180.91C134.07 182.146 132.564 183.037 130.859 183.312L130.414 182.398C132.471 182.123 134.17 180.834 134.176 179.422V178.848H135.336V179.422ZM129.957 185.258V184.344H139.531V185.258H135.266V188.996H134.176V185.258H129.957ZM146.902 185.434C146.902 186.336 147.348 187.291 148.303 187.859C149.264 187.244 149.738 186.242 149.738 185.434V184.93H150.828V185.434C150.822 186.523 151.543 187.578 152.914 188.023L152.363 188.844C151.326 188.486 150.617 187.783 150.254 186.928C149.92 187.771 149.293 188.539 148.332 188.938C147.324 188.557 146.686 187.812 146.363 186.957C145.982 187.783 145.291 188.48 144.301 188.844L143.738 188.023C145.086 187.543 145.818 186.447 145.824 185.434V184.93H146.902V185.434ZM143.469 181.566C143.475 180.096 144.658 179.088 146.27 179.082C147.875 179.088 149.059 180.096 149.059 181.566C149.059 183.02 147.875 184.027 146.27 184.027C144.658 184.027 143.475 183.02 143.469 181.566ZM144.559 181.566C144.553 182.48 145.273 183.102 146.27 183.102C147.254 183.102 147.969 182.48 147.969 181.566C147.969 180.646 147.254 180.025 146.27 180.031C145.273 180.025 144.553 180.646 144.559 181.566ZM150.852 184.484V178.508H151.965V184.484H150.852ZM156.477 179.281C157.906 179.287 158.943 180.494 159.113 182.434H161.281V178.496H162.383V189.02H161.281V183.336H159.125C159.002 185.387 157.941 186.658 156.477 186.652C154.912 186.658 153.805 185.229 153.816 182.961C153.805 180.717 154.912 179.287 156.477 179.281ZM154.871 182.961C154.877 184.631 155.527 185.656 156.477 185.656C157.426 185.656 158.076 184.631 158.082 182.961C158.076 181.314 157.426 180.283 156.477 180.277C155.527 180.283 154.877 181.314 154.871 182.961ZM173.609 186.758V187.684H164V186.758H166.297V184.016C165.436 183.541 164.908 182.791 164.914 181.848C164.908 180.195 166.531 179.111 168.781 179.105C171.037 179.111 172.66 180.195 172.66 181.848C172.66 182.773 172.156 183.518 171.312 183.992V186.758H173.609ZM165.992 181.848C165.992 182.973 167.135 183.705 168.781 183.711C170.416 183.705 171.576 182.973 171.582 181.848C171.576 180.717 170.416 179.996 168.781 179.996C167.135 179.996 165.992 180.717 165.992 181.848ZM167.398 186.758H170.188V184.426C169.76 184.525 169.285 184.578 168.781 184.578C168.289 184.578 167.82 184.525 167.398 184.426V186.758Z" fill="white" fill-opacity="0.6"/>
</g>
</g>
<defs>
<filter id="filter0_b_1131_32288" x="-21.4612" y="-21.4612" width="395.922" height="262.922" filterUnits="userSpaceOnUse" color-interpolation-filters="sRGB">
<feFlood flood-opacity="0" result="BackgroundImageFix"/>
<feGaussianBlur in="BackgroundImageFix" stdDeviation="10.7306"/>
<feComposite in2="SourceAlpha" operator="in" result="effect1_backgroundBlur_1131_32288"/>
<feBlend mode="normal" in="SourceGraphic" in2="effect1_backgroundBlur_1131_32288" result="shape"/>
</filter>
<linearGradient id="paint0_linear_1131_32288" x1="150.042" y1="200.322" x2="-4.58469" y2="38.1137" gradientUnits="userSpaceOnUse">
<stop stop-color="#6DB2F8"/>
<stop offset="1" stop-color="white"/>
</linearGradient>
<clipPath id="clip0_1131_32288">
<rect width="353" height="220" rx="14" fill="white"/>
</clipPath>
<clipPath id="clip1_1131_32288">
<rect x="177" y="35" width="161.744" height="199" rx="27.2603" fill="white"/>
</clipPath>
<clipPath id="clip2_1131_32288">
<rect width="161.744" height="229.441" fill="white" transform="translate(177 35)"/>
</clipPath>
</defs>
</svg>
