<svg width="33" height="33" viewBox="0 0 33 33" fill="none" xmlns="http://www.w3.org/2000/svg">
<rect width="33" height="33" rx="16.5" fill="#F2F4F6"/>
<path d="M16.5 12C16.5 11.6022 16.658 11.2206 16.9393 10.9393C17.2206 10.658 17.6022 10.5 18 10.5C18.3978 10.5 18.7794 10.658 19.0607 10.9393C19.342 11.2206 19.5 11.6022 19.5 12M16.5 12C16.5 12.3978 16.658 12.7794 16.9393 13.0607C17.2206 13.342 17.6022 13.5 18 13.5C18.3978 13.5 18.7794 13.342 19.0607 13.0607C19.342 12.7794 19.5 12.3978 19.5 12M16.5 12L10.5 12M19.5 12L22.5 12M12 16.5C12 16.1022 12.158 15.7206 12.4393 15.4393C12.7206 15.158 13.1022 15 13.5 15C13.8978 15 14.2794 15.158 14.5607 15.4393C14.842 15.7206 15 16.1022 15 16.5M12 16.5C12 16.8978 12.158 17.2794 12.4393 17.5607C12.7206 17.842 13.1022 18 13.5 18C13.8978 18 14.2794 17.842 14.5607 17.5607C14.842 17.2794 15 16.8978 15 16.5M12 16.5L10.5 16.5M15 16.5L22.5 16.5M18.75 21C18.75 20.6022 18.908 20.2206 19.1893 19.9393C19.4706 19.658 19.8522 19.5 20.25 19.5C20.6478 19.5 21.0294 19.658 21.3107 19.9393C21.592 20.2206 21.75 20.6022 21.75 21M18.75 21C18.75 21.3978 18.908 21.7794 19.1893 22.0607C19.4706 22.342 19.8522 22.5 20.25 22.5C20.6478 22.5 21.0294 22.342 21.3107 22.0607C21.592 21.7794 21.75 21.3978 21.75 21M18.75 21L10.5 21M21.75 21L22.5 21" stroke="#B0B8C1" stroke-linecap="round" stroke-linejoin="round"/>
</svg>
