<svg width="60" height="60" viewBox="0 0 60 60" fill="none" xmlns="http://www.w3.org/2000/svg">
<g clip-path="url(#clip0_1075_15114)">
<rect width="60" height="60" rx="18" fill="#4196FD"/>
<g clip-path="url(#clip1_1075_15114)">
<path d="M31.0067 16.0964C31.0067 13.834 29.1731 12 26.9111 12C24.6492 12 22.8156 13.834 22.8156 16.0964V21.6887C22.8156 23.9511 24.6492 25.7851 26.9111 25.7851C29.1731 25.7851 31.0067 23.9511 31.0067 21.6887V16.0964Z" fill="white"/>
<path d="M43.7116 16.0964C43.7116 13.834 41.8779 12 39.616 12C37.3541 12 35.5204 13.834 35.5204 16.0964V21.6887C35.5204 23.9511 37.3541 25.7851 39.616 25.7851C41.8779 25.7851 43.7116 23.9511 43.7116 21.6887V16.0964Z" fill="white"/>
<path d="M29.8053 16.471C29.8053 14.8722 28.5096 13.5762 26.9113 13.5762C25.313 13.5762 24.0173 14.8722 24.0173 16.471V20.4234C24.0173 22.0222 25.313 23.3182 26.9113 23.3182C28.5096 23.3182 29.8053 22.0222 29.8053 20.4234V16.471Z" fill="#E9ECF2"/>
<path d="M42.5099 16.4719C42.5099 14.8732 41.2142 13.5771 39.6159 13.5771C38.0176 13.5771 36.7219 14.8732 36.7219 16.4719V20.4244C36.7219 22.0232 38.0176 23.3192 39.6159 23.3192C41.2142 23.3192 42.5099 22.0232 42.5099 20.4244V16.4719Z" fill="#E9ECF2"/>
<path d="M31.3803 14.0088H35.1484C39.8755 14.0088 43.7131 17.8464 43.7131 22.5735V49.2914H22.8156V22.5735C22.8156 17.8464 26.6532 14.0088 31.3803 14.0088Z" fill="white"/>
<path d="M34.5049 23.0572C34.5049 23.4809 33.9162 24.0243 33.2774 24.0243C32.6386 24.0243 32.1211 23.4809 32.1211 23.0572C32.1211 22.6335 32.6386 22.2891 33.2774 22.2891C33.9162 22.2891 34.5049 22.6319 34.5049 23.0572Z" fill="black"/>
<path d="M33.806 22.7786C33.7834 22.8077 33.7608 22.84 33.7559 22.8756C33.7511 22.9177 33.7705 22.9597 33.7883 22.9985C33.8707 23.1651 33.9581 23.3398 34.1085 23.4481C34.3333 23.6114 34.668 23.5839 34.8831 23.4061C34.9041 23.3883 34.9235 23.3689 34.9349 23.3446C34.9478 23.3106 34.9397 23.2718 34.9397 23.2346C34.9381 23.1311 34.9963 23.0357 35.006 22.9338C35.0303 22.6735 34.778 22.3969 34.5354 22.3565C34.2524 22.308 33.9726 22.5683 33.806 22.7786Z" fill="black"/>
<path d="M34.487 22.2308C34.4805 22.205 34.4725 22.1775 34.4547 22.1581C34.4336 22.1354 34.4013 22.129 34.3706 22.1209C34.2396 22.0918 34.1021 22.0643 33.9727 22.0998C33.7787 22.1532 33.6444 22.3554 33.6493 22.5559C33.6493 22.5753 33.6509 22.5963 33.6606 22.6125C33.6736 22.6351 33.6994 22.6481 33.7205 22.6642C33.7787 22.7095 33.8078 22.7855 33.8612 22.8373C33.997 22.9683 34.2671 22.9489 34.3997 22.8308C34.5549 22.6917 34.5323 22.4168 34.4886 22.2292L34.487 22.2308Z" fill="black"/>
<path d="M33.0201 21.991C32.9894 22.0121 32.9571 22.0347 32.9409 22.067C32.9215 22.1059 32.9263 22.1528 32.9328 22.1948C32.9571 22.3808 32.9829 22.5765 33.0913 22.7301C33.253 22.9614 33.5829 23.0438 33.8449 22.9436C33.8708 22.9339 33.8966 22.9225 33.9144 22.9015C33.9387 22.8724 33.9435 22.8336 33.9549 22.798C33.9872 22.6994 34.0745 22.6266 34.1166 22.5312C34.2266 22.2902 34.0745 21.9425 33.8562 21.8245C33.6007 21.6854 33.2481 21.8423 33.0201 21.9894V21.991Z" fill="black"/>
<path d="M32.8795 21.7243C32.8439 21.7178 32.8051 21.713 32.7712 21.7259C32.7307 21.7405 32.7032 21.7777 32.679 21.8132C32.5706 21.9636 32.459 22.1221 32.4348 22.3065C32.3976 22.5814 32.5787 22.8628 32.8358 22.9663C32.8601 22.976 32.8876 22.9857 32.9135 22.9825C32.9507 22.9776 32.9798 22.9534 33.0121 22.9356C33.1027 22.8854 33.2127 22.8919 33.3081 22.8515C33.549 22.7512 33.6719 22.3987 33.5943 22.1674C33.5037 21.8957 33.1447 21.7728 32.8811 21.7259L32.8795 21.7243Z" fill="black"/>
<path d="M32.9653 22.059C32.9523 22.0234 32.9362 21.9878 32.9071 21.9636C32.8731 21.9361 32.8278 21.9312 32.7842 21.9264C32.5966 21.9086 32.4009 21.8924 32.2262 21.9636C31.9658 22.0703 31.8122 22.3743 31.8526 22.6525C31.8559 22.68 31.8623 22.7075 31.8785 22.7301C31.9012 22.7609 31.9384 22.7738 31.9707 22.7932C32.0596 22.8466 32.1114 22.9468 32.1955 23.0099C32.4073 23.17 32.7793 23.0972 32.9426 22.9113C33.1351 22.6929 33.0591 22.3145 32.9653 22.059Z" fill="black"/>
<path d="M32.7114 22.3022C32.6888 22.2602 32.6613 22.2165 32.6192 22.1922C32.5707 22.1631 32.5109 22.1664 32.4543 22.168C32.2101 22.1809 31.9562 22.1971 31.7459 22.3216C31.4322 22.5092 31.2931 22.9265 31.3982 23.2774C31.4079 23.3114 31.4209 23.3453 31.4467 23.3712C31.4807 23.4052 31.5324 23.4149 31.5777 23.4343C31.7023 23.486 31.788 23.6041 31.906 23.6688C32.2068 23.8337 32.671 23.6688 32.8456 23.4003C33.0494 23.0833 32.8812 22.6111 32.7114 22.3022Z" fill="black"/>
<path d="M31.6585 23.1881C31.6294 23.2172 31.6003 23.2495 31.5906 23.29C31.5793 23.3369 31.5955 23.3854 31.6116 23.4307C31.6812 23.6263 31.7572 23.8317 31.9092 23.9724C32.1388 24.1827 32.514 24.1956 32.7744 24.0258C32.8003 24.0096 32.8245 23.9902 32.8391 23.9643C32.8585 23.9271 32.8553 23.8835 32.8585 23.843C32.8698 23.7282 32.9474 23.6296 32.9717 23.5164C33.0332 23.2301 32.7873 22.8905 32.5237 22.8129C32.2148 22.7223 31.8704 22.9746 31.6585 23.1881Z" fill="black"/>
<path d="M32.2665 23.3358C32.2309 23.3503 32.1953 23.3665 32.1727 23.3972C32.1468 23.4328 32.142 23.4781 32.1404 23.5217C32.129 23.711 32.1177 23.9083 32.1953 24.0813C32.3118 24.3401 32.6207 24.484 32.9004 24.4355C32.9279 24.4306 32.9554 24.4241 32.9765 24.4064C33.0056 24.3821 33.0185 24.3449 33.0363 24.3109C33.0864 24.2188 33.1867 24.1638 33.2465 24.0781C33.4002 23.8597 33.3161 23.4894 33.1236 23.3309C32.8972 23.1449 32.5204 23.2339 32.2665 23.3358Z" fill="black"/>
<path d="M32.5383 23.979C32.5205 24.0162 32.5044 24.055 32.5076 24.0955C32.5124 24.1424 32.5432 24.1828 32.5723 24.2184C32.7 24.3768 32.8375 24.5418 33.0251 24.6227C33.3065 24.744 33.6574 24.6324 33.8434 24.3898C33.8612 24.3655 33.879 24.3413 33.8838 24.3105C33.8903 24.2701 33.8725 24.2313 33.8628 24.1909C33.8353 24.0809 33.8757 23.9645 33.8612 23.8529C33.8256 23.5666 33.486 23.3337 33.2175 23.3483C32.9022 23.3661 32.6661 23.7122 32.5383 23.9774V23.979Z" fill="black"/>
<path d="M33.9581 23.3849C33.9387 23.3655 33.9177 23.3461 33.8902 23.3397C33.8595 23.3316 33.8271 23.3429 33.7964 23.3542C33.667 23.4011 33.5312 23.4512 33.439 23.5515C33.2999 23.7035 33.2918 23.9526 33.405 24.124C33.4163 24.1402 33.4293 24.158 33.4455 24.166C33.4697 24.179 33.4988 24.1757 33.5263 24.179C33.6023 24.1871 33.667 24.2372 33.7414 24.2534C33.9306 24.2938 34.1554 24.1305 34.2055 23.9558C34.2654 23.752 34.0972 23.524 33.9565 23.3849H33.9581Z" fill="black"/>
<path d="M33.6702 23.3913C33.6508 23.4171 33.6314 23.4446 33.6265 23.477C33.6217 23.5142 33.6395 23.5514 33.6557 23.5853C33.7284 23.7309 33.8077 23.8829 33.9403 23.9783C34.1392 24.1206 34.4335 24.0931 34.6195 23.9363C34.6373 23.9217 34.6551 23.9039 34.6648 23.8813C34.6761 23.8505 34.6696 23.8166 34.668 23.7842C34.6664 23.6937 34.7165 23.6096 34.7246 23.519C34.744 23.2894 34.5209 23.0484 34.3074 23.0144C34.0583 22.974 33.8141 23.2037 33.6702 23.3913Z" fill="black"/>
<path d="M34.115 22.6351C34.0843 22.6464 34.0536 22.6593 34.0325 22.6852C34.0083 22.7143 34.0034 22.7547 34.0002 22.7919C33.984 22.9553 33.9695 23.1267 34.0325 23.2787C34.1263 23.5051 34.3899 23.6393 34.6325 23.6054C34.6568 23.6021 34.681 23.5973 34.6988 23.5827C34.7247 23.5633 34.7376 23.531 34.7538 23.5019C34.8007 23.4243 34.888 23.379 34.943 23.3062C35.0821 23.1218 35.0206 22.7968 34.8573 22.6545C34.6665 22.4863 34.3366 22.5526 34.115 22.6334V22.6351Z" fill="black"/>
<path d="M28.699 25.4055C30.4278 27.5159 33.6978 27.5224 35.957 26.3596C37.4546 25.5882 39.3548 23.6298 38.8939 21.749C38.771 21.2444 37.9899 21.4579 38.1144 21.9641C38.4815 23.4648 36.6848 25.0788 35.5479 25.6626C33.5814 26.6718 30.7658 26.6637 29.2699 24.8346C28.94 24.4319 28.3707 25.006 28.6974 25.4071L28.699 25.4055Z" fill="black"/>
<path d="M30.4521 19.5205H30.4505C30.12 19.5205 29.8521 19.7884 29.8521 20.1189V20.8757C29.8521 21.2062 30.12 21.4741 30.4505 21.4741H30.4521C30.7826 21.4741 31.0505 21.2062 31.0505 20.8757V20.1189C31.0505 19.7884 30.7826 19.5205 30.4521 19.5205Z" fill="black"/>
<path d="M35.2616 19.5205H35.26C34.9295 19.5205 34.6617 19.7884 34.6617 20.1189V20.8757C34.6617 21.2062 34.9295 21.4741 35.26 21.4741H35.2616C35.5921 21.4741 35.86 21.2062 35.86 20.8757V20.1189C35.86 19.7884 35.5921 19.5205 35.2616 19.5205Z" fill="black"/>
<path d="M22.8157 31.6494C22.8157 31.6494 23.5596 35.1086 18.3409 43.4405C13.1222 51.7723 14.1297 63.9499 14.1297 63.9499H43.7133V41.0599L22.8173 31.6494H22.8157Z" fill="white"/>
<path d="M6.53069 19.2747L6.1739 19.5236C5.99077 19.6513 5.94588 19.9033 6.07364 20.0865L14.5806 32.281C14.7084 32.4641 14.9604 32.509 15.1436 32.3813L15.5003 32.1324C15.6835 32.0046 15.7284 31.7526 15.6006 31.5694L7.0936 19.3749C6.96585 19.1918 6.71383 19.1469 6.53069 19.2747Z" fill="#3D3F4D"/>
<path d="M15.6731 30.0887L13.1676 31.8365C12.9361 31.998 12.8794 32.3166 13.0408 32.548L15.6649 36.3096C15.8264 36.5411 16.145 36.5978 16.3765 36.4363L18.8819 34.6885C19.1134 34.527 19.1702 34.2084 19.0087 33.977L16.3846 30.2154C16.2231 29.9839 15.9046 29.9272 15.6731 30.0887Z" fill="#69AFEE"/>
<path d="M35.7934 58.9314L33.2879 60.6793C33.0564 60.8408 32.9997 61.1593 33.1611 61.3908L37.7015 67.8992C37.863 68.1307 38.1815 68.1875 38.413 68.026L40.9185 66.2781C41.15 66.1166 41.2067 65.7981 41.0452 65.5666L36.5049 59.0582C36.3434 58.8267 36.0248 58.77 35.7934 58.9314Z" fill="#3B80D3"/>
<path d="M18.6756 31.4126L13.3742 35.1109C13.1427 35.2724 13.0859 35.591 13.2474 35.8224L15.8715 39.584C16.033 39.8155 16.3515 39.8722 16.583 39.7107L21.8845 36.0124C22.1159 35.8509 22.1727 35.5324 22.0112 35.3009L19.3871 31.5393C19.2256 31.3079 18.9071 31.2511 18.6756 31.4126Z" fill="#3B80D3"/>
<path d="M15.1561 38.6042L21.3356 34.2934C22.3503 33.5855 23.7472 33.8355 24.4541 34.8489L39.5362 56.4684L29.6827 63.3423L14.6006 41.7227C13.8928 40.7081 14.1428 39.3111 15.1561 38.6042Z" fill="#E1F4FF"/>
<path d="M39.2289 55.0348L28.4443 62.5582C28.2128 62.7197 28.1561 63.0382 28.3176 63.2697L29.7055 65.2592C29.867 65.4907 30.1855 65.5475 30.417 65.386L41.2016 57.8626C41.4331 57.7011 41.4898 57.3825 41.3284 57.151L39.9404 55.1615C39.779 54.93 39.4604 54.8733 39.2289 55.0348Z" fill="#6DB2F8"/>
<path d="M25.9438 36.9844L26.6554 38.0043L22.7294 40.7432C22.5463 40.8709 22.2941 40.8259 22.1665 40.6429L21.9176 40.2861C21.7899 40.1031 21.8348 39.8509 22.0178 39.7232L25.9438 36.9844Z" fill="#AAC5E2"/>
<path d="M36.193 51.6807L36.9045 52.7006L32.9785 55.4395C32.7955 55.5671 32.5433 55.5222 32.4156 55.3392L32.1667 54.9824C32.039 54.7994 32.084 54.5472 32.267 54.4195L36.193 51.6807Z" fill="#AAC5E2"/>
<path d="M31.0687 44.3301L31.7802 45.35L26.1936 49.2473C26.0106 49.375 25.7584 49.3301 25.6307 49.147L25.3818 48.7903C25.2541 48.6072 25.299 48.355 25.4821 48.2274L31.0687 44.3301Z" fill="#AAC5E2"/>
<path d="M28.506 40.6582L29.2176 41.6782L26.4879 43.5824C26.3049 43.7101 26.0527 43.6652 25.925 43.4821L25.6761 43.1253C25.5484 42.9423 25.5934 42.6901 25.7764 42.5624L28.506 40.6582Z" fill="#AAC5E2"/>
<path d="M33.6312 48.0059L34.3428 49.0258L31.6131 50.93C31.4301 51.0577 31.1779 51.0128 31.0502 50.8298L30.8013 50.473C30.6736 50.29 30.7186 50.0378 30.9016 49.9101L33.6312 48.0059Z" fill="#AAC5E2"/>
<path d="M42.7187 38.6943C41.6611 38.5147 42.0088 44.707 40.1296 45.5625C37.7329 46.6525 35.5723 47.2477 33.9324 47.5921C32.7664 46.4698 31.2188 46.3857 30.4846 46.8951C29.684 47.4498 29.9638 48.2309 30.2792 48.7339C29.7326 49.0104 29.2377 49.3371 28.8172 49.7365C25.7332 52.6605 26.207 56.2539 30.022 57.7708C33.9551 59.3347 38.742 56.8911 42.992 54.669C43.5079 54.399 44.0222 54.1111 44.0222 54.1111C44.3974 53.8944 45.227 53.4141 45.7381 53.0001C46.5806 52.3176 47.179 51.3117 47.4022 50.4869C48.0749 47.9948 44.9812 39.0792 42.7203 38.6959L42.7187 38.6943Z" fill="white"/>
<path d="M42.992 54.6688C38.742 56.8908 33.9535 59.3344 30.022 57.7706C26.2087 56.2537 25.7348 52.6586 28.8172 49.7363C29.2377 49.3385 29.7326 49.0102 30.2792 48.7337C29.9638 48.2307 29.684 47.4496 30.4846 46.8949C31.2188 46.3855 32.7664 46.4696 33.9324 47.5919C33.9324 47.5919 39.6687 46.4502 39.7156 45.2793" stroke="#E9ECF2" stroke-width="0.485162" stroke-linecap="round" stroke-linejoin="round"/>
<path d="M17.0585 55.3135C18.0466 54.8931 18.294 54.1103 19.4147 52.3767C20.8443 50.1644 22.3403 48.4986 23.5354 47.3213C25.1235 47.6367 26.4722 46.8717 26.8135 46.0453C27.187 45.1462 26.5304 44.64 25.9935 44.3861C26.304 43.8589 26.5434 43.3155 26.6825 42.7527C27.6997 38.6272 25.3596 35.8585 21.3311 36.6413C17.1765 37.4483 14.4661 42.0896 12.0888 46.2556C11.7993 46.7618 11.5228 47.2825 11.5228 47.2825C11.3238 47.6674 10.8856 48.5197 10.6786 49.1439C10.339 50.1724 10.3778 51.3433 10.6365 52.1584C11.416 54.6181 14.948 56.2111 17.0585 55.3135Z" fill="white"/>
<path d="M12.0888 46.2575C14.4661 42.0932 17.1765 37.4502 21.3311 36.6432C25.3612 35.8605 27.6997 38.6292 26.6824 42.7546C26.5434 43.3174 26.304 43.8592 25.9935 44.388C26.5304 44.6403 27.187 45.1481 26.8134 46.0473C26.4706 46.8721 25.1218 47.637 23.5354 47.3233L20.592 50.611" stroke="#E9ECF2" stroke-width="0.485162" stroke-linecap="round" stroke-linejoin="round"/>
</g>
</g>
<defs>
<clipPath id="clip0_1075_15114">
<rect width="60" height="60" rx="30" fill="white"/>
</clipPath>
<clipPath id="clip1_1075_15114">
<rect width="41.4943" height="60" fill="white" transform="translate(6 12)"/>
</clipPath>
</defs>
</svg>
