<svg width="144" height="70" viewBox="0 0 144 70" fill="none" xmlns="http://www.w3.org/2000/svg">
<path d="M75.8889 2.5V10.2778C75.8889 10.7935 76.0938 11.2881 76.4584 11.6527C76.8231 12.0174 77.3176 12.2222 77.8333 12.2222H85.6111" fill="#4196FD"/>
<path d="M81.7222 37.5H62.2778C61.2464 37.5 60.2572 37.0903 59.5279 36.361C58.7986 35.6317 58.3889 34.6425 58.3889 33.6111V6.38889C58.3889 5.35749 58.7986 4.36834 59.5279 3.63903C60.2572 2.90972 61.2464 2.5 62.2778 2.5H75.8889L85.6111 12.2222V33.6111C85.6111 34.6425 85.2014 35.6317 84.4721 36.361C83.7428 37.0903 82.7536 37.5 81.7222 37.5Z" fill="#4196FD"/>
<path d="M75.8889 2.5V10.2778C75.8889 10.7935 76.0938 11.2881 76.4584 11.6527C76.8231 12.0174 77.3177 12.2222 77.8334 12.2222H85.6111" fill="#8DC8FF"/>
<path d="M64.2222 18.0557H72" stroke="white" stroke-width="1.94444" stroke-linecap="round"/>
<path d="M64.2222 23.8896H77.8333" stroke="white" stroke-width="1.94444" stroke-linecap="round"/>
<path d="M64.2222 29.7227H81.7222" stroke="white" stroke-width="1.94444" stroke-linecap="round"/>
<path d="M53.6289 51.4961V57.2148H52.5273V54.8945H50.5586V53.9805H52.5273V51.4961H53.6289ZM44.8984 56.5117C46.5098 55.9492 47.5176 54.5723 47.5117 53.125V52.9844H45.2383V52.082H50.8984V52.9844H48.6484V53.1367C48.6426 54.4375 49.5918 55.7559 51.1797 56.2891L50.6055 57.1562C49.4219 56.7344 48.5547 55.9023 48.0977 54.8711C47.6406 56.0254 46.7207 56.9512 45.4727 57.3906L44.8984 56.5117ZM46.7969 61.8672V57.6836H47.8984V58.8906H52.5273V57.6836H53.6289V61.8672H46.7969ZM47.8984 60.9648H52.5273V59.7578H47.8984V60.9648ZM60.5898 55.2344V56.6523H64.832V57.5664H55.2578V56.6523H59.4883V55.2344H60.5898ZM55.75 54.9062C57.6484 54.7129 59.1367 53.8809 59.2891 52.8672H56.1367V51.9766H63.9766V52.8672H60.7891C60.9473 53.875 62.4355 54.7129 64.3398 54.9062L63.9414 55.7852C62.1191 55.5742 60.6133 54.8242 60.0391 53.7168C59.4648 54.8242 57.9707 55.5742 56.1484 55.7852L55.75 54.9062ZM56.3945 60.1562C56.3945 58.9785 57.7539 58.3281 60.0391 58.3281C62.3066 58.3281 63.6543 58.9785 63.6602 60.1562C63.6543 61.3281 62.3066 61.9785 60.0391 61.9727C57.7539 61.9785 56.3945 61.3281 56.3945 60.1562ZM57.5195 60.1562C57.5137 60.7832 58.416 61.1289 60.0391 61.1289C61.6387 61.1289 62.5469 60.7832 62.5469 60.1562C62.5469 59.5293 61.6387 59.1895 60.0391 59.1836C58.416 59.1895 57.5137 59.5293 57.5195 60.1562ZM77.2656 51.5078V59.1367H76.1523V51.5078H77.2656ZM68.7695 54.8125C68.7754 53.2949 69.9824 52.2168 71.5703 52.2109C73.1523 52.2168 74.3594 53.2949 74.3594 54.8125C74.3594 56.3535 73.1523 57.4258 71.5703 57.4258C69.9824 57.4258 68.7754 56.3535 68.7695 54.8125ZM69.8594 54.8125C69.8535 55.8027 70.5918 56.4531 71.5703 56.4531C72.5312 56.4531 73.2695 55.8027 73.2695 54.8125C73.2695 53.8457 72.5312 53.1836 71.5703 53.1836C70.5918 53.1836 69.8535 53.8457 69.8594 54.8125ZM70.3984 61.7734V58.3633H71.5234V60.8711H77.582V61.7734H70.3984ZM88.5039 56.4414V57.3438H78.9297V56.4414H88.5039ZM79.4336 55.0117C81.3379 54.8066 82.8438 53.9512 82.9668 52.9258H79.8086V52.0117H87.6484V52.9258H84.4551C84.584 53.9453 86.0664 54.8066 88.0117 55.0117L87.6133 55.8906C85.791 55.6797 84.2852 54.9121 83.7168 53.8047C83.1367 54.9121 81.6426 55.6797 79.8203 55.8906L79.4336 55.0117ZM80.0664 60.0742C80.0664 58.8555 81.4316 58.1523 83.7109 58.1523C85.9727 58.1523 87.3262 58.8555 87.332 60.0742C87.3262 61.293 85.9727 61.9785 83.7109 61.9727C81.4316 61.9785 80.0664 61.293 80.0664 60.0742ZM81.1914 60.0742C81.1855 60.7363 82.1055 61.0996 83.7109 61.0938C85.293 61.0996 86.2188 60.7363 86.2188 60.0742C86.2188 59.3945 85.293 59.0312 83.7109 59.0195C82.1055 59.0312 81.1855 59.3945 81.1914 60.0742ZM93.0859 54.168C93.0859 56.0898 94.1641 58.0059 95.7695 58.7266L95.0898 59.6172C93.9004 59.0195 92.998 57.8359 92.5352 56.4004C92.0723 57.9121 91.1582 59.1895 89.9453 59.8164L89.2422 58.9141C90.8711 58.1348 91.9551 56.1133 91.9609 54.168V52.375H93.0859V54.168ZM94.6094 55.8906V54.9883H96.9531V51.4961H98.0547V62.0195H96.9531V55.8906H94.6094Z" fill="#4E5968"/>
</svg>
