<svg width="600" height="600" viewBox="0 0 600 600" fill="none" xmlns="http://www.w3.org/2000/svg">
<g clip-path="url(#clip0_148_19139)">
<path d="M506.677 450.849C506.677 450.849 499.679 435.359 496.589 436.314C492.707 437.52 487.945 459.379 486.338 463.111C480.459 476.805 462.267 508.754 420.532 508.754H198.289C192.472 508.754 186.919 511.166 182.936 515.412L112.947 590.138C107.056 596.432 98.8266 600 90.2083 600H58.5108C56.7023 600 54.9804 599.711 53.3596 599.196C45.4828 596.646 40.3316 588.43 42.1914 579.811L52.2292 532.963L53.0584 529.106C53.7865 525.689 53.0462 522.121 51.0352 519.27C49.8926 517.649 48.7609 516.016 47.6182 514.37C22.3548 477.834 -1.90488 435.999 0.118285 390.609V348.786C-1.16342 257.426 79.6059 169.736 174.307 182.437C174.307 182.437 210.401 158.379 261.721 152.5H261.747C306.999 147.311 364.111 156.294 418.773 208.368L418.058 220.893C418.058 220.893 435.143 222.614 439.528 222.702C464.579 223.167 551.705 231.396 565.624 322.441L548.362 324.538L567.471 343.421C569.455 411.853 530.546 440.032 506.677 450.849Z" fill="#FF888F"/>
<path d="M198.289 508.753C192.472 508.753 186.92 511.165 182.937 515.411L112.948 590.137C107.056 596.431 98.827 599.999 90.2087 599.999H58.5113C56.7027 599.999 54.9808 599.71 53.36 599.195C53.3344 599.17 53.3222 599.17 53.2979 599.158C59.2149 597.75 64.643 594.66 68.8759 590.137L136.755 517.672C142.082 511.981 149.52 508.753 157.309 508.753H198.289Z" fill="#FF5761"/>
<path d="M506.678 450.849C506.678 450.849 499.68 435.359 496.59 436.314C492.709 437.52 487.946 459.38 486.339 463.111C480.46 476.805 462.268 508.754 420.533 508.754H376.461C415.206 508.754 433.649 481.228 440.81 466.328C443.523 460.65 448.36 456.303 454.29 454.205C476.842 446.241 530.172 418.225 522.76 332.682C514.544 237.806 431.815 224.514 400.571 222.88C392.895 222.491 385.621 219.25 380.206 213.772C340.419 173.607 299.074 156.949 261.748 152.501C307 147.312 364.112 156.295 418.775 208.369L418.059 220.895C418.059 220.895 435.144 222.615 439.529 222.703C464.581 223.168 551.706 231.397 565.625 322.442L548.363 324.54L567.472 343.423C569.456 411.853 530.547 440.032 506.678 450.849Z" fill="#FF5761"/>
<path d="M119.267 480.209C100.699 524.746 64.0511 531.831 52.2291 532.963L53.0584 529.105C53.7864 525.688 53.0462 522.12 51.0352 519.269C49.8925 517.648 48.7608 516.015 47.6182 514.369C47.9072 514.331 48.2084 514.319 48.5096 514.319C50.1047 514.293 85.0303 513.376 101.866 472.96C103.875 468.149 109.391 465.875 114.19 467.885C118.99 469.882 121.264 475.398 119.267 480.209Z" fill="#FF6D75"/>
<path d="M425.481 226.019C420.481 227.564 414.588 229.775 408.609 232.853C388.571 243.155 376.56 258.156 372.929 277.44C372.076 281.963 368.131 285.115 363.683 285.115C363.105 285.115 362.515 285.065 361.925 284.952C356.811 283.997 353.457 279.073 354.412 273.947C358.559 251.962 371.272 233.833 391.435 220.994L420.711 219.725L425.481 226.019Z" fill="#FF6D75"/>
<path d="M395.469 452.085C381.968 452.085 368.746 451.105 356.17 449.175C351.028 448.385 347.497 443.575 348.287 438.431C349.078 433.288 353.892 429.757 359.031 430.548C370.662 432.335 382.923 433.24 395.469 433.24C400.674 433.24 404.891 437.458 404.891 442.662C404.892 447.866 400.674 452.085 395.469 452.085Z" fill="#FF6D75"/>
<path d="M315.045 438.226C313.939 438.226 312.813 438.03 311.717 437.615C259.896 418.041 228.15 381.949 210.641 355.12C191.696 326.088 184.981 301.74 184.705 300.718C183.345 295.693 186.316 290.52 191.339 289.162C196.358 287.804 201.527 290.768 202.892 295.784C202.958 296.026 209.306 318.77 226.79 345.381C249.99 380.693 280.804 405.793 318.378 419.987C323.246 421.825 325.701 427.263 323.862 432.131C322.435 435.903 318.849 438.226 315.045 438.226Z" fill="#FF6D75"/>
<path d="M253.491 247.881C252.22 246.367 221.839 210.81 174.903 215.372C154.58 218.384 149.848 221.338 137.014 227.627C114.552 240.07 100.167 260.09 95.4092 285.518C92.1812 302.779 93.597 321.008 98.0202 338.626C95.8165 345.06 88.0568 364.348 72.4714 370.748L44.9215 367.747C39.7227 367.18 35.0971 370.923 34.5337 376.093C33.9703 381.266 37.7081 385.918 42.88 386.481L61.8983 388.553L56.7459 409.184C55.4849 414.232 58.5556 419.347 63.6044 420.608C64.3715 420.799 65.1398 420.891 65.8946 420.891C70.1166 420.891 73.9592 418.031 75.0288 413.749L81.6324 387.304C92.9494 382.035 101.038 372.866 106.591 364.102C113.995 381.64 123.869 397.626 134.344 410.187C136.208 412.421 138.886 413.575 141.586 413.575C143.713 413.575 145.854 412.858 147.616 411.388C151.613 408.057 152.151 402.114 148.818 398.118C132.432 378.47 122.234 356.909 116.975 336.897C116.941 336.747 116.896 336.599 116.854 336.452C112.204 318.526 111.525 301.869 113.935 288.983C117.675 268.978 128.514 253.88 146.153 244.108C194.276 217.191 231.694 251.474 239.049 259.987C240.913 262.211 243.584 263.357 246.276 263.357C248.413 263.357 250.559 262.634 252.325 261.156C256.31 257.812 256.832 251.869 253.491 247.881Z" fill="#FF6D75"/>
<path d="M241.266 456.641C240.564 456.641 239.851 456.561 239.139 456.397C234.068 455.227 230.906 450.168 232.077 445.097C239.869 411.326 267.051 398.169 268.205 397.625C272.908 395.407 278.527 397.424 280.745 402.131C282.957 406.822 280.959 412.418 276.284 414.651C275.352 415.105 256.101 424.798 250.439 449.335C249.433 453.692 245.555 456.639 241.266 456.641Z" fill="#FF6D75"/>
<path d="M529.869 327.601L523.437 346.487C520.17 348.271 516.037 347.92 513.06 345.457C508.55 341.725 508.714 335.004 513.048 331.085C515.963 328.459 518.889 326.274 521.842 324.502L529.869 327.601Z" fill="#FF6D75"/>
<path d="M487.719 434.881C485.847 413.561 476.287 386.449 441.713 377.141L440.571 376.839C423.145 372.141 406.65 367.693 391.562 362.668C391.337 362.605 391.11 362.53 390.884 362.442C346.75 347.63 314.789 327.668 307.264 281.423C306.434 276.285 309.915 271.447 315.053 270.606C320.191 269.776 325.028 273.257 325.87 278.395C331.749 314.514 356.31 330.833 394.59 343.874C423.134 336.021 430.32 311.373 430.622 310.292C432.016 305.304 437.181 302.352 442.181 303.709C447.18 305.066 450.157 310.18 448.827 315.18C448.512 316.36 442.583 337.643 421.415 352.065C429.066 354.214 437.094 356.375 445.473 358.636L446.617 358.95C476.844 367.092 496.518 387.192 503.779 417.244L500.61 430.439L487.719 434.881Z" fill="#FF6D75"/>
<path d="M198.289 508.752C192.472 508.752 186.92 511.165 182.937 515.411L112.948 590.136C107.056 596.43 98.827 599.999 90.2087 599.999H58.5113C56.7027 599.999 54.9808 599.71 53.36 599.195C53.3344 599.169 53.3222 599.169 53.2979 599.157C59.2149 597.75 64.643 594.66 68.8759 590.136L136.755 517.672C142.082 511.98 149.52 508.752 157.309 508.752H198.289Z" fill="#FF5761"/>
<path d="M427.969 217.576C430.997 220.754 435.143 222.614 439.528 222.702C439.377 222.714 433.599 223.506 425.483 226.019C415.721 224.059 407.04 223.217 400.569 222.879C397.429 222.715 394.351 222.075 391.437 220.995C394.326 219.161 397.379 217.426 400.569 215.806C407.015 212.539 413.296 210.128 418.773 208.368C421.851 211.307 424.917 214.373 427.969 217.576Z" fill="#FF2532"/>
<path d="M504.755 421.665C506.878 432.52 507.092 442.821 506.677 450.849C502.08 452.934 498.047 454.379 494.955 455.334C491.073 456.54 487.945 459.379 486.337 463.111C486.588 461.905 489.038 449.806 487.719 434.882C493.322 430.07 498.825 424.253 503.775 417.243C504.139 418.687 504.466 420.17 504.755 421.665Z" fill="#FF2532"/>
<path d="M567.47 343.421C557.168 339.125 542.646 335.896 534.981 338.798C531.086 340.281 528.31 342.341 525.346 345.118C524.755 345.67 524.114 346.122 523.436 346.487C523.398 342.065 523.173 337.466 522.758 332.68C522.519 329.879 522.205 327.152 521.841 324.502C535.421 316.348 549.555 316.876 565.624 322.442C566.126 325.746 566.541 329.151 566.842 332.681C567.169 336.36 567.37 339.942 567.47 343.421Z" fill="#FF2532"/>
<path d="M436.864 226.402C429.838 226.397 422.941 224.516 416.886 220.952C410.831 217.389 405.837 212.273 402.422 206.133L385.882 176.366L395.075 171.255L411.615 201.027C414.213 205.701 418.057 209.562 422.72 212.18C427.383 214.798 432.681 216.071 438.024 215.855C443.367 215.64 448.546 213.945 452.983 210.96C457.42 207.975 460.941 203.817 463.154 198.949L478.175 165.903C479.377 163.259 482.495 162.09 485.139 163.293C487.782 164.495 488.95 167.612 487.748 170.255L472.726 203.304C469.588 210.184 464.54 216.018 458.182 220.112C451.825 224.207 444.426 226.39 436.864 226.402Z" fill="#77787C"/>
<path d="M343.178 120.01L432.551 10.7773V34.5223C432.553 44.924 431.047 55.271 428.081 65.2409L343.178 120.01Z" fill="#77787C"/>
<path d="M318.387 136.008L479.884 31.814C475.054 52.746 464.995 72.1113 450.647 88.0991C436.299 104.087 418.131 116.175 397.842 123.234L396.311 123.759" fill="#B4B5B9"/>
<path d="M270.423 189.946C274.305 193.646 278.95 196.453 284.03 198.171C289.111 199.889 294.506 200.476 299.838 199.891C305.169 199.306 310.309 197.563 314.896 194.784C319.483 192.005 323.408 188.257 326.396 183.803L378.34 181.878C400.98 181.037 422.944 173.941 441.797 161.377C460.649 148.813 475.652 131.273 485.143 110.701L319.433 135.072C314.062 130.58 307.522 127.713 300.58 126.806C293.638 125.9 286.581 126.992 280.237 129.954C273.894 132.916 268.526 137.626 264.765 143.531C261.003 149.436 259.003 156.291 259 163.292" fill="#303030"/>
<path d="M505.722 142.561C448.405 226.097 345.763 195 309.381 172.439V148.658L505.722 142.561Z" fill="#FF5761"/>
<path d="M295.814 136.997C287.492 137.003 279.418 139.828 272.908 145.013C266.398 150.197 261.837 157.434 259.968 165.543L270.423 189.946C274.305 193.646 278.95 196.453 284.031 198.171C289.111 199.889 294.506 200.476 299.838 199.891C305.169 199.306 310.309 197.563 314.896 194.784C319.484 192.005 323.408 188.257 326.396 183.803L378.34 181.878C398.778 181.108 418.699 175.236 436.287 164.799C453.876 154.361 468.574 139.689 479.042 122.119L319.433 145.59C312.82 140.03 304.454 136.986 295.814 136.997Z" fill="#4B4B4C"/>
<path d="M185.342 221.096C183.901 218.575 184.777 215.364 187.298 213.923L248.053 179.206L253.27 188.336L192.515 223.053C189.994 224.493 186.783 223.618 185.342 221.096Z" fill="#77787C"/>
<path d="M458.574 114.609L447.972 116.186C447.115 130.148 444.583 143.956 440.43 157.313L438.579 163.376C443.431 160.356 448.065 157 452.447 153.332C455.799 140.935 457.852 128.224 458.574 115.403V114.609Z" fill="#C2C3C5"/>
<path d="M427.051 119.242L416.443 120.82C415.386 139.3 411.382 157.493 404.584 174.71L403.122 178.391C407.455 177.306 411.724 175.984 415.912 174.431C422.351 156.957 426.107 138.608 427.051 120.01V119.242Z" fill="#C2C3C5"/>
<path d="M395.538 123.88L384.909 125.458C383.913 144.136 379.908 162.531 373.05 179.932L372.177 182.099L378.34 181.873C380.134 181.804 381.906 181.631 383.689 181.489C390.635 163.216 394.635 143.955 395.538 124.427V123.88Z" fill="#C2C3C5"/>
<path d="M363.684 128.582L353.05 130.16C351.619 147.7 347.541 164.923 340.954 181.242L340.181 183.298L351.535 182.883C358.222 165.748 362.31 147.709 363.663 129.366L363.684 128.582Z" fill="#C2C3C5"/>
<path d="M449.991 263.216C444.965 263.213 439.958 262.597 435.082 261.38L378.683 247.281C377.872 247.08 377.122 246.689 376.493 246.14C375.863 245.591 375.374 244.901 375.064 244.125L325.176 117.112L322.63 142.802C322.343 145.694 319.764 147.805 316.873 147.514C313.985 147.224 311.879 144.649 312.167 141.761L316.904 94.3976C317.021 93.223 317.53 92.122 318.348 91.2716C319.167 90.4213 320.248 89.8711 321.417 89.7096C322.587 89.5481 323.776 89.7847 324.795 90.3813C325.813 90.9779 326.602 91.8998 327.033 92.9987L383.863 237.735L437.632 251.172C445.142 253.053 452.982 253.197 460.555 251.592C468.128 249.988 475.236 246.677 481.338 241.913C487.44 237.149 492.375 231.056 495.769 224.098C499.162 217.139 500.924 209.499 500.921 201.758V200.106C500.921 197.202 503.275 194.847 506.18 194.847C509.084 194.847 511.439 197.202 511.439 200.106V201.758C511.42 218.05 504.94 233.669 493.421 245.19C481.901 256.711 466.283 263.194 449.991 263.216Z" fill="#77787C"/>
<path d="M259 194.847C267.714 194.847 274.777 187.783 274.777 179.07C274.777 170.356 267.714 163.292 259 163.292C250.286 163.292 243.223 170.356 243.223 179.07C243.223 187.783 250.286 194.847 259 194.847Z" fill="#303030"/>
<path d="M419.02 305.631C402.095 302.264 386.551 293.946 374.359 281.733C363.786 271.119 356.092 257.986 352.003 243.573L321.784 161.478C321.438 160.538 320.831 159.715 320.034 159.108C319.237 158.501 318.284 158.134 317.285 158.051C316.287 157.968 315.286 158.171 314.399 158.637C313.512 159.104 312.777 159.814 312.281 160.684L302.288 178.149L306.333 105.736C306.408 104.462 306.017 103.203 305.232 102.195C304.448 101.188 303.323 100.5 302.069 100.26C300.815 100.021 299.516 100.246 298.415 100.894C297.315 101.541 296.487 102.567 296.088 103.78L249.534 243.42L188.395 266.934C185.683 267.977 184.329 271.021 185.372 273.733C186.415 276.446 189.46 277.8 192.173 276.757L255.629 252.35C256.354 252.072 257.009 251.635 257.545 251.073C258.082 250.512 258.487 249.838 258.732 249.1L293.642 144.359L290.634 198.571L290.04 199.622C294.075 200.323 298.205 200.279 302.225 199.491L315.799 175.704L341.995 246.834C346.936 264.124 356.543 279.72 369.762 291.911C382.982 304.102 399.304 312.417 416.937 315.944L436.869 319.93C439.716 320.5 442.485 318.653 443.054 315.806C443.624 312.96 441.778 310.191 438.932 309.621L419.02 305.631Z" fill="#77787C"/>
</g>
<defs>
<clipPath id="clip0_148_19139">
<rect width="600" height="600" fill="white"/>
</clipPath>
</defs>
</svg>
