<svg width="25" height="24" viewBox="0 0 25 24" fill="none" xmlns="http://www.w3.org/2000/svg">
<path d="M19.9 3C20.6652 2.99996 21.4015 3.29233 21.9583 3.81728C22.515 4.34224 22.8501 5.06011 22.895 5.824L22.9 6V18C22.9001 18.7652 22.6077 19.5015 22.0827 20.0583C21.5578 20.615 20.8399 20.9501 20.076 20.995L19.9 21H5.90001C5.1348 21 4.39849 20.7077 3.84175 20.1827C3.285 19.6578 2.9499 18.9399 2.90501 18.176L2.90001 18V6C2.89997 5.23479 3.19233 4.49849 3.71729 3.94174C4.24225 3.38499 4.96012 3.04989 5.72401 3.005L5.90001 3H19.9ZM17.9 15H7.90001L7.78301 15.007C7.53996 15.0359 7.31595 15.153 7.15342 15.336C6.99089 15.519 6.90112 15.7552 6.90112 16C6.90112 16.2448 6.99089 16.481 7.15342 16.664C7.31595 16.847 7.53996 16.9641 7.78301 16.993L7.90001 17H17.9L18.017 16.993C18.2601 16.9641 18.4841 16.847 18.6466 16.664C18.8091 16.481 18.8989 16.2448 18.8989 16C18.8989 15.7552 18.8091 15.519 18.6466 15.336C18.4841 15.153 18.2601 15.0359 18.017 15.007L17.9 15ZM17.9 11H7.90001L7.78301 11.007C7.53996 11.0359 7.31595 11.153 7.15342 11.336C6.99089 11.519 6.90112 11.7552 6.90112 12C6.90112 12.2448 6.99089 12.481 7.15342 12.664C7.31595 12.847 7.53996 12.9641 7.78301 12.993L7.90001 13H17.9L18.017 12.993C18.2601 12.9641 18.4841 12.847 18.6466 12.664C18.8091 12.481 18.8989 12.2448 18.8989 12C18.8989 11.7552 18.8091 11.519 18.6466 11.336C18.4841 11.153 18.2601 11.0359 18.017 11.007L17.9 11ZM17.9 7H7.90001L7.78301 7.007C7.53996 7.03591 7.31595 7.15296 7.15342 7.33596C6.99089 7.51897 6.90112 7.75524 6.90112 8C6.90112 8.24476 6.99089 8.48103 7.15342 8.66403C7.31595 8.84704 7.53996 8.96409 7.78301 8.993L7.90001 9H17.9L18.017 8.993C18.2601 8.96409 18.4841 8.84704 18.6466 8.66403C18.8091 8.48103 18.8989 8.24476 18.8989 8C18.8989 7.75524 18.8091 7.51897 18.6466 7.33596C18.4841 7.15296 18.2601 7.03591 18.017 7.007L17.9 7Z" fill="#4196FD"/>
</svg>
