<svg width="101" height="100" viewBox="0 0 101 100" fill="none" xmlns="http://www.w3.org/2000/svg">
<path d="M43.3204 74.5569C25.6497 74.5569 11.3247 60.2319 11.3247 42.5611C11.3247 24.8904 25.6497 10.5654 43.3204 10.5654C60.9912 10.5654 75.3161 24.8904 75.3161 42.5611C75.3161 60.2319 60.9912 74.5569 43.3204 74.5569Z" fill="#FF545E"/>
<path d="M43.3204 80.9562C39.4457 80.9562 36.3047 77.8152 36.3047 73.9405C36.3047 70.1053 39.382 66.9888 43.2023 66.9258C43.2417 66.9251 43.281 66.9248 43.3204 66.9248C47.1951 66.9248 50.3361 70.0658 50.3361 73.9405C50.3361 77.8152 47.1951 80.9562 43.3204 80.9562Z" fill="#FF545E"/>
<path d="M69.5708 8.89319C68.2058 10.258 67.6995 12.2615 68.2522 14.1109C65.7692 15.648 60.8793 16.0849 60.8793 16.0849C53.1255 17.3575 68.1839 33.2842 69.6463 24.8518C69.6463 24.8518 70.2438 20.1205 71.7812 17.6379C73.6302 18.1905 75.6332 17.6845 76.9981 16.3202C79.0489 14.2691 79.0159 10.911 76.9981 8.89303C74.9801 6.87522 71.5998 6.86402 69.5708 8.89319Z" fill="#49B340"/>
<path d="M18.0042 73.511C19.0395 72.4759 19.4234 70.9563 19.0043 69.5536C20.8875 68.3878 25.1119 67.4195 25.1119 67.4195C30.9927 66.4543 19.5717 54.3748 18.4627 60.7703C18.4627 60.7703 17.4939 64.9958 16.3278 66.8786C14.9254 66.4594 13.4063 66.8432 12.3711 67.878C10.8156 69.4336 10.8407 71.9806 12.3711 73.5111C13.9014 75.0415 16.4654 75.0498 18.0042 73.511Z" fill="#49B340"/>
<path d="M73.3836 63.9894C72.0188 62.6245 70.0152 62.1181 68.1659 62.6708C66.6288 60.1878 65.352 54.618 65.352 54.618C64.0794 46.8643 48.1527 61.9226 56.585 63.385C56.585 63.385 62.1563 64.6624 64.6388 66.1998C64.0863 68.0488 64.5923 70.0518 65.9566 71.4167C68.0077 73.4675 71.3658 73.4345 73.3837 71.4167C75.4016 69.3987 75.4128 66.0182 73.3836 63.9894Z" fill="#49B340"/>
<path d="M43.3205 4.1665C46.1258 4.1665 48.3998 6.4406 48.3998 9.24582C48.3998 12.051 46.1258 14.3251 43.3205 14.3251C40.5153 14.3251 38.2412 12.051 38.2412 9.24582C38.2412 6.4406 40.5153 4.1665 43.3205 4.1665Z" fill="#FF545E"/>
<path d="M36.5619 35.1107C34.9715 36.701 32.393 36.701 30.8026 35.1107C29.2123 33.5203 29.2123 30.9418 30.8026 29.3515C32.393 27.7611 34.9715 27.7611 36.5619 29.3515C38.1522 30.9418 38.1522 33.5203 36.5619 35.1107Z" fill="#FF9BA1"/>
<path d="M53.4996 53.0621C50.4749 56.0868 45.5711 56.0868 42.5464 53.0621C39.5217 50.0374 39.5217 45.1336 42.5464 42.1089C45.5711 39.0842 50.4749 39.0842 53.4996 42.1089C56.5243 45.1336 56.5243 50.0376 53.4996 53.0621Z" fill="#FF9BA1"/>
<path d="M11.3248 16.9041C12.4944 18.0572 14.2022 18.4759 15.7724 17.9944C17.0953 20.0978 18.2156 24.8293 18.2156 24.8293C19.3455 31.419 32.8055 18.5095 25.622 17.3165C25.622 17.3165 20.8738 16.2634 18.7522 14.9704C19.2111 13.3939 18.7685 11.6926 17.5994 10.5395C15.8417 8.80695 12.9844 8.85542 11.2797 10.5846C9.57483 12.3137 9.58586 15.1901 11.3248 16.9041Z" fill="#49B340"/>
<path d="M8.51818 46.3804C9.77513 46.33 10.9031 45.5941 11.4557 44.464C13.3243 44.8253 16.5563 46.6753 16.5563 46.6753C20.8325 49.4927 20.659 35.2091 16.2319 38.6016C16.2319 38.6016 13.1577 40.7055 11.3242 41.215C10.6828 40.1333 9.49981 39.4903 8.24318 39.5405C6.35447 39.6165 4.88603 41.2395 4.96074 43.0978C5.03561 44.9563 6.64963 46.4556 8.51818 46.3804Z" fill="#FF545E"/>
<path d="M78.157 46.3804C76.9 46.33 75.772 45.5941 75.2194 44.464C73.3509 44.8253 70.1188 46.6753 70.1188 46.6753C65.8426 49.4927 66.0162 35.2091 70.4433 38.6016C70.4433 38.6016 73.5174 40.7055 75.3509 41.215C75.9923 40.1333 77.1753 39.4903 78.432 39.5405C80.3207 39.6165 81.7891 41.2395 81.7144 43.0978C81.6395 44.9563 80.0255 46.4556 78.157 46.3804Z" fill="#FF545E"/>
<path d="M52.949 95.8329H46.9466C41.8789 95.8329 37.7559 91.6381 37.7559 86.482C37.7559 81.3261 41.8789 77.1313 46.9466 77.1313C47.5681 77.1313 48.072 77.644 48.072 78.2763C48.072 78.9088 47.5682 79.4213 46.9466 79.4213C43.1199 79.4213 40.0066 82.5888 40.0066 86.482C40.0066 90.3753 43.1199 93.5428 46.9466 93.5428H52.949C53.5705 93.5428 54.0744 94.0554 54.0744 94.6877C54.0744 94.9914 53.9559 95.2827 53.7448 95.4975C53.5337 95.7122 53.2475 95.8329 52.949 95.8329Z" fill="#FFEEEF"/>
<path d="M88.0687 77.4297C90.6169 77.4297 92.6828 79.5316 92.6828 82.1241C92.6828 84.7167 90.6169 86.8185 88.0687 86.8185H85.2546C84.2605 86.8185 83.4546 85.9986 83.4546 84.9872V82.1241C83.4546 79.5314 85.5204 77.4297 88.0687 77.4297Z" fill="#8B95A1"/>
<path d="M88.4348 85.8139C90.1402 85.8139 91.5276 84.4023 91.5276 82.6672C91.5276 80.9322 90.1402 79.5205 88.4348 79.5205C86.7295 79.5205 85.3418 80.9322 85.3418 82.6672V85.5303C85.342 85.6869 85.4668 85.8139 85.6207 85.8139H88.4348Z" fill="#FFEEEF"/>
<path d="M81.5403 82.0681C81.3496 82.0681 81.1602 82.0731 80.9715 82.081C77.3801 78.2095 72.2899 75.7925 66.6443 75.7925C55.7658 75.7925 46.9468 84.7649 46.9468 95.8329H95.0697C95.0697 88.2308 89.0125 82.0681 81.5403 82.0681Z" fill="#6B7684"/>
<path d="M77.3729 77.4297C74.8247 77.4297 72.7588 79.5316 72.7588 82.1241C72.7588 84.7167 74.8246 86.8185 77.3729 86.8185H80.187C81.1811 86.8185 81.987 85.9986 81.987 84.9872V82.1241C81.987 79.5314 79.9211 77.4297 77.3729 77.4297Z" fill="#8B95A1"/>
<path d="M77.9065 85.8139C76.2012 85.8139 74.8135 84.4023 74.8135 82.6672C74.8135 80.9322 76.2012 79.5205 77.9065 79.5205C79.6119 79.5205 80.9992 80.9322 80.9992 82.6672V85.5303C80.9992 85.6869 80.8745 85.8138 80.7206 85.8139H77.9065Z" fill="#FFEEEF"/>
<path d="M93.5972 94.3352C93.5971 94.8704 93.8777 95.365 94.3332 95.6327C94.7888 95.9003 95.3501 95.9003 95.8057 95.6327C96.2613 95.365 96.5419 94.8704 96.5418 94.3352C96.5419 93.7999 96.2613 93.3053 95.8057 93.0376C95.3501 92.77 94.7888 92.77 94.3332 93.0376C93.8777 93.3053 93.5971 93.7999 93.5972 94.3352Z" fill="#333D4B"/>
<path d="M83.7876 87.2509C83.7876 87.6443 84.1011 87.9632 84.4877 87.9632C84.8744 87.9632 85.1879 87.6443 85.1879 87.2509C85.1879 86.8575 84.8744 86.5386 84.4877 86.5386C84.1011 86.5386 83.7876 86.8575 83.7876 87.2509Z" fill="#333D4B"/>
<path d="M60.9792 95.8327C60.9792 93.2189 58.8969 91.1001 56.3279 91.1001C53.7588 91.1001 51.6763 93.2189 51.6763 95.8327H60.9792ZM80.486 95.8327C80.486 93.2189 78.4038 91.1001 75.8347 91.1001C73.2657 91.1001 71.1831 93.2189 71.1831 95.8327H80.486Z" fill="#8B95A1"/>
</svg>
