<svg width="600" height="600" viewBox="0 0 600 600" fill="none" xmlns="http://www.w3.org/2000/svg">
<path d="M269.311 298.594C280.092 341.812 273.844 436.477 262.448 488.77C248.016 554.962 192.534 576.562 141.562 584.737C90.989 592.866 53.878 589.983 39.8437 546.009C-14.0204 377.287 105.469 251.864 163.383 227.606C207.394 209.18 250.27 222.37 269.311 298.594Z" fill="#FF5761"/>
<path d="M332.034 298.594C321.253 341.812 327.501 436.477 338.897 488.77C353.33 554.962 408.811 576.562 459.764 584.737C510.337 592.866 547.448 589.983 561.483 546.009C615.347 377.287 495.858 251.864 437.944 227.606C393.951 209.18 351.094 222.37 332.034 298.594Z" fill="#FF5761"/>
<path d="M515.573 304.842C517.176 304.842 518.475 303.543 518.475 301.941C518.475 300.338 517.176 299.039 515.573 299.039C513.971 299.039 512.672 300.338 512.672 301.941C512.672 303.543 513.971 304.842 515.573 304.842Z" fill="#0C5FC3"/>
<path d="M269.311 298.594C280.092 341.812 273.309 459.23 261.914 511.523C247.481 577.716 193.542 581.325 142.969 589.453C92.3951 597.581 53.878 589.983 39.8437 546.009C-14.0204 377.287 105.469 251.864 163.383 227.606C207.394 209.18 250.27 222.37 269.311 298.594Z" fill="#D1D6DB"/>
<path d="M332.034 298.594C321.253 341.812 327.501 436.477 338.897 488.77C353.33 554.962 408.811 576.562 459.764 584.737C510.337 592.866 547.448 589.983 561.483 546.009C615.347 377.287 495.858 251.864 437.944 227.606C393.951 209.18 351.094 222.37 332.034 298.594Z" fill="#D1D6DB"/>
<path d="M307.917 244.299C307.204 242.975 306.146 241.868 304.854 241.097C303.563 240.325 302.086 239.918 300.582 239.918C299.077 239.918 297.6 240.325 296.309 241.097C295.017 241.868 293.959 242.975 293.247 244.299C275.184 278.204 234.352 319.138 219.515 331.072C214.168 335.364 214.361 345.007 215.715 348.077C219.656 356.535 224.989 364.271 231.494 370.964C233.619 372.752 235.055 375.223 235.557 377.953C236.058 380.683 235.594 383.502 234.243 385.928C232.892 388.353 230.739 390.234 228.153 391.247C225.567 392.26 222.708 392.343 220.067 391.482C212.968 389.24 206.462 385.434 201.032 380.345C199.087 378.589 196.53 377.668 193.912 377.779C191.294 377.89 188.824 379.026 187.037 380.94C181.469 387.132 176.229 393.609 171.337 400.345C170.578 401.365 170.037 402.53 169.747 403.767C169.456 405.004 169.423 406.287 169.649 407.537C169.875 408.788 170.355 409.978 171.06 411.036C171.765 412.093 172.68 412.995 173.747 413.685C180.643 417.744 186.666 423.127 191.468 429.525C192.802 431.663 193.473 434.147 193.395 436.665C193.317 439.182 192.494 441.62 191.03 443.671C189.141 446.381 186.27 448.249 183.025 448.879C179.781 449.51 176.418 448.853 173.651 447.047C168.058 443.832 162.246 441.012 156.259 438.608C154.507 437.839 152.535 437.733 150.71 438.309C148.885 438.885 147.332 440.104 146.34 441.74C140.112 452 130.386 467.933 127.173 472.496C125.617 475.196 123.178 477.279 120.267 478.396C117.355 479.512 114.148 479.594 111.184 478.627C108.009 477.421 105.433 475.02 104.008 471.938C102.583 468.857 102.423 465.341 103.562 462.143C103.873 461.329 107.068 452.123 109.847 444.985C110.021 444.531 110.091 444.045 110.052 443.561C110.013 443.077 109.867 442.608 109.623 442.188C109.379 441.768 109.044 441.408 108.643 441.134C108.242 440.86 107.785 440.68 107.305 440.605C96.8073 438.954 91.1225 437.732 85.6744 433.865C83.5479 432.311 82.0056 430.088 81.295 427.553C80.5844 425.018 80.7467 422.318 81.756 419.886L81.8568 419.641C82.9225 416.969 84.915 414.769 87.4702 413.444C90.0254 412.119 92.9725 411.757 95.7729 412.424C103.226 414.03 110.797 415.03 118.411 415.415C120.094 415.524 121.775 415.17 123.27 414.39C124.765 413.61 126.016 412.434 126.888 410.992C130.149 405.601 133.682 399.816 136.846 393.934C138.497 390.911 138.968 387.383 138.168 384.033C137.369 380.683 135.355 377.748 132.516 375.795C124.226 370.166 114.343 367.351 104.329 367.767C102.73 367.795 101.141 367.502 99.6574 366.907C98.1733 366.312 96.8235 365.426 95.6872 364.302C94.5509 363.178 93.6513 361.838 93.0412 360.361C92.4312 358.884 92.1231 357.3 92.135 355.702V355.387C92.1929 352.157 93.4084 349.055 95.5605 346.644C97.7127 344.233 100.659 342.673 103.864 342.248C119.207 340.143 134.82 343.079 148.348 350.613C151.234 352.097 154.552 352.516 157.717 351.795C160.882 351.074 163.69 349.259 165.647 346.672C166.651 345.358 167.668 344.044 168.654 342.796C170.776 340.092 171.808 336.693 171.547 333.267C171.287 329.841 169.753 326.637 167.247 324.284C158.209 315.744 149.654 305.672 146.546 294.855C145.847 292.197 146.151 289.375 147.402 286.927C148.653 284.479 150.762 282.578 153.327 281.585C155.512 280.785 157.885 280.649 160.147 281.194C162.409 281.74 164.459 282.943 166.037 284.651C170.829 291.13 176.584 296.838 183.105 301.577C185.825 303.3 189.012 304.14 192.229 303.984C195.446 303.827 198.536 302.68 201.076 300.701C218.822 285.745 258.883 255.773 270.047 196.524C279.449 146.63 273.067 72.1011 271.112 25.3379C271.022 23.2752 271.351 21.2157 272.079 19.2834C272.807 17.3511 273.919 15.586 275.348 14.0945C276.777 12.603 278.493 11.416 280.393 10.6049C282.293 9.79377 284.338 9.37541 286.405 9.375H314.758C316.825 9.37541 318.87 9.79377 320.77 10.6049C322.67 11.416 324.387 12.603 325.815 14.0945C327.244 15.586 328.356 17.3511 329.084 19.2834C329.812 21.2157 330.141 23.2752 330.051 25.3379C328.096 72.1011 321.723 146.647 331.116 196.524C342.28 255.773 382.354 285.745 400.088 300.662C402.627 302.641 405.717 303.787 408.934 303.944C412.151 304.101 415.338 303.26 418.058 301.538C424.577 296.811 430.334 291.116 435.13 284.651C436.709 282.943 438.759 281.74 441.021 281.194C443.283 280.649 445.656 280.785 447.841 281.585C450.405 282.579 452.513 284.482 453.762 286.931C455.011 289.379 455.314 292.202 454.613 294.859C451.514 305.654 442.958 315.727 433.925 324.271C431.419 326.624 429.885 329.828 429.624 333.254C429.364 336.68 430.396 340.079 432.518 342.783C433.504 344.04 434.521 345.345 435.525 346.658C437.482 349.246 440.29 351.06 443.455 351.781C446.62 352.503 449.938 352.084 452.824 350.6C466.352 343.066 481.965 340.13 497.308 342.235C500.513 342.66 503.459 344.22 505.611 346.631C507.764 349.041 508.979 352.144 509.037 355.374V355.689C509.049 357.287 508.741 358.871 508.131 360.348C507.521 361.824 506.621 363.165 505.485 364.289C504.348 365.413 502.999 366.299 501.514 366.894C500.03 367.489 498.442 367.782 496.843 367.754C486.829 367.338 476.946 370.152 468.656 375.781C465.817 377.735 463.803 380.67 463.003 384.02C462.204 387.37 462.675 390.897 464.325 393.921C467.49 399.802 471.023 405.588 474.284 410.979C475.156 412.421 476.407 413.597 477.902 414.377C479.397 415.157 481.078 415.511 482.761 415.402C490.375 415.017 497.946 414.016 505.399 412.411C508.199 411.744 511.146 412.106 513.702 413.431C516.257 414.756 518.249 416.956 519.315 419.628L519.416 419.873C520.425 422.305 520.588 425.005 519.877 427.54C519.166 430.075 517.624 432.298 515.497 433.852C510.049 437.719 504.365 438.941 493.867 440.592C493.387 440.667 492.931 440.848 492.53 441.123C492.129 441.397 491.795 441.757 491.551 442.176C491.308 442.596 491.161 443.065 491.122 443.548C491.083 444.032 491.152 444.518 491.325 444.972C494.113 452.11 497.303 461.315 497.61 462.13C498.749 465.328 498.589 468.844 497.164 471.925C495.739 475.007 493.163 477.408 489.988 478.614C487.024 479.581 483.816 479.499 480.905 478.382C477.994 477.266 475.555 475.183 473.999 472.483C470.786 467.92 461.06 451.987 454.832 441.726C453.84 440.091 452.287 438.872 450.462 438.296C448.637 437.72 446.665 437.826 444.913 438.595C438.926 440.999 433.114 443.819 427.521 447.034C424.753 448.839 421.391 449.497 418.147 448.866C414.902 448.236 412.031 446.368 410.142 443.658C408.678 441.607 407.855 439.169 407.777 436.651C407.699 434.134 408.37 431.649 409.704 429.512C414.506 423.114 420.528 417.73 427.425 413.672C428.492 412.982 429.407 412.08 430.112 411.023C430.816 409.965 431.297 408.774 431.523 407.524C431.749 406.274 431.715 404.99 431.425 403.753C431.135 402.516 430.594 401.352 429.835 400.332C424.943 393.596 419.703 387.118 414.135 380.927C412.347 379.013 409.878 377.877 407.26 377.766C404.642 377.654 402.084 378.576 400.14 380.332C394.71 385.421 388.204 389.227 381.105 391.468C378.455 392.362 375.576 392.3 372.967 391.293C370.358 390.287 368.184 388.4 366.823 385.959C365.461 383.519 364.998 380.679 365.513 377.933C366.028 375.186 367.489 372.707 369.643 370.925C376.147 364.232 381.481 356.495 385.422 348.038C386.776 344.972 386.969 335.338 381.622 331.033C366.812 319.138 325.979 278.204 307.917 244.299Z" fill="#8B95A1"/>
<path d="M440.711 514.719C438.989 512.08 436.764 509.806 434.163 508.028C431.561 506.25 428.634 505.003 425.549 504.359L394.226 497.813C387.995 496.511 381.503 497.738 376.176 501.223C370.85 504.708 367.126 510.166 365.824 516.396C364.522 522.627 365.748 529.12 369.233 534.446C372.718 539.772 378.177 543.496 384.407 544.798L415.731 551.344C417.711 551.779 419.744 551.928 421.767 551.788C426.047 551.619 430.198 550.282 433.772 547.922C436.411 546.201 438.685 543.975 440.462 541.374C442.24 538.772 443.487 535.845 444.131 532.761C444.776 529.676 444.805 526.495 444.218 523.399C443.631 520.303 442.439 517.354 440.711 514.719Z" fill="#F81522"/>
<path d="M444.132 532.761C445.036 528.436 449.275 525.663 453.6 526.567L461.235 528.162C465.56 529.066 468.333 533.305 467.429 537.629C466.525 541.954 462.287 544.728 457.962 543.824L450.327 542.228C446.002 541.325 443.229 537.086 444.132 532.761Z" fill="#F81522"/>
<path d="M343.778 511.789C344.682 507.464 348.92 504.691 353.245 505.595L360.88 507.19C365.205 508.094 367.978 512.333 367.075 516.658C366.171 520.983 361.932 523.756 357.607 522.852L349.972 521.257C345.647 520.353 342.874 516.114 343.778 511.789Z" fill="#F81522"/>
<path d="M440.643 514.693C438.224 510.996 439.26 506.038 442.958 503.619L449.485 499.348C453.182 496.929 458.14 497.965 460.559 501.662C462.978 505.36 461.942 510.318 458.245 512.737L451.718 517.007C448.021 519.427 443.062 518.39 440.643 514.693Z" fill="#F81522"/>
<path d="M420.95 487.257C421.854 482.932 426.093 480.158 430.418 481.062C434.743 481.966 437.516 486.205 436.612 490.53L435.017 498.165C434.113 502.489 429.874 505.263 425.549 504.359C421.224 503.455 418.451 499.217 419.355 494.892L420.95 487.257Z" fill="#F81522"/>
<path d="M406.263 557.538C407.167 553.214 411.406 550.44 415.73 551.344C420.055 552.248 422.829 556.486 421.925 560.811L420.329 568.446C419.426 572.771 415.187 575.544 410.862 574.641C406.537 573.737 403.764 569.498 404.668 565.173L406.263 557.538Z" fill="#F81522"/>
<path d="M431.385 558.981C428.966 555.283 430.002 550.325 433.7 547.906C437.397 545.487 442.355 546.523 444.774 550.22L449.045 556.747C451.464 560.445 450.427 565.403 446.73 567.822C443.033 570.241 438.075 569.205 435.656 565.508L431.385 558.981Z" fill="#F81522"/>
<path d="M360.77 492.365C358.351 488.668 359.388 483.709 363.085 481.29C366.782 478.871 371.74 479.907 374.159 483.605L378.43 490.132C380.849 493.829 379.813 498.787 376.116 501.206C372.418 503.625 367.46 502.589 365.041 498.892L360.77 492.365Z" fill="#F81522"/>
<path d="M389.627 480.711C390.531 476.386 394.77 473.613 399.095 474.517C403.419 475.42 406.193 479.659 405.289 483.984L403.693 491.619C402.79 495.944 398.551 498.717 394.226 497.813C389.901 496.91 387.128 492.671 388.032 488.346L389.627 480.711Z" fill="#F81522"/>
<path d="M374.94 550.993C375.844 546.668 380.082 543.895 384.407 544.798C388.732 545.702 391.505 549.941 390.602 554.266L389.006 561.901C388.102 566.226 383.864 568.999 379.539 568.095C375.214 567.191 372.441 562.953 373.344 558.628L374.94 550.993Z" fill="#F81522"/>
<path d="M349.258 547.44C346.839 543.743 347.875 538.785 351.572 536.366L358.099 532.095C361.796 529.676 366.755 530.713 369.174 534.41C371.593 538.107 370.556 543.065 366.859 545.484L360.332 549.755C356.635 552.174 351.677 551.138 349.258 547.44Z" fill="#F81522"/>
<path d="M414.094 559.175L382.771 552.629C374.463 550.893 367.186 545.928 362.539 538.826C357.892 531.724 356.257 523.067 357.993 514.76C359.729 506.452 364.694 499.175 371.796 494.528C378.898 489.881 387.555 488.246 395.862 489.982L427.186 496.528C435.493 498.264 442.771 503.229 447.417 510.331C452.064 517.433 453.699 526.09 451.963 534.397C450.227 542.705 445.262 549.982 438.16 554.629C431.058 559.276 422.402 560.911 414.094 559.175ZM392.589 505.644C388.436 504.776 384.107 505.594 380.556 507.917C377.005 510.24 374.523 513.879 373.655 518.033C372.787 522.187 373.604 526.515 375.928 530.066C378.251 533.617 381.89 536.099 386.044 536.967L417.367 543.513C421.521 544.381 425.849 543.564 429.4 541.24C432.951 538.917 435.434 535.278 436.302 531.124C437.17 526.971 436.352 522.642 434.029 519.091C431.705 515.54 428.067 513.058 423.913 512.19L392.589 505.644Z" fill="#FF5761"/>
<path d="M142.479 535.548C142.898 532.425 142.696 529.249 141.884 526.205C141.073 523.16 139.669 520.305 137.752 517.804L118.288 492.403C114.417 487.351 108.697 484.044 102.387 483.209C96.0764 482.373 89.6929 484.079 84.6405 487.951C79.5881 491.822 76.2806 497.542 75.4456 503.853C74.6105 510.163 76.3164 516.546 80.188 521.599L99.6515 546.999C100.869 548.621 102.311 550.061 103.936 551.275C107.289 553.939 111.307 555.635 115.555 556.179C118.678 556.597 121.853 556.394 124.898 555.583C127.943 554.771 130.797 553.367 133.299 551.451C135.8 549.534 137.898 547.143 139.473 544.414C141.049 541.685 142.07 538.672 142.479 535.548Z" fill="#F81522"/>
<path d="M133.299 551.452C136.806 548.764 141.828 549.429 144.515 552.936L149.26 559.127C151.947 562.634 151.282 567.656 147.775 570.343C144.268 573.03 139.247 572.366 136.559 568.859L131.815 562.668C129.128 559.16 129.792 554.139 133.299 551.452Z" fill="#F81522"/>
<path d="M70.9417 470.074C74.4487 467.386 79.4703 468.051 82.1576 471.558L86.9018 477.749C89.5892 481.256 88.9247 486.278 85.4177 488.965C81.9106 491.652 76.8891 490.988 74.2017 487.481L69.4575 481.29C66.7702 477.783 67.4346 472.761 70.9417 470.074Z" fill="#F81522"/>
<path d="M142.446 535.484C143.025 531.104 147.046 528.023 151.426 528.603L159.159 529.626C163.539 530.206 166.62 534.226 166.04 538.606C165.46 542.986 161.44 546.067 157.06 545.488L149.327 544.464C144.947 543.885 141.866 539.864 142.446 535.484Z" fill="#F81522"/>
<path d="M145.428 501.844C148.935 499.156 153.956 499.821 156.643 503.328C159.331 506.835 158.666 511.856 155.159 514.544L148.968 519.288C145.461 521.975 140.439 521.311 137.752 517.804C135.065 514.297 135.729 509.275 139.236 506.588L145.428 501.844Z" fill="#F81522"/>
<path d="M88.4356 545.515C91.9426 542.827 96.9642 543.492 99.6515 546.999C102.339 550.506 101.674 555.528 98.1673 558.215L91.976 562.959C88.469 565.646 83.4475 564.982 80.7601 561.475C78.0728 557.968 78.7372 552.946 82.2443 550.259L88.4356 545.515Z" fill="#F81522"/>
<path d="M106.531 563.001C107.11 558.621 111.131 555.54 115.511 556.12C119.891 556.699 122.972 560.72 122.392 565.1L121.369 572.832C120.789 577.213 116.769 580.293 112.389 579.714C108.009 579.134 104.928 575.114 105.507 570.734L106.531 563.001Z" fill="#F81522"/>
<path d="M96.4932 466.444C97.0729 462.063 101.093 458.983 105.474 459.562C109.854 460.142 112.935 464.162 112.355 468.543L111.332 476.275C110.752 480.655 106.731 483.736 102.351 483.156C97.9713 482.577 94.8904 478.556 95.47 474.176L96.4932 466.444Z" fill="#F81522"/>
<path d="M125.964 476.443C129.471 473.756 134.492 474.42 137.18 477.927C139.867 481.434 139.203 486.456 135.696 489.143L129.504 493.888C125.997 496.575 120.976 495.91 118.288 492.403C115.601 488.896 116.266 483.875 119.773 481.187L125.964 476.443Z" fill="#F81522"/>
<path d="M68.9722 520.115C72.4792 517.427 77.5008 518.092 80.1881 521.599C82.8755 525.106 82.211 530.127 78.704 532.815L72.5127 537.559C69.0056 540.246 63.9841 539.582 61.2967 536.075C58.6094 532.568 59.2739 527.546 62.7809 524.859L68.9722 520.115Z" fill="#F81522"/>
<path d="M51.8299 500.664C52.4095 496.284 56.4302 493.203 60.8103 493.783L68.5428 494.806C72.9229 495.385 76.0038 499.406 75.4242 503.786C74.8446 508.166 70.824 511.247 66.4439 510.668L58.7113 509.644C54.3312 509.065 51.2503 505.044 51.8299 500.664Z" fill="#F81522"/>
<path d="M93.3016 551.865L73.8381 526.465C68.676 519.728 66.4015 511.217 67.5149 502.803C68.6282 494.39 73.0383 486.763 79.7748 481.601C86.5114 476.439 95.0226 474.164 103.436 475.278C111.85 476.391 119.477 480.801 124.639 487.538L144.102 512.938C149.264 519.674 151.539 528.186 150.425 536.599C149.312 545.013 144.902 552.64 138.165 557.802C131.429 562.964 122.918 565.238 114.504 564.125C106.09 563.012 98.4636 558.601 93.3016 551.865ZM111.938 497.269C109.357 493.901 105.544 491.696 101.337 491.139C97.1305 490.583 92.8748 491.72 89.5066 494.301C86.1383 496.882 83.9333 500.695 83.3766 504.902C82.8199 509.109 83.9572 513.365 86.5382 516.733L106.002 542.133C108.583 545.501 112.396 547.706 116.603 548.263C120.81 548.82 125.065 547.683 128.434 545.102C131.802 542.521 134.007 538.707 134.564 534.5C135.12 530.294 133.983 526.038 131.402 522.67L111.938 497.269Z" fill="#FF5761"/>
<path d="M118.005 258.721C121.141 259.026 124.307 258.71 127.32 257.789C130.334 256.868 133.136 255.362 135.567 253.356L160.248 232.989C165.158 228.938 168.257 223.103 168.864 216.766C169.471 210.43 167.536 204.113 163.485 199.203C159.433 194.293 153.598 191.194 147.262 190.587C140.925 189.981 134.608 191.916 129.698 195.967L105.016 216.334C103.439 217.609 102.052 219.102 100.898 220.769C98.3558 224.216 96.8058 228.293 96.4157 232.558C96.1109 235.694 96.4279 238.86 97.3486 241.873C98.2693 244.887 99.7755 247.689 101.781 250.119C103.787 252.55 106.252 254.56 109.036 256.036C111.82 257.512 114.867 258.425 118.005 258.721Z" fill="#F81522"/>
<path d="M101.78 250.12C104.592 253.528 104.109 258.57 100.701 261.382L94.6852 266.347C91.2773 269.159 86.2351 268.676 83.423 265.268C80.611 261.86 81.0939 256.818 84.5018 254.006L90.518 249.041C93.9258 246.229 98.968 246.712 101.78 250.12Z" fill="#F81522"/>
<path d="M180.856 184.868C183.668 188.276 183.185 193.318 179.778 196.131L173.761 201.095C170.354 203.907 165.311 203.424 162.499 200.016C159.687 196.608 160.17 191.566 163.578 188.754L169.594 183.79C173.002 180.978 178.044 181.461 180.856 184.868Z" fill="#F81522"/>
<path d="M118.067 258.685C122.465 259.106 125.689 263.013 125.268 267.411L124.524 275.176C124.103 279.574 120.196 282.798 115.798 282.376C111.4 281.955 108.176 278.048 108.597 273.65L109.341 265.885C109.762 261.487 113.669 258.263 118.067 258.685Z" fill="#F81522"/>
<path d="M151.793 260.451C154.605 263.859 154.122 268.901 150.714 271.714C147.306 274.526 142.264 274.043 139.452 270.635L134.488 264.619C131.676 261.211 132.159 256.169 135.566 253.356C138.974 250.544 144.017 251.027 146.829 254.435L151.793 260.451Z" fill="#F81522"/>
<path d="M106.095 205.071C108.907 208.479 108.424 213.522 105.016 216.334C101.608 219.146 96.5662 218.663 93.7541 215.255L88.7897 209.239C85.9777 205.831 86.4606 200.789 89.8685 197.977C93.2763 195.164 98.3186 195.647 101.131 199.055L106.095 205.071Z" fill="#F81522"/>
<path d="M89.2728 223.785C93.6709 224.207 96.8948 228.113 96.4735 232.512C96.0523 236.91 92.1453 240.134 87.7472 239.712L79.9827 238.969C75.5846 238.547 72.3607 234.64 72.782 230.242C73.2033 225.844 77.1102 222.62 81.5083 223.042L89.2728 223.785Z" fill="#F81522"/>
<path d="M185.406 210.272C189.804 210.694 193.028 214.601 192.606 218.999C192.185 223.397 188.278 226.621 183.88 226.199L176.116 225.456C171.717 225.034 168.494 221.128 168.915 216.729C169.336 212.331 173.243 209.107 177.641 209.529L185.406 210.272Z" fill="#F81522"/>
<path d="M176.475 240.084C179.287 243.492 178.804 248.535 175.396 251.347C171.988 254.159 166.946 253.676 164.134 250.268L159.17 244.252C156.358 240.844 156.841 235.802 160.248 232.989C163.656 230.177 168.698 230.66 171.511 234.068L176.475 240.084Z" fill="#F81522"/>
<path d="M130.777 184.705C133.589 188.113 133.106 193.155 129.698 195.967C126.29 198.779 121.248 198.296 118.436 194.888L113.472 188.872C110.66 185.464 111.143 180.422 114.55 177.61C117.958 174.798 123 175.281 125.813 178.689L130.777 184.705Z" fill="#F81522"/>
<path d="M149.597 166.872C153.995 167.293 157.219 171.2 156.798 175.598L156.054 183.363C155.633 187.761 151.726 190.985 147.327 190.564C142.929 190.142 139.705 186.235 140.127 181.837L140.87 174.073C141.292 169.675 145.199 166.451 149.597 166.872Z" fill="#F81522"/>
<path d="M99.9247 210.163L124.606 189.796C131.153 184.395 139.576 181.815 148.024 182.624C156.473 183.433 164.254 187.565 169.655 194.111C175.057 200.657 177.637 209.081 176.828 217.529C176.018 225.978 171.886 233.758 165.34 239.16L140.658 259.527C134.112 264.928 125.689 267.508 117.24 266.699C108.792 265.89 101.011 261.758 95.6097 255.212C90.2081 248.666 87.6281 240.242 88.4373 231.794C89.2465 223.346 93.3786 215.565 99.9247 210.163ZM155.157 226.819C158.43 224.118 160.496 220.228 160.9 216.004C161.305 211.78 160.015 207.568 157.314 204.295C154.613 201.022 150.723 198.956 146.499 198.551C142.275 198.146 138.063 199.436 134.79 202.137L110.108 222.504C106.835 225.205 104.769 229.095 104.364 233.319C103.96 237.544 105.25 241.755 107.951 245.028C110.651 248.301 114.542 250.368 118.766 250.772C122.99 251.177 127.202 249.887 130.475 247.186L155.157 226.819Z" fill="#FF5761"/>
<path d="M520.249 311.57C522.845 309.782 525.062 307.501 526.773 304.855C528.485 302.209 529.658 299.252 530.224 296.152L535.977 264.673C537.121 258.412 535.732 251.952 532.113 246.715C528.495 241.479 522.945 237.894 516.683 236.749C510.422 235.605 503.962 236.995 498.725 240.613C493.488 244.231 489.904 249.782 488.759 256.043L483.006 287.522C482.621 289.513 482.523 291.549 482.714 293.568C482.991 297.842 484.433 301.958 486.882 305.471C488.67 308.066 490.952 310.283 493.597 311.994C496.243 313.705 499.201 314.878 502.3 315.445C505.4 316.011 508.581 315.96 511.661 315.295C514.741 314.631 517.659 313.364 520.249 311.57Z" fill="#F81522"/>
<path d="M502.3 315.446C506.646 316.24 509.526 320.407 508.731 324.754L507.329 332.427C506.535 336.773 502.367 339.652 498.021 338.858C493.675 338.064 490.795 333.896 491.59 329.55L492.992 321.877C493.786 317.531 497.954 314.651 502.3 315.446Z" fill="#F81522"/>
<path d="M520.732 214.594C525.078 215.388 527.958 219.556 527.164 223.902L525.761 231.575C524.967 235.921 520.799 238.8 516.453 238.006C512.107 237.212 509.228 233.044 510.022 228.698L511.424 221.025C512.219 216.679 516.386 213.8 520.732 214.594Z" fill="#F81522"/>
<path d="M520.274 311.502C523.909 308.99 528.892 309.901 531.403 313.536L535.837 319.953C538.349 323.588 537.438 328.571 533.803 331.082C530.168 333.594 525.185 332.683 522.674 329.048L518.24 322.631C515.728 318.996 516.639 314.013 520.274 311.502Z" fill="#F81522"/>
<path d="M547.205 291.123C551.551 291.917 554.43 296.084 553.636 300.431C552.842 304.777 548.674 307.656 544.328 306.862L536.655 305.46C532.309 304.665 529.429 300.498 530.224 296.152C531.018 291.805 535.185 288.926 539.532 289.72L547.205 291.123Z" fill="#F81522"/>
<path d="M476.575 278.214C480.921 279.008 483.8 283.176 483.006 287.522C482.212 291.868 478.044 294.748 473.698 293.953L466.025 292.551C461.679 291.757 458.8 287.589 459.594 283.243C460.388 278.897 464.556 276.017 468.902 276.812L476.575 278.214Z" fill="#F81522"/>
<path d="M475.767 303.364C479.402 300.853 484.385 301.763 486.896 305.398C489.408 309.033 488.497 314.016 484.862 316.528L478.445 320.962C474.81 323.473 469.827 322.563 467.316 318.928C464.804 315.293 465.715 310.31 469.35 307.798L475.767 303.364Z" fill="#F81522"/>
<path d="M540.579 231.091C544.214 228.579 549.197 229.49 551.709 233.125C554.22 236.76 553.31 241.743 549.675 244.254L543.258 248.688C539.623 251.2 534.64 250.289 532.128 246.654C529.617 243.019 530.527 238.036 534.162 235.525L540.579 231.091Z" fill="#F81522"/>
<path d="M552.958 259.644C557.304 260.439 560.184 264.606 559.389 268.952C558.595 273.298 554.428 276.178 550.081 275.384L542.408 273.981C538.062 273.187 535.183 269.019 535.977 264.673C536.772 260.327 540.939 257.448 545.285 258.242L552.958 259.644Z" fill="#F81522"/>
<path d="M482.328 246.736C486.674 247.53 489.554 251.697 488.759 256.043C487.965 260.39 483.798 263.269 479.451 262.475L471.778 261.072C467.432 260.278 464.553 256.111 465.347 251.765C466.141 247.418 470.309 244.539 474.655 245.333L482.328 246.736Z" fill="#F81522"/>
<path d="M485.231 220.972C488.866 218.46 493.849 219.371 496.36 223.006L500.794 229.423C503.306 233.058 502.395 238.041 498.76 240.553C495.125 243.064 490.142 242.153 487.631 238.518L483.197 232.101C480.685 228.466 481.596 223.484 485.231 220.972Z" fill="#F81522"/>
<path d="M475.136 286.084L480.889 254.605C482.415 246.256 487.195 238.856 494.177 234.031C501.16 229.207 509.773 227.354 518.121 228.88C526.47 230.405 533.87 235.185 538.695 242.168C543.519 249.15 545.372 257.763 543.847 266.111L538.093 297.59C536.568 305.939 531.788 313.339 524.805 318.164C517.823 322.988 509.21 324.841 500.862 323.315C492.513 321.789 485.112 317.01 480.288 310.027C475.464 303.045 473.61 294.432 475.136 286.084ZM528.107 263.235C528.87 259.06 527.944 254.754 525.532 251.263C523.119 247.772 519.419 245.382 515.245 244.619C511.07 243.856 506.764 244.783 503.273 247.195C499.782 249.607 497.392 253.307 496.629 257.482L490.876 288.96C490.113 293.134 491.039 297.441 493.451 300.932C495.864 304.423 499.564 306.813 503.738 307.576C507.913 308.339 512.219 307.412 515.71 305C519.201 302.588 521.591 298.888 522.354 294.713L528.107 263.235Z" fill="#FF5761"/>
<circle cx="260" cy="503" r="18" fill="#FFBC57"/>
<circle cx="418" cy="216" r="18" fill="#FFBC57"/>
<circle cx="48" cy="358" r="18" fill="#FFBC57"/>
<circle cx="555" cy="540" r="18" fill="#FFBC57"/>
</svg>
