<svg width="41" height="41" viewBox="0 0 41 41" fill="none" xmlns="http://www.w3.org/2000/svg">
<path d="M7.00002 19.1252C6.69446 18.7918 6.54169 18.396 6.54169 17.9377C6.54169 17.4793 6.69446 17.0835 7.00002 16.7502L11.6667 12.0835L9.87502 10.2918L9.37502 10.7918C9.04169 11.1252 8.64585 11.2918 8.18752 11.2918C7.72919 11.2918 7.33335 11.1252 7.00002 10.7918C6.69446 10.4585 6.54169 10.0627 6.54169 9.60433C6.54169 9.146 6.69446 8.76405 7.00002 8.4585L10.3334 5.12516C10.6667 4.79183 11.0625 4.62516 11.5209 4.62516C11.9792 4.62516 12.375 4.79183 12.7084 5.12516C13.0417 5.43072 13.2084 5.81961 13.2084 6.29183C13.2084 6.76405 13.0417 7.15294 12.7084 7.4585L12.2084 7.9585L14 9.75016L18.6667 5.0835C19 4.75016 19.3959 4.5835 19.8542 4.5835C20.3125 4.5835 20.7084 4.75016 21.0417 5.0835C21.375 5.41683 21.5417 5.81266 21.5417 6.271C21.5417 6.72933 21.375 7.12516 21.0417 7.4585L19.9167 8.54183L22.5 11.1252L17.7917 15.7918C17.4861 16.1252 17.3334 16.521 17.3334 16.9793C17.3334 17.4377 17.4861 17.8335 17.7917 18.1668C18.125 18.5002 18.5209 18.6668 18.9792 18.6668C19.4375 18.6668 19.8334 18.5002 20.1667 18.1668L24.8334 13.4585L27.375 15.9585L22.6667 20.6668C22.3334 21.0002 22.1667 21.396 22.1667 21.8543C22.1667 22.3127 22.3334 22.7085 22.6667 23.0418C22.9722 23.3474 23.3542 23.4932 23.8125 23.4793C24.2709 23.4654 24.6667 23.3057 25 23.0002L29.6667 18.2918L32.2084 20.8335C32.8472 21.4724 33.1667 22.2571 33.1667 23.1877C33.1667 24.1182 32.8472 24.9029 32.2084 25.5418L31.0417 26.7502L37.5 33.1668C37.7778 33.4446 37.8472 33.7502 37.7084 34.0835C37.5695 34.4168 37.3056 34.5835 36.9167 34.5835H35.2084C34.875 34.5835 34.5486 34.5141 34.2292 34.3752C33.9097 34.2363 33.6389 34.0557 33.4167 33.8335L28.6667 29.0835L27.5 30.2918C26.8611 30.9307 26.0764 31.2502 25.1459 31.2502C24.2153 31.2502 23.4306 30.9307 22.7917 30.2918L10.5 18.0002L9.37502 19.1252C9.04169 19.4307 8.64585 19.5835 8.18752 19.5835C7.72919 19.5835 7.33335 19.4307 7.00002 19.1252Z" fill="#B0B8C1"/>
</svg>
