<svg width="34" height="34" viewBox="0 0 34 34" fill="none" xmlns="http://www.w3.org/2000/svg">
<rect width="34" height="34" rx="10" fill="#E5F0FF"/>
<path d="M20.7598 11.5771C21.9651 12.273 22.9679 13.2713 23.6691 14.4735C24.3703 15.6756 24.7457 17.04 24.758 18.4317C24.7704 19.8233 24.4194 21.1942 23.7397 22.4086C23.06 23.6231 22.0751 24.6391 20.8824 25.3563C19.6897 26.0735 18.3305 26.4671 16.9391 26.498C15.5477 26.529 14.1724 26.1963 12.9489 25.5329C11.7255 24.8695 10.6964 23.8982 9.96333 22.7152C9.23025 21.5322 8.81859 20.1784 8.76904 18.7875L8.76404 18.5026L8.76904 18.2177C8.81822 16.839 9.22325 15.4964 9.94478 14.3204C10.6663 13.1445 11.6798 12.1752 12.8867 11.5068C14.0936 10.8384 15.4529 10.4936 16.8325 10.5059C18.2121 10.5182 19.565 10.8872 20.7598 11.5771ZM16.7612 14.504C16.4961 14.504 16.2418 14.6094 16.0544 14.7968C15.8669 14.9843 15.7616 15.2386 15.7616 15.5037V18.5026L15.7686 18.6196C15.7972 18.8628 15.9141 19.087 16.0971 19.2497C16.2801 19.4124 16.5164 19.5023 16.7612 19.5023H18.7605L18.8775 19.4953C19.1207 19.4667 19.3449 19.3498 19.5076 19.1668C19.6703 18.9838 19.7602 18.7475 19.7602 18.5026L19.7532 18.3857C19.7245 18.1425 19.6076 17.9183 19.4247 17.7556C19.2417 17.5929 19.0054 17.503 18.7605 17.503H17.7609V15.5037L17.7539 15.3867C17.7252 15.1436 17.6083 14.9194 17.4254 14.7567C17.2424 14.594 17.0061 14.5041 16.7612 14.504Z" fill="#4196FD"/>
<path d="M11.1752 8.69709C11.3808 8.54442 11.6371 8.47647 11.8913 8.50725C12.1455 8.53803 12.3782 8.66519 12.5415 8.8625C12.7047 9.05982 12.7859 9.31224 12.7685 9.56772C12.7511 9.82319 12.6363 10.0622 12.4477 10.2355L12.3508 10.3155L9.60175 12.3148C9.39624 12.4699 9.13883 12.5397 8.88314 12.5097C8.62745 12.4797 8.39319 12.3522 8.22916 12.1537C8.06514 11.9553 7.98399 11.7012 8.00262 11.4445C8.02126 11.1877 8.13824 10.948 8.3292 10.7754L8.42616 10.6954L11.1752 8.69709Z" fill="#4196FD"/>
<path d="M20.9508 8.91801C21.0939 8.7211 21.304 8.58321 21.5416 8.5302C21.7792 8.4772 22.028 8.51272 22.2413 8.63011L22.3473 8.69709L25.0963 10.6964C25.3019 10.8459 25.4428 11.0682 25.4903 11.3179C25.5379 11.5676 25.4885 11.8261 25.3522 12.0407C25.2159 12.2553 25.003 12.4099 24.7568 12.4731C24.5105 12.5363 24.2494 12.5033 24.0267 12.3808L23.9207 12.3138L21.1717 10.3145C21.0655 10.2373 20.9757 10.1399 20.9072 10.0279C20.8387 9.91587 20.7929 9.79149 20.7725 9.66181C20.7521 9.53213 20.7574 9.3997 20.7881 9.27208C20.8189 9.14446 20.8735 9.02414 20.9508 8.91801Z" fill="#4196FD"/>
<path d="M11.1752 8.69709C11.3808 8.54442 11.6371 8.47647 11.8913 8.50725C12.1455 8.53803 12.3782 8.66519 12.5415 8.8625C12.7047 9.05982 12.7859 9.31224 12.7685 9.56772C12.7511 9.82319 12.6363 10.0622 12.4477 10.2355L12.3508 10.3155L9.60175 12.3148C9.39624 12.4699 9.13883 12.5397 8.88314 12.5097C8.62745 12.4797 8.39319 12.3522 8.22916 12.1537C8.06514 11.9553 7.98399 11.7012 8.00262 11.4445C8.02126 11.1877 8.13824 10.948 8.3292 10.7754L8.42616 10.6954L11.1752 8.69709Z" fill="#4196FD"/>
<path d="M20.9508 8.91801C21.0939 8.7211 21.304 8.58321 21.5416 8.5302C21.7792 8.4772 22.028 8.51272 22.2413 8.63011L22.3473 8.69709L25.0963 10.6964C25.3019 10.8459 25.4428 11.0682 25.4903 11.3179C25.5379 11.5676 25.4885 11.8261 25.3522 12.0407C25.2159 12.2553 25.003 12.4099 24.7568 12.4731C24.5105 12.5363 24.2494 12.5033 24.0267 12.3808L23.9207 12.3138L21.1717 10.3145C21.0655 10.2373 20.9757 10.1399 20.9072 10.0279C20.8387 9.91587 20.7929 9.79149 20.7725 9.66181C20.7521 9.53213 20.7574 9.3997 20.7881 9.27208C20.8189 9.14446 20.8735 9.02414 20.9508 8.91801Z" fill="#4196FD"/>
</svg>
