<svg width="600" height="600" viewBox="0 0 600 600" fill="none" xmlns="http://www.w3.org/2000/svg">
<ellipse cx="184.08" cy="184.336" rx="184.08" ry="184.336" transform="matrix(1 0 0 -1 115.661 483.655)" fill="#FF5761"/>
<path d="M418.368 76.1555C426.445 70.7882 430.484 68.1046 432.633 65.3267C438.107 58.25 438.707 48.6158 434.072 42.2195C432.252 39.7087 428.515 37.5483 421.042 33.2275C413.568 28.9066 409.831 26.7462 406.75 26.4235C398.901 25.6014 390.869 30.9388 387.486 39.225C386.158 42.4777 385.857 47.3217 385.253 57.0098C384.534 68.5526 383.883 80.0816 376.972 89.3456L320.484 165.063L357.306 186.352L394.544 99.5052C399.1 88.8795 408.745 82.5502 418.368 76.1555Z" fill="#FF5761"/>
<path d="M181.181 523.353C173.105 528.72 169.066 531.404 166.917 534.182C161.442 541.258 160.842 550.892 165.478 557.289C167.298 559.8 171.035 561.96 178.508 566.281C185.982 570.602 189.718 572.762 192.8 573.085C200.649 573.907 208.681 568.57 212.064 560.283C213.392 557.031 213.693 552.187 214.297 542.498C215.015 530.956 215.667 519.427 222.578 510.163L279.066 434.445L242.244 413.156L205.005 500.003C200.449 510.629 190.804 516.958 181.181 523.353Z" fill="#FF5761"/>
<path d="M542.425 225.604C551.926 227.528 556.677 228.49 560.158 228.047C569.026 226.92 576.253 220.532 577.492 212.727C577.978 209.663 576.861 205.489 574.628 197.142C572.394 188.795 571.277 184.621 569.327 182.211C564.357 176.072 554.908 174.158 546.665 177.622C543.43 178.982 539.796 182.194 532.528 188.617C523.869 196.271 515.266 203.962 503.835 205.619L410.43 219.16L421.435 260.287L509.087 225.247C519.814 220.958 531.104 223.311 542.425 225.604Z" fill="#FF5761"/>
<path d="M58.9344 373.871C49.4334 371.947 44.6828 370.985 41.2017 371.428C32.3333 372.555 25.1062 378.943 23.8676 386.748C23.3813 389.812 24.4981 393.986 26.7316 402.333C28.9651 410.68 30.0819 414.854 32.0328 417.264C37.0028 423.403 46.451 425.317 54.6941 421.853C57.9298 420.493 61.5636 417.281 68.8312 410.858C77.4908 403.204 86.0937 395.513 97.5247 393.856L190.929 380.315L179.925 339.188L92.2727 374.228C81.5458 378.517 70.2554 376.164 58.9344 373.871Z" fill="#FF5761"/>
<path d="M443.344 169.906C450.746 168.795 454.446 168.24 456.856 167C462.996 163.842 466.56 157.3 465.405 151.308C464.952 148.956 463.043 146.222 459.226 140.753C455.409 135.285 453.5 132.55 451.45 131.316C446.228 128.172 438.867 129.276 433.796 133.965C431.806 135.806 430.014 139.095 426.429 145.675C422.158 153.515 417.938 161.366 410.077 165.586L345.854 200.058L364.662 227.001L419.053 178.445C425.711 172.502 434.524 171.23 443.344 169.906Z" fill="#FF5761"/>
<path d="M154.226 429.59C147.264 432.34 143.783 433.715 141.713 435.466C136.441 439.927 134.438 447.105 136.91 452.682C137.88 454.872 140.354 457.106 145.302 461.574C150.25 466.042 152.725 468.276 154.999 469.017C160.794 470.904 167.718 468.169 171.605 462.458C173.131 460.216 174.138 456.607 176.152 449.389C178.552 440.788 180.899 432.187 187.609 426.306L242.441 378.245L218.061 356.23L175.974 415.799C170.823 423.089 162.522 426.313 154.226 429.59Z" fill="#FF5761"/>
<path d="M491.797 310.025C497.815 314.481 500.824 316.709 503.403 317.539C509.974 319.653 517.115 317.55 520.529 312.496C521.869 310.512 522.45 307.227 523.613 300.657C524.775 294.087 525.356 290.802 524.778 288.478C523.305 282.556 517.321 278.126 510.424 277.851C507.717 277.743 504.127 278.8 496.947 280.914C488.391 283.433 479.863 285.997 471.326 283.415L401.57 262.314L395.844 294.684L468.593 298.863C477.496 299.375 484.626 304.716 491.797 310.025Z" fill="#FF5761"/>
<path d="M104.694 287.156C97.9924 283.82 94.6414 282.152 91.9569 281.785C85.1181 280.851 78.4535 284.169 75.9721 289.742C74.998 291.93 74.998 295.266 74.998 301.938C74.998 308.611 74.998 311.947 75.9721 314.134C78.4535 319.708 85.1181 323.025 91.9569 322.091C94.6414 321.725 97.9924 320.057 104.694 316.721C112.68 312.746 120.631 308.731 129.486 309.783L201.849 318.375L201.849 285.501L129.486 294.094C120.631 295.145 112.68 291.131 104.694 287.156Z" fill="#FF5761"/>
<path d="M432.572 444.797C434.955 451.902 436.147 455.454 437.786 457.614C441.963 463.117 449.018 465.49 454.708 463.307C456.941 462.449 459.297 460.09 464.008 455.372C468.72 450.654 471.076 448.295 471.932 446.059C474.113 440.361 471.743 433.296 466.247 429.114C464.09 427.472 460.543 426.279 453.448 423.892C444.995 421.048 436.538 418.257 431.019 411.243L385.918 353.928L362.705 377.173L419.94 422.337C426.945 427.864 429.732 436.332 432.572 444.797Z" fill="#FF5761"/>
<path d="M168.81 156.342C166.427 149.237 165.235 145.685 163.596 143.525C159.419 138.022 152.364 135.649 146.674 137.833C144.44 138.69 142.085 141.049 137.373 145.767C132.662 150.485 130.306 152.844 129.45 155.08C127.269 160.778 129.639 167.843 135.135 172.025C137.292 173.667 140.839 174.86 147.934 177.247C156.387 180.091 164.844 182.882 170.363 189.896L215.464 247.211L238.677 223.966L181.442 178.802C174.437 173.275 171.65 164.807 168.81 156.342Z" fill="#FF5761"/>
<path d="M314.335 106.791C317.667 100.08 319.332 96.7239 319.698 94.0357C320.631 87.1873 317.318 80.5134 311.753 78.0286C309.568 77.0532 306.236 77.0532 299.573 77.0532C292.911 77.0532 289.579 77.0532 287.394 78.0286C281.829 80.5134 278.516 87.1873 279.448 94.0357C279.814 96.7239 281.48 100.08 284.812 106.791C288.781 114.787 292.79 122.749 291.74 131.617L283.159 204.08H315.988L307.407 131.617C306.357 122.749 310.366 114.787 314.335 106.791Z" fill="#FF5761"/>
<path d="M284.345 495.026C281.014 501.737 279.348 505.092 278.982 507.781C278.05 514.629 281.363 521.303 286.928 523.788C289.113 524.763 292.444 524.763 299.107 524.763C305.77 524.763 309.102 524.763 311.286 523.788C316.852 521.303 320.165 514.629 319.232 507.781C318.866 505.092 317.2 501.737 313.869 495.026C309.899 487.029 305.891 479.067 306.941 470.199L315.521 397.736L282.693 397.736L291.274 470.199C292.324 479.067 288.315 487.029 284.345 495.026Z" fill="#FF5761"/>
<path d="M522.59 418.109C527.95 426.197 530.63 430.241 533.404 432.393C540.471 437.875 550.092 438.476 556.479 433.834C558.987 432.012 561.144 428.27 565.459 420.786C569.774 413.302 571.931 409.56 572.253 406.474C573.074 398.614 567.744 390.571 559.47 387.183C556.221 385.854 551.384 385.552 541.709 384.947C530.181 384.228 518.666 383.573 509.411 376.649L433.806 320.088L412.547 356.961L499.265 394.248C509.88 398.812 516.203 408.471 522.59 418.109Z" fill="#FF5761"/>
<path d="M76.0131 180.591C70.6534 172.503 67.9734 168.459 65.1994 166.307C58.1325 160.825 48.5117 160.224 42.1243 164.866C39.617 166.688 37.4596 170.43 33.1448 177.914C28.8299 185.398 26.6725 189.14 26.3502 192.226C25.5293 200.086 30.8592 208.129 39.134 211.517C42.3821 212.846 47.2195 213.148 56.8941 213.752C68.4227 214.472 79.9373 215.127 89.1924 222.051L164.798 278.612L186.057 241.739L99.3389 204.452C88.7236 199.888 82.4001 190.229 76.0131 180.591Z" fill="#FF5761"/>
<path d="M373.355 542.344C371.434 551.858 370.473 556.616 370.915 560.102C372.041 568.982 378.42 576.219 386.214 577.46C389.274 577.947 393.442 576.828 401.777 574.592C410.113 572.355 414.281 571.237 416.688 569.283C422.819 564.306 424.729 554.845 421.27 546.59C419.912 543.35 416.705 539.711 410.29 532.434C402.647 523.762 394.967 515.147 393.312 503.7L379.79 410.166L338.72 421.186L373.712 508.96C377.994 519.701 375.644 531.007 373.355 542.344Z" fill="#FF5761"/>
<path d="M225.291 58.1771C227.212 48.6628 228.173 43.9056 227.731 40.4196C226.605 31.539 220.227 24.3017 212.432 23.0614C209.372 22.5745 205.205 23.6928 196.869 25.9294C188.533 28.1661 184.366 29.2844 181.959 31.238C175.828 36.2149 173.917 45.6763 177.377 53.9308C178.734 57.171 181.942 60.8099 188.356 68.0876C195.999 76.7593 203.679 85.3741 205.334 96.821L218.857 190.355L259.926 179.336L224.935 91.5617C220.652 80.8198 223.002 69.5138 225.291 58.1771Z" fill="#FF5761"/>
<path d="M339.976 301.144C339.976 319.288 320.731 333.083 302.613 333.083C284.494 333.083 271.629 311.075 271.629 292.931C271.629 274.787 289.962 264.642 308.08 264.642C326.199 264.642 339.976 283 339.976 301.144Z" fill="#F3343F"/>
<path d="M284.389 407.363C284.389 417.524 273.613 425.249 263.466 425.249C253.32 425.249 246.115 412.924 246.115 402.764C246.115 392.603 256.382 386.922 266.528 386.922C276.674 386.922 284.389 397.203 284.389 407.363Z" fill="#F3343F"/>
<path d="M417.365 371.879C411.888 380.432 398.652 381.111 390.111 375.626C381.57 370.141 382.149 355.872 387.626 347.319C393.102 338.766 404.807 339.533 413.349 345.017C421.89 350.502 422.842 363.326 417.365 371.879Z" fill="#F3343F"/>
<path d="M422.475 265.767C417.564 273.436 405.696 274.044 398.037 269.126C390.379 264.209 390.898 251.414 395.809 243.745C400.72 236.076 411.215 236.764 418.873 241.682C426.531 246.599 427.386 258.098 422.475 265.767Z" fill="#F3343F"/>
<path d="M264.243 219.498C257.579 229.905 241.472 230.73 231.079 224.057C220.686 217.383 221.391 200.019 228.055 189.612C234.72 179.204 248.962 180.137 259.356 186.811C269.749 193.485 270.908 209.09 264.243 219.498Z" fill="#F3343F"/>
<path d="M219.855 321.041C215.66 327.592 205.522 328.112 198.98 323.911C192.438 319.71 192.882 308.781 197.077 302.23C201.271 295.679 210.237 296.266 216.778 300.467C223.32 304.668 224.05 314.49 219.855 321.041Z" fill="#F3343F"/>
<path d="M208.361 395.061C204.955 400.381 196.722 400.803 191.409 397.392C186.096 393.98 186.457 385.105 189.863 379.785C193.27 374.465 200.55 374.942 205.863 378.353C211.176 381.764 211.768 389.741 208.361 395.061Z" fill="#F3343F"/>
<path d="M345.81 445.428C338.293 445.385 332.623 437.356 332.666 429.829C332.709 422.301 341.858 417.008 349.376 417.051C356.893 417.094 361.053 424.735 361.01 432.263C360.967 439.791 353.328 445.471 345.81 445.428Z" fill="#F3343F"/>
<path d="M328.252 187.989C321.987 187.953 317.261 181.261 317.297 174.987C317.333 168.713 324.958 164.302 331.224 164.338C337.489 164.374 340.956 170.743 340.92 177.017C340.884 183.29 334.517 188.025 328.252 187.989Z" fill="#F3343F"/>
<path d="M396.083 200.732C392.718 200.713 390.18 197.119 390.199 193.749C390.218 190.379 394.314 188.009 397.68 188.029C401.045 188.048 402.907 191.469 402.888 194.839C402.869 198.209 399.449 200.752 396.083 200.732Z" fill="#F3343F"/>
<path d="M174.112 273.835C167.348 273.796 162.246 266.572 162.285 259.798C162.323 253.024 170.556 248.262 177.321 248.301C184.085 248.34 187.828 255.215 187.789 261.989C187.75 268.763 180.876 273.874 174.112 273.835Z" fill="#F3343F"/>
<g filter="url(#filter0_d_122_9982)">
<path d="M114.776 258.262C119.994 271.306 138.255 301.306 157.82 301.306" stroke="white" stroke-width="16.33" stroke-linecap="round"/>
</g>
<g filter="url(#filter1_d_122_9982)">
<path d="M112.169 336.523C121.3 345.747 149.722 361.263 164.344 348.262" stroke="white" stroke-width="16.33" stroke-linecap="round"/>
</g>
<g filter="url(#filter2_d_122_9982)">
<path d="M477.393 258.262C472.175 271.305 453.914 301.305 434.349 301.305" stroke="white" stroke-width="16.33" stroke-linecap="round"/>
</g>
<g filter="url(#filter3_d_122_9982)">
<path d="M480.002 336.523C470.871 345.747 442.449 361.263 427.827 348.262" stroke="white" stroke-width="16.33" stroke-linecap="round"/>
</g>
<g filter="url(#filter4_d_122_9982)">
<path d="M153.911 304.246C153.911 281.762 176.185 265.734 197.883 271.629C227.769 279.749 267.423 288.579 298.822 288.679C330.978 288.781 371.7 279.781 402.169 271.545C423.855 265.684 446.089 281.713 446.089 304.178V362.906C446.089 382.808 437.078 401.686 420.619 412.873C390.067 433.638 338.065 464.473 298.822 464.348C260.231 464.226 209.17 433.566 179.1 412.884C162.808 401.679 153.911 382.904 153.911 363.13V304.246Z" fill="white"/>
</g>
<path d="M284.366 397.709L234.112 384.513C230.194 383.484 228.278 389.096 232.007 390.678L275.355 409.066C291.814 416.048 310.414 415.978 326.82 408.874L368.792 390.699C372.505 389.091 370.557 383.5 366.648 384.548L317.869 397.624C306.899 400.564 295.351 400.594 284.366 397.709Z" fill="#E7E7E7"/>
<path d="M284.467 343.067L204.955 321.925C201.042 320.884 199.107 326.484 202.826 328.082L275.38 359.246C291.996 366.383 310.828 366.312 327.39 359.05L397.967 328.103C401.67 326.479 399.702 320.901 395.8 321.96L318.364 342.979C307.27 345.991 295.577 346.021 284.467 343.067Z" fill="#E7E7E7"/>
<defs>
<filter id="filter0_d_122_9982" x="106.609" y="250.095" width="65.908" height="75.7057" filterUnits="userSpaceOnUse" color-interpolation-filters="sRGB">
<feFlood flood-opacity="0" result="BackgroundImageFix"/>
<feColorMatrix in="SourceAlpha" type="matrix" values="0 0 0 0 0 0 0 0 0 0 0 0 0 0 0 0 0 0 127 0" result="hardAlpha"/>
<feOffset dx="6.532" dy="16.33"/>
<feComposite in2="hardAlpha" operator="out"/>
<feColorMatrix type="matrix" values="0 0 0 0 0 0 0 0 0 0 0 0 0 0 0 0 0 0 0.15 0"/>
<feBlend mode="normal" in2="BackgroundImageFix" result="effect1_dropShadow_122_9982"/>
<feBlend mode="normal" in="SourceGraphic" in2="effect1_dropShadow_122_9982" result="shape"/>
</filter>
<filter id="filter1_d_122_9982" x="104.004" y="328.358" width="84.8349" height="46.1096" filterUnits="userSpaceOnUse" color-interpolation-filters="sRGB">
<feFlood flood-opacity="0" result="BackgroundImageFix"/>
<feColorMatrix in="SourceAlpha" type="matrix" values="0 0 0 0 0 0 0 0 0 0 0 0 0 0 0 0 0 0 127 0" result="hardAlpha"/>
<feOffset dx="16.33" dy="13.064"/>
<feComposite in2="hardAlpha" operator="out"/>
<feColorMatrix type="matrix" values="0 0 0 0 0 0 0 0 0 0 0 0 0 0 0 0 0 0 0.15 0"/>
<feBlend mode="normal" in2="BackgroundImageFix" result="effect1_dropShadow_122_9982"/>
<feBlend mode="normal" in="SourceGraphic" in2="effect1_dropShadow_122_9982" result="shape"/>
</filter>
<filter id="filter2_d_122_9982" x="422.918" y="250.094" width="62.642" height="75.7057" filterUnits="userSpaceOnUse" color-interpolation-filters="sRGB">
<feFlood flood-opacity="0" result="BackgroundImageFix"/>
<feColorMatrix in="SourceAlpha" type="matrix" values="0 0 0 0 0 0 0 0 0 0 0 0 0 0 0 0 0 0 127 0" result="hardAlpha"/>
<feOffset dx="-3.266" dy="16.33"/>
<feComposite in2="hardAlpha" operator="out"/>
<feColorMatrix type="matrix" values="0 0 0 0 0 0 0 0 0 0 0 0 0 0 0 0 0 0 0.15 0"/>
<feBlend mode="normal" in2="BackgroundImageFix" result="effect1_dropShadow_122_9982"/>
<feBlend mode="normal" in="SourceGraphic" in2="effect1_dropShadow_122_9982" result="shape"/>
</filter>
<filter id="filter3_d_122_9982" x="406.598" y="328.358" width="81.5689" height="46.1096" filterUnits="userSpaceOnUse" color-interpolation-filters="sRGB">
<feFlood flood-opacity="0" result="BackgroundImageFix"/>
<feColorMatrix in="SourceAlpha" type="matrix" values="0 0 0 0 0 0 0 0 0 0 0 0 0 0 0 0 0 0 127 0" result="hardAlpha"/>
<feOffset dx="-13.064" dy="13.064"/>
<feComposite in2="hardAlpha" operator="out"/>
<feColorMatrix type="matrix" values="0 0 0 0 0 0 0 0 0 0 0 0 0 0 0 0 0 0 0.15 0"/>
<feBlend mode="normal" in2="BackgroundImageFix" result="effect1_dropShadow_122_9982"/>
<feBlend mode="normal" in="SourceGraphic" in2="effect1_dropShadow_122_9982" result="shape"/>
</filter>
<filter id="filter4_d_122_9982" x="153.911" y="270.328" width="292.178" height="203.818" filterUnits="userSpaceOnUse" color-interpolation-filters="sRGB">
<feFlood flood-opacity="0" result="BackgroundImageFix"/>
<feColorMatrix in="SourceAlpha" type="matrix" values="0 0 0 0 0 0 0 0 0 0 0 0 0 0 0 0 0 0 127 0" result="hardAlpha"/>
<feOffset dy="9.798"/>
<feComposite in2="hardAlpha" operator="out"/>
<feColorMatrix type="matrix" values="0 0 0 0 0 0 0 0 0 0 0 0 0 0 0 0 0 0 0.15 0"/>
<feBlend mode="normal" in2="BackgroundImageFix" result="effect1_dropShadow_122_9982"/>
<feBlend mode="normal" in="SourceGraphic" in2="effect1_dropShadow_122_9982" result="shape"/>
</filter>
</defs>
</svg>
