<svg width="46" height="57" viewBox="0 0 46 57" fill="none" xmlns="http://www.w3.org/2000/svg">
<ellipse cx="23" cy="54" rx="9" ry="3" fill="black" fill-opacity="0.2"/>
<circle cx="23" cy="23" r="23" fill="#FF5761"/>
<g clip-path="url(#clip0_2252_25979)">
<path d="M32.75 23V30.5C32.75 30.6989 32.671 30.8897 32.5303 31.0303C32.3897 31.171 32.1989 31.25 32 31.25H30.5V22.25H32C32.1989 22.25 32.3897 22.329 32.5303 22.4697C32.671 22.6103 32.75 22.8011 32.75 23ZM29 15.5V31.25H24.5C24.3011 31.25 24.1103 31.171 23.9697 31.0303C23.829 30.8897 23.75 30.6989 23.75 30.5V27.5H22.25V30.5C22.25 30.6989 22.171 30.8897 22.0303 31.0303C21.8897 31.171 21.6989 31.25 21.5 31.25H17V15.5C17 15.3011 17.079 15.1103 17.2197 14.9697C17.3603 14.829 17.5511 14.75 17.75 14.75H28.25C28.4489 14.75 28.6397 14.829 28.7803 14.9697C28.921 15.1103 29 15.3011 29 15.5ZM25.25 20H23.75V18.5C23.75 18.3011 23.671 18.1103 23.5303 17.9697C23.3897 17.829 23.1989 17.75 23 17.75C22.8011 17.75 22.6103 17.829 22.4697 17.9697C22.329 18.1103 22.25 18.3011 22.25 18.5V20H20.75C20.5511 20 20.3603 20.079 20.2197 20.2197C20.079 20.3603 20 20.5511 20 20.75C20 20.9489 20.079 21.1397 20.2197 21.2803C20.3603 21.421 20.5511 21.5 20.75 21.5H22.25V23C22.25 23.1989 22.329 23.3897 22.4697 23.5303C22.6103 23.671 22.8011 23.75 23 23.75C23.1989 23.75 23.3897 23.671 23.5303 23.5303C23.671 23.3897 23.75 23.1989 23.75 23V21.5H25.25C25.4489 21.5 25.6397 21.421 25.7803 21.2803C25.921 21.1397 26 20.9489 26 20.75C26 20.5511 25.921 20.3603 25.7803 20.2197C25.6397 20.079 25.4489 20 25.25 20ZM15.5 22.25H14C13.8011 22.25 13.6103 22.329 13.4697 22.4697C13.329 22.6103 13.25 22.8011 13.25 23V30.5C13.25 30.6989 13.329 30.8897 13.4697 31.0303C13.6103 31.171 13.8011 31.25 14 31.25H15.5V22.25Z" fill="white"/>
</g>
<path d="M23 53L16.9378 42.5L29.0622 42.5L23 53Z" fill="#FF5761"/>
<defs>
<clipPath id="clip0_2252_25979">
<rect width="24" height="24" fill="white" transform="translate(11 11)"/>
</clipPath>
</defs>
</svg>
