<svg width="24" height="24" viewBox="0 0 24 24" fill="none" xmlns="http://www.w3.org/2000/svg">
<path d="M15.1129 3.2097L15.2069 3.2927L20.7069 8.7927C20.8755 8.96218 20.9778 9.18643 20.9952 9.42483C21.0127 9.66323 20.9442 9.9 20.8021 10.0922C20.6601 10.2845 20.4538 10.4195 20.2208 10.4728C19.9878 10.526 19.7434 10.4941 19.5319 10.3827L16.3599 13.5537L14.9359 17.3507C14.8984 17.4509 14.845 17.5444 14.7779 17.6277L14.7079 17.7077L13.2079 19.2077C13.0356 19.3797 12.8064 19.483 12.5634 19.4981C12.3204 19.5132 12.0802 19.4391 11.8879 19.2897L11.7929 19.2067L8.99988 16.4147L5.20688 20.2067C5.02693 20.386 4.78545 20.4902 4.5315 20.4979C4.27755 20.5057 4.03017 20.4165 3.83961 20.2485C3.64904 20.0804 3.52958 19.8461 3.50549 19.5932C3.48139 19.3403 3.55447 19.0877 3.70988 18.8867L3.79288 18.7927L7.58488 14.9997L4.79288 12.2067C4.62071 12.0345 4.51728 11.8054 4.502 11.5624C4.48671 11.3194 4.56063 11.0791 4.70988 10.8867L4.79288 10.7927L6.29288 9.2927C6.36834 9.21698 6.45544 9.15384 6.55088 9.1057L6.64888 9.0637L10.4449 7.6387L13.6159 4.4687C13.5078 4.26653 13.4724 4.03335 13.5157 3.80821C13.559 3.58306 13.6783 3.37964 13.8537 3.232C14.0291 3.08436 14.25 3.00148 14.4792 2.99724C14.7084 2.993 14.9321 3.06865 15.1129 3.2097Z" fill="#D1D6DB"/>
</svg>
