<svg width="393" height="256" viewBox="0 0 393 256" fill="none" xmlns="http://www.w3.org/2000/svg">
<path d="M196.459 38.1992C200.721 38.1992 204.667 40.3701 206.925 43.8617L207.354 44.5784L236.938 95.62L237.196 96.145C237.935 97.9728 238.231 99.9495 238.061 101.914C237.89 103.878 237.257 105.774 236.213 107.446C235.17 109.119 233.746 110.521 232.057 111.539C230.368 112.556 228.463 113.159 226.496 113.299L225.667 113.333H167.334L167.129 113.32L166.663 113.328C164.807 113.233 162.996 112.725 161.361 111.841C159.726 110.957 158.309 109.72 157.213 108.22L156.759 107.553C155.766 105.994 155.132 104.235 154.901 102.401C154.671 100.567 154.85 98.7054 155.425 96.9492L155.725 96.1409L155.975 95.62L185.525 44.6492C186.606 42.6952 188.19 41.0663 190.114 39.932C192.037 38.7977 194.23 38.1994 196.463 38.1992H196.459ZM196.542 88.3325L196.013 88.3617C195 88.4822 194.067 88.9699 193.389 89.7324C192.712 90.4949 192.338 91.4794 192.338 92.4992C192.338 93.5191 192.712 94.5035 193.389 95.266C194.067 96.0286 195 96.5163 196.013 96.6367L196.5 96.6659L197.029 96.6367C198.042 96.5163 198.975 96.0286 199.653 95.266C200.33 94.5035 200.704 93.5191 200.704 92.4992C200.704 91.4794 200.33 90.4949 199.653 89.7324C198.975 88.9699 198.042 88.4822 197.029 88.3617L196.542 88.3325ZM196.5 63.3326C195.48 63.3327 194.495 63.7074 193.732 64.3855C192.969 65.0637 192.482 65.9982 192.363 67.0117L192.334 67.4992V75.8325L192.363 76.32C192.483 77.3328 192.971 78.2661 193.733 78.9433C194.496 79.6205 195.48 79.9946 196.5 79.9946C197.52 79.9946 198.504 79.6205 199.267 78.9433C200.03 78.2661 200.517 77.3328 200.638 76.32L200.667 75.8325V67.4992L200.638 67.0117C200.518 65.9982 200.031 65.0637 199.268 64.3855C198.506 63.7074 197.521 63.3327 196.5 63.3326Z" fill="#FF5761"/>
<path d="M95.0977 154.531V157.156H88.2539V158.234H94.6289V160.719H88.2539V161.891C91.6523 161.867 93.7969 161.785 96.3164 161.445L96.6211 164.023C93.7031 164.469 91.1133 164.527 86.6836 164.539H84.832V154.531H95.0977ZM86.8008 168.148V165.57H101.238V171.523H90.1523V172.555H101.801V175.133H86.8242V169.109H97.8633V168.148H86.8008ZM97.8633 164.75V153.734H101.238V157.812H104.027V160.508H101.238V164.75H97.8633ZM117.668 163.484V166.109H113.613V168.547C115.277 168.453 116.953 168.301 118.535 168.078L118.793 170.492C114.082 171.453 109.043 171.453 105.316 171.523L104.941 168.758C106.488 168.758 108.328 168.758 110.262 168.699V166.109H106.395V155.445H117.621V158.117H109.816V159.5H117.199V162.078H109.816V163.484H117.668ZM119.684 175.297V153.734H123.035V175.297H119.684ZM150.574 165.477V168.172H142.371V175.25H139.02V168.172H130.957V165.477H150.574ZM131.848 161.773C136.336 161.258 138.375 159.289 138.762 157.414H132.715V154.812H148.84V157.414H142.805C143.156 159.289 145.172 161.258 149.73 161.773L148.488 164.422C144.633 163.93 142.055 162.383 140.766 160.297C139.488 162.383 136.934 163.93 133.09 164.422L131.848 161.773ZM158.637 155.141C162.059 155.129 164.637 157.367 164.66 160.484C164.637 163.613 162.059 165.84 158.637 165.828C155.25 165.84 152.613 163.613 152.613 160.484C152.613 157.367 155.25 155.129 158.637 155.141ZM151.793 168.289C155.578 168.301 160.84 168.242 165.387 167.609L165.645 170.047C160.934 170.961 155.895 171.008 152.168 171.008L151.793 168.289ZM155.965 160.484C155.965 162.09 157.137 162.934 158.637 162.922C160.172 162.934 161.355 162.09 161.379 160.484C161.355 158.914 160.184 158.047 158.637 158.047C157.125 158.047 155.965 158.914 155.965 160.484ZM166.535 175.297V153.734H169.887V175.297H166.535ZM180.574 158.305C180.562 162.195 181.922 166.074 185.496 167.797L183.48 170.469C181.23 169.379 179.766 167.41 178.898 164.973C177.984 167.598 176.402 169.719 173.988 170.891L171.926 168.148C175.723 166.438 177.188 162.336 177.199 158.305V155.328H180.574V158.305ZM186.129 175.25V153.734H189.504V161.891H192.551V164.727H189.504V175.25H186.129ZM210.316 153.734V159.078H213.105V161.867H210.316V167.328H206.941V153.734H210.316ZM193.16 158.281V155.656H197.848V153.641H201.223V155.656H205.91V158.281H193.16ZM194.168 162.781C194.156 160.496 196.359 158.902 199.535 158.891C202.676 158.902 204.867 160.496 204.879 162.781C204.867 165.102 202.676 166.648 199.535 166.672C196.371 166.648 194.156 165.102 194.168 162.781ZM195.855 171.406C195.844 168.98 198.668 167.539 203.215 167.539C207.668 167.539 210.539 168.98 210.551 171.406C210.539 173.797 207.668 175.273 203.215 175.25C198.668 175.273 195.844 173.797 195.855 171.406ZM197.449 162.781C197.449 163.73 198.281 164.188 199.535 164.164C200.801 164.188 201.656 163.73 201.668 162.781C201.656 161.82 200.801 161.34 199.535 161.352C198.281 161.34 197.449 161.82 197.449 162.781ZM199.207 171.406C199.195 172.297 200.543 172.766 203.215 172.766C205.816 172.766 207.152 172.297 207.152 171.406C207.152 170.469 205.816 170.094 203.215 170.094C200.543 170.094 199.195 170.469 199.207 171.406ZM231.996 153.734V175.297H228.598V153.734H231.996ZM214.488 162.898C214.488 158.188 216.938 155.199 220.254 155.211C223.523 155.199 225.961 158.188 225.973 162.898C225.961 167.68 223.523 170.656 220.254 170.656C216.938 170.656 214.488 167.68 214.488 162.898ZM217.77 162.898C217.746 166.027 218.742 167.586 220.254 167.586C221.719 167.586 222.703 166.027 222.715 162.898C222.703 159.828 221.719 158.246 220.254 158.258C218.742 158.246 217.746 159.828 217.77 162.898ZM248.027 167.328C248.039 169.004 248.672 170.715 250.324 171.898C251.988 170.668 252.68 168.91 252.691 167.328V166.742H256.02V167.328C255.996 169.59 257.051 171.617 259.934 172.484L258.316 174.922C256.289 174.266 254.988 173 254.238 171.395C253.523 173.012 252.293 174.383 250.395 175.109C248.391 174.406 247.148 173.07 246.445 171.465C245.684 173.012 244.406 174.254 242.473 174.922L240.809 172.484C243.68 171.523 244.734 169.438 244.746 167.328V166.742H248.027V167.328ZM240.316 160.016C240.305 156.957 242.883 154.801 246.27 154.789C249.645 154.801 252.223 156.957 252.223 160.016C252.223 163.027 249.645 165.207 246.27 165.195C242.883 165.207 240.305 163.027 240.316 160.016ZM243.598 160.016C243.598 161.527 244.711 162.406 246.27 162.406C247.781 162.406 248.883 161.527 248.871 160.016C248.883 158.469 247.781 157.625 246.27 157.625C244.711 157.625 243.598 158.469 243.598 160.016ZM254.73 165.875V153.758H258.105V165.875H254.73ZM266.754 155.211C269.648 155.199 271.84 157.555 272.297 161.375H275.684V153.734H279.012V175.297H275.684V164.047H272.332C271.98 168.148 269.742 170.656 266.754 170.656C263.461 170.656 261.094 167.68 261.105 162.898C261.094 158.188 263.461 155.199 266.754 155.211ZM264.34 162.898C264.328 166.027 265.312 167.586 266.754 167.586C268.219 167.586 269.168 166.027 269.168 162.898C269.168 159.828 268.219 158.246 266.754 158.258C265.312 158.246 264.328 159.828 264.34 162.898ZM301.184 170.07V172.812H281.52V170.07H285.762V164.961C284.145 163.941 283.172 162.418 283.184 160.531C283.172 157.027 286.629 154.695 291.316 154.695C295.992 154.695 299.484 157.027 299.496 160.531C299.484 162.383 298.547 163.883 296.988 164.891V170.07H301.184ZM286.535 160.531C286.523 162.57 288.387 163.766 291.316 163.766C294.223 163.766 296.145 162.57 296.145 160.531C296.145 158.469 294.223 157.332 291.316 157.344C288.387 157.332 286.523 158.469 286.535 160.531ZM289.09 170.07H293.566V166.18C292.863 166.297 292.102 166.367 291.316 166.367C290.531 166.367 289.793 166.297 289.09 166.18V170.07ZM307.605 156.031L307.254 167.82H303.902L303.551 156.031H307.605ZM303.457 171.102C303.434 169.953 304.406 169.016 305.566 169.016C306.691 169.016 307.688 169.953 307.699 171.102C307.688 172.285 306.691 173.234 305.566 173.234C304.406 173.234 303.434 172.285 303.457 171.102Z" fill="#333D4B"/>
<path d="M137.547 193.521C137.54 195.572 138.887 197.691 140.773 198.498L140.062 199.51C138.62 198.874 137.472 197.521 136.904 195.887C136.337 197.637 135.188 199.127 133.76 199.824L133.008 198.799C134.854 197.931 136.221 195.634 136.234 193.521V192.223H133.432V191.143H140.336V192.223H137.547V193.521ZM141.881 202.162V189.912H143.18V202.162H141.881ZM154.924 190.527V191.457C154.931 192.414 154.931 193.521 154.609 194.998H156.346V196.064H145.135V194.998H153.297C153.625 193.569 153.639 192.523 153.639 191.594H146.543V190.527H154.924ZM146.502 202.012V197.623H154.938V202.012H146.502ZM147.773 200.959H153.652V198.648H147.773V200.959ZM162.402 190.691V192.564H164.768V190.691H165.971V196.475H161.172V190.691H162.402ZM162.402 195.422H164.768V193.576H162.402V195.422ZM162.771 199.018V197.965H171.098V202.162H169.812V199.018H162.771ZM167.229 197.199V190.145H168.432V193.043H169.867V189.926H171.098V197.281H169.867V194.109H168.432V197.199H167.229ZM182.527 197.637V202.012H174.092V197.637H182.527ZM172.766 196.393V195.354H177.236V193.07H178.508V195.354H183.908V196.393H172.766ZM174.064 191.484V190.459H182.527V191.471C182.514 192.435 182.514 193.439 182.199 194.697L180.9 194.574C181.229 193.33 181.229 192.428 181.229 191.484H174.064ZM175.377 200.959H181.256V198.662H175.377V200.959ZM190.43 190.117C193.191 190.11 194.798 190.855 194.805 192.223C194.798 193.597 193.191 194.342 190.43 194.342C187.668 194.342 186.048 193.597 186.055 192.223C186.048 190.855 187.668 190.11 190.43 190.117ZM184.852 196.133V195.094H196.021V196.133H184.852ZM186.191 198.047V197.076H194.613V199.947H187.477V201.041H194.955V202.039H186.205V199.004H193.328V198.047H186.191ZM187.408 192.223C187.401 192.981 188.481 193.371 190.43 193.371C192.392 193.371 193.472 192.981 193.465 192.223C193.472 191.498 192.392 191.074 190.43 191.074C188.481 191.074 187.401 191.498 187.408 192.223ZM206.59 190.486V191.525H202.201V192.66H206.357V193.658H202.201V194.875C204.505 194.868 205.817 194.827 207.396 194.574L207.52 195.6C205.831 195.88 204.416 195.921 201.859 195.928H200.902V190.486H206.59ZM202.078 197.869V196.844H209.994V199.852H203.377V201.027H210.418V202.039H202.105V198.895H208.709V197.869H202.078ZM208.695 196.283V189.912H209.994V192.496H211.771V193.562H209.994V196.283H208.695ZM219.865 195.723V196.762H217.213V198.601C218.334 198.539 219.469 198.443 220.535 198.293L220.631 199.236C217.862 199.763 214.889 199.763 212.701 199.783L212.537 198.703C213.528 198.703 214.697 198.696 215.928 198.655V196.762H213.439V190.979H219.811V192.031H214.752V193.344H219.564V194.355H214.752V195.723H219.865ZM221.301 202.189V189.912H222.6V202.189H221.301ZM234.111 189.912V194.875H236.08V195.955H234.111V202.162H232.826V189.912H234.111ZM224.5 192.893V191.826H227.521V190.076H228.82V191.826H231.76V192.893H224.5ZM225.129 196.639C225.129 194.971 226.414 193.795 228.178 193.795C229.935 193.795 231.22 194.971 231.227 196.639C231.22 198.32 229.935 199.489 228.178 199.496C226.414 199.489 225.129 198.32 225.129 196.639ZM226.373 196.639C226.366 197.705 227.132 198.416 228.178 198.402C229.217 198.416 229.976 197.705 229.982 196.639C229.976 195.593 229.217 194.868 228.178 194.861C227.132 194.868 226.366 195.593 226.373 196.639ZM241.166 193.029C241.152 195.265 242.506 197.521 244.406 198.361L243.627 199.387C242.219 198.717 241.104 197.343 240.53 195.668C239.963 197.466 238.835 198.942 237.365 199.66L236.572 198.566C238.5 197.712 239.854 195.367 239.854 193.029V190.938H241.166V193.029ZM245.514 202.189V189.912H246.812V202.189H245.514ZM255.016 190.951V191.99H257.682V189.926H258.98V198.854H257.682V195.682H255.016V196.748H249.328V190.951H255.016ZM250.613 195.723H253.744V192.004H250.613V195.723ZM250.982 201.902V198.033H252.295V200.85H259.254V201.902H250.982ZM255.016 194.615H257.682V193.057H255.016V194.615ZM55.1738 210.828C57.0059 210.835 58.3115 212.503 58.3184 215.121C58.3115 217.767 57.0059 219.435 55.1738 219.428C53.3418 219.435 52.0361 217.767 52.043 215.121C52.0361 212.503 53.3418 210.835 55.1738 210.828ZM53.2871 215.121C53.2803 217.069 54.0596 218.266 55.1738 218.266C56.3086 218.266 57.0742 217.069 57.0742 215.121C57.0742 213.2 56.3086 211.997 55.1738 211.99C54.0596 211.997 53.2803 213.2 53.2871 215.121ZM60.1367 222.162V209.912H61.4355V214.711H63.4043V215.805H61.4355V222.162H60.1367ZM68.9961 211.197V215.627H65.6328V218.211C66.959 218.204 68.2168 218.143 69.6934 217.91L69.8027 218.949C68.1006 219.25 66.7334 219.291 65.209 219.305H64.375V214.561H67.7383V212.264H64.3613V211.197H68.9961ZM70.4863 221.533V210.158H71.6758V214.684H73.2617V209.912H74.5059V222.162H73.2617V215.736H71.6758V221.533H70.4863ZM79.7695 210.691C81.6562 210.691 83.0576 211.881 83.0645 213.604C83.0576 215.121 81.9707 216.222 80.4258 216.468V218.409C81.5127 218.354 82.5996 218.272 83.6113 218.143L83.707 219.113C81.1162 219.564 78.2656 219.585 76.1465 219.564L75.9414 218.498C76.8916 218.491 77.9854 218.484 79.127 218.457V216.468C77.5479 216.235 76.4678 215.128 76.4746 213.604C76.4678 211.881 77.8486 210.691 79.7695 210.691ZM77.7324 213.604C77.7256 214.69 78.5938 215.415 79.7695 215.408C80.9316 215.415 81.7861 214.69 81.793 213.604C81.7861 212.51 80.9316 211.799 79.7695 211.785C78.5938 211.799 77.7256 212.51 77.7324 213.604ZM84.3496 222.162V209.912H85.6484V214.889H87.5352V215.982H85.6484V222.162H84.3496ZM101.234 209.912V212.674H103.012V213.727H101.234V216.42H99.9355V209.912H101.234ZM91.623 215.6C94.7061 214.978 96.3125 213.535 96.4902 211.799H92.1699V210.76H97.9258C97.9258 213.884 95.8135 215.873 92.1699 216.652L91.623 215.6ZM93.373 222.012V216.939H101.289V217.924H94.6719V218.977H101.152V219.92H94.6719V221.027H101.562V222.012H93.373ZM114.879 216.311V217.35H103.709V216.311H114.879ZM104.912 212.77C104.905 211.231 106.621 210.315 109.287 210.322C111.939 210.315 113.655 211.231 113.662 212.77C113.655 214.314 111.939 215.251 109.287 215.258C106.621 215.251 104.905 214.314 104.912 212.77ZM105.117 221.902V218.348H106.43V220.85H113.621V221.902H105.117ZM106.252 212.77C106.245 213.679 107.407 214.191 109.287 214.191C111.16 214.191 112.329 213.679 112.322 212.77C112.329 211.895 111.16 211.361 109.287 211.361C107.407 211.361 106.245 211.895 106.252 212.77ZM129.439 209.912V217.199H128.141V214.096H125.857V213.029H128.141V209.912H129.439ZM119.227 216.092C121.127 215.429 122.296 213.774 122.289 212.086V211.812H119.637V210.76H126.24V211.812H123.615V212.072C123.608 213.624 124.716 215.135 126.568 215.764L125.898 216.789C124.524 216.317 123.513 215.333 122.979 214.123C122.446 215.49 121.373 216.591 119.91 217.131L119.227 216.092ZM121.195 219.852C121.188 218.396 122.761 217.548 125.338 217.541C127.901 217.548 129.474 218.396 129.48 219.852C129.474 221.308 127.901 222.155 125.338 222.162C122.761 222.155 121.188 221.308 121.195 219.852ZM122.48 219.852C122.474 220.679 123.54 221.15 125.338 221.137C127.122 221.15 128.188 220.679 128.195 219.852C128.188 219.018 127.122 218.546 125.338 218.553C123.54 218.546 122.474 219.018 122.48 219.852ZM142.537 219.564V220.645H131.326V219.564H136.262V217.049H132.611V210.746H133.91V212.852H139.926V210.746H141.211V217.049H137.547V219.564H142.537ZM133.91 215.996H139.926V213.904H133.91V215.996ZM147.104 210.691C148.99 210.691 150.392 211.881 150.398 213.604C150.392 215.121 149.305 216.222 147.76 216.468V218.409C148.847 218.354 149.934 218.272 150.945 218.143L151.041 219.113C148.45 219.564 145.6 219.585 143.48 219.564L143.275 218.498C144.226 218.491 145.319 218.484 146.461 218.457V216.468C144.882 216.235 143.802 215.128 143.809 213.604C143.802 211.881 145.183 210.691 147.104 210.691ZM145.066 213.604C145.06 214.69 145.928 215.415 147.104 215.408C148.266 215.415 149.12 214.69 149.127 213.604C149.12 212.51 148.266 211.799 147.104 211.785C145.928 211.799 145.06 212.51 145.066 213.604ZM151.684 222.162V209.912H152.982V214.889H154.869V215.982H152.982V222.162H151.684ZM169.389 209.912V217.24H168.158V209.912H169.389ZM159.053 213.604C159.046 211.881 160.222 210.671 161.855 210.664C163.312 210.671 164.426 211.648 164.638 213.098H165.779V210.145H166.996V217.145H165.779V214.15H164.631C164.405 215.593 163.298 216.55 161.855 216.543C160.222 216.55 159.046 215.347 159.053 213.604ZM160.215 213.604C160.208 214.711 160.905 215.463 161.855 215.449C162.799 215.463 163.496 214.711 163.51 213.604C163.496 212.523 162.799 211.785 161.855 211.785C160.905 211.785 160.208 212.523 160.215 213.604ZM161.062 218.826V217.787H169.389V222.176H168.104V218.826H161.062ZM174.775 213.262C174.775 215.217 175.596 217.302 177.236 218.307L176.512 219.305C175.363 218.614 174.591 217.391 174.167 215.976C173.723 217.527 172.875 218.854 171.686 219.578L170.879 218.607C172.608 217.568 173.524 215.401 173.518 213.316V211.033H174.775V213.262ZM175.91 215.299V214.219H177.811V210.145H179.041V221.561H177.811V215.299H175.91ZM180.34 222.162V209.912H181.584V222.162H180.34ZM189.363 211.648C189.363 213.645 191.489 215.531 193.848 215.955L193.246 217.035C191.284 216.611 189.486 215.326 188.693 213.604C187.887 215.319 186.089 216.598 184.127 217.035L183.553 215.955C185.877 215.518 187.989 213.645 187.996 211.648V210.719H189.363V211.648ZM183.143 220.549V219.469H194.354V220.549H183.143ZM208.914 209.926V219.168H207.602V217.568H205.004V216.529H207.602V209.926H208.914ZM198.578 214.697C200.116 214.69 202.03 214.67 203.924 214.547C204.129 213.303 204.184 212.346 204.19 211.662H199.686V210.609H205.496V211.088C205.489 211.751 205.489 212.886 205.236 214.444C205.688 214.396 206.132 214.349 206.562 214.287L206.658 215.23C205.558 215.415 204.416 215.538 203.295 215.613V218.375H201.996V215.682C200.827 215.736 199.72 215.75 198.756 215.75L198.578 214.697ZM200.369 221.902V218.17H201.668V220.85H209.215V221.902H200.369ZM220.385 209.926V213.863H222.162V214.943H220.385V219.086H219.086V209.926H220.385ZM210.773 212.4V211.348H213.781V209.912H215.08V211.348H218.074V212.4H210.773ZM211.443 215.299C211.437 213.897 212.646 212.981 214.424 212.988C216.181 212.981 217.391 213.897 217.391 215.299C217.391 216.687 216.181 217.589 214.424 217.596C212.646 217.589 211.437 216.687 211.443 215.299ZM212.619 221.902V218.361H213.918V220.85H220.904V221.902H212.619ZM212.701 215.299C212.688 216.099 213.385 216.591 214.424 216.584C215.463 216.591 216.16 216.099 216.174 215.299C216.16 214.492 215.463 213.993 214.424 213.986C213.385 213.993 212.688 214.492 212.701 215.299ZM228.438 210.117C231.199 210.11 232.806 210.855 232.812 212.223C232.806 213.597 231.199 214.342 228.438 214.342C225.676 214.342 224.056 213.597 224.062 212.223C224.056 210.855 225.676 210.11 228.438 210.117ZM222.859 216.133V215.094H234.029V216.133H222.859ZM224.199 218.047V217.076H232.621V219.947H225.484V221.041H232.963V222.039H224.213V219.004H231.336V218.047H224.199ZM225.416 212.223C225.409 212.981 226.489 213.371 228.438 213.371C230.399 213.371 231.479 212.981 231.473 212.223C231.479 211.498 230.399 211.074 228.438 211.074C226.489 211.074 225.409 211.498 225.416 212.223ZM248.891 209.912V222.162H247.646V209.912H248.891ZM238.199 218.785C239.936 217.739 240.817 215.511 240.824 213.33V212.346H238.568V211.293H244.174V212.346H242.068V213.33C242.068 215.422 242.916 217.521 244.639 218.512L243.859 219.469C242.69 218.771 241.891 217.521 241.46 216.044C241.022 217.644 240.188 219.011 238.992 219.756L238.199 218.785ZM243.271 215.312V214.246H245.172V210.172H246.402V221.547H245.172V215.312H243.271ZM256 217.609C258.652 217.609 260.327 218.45 260.334 219.879C260.327 221.301 258.652 222.142 256 222.135C253.375 222.142 251.693 221.301 251.693 219.879C251.693 218.45 253.375 217.609 256 217.609ZM250.49 216.598V215.545H254.961V213.248H256.232V215.545H261.633V216.598H250.49ZM251.789 211.553V210.514H260.238V211.539C260.245 212.517 260.245 213.528 259.896 214.793L258.625 214.656C258.953 213.405 258.953 212.503 258.953 211.553H251.789ZM252.992 219.879C252.979 220.672 254.147 221.13 256 221.137C257.873 221.13 259.035 220.672 259.049 219.879C259.035 219.072 257.873 218.601 256 218.594C254.147 218.601 252.979 219.072 252.992 219.879ZM272.201 209.912V212.811H273.979V213.891H272.201V217.062H270.902V209.912H272.201ZM263.055 216.352V210.609H264.326V212.387H267.539V210.609H268.824V216.352H263.055ZM264.326 215.326H267.539V213.412H264.326V215.326ZM264.395 221.984V217.705H272.297V218.744H265.693V220.959H272.516V221.984H264.395ZM280.254 210.117C283.016 210.11 284.622 210.855 284.629 212.223C284.622 213.597 283.016 214.342 280.254 214.342C277.492 214.342 275.872 213.597 275.879 212.223C275.872 210.855 277.492 210.11 280.254 210.117ZM274.676 216.133V215.094H285.846V216.133H274.676ZM276.016 218.047V217.076H284.438V219.947H277.301V221.041H284.779V222.039H276.029V219.004H283.152V218.047H276.016ZM277.232 212.223C277.226 212.981 278.306 213.371 280.254 213.371C282.216 213.371 283.296 212.981 283.289 212.223C283.296 211.498 282.216 211.074 280.254 211.074C278.306 211.074 277.226 211.498 277.232 212.223ZM296.469 210.992C296.462 212.619 298.451 214.144 300.857 214.465L300.352 215.531C298.349 215.21 296.592 214.171 295.792 212.729C294.992 214.171 293.235 215.21 291.246 215.531L290.727 214.465C293.126 214.144 295.108 212.64 295.115 210.992V210.322H296.469V210.992ZM290.193 217.801V216.734H301.363V217.801H296.387V222.162H295.115V217.801H290.193ZM308.322 217.09V218.512H310.236V217.09H311.439V222.012H307.105V217.09H308.322ZM305.889 213.262C305.882 211.587 307.229 210.432 309.102 210.432C310.715 210.432 311.966 211.341 312.232 212.715H314.625V209.912H315.924V216.406H314.625V213.781H312.239C311.986 215.183 310.729 216.112 309.102 216.105C307.229 216.112 305.882 214.95 305.889 213.262ZM307.133 213.262C307.126 214.321 307.946 215.046 309.102 215.053C310.236 215.046 311.043 214.321 311.043 213.262C311.043 212.216 310.236 211.505 309.102 211.512C307.946 211.505 307.126 212.216 307.133 213.262ZM308.322 221H310.236V219.496H308.322V221ZM311.508 221.123C312.984 220.515 313.709 219.229 313.709 218.006V217.008H314.994V218.006C314.987 219.291 315.712 220.59 317.223 221.123L316.553 222.107C315.445 221.684 314.728 220.884 314.338 219.913C313.935 220.856 313.217 221.67 312.164 222.107L311.508 221.123ZM321.133 210.828C322.801 210.835 324.011 212.243 324.209 214.506H326.738V209.912H328.023V222.189H326.738V215.559H324.223C324.079 217.951 322.842 219.435 321.133 219.428C319.308 219.435 318.016 217.767 318.029 215.121C318.016 212.503 319.308 210.835 321.133 210.828ZM319.26 215.121C319.267 217.069 320.025 218.266 321.133 218.266C322.24 218.266 322.999 217.069 323.006 215.121C322.999 213.2 322.24 211.997 321.133 211.99C320.025 211.997 319.267 213.2 319.26 215.121ZM341.121 219.551V220.631H329.91V219.551H332.59V216.352C331.585 215.798 330.97 214.923 330.977 213.822C330.97 211.895 332.863 210.63 335.488 210.623C338.12 210.63 340.014 211.895 340.014 213.822C340.014 214.902 339.426 215.771 338.441 216.324V219.551H341.121ZM332.234 213.822C332.234 215.135 333.567 215.989 335.488 215.996C337.396 215.989 338.749 215.135 338.756 213.822C338.749 212.503 337.396 211.662 335.488 211.662C333.567 211.662 332.234 212.503 332.234 213.822ZM333.875 219.551H337.129V216.83C336.63 216.946 336.076 217.008 335.488 217.008C334.914 217.008 334.367 216.946 333.875 216.83V219.551Z" fill="#6B7684"/>
</svg>
