<svg width="34" height="34" viewBox="0 0 34 34" fill="none" xmlns="http://www.w3.org/2000/svg">
<rect width="34" height="34" rx="10" fill="#FF5761" fill-opacity="0.1"/>
<path d="M22 8.33989C23.5083 9.21075 24.7629 10.4604 25.6398 11.9652C26.5167 13.47 26.9854 15.1777 26.9994 16.9192C27.0135 18.6608 26.5725 20.3758 25.72 21.8946C24.8676 23.4133 23.6332 24.6831 22.1392 25.5782C20.6452 26.4733 18.9434 26.9627 17.2021 26.998C15.4608 27.0332 13.7406 26.6131 12.2116 25.7791C10.6826 24.9452 9.39787 23.7264 8.48467 22.2434C7.57146 20.7604 7.06141 19.0646 7.005 17.3239L7 16.9999L7.005 16.6759C7.061 14.9489 7.56355 13.2659 8.46364 11.7909C9.36373 10.3159 10.6307 9.09934 12.1409 8.25977C13.6511 7.42021 15.3531 6.98629 17.081 7.00033C18.8089 7.01437 20.5036 7.47589 22 8.33989ZM17 18.1999C16.4014 18.1998 15.8088 18.3192 15.257 18.551C14.7051 18.7828 14.205 19.1224 13.786 19.5499C13.6919 19.6432 13.6172 19.7543 13.5664 19.8767C13.5156 19.9991 13.4896 20.1303 13.49 20.2628C13.4904 20.3954 13.5171 20.5265 13.5686 20.6486C13.6201 20.7707 13.6953 20.8814 13.7899 20.9742C13.8846 21.0669 13.9967 21.14 14.1198 21.189C14.2429 21.2381 14.3745 21.2622 14.507 21.2599C14.6395 21.2577 14.7703 21.2291 14.8916 21.1759C15.013 21.1227 15.1226 21.0458 15.214 20.9499C15.4468 20.7122 15.7247 20.5234 16.0313 20.3945C16.338 20.2656 16.6673 20.1992 17 20.1992C17.3327 20.1992 17.662 20.2656 17.9687 20.3945C18.2753 20.5234 18.5532 20.7122 18.786 20.9499C18.9726 21.1349 19.2245 21.239 19.4872 21.2397C19.75 21.2404 20.0025 21.1377 20.1901 20.9538C20.3777 20.7698 20.4854 20.5194 20.4899 20.2567C20.4943 19.994 20.3952 19.7401 20.214 19.5499C19.795 19.1224 19.2949 18.7828 18.743 18.551C18.1912 18.3192 17.5986 18.1998 17 18.1999ZM14.01 13.9999L13.883 14.0069C13.64 14.0358 13.4159 14.1528 13.2534 14.3359C13.0909 14.5189 13.0011 14.7551 13.0011 14.9999C13.0011 15.2447 13.0909 15.4809 13.2534 15.6639C13.4159 15.8469 13.64 15.964 13.883 15.9929L14 15.9999L14.127 15.9929C14.37 15.964 14.5941 15.8469 14.7566 15.6639C14.9191 15.4809 15.0089 15.2447 15.0089 14.9999C15.0089 14.7551 14.9191 14.5189 14.7566 14.3359C14.5941 14.1528 14.37 14.0358 14.127 14.0069L14.01 13.9999ZM20.01 13.9999L19.883 14.0069C19.64 14.0358 19.4159 14.1528 19.2534 14.3359C19.0909 14.5189 19.0011 14.7551 19.0011 14.9999C19.0011 15.2447 19.0909 15.4809 19.2534 15.6639C19.4159 15.8469 19.64 15.964 19.883 15.9929L20 15.9999L20.127 15.9929C20.37 15.964 20.5941 15.8469 20.7566 15.6639C20.9191 15.4809 21.0089 15.2447 21.0089 14.9999C21.0089 14.7551 20.9191 14.5189 20.7566 14.3359C20.5941 14.1528 20.37 14.0358 20.127 14.0069L20.01 13.9999Z" fill="#FF5761"/>
</svg>
