<svg width="25" height="24" viewBox="0 0 25 24" fill="none" xmlns="http://www.w3.org/2000/svg">
<path d="M12.7 12C11.6 12 10.6583 11.6083 9.87495 10.825C9.09162 10.0417 8.69995 9.1 8.69995 8C8.69995 6.9 9.09162 5.95833 9.87495 5.175C10.6583 4.39167 11.6 4 12.7 4C13.8 4 14.7416 4.39167 15.525 5.175C16.3083 5.95833 16.7 6.9 16.7 8C16.7 9.1 16.3083 10.0417 15.525 10.825C14.7416 11.6083 13.8 12 12.7 12ZM4.69995 18V17.2C4.69995 16.6333 4.84578 16.1125 5.13745 15.6375C5.42912 15.1625 5.81662 14.8 6.29995 14.55C7.33328 14.0333 8.38328 13.6458 9.44995 13.3875C10.5166 13.1292 11.6 13 12.7 13C13.8 13 14.8833 13.1292 15.95 13.3875C17.0166 13.6458 18.0666 14.0333 19.1 14.55C19.5833 14.8 19.9708 15.1625 20.2625 15.6375C20.5541 16.1125 20.7 16.6333 20.7 17.2V18C20.7 18.55 20.5041 19.0208 20.1125 19.4125C19.7208 19.8042 19.25 20 18.7 20H6.69995C6.14995 20 5.67912 19.8042 5.28745 19.4125C4.89578 19.0208 4.69995 18.55 4.69995 18Z" fill="#B0B8C1"/>
</svg>
