<svg width="25" height="24" viewBox="0 0 25 24" fill="none" xmlns="http://www.w3.org/2000/svg">
<path d="M19.9 3C20.6652 2.99996 21.4015 3.29233 21.9583 3.81728C22.515 4.34224 22.8501 5.06011 22.895 5.824L22.9 6V18C22.9 18.7652 22.6077 19.5015 22.0827 20.0583C21.5578 20.615 20.8399 20.9501 20.076 20.995L19.9 21H5.89999C5.13478 21 4.39848 20.7077 3.84173 20.1827C3.28499 19.6578 2.94989 18.9399 2.90499 18.176L2.89999 18V6C2.89995 5.23479 3.19232 4.49849 3.71728 3.94174C4.24224 3.38499 4.9601 3.04989 5.72399 3.005L5.89999 3H19.9ZM17.9 15H7.89999L7.78299 15.007C7.53994 15.0359 7.31594 15.153 7.15341 15.336C6.99088 15.519 6.90111 15.7552 6.90111 16C6.90111 16.2448 6.99088 16.481 7.15341 16.664C7.31594 16.847 7.53994 16.9641 7.78299 16.993L7.89999 17H17.9L18.017 16.993C18.26 16.9641 18.4841 16.847 18.6466 16.664C18.8091 16.481 18.8989 16.2448 18.8989 16C18.8989 15.7552 18.8091 15.519 18.6466 15.336C18.4841 15.153 18.26 15.0359 18.017 15.007L17.9 15ZM17.9 11H7.89999L7.78299 11.007C7.53994 11.0359 7.31594 11.153 7.15341 11.336C6.99088 11.519 6.90111 11.7552 6.90111 12C6.90111 12.2448 6.99088 12.481 7.15341 12.664C7.31594 12.847 7.53994 12.9641 7.78299 12.993L7.89999 13H17.9L18.017 12.993C18.26 12.9641 18.4841 12.847 18.6466 12.664C18.8091 12.481 18.8989 12.2448 18.8989 12C18.8989 11.7552 18.8091 11.519 18.6466 11.336C18.4841 11.153 18.26 11.0359 18.017 11.007L17.9 11ZM17.9 7H7.89999L7.78299 7.007C7.53994 7.03591 7.31594 7.15296 7.15341 7.33596C6.99088 7.51897 6.90111 7.75524 6.90111 8C6.90111 8.24476 6.99088 8.48103 7.15341 8.66403C7.31594 8.84704 7.53994 8.96409 7.78299 8.993L7.89999 9H17.9L18.017 8.993C18.26 8.96409 18.4841 8.84704 18.6466 8.66403C18.8091 8.48103 18.8989 8.24476 18.8989 8C18.8989 7.75524 18.8091 7.51897 18.6466 7.33596C18.4841 7.15296 18.26 7.03591 18.017 7.007L17.9 7Z" fill="#B0B8C1"/>
</svg>
