<svg width="36" height="36" viewBox="0 0 36 36" fill="none" xmlns="http://www.w3.org/2000/svg">
<g clip-path="url(#clip0_2169_42241)">
<rect width="36" height="36" rx="18" fill="#1778FB"/>
<path d="M10.404 26.5C10.1478 26.5 9.93317 26.4133 9.76 26.24C9.58667 26.0668 9.5 25.8522 9.5 25.596V23.8635C9.5 23.6197 9.54683 23.3873 9.6405 23.1663C9.734 22.9453 9.86283 22.7527 10.027 22.5885L22.6905 9.93075C22.8417 9.79342 23.0086 9.68733 23.1913 9.6125C23.3741 9.5375 23.5658 9.5 23.7663 9.5C23.9668 9.5 24.1609 9.53558 24.3488 9.60675C24.5368 9.67792 24.7032 9.79108 24.848 9.94625L26.0693 11.1827C26.2244 11.3276 26.335 11.4942 26.401 11.6827C26.467 11.8712 26.5 12.0597 26.5 12.2482C26.5 12.4494 26.4657 12.6413 26.397 12.824C26.3283 13.0068 26.2191 13.1738 26.0693 13.325L13.4115 25.973C13.2473 26.1372 13.0548 26.266 12.8338 26.3595C12.6128 26.4532 12.3803 26.5 12.1365 26.5H10.404ZM23.552 13.6943L25 12.2557L23.7443 11L22.3057 12.448L23.552 13.6943Z" fill="white"/>
</g>
<defs>
<clipPath id="clip0_2169_42241">
<rect width="36" height="36" rx="18" fill="white"/>
</clipPath>
</defs>
</svg>
