<svg width="101" height="100" viewBox="0 0 101 100" fill="none" xmlns="http://www.w3.org/2000/svg">
<path fill-rule="evenodd" clip-rule="evenodd" d="M13.5496 68.2141C8.90297 74.9445 13.2605 84.4406 21.3932 85.307L24.7818 85.668C30.1618 86.2411 34.5247 82.7533 35.8524 78.1273C40.2317 80.142 45.7041 79.1122 48.7605 74.6517L50.6908 71.8347C55.3235 65.0738 50.9311 55.5017 42.7845 54.605L39.3901 54.2313C33.9655 53.6342 29.5855 57.1817 28.3014 61.8798C23.9486 59.9434 18.5315 60.998 15.4857 65.4097L13.5496 68.2141Z" fill="#FD313D"/>
<mask id="mask0_873_22383" style="mask-type:alpha" maskUnits="userSpaceOnUse" x="11" y="54" width="42" height="32">
<path fill-rule="evenodd" clip-rule="evenodd" d="M13.5497 68.214C8.90301 74.9445 13.2605 84.4406 21.3932 85.307L24.7818 85.668C30.1618 86.2411 34.5247 82.7533 35.8525 78.1273C40.2317 80.142 45.7041 79.1122 48.7605 74.6517L50.6908 71.8347C55.3235 65.0738 50.9311 55.5017 42.7845 54.605L39.3901 54.2313C33.9656 53.6342 29.5855 57.1817 28.3015 61.8798C23.9486 59.9434 18.5315 60.998 15.4858 65.4097L13.5497 68.214Z" fill="#FF5761"/>
</mask>
<g mask="url(#mask0_873_22383)">
<path d="M34.6806 81.4118C39.3958 73.2962 29.6821 62.5332 24.3066 58.0783C29.7102 62.5944 33.994 76.2857 30.747 81.5512C28.1494 85.7635 21.9565 86.0291 19.1848 85.6353C22.3854 87.609 29.9654 89.5274 34.6806 81.4118Z" fill="#FD313D"/>
<path d="M42.7845 54.605C50.9311 55.5018 55.3235 65.0739 50.6908 71.8347L48.7605 74.6518C44.1278 81.4127 33.9446 80.2917 30.4307 72.6341L28.9666 69.4434C25.4526 61.7857 31.2435 53.3346 39.3901 54.2314L42.7845 54.605Z" fill="#FF5761"/>
</g>
<path d="M48.4561 63.939C47.9509 62.8382 47.1916 61.4877 45.742 61.6456C44.5124 61.7794 43.5781 62.6083 42.6266 61.3211C42.0179 60.4976 41.5476 60.114 40.5058 59.9987C39.9583 59.9381 38.3017 60.416 38.2796 61.0756" stroke="#FD313D" stroke-width="1.2111" stroke-linecap="round"/>
<path d="M45.6609 72.0904C44.7063 72.5284 43.9242 72.8138 43.2508 73.6517C42.8563 74.1427 42.0465 75.3059 41.2382 75.0061C40.787 74.8387 40.4544 74.4173 40.1867 74.0423C39.6615 73.3071 38.9158 72.4568 37.9268 72.5375C36.809 72.6288 35.9514 73.5548 35.0099 73.9868" stroke="#FD313D" stroke-width="1.2111" stroke-linecap="round"/>
<path d="M39.5677 67.0205C38.9478 67.3049 38.4263 67.602 37.7233 67.5344C36.8075 67.4464 36.3817 67.172 35.698 66.6482C35.3152 66.355 35.0316 65.4415 34.8699 64.9911C34.5783 64.1788 34.8518 63.6098 33.9353 63.4505C33.0499 63.2967 32.165 62.1525 32.352 61.2475C32.4614 60.7184 32.9158 59.9013 34.6015 59.4609" stroke="#FD313D" stroke-width="1.2111" stroke-linecap="round"/>
<path d="M15.9287 78.4463C15.4236 77.3455 14.895 75.8892 15.96 74.8931C16.8633 74.0483 18.1009 73.8804 17.7456 72.3197C17.5182 71.3212 17.534 70.7145 18.126 69.8495C18.4371 69.395 19.8797 68.4507 20.3942 68.8641" stroke="#FF5761" stroke-width="1.2111" stroke-linecap="round"/>
<path d="M23.9314 81.6427C24.886 81.2046 25.6123 80.7978 26.6867 80.8337C27.3162 80.8548 28.7261 80.9995 29.0259 80.1911C29.1933 79.7399 29.0906 79.2129 28.981 78.7654C28.766 77.8879 28.6078 76.768 29.3139 76.0709C30.112 75.283 31.3733 75.2367 32.3148 74.8046" stroke="#FF5761" stroke-width="1.2111" stroke-linecap="round"/>
<path d="M24.0614 73.7177C24.6812 73.4333 25.2466 73.2317 25.6538 72.6547C26.1842 71.9029 26.2538 71.4012 26.3026 70.5413C26.33 70.0599 25.8224 69.2492 25.5864 68.8329C25.1607 68.082 24.551 67.9184 25.0279 67.1197C25.4886 66.3481 25.1984 64.9311 24.3903 64.4827C23.9178 64.2206 23.002 64.0322 21.5689 65.023" stroke="#FF5761" stroke-width="1.2111" stroke-linecap="round"/>
<path fill-rule="evenodd" clip-rule="evenodd" d="M39.3167 62.3754C47.4441 63.2901 53.754 54.9625 50.6745 47.3857L49.3914 44.2287C47.3543 39.2164 42.2188 37.0195 37.5145 38.0353C37.2207 33.2238 33.7272 28.8875 28.3518 28.3016L24.957 27.9316C16.8095 27.0436 10.4491 35.4378 13.5084 43.0412L14.7831 46.2093C16.8201 51.2722 22.0163 53.456 26.7635 52.3676C27.1138 57.1189 30.603 61.3947 35.9303 61.9942L39.3167 62.3754Z" fill="#FD313D"/>
<mask id="mask1_873_22383" style="mask-type:alpha" maskUnits="userSpaceOnUse" x="12" y="27" width="40" height="36">
<path fill-rule="evenodd" clip-rule="evenodd" d="M39.3167 62.3754C47.4441 63.2901 53.754 54.9625 50.6745 47.3857L49.3914 44.2287C47.3543 39.2164 42.2188 37.0195 37.5145 38.0353C37.2207 33.2238 33.7272 28.8875 28.3518 28.3016L24.957 27.9316C16.8095 27.0435 10.4491 35.4378 13.5084 43.0412L14.7831 46.2093C16.8201 51.2721 22.0163 53.456 26.7635 52.3676C27.1138 57.1189 30.603 61.3947 35.9303 61.9942L39.3167 62.3754Z" fill="#FF5761"/>
</mask>
<g mask="url(#mask1_873_22383)">
<path d="M40.9628 37.5161C31.5823 37.1954 26.6869 50.8421 25.3009 57.6848C26.7276 50.7885 36.7696 40.5434 42.9444 40.9169C47.8843 41.2157 51.0447 46.548 52.0074 49.1768C52.2344 45.4235 50.3433 37.8367 40.9628 37.5161Z" fill="#FD313D"/>
<path d="M13.5084 43.0412C10.4491 35.4378 16.8095 27.0435 24.957 27.9316L28.3518 28.3016C36.4994 29.1897 40.3235 38.694 35.2352 45.4094L33.1151 48.2074C28.0268 54.9228 17.8423 53.8127 14.7831 46.2093L13.5084 43.0412Z" fill="#FF5761"/>
</g>
<path d="M19.0537 33.6318C18.3223 34.5972 17.4909 35.9045 18.315 37.1075C19.0141 38.1279 20.186 38.5597 19.5012 40.0064C19.0631 40.932 18.9472 41.5278 19.3379 42.5005C19.5432 43.0115 20.7472 44.2457 21.3389 43.9535" stroke="#FD313D" stroke-width="1.2111" stroke-linecap="round"/>
<path d="M27.5586 32.2435C28.3957 32.8779 29.0168 33.4322 30.0735 33.6297C30.6926 33.7454 32.1004 33.9094 32.2181 34.7635C32.2839 35.2403 32.0695 35.7325 31.8656 36.1457C31.4658 36.9559 31.0689 38.0149 31.6074 38.8484C32.2159 39.7904 33.4373 40.1086 34.263 40.7343" stroke="#FD313D" stroke-width="1.2111" stroke-linecap="round"/>
<path d="M25.97 40.009C26.5136 40.4209 27.0219 40.7401 27.2945 41.3916C27.6497 42.2404 27.609 42.7453 27.4705 43.5953C27.393 44.0712 26.7219 44.7528 26.4014 45.1082C25.8233 45.7491 25.1927 45.7769 25.4854 46.6599C25.7681 47.5128 25.178 48.8334 24.292 49.0962C23.774 49.2499 22.8391 49.2355 21.6545 47.958" stroke="#FD313D" stroke-width="1.2111" stroke-linecap="round"/>
<path d="M47.21 55.4438C46.4785 56.4092 45.4448 57.5632 44.0637 57.0953C42.8923 56.6984 42.1596 55.687 40.952 56.7377C40.1795 57.4099 39.6373 57.6826 38.5952 57.5697C38.0476 57.5103 36.5337 56.6851 36.655 56.0364" stroke="#FF5761" stroke-width="1.2111" stroke-linecap="round"/>
<path d="M46.2451 46.8808C45.408 46.2464 44.7063 45.7985 44.2302 44.8347C43.9514 44.27 43.4126 42.9591 42.5585 43.0768C42.0817 43.1425 41.6659 43.482 41.3233 43.7901C40.6514 44.3942 39.7393 45.0629 38.7912 44.77C37.7197 44.4389 37.0829 43.3492 36.2572 42.7236" stroke="#FF5761" stroke-width="1.2111" stroke-linecap="round"/>
<path d="M39.1995 50.511C38.6559 50.0991 38.2111 49.6961 37.5102 49.6099C36.597 49.4976 36.1219 49.6734 35.341 50.0367C34.9038 50.2401 34.4292 51.0706 34.1738 51.4753C33.7132 52.2052 33.8571 52.8198 32.9278 52.777C32.0302 52.7355 30.9185 53.661 30.9052 54.585C30.8974 55.1252 31.1642 56.0214 32.7145 56.8162" stroke="#FF5761" stroke-width="1.2111" stroke-linecap="round"/>
<path fill-rule="evenodd" clip-rule="evenodd" d="M85.249 76.5649C88.6841 69.9609 83.6747 61.8778 76.232 62.0152L73.1308 62.0725C68.2072 62.1634 64.6616 65.8068 63.9857 70.1348C59.8029 68.8107 54.9772 70.3597 52.7214 74.7337L51.2968 77.4962C47.8776 84.126 52.9272 92.2738 60.3859 92.1623L63.4937 92.1158C68.4602 92.0415 72.0147 88.3422 72.6429 83.9541C76.793 85.2105 81.566 83.6453 83.8176 79.3166L85.249 76.5649Z" fill="#FD313D"/>
<mask id="mask2_873_22383" style="mask-type:alpha" maskUnits="userSpaceOnUse" x="50" y="62" width="37" height="31">
<path fill-rule="evenodd" clip-rule="evenodd" d="M85.249 76.5649C88.6841 69.9609 83.6747 61.8778 76.232 62.0152L73.1308 62.0725C68.2072 62.1634 64.6615 65.8069 63.9857 70.1349C59.8029 68.8108 54.9772 70.3598 52.7215 74.7338L51.2968 77.4962C47.8777 84.1261 52.9272 92.2739 60.386 92.1623L63.4938 92.1158C68.4603 92.0415 72.0148 88.3423 72.643 83.9541C76.7931 85.2105 81.566 83.6453 83.8177 79.3166L85.249 76.5649Z" fill="#FF5761"/>
</mask>
<g mask="url(#mask2_873_22383)">
<path d="M64.6727 67.0362C61.3322 74.8989 71.3222 83.5203 76.6808 86.9356C71.2899 83.4683 65.8726 71.5879 68.2094 66.4654C70.0789 62.3673 75.6417 61.4271 78.1894 61.4692C75.0756 60.0487 68.0131 59.1735 64.6727 67.0362Z" fill="#FD313D"/>
<path d="M60.3858 92.1621C52.9271 92.2737 47.8776 84.1259 51.2967 77.496L52.7213 74.7336C56.1405 68.1038 65.4639 67.9643 69.5035 74.4825L71.1867 77.1985C75.2263 83.7168 70.9524 92.0041 63.4936 92.1156L60.3858 92.1621Z" fill="#FF5761"/>
</g>
<path d="M54.208 84.374C54.7887 85.311 55.6272 86.4448 56.9186 86.1382C58.0139 85.8782 58.7639 85.024 59.7688 86.0789C60.4117 86.7538 60.8798 87.047 61.8337 87.0333C62.335 87.0261 63.777 86.4071 63.7224 85.8089" stroke="#FD313D" stroke-width="1.1023" stroke-linecap="round"/>
<path d="M55.8105 76.6962C56.6231 76.1926 57.2971 75.8464 57.8104 75.0135C58.1112 74.5255 58.7109 73.3834 59.4749 73.5627C59.9013 73.6628 60.2493 74.0059 60.5336 74.3142C61.091 74.9188 61.8607 75.6023 62.7447 75.4176C63.7439 75.2087 64.4136 74.2755 65.2151 73.7788" stroke="#FD313D" stroke-width="1.1023" stroke-linecap="round"/>
<path d="M61.8866 80.5856C62.4142 80.2586 62.8516 79.9313 63.4941 79.9128C64.3312 79.8888 64.7467 80.0884 65.4234 80.4841C65.8023 80.7056 66.1618 81.4986 66.3587 81.887C66.714 82.5876 66.5314 83.1324 67.3771 83.1726C68.194 83.2114 69.1227 84.1446 69.0561 84.9831C69.0172 85.4733 68.6992 86.2627 67.2267 86.851" stroke="#FD313D" stroke-width="1.1023" stroke-linecap="round"/>
<path d="M81.9434 67.5933C82.524 68.5302 83.1662 69.7857 82.317 70.8057C81.5968 71.6709 80.498 71.9624 80.9955 73.3318C81.3138 74.2078 81.3681 74.7575 80.9313 75.6057C80.7018 76.0514 79.5057 77.0673 78.9944 76.7522" stroke="#FF5761" stroke-width="1.1023" stroke-linecap="round"/>
<path d="M74.3544 65.6117C73.5419 66.1153 72.9319 66.5648 71.9576 66.6539C71.3867 66.7061 70.097 66.7349 69.9177 67.4988C69.8176 67.9253 69.9699 68.3896 70.1195 68.7813C70.4129 69.5496 70.6825 70.543 70.1236 71.2525C69.492 72.0543 68.3581 72.2388 67.5567 72.7355" stroke="#FF5761" stroke-width="1.1023" stroke-linecap="round"/>
<path d="M75.1336 72.7839C74.606 73.1109 74.1182 73.3569 73.8158 73.924C73.4217 74.663 73.4156 75.124 73.4688 75.906C73.4986 76.3439 74.0487 77.0187 74.3089 77.3679C74.7782 77.9979 75.3474 78.0767 75.007 78.852C74.6782 79.6009 75.1007 80.8478 75.8811 81.1613C76.3375 81.3446 77.1859 81.4111 78.3681 80.3543" stroke="#FF5761" stroke-width="1.1023" stroke-linecap="round"/>
<path fill-rule="evenodd" clip-rule="evenodd" d="M43.4601 21.492C39.5764 27.8426 44.0149 36.2529 51.4493 36.6305L54.5469 36.7878C59.4651 37.0377 63.2542 33.6482 64.2278 29.3773C68.3089 30.9875 73.2302 29.7759 75.783 25.5684L77.3953 22.9111C81.2647 16.5336 76.7908 8.05608 69.3422 7.65155L66.2386 7.483C61.2789 7.21364 57.4771 10.6582 56.5469 14.9924C52.4936 13.452 47.6239 14.6833 45.0783 18.846L43.4601 21.492Z" fill="#FD313D"/>
<mask id="mask3_873_22383" style="mask-type:alpha" maskUnits="userSpaceOnUse" x="42" y="7" width="37" height="30">
<path fill-rule="evenodd" clip-rule="evenodd" d="M43.4602 21.492C39.5765 27.8426 44.0149 36.2529 51.4493 36.6305L54.547 36.7878C59.465 37.0376 63.2541 33.6482 64.2278 29.3774C68.309 30.9876 73.2302 29.7761 75.7831 25.5685L77.3953 22.9112C81.2648 16.5337 76.7909 8.05619 69.3423 7.65166L66.2387 7.48311C61.279 7.21375 57.4772 10.6582 56.547 14.9924C52.4937 13.452 47.624 14.6833 45.0783 18.8459L43.4602 21.492Z" fill="#FF5761"/>
</mask>
<g mask="url(#mask3_873_22383)">
<path d="M63.3281 32.4213C67.2043 24.8085 57.8345 15.5168 52.7249 11.739C57.8631 15.5709 62.4458 27.7974 59.7603 32.7461C57.6119 36.7051 51.9974 37.2584 49.4587 37.0402C52.4668 38.6725 59.4519 40.0341 63.3281 32.4213Z" fill="#FD313D"/>
<path d="M69.3423 7.65172C76.7909 8.05625 81.2648 16.5338 77.3954 22.9113L75.7831 25.5686C71.9136 31.9461 62.6029 31.4405 59.0237 24.6584L57.5324 21.8326C53.9533 15.0505 58.7901 7.07864 66.2387 7.48317L69.3423 7.65172Z" fill="#FF5761"/>
</g>
<path d="M74.9668 15.8481C74.4523 14.8732 73.6942 13.6842 72.3847 13.9007C71.2741 14.0843 70.4668 14.8846 69.5372 13.7628C68.9426 13.0451 68.4959 12.7201 67.5433 12.6678C67.0427 12.6404 65.5613 13.1581 65.5745 13.7587" stroke="#FD313D" stroke-width="1.1023" stroke-linecap="round"/>
<path d="M72.8369 23.3966C71.9914 23.8428 71.2951 24.1416 70.7254 24.937C70.3916 25.403 69.7143 26.5009 68.9646 26.2692C68.546 26.1398 68.2226 25.7735 67.9604 25.4463C67.4461 24.8046 66.7255 24.0694 65.8308 24.1926C64.8196 24.3318 64.0869 25.2166 63.2531 25.6566" stroke="#FD313D" stroke-width="1.1023" stroke-linecap="round"/>
<path d="M67.0442 19.0964C66.4952 19.3862 66.0363 19.6825 65.394 19.6564C64.5573 19.6226 64.1566 19.3946 63.5088 18.9531C63.1462 18.7059 62.8424 17.89 62.6728 17.4889C62.3668 16.7653 62.5867 16.2345 61.7458 16.1359C60.9335 16.0407 60.0716 15.0455 60.196 14.2137C60.2687 13.7273 60.6405 12.9618 62.1502 12.4767" stroke="#FD313D" stroke-width="1.1023" stroke-linecap="round"/>
<path d="M46.1377 30.6704C45.6232 29.6955 45.0694 28.3986 45.9871 27.4398C46.7654 26.6265 47.8817 26.4116 47.4801 25.0112C47.2232 24.1152 47.207 23.5631 47.7015 22.7472C47.9612 22.3184 49.2247 21.3876 49.713 21.7374" stroke="#FF5761" stroke-width="1.1023" stroke-linecap="round"/>
<path d="M53.5713 33.172C54.4167 32.7259 55.0563 32.3196 56.0344 32.2981C56.6076 32.2855 57.8962 32.346 58.1279 31.5963C58.2573 31.1777 58.1374 30.704 58.0153 30.3029C57.7757 29.5162 57.5755 28.5065 58.1821 27.8374C58.8676 27.0811 60.0115 26.9755 60.8454 26.5354" stroke="#FF5761" stroke-width="1.1023" stroke-linecap="round"/>
<path d="M53.2898 25.9636C53.8389 25.6739 54.3425 25.4622 54.6834 24.9173C55.1276 24.2074 55.1656 23.7479 55.1666 22.9641C55.1672 22.5252 54.6651 21.814 54.4296 21.4476C54.005 20.7866 53.4427 20.6686 53.8358 19.9188C54.2156 19.1944 53.8805 17.9213 53.1235 17.5545C52.681 17.3401 51.8392 17.2151 50.5867 18.1876" stroke="#FF5761" stroke-width="1.1023" stroke-linecap="round"/>
<path fill-rule="evenodd" clip-rule="evenodd" d="M60.0178 40.2908C53.6191 44.1251 53.6191 53.7108 60.0178 57.545L62.6839 59.1426C66.9446 61.6957 71.9145 60.4238 74.7601 57.0248C77.6259 60.2791 82.5074 61.4629 86.7016 58.9696L89.3677 57.3847C95.7665 53.5809 95.7664 44.0713 89.3677 40.2674L86.7016 38.6825C82.4686 36.1662 77.5356 37.3953 74.6812 40.718C71.8233 37.389 66.9055 36.1636 62.6839 38.6932L60.0178 40.2908Z" fill="#FD313D"/>
<mask id="mask4_873_22383" style="mask-type:alpha" maskUnits="userSpaceOnUse" x="55" y="37" width="40" height="24">
<path fill-rule="evenodd" clip-rule="evenodd" d="M89.3675 57.3847C95.7662 53.5809 95.7662 44.0713 89.3675 40.2674L86.7014 38.6825C82.4685 36.1662 77.5355 37.3952 74.6811 40.7178C71.8232 37.389 66.9054 36.1636 62.6839 38.6932L60.0178 40.2908C53.6191 44.1251 53.6191 53.7108 60.0178 57.545L62.6839 59.1426C66.9445 61.6957 71.9144 60.4238 74.76 57.025C77.6258 60.2791 82.5072 61.4629 86.7014 58.9696L89.3675 57.3847Z" fill="#FF5761"/>
</mask>
<g mask="url(#mask4_873_22383)">
<path d="M76.8973 38.4462C69.916 43.3698 73.8659 55.9606 76.6217 61.6864C73.8659 55.8993 75.5194 42.9473 80.2042 39.8241C83.952 37.3255 89.1757 39.4566 91.3191 40.8345C89.4207 37.9869 83.8785 33.5226 76.8973 38.4462Z" fill="#FD313D"/>
<path d="M60.0173 57.545C53.6186 53.7108 53.6186 44.1251 60.0173 40.2908L62.6834 38.6932C69.0822 34.859 77.0806 39.6518 77.0806 47.3203V50.5155C77.0806 58.1841 69.0822 62.9769 62.6834 59.1426L60.0173 57.545Z" fill="#FF5761"/>
</g>
<path d="M58.8687 47.6709C58.8687 48.7732 58.9842 50.1786 60.2433 50.5983C61.3112 50.9543 62.3988 50.6233 62.6972 52.0493C62.8882 52.9616 63.1316 53.4575 63.9497 53.9484C64.3795 54.2063 65.9314 54.4398 66.2 53.9025" stroke="#FD313D" stroke-width="1.1023" stroke-linecap="round"/>
<path d="M64.2754 41.9891C65.2313 41.9891 65.9866 42.0499 66.8617 41.6123C67.3745 41.356 68.4859 40.7011 69.0408 41.2559C69.3505 41.5657 69.4656 42.0406 69.5448 42.4524C69.7001 43.2599 69.9943 44.2464 70.843 44.555C71.8023 44.9039 72.8633 44.4634 73.8061 44.4634" stroke="#FD313D" stroke-width="1.1023" stroke-linecap="round"/>
<path d="M67.3911 48.4957C68.0119 48.4957 68.5561 48.4478 69.1119 48.7706C69.8361 49.1911 70.0842 49.5797 70.4509 50.2725C70.6563 50.6604 70.5441 51.5237 70.5069 51.9577C70.4398 52.7404 69.9976 53.1072 70.6953 53.5869C71.3693 54.0502 71.6671 55.3326 71.1688 56.0103C70.8775 56.4065 70.1914 56.9099 68.6298 56.6344" stroke="#FD313D" stroke-width="1.1023" stroke-linecap="round"/>
<path d="M91.2832 48.0176C91.2832 49.1199 91.1677 50.5253 89.9086 50.945C88.8406 51.301 87.7531 50.97 87.4546 52.396C87.2637 53.3083 87.0203 53.8042 86.2022 54.295C85.7723 54.5529 84.2205 54.7865 83.9519 54.2492" stroke="#FF5761" stroke-width="1.1023" stroke-linecap="round"/>
<path d="M85.8765 42.3357C84.9205 42.3357 84.1652 42.3965 83.2901 41.959C82.7774 41.7026 81.666 41.0477 81.1111 41.6026C80.8013 41.9124 80.6863 42.3873 80.6071 42.799C80.4518 43.6066 80.1576 44.5931 79.3088 44.9017C78.3495 45.2505 77.2886 44.8101 76.3457 44.8101" stroke="#FF5761" stroke-width="1.1023" stroke-linecap="round"/>
<path d="M82.7607 48.8423C82.14 48.8423 81.5958 48.7945 81.0399 49.1173C80.3157 49.5378 80.0677 49.9264 79.7009 50.6192C79.4956 51.0071 79.6077 51.8704 79.6449 52.3044C79.712 53.0871 80.1542 53.4539 79.4566 53.9335C78.7826 54.3969 78.4848 55.6793 78.9831 56.357C79.2744 56.7532 79.9605 57.2566 81.5221 56.981" stroke="#FF5761" stroke-width="1.1023" stroke-linecap="round"/>
</svg>
