<svg width="40" height="40" viewBox="0 0 40 40" fill="none" xmlns="http://www.w3.org/2000/svg">
<path d="M28.4676 3.33301H10.3329C6.77764 3.33301 5.00001 5.11064 5.00001 8.6659V24.6662C5.00001 28.2236 6.77764 30.0017 10.3329 30.0007H12.7329C13.147 30.0007 13.5553 30.0969 13.9258 30.2819C14.2962 30.4668 14.6186 30.7353 14.8674 31.0663L17.2674 34.2663C17.5157 34.5975 17.8377 34.8663 18.2079 35.0515C18.5781 35.2366 18.9863 35.333 19.4002 35.333C19.8142 35.333 20.2224 35.2366 20.5926 35.0515C20.9628 34.8663 21.2848 34.5975 21.5331 34.2663L23.9331 31.0663C24.1819 30.7353 24.5043 30.4668 24.8747 30.2819C25.2452 30.0969 25.6535 30.0007 26.0676 30.0007H28.4676C32.0229 30.0007 33.8005 28.2225 33.8005 24.6662V8.6659C33.8005 5.11064 32.0229 3.33301 28.4676 3.33301ZM14.6002 23.2533C14.6002 23.3164 14.5878 23.3788 14.5636 23.437C14.5395 23.4953 14.5041 23.5482 14.4596 23.5928C14.415 23.6373 14.3621 23.6727 14.3039 23.6968C14.2456 23.7209 14.1832 23.7333 14.1202 23.7333H13.0641C12.7289 23.7333 12.4074 23.6002 12.1703 23.3631C11.9333 23.1261 11.8001 22.8046 11.8001 22.4693V16.5492C11.801 16.2142 11.9344 15.8932 12.1713 15.6564C12.4081 15.4195 12.7292 15.2861 13.0641 15.2852H14.1202C14.1832 15.2852 14.2456 15.2976 14.3039 15.3217C14.3621 15.3459 14.415 15.3812 14.4596 15.4258C14.5041 15.4704 14.5395 15.5233 14.5636 15.5815C14.5878 15.6398 14.6002 15.7022 14.6002 15.7652V23.2533ZM26.7908 16.9332L25.0947 22.0053C25.052 22.277 24.9558 22.5375 24.8117 22.7718C24.6677 23.0061 24.4785 23.2095 24.2553 23.3702C24.0321 23.5309 23.7793 23.6457 23.5114 23.7081C23.2435 23.7704 22.9659 23.779 22.6947 23.7333H16.6802C16.6172 23.7333 16.5547 23.7209 16.4965 23.6968C16.4383 23.6727 16.3854 23.6373 16.3408 23.5928C16.2962 23.5482 16.2609 23.4953 16.2367 23.437C16.2126 23.3788 16.2002 23.3164 16.2002 23.2533V14.834C16.2001 14.7829 16.2082 14.7321 16.2242 14.6836L17.9602 9.39711C18.0573 9.14142 18.2302 8.92157 18.4559 8.76711C18.6816 8.61265 18.9492 8.53099 19.2226 8.53309C19.4855 8.52817 19.7431 8.60659 19.9587 8.7571C20.3052 8.98931 20.5888 9.30372 20.7843 9.67226C20.9797 10.0408 21.0809 10.452 21.0787 10.8691V13.6052H24.3907C26.9204 13.6052 27.3348 15.3012 26.7908 16.9332Z" fill="#4196FD"/>
</svg>
