<svg width="144" height="70" viewBox="0 0 144 70" fill="none" xmlns="http://www.w3.org/2000/svg">
<path d="M80.4676 3.33301H62.3329C58.7776 3.33301 57 5.11064 57 8.6659V24.6662C57 28.2236 58.7776 30.0017 62.3329 30.0007H64.7329C65.147 30.0007 65.5553 30.0969 65.9258 30.2819C66.2962 30.4668 66.6186 30.7353 66.8674 31.0663L69.2674 34.2663C69.5157 34.5975 69.8377 34.8663 70.2079 35.0515C70.5781 35.2366 70.9863 35.333 71.4002 35.333C71.8142 35.333 72.2224 35.2366 72.5926 35.0515C72.9628 34.8663 73.2848 34.5975 73.5331 34.2663L75.9331 31.0663C76.1819 30.7353 76.5043 30.4668 76.8747 30.2819C77.2452 30.0969 77.6535 30.0007 78.0676 30.0007H80.4676C84.0229 30.0007 85.8005 28.2225 85.8005 24.6662V8.6659C85.8005 5.11064 84.0229 3.33301 80.4676 3.33301ZM66.6002 23.2533C66.6002 23.3164 66.5878 23.3788 66.5636 23.437C66.5395 23.4953 66.5041 23.5482 66.4596 23.5928C66.415 23.6373 66.3621 23.6727 66.3039 23.6968C66.2456 23.7209 66.1832 23.7333 66.1202 23.7333H65.0641C64.7289 23.7333 64.4074 23.6002 64.1703 23.3631C63.9333 23.1261 63.8001 22.8046 63.8001 22.4693V16.5492C63.801 16.2142 63.9344 15.8932 64.1713 15.6564C64.4081 15.4195 64.7292 15.2861 65.0641 15.2852H66.1202C66.1832 15.2852 66.2456 15.2976 66.3039 15.3217C66.3621 15.3459 66.415 15.3812 66.4596 15.4258C66.5041 15.4704 66.5395 15.5233 66.5636 15.5815C66.5878 15.6398 66.6002 15.7022 66.6002 15.7652V23.2533ZM78.7908 16.9332L77.0947 22.0053C77.052 22.277 76.9558 22.5375 76.8117 22.7718C76.6677 23.0061 76.4785 23.2095 76.2553 23.3702C76.0321 23.5309 75.7793 23.6457 75.5114 23.7081C75.2435 23.7704 74.9659 23.779 74.6947 23.7333H68.6802C68.6172 23.7333 68.5547 23.7209 68.4965 23.6968C68.4383 23.6727 68.3854 23.6373 68.3408 23.5928C68.2962 23.5482 68.2609 23.4953 68.2367 23.437C68.2126 23.3788 68.2002 23.3164 68.2002 23.2533V14.834C68.2001 14.7829 68.2082 14.7321 68.2242 14.6836L69.9602 9.39711C70.0573 9.14142 70.2302 8.92157 70.4559 8.76711C70.6816 8.61265 70.9492 8.53099 71.2226 8.53309C71.4855 8.52817 71.7431 8.60659 71.9587 8.7571C72.3052 8.98931 72.5888 9.30372 72.7843 9.67226C72.9797 10.0408 73.0809 10.452 73.0787 10.8691V13.6052H76.3907C78.9204 13.6052 79.3348 15.3012 78.7908 16.9332Z" fill="#4196FD"/>
<path d="M59.4609 57.8242V58.7383H55.2188V62.0078H54.1172V58.7383H49.8867V57.8242H59.4609ZM50.4492 56.207C52.4414 55.9551 54.0469 54.8418 54.1172 53.6641H50.7891V52.7617H54.1172V51.4961H55.2188V52.7617H58.5469V53.6641H55.2305C55.2891 54.8301 56.877 55.9551 58.875 56.207L58.4766 57.0977C56.7891 56.8633 55.3535 56.0723 54.6738 55C53.9941 56.084 52.5527 56.8633 50.8594 57.0977L50.4492 56.207ZM63.9375 53.9922C63.9375 55.3164 64.9277 56.5352 66.5391 57.0391L66 57.918C64.793 57.5371 63.8848 56.7402 63.4043 55.7148C62.9473 56.8105 62.0391 57.6719 60.7969 58.082L60.2578 57.2148C61.8633 56.6992 62.8359 55.4043 62.8359 53.9922V53.7461H60.5508V52.8438H62.8359V51.5664H63.9492V52.8438H66.2227V53.7461H63.9375V53.9922ZM62.1914 61.7734V58.6328H63.3047V60.8711H69.293V61.7734H62.1914ZM65.8594 55.5859V54.6836H67.8984V51.5078H69.0117V59.3242H67.8984V55.5859H65.8594ZM75.0586 52.1641V53.7695H77.0859V52.1641H78.1172V57.1211H74.0039V52.1641H75.0586ZM75.0586 56.2188H77.0859V54.6367H75.0586V56.2188ZM75.375 59.3008V58.3984H82.5117V61.9961H81.4102V59.3008H75.375ZM79.1953 57.7422V51.6953H80.2266V54.1797H81.457V51.5078H82.5117V57.8125H81.457V55.0938H80.2266V57.7422H79.1953ZM92.6367 51.5078V59.1953H91.5234V51.5078H92.6367ZM83.9883 56.8281C85.6348 56.2188 86.6074 54.707 86.6133 53.125V52.082H87.75V53.125C87.7441 54.6602 88.7168 56.0664 90.3398 56.6289L89.7656 57.5195C88.5527 57.0684 87.6562 56.1777 87.1875 55.041C86.7246 56.2598 85.8164 57.2324 84.5859 57.707L83.9883 56.8281ZM85.7695 61.7734V58.4688H86.8945V60.8711H92.9531V61.7734H85.7695Z" fill="#4E5968"/>
</svg>
