<svg width="40" height="41" viewBox="0 0 40 41" fill="none" xmlns="http://www.w3.org/2000/svg">
<path d="M17.9805 2.70556C19.1062 1.6155 20.8938 1.6155 22.0195 2.70556L23.0952 3.74714C23.8164 4.44548 24.8472 4.72168 25.8209 4.47749L27.2732 4.11328C28.7932 3.73213 30.3413 4.62594 30.7712 6.13282L31.182 7.57269C31.4573 8.53806 32.2119 9.29265 33.1773 9.56805L34.6172 9.97881C36.1241 10.4087 37.0179 11.9568 36.6367 13.4768L36.2725 14.9291C36.0283 15.9028 36.3045 16.9336 37.0029 17.6548L38.0444 18.7305C39.1345 19.8562 39.1345 21.6438 38.0444 22.7695L37.0029 23.8452C36.3045 24.5664 36.0283 25.5972 36.2725 26.5709L36.6367 28.0232C37.0179 29.5432 36.1241 31.0913 34.6172 31.5212L33.1773 31.932C32.2119 32.2074 31.4573 32.9619 31.182 33.9273L30.7712 35.3672C30.3413 36.8741 28.7932 37.7679 27.2733 37.3867L25.8209 37.0225C24.8472 36.7783 23.8164 37.0545 23.0952 37.7529L22.0195 38.7944C20.8938 39.8845 19.1062 39.8845 17.9805 38.7944L16.9048 37.7529C16.1836 37.0545 15.1528 36.7783 14.1791 37.0225L12.7268 37.3867C11.2068 37.7679 9.65868 36.8741 9.22881 35.3672L8.81805 33.9273C8.54265 32.9619 7.78806 32.2073 6.82269 31.932L5.38282 31.5212C3.87594 31.0913 2.98213 29.5432 3.36328 28.0233L3.72749 26.5709C3.97167 25.5972 3.69548 24.5664 2.99714 23.8452L1.95556 22.7695C0.865499 21.6438 0.865498 19.8562 1.95556 18.7305L2.99714 17.6548C3.69548 16.9336 3.97168 15.9028 3.72749 14.9291L3.36328 13.4768C2.98213 11.9568 3.87594 10.4087 5.38282 9.97881L6.82269 9.56805C7.78806 9.29265 8.54265 8.53806 8.81805 7.57269L9.22881 6.13282C9.65868 4.62594 11.2068 3.73213 12.7267 4.11328L14.1791 4.47749C15.1528 4.72167 16.1836 4.44548 16.9048 3.74714L17.9805 2.70556Z" fill="#4196FD"/>
<path d="M14.216 20.518C14.085 20.3752 14.0195 20.2055 14.0195 20.0091C14.0195 19.8127 14.085 19.643 14.216 19.5002L16.216 17.5002L15.4481 16.7323L15.2338 16.9466C15.091 17.0895 14.9213 17.1609 14.7249 17.1609C14.5285 17.1609 14.3588 17.0895 14.216 16.9466C14.085 16.8037 14.0195 16.6341 14.0195 16.4377C14.0195 16.2412 14.085 16.0776 14.216 15.9466L15.6445 14.518C15.7874 14.3752 15.957 14.3037 16.1535 14.3037C16.3499 14.3037 16.5195 14.3752 16.6624 14.518C16.8052 14.649 16.8767 14.8157 16.8767 15.018C16.8767 15.2204 16.8052 15.3871 16.6624 15.518L16.4481 15.7323L17.216 16.5002L19.216 14.5002C19.3588 14.3573 19.5285 14.2859 19.7249 14.2859C19.9213 14.2859 20.091 14.3573 20.2338 14.5002C20.3767 14.643 20.4481 14.8127 20.4481 15.0091C20.4481 15.2055 20.3767 15.3752 20.2338 15.518L19.7517 15.9823L20.8588 17.0895L18.841 19.0895C18.71 19.2323 18.6445 19.402 18.6445 19.5984C18.6445 19.7948 18.71 19.9645 18.841 20.1073C18.9838 20.2502 19.1535 20.3216 19.3499 20.3216C19.5463 20.3216 19.716 20.2502 19.8588 20.1073L21.8588 18.0895L22.9481 19.1609L20.9302 21.1787C20.7874 21.3216 20.716 21.4912 20.716 21.6877C20.716 21.8841 20.7874 22.0537 20.9302 22.1966C21.0612 22.3276 21.2249 22.3901 21.4213 22.3841C21.6177 22.3781 21.7874 22.3097 21.9302 22.1787L23.9302 20.1609L25.0195 21.2502C25.2933 21.524 25.4302 21.8603 25.4302 22.2591C25.4302 22.6579 25.2933 22.9942 25.0195 23.268L24.5195 23.7859L27.2874 26.5359C27.4064 26.6549 27.4362 26.7859 27.3767 26.9287C27.3172 27.0716 27.2041 27.143 27.0374 27.143H26.3052C26.1624 27.143 26.0225 27.1133 25.8856 27.0537C25.7487 26.9942 25.6326 26.9168 25.5374 26.8216L23.5017 24.7859L23.0017 25.3037C22.7279 25.5776 22.3916 25.7145 21.9927 25.7145C21.5939 25.7145 21.2576 25.5776 20.9838 25.3037L15.716 20.0359L15.2338 20.518C15.091 20.649 14.9213 20.7145 14.7249 20.7145C14.5285 20.7145 14.3588 20.649 14.216 20.518Z" fill="white"/>
</svg>
