<svg width="101" height="100" viewBox="0 0 101 100" fill="none" xmlns="http://www.w3.org/2000/svg">
<g clip-path="url(#clip0_873_20946)">
<path d="M85.1962 75.1416C85.1962 75.1416 84.0299 72.5599 83.5149 72.719C82.8679 72.92 82.0742 76.5633 81.8063 77.1853C80.8265 79.4676 77.7945 84.7923 70.8387 84.7923H33.7981C32.8286 84.7923 31.9032 85.1944 31.2394 85.9021L19.5746 98.3563C18.5926 99.4053 17.2211 100 15.7847 100H10.5018C10.2004 100 9.91339 99.9519 9.64327 99.8661C8.33047 99.4411 7.47193 98.0718 7.78189 96.6352L9.45486 88.8273L9.59307 88.1844C9.71441 87.6149 9.59104 87.0202 9.25587 86.545C9.06543 86.2749 8.87681 86.0027 8.68636 85.7283C4.4758 79.6391 0.43252 72.6666 0.769714 65.1015V58.131C0.556097 42.9044 14.0177 28.2894 29.8012 30.4063C29.8012 30.4063 35.8168 26.3965 44.3702 25.4167H44.3745C51.9166 24.5518 61.4352 26.049 70.5456 34.728L70.4263 36.8156C70.4263 36.8156 73.2738 37.1024 74.0047 37.117C78.1799 37.1945 92.7008 38.566 95.0207 53.7402L92.1437 54.0898L95.3285 57.2369C95.6591 68.6422 89.1744 73.3387 85.1962 75.1416Z" fill="#D1D6DB"/>
<path d="M33.798 84.792C32.8285 84.792 31.9031 85.194 31.2393 85.9017L19.5745 98.356C18.5925 99.405 17.221 99.9997 15.7846 99.9997H10.5017C10.2003 99.9997 9.9133 99.9515 9.64318 99.8657C9.63891 99.8615 9.63688 99.8615 9.63281 99.8594C10.619 99.6249 11.5237 99.1098 12.2291 98.356L23.5423 86.2786C24.4301 85.33 25.6698 84.792 26.9679 84.792H33.798Z" fill="#B0B8C1"/>
<path d="M85.1962 75.1414C85.1962 75.1414 84.0299 72.5597 83.5149 72.7188C82.8679 72.9198 82.0742 76.5631 81.8063 77.1851C80.8265 79.4674 77.7946 84.7921 70.8387 84.7921H63.4934C69.9509 84.7921 73.0247 80.2046 74.2181 77.7212C74.6704 76.7749 75.4765 76.0503 76.4649 75.7007C80.2234 74.3733 89.1118 69.704 87.8764 55.4469C86.5071 39.6341 72.719 37.4189 67.5117 37.1465C66.2324 37.0817 65.02 36.5414 64.1176 35.6284C57.4863 28.9343 50.5954 26.1579 44.3745 25.4167C51.9166 24.5518 61.4352 26.049 70.5456 34.728L70.4263 36.8156C70.4263 36.8156 73.2738 37.1024 74.0047 37.117C78.1799 37.1945 92.7008 38.566 95.0207 53.7402L92.1437 54.0898L95.3285 57.2369C95.6592 68.642 89.1744 73.3385 85.1962 75.1414Z" fill="#B0B8C1"/>
<path d="M20.6284 80.0344C17.5337 87.4571 11.4258 88.638 9.45551 88.8266L9.59372 88.1837C9.71506 87.6142 9.59168 87.0195 9.25652 86.5443C9.06608 86.2742 8.87746 86.002 8.68701 85.7276C8.73518 85.7213 8.78539 85.7193 8.83559 85.7193C9.10144 85.715 14.9224 85.5622 17.7283 78.8262C18.0632 78.0244 18.9825 77.6453 19.7823 77.9803C20.5823 78.3132 20.9614 79.2325 20.6284 80.0344Z" fill="#B0B8C1"/>
<path d="M71.6642 37.6696C70.8309 37.9271 69.8488 38.2956 68.8522 38.8086C65.5126 40.5255 63.5108 43.0257 62.9057 46.2397C62.7634 46.9936 62.1059 47.519 61.3647 47.519C61.2683 47.519 61.1699 47.5106 61.0716 47.4917C60.2193 47.3326 59.6604 46.5118 59.8195 45.6576C60.5106 41.9934 62.6295 38.9718 65.9901 36.832L70.8693 36.6206L71.6642 37.6696Z" fill="#B0B8C1"/>
<path d="M66.6623 75.3472C64.4121 75.3472 62.2084 75.1839 60.1125 74.8622C59.2554 74.7305 58.667 73.9289 58.7987 73.0716C58.9304 72.2144 59.7328 71.6258 60.5893 71.7577C62.5278 72.0555 64.5712 72.2063 66.6623 72.2063C67.5298 72.2063 68.2326 72.9094 68.2326 73.7766C68.2328 74.6441 67.5298 75.3472 66.6623 75.3472Z" fill="#B0B8C1"/>
<path d="M53.2582 73.0376C53.0739 73.0376 52.8863 73.0049 52.7036 72.9358C44.0668 69.6734 38.7758 63.6581 35.8577 59.1866C32.7002 54.348 31.5811 50.2899 31.5349 50.1195C31.3083 49.2821 31.8034 48.42 32.6406 48.1935C33.4772 47.9673 34.3386 48.4612 34.5662 49.2972C34.5772 49.3376 35.6351 53.1283 38.5491 57.5634C42.4158 63.4488 47.5516 67.6321 53.8137 69.9978C54.6251 70.3041 55.0343 71.2104 54.7278 72.0217C54.4899 72.6504 53.8924 73.0376 53.2582 73.0376Z" fill="#B0B8C1"/>
<path d="M42.9992 41.3132C42.7874 41.0608 37.724 35.1346 29.9013 35.895C26.5141 36.397 25.7255 36.8893 23.5865 37.9374C19.8428 40.0114 17.4452 43.348 16.6523 47.586C16.1143 50.4628 16.3503 53.501 17.0875 56.4374C16.7202 57.5098 15.4269 60.7244 12.8294 61.791L8.23773 61.2908C7.37127 61.1963 6.60034 61.8201 6.50643 62.6819C6.41253 63.5441 7.0355 64.3193 7.89749 64.4132L11.0672 64.7585L10.2085 68.1969C9.9983 69.0384 10.5101 69.8908 11.3515 70.101C11.4794 70.1329 11.6074 70.1481 11.7333 70.1481C12.4369 70.1481 13.0774 69.6715 13.2556 68.9579L14.3562 64.5504C16.2424 63.6721 17.5906 62.1441 18.516 60.6833C19.7499 63.6063 21.3956 66.2707 23.1416 68.3642C23.4521 68.7366 23.8985 68.9288 24.3485 68.9288C24.7029 68.9288 25.0598 68.8093 25.3535 68.5644C26.0196 68.0091 26.1092 67.0187 25.5537 66.3526C22.8229 63.078 21.1231 59.4845 20.2466 56.1492C20.241 56.1242 20.2334 56.0996 20.2265 56.075C19.4515 53.0874 19.3383 50.3112 19.7399 48.1634C20.3633 44.8293 22.1698 42.313 25.1096 40.6844C33.1302 36.1982 39.3665 41.912 40.5923 43.3309C40.9029 43.7014 41.3482 43.8925 41.7968 43.8925C42.1529 43.8925 42.5106 43.772 42.8049 43.5256C43.4692 42.9683 43.5561 41.9779 42.9992 41.3132Z" fill="#B0B8C1"/>
<path d="M40.9617 76.1063C40.8449 76.1063 40.726 76.0931 40.6073 76.0656C39.7622 75.8707 39.2351 75.0274 39.4302 74.1823C40.729 68.5539 45.2593 66.361 45.4516 66.2703C46.2355 65.9006 47.1719 66.2368 47.5416 67.0213C47.9103 67.8033 47.5774 68.7358 46.7981 69.1079C46.6428 69.1837 43.4343 70.7992 42.4906 74.8886C42.3229 75.6148 41.6766 76.1061 40.9617 76.1063Z" fill="#B0B8C1"/>
<path d="M89.0618 54.5995L87.9898 57.7472C87.4453 58.0446 86.7565 57.986 86.2603 57.5755C85.5087 56.9535 85.536 55.8334 86.2583 55.1802C86.7441 54.7426 87.2319 54.3783 87.724 54.083L89.0618 54.5995Z" fill="#B0B8C1"/>
<path d="M82.0372 72.4796C81.7252 68.9264 80.1317 64.4077 74.3696 62.8563L74.1791 62.8061C71.2748 62.023 68.5257 61.2817 66.011 60.4441C65.9734 60.4337 65.9356 60.4211 65.898 60.4065C58.5424 57.9378 53.2155 54.6108 51.9613 46.9033C51.8231 46.047 52.4031 45.2407 53.2594 45.1004C54.1157 44.9622 54.922 45.5423 55.0623 46.3986C56.0422 52.4185 60.1356 55.1384 66.5157 57.3118C71.273 56.0031 72.4706 51.8949 72.521 51.7149C72.7533 50.8836 73.6141 50.3915 74.4474 50.6177C75.2807 50.8439 75.7769 51.6962 75.5551 52.5295C75.5027 52.7262 74.5145 56.2734 70.9864 58.677C72.2616 59.0352 73.5996 59.3953 74.9962 59.7722L75.1868 59.8246C80.2246 61.1815 83.5037 64.5315 84.7138 69.5402L84.1856 71.7394L82.0372 72.4796Z" fill="#B0B8C1"/>
<path d="M33.798 84.792C32.8285 84.792 31.9031 85.194 31.2393 85.9017L19.5745 98.356C18.5925 99.405 17.221 99.9997 15.7846 99.9997H10.5017C10.2003 99.9997 9.9133 99.9515 9.64318 99.8657C9.63891 99.8615 9.63688 99.8615 9.63281 99.8594C10.619 99.6249 11.5237 99.1098 12.2291 98.356L23.5423 86.2786C24.4301 85.33 25.6698 84.792 26.9679 84.792H33.798Z" fill="#B0B8C1"/>
<path d="M72.0781 36.2628C72.5827 36.7925 73.2736 37.1024 74.0045 37.117C73.9793 37.1191 73.0163 37.251 71.6636 37.6699C70.0366 37.3433 68.5899 37.2028 67.5114 37.1465C66.988 37.1193 66.475 37.0126 65.9893 36.8325C66.4708 36.5268 66.9797 36.2378 67.5114 35.9677C68.5856 35.4231 69.6325 35.0213 70.5453 34.728C71.0583 35.2179 71.5693 35.7288 72.0781 36.2628Z" fill="#8B95A1"/>
<path d="M84.8759 70.2775C85.2297 72.0867 85.2653 73.8035 85.1962 75.1415C84.4299 75.4891 83.7578 75.7299 83.2425 75.8891C82.5956 76.0901 82.0742 76.5633 81.8062 77.1852C81.848 76.9842 82.2564 74.9677 82.0364 72.4804C82.9704 71.6783 83.8875 70.7088 84.7124 69.5405C84.7732 69.7812 84.8277 70.0283 84.8759 70.2775Z" fill="#8B95A1"/>
<path d="M95.3285 57.2368C93.6114 56.5207 91.1911 55.9825 89.9137 56.4663C89.2645 56.7134 88.8019 57.0567 88.3078 57.5195C88.2094 57.6116 88.1025 57.687 87.9895 57.7478C87.9832 57.0108 87.9456 56.2443 87.8765 55.4466C87.8366 54.9797 87.7844 54.5252 87.7236 54.0836C89.987 52.7246 92.3427 52.8126 95.0208 53.7403C95.1045 54.2909 95.1736 54.8584 95.2238 55.4468C95.2783 56.06 95.3118 56.6569 95.3285 57.2368Z" fill="#8B95A1"/>
<path d="M72.3546 40.8229C71.0291 40.822 69.7279 40.467 68.5856 39.7948C67.4432 39.1225 66.5011 38.1573 65.8568 36.999L62.7363 31.3832L64.4707 30.4188L67.5911 36.0356C68.0812 36.9174 68.8065 37.6459 69.6862 38.1398C70.5659 38.6337 71.5654 38.8738 72.5735 38.8331C73.5815 38.7925 74.5585 38.4728 75.3956 37.9097C76.2327 37.3465 76.897 36.5621 77.3145 35.6437L80.1484 29.4092C80.3751 28.9103 80.9634 28.6898 81.4622 28.9168C81.9607 29.1436 82.1811 29.7315 81.9544 30.2301L79.1203 36.4652C78.5282 37.7631 77.5759 38.8638 76.3765 39.6363C75.1772 40.4088 73.7812 40.8206 72.3546 40.8229Z" fill="#322B22"/>
<path d="M54.6802 20.7508L71.5414 0.143066V4.62279C71.5416 6.58517 71.2575 8.53723 70.6981 10.4182L54.6802 20.7508Z" fill="#B2AEAA"/>
<path d="M50.0029 23.769L80.471 4.11182C79.5598 8.06084 77.662 11.7143 74.9551 14.7306C72.2483 17.7468 68.8207 20.0274 64.9929 21.359L64.7042 21.4582" fill="#7D7368"/>
<path d="M40.9539 33.9449C41.6863 34.643 42.5625 35.1727 43.5211 35.4968C44.4796 35.8209 45.4975 35.9316 46.5033 35.8212C47.5091 35.7108 48.4787 35.382 49.3442 34.8577C50.2096 34.3335 50.9501 33.6264 51.5137 32.786L61.3135 32.4229C65.5847 32.2643 69.7285 30.9255 73.2852 28.5552C76.8419 26.1849 79.6724 22.8757 81.4629 18.9946L50.2001 23.5924C49.1869 22.745 47.9531 22.2041 46.6433 22.0331C45.3336 21.8621 44.0023 22.0681 42.8055 22.6269C41.6087 23.1858 40.5961 24.0744 39.8864 25.1884C39.1768 26.3024 38.7995 27.5957 38.7988 28.9165" fill="#453D33"/>
<path d="M85.3454 25.0054C74.532 40.7653 55.1675 34.8985 48.3037 30.6421V26.1557L85.3454 25.0054Z" fill="#DE353F"/>
<path d="M45.7442 23.9553C44.1742 23.9565 42.6509 24.4896 41.4227 25.4676C40.1946 26.4457 39.334 27.811 38.9814 29.3409L40.9539 33.9447C41.6864 34.6428 42.5626 35.1724 43.5211 35.4965C44.4797 35.8206 45.4975 35.9314 46.5033 35.821C47.5092 35.7106 48.4787 35.3818 49.3442 34.8575C50.2097 34.3332 50.9501 33.6262 51.5138 32.7858L61.3136 32.4227C65.1694 32.2773 68.9276 31.1696 72.2459 29.2005C75.5642 27.2313 78.337 24.4633 80.312 21.1484L50.2001 25.5766C48.9525 24.5276 47.3742 23.9533 45.7442 23.9553Z" fill="#5C5042"/>
<path d="M24.9028 39.8217C24.631 39.346 24.7962 38.7401 25.2719 38.4683L36.7338 31.9186L37.7181 33.6411L26.2561 40.1908C25.7805 40.4626 25.1746 40.2973 24.9028 39.8217Z" fill="#322B22"/>
<path d="M76.451 19.7319L74.4508 20.0296C74.2891 22.6636 73.8114 25.2686 73.028 27.7885L72.6787 28.9325C73.594 28.3627 74.4683 27.7294 75.2951 27.0374C75.9274 24.6987 76.3148 22.3006 76.451 19.8818V19.7319Z" fill="#8C8175"/>
<path d="M70.5037 20.606L68.5025 20.9036C68.303 24.3901 67.5477 27.8224 66.2651 31.0706L65.9893 31.7651C66.8066 31.5602 67.6122 31.3108 68.4023 31.018C69.617 27.7213 70.3255 24.2597 70.5037 20.7508V20.606Z" fill="#8C8175"/>
<path d="M64.5587 21.481L62.5535 21.7786C62.3655 25.3024 61.61 28.7727 60.3161 32.0557L60.1514 32.4645L61.3142 32.4218C61.6525 32.4089 61.9869 32.3762 62.3233 32.3494C63.6337 28.902 64.3883 25.2683 64.5587 21.5841V21.481Z" fill="#8C8175"/>
<path d="M58.5488 22.3682L56.5426 22.6658C56.2727 25.975 55.5033 29.2242 54.2606 32.3029L54.1147 32.6909L56.2569 32.6125C57.5185 29.3798 58.2897 25.9767 58.5449 22.516L58.5488 22.3682Z" fill="#8C8175"/>
<path d="M74.8314 47.7679C73.8832 47.7674 72.9386 47.6511 72.0186 47.4216L61.3784 44.7616C61.2255 44.7236 61.0839 44.6499 60.9652 44.5463C60.8465 44.4428 60.7541 44.3125 60.6957 44.1663L51.2839 20.2039L50.8034 25.0507C50.7493 25.5963 50.2628 25.9945 49.7173 25.9397C49.1725 25.8849 48.7751 25.399 48.8296 24.8542L49.7231 15.9187C49.7452 15.6971 49.8412 15.4893 49.9957 15.3289C50.1502 15.1685 50.3541 15.0647 50.5747 15.0342C50.7953 15.0038 51.0197 15.0484 51.2119 15.161C51.4041 15.2735 51.5528 15.4474 51.6341 15.6548L62.3557 42.9607L72.4998 45.4958C73.9166 45.8506 75.3956 45.8777 76.8244 45.575C78.2532 45.2723 79.5942 44.6478 80.7453 43.7489C81.8965 42.8501 82.8276 41.7006 83.4678 40.3879C84.108 39.0751 84.4404 37.6337 84.4398 36.1732V35.8616C84.4398 35.3137 84.884 34.8695 85.432 34.8695C85.9799 34.8695 86.4242 35.3137 86.4242 35.8616V36.1732C86.4205 39.2468 85.198 42.1935 83.0248 44.3671C80.8516 46.5407 77.9051 47.7637 74.8314 47.7679Z" fill="#322B22"/>
<path d="M38.7988 34.8696C40.4427 34.8696 41.7754 33.537 41.7754 31.8931C41.7754 30.2492 40.4427 28.9165 38.7988 28.9165C37.1549 28.9165 35.8223 30.2492 35.8223 31.8931C35.8223 33.537 37.1549 34.8696 38.7988 34.8696Z" fill="#1D1D1D"/>
<path d="M68.9888 55.7701C65.7958 55.1348 62.8633 53.5657 60.5632 51.2616C58.5684 49.2591 57.1168 46.7814 56.3454 44.0623L50.6443 28.5742C50.5791 28.3968 50.4646 28.2417 50.3142 28.1272C50.1639 28.0126 49.984 27.9434 49.7956 27.9277C49.6073 27.912 49.4183 27.9503 49.2511 28.0383C49.0838 28.1263 48.9451 28.2603 48.8514 28.4244L46.9662 31.7194L47.7292 18.058C47.7434 17.8175 47.6697 17.5801 47.5217 17.39C47.3736 17.1999 47.1615 17.0701 46.9249 17.0249C46.6882 16.9797 46.4432 17.0222 46.2356 17.1444C46.028 17.2666 45.8719 17.4601 45.7965 17.6889L37.0136 44.0335L25.4792 48.4694C24.9675 48.6662 24.7122 49.2405 24.9089 49.7523C25.1056 50.2641 25.6801 50.5195 26.1919 50.3227L38.1636 45.7182C38.3004 45.6656 38.4238 45.5833 38.525 45.4773C38.6263 45.3713 38.7027 45.2441 38.749 45.105L45.3351 25.3446L44.7676 35.5721L44.6554 35.7705C45.4168 35.9028 46.196 35.8943 46.9543 35.7457L49.5152 31.2581L54.4573 44.6774C55.3894 47.9395 57.2019 50.8818 59.6959 53.1817C62.19 55.4817 65.2692 57.0504 68.5959 57.7157L72.3561 58.4678C72.8933 58.5752 73.4157 58.2269 73.5232 57.6898C73.6306 57.1528 73.2824 56.6304 72.7455 56.5228L68.9888 55.7701Z" fill="#322B22"/>
</g>
<defs>
<clipPath id="clip0_873_20946">
<rect width="100" height="100" fill="white" transform="translate(0.75)"/>
</clipPath>
</defs>
</svg>
