<svg width="600" height="600" viewBox="0 0 600 600" fill="none" xmlns="http://www.w3.org/2000/svg">
<path d="M549.364 311.606C554.934 291.459 534.959 268.378 504.747 260.054C474.535 251.73 445.528 261.315 439.957 281.463C434.386 301.61 454.362 324.691 484.573 333.015C514.785 341.339 543.793 331.754 549.364 311.606Z" fill="#FFC8CB"/>
<path d="M509.042 130.833C452.527 119.078 423.802 131.771 402.606 122.371C381.414 112.967 350.806 81 300.884 81H299.12C249.199 81 218.586 112.967 197.394 122.371C176.202 131.775 147.473 119.078 90.9578 130.833C34.4471 142.583 -5.11414 193.358 0.535646 229.557C6.18544 265.755 38.6813 295.371 35.8585 315.587C33.0315 335.804 49.0456 340.973 51.4008 332.04C67.4149 353.665 86.7236 354.608 98.0232 342.382C109.327 330.16 74.476 322.636 65.9992 308.535C57.5224 294.433 72.1209 278.447 90.9578 266.226C109.795 254.004 91.9015 244.6 74.476 255.413C57.0505 266.226 30.2087 249.302 33.0315 218.744C35.8585 188.185 73.5323 156.218 156.889 167.502C189.07 177.844 206.653 206.051 208.536 244.286C210.42 282.521 222.978 385.319 243.073 417.914C263.168 450.509 263.793 443.613 261.285 473.701C258.772 503.788 253.122 514.13 266.934 514.13H333.061C346.878 514.13 341.223 503.788 338.711 473.701C336.199 443.613 336.828 450.509 356.923 417.914C377.018 385.319 389.576 282.521 391.459 244.286C393.343 206.051 410.925 177.844 443.107 167.502C526.463 156.218 564.141 188.185 566.964 218.744C569.791 249.302 542.945 266.226 525.52 255.413C508.094 244.6 490.197 254.004 509.038 266.226C527.875 278.447 542.473 294.433 533.997 308.535C525.52 322.636 490.669 330.16 501.973 342.382C513.276 354.603 532.585 353.665 548.595 332.04C550.95 340.973 566.96 335.8 564.137 315.587C561.31 295.375 593.806 265.755 599.46 229.557C605.11 193.358 565.553 142.583 509.038 130.833H509.042Z" fill="#FF5761"/>
<path d="M115.401 333.034C145.613 324.71 165.589 301.629 160.018 281.481C154.447 261.333 125.439 251.748 95.2277 260.072C65.0159 268.396 45.0405 291.477 50.6113 311.625C56.1821 331.773 85.1896 341.358 115.401 333.034Z" fill="#FFC8CB"/>
<path d="M333.065 514.13C333.065 514.13 331.497 505.982 328.041 503.788C328.041 503.788 332.436 492.818 323.645 487.492C323.645 487.492 328.67 475.271 323.016 468.689C323.016 468.689 328.355 463.049 323.645 452.393C328.355 445.498 326.157 442.68 318.305 435.47C318.305 435.47 346.248 417.918 341.853 408.519C337.457 399.115 329.295 412.907 313.91 413.535C298.525 414.163 303.864 327.347 307.316 308.229C321.426 301.677 334.762 281.779 344.28 264.269C353.492 247.329 358.696 228.521 359.712 209.272C359.724 209.039 359.737 208.801 359.75 208.563C361.004 184.744 389.891 169.072 423.483 163.118C457.076 157.165 474.034 145.881 449.543 143.059C425.052 140.237 355.979 167.506 304.179 167.506H293.215C241.41 167.506 172.338 140.241 147.851 143.059C123.36 145.881 140.318 157.16 173.911 163.118C207.503 169.072 236.39 184.744 237.644 208.563C237.657 208.801 237.669 209.039 237.682 209.272C238.694 228.521 243.902 247.329 253.114 264.269C262.632 281.779 275.972 301.677 290.078 308.229C293.53 327.347 298.869 414.163 283.484 413.535C268.099 412.907 259.937 399.119 255.541 408.519C251.146 417.922 279.088 435.47 279.088 435.47C271.241 442.68 269.043 445.498 273.749 452.393C269.039 463.049 274.378 468.689 274.378 468.689C268.728 475.271 273.749 487.492 273.749 487.492C264.958 492.822 269.353 503.788 269.353 503.788C265.901 505.982 264.328 514.13 264.328 514.13C285.104 521.259 326.391 520.164 333.061 514.13H333.065Z" fill="#F3343F"/>
<path d="M105.659 303.716C104.246 304.836 103.157 306.312 102.504 307.993C101.851 309.674 101.657 311.498 101.942 313.278C102.265 314.762 102.947 316.144 103.927 317.304C104.908 318.463 106.158 319.365 107.567 319.93C108.043 320.113 108.47 320.403 108.816 320.777C109.161 321.152 109.416 321.602 109.559 322.091L111.725 329.811C112.134 331.242 112.119 332.761 111.683 334.184C111.246 335.606 110.406 336.872 109.264 337.827C107.717 339.102 106.27 340.495 104.937 341.994C102.041 345.257 99.7037 348.976 98.0187 353C97.4283 354.393 96.44 355.581 95.1776 356.415C93.9152 357.249 92.4348 357.691 90.9219 357.688H82.8593C82.415 357.685 81.9773 357.579 81.5805 357.379C81.1837 357.179 80.8385 356.89 80.5718 356.535C79.4948 355.134 77.9905 354.122 76.2868 353.653C74.5832 353.183 72.773 353.282 71.1304 353.934C69.4879 354.585 68.1025 355.755 67.184 357.264C66.2656 358.774 65.8642 360.542 66.0406 362.3C66.1627 363.783 66.702 365.202 67.5962 366.391C68.4904 367.581 69.7029 368.493 71.0937 369.022C72.4446 369.559 73.9142 369.726 75.3512 369.506C76.7881 369.286 78.1404 368.687 79.2687 367.771C79.6071 367.492 80.0059 367.297 80.4331 367.2C80.8604 367.103 81.3044 367.108 81.7297 367.213L89.6094 369.13C91.0689 369.477 92.3949 370.244 93.4237 371.336C94.4524 372.428 95.1389 373.798 95.3984 375.275C96.3341 380.872 98.4497 386.206 101.605 390.922C102.45 392.208 102.89 393.718 102.866 395.257C102.843 396.796 102.358 398.292 101.473 399.552L99.2 402.833C98.8519 403.328 98.3941 403.736 97.8623 404.024C97.3304 404.313 96.7391 404.475 96.1343 404.497C93.9365 404.597 91.8183 405.35 90.0505 406.659C88.2827 407.969 86.9456 409.776 86.2099 411.849C85.4743 413.923 85.3736 416.168 85.9208 418.299C86.4679 420.43 87.638 422.35 89.2816 423.812C90.9251 425.275 92.9675 426.214 95.1475 426.51C97.3276 426.806 99.5465 426.445 101.52 425.474C103.494 424.502 105.134 422.964 106.229 421.056C107.325 419.148 107.826 416.957 107.67 414.763C107.616 414.154 107.704 413.54 107.926 412.971C108.149 412.402 108.501 411.892 108.955 411.481L113.225 407.703C114.309 406.767 115.627 406.141 117.039 405.894C118.45 405.646 119.902 405.786 121.241 406.297C127.145 408.449 133.473 409.186 139.714 408.449C141.169 408.3 142.636 408.567 143.944 409.219C145.253 409.871 146.349 410.882 147.106 412.133L151.906 419.849C152.143 420.227 152.29 420.655 152.333 421.099C152.377 421.543 152.318 421.991 152.159 422.408C151.506 424.101 151.424 425.962 151.927 427.706C152.429 429.45 153.488 430.981 154.942 432.068C156.395 433.154 158.164 433.735 159.979 433.723C161.794 433.71 163.555 433.105 164.994 431.999C166.217 431.092 167.159 429.858 167.711 428.439C168.264 427.02 168.404 425.473 168.116 423.978C167.855 422.514 167.208 421.145 166.242 420.015C165.275 418.884 164.024 418.032 162.617 417.547C162.194 417.4 161.811 417.157 161.497 416.838C161.183 416.518 160.947 416.13 160.808 415.705L158.23 407.816C157.744 406.347 157.711 404.765 158.135 403.277C158.56 401.789 159.423 400.463 160.611 399.472C162.176 398.183 163.637 396.773 164.98 395.253C167.848 392.022 170.169 388.344 171.852 384.364C172.44 383.002 173.41 381.839 174.646 381.017C175.881 380.195 177.329 379.749 178.812 379.733L186.922 379.592C187.406 379.587 187.884 379.693 188.32 379.902C188.756 380.112 189.137 380.42 189.434 380.802C190.629 382.311 192.283 383.389 194.145 383.873C196.008 384.356 197.978 384.219 199.755 383.481C201.533 382.744 203.021 381.446 203.994 379.786C204.967 378.125 205.372 376.193 205.147 374.281C204.853 372.591 204.113 371.01 203.004 369.7C201.895 368.391 200.457 367.401 198.837 366.833C197.438 366.427 195.961 366.372 194.535 366.674C193.11 366.975 191.781 367.624 190.667 368.563C190.303 368.87 189.873 369.088 189.41 369.201C188.947 369.313 188.464 369.316 188 369.21L180.345 367.471C178.887 367.157 177.553 366.423 176.509 365.359C175.464 364.295 174.754 362.948 174.467 361.485C173.624 356.803 171.952 352.309 169.531 348.214C168.766 346.972 168.375 345.535 168.406 344.075C168.437 342.616 168.888 341.197 169.705 339.988L176.267 330.514C176.56 330.096 176.947 329.751 177.396 329.507C177.845 329.263 178.344 329.126 178.855 329.108C180.417 329.041 181.939 328.589 183.286 327.794C184.632 326.998 185.762 325.883 186.575 324.547C187.445 322.921 187.866 321.092 187.796 319.249C187.725 317.406 187.164 315.616 186.172 314.061C184.961 312.385 183.238 311.149 181.262 310.541C179.286 309.933 177.165 309.985 175.222 310.691C173.278 311.396 171.618 312.716 170.492 314.45C169.366 316.184 168.836 318.238 168.983 320.3C169.029 320.823 168.953 321.349 168.761 321.837C168.569 322.325 168.266 322.762 167.877 323.113L159.406 330.613C158.316 331.594 156.967 332.242 155.52 332.48C154.072 332.717 152.587 332.535 151.241 331.953C144.895 329.144 137.929 328.028 131.023 328.714C129.541 328.853 128.049 328.557 126.731 327.864C125.413 327.171 124.325 326.11 123.598 324.81L119.675 317.872C119.427 317.428 119.286 316.933 119.263 316.426C119.239 315.918 119.334 315.412 119.539 314.947C120.335 313.088 120.503 311.02 120.016 309.057C119.53 307.094 118.416 305.343 116.845 304.07C115.273 302.798 113.329 302.073 111.308 302.005C109.286 301.938 107.298 302.532 105.645 303.697L105.659 303.716Z" fill="#49B340"/>
<path d="M128.896 394.728C132.875 394.728 136.101 391.503 136.101 387.524C136.101 383.544 132.875 380.319 128.896 380.319C124.917 380.319 121.691 383.544 121.691 387.524C121.691 391.503 124.917 394.728 128.896 394.728Z" fill="#86D37F"/>
<path d="M114.725 364.653C117.943 364.653 120.552 362.045 120.552 358.827C120.552 355.609 117.943 353 114.725 353C111.507 353 108.898 355.609 108.898 358.827C108.898 362.045 111.507 364.653 114.725 364.653Z" fill="#86D37F"/>
<path d="M154.269 356.347C157.086 356.347 159.369 354.064 159.369 351.247C159.369 348.43 157.086 346.147 154.269 346.147C151.452 346.147 149.169 348.43 149.169 351.247C149.169 354.064 151.452 356.347 154.269 356.347Z" fill="#86D37F"/>
<path d="M136.893 367.986C139.184 367.986 141.041 366.129 141.041 363.838C141.041 361.547 139.184 359.689 136.893 359.689C134.601 359.689 132.744 361.547 132.744 363.838C132.744 366.129 134.601 367.986 136.893 367.986Z" fill="#86D37F"/>
<path d="M155.844 384.425C158.078 384.425 159.889 382.614 159.889 380.38C159.889 378.146 158.078 376.334 155.844 376.334C153.61 376.334 151.799 378.146 151.799 380.38C151.799 382.614 153.61 384.425 155.844 384.425Z" fill="#86D37F"/>
<path d="M399.659 435.716C398.246 436.836 397.157 438.312 396.504 439.993C395.851 441.674 395.657 443.498 395.942 445.278C396.265 446.762 396.947 448.144 397.927 449.304C398.908 450.463 400.158 451.365 401.567 451.93C402.043 452.113 402.47 452.403 402.816 452.777C403.161 453.152 403.416 453.602 403.559 454.091L405.725 461.811C406.134 463.242 406.119 464.761 405.683 466.184C405.246 467.606 404.406 468.872 403.264 469.827C401.717 471.102 400.27 472.495 398.937 473.994C396.041 477.257 393.704 480.976 392.019 485C391.428 486.393 390.44 487.581 389.178 488.415C387.915 489.249 386.435 489.691 384.922 489.688H376.859C376.415 489.685 375.977 489.579 375.58 489.379C375.184 489.179 374.838 488.89 374.572 488.535C373.495 487.134 371.99 486.122 370.287 485.653C368.583 485.183 366.773 485.282 365.13 485.934C363.488 486.585 362.102 487.755 361.184 489.264C360.266 490.774 359.864 492.542 360.041 494.3C360.163 495.783 360.702 497.202 361.596 498.391C362.49 499.581 363.703 500.493 365.094 501.022C366.445 501.559 367.914 501.726 369.351 501.506C370.788 501.286 372.14 500.687 373.269 499.771C373.607 499.492 374.006 499.297 374.433 499.2C374.86 499.103 375.304 499.108 375.73 499.213L383.609 501.13C385.069 501.477 386.395 502.244 387.424 503.336C388.452 504.428 389.139 505.798 389.398 507.275C390.334 512.872 392.45 518.206 395.605 522.922C396.45 524.208 396.89 525.718 396.866 527.257C396.843 528.796 396.358 530.292 395.473 531.552L393.2 534.833C392.852 535.328 392.394 535.736 391.862 536.024C391.33 536.313 390.739 536.475 390.134 536.497C387.937 536.597 385.818 537.35 384.051 538.659C382.283 539.969 380.946 541.776 380.21 543.849C379.474 545.923 379.374 548.168 379.921 550.299C380.468 552.43 381.638 554.35 383.282 555.812C384.925 557.275 386.967 558.214 389.148 558.51C391.328 558.806 393.546 558.445 395.52 557.474C397.494 556.502 399.134 554.964 400.229 553.056C401.325 551.148 401.826 548.957 401.67 546.763C401.616 546.154 401.704 545.54 401.926 544.971C402.149 544.402 402.501 543.892 402.955 543.481L407.225 539.703C408.309 538.767 409.627 538.141 411.039 537.894C412.45 537.646 413.902 537.786 415.241 538.297C421.145 540.449 427.473 541.186 433.714 540.449C435.169 540.3 436.636 540.567 437.944 541.219C439.253 541.871 440.349 542.882 441.106 544.133L445.906 551.849C446.143 552.227 446.29 552.655 446.333 553.099C446.377 553.543 446.318 553.991 446.159 554.408C445.506 556.101 445.424 557.962 445.927 559.706C446.429 561.45 447.488 562.981 448.942 564.068C450.395 565.154 452.164 565.735 453.979 565.723C455.794 565.71 457.555 565.105 458.994 563.999C460.217 563.092 461.159 561.858 461.711 560.439C462.264 559.02 462.404 557.473 462.116 555.978C461.855 554.514 461.208 553.145 460.242 552.015C459.275 550.884 458.024 550.032 456.617 549.547C456.194 549.4 455.811 549.157 455.497 548.838C455.183 548.518 454.947 548.13 454.808 547.705L452.23 539.816C451.744 538.347 451.711 536.765 452.135 535.277C452.56 533.789 453.423 532.463 454.611 531.472C456.176 530.183 457.637 528.773 458.98 527.253C461.848 524.022 464.169 520.344 465.852 516.364C466.44 515.002 467.41 513.839 468.646 513.017C469.881 512.195 471.329 511.749 472.812 511.733L480.922 511.592C481.406 511.587 481.884 511.693 482.32 511.902C482.756 512.112 483.137 512.42 483.434 512.802C484.629 514.311 486.283 515.389 488.145 515.873C490.008 516.356 491.978 516.219 493.755 515.481C495.533 514.744 497.021 513.446 497.994 511.786C498.967 510.125 499.372 508.193 499.147 506.281C498.853 504.591 498.113 503.01 497.004 501.7C495.895 500.391 494.457 499.401 492.837 498.833C491.438 498.427 489.961 498.372 488.535 498.674C487.11 498.975 485.781 499.624 484.667 500.563C484.303 500.87 483.873 501.088 483.41 501.201C482.947 501.313 482.464 501.316 482 501.21L474.345 499.471C472.887 499.157 471.553 498.423 470.509 497.359C469.464 496.295 468.754 494.948 468.467 493.485C467.624 488.803 465.952 484.309 463.531 480.214C462.766 478.972 462.375 477.535 462.406 476.075C462.437 474.616 462.888 473.197 463.705 471.988L470.267 462.514C470.56 462.096 470.947 461.751 471.396 461.507C471.845 461.263 472.344 461.126 472.855 461.108C474.417 461.041 475.939 460.589 477.286 459.794C478.632 458.998 479.762 457.883 480.575 456.547C481.445 454.921 481.866 453.092 481.796 451.249C481.725 449.406 481.164 447.616 480.172 446.061C478.961 444.385 477.238 443.149 475.262 442.541C473.286 441.933 471.165 441.985 469.222 442.691C467.278 443.396 465.618 444.716 464.492 446.45C463.366 448.184 462.836 450.238 462.983 452.3C463.029 452.823 462.953 453.349 462.761 453.837C462.569 454.325 462.266 454.762 461.877 455.113L453.406 462.613C452.316 463.594 450.967 464.242 449.52 464.48C448.072 464.717 446.587 464.535 445.241 463.953C438.895 461.144 431.929 460.028 425.023 460.714C423.541 460.853 422.049 460.557 420.731 459.864C419.413 459.171 418.325 458.11 417.598 456.81L413.675 449.872C413.427 449.428 413.286 448.933 413.263 448.426C413.239 447.918 413.334 447.412 413.539 446.947C414.335 445.088 414.503 443.02 414.016 441.057C413.53 439.094 412.416 437.343 410.845 436.07C409.273 434.798 407.329 434.073 405.308 434.005C403.286 433.938 401.298 434.532 399.645 435.697L399.659 435.716Z" fill="#49B340"/>
<path d="M422.896 526.728C426.875 526.728 430.101 523.503 430.101 519.524C430.101 515.544 426.875 512.319 422.896 512.319C418.917 512.319 415.691 515.544 415.691 519.524C415.691 523.503 418.917 526.728 422.896 526.728Z" fill="#86D37F"/>
<path d="M408.725 496.653C411.943 496.653 414.552 494.045 414.552 490.827C414.552 487.609 411.943 485 408.725 485C405.507 485 402.898 487.609 402.898 490.827C402.898 494.045 405.507 496.653 408.725 496.653Z" fill="#86D37F"/>
<path d="M448.269 488.347C451.086 488.347 453.369 486.064 453.369 483.247C453.369 480.43 451.086 478.147 448.269 478.147C445.452 478.147 443.169 480.43 443.169 483.247C443.169 486.064 445.452 488.347 448.269 488.347Z" fill="#86D37F"/>
<path d="M430.893 499.986C433.184 499.986 435.041 498.129 435.041 495.838C435.041 493.547 433.184 491.689 430.893 491.689C428.601 491.689 426.744 493.547 426.744 495.838C426.744 498.129 428.601 499.986 430.893 499.986Z" fill="#86D37F"/>
<path d="M449.844 516.425C452.078 516.425 453.889 514.614 453.889 512.38C453.889 510.146 452.078 508.334 449.844 508.334C447.61 508.334 445.799 510.146 445.799 512.38C445.799 514.614 447.61 516.425 449.844 516.425Z" fill="#86D37F"/>
<path d="M393.629 33.2819C392.573 34.1188 391.76 35.2217 391.272 36.4773C390.784 37.7329 390.639 39.0958 390.852 40.4259C391.093 41.5344 391.602 42.567 392.335 43.4333C393.067 44.2995 394.001 44.9731 395.054 45.3952C395.41 45.5317 395.729 45.7483 395.987 46.0283C396.245 46.3083 396.435 46.6441 396.543 47.0096L398.16 52.7773C398.466 53.8463 398.455 54.9811 398.129 56.044C397.803 57.1069 397.175 58.0523 396.322 58.7657C395.166 59.7186 394.085 60.7594 393.09 61.8789C390.926 64.3167 389.18 67.0949 387.921 70.1015C387.48 71.1422 386.741 72.0296 385.798 72.6525C384.855 73.2755 383.749 73.6063 382.619 73.6035H376.595C376.263 73.6013 375.936 73.5224 375.64 73.373C375.343 73.2235 375.086 73.0076 374.886 72.742C374.082 71.6954 372.958 70.9396 371.685 70.5889C370.412 70.2383 369.06 70.312 367.833 70.7989C366.606 71.2858 365.571 72.1593 364.885 73.2872C364.198 74.4151 363.899 75.7358 364.03 77.0494C364.122 78.1574 364.524 79.217 365.192 80.1056C365.861 80.9943 366.766 81.6758 367.805 82.0712C368.815 82.4725 369.913 82.5974 370.986 82.433C372.06 82.2686 373.07 81.821 373.913 81.1362C374.166 80.9284 374.464 80.7824 374.783 80.7101C375.102 80.6377 375.434 80.6409 375.751 80.7195L381.638 82.1518C382.729 82.4112 383.719 82.9841 384.488 83.8C385.256 84.6159 385.769 85.6389 385.963 86.7429C386.662 90.9241 388.243 94.9088 390.6 98.4324C391.231 99.3931 391.56 100.521 391.542 101.671C391.525 102.821 391.162 103.938 390.502 104.88L388.803 107.331C388.543 107.701 388.201 108.005 387.804 108.221C387.407 108.437 386.965 108.558 386.513 108.574C384.871 108.649 383.289 109.211 381.968 110.189C380.647 111.168 379.648 112.518 379.099 114.067C378.549 115.616 378.474 117.294 378.883 118.886C379.291 120.478 380.165 121.912 381.393 123.004C382.621 124.097 384.147 124.799 385.776 125.02C387.404 125.241 389.062 124.971 390.537 124.246C392.012 123.52 393.236 122.371 394.055 120.945C394.873 119.52 395.248 117.883 395.131 116.243C395.091 115.788 395.156 115.33 395.323 114.905C395.489 114.479 395.752 114.099 396.091 113.792L399.281 110.969C400.091 110.27 401.076 109.803 402.13 109.618C403.185 109.433 404.27 109.537 405.269 109.919C409.681 111.527 414.408 112.077 419.071 111.526C420.157 111.415 421.253 111.615 422.231 112.102C423.209 112.589 424.028 113.344 424.593 114.279L428.179 120.043C428.356 120.325 428.466 120.645 428.499 120.977C428.531 121.309 428.487 121.643 428.368 121.955C427.88 123.22 427.819 124.61 428.195 125.913C428.57 127.216 429.361 128.36 430.447 129.172C431.533 129.983 432.855 130.418 434.211 130.408C435.566 130.399 436.882 129.947 437.957 129.12C438.871 128.443 439.574 127.521 439.987 126.461C440.4 125.4 440.504 124.245 440.289 123.128C440.095 122.034 439.611 121.012 438.889 120.167C438.167 119.322 437.232 118.686 436.181 118.324C435.865 118.214 435.579 118.032 435.344 117.794C435.11 117.555 434.934 117.265 434.83 116.947L432.903 111.053C432.54 109.956 432.516 108.774 432.833 107.663C433.15 106.551 433.795 105.561 434.682 104.82C435.852 103.857 436.943 102.803 437.946 101.668C440.089 99.2543 441.823 96.5064 443.08 93.5332C443.52 92.5154 444.245 91.6468 445.168 91.0327C446.091 90.4186 447.172 90.0853 448.281 90.0732L454.339 89.9682C454.7 89.9638 455.058 90.0431 455.383 90.1998C455.709 90.3566 455.994 90.5865 456.216 90.8717C457.108 91.9991 458.344 92.8047 459.736 93.166C461.127 93.5273 462.599 93.4246 463.927 92.8735C465.255 92.3224 466.367 91.3531 467.094 90.1126C467.821 88.8721 468.123 87.4283 467.955 86.0004C467.735 84.7375 467.182 83.5561 466.354 82.5779C465.525 81.5998 464.451 80.8603 463.241 80.4358C462.196 80.1322 461.092 80.0912 460.027 80.3167C458.962 80.5421 457.97 81.0269 457.137 81.728C456.865 81.9576 456.544 82.1208 456.198 82.2047C455.852 82.2886 455.491 82.2909 455.144 82.2113L449.426 80.9121C448.337 80.678 447.34 80.1296 446.559 79.3347C445.779 78.5398 445.249 77.5334 445.034 76.4401C444.404 72.9425 443.155 69.5853 441.347 66.526C440.775 65.5976 440.483 64.524 440.506 63.434C440.529 62.3439 440.866 61.2836 441.476 60.3801L446.379 53.3026C446.598 52.9899 446.887 52.7324 447.222 52.5501C447.558 52.3678 447.931 52.2658 448.312 52.252C449.48 52.2018 450.616 51.8646 451.623 51.2703C452.629 50.6759 453.473 49.8428 454.08 48.8446C454.73 47.6297 455.045 46.2636 454.992 44.8868C454.939 43.51 454.52 42.1721 453.779 41.0107C452.874 39.7585 451.587 38.8353 450.11 38.3809C448.634 37.9265 447.05 37.9658 445.598 38.4928C444.146 39.0198 442.906 40.0058 442.065 41.3013C441.223 42.5967 440.828 44.1311 440.937 45.6718C440.971 46.0621 440.915 46.4551 440.771 46.8198C440.628 47.1844 440.402 47.5108 440.111 47.773L433.782 53.3761C432.968 54.1093 431.96 54.5935 430.879 54.771C429.798 54.9485 428.688 54.812 427.682 54.3777C422.941 52.2788 417.737 51.445 412.578 51.9578C411.47 52.0612 410.356 51.8405 409.372 51.3226C408.387 50.8048 407.574 50.012 407.031 49.0407L404.1 43.8578C403.915 43.5263 403.809 43.1564 403.792 42.7771C403.774 42.3979 403.845 42.0198 403.998 41.6726C404.593 40.2836 404.718 38.7385 404.355 37.272C403.991 35.8054 403.16 34.4974 401.985 33.5466C400.811 32.5958 399.359 32.0542 397.849 32.0039C396.339 31.9535 394.853 32.3973 393.618 33.2679L393.629 33.2819Z" fill="#49B340"/>
<path d="M410.989 101.276C413.962 101.276 416.371 98.8661 416.371 95.8934C416.371 92.9207 413.962 90.5109 410.989 90.5109C408.016 90.5109 405.606 92.9207 405.606 95.8934C405.606 98.8661 408.016 101.276 410.989 101.276Z" fill="#86D37F"/>
<path d="M400.402 78.8074C402.806 78.8074 404.755 76.8586 404.755 74.4545C404.755 72.0504 402.806 70.1016 400.402 70.1016C397.998 70.1016 396.049 72.0504 396.049 74.4545C396.049 76.8586 397.998 78.8074 400.402 78.8074Z" fill="#86D37F"/>
<path d="M429.945 72.6018C432.049 72.6018 433.755 70.896 433.755 68.7917C433.755 66.6874 432.049 64.9816 429.945 64.9816C427.841 64.9816 426.135 66.6874 426.135 68.7917C426.135 70.896 427.841 72.6018 429.945 72.6018Z" fill="#86D37F"/>
<path d="M416.963 81.2972C418.674 81.2972 420.062 79.9097 420.062 78.198C420.062 76.4863 418.674 75.0988 416.963 75.0988C415.251 75.0988 413.863 76.4863 413.863 78.198C413.863 79.9097 415.251 81.2972 416.963 81.2972Z" fill="#86D37F"/>
<path d="M431.121 93.5786C432.79 93.5786 434.143 92.2255 434.143 90.5564C434.143 88.8873 432.79 87.5342 431.121 87.5342C429.452 87.5342 428.099 88.8873 428.099 90.5564C428.099 92.2255 429.452 93.5786 431.121 93.5786Z" fill="#86D37F"/>
</svg>
