<svg width="101" height="100" viewBox="0 0 101 100" fill="none" xmlns="http://www.w3.org/2000/svg">
<path d="M75.75 27.4952V20.3125C75.75 15.7541 73.9392 11.3824 70.7159 8.1591C67.4926 4.93582 63.1209 3.125 58.5625 3.125C54.0041 3.125 49.6324 4.93582 46.4091 8.1591C43.1858 11.3824 41.375 15.7541 41.375 20.3125V23.4375L37.3973 30.0669C37.3262 30.1854 37.2878 30.3207 37.2861 30.459C37.2844 30.5972 37.3194 30.7334 37.3875 30.8537C37.4556 30.974 37.5544 31.0741 37.6739 31.1437C37.7933 31.2133 37.9291 31.25 38.0673 31.25H41.375V39.0625C41.375 40.3057 41.8689 41.498 42.7479 42.3771C43.627 43.2561 44.8193 43.75 46.0625 43.75H49.1875V51.9914L31.9512 57.4739C28.791 58.4791 26.0326 60.4637 24.0751 63.1406C22.1176 65.8174 21.0625 69.0477 21.0625 72.3639V96.875H96.0625V72.3639C96.0627 69.0476 95.0076 65.8172 93.0501 63.1402C91.0926 60.4632 88.3341 58.4785 85.1737 57.4733L67.9375 51.9914V43.75C70.3752 41.7998 72.3431 39.3263 73.6955 36.5126C75.0478 33.6989 75.75 30.617 75.75 27.4952Z" fill="#FCDBCA"/>
<path d="M86.6875 96.875V71.875C86.6875 71.4606 86.5229 71.0632 86.2299 70.7701C85.9368 70.4771 85.5394 70.3125 85.125 70.3125C84.7106 70.3125 84.3132 70.4771 84.0201 70.7701C83.7271 71.0632 83.5625 71.4606 83.5625 71.875V96.875H86.6875Z" fill="#FAC8AC"/>
<path d="M33.5625 96.875V71.875C33.5625 71.4606 33.3979 71.0632 33.1049 70.7701C32.8118 70.4771 32.4144 70.3125 32 70.3125C31.5856 70.3125 31.1882 70.4771 30.8951 70.7701C30.6021 71.0632 30.4375 71.4606 30.4375 71.875V96.875H33.5625Z" fill="#FAC8AC"/>
<path d="M56.36 74.0962C57.0967 77.0494 56.6332 85.0727 55.8545 88.6461C54.8683 93.1691 51.1826 93.4157 47.7268 93.9711C44.271 94.5265 41.6391 94.0073 40.6801 91.0025C36.9995 79.4735 45.1644 70.9031 49.1217 69.2455C52.1291 67.9864 55.0589 68.8877 56.36 74.0962Z" fill="#FF5761"/>
<path d="M60.6457 74.0962C59.909 77.0494 60.336 83.518 61.1147 87.0913C62.1009 91.6143 65.892 93.0903 69.3737 93.6489C72.8295 94.2043 75.3653 94.0073 76.3243 91.0025C80.005 79.4735 71.8401 70.9031 67.8827 69.2455C64.8767 67.9864 61.9481 68.8877 60.6457 74.0962Z" fill="#FF5761"/>
<path d="M59.7023 34H41.4165V37H54.9056C55.8097 37 56.5488 37.7132 56.5679 38.6171C56.7313 46.3386 56.9461 64.277 56.4101 67.1215C55.6945 70.9196 53.241 72.9571 51.939 74.0384C51.8531 74.1097 51.7722 74.1769 51.6972 74.2401C51.5236 74.3754 51.3125 74.4537 51.0927 74.4644C50.8728 74.4751 50.6551 74.4177 50.4692 74.3C50.0236 73.9762 49.6303 73.5861 49.3029 73.1434C49.1951 73.0267 49.055 72.9445 48.9004 72.9072C48.7459 72.8699 48.5837 72.8792 48.4344 72.9339C48.2591 73.0017 48.115 73.1317 48.0295 73.2989C47.9441 73.4662 47.9233 73.659 47.9711 73.8406C48.1834 74.5798 48.768 75.2681 49.3856 75.8516C49.5568 76.0124 49.6617 76.2313 49.6795 76.4654C49.6972 76.6995 49.6267 76.9318 49.4817 77.1165C49.4144 77.2018 49.3449 77.2916 49.2763 77.3814C49.1426 77.5582 48.9506 77.6822 48.7344 77.7314C48.5181 77.7807 48.2914 77.7521 48.0942 77.6507C47.1698 77.1359 46.103 76.9353 45.0545 77.0791C44.8355 77.1082 44.6342 77.2147 44.4871 77.3795C44.3401 77.5442 44.257 77.7562 44.2531 77.9769V77.9984C44.2523 78.1076 44.2733 78.2158 44.315 78.3168C44.3567 78.4177 44.4182 78.5093 44.4958 78.5861C44.5734 78.6629 44.6657 78.7234 44.7671 78.7641C44.8685 78.8048 44.977 78.8247 45.0863 78.8229C45.7706 78.7944 46.4459 78.9868 47.0124 79.3714C47.2064 79.5049 47.344 79.7054 47.3986 79.9344C47.4533 80.1633 47.4211 80.4043 47.3083 80.6109C47.1076 80.9838 46.8853 81.3511 46.6763 81.6964C46.66 81.7232 46.6439 81.7499 46.6278 81.7765C46.5682 81.875 46.4827 81.9554 46.3806 82.0087C46.2784 82.062 46.1636 82.0862 46.0486 82.0787C45.5283 82.0524 45.0109 81.9841 44.5017 81.8743C44.3103 81.8288 44.1089 81.8535 43.9343 81.944C43.7597 82.0346 43.6236 82.1849 43.5507 82.3675L43.5438 82.3843C43.4749 82.5504 43.4638 82.7349 43.5123 82.9081C43.5609 83.0814 43.6663 83.2333 43.8116 83.3395C44.1839 83.6037 44.5723 83.6872 45.2896 83.8C45.3224 83.8051 45.3537 83.8175 45.3811 83.8362C45.4085 83.8549 45.4314 83.8795 45.448 83.9082C45.4647 83.9369 45.4747 83.9689 45.4774 84.002C45.48 84.0351 45.4752 84.0683 45.4633 84.0993C45.3173 84.4745 45.1544 84.9333 45.0773 85.1504C45.0542 85.2155 45.0388 85.2589 45.0339 85.2717C44.9561 85.4902 44.967 85.7305 45.0644 85.9411C45.1617 86.1516 45.3377 86.3157 45.5547 86.3981C45.7573 86.4642 45.9764 86.4586 46.1754 86.3823C46.3743 86.306 46.5409 86.1637 46.6473 85.9792C46.8668 85.6673 47.5314 84.5787 47.957 83.8775C48.0248 83.7658 48.1309 83.6825 48.2556 83.6431C48.3803 83.6038 48.515 83.611 48.6348 83.6636C49.0439 83.8278 49.441 84.0205 49.8232 84.2402C50.0123 84.3636 50.2421 84.4085 50.4638 84.3654C50.6854 84.3223 50.8816 84.1947 51.0107 84.0095C51.1107 83.8694 51.167 83.7028 51.1723 83.5307C51.1776 83.3587 51.1318 83.1889 51.0406 83.0429C50.7126 82.6057 50.301 82.2378 49.8298 81.9605C49.7568 81.9134 49.6943 81.8517 49.6462 81.7795C49.598 81.7072 49.5652 81.6259 49.5497 81.5404C49.5343 81.455 49.5366 81.3673 49.5564 81.2828C49.5762 81.1982 49.6132 81.1187 49.665 81.049C49.9993 80.5887 50.3574 80.1461 50.7379 79.723C50.86 79.5922 51.0288 79.5146 51.2077 79.507C51.3866 79.4994 51.5613 79.5623 51.6942 79.6823C52.0652 80.0301 52.5098 80.2901 52.9949 80.4433C53.1753 80.5022 53.3707 80.4965 53.5474 80.4273C53.7241 80.3581 53.8712 80.2296 53.9635 80.0638C54.0558 79.8981 54.0876 79.7054 54.0533 79.5189C54.019 79.3323 53.9209 79.1635 53.7757 79.0413C53.3312 78.584 52.9668 78.0553 52.6975 77.4774C52.6049 77.2677 52.5918 76.6087 52.9572 76.3154C53.971 75.5 56.7611 72.7029 57.9954 70.3861C58.044 70.2956 58.1163 70.22 58.2046 70.1673C58.2929 70.1146 58.3937 70.0867 58.4966 70.0867C58.5994 70.0867 58.7003 70.1146 58.7885 70.1673C58.8768 70.22 58.9491 70.2956 58.9978 70.3861C60.232 72.7029 63.0222 75.5 64.0342 76.3127C64.3996 76.6069 64.3864 77.2653 64.2938 77.4747C64.0246 78.0527 63.6601 78.5813 63.2156 79.0386C63.0685 79.1604 62.9686 79.3298 62.9334 79.5175C62.8982 79.7052 62.9299 79.8992 63.0229 80.066C63.116 80.2327 63.2645 80.3617 63.4428 80.4305C63.621 80.4992 63.8178 80.5034 63.9988 80.4424C64.484 80.2892 64.9285 80.0292 65.2996 79.6814C65.4324 79.5614 65.6072 79.4985 65.7861 79.5061C65.965 79.5137 66.1337 79.5913 66.2559 79.7221C66.6363 80.1452 66.9944 80.5878 67.3287 81.0481C67.3805 81.1178 67.4175 81.1973 67.4373 81.2819C67.4572 81.3664 67.4594 81.4541 67.444 81.5395C67.4286 81.625 67.3957 81.7063 67.3476 81.7786C67.2994 81.8508 67.2369 81.9125 67.164 81.9596C66.6927 82.2369 66.2812 82.6048 65.9531 83.042C65.8619 83.188 65.8161 83.3578 65.8214 83.5298C65.8268 83.7019 65.883 83.8685 65.983 84.0086C66.1121 84.1938 66.3083 84.3214 66.53 84.3645C66.7517 84.4076 66.9814 84.3627 67.1706 84.2393C67.5527 84.0196 67.9498 83.8269 68.359 83.6627C68.4787 83.6101 68.6135 83.6029 68.7381 83.6422C68.8628 83.6816 68.969 83.7649 69.0367 83.8766C69.4623 84.5778 70.1269 85.6664 70.3465 85.9783C70.4528 86.1628 70.6194 86.3051 70.8184 86.3814C71.0173 86.4577 71.2365 86.4633 71.439 86.3972C71.656 86.3148 71.832 86.1507 71.9294 85.9402C72.0267 85.7296 72.0377 85.4893 71.9599 85.2708C71.9555 85.2591 71.9424 85.2221 71.9226 85.1665C71.8485 84.9571 71.6809 84.4837 71.5304 84.0984C71.5186 84.0674 71.5138 84.0342 71.5165 84.0011C71.5192 83.9681 71.5292 83.936 71.5458 83.9074C71.5625 83.8787 71.5853 83.8541 71.6127 83.8354C71.6401 83.8166 71.6713 83.8043 71.7041 83.7991C72.4214 83.6863 72.8099 83.6028 73.1821 83.3386C73.3274 83.2324 73.4328 83.0805 73.4814 82.9072C73.5299 82.734 73.5188 82.5495 73.4499 82.3834L73.443 82.3666C73.3702 82.184 73.234 82.0337 73.0594 81.9431C72.8848 81.8526 72.6834 81.8279 72.4921 81.8734C71.9828 81.9832 71.4655 82.0515 70.9452 82.0778C70.8302 82.0853 70.7153 82.0611 70.6132 82.0078C70.511 81.9545 70.4255 81.8741 70.3659 81.7756L70.3174 81.6955C70.1084 81.3502 69.8861 80.9829 69.6855 80.61C69.5727 80.4034 69.5405 80.1624 69.5951 79.9335C69.6498 79.7045 69.7874 79.504 69.9814 79.3705C70.5478 78.9859 71.2231 78.7935 71.9075 78.822C72.0167 78.8238 72.1252 78.8039 72.2266 78.7632C72.3281 78.7225 72.4203 78.662 72.4979 78.5852C72.5756 78.5084 72.6371 78.4168 72.6787 78.3159C72.7204 78.2149 72.7415 78.1067 72.7407 77.9975V77.976C72.7367 77.7553 72.6537 77.5433 72.5066 77.3786C72.3595 77.2138 72.1582 77.1073 71.9392 77.0782C70.8908 76.9344 69.8239 77.135 68.8996 77.6498C68.7023 77.7512 68.4756 77.7798 68.2593 77.7305C68.0431 77.6813 67.8512 77.5573 67.7174 77.3805C67.6489 77.2907 67.5794 77.2015 67.512 77.1156C67.367 76.9309 67.2965 76.6986 67.3143 76.4645C67.3321 76.2304 67.4369 76.0115 67.6081 75.8507C68.2254 75.2669 68.81 74.5786 69.0218 73.8409C69.0697 73.6594 69.049 73.4665 68.9636 73.2992C68.8783 73.1319 68.7343 73.0018 68.559 72.9339C68.4097 72.8792 68.2476 72.8699 68.093 72.9072C67.9384 72.9445 67.7984 73.0267 67.6905 73.1434C67.3628 73.5852 66.9694 73.9743 66.5239 74.2973C66.338 74.415 66.1203 74.4725 65.9005 74.4617C65.6806 74.451 65.4695 74.3727 65.296 74.2374C65.2219 74.1751 65.1421 74.109 65.0574 74.0387C63.7568 72.9603 61.2992 70.9226 60.583 67.1215C59.9412 63.7134 60.3767 38.6195 60.5103 35.4241C60.5117 35.3901 60.5116 35.356 60.5097 35.3221L60.5343 34.8796C60.5608 34.4019 60.1807 34 59.7023 34Z" fill="#FFC8CB"/>
<path d="M85.1737 57.4739L67.9375 51.9914V43.75C70.3752 41.7998 72.3431 39.3263 73.6955 36.5126C75.0478 33.6988 75.75 30.617 75.75 27.4952V20.3125C75.75 15.7541 73.9392 11.3824 70.7159 8.1591C67.4926 4.93582 63.1209 3.125 58.5625 3.125C58.035 3.125 57.5156 3.15734 57 3.20312C61.2693 3.59186 65.2392 5.56246 68.1301 8.72803C71.021 11.8936 72.6243 16.0255 72.625 20.3125V27.4952C72.625 30.617 71.9228 33.6988 70.5705 36.5126C69.2181 39.3263 67.2502 41.7998 64.8125 43.75V54.6277L82.0487 60.1102C85.2089 61.1154 87.9674 63.1 89.9249 65.7768C91.8824 68.4536 92.9375 71.6838 92.9375 75V96.875H96.0625V72.3639C96.0625 69.0477 95.0074 65.8174 93.0499 63.1406C91.0924 60.4637 88.334 58.4791 85.1737 57.4739Z" fill="#FAC8AC"/>
<path d="M8.69339 32.286C8.4579 32.4727 8.27639 32.7187 8.16751 32.9988C8.05862 33.2789 8.0263 33.583 8.07385 33.8797C8.12768 34.127 8.24127 34.3574 8.4047 34.5506C8.56813 34.7439 8.77642 34.8942 9.01136 34.9883C9.09067 35.0188 9.16189 35.0671 9.21948 35.1296C9.27707 35.192 9.31947 35.2669 9.34339 35.3485L9.70433 36.6352C9.77253 36.8737 9.77008 37.1268 9.69728 37.364C9.62448 37.6011 9.48445 37.812 9.29417 37.9711C9.03627 38.1837 8.79518 38.4159 8.57307 38.6657C8.09038 39.2095 7.70078 39.8293 7.41995 40.5C7.32155 40.7322 7.15683 40.9302 6.94643 41.0691C6.73602 41.2081 6.48929 41.2819 6.23714 41.2813H4.89339C4.81932 41.2808 4.74638 41.2632 4.68024 41.2299C4.6141 41.1965 4.55657 41.1483 4.51214 41.0891C4.33262 40.8556 4.08191 40.687 3.79797 40.6088C3.51403 40.5306 3.21233 40.547 2.93857 40.6556C2.66481 40.7642 2.43391 40.9591 2.28084 41.2107C2.12777 41.4623 2.06087 41.757 2.09026 42.05C2.11061 42.2972 2.20049 42.5336 2.34953 42.7318C2.49856 42.9301 2.70065 43.0821 2.93245 43.1703C3.15759 43.2599 3.40253 43.2877 3.64202 43.2511C3.88152 43.2144 4.1069 43.1145 4.29495 42.9618C4.35135 42.9154 4.41781 42.8828 4.48902 42.8667C4.56023 42.8505 4.63422 42.8513 4.70511 42.8688L6.01839 43.1883C6.26165 43.2462 6.48265 43.374 6.65411 43.556C6.82557 43.738 6.93998 43.9663 6.98323 44.2125C7.13919 45.1453 7.49178 46.0343 8.01761 46.8203C8.15852 47.0347 8.23178 47.2864 8.22788 47.5428C8.22398 47.7993 8.1431 48.0487 7.99573 48.2586L7.61682 48.8055C7.55881 48.888 7.48251 48.956 7.39387 49.0041C7.30524 49.0522 7.20667 49.0791 7.10589 49.0828C6.73958 49.0995 6.38655 49.2249 6.09192 49.4432C5.79728 49.6615 5.57442 49.9626 5.45182 50.3082C5.32921 50.6538 5.31243 51.0281 5.40363 51.3832C5.49482 51.7384 5.68984 52.0583 5.96376 52.3021C6.23769 52.5458 6.57807 52.7024 6.94142 52.7517C7.30477 52.801 7.67457 52.7409 8.00357 52.579C8.33257 52.4171 8.60581 52.1607 8.78839 51.8427C8.97097 51.5247 9.05458 51.1595 9.02854 50.7938C9.01948 50.6923 9.0341 50.5901 9.07124 50.4952C9.10839 50.4003 9.16705 50.3153 9.24261 50.2469L9.95433 49.6172C10.1351 49.4611 10.3547 49.3569 10.5899 49.3156C10.8252 49.2744 11.0672 49.2976 11.2903 49.3828C12.2744 49.7415 13.3289 49.8644 14.3692 49.7414C14.6116 49.7166 14.8561 49.7612 15.0742 49.8699C15.2923 49.9786 15.4751 50.147 15.6012 50.3555L16.4012 51.6414C16.4407 51.7044 16.4651 51.7758 16.4724 51.8498C16.4797 51.9238 16.4698 51.9985 16.4434 52.068C16.3345 52.3502 16.3209 52.6603 16.4046 52.9509C16.4883 53.2416 16.6648 53.4969 16.9071 53.678C17.1494 53.859 17.4442 53.9559 17.7467 53.9538C18.0492 53.9517 18.3427 53.8508 18.5825 53.6664C18.7863 53.5153 18.9433 53.3096 19.0354 53.0731C19.1274 52.8366 19.1508 52.5789 19.1028 52.3297C19.0594 52.0856 18.9515 51.8575 18.7904 51.6691C18.6293 51.4806 18.4208 51.3387 18.1864 51.2578C18.1159 51.2333 18.052 51.1929 17.9997 51.1396C17.9474 51.0863 17.9081 51.0217 17.8848 50.9508L17.4551 49.636C17.3741 49.3911 17.3686 49.1275 17.4394 48.8795C17.5102 48.6315 17.6539 48.4106 17.852 48.2453C18.1129 48.0305 18.3563 47.7954 18.5801 47.5422C19.0582 47.0037 19.4451 46.3907 19.7254 45.7274C19.8235 45.5003 19.9852 45.3066 20.1911 45.1696C20.3971 45.0326 20.6383 44.9582 20.8856 44.9555L22.2371 44.9321C22.3178 44.9311 22.3975 44.9488 22.4701 44.9837C22.5428 45.0187 22.6064 45.07 22.6559 45.1336C22.8549 45.3852 23.1306 45.5649 23.4411 45.6455C23.7515 45.7261 24.0798 45.7031 24.3761 45.5802C24.6723 45.4573 24.9204 45.241 25.0825 44.9643C25.2447 44.6876 25.3122 44.3655 25.2746 44.0469C25.2256 43.7652 25.1023 43.5016 24.9175 43.2834C24.7326 43.0652 24.4929 42.9002 24.2231 42.8055C23.9899 42.7378 23.7436 42.7286 23.5061 42.7789C23.2685 42.8292 23.0471 42.9374 22.8614 43.0938C22.8007 43.145 22.729 43.1814 22.6518 43.2001C22.5747 43.2188 22.4942 43.2193 22.4168 43.2016L21.141 42.9118C20.8981 42.8595 20.6757 42.7372 20.5016 42.5598C20.3274 42.3825 20.2092 42.158 20.1614 41.9141C20.0208 41.1338 19.7422 40.3849 19.3387 39.7024C19.2112 39.4953 19.1461 39.2558 19.1512 39.0126C19.1563 38.7694 19.2315 38.5328 19.3676 38.3313L20.4614 36.7524C20.5102 36.6826 20.5746 36.6252 20.6494 36.5845C20.7243 36.5438 20.8075 36.5211 20.8926 36.518C21.153 36.5068 21.4067 36.4316 21.6311 36.299C21.8555 36.1664 22.0438 35.9805 22.1793 35.7578C22.3244 35.4868 22.3946 35.1821 22.3828 34.8749C22.371 34.5677 22.2775 34.2693 22.1121 34.0102C21.9104 33.7308 21.6231 33.5249 21.2938 33.4235C20.9644 33.3221 20.611 33.3309 20.2871 33.4485C19.9632 33.566 19.6865 33.786 19.4988 34.075C19.3112 34.364 19.2229 34.7063 19.2473 35.05C19.255 35.1371 19.2423 35.2248 19.2103 35.3061C19.1783 35.3875 19.1279 35.4603 19.0629 35.5188L17.6512 36.7688C17.4695 36.9324 17.2447 37.0404 17.0035 37.08C16.7622 37.1196 16.5147 37.0891 16.2903 36.9922C15.2326 36.524 14.0717 36.338 12.9207 36.4524C12.6736 36.4754 12.4251 36.4262 12.2054 36.3107C11.9857 36.1951 11.8043 36.0183 11.6832 35.8016L11.0293 34.6453C10.9881 34.5714 10.9645 34.4889 10.9606 34.4043C10.9567 34.3197 10.9724 34.2353 11.0067 34.1578C11.1393 33.848 11.1672 33.5033 11.0862 33.1761C11.0052 32.8489 10.8196 32.5571 10.5576 32.345C10.2957 32.1329 9.97163 32.0121 9.63476 32.0009C9.29788 31.9896 8.96654 32.0886 8.69104 32.2828L8.69339 32.286Z" fill="#FF5761"/>
<path d="M12.566 47.4548C13.2292 47.4548 13.7668 46.9172 13.7668 46.254C13.7668 45.5908 13.2292 45.0532 12.566 45.0532C11.9028 45.0532 11.3652 45.5908 11.3652 46.254C11.3652 46.9172 11.9028 47.4548 12.566 47.4548Z" fill="#B0D4FF"/>
<path d="M10.2045 42.4422C10.7408 42.4422 11.1756 42.0074 11.1756 41.4711C11.1756 40.9348 10.7408 40.5 10.2045 40.5C9.66817 40.5 9.2334 40.9348 9.2334 41.4711C9.2334 42.0074 9.66817 42.4422 10.2045 42.4422Z" fill="#B0D4FF"/>
<path d="M16.7948 41.0579C17.2643 41.0579 17.6448 40.6774 17.6448 40.2079C17.6448 39.7385 17.2643 39.3579 16.7948 39.3579C16.3254 39.3579 15.9448 39.7385 15.9448 40.2079C15.9448 40.6774 16.3254 41.0579 16.7948 41.0579Z" fill="#B0D4FF"/>
<path d="M13.8989 42.9976C14.2808 42.9976 14.5903 42.688 14.5903 42.3062C14.5903 41.9243 14.2808 41.6147 13.8989 41.6147C13.5171 41.6147 13.2075 41.9243 13.2075 42.3062C13.2075 42.688 13.5171 42.9976 13.8989 42.9976Z" fill="#B0D4FF"/>
<path d="M17.0575 45.7376C17.4299 45.7376 17.7317 45.4357 17.7317 45.0634C17.7317 44.691 17.4299 44.3892 17.0575 44.3892C16.6852 44.3892 16.3833 44.691 16.3833 45.0634C16.3833 45.4357 16.6852 45.7376 17.0575 45.7376Z" fill="#B0D4FF"/>
<path d="M22.5269 2.11947C22.2914 2.30618 22.1099 2.55223 22.001 2.83233C21.8921 3.11243 21.8598 3.41648 21.9074 3.71322C21.9612 3.96052 22.0748 4.19088 22.2382 4.38413C22.4016 4.57739 22.6099 4.72766 22.8449 4.82181C22.9242 4.85226 22.9954 4.9006 23.053 4.96307C23.1106 5.02553 23.153 5.10044 23.1769 5.18197L23.5378 6.46868C23.606 6.70717 23.6036 6.96033 23.5308 7.19745C23.458 7.43458 23.3179 7.64549 23.1277 7.80462C22.8698 8.0172 22.6287 8.2494 22.4066 8.49915C21.9239 9.043 21.5343 9.66279 21.2534 10.3335C21.155 10.5657 20.9903 10.7637 20.7799 10.9026C20.5695 11.0416 20.3228 11.1154 20.0706 11.1148H18.7269C18.6528 11.1143 18.5799 11.0967 18.5137 11.0634C18.4476 11.03 18.3901 10.9818 18.3456 10.9226C18.1661 10.6891 17.9154 10.5205 17.6315 10.4423C17.3475 10.364 17.0458 10.3805 16.7721 10.4891C16.4983 10.5977 16.2674 10.7926 16.1143 11.0442C15.9613 11.2958 15.8944 11.5905 15.9238 11.8835C15.9441 12.1307 16.034 12.3671 16.183 12.5653C16.3321 12.7636 16.5341 12.9156 16.7659 13.0038C16.9911 13.0934 17.236 13.1212 17.4755 13.0845C17.715 13.0479 17.9404 12.948 18.1284 12.7952C18.1848 12.7489 18.2513 12.7163 18.3225 12.7002C18.3937 12.684 18.4677 12.6848 18.5386 12.7023L19.8519 13.0218C20.0951 13.0797 20.3161 13.2075 20.4876 13.3895C20.6591 13.5715 20.7735 13.7997 20.8167 14.046C20.9727 14.9788 21.3253 15.8678 21.8511 16.6538C21.992 16.8682 22.0653 17.1199 22.0614 17.3763C22.0575 17.6328 21.9766 17.8822 21.8292 18.0921L21.4503 18.639C21.3923 18.7215 21.316 18.7895 21.2274 18.8376C21.1387 18.8857 21.0402 18.9126 20.9394 18.9163C20.5731 18.933 20.22 19.0584 19.9254 19.2767C19.6308 19.495 19.4079 19.7961 19.2853 20.1417C19.1627 20.4873 19.1459 20.8616 19.2371 21.2167C19.3283 21.5719 19.5233 21.8918 19.7973 22.1356C20.0712 22.3793 20.4116 22.5359 20.7749 22.5852C21.1383 22.6345 21.5081 22.5744 21.8371 22.4125C22.1661 22.2506 22.4393 21.9942 22.6219 21.6762C22.8045 21.3582 22.8881 20.993 22.862 20.6273C22.853 20.5258 22.8676 20.4236 22.9047 20.3287C22.9419 20.2338 23.0005 20.1488 23.0761 20.0804L23.7878 19.4507C23.9686 19.2946 24.1882 19.1904 24.4234 19.1491C24.6587 19.1079 24.9007 19.1311 25.1238 19.2163C26.1079 19.575 27.1624 19.6979 28.2027 19.5749C28.4451 19.5501 28.6896 19.5946 28.9077 19.7034C29.1258 19.8121 29.3086 19.9805 29.4347 20.189L30.2347 21.4749C30.2742 21.5379 30.2986 21.6093 30.3059 21.6833C30.3132 21.7573 30.3033 21.832 30.2769 21.9015C30.168 22.1837 30.1544 22.4938 30.2381 22.7844C30.3218 23.0751 30.4983 23.3304 30.7406 23.5115C30.9829 23.6925 31.2777 23.7894 31.5802 23.7873C31.8827 23.7852 32.1762 23.6843 32.4159 23.4999C32.6198 23.3488 32.7768 23.1431 32.8689 22.9066C32.9609 22.6701 32.9843 22.4124 32.9363 22.1632C32.8929 21.9191 32.785 21.691 32.6239 21.5026C32.4628 21.3141 32.2542 21.1722 32.0199 21.0913C31.9494 21.0668 31.8855 21.0263 31.8332 20.9731C31.7809 20.9198 31.7415 20.8552 31.7183 20.7843L31.2886 19.4695C31.2076 19.2246 31.2021 18.961 31.2729 18.713C31.3437 18.465 31.4874 18.244 31.6855 18.0788C31.9463 17.864 32.1898 17.6289 32.4136 17.3757C32.8917 16.8372 33.2786 16.2242 33.5589 15.5609C33.657 15.3338 33.8187 15.14 34.0246 15.0031C34.2305 14.8661 34.4718 14.7917 34.7191 14.789L36.0706 14.7656C36.1513 14.7646 36.231 14.7823 36.3036 14.8172C36.3763 14.8522 36.4399 14.9035 36.4894 14.9671C36.6884 15.2186 36.9641 15.3984 37.2746 15.479C37.585 15.5596 37.9133 15.5366 38.2096 15.4137C38.5058 15.2908 38.7539 15.0745 38.916 14.7978C39.0782 14.521 39.1457 14.199 39.1081 13.8804C39.0591 13.5987 38.9358 13.3351 38.751 13.1169C38.5661 12.8987 38.3264 12.7337 38.0566 12.639C37.8234 12.5713 37.5771 12.5621 37.3396 12.6124C37.102 12.6627 36.8806 12.7709 36.6949 12.9273C36.6342 12.9785 36.5625 13.0149 36.4853 13.0336C36.4082 13.0523 36.3277 13.0528 36.2503 13.0351L34.9745 12.7452C34.7316 12.693 34.5092 12.5707 34.3351 12.3933C34.1609 12.216 34.0426 11.9915 33.9949 11.7476C33.8543 10.9673 33.5757 10.2184 33.1722 9.53587C33.0447 9.32875 32.9796 9.08925 32.9847 8.84607C32.9898 8.60289 33.065 8.36634 33.2011 8.16478L34.2949 6.58587C34.3437 6.51612 34.4081 6.45866 34.4829 6.41799C34.5578 6.37732 34.641 6.35456 34.7261 6.3515C34.9865 6.34029 35.2402 6.26507 35.4646 6.13248C35.689 5.9999 35.8773 5.81403 36.0128 5.59134C36.1579 5.32032 36.2281 5.01556 36.2163 4.7084C36.2045 4.40124 36.111 4.10277 35.9456 3.84368C35.7439 3.56433 35.4566 3.35837 35.1273 3.25701C34.7979 3.15564 34.4445 3.16441 34.1206 3.28197C33.7967 3.39954 33.52 3.6195 33.3323 3.9085C33.1447 4.19751 33.0564 4.53981 33.0808 4.88353C33.0885 4.9706 33.0758 5.05828 33.0438 5.13963C33.0118 5.22098 32.9614 5.29378 32.8964 5.35228L31.4847 6.60228C31.303 6.76585 31.0782 6.87385 30.837 6.91345C30.5957 6.95306 30.3482 6.92261 30.1238 6.82571C29.0661 6.35747 27.9052 6.17147 26.7542 6.28587C26.5071 6.30892 26.2586 6.25969 26.0389 6.14416C25.8192 6.02863 25.6378 5.85178 25.5167 5.63509L24.8628 4.47884C24.8216 4.40489 24.798 4.32236 24.7941 4.23776C24.7902 4.15316 24.8059 4.0688 24.8402 3.99134C24.9728 3.68148 25.0007 3.33679 24.9197 3.00962C24.8387 2.68244 24.6531 2.39064 24.3911 2.17853C24.1291 1.96642 23.8051 1.84558 23.4683 1.83436C23.1314 1.82313 22.8 1.92214 22.5245 2.11634L22.5269 2.11947Z" fill="#FF5761"/>
<path d="M26.3995 17.2883C27.0627 17.2883 27.6003 16.7507 27.6003 16.0875C27.6003 15.4243 27.0627 14.8867 26.3995 14.8867C25.7363 14.8867 25.1987 15.4243 25.1987 16.0875C25.1987 16.7507 25.7363 17.2883 26.3995 17.2883Z" fill="#B0D4FF"/>
<path d="M24.038 12.2757C24.5743 12.2757 25.0091 11.8409 25.0091 11.3046C25.0091 10.7683 24.5743 10.3335 24.038 10.3335C23.5017 10.3335 23.0669 10.7683 23.0669 11.3046C23.0669 11.8409 23.5017 12.2757 24.038 12.2757Z" fill="#B0D4FF"/>
<path d="M30.6283 10.8914C31.0978 10.8914 31.4783 10.5108 31.4783 10.0414C31.4783 9.57196 31.0978 9.19141 30.6283 9.19141C30.1589 9.19141 29.7783 9.57196 29.7783 10.0414C29.7783 10.5108 30.1589 10.8914 30.6283 10.8914Z" fill="#B0D4FF"/>
<path d="M27.7324 12.8311C28.1143 12.8311 28.4238 12.5215 28.4238 12.1396C28.4238 11.7578 28.1143 11.4482 27.7324 11.4482C27.3506 11.4482 27.041 11.7578 27.041 12.1396C27.041 12.5215 27.3506 12.8311 27.7324 12.8311Z" fill="#B0D4FF"/>
<path d="M30.891 15.5711C31.2634 15.5711 31.5652 15.2692 31.5652 14.8969C31.5652 14.5245 31.2634 14.2227 30.891 14.2227C30.5187 14.2227 30.2168 14.5245 30.2168 14.8969C30.2168 15.2692 30.5187 15.5711 30.891 15.5711Z" fill="#B0D4FF"/>
</svg>
