<svg width="600" height="600" viewBox="0 0 600 600" fill="none" xmlns="http://www.w3.org/2000/svg">
<g clip-path="url(#clip0_147_18870)">
<path d="M269.311 298.594C280.092 341.812 273.844 436.477 262.448 488.77C248.016 554.962 192.534 576.562 141.562 584.737C90.989 592.866 53.878 589.983 39.8437 546.009C-14.0204 377.287 105.469 251.864 163.383 227.606C207.394 209.18 250.27 222.37 269.311 298.594Z" fill="#FF5761"/>
<path d="M332.034 298.594C321.253 341.812 327.501 436.477 338.897 488.77C353.33 554.962 408.811 576.562 459.764 584.737C510.337 592.866 547.448 589.983 561.483 546.009C615.347 377.287 495.858 251.864 437.944 227.606C393.951 209.18 351.094 222.37 332.034 298.594Z" fill="#FF5761"/>
<path d="M515.573 304.842C517.176 304.842 518.475 303.543 518.475 301.941C518.475 300.338 517.176 299.039 515.573 299.039C513.971 299.039 512.672 300.338 512.672 301.941C512.672 303.543 513.971 304.842 515.573 304.842Z" fill="#0C5FC3"/>
<path d="M269.311 298.594C280.092 341.812 273.309 459.23 261.914 511.523C247.481 577.716 193.542 581.325 142.969 589.453C92.3951 597.581 53.878 589.983 39.8437 546.009C-14.0204 377.287 105.469 251.864 163.383 227.606C207.394 209.18 250.27 222.37 269.311 298.594Z" fill="#D1D6DB"/>
<path d="M332.034 298.594C321.253 341.812 327.501 436.477 338.897 488.77C353.33 554.962 408.811 576.562 459.764 584.737C510.337 592.866 547.448 589.983 561.483 546.009C615.347 377.287 495.858 251.864 437.944 227.606C393.951 209.18 351.094 222.37 332.034 298.594Z" fill="#D1D6DB"/>
<path d="M307.917 244.299C307.204 242.975 306.146 241.868 304.854 241.097C303.563 240.325 302.086 239.918 300.582 239.918C299.077 239.918 297.6 240.325 296.309 241.097C295.017 241.868 293.959 242.975 293.247 244.299C275.184 278.204 234.352 319.138 219.515 331.072C214.168 335.364 214.361 345.007 215.715 348.077C219.656 356.535 224.989 364.271 231.494 370.964C233.619 372.752 235.055 375.223 235.557 377.953C236.058 380.683 235.594 383.502 234.243 385.928C232.892 388.353 230.739 390.234 228.153 391.247C225.567 392.26 222.708 392.343 220.067 391.482C212.968 389.24 206.462 385.434 201.032 380.345C199.087 378.589 196.53 377.668 193.912 377.779C191.294 377.89 188.824 379.026 187.037 380.94C181.469 387.132 176.229 393.609 171.337 400.345C170.578 401.365 170.037 402.53 169.747 403.767C169.456 405.004 169.423 406.287 169.649 407.537C169.875 408.788 170.355 409.978 171.06 411.036C171.765 412.093 172.68 412.995 173.747 413.685C180.643 417.744 186.666 423.127 191.468 429.525C192.802 431.663 193.473 434.147 193.395 436.665C193.317 439.182 192.494 441.62 191.03 443.671C189.141 446.381 186.27 448.249 183.025 448.879C179.781 449.51 176.418 448.853 173.651 447.047C168.058 443.832 162.246 441.012 156.259 438.608C154.507 437.839 152.535 437.733 150.71 438.309C148.885 438.885 147.332 440.104 146.34 441.74C140.112 452 130.386 467.933 127.173 472.496C125.617 475.196 123.178 477.279 120.267 478.396C117.355 479.512 114.148 479.594 111.184 478.627C108.009 477.421 105.433 475.02 104.008 471.938C102.583 468.857 102.423 465.341 103.562 462.143C103.873 461.329 107.068 452.123 109.847 444.985C110.021 444.531 110.091 444.045 110.052 443.561C110.013 443.077 109.867 442.608 109.623 442.188C109.379 441.768 109.044 441.408 108.643 441.134C108.242 440.86 107.785 440.68 107.305 440.605C96.8073 438.954 91.1225 437.732 85.6744 433.865C83.5479 432.311 82.0056 430.088 81.295 427.553C80.5844 425.018 80.7467 422.318 81.756 419.886L81.8568 419.641C82.9225 416.969 84.915 414.769 87.4702 413.444C90.0254 412.119 92.9725 411.757 95.7729 412.424C103.226 414.03 110.797 415.03 118.411 415.415C120.094 415.524 121.775 415.17 123.27 414.39C124.765 413.61 126.016 412.434 126.888 410.992C130.149 405.601 133.682 399.816 136.846 393.934C138.497 390.911 138.968 387.383 138.168 384.033C137.369 380.683 135.355 377.748 132.516 375.795C124.226 370.166 114.343 367.351 104.329 367.767C102.73 367.795 101.141 367.502 99.6574 366.907C98.1733 366.312 96.8235 365.426 95.6872 364.302C94.5509 363.178 93.6513 361.838 93.0412 360.361C92.4312 358.884 92.1231 357.3 92.135 355.702V355.387C92.1929 352.157 93.4084 349.055 95.5605 346.644C97.7127 344.233 100.659 342.673 103.864 342.248C119.207 340.143 134.82 343.079 148.348 350.613C151.234 352.097 154.552 352.516 157.717 351.795C160.882 351.074 163.69 349.259 165.647 346.672C166.651 345.358 167.668 344.044 168.654 342.796C170.776 340.092 171.808 336.693 171.547 333.267C171.287 329.841 169.753 326.637 167.247 324.284C158.209 315.744 149.654 305.672 146.546 294.855C145.847 292.197 146.151 289.375 147.402 286.927C148.653 284.479 150.762 282.578 153.327 281.585C155.512 280.785 157.885 280.649 160.147 281.194C162.409 281.74 164.459 282.943 166.037 284.651C170.829 291.13 176.584 296.838 183.105 301.577C185.825 303.3 189.012 304.14 192.229 303.984C195.446 303.827 198.536 302.68 201.076 300.701C218.822 285.745 258.883 255.773 270.047 196.524C279.449 146.63 273.067 72.1011 271.112 25.3379C271.022 23.2752 271.351 21.2157 272.079 19.2834C272.807 17.3511 273.919 15.586 275.348 14.0945C276.777 12.603 278.493 11.416 280.393 10.6049C282.293 9.79377 284.338 9.37541 286.405 9.375H314.758C316.825 9.37541 318.87 9.79377 320.77 10.6049C322.67 11.416 324.387 12.603 325.815 14.0945C327.244 15.586 328.356 17.3511 329.084 19.2834C329.812 21.2157 330.141 23.2752 330.051 25.3379C328.096 72.1011 321.723 146.647 331.116 196.524C342.28 255.773 382.354 285.745 400.088 300.662C402.627 302.641 405.717 303.787 408.934 303.944C412.151 304.101 415.338 303.26 418.058 301.538C424.577 296.811 430.334 291.116 435.13 284.651C436.709 282.943 438.759 281.74 441.021 281.194C443.283 280.649 445.656 280.785 447.841 281.585C450.405 282.579 452.513 284.482 453.762 286.931C455.011 289.379 455.314 292.202 454.613 294.859C451.514 305.654 442.958 315.727 433.925 324.271C431.419 326.624 429.885 329.828 429.624 333.254C429.364 336.68 430.396 340.079 432.518 342.783C433.504 344.04 434.521 345.345 435.525 346.658C437.482 349.246 440.29 351.06 443.455 351.781C446.62 352.503 449.938 352.084 452.824 350.6C466.352 343.066 481.965 340.13 497.308 342.235C500.513 342.66 503.459 344.22 505.611 346.631C507.764 349.041 508.979 352.144 509.037 355.374V355.689C509.049 357.287 508.741 358.871 508.131 360.348C507.521 361.824 506.621 363.165 505.485 364.289C504.348 365.413 502.999 366.299 501.514 366.894C500.03 367.489 498.442 367.782 496.843 367.754C486.829 367.338 476.946 370.152 468.656 375.781C465.817 377.735 463.803 380.67 463.003 384.02C462.204 387.37 462.675 390.897 464.325 393.921C467.49 399.802 471.023 405.588 474.284 410.979C475.156 412.421 476.407 413.597 477.902 414.377C479.397 415.157 481.078 415.511 482.761 415.402C490.375 415.017 497.946 414.016 505.399 412.411C508.199 411.744 511.146 412.106 513.702 413.431C516.257 414.756 518.249 416.956 519.315 419.628L519.416 419.873C520.425 422.305 520.588 425.005 519.877 427.54C519.166 430.075 517.624 432.298 515.497 433.852C510.049 437.719 504.365 438.941 493.867 440.592C493.387 440.667 492.931 440.848 492.53 441.123C492.129 441.397 491.795 441.757 491.551 442.176C491.308 442.596 491.161 443.065 491.122 443.548C491.083 444.032 491.152 444.518 491.325 444.972C494.113 452.11 497.303 461.315 497.61 462.13C498.749 465.328 498.589 468.844 497.164 471.925C495.739 475.007 493.163 477.408 489.988 478.614C487.024 479.581 483.816 479.499 480.905 478.382C477.994 477.266 475.555 475.183 473.999 472.483C470.786 467.92 461.06 451.987 454.832 441.726C453.84 440.091 452.287 438.872 450.462 438.296C448.637 437.72 446.665 437.826 444.913 438.595C438.926 440.999 433.114 443.819 427.521 447.034C424.753 448.839 421.391 449.497 418.147 448.866C414.902 448.236 412.031 446.368 410.142 443.658C408.678 441.607 407.855 439.169 407.777 436.651C407.699 434.134 408.37 431.649 409.704 429.512C414.506 423.114 420.528 417.73 427.425 413.672C428.492 412.982 429.407 412.08 430.112 411.023C430.816 409.965 431.297 408.774 431.523 407.524C431.749 406.274 431.715 404.99 431.425 403.753C431.135 402.516 430.594 401.352 429.835 400.332C424.943 393.596 419.703 387.118 414.135 380.927C412.347 379.013 409.878 377.877 407.26 377.766C404.642 377.654 402.084 378.576 400.14 380.332C394.71 385.421 388.204 389.227 381.105 391.468C378.455 392.362 375.576 392.3 372.967 391.293C370.358 390.287 368.184 388.4 366.823 385.959C365.461 383.519 364.998 380.679 365.513 377.933C366.028 375.186 367.489 372.707 369.643 370.925C376.147 364.232 381.481 356.495 385.422 348.038C386.776 344.972 386.969 335.338 381.622 331.033C366.812 319.138 325.979 278.204 307.917 244.299Z" fill="#8B95A1"/>
<path d="M440.711 515.72C438.989 513.08 436.764 510.806 434.163 509.029C431.561 507.251 428.634 506.004 425.549 505.36L394.226 498.814C387.995 497.512 381.503 498.738 376.176 502.223C370.85 505.708 367.126 511.166 365.824 517.397C364.522 523.627 365.748 530.12 369.233 535.446C372.718 540.773 378.177 544.497 384.407 545.799L415.731 552.345C417.711 552.779 419.744 552.929 421.767 552.789C426.047 552.62 430.198 551.283 433.772 548.923C436.411 547.201 438.685 544.976 440.462 542.374C442.24 539.772 443.487 536.845 444.131 533.761C444.776 530.677 444.805 527.496 444.218 524.4C443.631 521.304 442.439 518.354 440.711 515.72Z" fill="#F81522"/>
<path d="M444.132 533.761C445.036 529.436 449.275 526.662 453.6 527.566L461.235 529.162C465.56 530.065 468.333 534.304 467.429 538.629C466.525 542.954 462.287 545.727 457.962 544.823L450.327 543.228C446.002 542.324 443.229 538.085 444.132 533.761Z" fill="#F81522"/>
<path d="M343.778 512.789C344.682 508.464 348.92 505.691 353.245 506.594L360.88 508.19C365.205 509.094 367.978 513.332 367.075 517.657C366.171 521.982 361.932 524.755 357.607 523.852L349.972 522.256C345.647 521.352 342.874 517.114 343.778 512.789Z" fill="#F81522"/>
<path d="M440.643 515.693C438.224 511.996 439.26 507.038 442.958 504.619L449.485 500.348C453.182 497.929 458.14 498.965 460.559 502.663C462.978 506.36 461.942 511.318 458.245 513.737L451.718 518.008C448.021 520.427 443.062 519.391 440.643 515.693Z" fill="#F81522"/>
<path d="M420.95 488.257C421.854 483.932 426.093 481.158 430.418 482.062C434.743 482.966 437.516 487.205 436.612 491.53L435.017 499.165C434.113 503.489 429.874 506.263 425.549 505.359C421.224 504.455 418.451 500.217 419.355 495.892L420.95 488.257Z" fill="#F81522"/>
<path d="M406.263 558.539C407.167 554.214 411.406 551.441 415.73 552.344C420.055 553.248 422.829 557.487 421.925 561.812L420.329 569.447C419.426 573.772 415.187 576.545 410.862 575.641C406.537 574.737 403.764 570.499 404.668 566.174L406.263 558.539Z" fill="#F81522"/>
<path d="M431.385 559.981C428.966 556.283 430.002 551.325 433.7 548.906C437.397 546.487 442.355 547.523 444.774 551.22L449.045 557.747C451.464 561.445 450.427 566.403 446.73 568.822C443.033 571.241 438.075 570.205 435.656 566.508L431.385 559.981Z" fill="#F81522"/>
<path d="M360.77 493.365C358.351 489.668 359.388 484.71 363.085 482.291C366.782 479.872 371.74 480.908 374.159 484.605L378.43 491.132C380.849 494.829 379.813 499.788 376.116 502.207C372.418 504.626 367.46 503.59 365.041 499.892L360.77 493.365Z" fill="#F81522"/>
<path d="M389.627 481.711C390.531 477.386 394.77 474.613 399.095 475.516C403.419 476.42 406.193 480.659 405.289 484.984L403.693 492.619C402.79 496.944 398.551 499.717 394.226 498.813C389.901 497.909 387.128 493.671 388.032 489.346L389.627 481.711Z" fill="#F81522"/>
<path d="M374.94 551.993C375.844 547.668 380.082 544.895 384.407 545.799C388.732 546.702 391.505 550.941 390.602 555.266L389.006 562.901C388.102 567.226 383.864 569.999 379.539 569.095C375.214 568.192 372.441 563.953 373.344 559.628L374.94 551.993Z" fill="#F81522"/>
<path d="M349.258 548.44C346.839 544.743 347.875 539.785 351.572 537.366L358.099 533.095C361.796 530.676 366.755 531.713 369.174 535.41C371.593 539.107 370.556 544.065 366.859 546.484L360.332 550.755C356.635 553.174 351.677 552.138 349.258 548.44Z" fill="#F81522"/>
<path d="M414.094 560.175L382.771 553.629C374.463 551.893 367.186 546.928 362.539 539.826C357.892 532.724 356.257 524.067 357.993 515.76C359.729 507.452 364.694 500.175 371.796 495.528C378.898 490.881 387.555 489.246 395.862 490.982L427.186 497.528C435.493 499.264 442.771 504.229 447.417 511.331C452.064 518.433 453.699 527.09 451.963 535.397C450.227 543.705 445.262 550.982 438.16 555.629C431.058 560.276 422.402 561.911 414.094 560.175ZM392.589 506.644C388.436 505.776 384.107 506.594 380.556 508.917C377.005 511.24 374.523 514.879 373.655 519.033C372.787 523.187 373.604 527.515 375.928 531.066C378.251 534.617 381.89 537.099 386.044 537.967L417.367 544.513C421.521 545.381 425.849 544.564 429.4 542.24C432.951 539.917 435.434 536.278 436.302 532.124C437.17 527.971 436.352 523.642 434.029 520.091C431.705 516.54 428.067 514.058 423.913 513.19L392.589 506.644Z" fill="#FF5761"/>
<path d="M142.479 536.548C142.898 533.425 142.696 530.25 141.884 527.205C141.073 524.16 139.669 521.305 137.752 518.804L118.288 493.404C114.417 488.351 108.697 485.044 102.387 484.209C96.0764 483.374 89.6929 485.08 84.6405 488.951C79.5881 492.823 76.2806 498.543 75.4456 504.853C74.6105 511.163 76.3164 517.547 80.188 522.599L99.6515 547.999C100.869 549.621 102.311 551.061 103.936 552.275C107.289 554.94 111.307 556.636 115.555 557.179C118.678 557.597 121.853 557.394 124.898 556.583C127.943 555.772 130.797 554.367 133.299 552.451C135.8 550.534 137.898 548.143 139.473 545.414C141.049 542.685 142.07 539.672 142.479 536.548Z" fill="#F81522"/>
<path d="M133.299 552.452C136.806 549.764 141.828 550.429 144.515 553.936L149.26 560.127C151.947 563.634 151.282 568.656 147.775 571.343C144.268 574.031 139.247 573.366 136.559 569.859L131.815 563.668C129.128 560.161 129.792 555.139 133.299 552.452Z" fill="#F81522"/>
<path d="M70.9417 471.074C74.4487 468.387 79.4703 469.051 82.1576 472.558L86.9018 478.749C89.5892 482.256 88.9247 487.278 85.4177 489.965C81.9106 492.653 76.8891 491.988 74.2017 488.481L69.4575 482.29C66.7702 478.783 67.4346 473.761 70.9417 471.074Z" fill="#F81522"/>
<path d="M142.446 536.484C143.025 532.104 147.046 529.023 151.426 529.602L159.159 530.625C163.539 531.205 166.62 535.226 166.04 539.606C165.46 543.986 161.44 547.067 157.06 546.487L149.327 545.464C144.947 544.884 141.866 540.864 142.446 536.484Z" fill="#F81522"/>
<path d="M145.428 502.843C148.935 500.156 153.956 500.821 156.643 504.328C159.331 507.835 158.666 512.856 155.159 515.544L148.968 520.288C145.461 522.975 140.439 522.311 137.752 518.804C135.065 515.297 135.729 510.275 139.236 507.588L145.428 502.843Z" fill="#F81522"/>
<path d="M88.4356 546.515C91.9426 543.828 96.9642 544.492 99.6515 547.999C102.339 551.507 101.674 556.528 98.1673 559.215L91.976 563.96C88.469 566.647 83.4475 565.982 80.7601 562.475C78.0728 558.968 78.7372 553.947 82.2443 551.26L88.4356 546.515Z" fill="#F81522"/>
<path d="M106.531 564.001C107.11 559.621 111.131 556.54 115.511 557.12C119.891 557.699 122.972 561.72 122.392 566.1L121.369 573.833C120.789 578.213 116.769 581.294 112.389 580.714C108.009 580.134 104.928 576.114 105.507 571.734L106.531 564.001Z" fill="#F81522"/>
<path d="M96.4932 467.444C97.0729 463.063 101.093 459.983 105.474 460.562C109.854 461.142 112.935 465.162 112.355 469.543L111.332 477.275C110.752 481.655 106.731 484.736 102.351 484.156C97.9713 483.577 94.8904 479.556 95.47 475.176L96.4932 467.444Z" fill="#F81522"/>
<path d="M125.964 477.443C129.471 474.756 134.492 475.42 137.18 478.927C139.867 482.434 139.203 487.456 135.696 490.143L129.504 494.887C125.997 497.575 120.976 496.91 118.288 493.403C115.601 489.896 116.266 484.875 119.773 482.187L125.964 477.443Z" fill="#F81522"/>
<path d="M68.9722 521.115C72.4792 518.428 77.5008 519.092 80.1881 522.599C82.8755 526.106 82.211 531.128 78.704 533.815L72.5127 538.559C69.0056 541.247 63.9841 540.582 61.2967 537.075C58.6094 533.568 59.2739 528.546 62.7809 525.859L68.9722 521.115Z" fill="#F81522"/>
<path d="M51.8299 501.664C52.4095 497.284 56.4302 494.203 60.8103 494.783L68.5428 495.806C72.9229 496.386 76.0038 500.406 75.4242 504.786C74.8446 509.167 70.824 512.247 66.4439 511.668L58.7113 510.645C54.3312 510.065 51.2503 506.044 51.8299 501.664Z" fill="#F81522"/>
<path d="M93.3016 552.865L73.8381 527.465C68.676 520.728 66.4015 512.217 67.5149 503.804C68.6282 495.39 73.0383 487.763 79.7748 482.601C86.5114 477.439 95.0226 475.165 103.436 476.278C111.85 477.391 119.477 481.801 124.639 488.538L144.102 513.938C149.264 520.675 151.539 529.186 150.425 537.6C149.312 546.013 144.902 553.64 138.165 558.802C131.429 563.964 122.918 566.238 114.504 565.125C106.09 564.012 98.4636 559.602 93.3016 552.865ZM111.938 498.27C109.357 494.901 105.544 492.696 101.337 492.14C97.1305 491.583 92.8748 492.72 89.5066 495.301C86.1383 497.882 83.9333 501.696 83.3766 505.902C82.8199 510.109 83.9572 514.365 86.5382 517.733L106.002 543.133C108.583 546.502 112.396 548.707 116.603 549.263C120.81 549.82 125.065 548.683 128.434 546.102C131.802 543.521 134.007 539.707 134.564 535.501C135.12 531.294 133.983 527.038 131.402 523.67L111.938 498.27Z" fill="#FF5761"/>
<path d="M118.005 259.721C121.141 260.027 124.307 259.71 127.32 258.789C130.334 257.869 133.136 256.363 135.567 254.357L160.248 233.99C165.158 229.939 168.257 224.103 168.864 217.767C169.471 211.431 167.536 205.113 163.485 200.203C159.433 195.294 153.598 192.195 147.262 191.588C140.925 190.981 134.608 192.916 129.698 196.967L105.016 217.334C103.439 218.609 102.052 220.103 100.898 221.77C98.3558 225.217 96.8058 229.294 96.4157 233.558C96.1109 236.695 96.4279 239.86 97.3486 242.874C98.2693 245.887 99.7755 248.689 101.781 251.12C103.787 253.55 106.252 255.561 109.036 257.037C111.82 258.513 114.867 259.425 118.005 259.721Z" fill="#F81522"/>
<path d="M101.78 251.121C104.592 254.528 104.109 259.571 100.701 262.383L94.6852 267.347C91.2773 270.159 86.2351 269.676 83.423 266.268C80.611 262.861 81.0939 257.818 84.5018 255.006L90.518 250.042C93.9258 247.23 98.968 247.713 101.78 251.121Z" fill="#F81522"/>
<path d="M180.856 185.869C183.668 189.276 183.185 194.319 179.778 197.131L173.761 202.095C170.354 204.907 165.311 204.424 162.499 201.016C159.687 197.609 160.17 192.566 163.578 189.754L169.594 184.79C173.002 181.978 178.044 182.461 180.856 185.869Z" fill="#F81522"/>
<path d="M118.067 259.685C122.465 260.107 125.689 264.014 125.268 268.412L124.524 276.176C124.103 280.574 120.196 283.798 115.798 283.377C111.4 282.956 108.176 279.049 108.597 274.651L109.341 266.886C109.762 262.488 113.669 259.264 118.067 259.685Z" fill="#F81522"/>
<path d="M151.793 261.452C154.605 264.859 154.122 269.902 150.714 272.714C147.306 275.526 142.264 275.043 139.452 271.635L134.488 265.619C131.676 262.211 132.159 257.169 135.566 254.357C138.974 251.545 144.017 252.028 146.829 255.435L151.793 261.452Z" fill="#F81522"/>
<path d="M106.095 206.072C108.907 209.48 108.424 214.522 105.016 217.334C101.608 220.146 96.5662 219.663 93.7541 216.255L88.7897 210.239C85.9777 206.831 86.4606 201.789 89.8685 198.977C93.2763 196.165 98.3186 196.648 101.131 200.056L106.095 206.072Z" fill="#F81522"/>
<path d="M89.2728 224.786C93.6709 225.207 96.8948 229.114 96.4735 233.512C96.0523 237.911 92.1453 241.134 87.7472 240.713L79.9827 239.969C75.5846 239.548 72.3607 235.641 72.782 231.243C73.2033 226.845 77.1102 223.621 81.5083 224.042L89.2728 224.786Z" fill="#F81522"/>
<path d="M185.406 211.272C189.804 211.694 193.028 215.601 192.606 219.999C192.185 224.397 188.278 227.621 183.88 227.199L176.116 226.456C171.717 226.034 168.494 222.128 168.915 217.729C169.336 213.331 173.243 210.107 177.641 210.529L185.406 211.272Z" fill="#F81522"/>
<path d="M176.475 241.085C179.287 244.493 178.804 249.535 175.396 252.348C171.988 255.16 166.946 254.677 164.134 251.269L159.17 245.253C156.358 241.845 156.841 236.803 160.248 233.99C163.656 231.178 168.698 231.661 171.511 235.069L176.475 241.085Z" fill="#F81522"/>
<path d="M130.777 185.706C133.589 189.113 133.106 194.156 129.698 196.968C126.29 199.78 121.248 199.297 118.436 195.889L113.472 189.873C110.66 186.465 111.143 181.423 114.55 178.611C117.958 175.799 123 176.281 125.813 179.689L130.777 185.706Z" fill="#F81522"/>
<path d="M149.597 167.873C153.995 168.294 157.219 172.201 156.798 176.599L156.054 184.364C155.633 188.762 151.726 191.986 147.327 191.565C142.929 191.143 139.705 187.236 140.127 182.838L140.87 175.074C141.292 170.676 145.199 167.452 149.597 167.873Z" fill="#F81522"/>
<path d="M99.9247 211.164L124.606 190.797C131.153 185.396 139.576 182.816 148.024 183.625C156.473 184.434 164.254 188.566 169.655 195.112C175.057 201.658 177.637 210.082 176.828 218.53C176.018 226.978 171.886 234.759 165.34 240.161L140.658 260.528C134.112 265.929 125.689 268.509 117.24 267.7C108.792 266.891 101.011 262.759 95.6097 256.213C90.2081 249.667 87.6281 241.243 88.4373 232.795C89.2465 224.346 93.3786 216.566 99.9247 211.164ZM155.157 227.82C158.43 225.119 160.496 221.229 160.9 217.005C161.305 212.78 160.015 208.569 157.314 205.296C154.613 202.023 150.723 199.956 146.499 199.552C142.275 199.147 138.063 200.437 134.79 203.138L110.108 223.505C106.835 226.206 104.769 230.096 104.364 234.32C103.96 238.544 105.25 242.756 107.951 246.029C110.651 249.302 114.542 251.368 118.766 251.773C122.99 252.178 127.202 250.887 130.475 248.187L155.157 227.82Z" fill="#FF5761"/>
<path d="M520.249 312.57C522.845 310.783 525.062 308.501 526.773 305.855C528.485 303.209 529.658 300.252 530.224 297.152L535.977 265.673C537.121 259.412 535.732 252.952 532.113 247.716C528.495 242.479 522.945 238.894 516.683 237.75C510.422 236.605 503.962 237.995 498.725 241.613C493.488 245.232 489.904 250.782 488.759 257.044L483.006 288.522C482.621 290.513 482.523 292.549 482.714 294.568C482.991 298.842 484.433 302.958 486.882 306.471C488.67 309.066 490.952 311.283 493.597 312.994C496.243 314.706 499.201 315.878 502.3 316.445C505.4 317.011 508.581 316.961 511.661 316.296C514.741 315.631 517.659 314.365 520.249 312.57Z" fill="#F81522"/>
<path d="M502.3 316.445C506.646 317.24 509.526 321.407 508.731 325.753L507.329 333.426C506.535 337.773 502.367 340.652 498.021 339.858C493.675 339.063 490.795 334.896 491.59 330.55L492.992 322.877C493.786 318.531 497.954 315.651 502.3 316.445Z" fill="#F81522"/>
<path d="M520.732 215.594C525.078 216.388 527.958 220.556 527.164 224.902L525.761 232.575C524.967 236.921 520.799 239.8 516.453 239.006C512.107 238.212 509.228 234.044 510.022 229.698L511.424 222.025C512.219 217.679 516.386 214.8 520.732 215.594Z" fill="#F81522"/>
<path d="M520.274 312.502C523.909 309.99 528.892 310.901 531.403 314.536L535.837 320.953C538.349 324.588 537.438 329.571 533.803 332.082C530.168 334.594 525.185 333.683 522.674 330.048L518.24 323.631C515.728 319.996 516.639 315.013 520.274 312.502Z" fill="#F81522"/>
<path d="M547.205 292.122C551.551 292.917 554.43 297.084 553.636 301.43C552.842 305.776 548.674 308.656 544.328 307.862L536.655 306.459C532.309 305.665 529.429 301.498 530.224 297.151C531.018 292.805 535.185 289.926 539.532 290.72L547.205 292.122Z" fill="#F81522"/>
<path d="M476.575 279.214C480.921 280.008 483.8 284.176 483.006 288.522C482.212 292.868 478.044 295.748 473.698 294.953L466.025 293.551C461.679 292.757 458.8 288.589 459.594 284.243C460.388 279.897 464.556 277.017 468.902 277.812L476.575 279.214Z" fill="#F81522"/>
<path d="M475.767 304.364C479.402 301.852 484.385 302.763 486.896 306.398C489.408 310.033 488.497 315.016 484.862 317.527L478.445 321.961C474.81 324.473 469.827 323.562 467.316 319.927C464.804 316.292 465.715 311.31 469.35 308.798L475.767 304.364Z" fill="#F81522"/>
<path d="M540.579 232.091C544.214 229.579 549.197 230.49 551.709 234.125C554.22 237.76 553.31 242.742 549.675 245.254L543.258 249.688C539.623 252.2 534.64 251.289 532.128 247.654C529.617 244.019 530.527 239.036 534.162 236.525L540.579 232.091Z" fill="#F81522"/>
<path d="M552.958 260.644C557.304 261.438 560.184 265.605 559.389 269.952C558.595 274.298 554.428 277.177 550.081 276.383L542.408 274.981C538.062 274.186 535.183 270.019 535.977 265.673C536.772 261.326 540.939 258.447 545.285 259.241L552.958 260.644Z" fill="#F81522"/>
<path d="M482.328 247.736C486.674 248.53 489.554 252.697 488.759 257.043C487.965 261.39 483.798 264.269 479.451 263.475L471.778 262.072C467.432 261.278 464.553 257.111 465.347 252.765C466.141 248.418 470.309 245.539 474.655 246.333L482.328 247.736Z" fill="#F81522"/>
<path d="M485.231 221.971C488.866 219.46 493.849 220.371 496.36 224.006L500.794 230.423C503.306 234.058 502.395 239.04 498.76 241.552C495.125 244.064 490.142 243.153 487.631 239.518L483.197 233.101C480.685 229.466 481.596 224.483 485.231 221.971Z" fill="#F81522"/>
<path d="M475.136 287.084L480.889 255.605C482.415 247.256 487.195 239.856 494.177 235.031C501.16 230.207 509.773 228.354 518.121 229.88C526.47 231.405 533.87 236.185 538.695 243.168C543.519 250.15 545.372 258.763 543.847 267.111L538.093 298.59C536.568 306.939 531.788 314.339 524.805 319.164C517.823 323.988 509.21 325.841 500.862 324.315C492.513 322.789 485.112 318.01 480.288 311.027C475.464 304.045 473.61 295.432 475.136 287.084ZM528.107 264.235C528.87 260.06 527.944 255.754 525.532 252.263C523.119 248.772 519.419 246.382 515.245 245.619C511.07 244.856 506.764 245.783 503.273 248.195C499.782 250.607 497.392 254.307 496.629 258.482L490.876 289.96C490.113 294.134 491.039 298.441 493.451 301.932C495.864 305.423 499.564 307.813 503.738 308.576C507.913 309.339 512.219 308.412 515.71 306C519.201 303.588 521.591 299.888 522.354 295.713L528.107 264.235Z" fill="#FF5761"/>
<circle cx="260" cy="503" r="18" fill="#FFBC57"/>
<circle cx="418" cy="216" r="18" fill="#FFBC57"/>
<circle cx="48" cy="358" r="18" fill="#FFBC57"/>
<circle cx="555" cy="540" r="18" fill="#FFBC57"/>
</g>
<defs>
<clipPath id="clip0_147_18870">
<rect width="600" height="600" fill="white"/>
</clipPath>
</defs>
</svg>
