<svg width="353" height="152" viewBox="0 0 353 152" fill="none" xmlns="http://www.w3.org/2000/svg">
<path d="M331.335 1.29952C331.729 0.689915 332.621 0.689916 333.015 1.29952L343 16.75H321.349L331.335 1.29952Z" fill="#333D4B"/>
<rect y="15.75" width="353" height="136" rx="14" fill="#333D4B"/>
<path d="M21.8457 49.3867C21.3125 49.3799 20.8682 48.9492 20.875 48.416C20.8682 47.8828 21.3125 47.4453 21.8457 47.4453C22.3721 47.4453 22.8096 47.8828 22.8164 48.416C22.8096 48.9492 22.3721 49.3799 21.8457 49.3867ZM36.8787 41.6758V50.5762H35.5799V41.6758H36.8787ZM26.9666 45.5312C26.9735 43.7607 28.3817 42.5029 30.2342 42.4961C32.0799 42.5029 33.4881 43.7607 33.4881 45.5312C33.4881 47.3291 32.0799 48.5801 30.2342 48.5801C28.3817 48.5801 26.9735 47.3291 26.9666 45.5312ZM28.2381 45.5312C28.2313 46.6865 29.0926 47.4453 30.2342 47.4453C31.3553 47.4453 32.2166 46.6865 32.2166 45.5312C32.2166 44.4033 31.3553 43.6309 30.2342 43.6309C29.0926 43.6309 28.2313 44.4033 28.2381 45.5312ZM28.867 53.6523V49.6738H30.1795V52.5996H37.2479V53.6523H28.867ZM48.5173 42.0312V43.0156H46.74V45.1348H48.4627V46.1328H39.4802V45.1348H41.2166V43.0156H39.4255V42.0312H48.5173ZM38.4002 48.0605V47.0352H49.5701V48.0605H38.4002ZM39.74 49.9883V49.0176H48.1619V51.8203H41.0252V52.8047H48.5037V53.7891H39.7537V50.9043H46.8767V49.9883H39.74ZM42.5017 45.1348H45.4412V43.0156H42.5017V45.1348ZM59.9509 42.1133V45.4492H52.7321V46.8574H60.2106V47.9102H51.4333V44.4512H58.6247V43.166H51.3923V42.1133H59.9509ZM50.0661 50.1113V49.0723H61.277V50.1113H56.3005V53.9395H55.0016V50.1113H50.0661ZM64.6715 42.6055C66.1344 42.6055 67.2486 43.5967 67.4537 45.1074H68.5953V41.8809H69.8121V50.4531H68.5953V46.1875H67.4469C67.2145 47.6436 66.107 48.6211 64.6715 48.6074C63.0377 48.6211 61.8619 47.377 61.8688 45.6133C61.8619 43.8223 63.0377 42.6055 64.6715 42.6055ZM63.0309 45.6133C63.024 46.748 63.7213 47.5 64.6715 47.5C65.6148 47.5 66.3121 46.748 66.3258 45.6133C66.3121 44.4854 65.6148 43.7061 64.6715 43.7129C63.7213 43.7061 63.024 44.4854 63.0309 45.6133ZM64.0836 53.6523V49.6328H65.3688V52.5996H72.5602V53.6523H64.0836ZM70.9742 50.8223V41.6621H72.2047V50.8223H70.9742ZM77.7046 45.2715C77.6978 47.2061 78.9761 49.3662 80.8355 50.248L80.0972 51.2598C78.7232 50.6035 77.6294 49.2227 77.0757 47.623C76.5152 49.3662 75.3667 50.877 73.9722 51.5742L73.2066 50.5488C75.0659 49.6533 76.4126 47.3428 76.4195 45.2715V43.9727H73.6577V42.8926H80.3706V43.9727H77.7046V45.2715ZM81.6831 53.9121V41.6621H82.982V46.5156H84.9507V47.6094H82.982V53.9121H81.6831ZM97.9056 42.2363V43.1523C97.9125 44.0547 97.9125 45.1348 97.6254 46.5566H99.3275V47.6094H94.3509V49.7012H97.9603V53.9121H96.6615V50.7402H89.265V49.7012H93.0521V47.6094H88.1166V46.5566H96.3197C96.6068 45.1826 96.6205 44.1641 96.6205 43.2891H89.5248V42.2363H97.9056ZM109.339 41.6621V46.543H111.24V47.623H109.339V53.8984H108.04V41.6621H109.339ZM99.8098 50.6309C102.879 49.0996 104.547 46.8848 104.814 44.0273H100.425V42.9473H106.14C106.126 46.4883 104.568 49.6533 100.534 51.6426L99.8098 50.6309ZM125.015 41.6621V53.9121H123.771V41.6621H125.015ZM114.61 46.9531C114.61 44.3008 115.65 42.6396 117.249 42.6465C118.295 42.6396 119.102 43.3369 119.539 44.5469H121.323V41.8945H122.554V53.3105H121.323V49.3594H119.546C119.102 50.5762 118.295 51.2803 117.249 51.2734C115.65 51.2803 114.61 49.6123 114.61 46.9531ZM115.8 46.9531C115.793 48.9014 116.34 50.0498 117.249 50.043C118.151 50.0498 118.726 48.9014 118.726 46.9531C118.726 44.998 118.151 43.8564 117.249 43.8633C116.34 43.8564 115.793 44.998 115.8 46.9531ZM119.813 45.5996C119.881 46.0166 119.915 46.4678 119.915 46.9531C119.915 47.4316 119.881 47.8828 119.813 48.293H121.323V45.5996H119.813ZM131.827 49.291C134.35 49.291 135.888 50.1387 135.888 51.5879C135.888 53.0576 134.35 53.9053 131.827 53.9121C129.277 53.9053 127.712 53.0576 127.712 51.5879C127.712 50.1387 129.277 49.291 131.827 49.291ZM126.632 48.1152V42.4277H127.903V44.1914H131.116V42.4277H132.401V48.1152H126.632ZM127.903 47.0762H131.116V45.2168H127.903V47.0762ZM129.011 51.5879C129.004 52.4082 130.057 52.873 131.827 52.873C133.584 52.873 134.623 52.4082 134.616 51.5879C134.623 50.7744 133.584 50.3164 131.827 50.3164C130.057 50.3164 129.004 50.7744 129.011 51.5879ZM134.48 48.9766V41.6621H135.778V44.6562H137.556V45.7637H135.778V48.9766H134.48ZM148.032 41.6621V48.334H146.747V45.627H144.45V44.5605H146.747V41.6621H148.032ZM137.847 47.5137C139.727 46.8574 140.902 45.251 140.895 43.5625V43.3984H138.243V42.3457H144.847V43.3984H142.222V43.5762C142.215 45.0938 143.322 46.6318 145.175 47.2539L144.505 48.2656C143.124 47.7734 142.112 46.8027 141.579 45.5996C141.046 46.9463 139.973 48.0264 138.517 48.5391L137.847 47.5137ZM140.061 53.7617V48.8809H141.347V50.2891H146.747V48.8809H148.032V53.7617H140.061ZM141.347 52.709H146.747V51.3008H141.347V52.709ZM155.733 46.0234V47.6777H160.682V48.7441H149.513V47.6777H154.448V46.0234H155.733ZM150.087 45.6406C152.302 45.415 154.038 44.4443 154.216 43.2617H150.538V42.2227H159.684V43.2617H155.966C156.15 44.4375 157.887 45.415 160.108 45.6406L159.643 46.666C157.517 46.4199 155.761 45.5449 155.091 44.2529C154.421 45.5449 152.678 46.4199 150.552 46.666L150.087 45.6406ZM150.839 51.7656C150.839 50.3916 152.425 49.6328 155.091 49.6328C157.736 49.6328 159.308 50.3916 159.315 51.7656C159.308 53.1328 157.736 53.8916 155.091 53.8848C152.425 53.8916 150.839 53.1328 150.839 51.7656ZM152.151 51.7656C152.144 52.4971 153.197 52.9004 155.091 52.9004C156.957 52.9004 158.016 52.4971 158.016 51.7656C158.016 51.0342 156.957 50.6377 155.091 50.6309C153.197 50.6377 152.144 51.0342 152.151 51.7656ZM168.702 45.2715C168.695 47.3223 170.042 49.4414 171.928 50.248L171.217 51.2598C169.775 50.624 168.627 49.2705 168.059 47.6367C167.492 49.3867 166.343 50.877 164.915 51.5742L164.163 50.5488C166.009 49.6807 167.376 47.3838 167.389 45.2715V43.9727H164.587V42.8926H171.491V43.9727H168.702V45.2715ZM173.036 53.9121V41.6621H174.335V53.9121H173.036ZM186.055 41.6758V50.959H184.756V49.7832H182.296V48.8672H184.756V41.6758H186.055ZM175.815 47.2676C178.078 47.2471 181.133 47.2266 183.745 46.8984L183.827 47.8281C182.781 48.0059 181.68 48.1152 180.6 48.1904V50.5762H179.301V48.2588C178.112 48.3066 176.97 48.3066 175.979 48.3066L175.815 47.2676ZM176.772 44.3008C176.765 43.002 178.003 42.1406 179.821 42.1406C181.612 42.1406 182.856 43.002 182.856 44.3008C182.856 45.6064 181.612 46.4336 179.821 46.4336C178.009 46.4336 176.765 45.6064 176.772 44.3008ZM177.51 53.6523V50.0566H178.796V52.5996H186.356V53.6523H177.51ZM178.003 44.3008C177.996 45.0254 178.734 45.4766 179.821 45.4766C180.867 45.4766 181.619 45.0254 181.626 44.3008C181.619 43.5693 180.867 43.0977 179.821 43.1113C178.734 43.0977 177.996 43.5693 178.003 44.3008ZM194.799 44.7793C194.786 46.9463 196.05 49.168 197.875 50.0566L197.069 51.0957C195.736 50.3984 194.704 49.0312 194.164 47.3975C193.617 49.1338 192.543 50.6035 191.149 51.3281L190.342 50.2754C192.222 49.373 193.494 47.0215 193.5 44.7793V42.6875H194.799V44.7793ZM198.791 53.9121V41.6621H200.09V46.543H202.059V47.6504H200.09V53.9121H198.791ZM205.618 42.2227C207.231 42.209 208.482 43.1455 208.748 44.5195H211.141V41.6621H212.44V48.2383H211.141V45.5859H208.755C208.502 46.9941 207.245 47.9375 205.618 47.9375C203.745 47.9375 202.398 46.7549 202.405 45.0664C202.398 43.3984 203.745 42.209 205.618 42.2227ZM203.649 45.0664C203.642 46.1123 204.462 46.8438 205.618 46.8438C206.752 46.8438 207.559 46.1123 207.559 45.0664C207.559 44.0137 206.752 43.2959 205.618 43.3027C204.462 43.2959 203.642 44.0137 203.649 45.0664ZM204.455 53.7617V48.8262H205.741V50.248H211.141V48.8262H212.44V53.7617H204.455ZM205.741 52.6953H211.141V51.2734H205.741V52.6953ZM224.448 41.6621V53.9121H223.203V41.6621H224.448ZM214.043 46.9531C214.043 44.3008 215.082 42.6396 216.682 42.6465C218.172 42.6396 219.177 44.0547 219.327 46.3516H220.715V41.8945H221.959V53.3105H220.715V47.4043H219.334C219.218 49.7969 218.2 51.2803 216.682 51.2734C215.082 51.2803 214.043 49.6123 214.043 46.9531ZM215.246 46.9531C215.246 48.9014 215.8 50.0498 216.682 50.043C217.584 50.0498 218.145 48.9014 218.145 46.9531C218.145 44.998 217.584 43.8564 216.682 43.8633C215.8 43.8564 215.246 44.998 215.246 46.9531ZM232.877 44.1914C232.877 45.6064 233.985 46.9189 235.858 47.459L235.256 48.4707C233.841 48.0605 232.795 47.1924 232.248 46.0781C231.708 47.3018 230.642 48.252 229.186 48.7031L228.557 47.6914C230.43 47.1377 231.592 45.7432 231.592 44.1914V44.0684H228.926V43.0293H231.592V41.6074H232.891V43.0293H235.543V44.0684H232.877V44.1914ZM230.389 53.7617V49.4414H238.209V53.7617H230.389ZM231.66 52.709H236.924V50.4668H231.66V52.709ZM236.91 48.8945V41.6621H238.209V44.6973H239.986V45.7773H238.209V48.8945H236.91ZM243.586 42.5781C244.707 42.585 245.623 43.2207 246.163 44.3281H249.191V41.6621H250.477V53.9395H249.191V49.2363H246.252C245.726 50.4668 244.769 51.1846 243.586 51.1777C241.761 51.1846 240.469 49.5166 240.482 46.8711C240.469 44.2529 241.761 42.585 243.586 42.5781ZM241.713 46.8711C241.72 48.8193 242.479 50.0156 243.586 50.0156C244.693 50.0156 245.452 48.8193 245.459 46.8711C245.452 44.9502 244.693 43.7471 243.586 43.7402C242.479 43.7471 241.72 44.9502 241.713 46.8711ZM246.532 45.3945C246.628 45.8457 246.69 46.3379 246.69 46.8711C246.69 47.3359 246.649 47.7666 246.566 48.1699H249.191V45.3945H246.532ZM261.486 41.6621V46.625H263.455V47.7051H261.486V53.9121H260.201V41.6621H261.486ZM251.875 44.6426V43.5762H254.896V41.8262H256.195V43.5762H259.135V44.6426H251.875ZM252.504 48.3887C252.504 46.7207 253.789 45.5449 255.553 45.5449C257.31 45.5449 258.595 46.7207 258.602 48.3887C258.595 50.0703 257.31 51.2393 255.553 51.2461C253.789 51.2393 252.504 50.0703 252.504 48.3887ZM253.748 48.3887C253.741 49.4551 254.507 50.166 255.553 50.1523C256.592 50.166 257.351 49.4551 257.357 48.3887C257.351 47.3428 256.592 46.6182 255.553 46.6113C254.507 46.6182 253.741 47.3428 253.748 48.3887ZM266.945 42.5781C268.066 42.585 268.982 43.2207 269.522 44.3281H272.551V41.6621H273.836V53.9395H272.551V49.2363H269.611C269.085 50.4668 268.128 51.1846 266.945 51.1777C265.12 51.1846 263.828 49.5166 263.842 46.8711C263.828 44.2529 265.12 42.585 266.945 42.5781ZM265.072 46.8711C265.079 48.8193 265.838 50.0156 266.945 50.0156C268.053 50.0156 268.811 48.8193 268.818 46.8711C268.811 44.9502 268.053 43.7471 266.945 43.7402C265.838 43.7471 265.079 44.9502 265.072 46.8711ZM269.892 45.3945C269.987 45.8457 270.049 46.3379 270.049 46.8711C270.049 47.3359 270.008 47.7666 269.926 48.1699H272.551V45.3945H269.892ZM288.842 41.6621V53.9121H287.597V41.6621H288.842ZM278.437 46.9531C278.437 44.3008 279.476 42.6396 281.076 42.6465C282.122 42.6396 282.928 43.3369 283.366 44.5469H285.15V41.8945H286.381V53.3105H285.15V49.3594H283.373C282.928 50.5762 282.122 51.2803 281.076 51.2734C279.476 51.2803 278.437 49.6123 278.437 46.9531ZM279.627 46.9531C279.62 48.9014 280.167 50.0498 281.076 50.043C281.978 50.0498 282.552 48.9014 282.552 46.9531C282.552 44.998 281.978 43.8564 281.076 43.8633C280.167 43.8564 279.62 44.998 279.627 46.9531ZM283.639 45.5996C283.708 46.0166 283.742 46.4678 283.742 46.9531C283.742 47.4316 283.708 47.8828 283.639 48.293H285.15V45.5996H283.639ZM295.654 49.291C298.176 49.291 299.715 50.1387 299.715 51.5879C299.715 53.0576 298.176 53.9053 295.654 53.9121C293.104 53.9053 291.539 53.0576 291.539 51.5879C291.539 50.1387 293.104 49.291 295.654 49.291ZM290.459 48.1152V42.4277H291.73V44.1914H294.943V42.4277H296.228V48.1152H290.459ZM291.73 47.0762H294.943V45.2168H291.73V47.0762ZM292.838 51.5879C292.831 52.4082 293.883 52.873 295.654 52.873C297.411 52.873 298.45 52.4082 298.443 51.5879C298.45 50.7744 297.411 50.3164 295.654 50.3164C293.883 50.3164 292.831 50.7744 292.838 51.5879ZM298.306 48.9766V41.6621H299.605V44.6562H301.383V45.7637H299.605V48.9766H298.306ZM311.859 41.6621V48.334H310.574V45.627H308.277V44.5605H310.574V41.6621H311.859ZM301.673 47.5137C303.553 46.8574 304.729 45.251 304.722 43.5625V43.3984H302.07V42.3457H308.673V43.3984H306.048V43.5762C306.042 45.0938 307.149 46.6318 309.002 47.2539L308.332 48.2656C306.951 47.7734 305.939 46.8027 305.406 45.5996C304.873 46.9463 303.799 48.0264 302.343 48.5391L301.673 47.5137ZM303.888 53.7617V48.8809H305.173V50.2891H310.574V48.8809H311.859V53.7617H303.888ZM305.173 52.709H310.574V51.3008H305.173V52.709ZM319.56 46.0234V47.6777H324.509V48.7441H313.339V47.6777H318.275V46.0234H319.56ZM313.914 45.6406C316.128 45.415 317.865 44.4443 318.043 43.2617H314.365V42.2227H323.511V43.2617H319.793C319.977 44.4375 321.713 45.415 323.935 45.6406L323.47 46.666C321.344 46.4199 319.587 45.5449 318.918 44.2529C318.248 45.5449 316.504 46.4199 314.378 46.666L313.914 45.6406ZM314.666 51.7656C314.666 50.3916 316.251 49.6328 318.918 49.6328C321.563 49.6328 323.135 50.3916 323.142 51.7656C323.135 53.1328 321.563 53.8916 318.918 53.8848C316.251 53.8916 314.666 53.1328 314.666 51.7656ZM315.978 51.7656C315.971 52.4971 317.024 52.9004 318.918 52.9004C320.784 52.9004 321.843 52.4971 321.843 51.7656C321.843 51.0342 320.784 50.6377 318.918 50.6309C317.024 50.6377 315.971 51.0342 315.978 51.7656ZM30.5957 65.6621V77.9395H29.2969V65.6621H30.5957ZM21.1348 75V66.6875H22.4336V69.832H25.7285V66.6875H27.0137V75H21.1348ZM22.4336 73.9336H25.7285V70.8574H22.4336V73.9336ZM43.3007 71.6367V72.6895H32.1308V71.6367H34.8105V69.9893C33.8603 69.6064 33.3271 68.9912 33.3339 68.1777C33.3271 66.7217 35.0155 65.874 37.7089 65.8809C40.3954 65.874 42.0771 66.7217 42.0839 68.1777C42.0771 68.9912 41.5439 69.6064 40.5937 69.9961V71.6367H43.3007ZM33.457 75.6973C33.457 74.2959 35.0429 73.5234 37.7089 73.5234C40.3407 73.5234 41.9267 74.2959 41.9335 75.6973C41.9267 77.1123 40.3407 77.8848 37.7089 77.8848C35.0429 77.8848 33.457 77.1123 33.457 75.6973ZM34.6737 68.1777C34.6669 68.998 35.8017 69.4561 37.7089 69.4629C39.6025 69.4561 40.7509 68.998 40.7441 68.1777C40.7509 67.3574 39.6025 66.8857 37.7089 66.8789C35.8017 66.8857 34.6669 67.3574 34.6737 68.1777ZM34.7695 75.6973C34.7626 76.4629 35.8359 76.9004 37.7089 76.8867C39.5546 76.9004 40.6347 76.4629 40.6347 75.6973C40.6347 74.9453 39.5546 74.5215 37.7089 74.5215C35.8359 74.5215 34.7626 74.9453 34.7695 75.6973ZM36.123 71.6367H39.3085V70.3311C38.83 70.4062 38.29 70.4473 37.7089 70.4473C37.1347 70.4473 36.6015 70.4062 36.123 70.3379V71.6367ZM49.3885 65.8672C52.1502 65.8604 53.7567 66.6055 53.7635 67.9727C53.7567 69.3467 52.1502 70.0918 49.3885 70.0918C46.6268 70.0918 45.0067 69.3467 45.0135 67.9727C45.0067 66.6055 46.6268 65.8604 49.3885 65.8672ZM43.8104 71.8828V70.8438H54.9803V71.8828H43.8104ZM45.1502 73.7969V72.8262H53.5721V75.6973H46.4354V76.791H53.9139V77.7891H45.1639V74.7539H52.287V73.7969H45.1502ZM46.367 67.9727C46.3602 68.7314 47.4403 69.1211 49.3885 69.1211C51.3504 69.1211 52.4305 68.7314 52.4237 67.9727C52.4305 67.248 51.3504 66.8242 49.3885 66.8242C47.4403 66.8242 46.3602 67.248 46.367 67.9727ZM65.9977 69.2715C65.9908 71.3223 67.3375 73.4414 69.2242 74.248L68.5133 75.2598C67.0709 74.624 65.9225 73.2705 65.3551 71.6367C64.7877 73.3867 63.6393 74.877 62.2105 75.5742L61.4586 74.5488C63.3043 73.6807 64.6715 71.3838 64.6852 69.2715V67.9727H61.8824V66.8926H68.7867V67.9727H65.9977V69.2715ZM70.3316 77.9121V65.6621H71.6305V77.9121H70.3316ZM83.3511 65.6758V74.959H82.0523V73.7832H79.5913V72.8672H82.0523V65.6758H83.3511ZM73.1109 71.2676C75.3736 71.2471 78.4292 71.2266 81.0405 70.8984L81.1226 71.8281C80.0767 72.0059 78.9761 72.1152 77.896 72.1904V74.5762H76.5972V72.2588C75.4077 72.3066 74.2661 72.3066 73.2749 72.3066L73.1109 71.2676ZM74.0679 68.3008C74.0611 67.002 75.2984 66.1406 77.1167 66.1406C78.9077 66.1406 80.1519 67.002 80.1519 68.3008C80.1519 69.6064 78.9077 70.4336 77.1167 70.4336C75.3052 70.4336 74.0611 69.6064 74.0679 68.3008ZM74.8062 77.6523V74.0566H76.0913V76.5996H83.6519V77.6523H74.8062ZM75.2984 68.3008C75.2915 69.0254 76.0298 69.4766 77.1167 69.4766C78.1626 69.4766 78.9146 69.0254 78.9214 68.3008C78.9146 67.5693 78.1626 67.0977 77.1167 67.1113C76.0298 67.0977 75.2915 67.5693 75.2984 68.3008ZM94.4702 65.6621V68.5605H96.2475V69.6406H94.4702V72.8125H93.1713V65.6621H94.4702ZM85.3237 72.1016V66.3594H86.5952V68.1367H89.808V66.3594H91.0932V72.1016H85.3237ZM86.5952 71.0762H89.808V69.1621H86.5952V71.0762ZM86.6635 77.7344V73.4551H94.5659V74.4941H87.9623V76.709H94.7846V77.7344H86.6635ZM102.103 65.8672C104.865 65.8604 106.471 66.6055 106.478 67.9727C106.471 69.3467 104.865 70.0918 102.103 70.0918C99.3412 70.0918 97.7211 69.3467 97.7279 67.9727C97.7211 66.6055 99.3412 65.8604 102.103 65.8672ZM96.5248 71.8828V70.8438H107.695V71.8828H96.5248ZM97.8646 73.7969V72.8262H106.286V75.6973H99.1498V76.791H106.628V77.7891H97.8783V74.7539H105.001V73.7969H97.8646ZM99.0814 67.9727C99.0746 68.7314 100.155 69.1211 102.103 69.1211C104.065 69.1211 105.145 68.7314 105.138 67.9727C105.145 67.248 104.065 66.8242 102.103 66.8242C100.155 66.8242 99.0746 67.248 99.0814 67.9727ZM117.478 66.7422C117.471 68.3691 119.46 69.8936 121.866 70.2148L121.361 71.2812C119.358 70.96 117.601 69.9209 116.801 68.4785C116.001 69.9209 114.244 70.96 112.255 71.2812L111.736 70.2148C114.135 69.8936 116.117 68.3896 116.124 66.7422V66.0723H117.478V66.7422ZM111.202 73.5508V72.4844H122.372V73.5508H117.396V77.9121H116.124V73.5508H111.202ZM130.132 73.7559C130.132 74.8086 130.651 75.9229 131.766 76.5859C132.887 75.8682 133.44 74.6992 133.44 73.7559V73.168H134.712V73.7559C134.705 75.0273 135.546 76.2578 137.146 76.7773L136.503 77.7344C135.293 77.3174 134.466 76.4971 134.042 75.499C133.652 76.4834 132.921 77.3789 131.8 77.8438C130.624 77.3994 129.879 76.5312 129.503 75.5332C129.059 76.4971 128.252 77.3105 127.097 77.7344L126.44 76.7773C128.013 76.2168 128.867 74.9385 128.874 73.7559V73.168H130.132V73.7559ZM126.126 69.2441C126.133 67.5283 127.514 66.3525 129.394 66.3457C131.267 66.3525 132.647 67.5283 132.647 69.2441C132.647 70.9395 131.267 72.1152 129.394 72.1152C127.514 72.1152 126.133 70.9395 126.126 69.2441ZM127.397 69.2441C127.391 70.3105 128.231 71.0352 129.394 71.0352C130.542 71.0352 131.376 70.3105 131.376 69.2441C131.376 68.1709 130.542 67.4463 129.394 67.4531C128.231 67.4463 127.391 68.1709 127.397 69.2441ZM134.739 72.6484V65.6758H136.038V72.6484H134.739ZM147.472 69.2441V70.2832H139.036V66.0996H140.321V69.2441H147.472ZM137.546 72.8672V71.8281H148.757V72.8672H137.546ZM138.94 77.625V74.0293H140.239V76.5586H147.554V77.625H138.94ZM156.229 66.5371C158.164 66.5303 159.558 67.7266 159.565 69.4492C159.558 71.1719 158.164 72.3682 156.229 72.375C154.302 72.3682 152.887 71.1719 152.893 69.4492C152.887 67.7266 154.302 66.5303 156.229 66.5371ZM152.305 74.2207C154.534 74.2207 157.624 74.2002 160.304 73.8105L160.399 74.7539C157.631 75.2871 154.657 75.3008 152.47 75.3008L152.305 74.2207ZM154.179 69.4492C154.165 70.5361 155.04 71.2402 156.229 71.2402C157.419 71.2402 158.294 70.5361 158.294 69.4492C158.294 68.376 157.419 67.6582 156.229 67.6582C155.04 67.6582 154.165 68.376 154.179 69.4492ZM161.069 77.9395V65.6621H162.368V77.9395H161.069ZM175.128 75.3555V76.4492H163.917V75.3555H166.979V73.1953H165.284V69.2988H172.475V67.5898H165.257V66.5234H173.76V70.3516H166.569V72.1289H174.048V73.1953H172.188V75.3555H175.128ZM168.237 75.3555H170.917V73.1953H168.237V75.3555ZM185.782 65.6621V77.9121H184.469V65.6621H185.782ZM175.719 74.6309C178.973 73.0791 180.566 70.8711 180.819 68.0137H176.307V66.9746H182.131C182.131 70.5635 180.607 73.667 176.403 75.6836L175.719 74.6309ZM194.098 66.5918V67.2754C194.085 68.0957 194.085 69.3125 193.784 70.8984L192.499 70.7754C192.765 69.4219 192.806 68.4307 192.82 67.6582H187.919V66.5918H194.098ZM187.18 71.9512C187.932 71.9512 188.787 71.9443 189.682 71.9238V69.3398H190.967V71.8828C192.28 71.8281 193.633 71.7324 194.864 71.5547L194.946 72.498C192.389 72.9492 189.463 72.9971 187.303 73.0039L187.18 71.9512ZM189.04 77.6523V74.0293H190.338V76.5996H197.366V77.6523H189.04ZM195.643 74.8633V65.6621H196.969V69.5586H198.651V70.6523H196.969V74.8633H195.643ZM209.114 65.6621V72.2383H207.815V65.6621H209.114ZM199.202 69.0664C199.208 67.3848 200.589 66.2158 202.469 66.2227C204.342 66.2158 205.723 67.3848 205.723 69.0664C205.723 70.7412 204.342 71.9102 202.469 71.8965C200.589 71.9102 199.208 70.7412 199.202 69.0664ZM200.473 69.0664C200.466 70.126 201.307 70.8301 202.469 70.8301C203.618 70.8301 204.452 70.126 204.452 69.0664C204.452 68.0205 203.618 67.3096 202.469 67.3164C201.307 67.3096 200.466 68.0205 200.473 69.0664ZM201.102 77.7617V72.8262H202.374V74.207H207.829V72.8262H209.114V77.7617H201.102ZM202.374 76.6953H207.829V75.2324H202.374V76.6953ZM220.807 65.6621V77.9121H219.508V65.6621H220.807ZM211.387 74.7949V66.8516H212.672V73.6738C214.463 73.667 216.343 73.5098 218.305 73.1133L218.483 74.207C216.316 74.6514 214.347 74.8018 212.413 74.7949H211.387ZM231.858 65.6621V70.4062H233.826V71.4727H231.858V77.9395H230.559V65.6621H231.858ZM222.834 74.8906V66.8379H228.563V67.8906H224.133V73.8105C226.191 73.8037 227.729 73.7148 229.479 73.4004L229.643 74.4941C227.722 74.8359 226.095 74.8975 223.819 74.8906H222.834ZM235.389 76.8457C234.856 76.8389 234.411 76.4082 234.418 75.875C234.411 75.3418 234.856 74.9043 235.389 74.9043C235.915 74.9043 236.353 75.3418 236.36 75.875C236.353 76.4082 235.915 76.8389 235.389 76.8457ZM21.8457 97.3867C21.3125 97.3799 20.8682 96.9492 20.875 96.416C20.8682 95.8828 21.3125 95.4453 21.8457 95.4453C22.3721 95.4453 22.8096 95.8828 22.8164 96.416C22.8096 96.9492 22.3721 97.3799 21.8457 97.3867ZM31.2323 93.2715C31.2254 95.3223 32.5721 97.4414 34.4588 98.248L33.7479 99.2598C32.3055 98.624 31.1571 97.2705 30.5897 95.6367C30.0223 97.3867 28.8739 98.877 27.4452 99.5742L26.6932 98.5488C28.5389 97.6807 29.9061 95.3838 29.9198 93.2715V91.9727H27.117V90.8926H34.0213V91.9727H31.2323V93.2715ZM35.5662 101.912V89.6621H36.8651V101.912H35.5662ZM48.613 89.6621V96.9492H47.3142V93.8457H45.031V92.7793H47.3142V89.6621H48.613ZM38.4002 95.8418C40.3005 95.1787 41.4695 93.5244 41.4627 91.8359V91.5625H38.8103V90.5098H45.4138V91.5625H42.7888V91.8223C42.782 93.374 43.8894 94.8848 45.742 95.5137L45.072 96.5391C43.698 96.0674 42.6863 95.083 42.1531 93.873C41.6199 95.2402 40.5466 96.3408 39.0837 96.8809L38.4002 95.8418ZM40.3689 99.6016C40.3621 98.1455 41.9343 97.2979 44.5115 97.291C47.075 97.2979 48.6472 98.1455 48.6541 99.6016C48.6472 101.058 47.075 101.905 44.5115 101.912C41.9343 101.905 40.3621 101.058 40.3689 99.6016ZM41.6541 99.6016C41.6472 100.429 42.7136 100.9 44.5115 100.887C46.2957 100.9 47.3621 100.429 47.3689 99.6016C47.3621 98.7676 46.2957 98.2959 44.5115 98.3027C42.7136 98.2959 41.6472 98.7676 41.6541 99.6016ZM54.072 90.5371C56.0065 90.5303 57.4011 91.7266 57.4079 93.4492C57.4011 95.1719 56.0065 96.3682 54.072 96.375C52.1442 96.3682 50.7292 95.1719 50.736 93.4492C50.7292 91.7266 52.1442 90.5303 54.072 90.5371ZM50.1481 98.2207C52.3766 98.2207 55.4665 98.2002 58.1462 97.8105L58.2419 98.7539C55.4733 99.2871 52.4997 99.3008 50.3122 99.3008L50.1481 98.2207ZM52.0212 93.4492C52.0075 94.5361 52.8825 95.2402 54.072 95.2402C55.2614 95.2402 56.1364 94.5361 56.1364 93.4492C56.1364 92.376 55.2614 91.6582 54.072 91.6582C52.8825 91.6582 52.0075 92.376 52.0212 93.4492ZM58.9118 101.939V89.6621H60.2106V101.939H58.9118ZM72.9703 99.3555V100.449H61.7594V99.3555H64.8219V97.1953H63.1266V93.2988H70.318V91.5898H63.0992V90.5234H71.6031V94.3516H64.4117V96.1289H71.8902V97.1953H70.0309V99.3555H72.9703ZM66.0797 99.3555H68.7594V97.1953H66.0797V99.3555ZM83.6245 89.6621V101.912H82.312V89.6621H83.6245ZM73.562 98.6309C76.8159 97.0791 78.4087 94.8711 78.6616 92.0137H74.1499V90.9746H79.9741C79.9741 94.5635 78.4497 97.667 74.2456 99.6836L73.562 98.6309ZM91.9409 90.5918V91.2754C91.9272 92.0957 91.9272 93.3125 91.6264 94.8984L90.3412 94.7754C90.6078 93.4219 90.6489 92.4307 90.6625 91.6582H85.7612V90.5918H91.9409ZM85.0229 95.9512C85.7748 95.9512 86.6293 95.9443 87.5248 95.9238V93.3398H88.81V95.8828C90.1225 95.8281 91.476 95.7324 92.7065 95.5547L92.7885 96.498C90.2319 96.9492 87.3061 96.9971 85.1459 97.0039L85.0229 95.9512ZM86.8823 101.652V98.0293H88.1811V100.6H95.2084V101.652H86.8823ZM93.4858 98.8633V89.6621H94.812V93.5586H96.4936V94.6523H94.812V98.8633H93.4858ZM106.263 90.4414V95.4727H100.439V90.4414H106.263ZM101.245 100.873C103.474 100.654 105.217 99.54 105.306 98.4395H101.738V97.4551H105.333V96.3066H106.618V97.4551H110.228V98.4395H106.646C106.735 99.5059 108.437 100.627 110.665 100.873L110.228 101.871C108.307 101.639 106.721 100.818 105.983 99.7383C105.231 100.832 103.624 101.639 101.697 101.871L101.245 100.873ZM101.71 94.4609H104.978V91.4805H101.71V94.4609ZM108.656 96.6621V89.6621H109.941V96.6621H108.656ZM125.685 99.3145V100.395H114.474V99.3145H119.409V96.7988H115.759V90.4961H117.058V92.6016H123.073V90.4961H124.359V96.7988H120.694V99.3145H125.685ZM117.058 95.7461H123.073V93.6543H117.058V95.7461ZM136.366 89.6758V98.6992H135.067V94.4473H132.524V93.3672H135.067V89.6758H136.366ZM126.331 96.293C129.059 95.4111 130.911 93.75 131.178 91.6719H126.96V90.5918H132.606C132.593 93.791 130.398 96.1973 126.878 97.332L126.331 96.293ZM128.478 101.652V97.7695H129.79V100.6H136.681V101.652H128.478ZM149.044 99.2871V100.354H137.833V99.2871H142.741V96.375H144.026V99.2871H149.044ZM138.216 95.5273C140.574 95.1309 142.68 93.3125 142.686 91.3711V90.4414H144.054V91.3711C144.054 93.3125 146.186 95.1309 148.552 95.5273L147.991 96.5938C146.002 96.2041 144.184 94.9736 143.377 93.2988C142.57 94.9668 140.766 96.2041 138.79 96.5938L138.216 95.5273ZM158.184 97.291C160.707 97.291 162.245 98.1387 162.245 99.5879C162.245 101.058 160.707 101.905 158.184 101.912C155.635 101.905 154.069 101.058 154.069 99.5879C154.069 98.1387 155.635 97.291 158.184 97.291ZM152.989 96.1152V90.4277H154.261V92.1914H157.473V90.4277H158.759V96.1152H152.989ZM154.261 95.0762H157.473V93.2168H154.261V95.0762ZM155.368 99.5879C155.361 100.408 156.414 100.873 158.184 100.873C159.941 100.873 160.98 100.408 160.973 99.5879C160.98 98.7744 159.941 98.3164 158.184 98.3164C156.414 98.3164 155.361 98.7744 155.368 99.5879ZM160.837 96.9766V89.6621H162.136V92.6562H163.913V93.7637H162.136V96.9766H160.837ZM175.387 95.8555V96.9082H170.52V99.2871H169.235V96.9082H164.176V95.8555H175.387ZM165.571 101.652V98.125H166.87V100.6H174.143V101.652H165.571ZM165.612 94.584V90.2363H173.938V94.584H165.612ZM166.884 93.5586H172.653V91.2617H166.884V93.5586ZM189.081 89.6758V98.6445H187.782V94.0371H185.444V92.9844H187.782V89.6758H189.081ZM178.881 96.0879C180.761 95.4521 181.937 93.8389 181.93 92.1504V91.6719H179.278V90.6055H185.881V91.6719H183.256V92.1504C183.25 93.6748 184.357 95.2129 186.21 95.8281L185.54 96.8672C184.166 96.3887 183.147 95.4043 182.614 94.1875C182.081 95.541 181.007 96.6211 179.551 97.1406L178.881 96.0879ZM181.124 101.652V97.8379H182.422V100.6H189.409V101.652H181.124ZM203.704 89.6758V98.5762H202.405V89.6758H203.704ZM193.791 93.5312C193.798 91.7607 195.206 90.5029 197.059 90.4961C198.905 90.5029 200.313 91.7607 200.313 93.5312C200.313 95.3291 198.905 96.5801 197.059 96.5801C195.206 96.5801 193.798 95.3291 193.791 93.5312ZM195.063 93.5312C195.056 94.6865 195.917 95.4453 197.059 95.4453C198.18 95.4453 199.041 94.6865 199.041 93.5312C199.041 92.4033 198.18 91.6309 197.059 91.6309C195.917 91.6309 195.056 92.4033 195.063 93.5312ZM195.692 101.652V97.6738H197.004V100.6H204.073V101.652H195.692ZM215.342 90.0312V91.0156H213.565V93.1348H215.287V94.1328H206.305V93.1348H208.041V91.0156H206.25V90.0312H215.342ZM205.225 96.0605V95.0352H216.395V96.0605H205.225ZM206.565 97.9883V97.0176H214.987V99.8203H207.85V100.805H215.328V101.789H206.578V98.9043H213.701V97.9883H206.565ZM209.326 93.1348H212.266V91.0156H209.326V93.1348ZM226.776 90.1133V93.4492H219.557V94.8574H227.035V95.9102H218.258V92.4512H225.449V91.166H218.217V90.1133H226.776ZM216.891 98.1113V97.0723H228.102V98.1113H223.125V101.939H221.826V98.1113H216.891ZM231.496 90.6055C232.959 90.6055 234.073 91.5967 234.278 93.1074H235.42V89.8809H236.637V98.4531H235.42V94.1875H234.272C234.039 95.6436 232.932 96.6211 231.496 96.6074C229.862 96.6211 228.687 95.377 228.694 93.6133C228.687 91.8223 229.862 90.6055 231.496 90.6055ZM229.856 93.6133C229.849 94.748 230.546 95.5 231.496 95.5C232.44 95.5 233.137 94.748 233.151 93.6133C233.137 92.4854 232.44 91.7061 231.496 91.7129C230.546 91.7061 229.849 92.4854 229.856 93.6133ZM230.908 101.652V97.6328H232.194V100.6H239.385V101.652H230.908ZM237.799 98.8223V89.6621H239.029V98.8223H237.799ZM244.529 93.2715C244.523 95.2061 245.801 97.3662 247.66 98.248L246.922 99.2598C245.548 98.6035 244.454 97.2227 243.9 95.623C243.34 97.3662 242.191 98.877 240.797 99.5742L240.031 98.5488C241.891 97.6533 243.237 95.3428 243.244 93.2715V91.9727H240.482V90.8926H247.195V91.9727H244.529V93.2715ZM248.508 101.912V89.6621H249.807V94.5156H251.775V95.6094H249.807V101.912H248.508ZM256.691 90.4414V92.3145H259.057V90.4414H260.26V96.2246H255.461V90.4414H256.691ZM256.691 95.1719H259.057V93.3262H256.691V95.1719ZM257.06 98.7676V97.7148H265.387V101.912H264.101V98.7676H257.06ZM261.518 96.9492V89.8945H262.721V92.793H264.156V89.6758H265.387V97.0312H264.156V93.8594H262.721V96.9492H261.518ZM276.779 89.6758V98.6445H275.48V89.6758H276.779ZM266.689 95.8828C268.61 95.1719 269.745 93.4082 269.752 91.5625V90.3457H271.078V91.5625C271.071 93.3535 272.206 94.9941 274.099 95.6504L273.43 96.6895C272.014 96.1631 270.969 95.124 270.422 93.7979C269.882 95.2197 268.822 96.3545 267.387 96.9082L266.689 95.8828ZM268.767 101.652V97.7969H270.08V100.6H277.148V101.652H268.767ZM291.498 89.6621V96.334H290.213V93.627H287.916V92.5605H290.213V89.6621H291.498ZM281.312 95.5137C283.192 94.8574 284.368 93.251 284.361 91.5625V91.3984H281.709V90.3457H288.312V91.3984H285.687V91.5762C285.68 93.0938 286.788 94.6318 288.64 95.2539L287.97 96.2656C286.59 95.7734 285.578 94.8027 285.045 93.5996C284.511 94.9463 283.438 96.0264 281.982 96.5391L281.312 95.5137ZM283.527 101.762V96.8809H284.812V98.2891H290.213V96.8809H291.498V101.762H283.527ZM284.812 100.709H290.213V99.3008H284.812V100.709ZM299.199 94.0234V95.6777H304.148V96.7441H292.978V95.6777H297.914V94.0234H299.199ZM293.552 93.6406C295.767 93.415 297.504 92.4443 297.681 91.2617H294.004V90.2227H303.15V91.2617H299.431C299.616 92.4375 301.352 93.415 303.574 93.6406L303.109 94.666C300.983 94.4199 299.226 93.5449 298.556 92.2529C297.886 93.5449 296.143 94.4199 294.017 94.666L293.552 93.6406ZM294.304 99.7656C294.304 98.3916 295.89 97.6328 298.556 97.6328C301.202 97.6328 302.774 98.3916 302.781 99.7656C302.774 101.133 301.202 101.892 298.556 101.885C295.89 101.892 294.304 101.133 294.304 99.7656ZM295.617 99.7656C295.61 100.497 296.663 100.9 298.556 100.9C300.422 100.9 301.482 100.497 301.482 99.7656C301.482 99.0342 300.422 98.6377 298.556 98.6309C296.663 98.6377 295.61 99.0342 295.617 99.7656ZM314.201 89.6621V94.543H316.101V95.623H314.201V101.898H312.902V89.6621H314.201ZM304.671 98.6309C307.741 97.0996 309.409 94.8848 309.675 92.0273H305.287V90.9473H311.001C310.988 94.4883 309.429 97.6533 305.396 99.6426L304.671 98.6309ZM326.236 92.9707V94.0234H317.828V89.8809H319.113V92.9707H326.236ZM316.337 96.3887V95.3223H327.521V96.3887H316.337ZM317.664 99.6152C317.664 98.1865 319.256 97.3799 321.915 97.3867C324.554 97.3799 326.133 98.1865 326.14 99.6152C326.133 101.051 324.554 101.857 321.915 101.857C319.256 101.857 317.664 101.051 317.664 99.6152ZM318.976 99.6152C318.969 100.401 320.042 100.853 321.915 100.859C323.761 100.853 324.841 100.401 324.841 99.6152C324.841 98.8223 323.761 98.4053 321.915 98.3984C320.042 98.4053 318.969 98.8223 318.976 99.6152ZM23.7734 114.578C24.8945 114.585 25.8105 115.221 26.3506 116.328H29.3789V113.662H30.6641V125.939H29.3789V121.236H26.4395C25.9131 122.467 24.9561 123.185 23.7734 123.178C21.9482 123.185 20.6562 121.517 20.6699 118.871C20.6562 116.253 21.9482 114.585 23.7734 114.578ZM21.9004 118.871C21.9072 120.819 22.666 122.016 23.7734 122.016C24.8809 122.016 25.6396 120.819 25.6465 118.871C25.6396 116.95 24.8809 115.747 23.7734 115.74C22.666 115.747 21.9072 116.95 21.9004 118.871ZM26.7197 117.395C26.8154 117.846 26.877 118.338 26.877 118.871C26.877 119.336 26.8359 119.767 26.7539 120.17H29.3789V117.395H26.7197ZM43.328 120.867V121.893H38.3241V125.912H37.0527V121.893H32.1171V120.867H43.328ZM33.5116 119.473V114.154H34.7968V115.754H40.621V114.154H41.9198V119.473H33.5116ZM34.7968 118.434H40.621V116.793H34.7968V118.434ZM55.0077 119.281V120.279H43.7967V119.281H55.0077ZM45.1229 122.07V121.141H53.6268V123.834H46.4354V124.846H54.0096V125.762H45.1366V122.973H52.3416V122.07H45.1229ZM45.2049 114.893V113.977H53.5995V116.629H46.5174V117.559H53.8045V118.475H45.2323V115.768H52.3006V114.893H45.2049ZM71.1246 113.676V117.312H72.8746V118.379H71.1246V121.92H69.8258V113.676H71.1246ZM61.4039 120.553C62.3541 120.553 63.4547 120.553 64.6031 120.525V119.698C63.2086 119.541 62.3199 118.885 62.3336 117.9C62.3199 116.779 63.4889 116.082 65.2457 116.096C67.0025 116.082 68.151 116.779 68.1578 117.9C68.151 118.878 67.2828 119.534 65.902 119.698V120.478C66.9957 120.423 68.1031 120.334 69.1285 120.184L69.2379 121.113C66.6061 121.571 63.7008 121.592 61.5406 121.592L61.4039 120.553ZM61.7184 115.686V114.715H64.6031V113.566H65.902V114.715H68.7867V115.686H61.7184ZM62.9352 123.506V122.494H71.1246V125.912H69.8258V123.506H62.9352ZM63.5641 117.9C63.5641 118.475 64.1998 118.851 65.2457 118.844C66.2779 118.851 66.9205 118.475 66.9137 117.9C66.9205 117.312 66.2779 116.971 65.2457 116.984C64.1998 116.971 63.5641 117.312 63.5641 117.9ZM83.3237 113.676V122.576H82.0249V113.676H83.3237ZM73.4116 117.531C73.4185 115.761 74.8267 114.503 76.6792 114.496C78.5249 114.503 79.9331 115.761 79.9331 117.531C79.9331 119.329 78.5249 120.58 76.6792 120.58C74.8267 120.58 73.4185 119.329 73.4116 117.531ZM74.6831 117.531C74.6763 118.687 75.5376 119.445 76.6792 119.445C77.8003 119.445 78.6616 118.687 78.6616 117.531C78.6616 116.403 77.8003 115.631 76.6792 115.631C75.5376 115.631 74.6763 116.403 74.6831 117.531ZM75.312 125.652V121.674H76.6245V124.6H83.6929V125.652H75.312ZM94.4702 113.676V117.613H96.2475V118.693H94.4702V122.836H93.1713V113.676H94.4702ZM84.8588 116.15V115.098H87.8666V113.662H89.1655V115.098H92.1596V116.15H84.8588ZM85.5287 119.049C85.5219 117.647 86.7319 116.731 88.5092 116.738C90.2661 116.731 91.476 117.647 91.476 119.049C91.476 120.437 90.2661 121.339 88.5092 121.346C86.7319 121.339 85.5219 120.437 85.5287 119.049ZM86.7045 125.652V122.111H88.0034V124.6H94.9897V125.652H86.7045ZM86.7866 119.049C86.7729 119.849 87.4702 120.341 88.5092 120.334C89.5483 120.341 90.2455 119.849 90.2592 119.049C90.2455 118.242 89.5483 117.743 88.5092 117.736C87.4702 117.743 86.7729 118.242 86.7866 119.049ZM110.064 115.016V116.082H100.097V115.016H104.458V113.607H105.743V115.016H110.064ZM99.5227 122.658V121.592H110.734V122.658H105.743V125.926H104.458V122.658H99.5227ZM101.027 118.775C101.02 117.436 102.551 116.704 105.101 116.711C107.644 116.704 109.175 117.436 109.175 118.775C109.175 120.081 107.644 120.819 105.101 120.826C102.551 120.819 101.02 120.081 101.027 118.775ZM102.366 118.775C102.366 119.459 103.344 119.849 105.101 119.842C106.851 119.849 107.828 119.459 107.835 118.775C107.828 118.071 106.851 117.682 105.101 117.682C103.344 117.682 102.366 118.071 102.366 118.775ZM119.874 121.291C122.397 121.291 123.935 122.139 123.935 123.588C123.935 125.058 122.397 125.905 119.874 125.912C117.324 125.905 115.759 125.058 115.759 123.588C115.759 122.139 117.324 121.291 119.874 121.291ZM114.679 120.115V114.428H115.95V116.191H119.163V114.428H120.448V120.115H114.679ZM115.95 119.076H119.163V117.217H115.95V119.076ZM117.058 123.588C117.051 124.408 118.104 124.873 119.874 124.873C121.631 124.873 122.67 124.408 122.663 123.588C122.67 122.774 121.631 122.316 119.874 122.316C118.104 122.316 117.051 122.774 117.058 123.588ZM122.526 120.977V113.662H123.825V116.656H125.603V117.764H123.825V120.977H122.526ZM137.077 119.855V120.908H132.21V123.287H130.925V120.908H125.866V119.855H137.077ZM127.261 125.652V122.125H128.56V124.6H135.833V125.652H127.261ZM127.302 118.584V114.236H135.628V118.584H127.302ZM128.573 117.559H134.343V115.262H128.573V117.559ZM147.103 113.662V118.625H149.071V119.705H147.103V125.912H145.817V113.662H147.103ZM137.491 116.643V115.576H140.513V113.826H141.811V115.576H144.751V116.643H137.491ZM138.12 120.389C138.12 118.721 139.405 117.545 141.169 117.545C142.926 117.545 144.211 118.721 144.218 120.389C144.211 122.07 142.926 123.239 141.169 123.246C139.405 123.239 138.12 122.07 138.12 120.389ZM139.364 120.389C139.357 121.455 140.123 122.166 141.169 122.152C142.208 122.166 142.967 121.455 142.974 120.389C142.967 119.343 142.208 118.618 141.169 118.611C140.123 118.618 139.357 119.343 139.364 120.389ZM152.561 114.578C153.682 114.585 154.599 115.221 155.139 116.328H158.167V113.662H159.452V125.939H158.167V121.236H155.227C154.701 122.467 153.744 123.185 152.561 123.178C150.736 123.185 149.444 121.517 149.458 118.871C149.444 116.253 150.736 114.585 152.561 114.578ZM150.688 118.871C150.695 120.819 151.454 122.016 152.561 122.016C153.669 122.016 154.428 120.819 154.434 118.871C154.428 116.95 153.669 115.747 152.561 115.74C151.454 115.747 150.695 116.95 150.688 118.871ZM155.508 117.395C155.603 117.846 155.665 118.338 155.665 118.871C155.665 119.336 155.624 119.767 155.542 120.17H158.167V117.395H155.508ZM175.087 120.566V121.619H170.11V125.898H168.839V121.619H163.917V120.566H175.087ZM164.546 118.611C166.829 118.297 168.729 116.937 168.77 115.426H164.956V114.387H174.034V115.426H170.247C170.267 116.937 172.154 118.297 174.471 118.611L173.993 119.637C171.983 119.322 170.247 118.331 169.502 116.937C168.75 118.331 167.02 119.322 165.038 119.637L164.546 118.611ZM180.094 116.779C180.081 119.015 181.434 121.271 183.335 122.111L182.555 123.137C181.147 122.467 180.033 121.093 179.459 119.418C178.891 121.216 177.763 122.692 176.294 123.41L175.501 122.316C177.428 121.462 178.782 119.117 178.782 116.779V114.688H180.094V116.779ZM184.442 125.939V113.662H185.741V125.939H184.442ZM197.461 113.662V125.912H196.149V113.662H197.461ZM187.399 122.631C190.653 121.079 192.246 118.871 192.499 116.014H187.987V114.975H193.811C193.811 118.563 192.287 121.667 188.083 123.684L187.399 122.631ZM211.496 113.662V118.406H213.465V119.5H211.496V125.912H210.198V113.662H211.496ZM202.418 123V114.688H203.704V117.832H206.944V114.688H208.229V123H202.418ZM203.704 121.934H206.944V118.857H203.704V121.934ZM223.258 113.676V116.533H225.049V117.627H223.258V120.43H221.959V113.676H223.258ZM214.125 115.316V114.25H219.703V117.641H215.438V119.117C217.564 119.097 219.068 119.035 220.852 118.707L220.989 119.773C219.095 120.102 217.475 120.177 215.123 120.184H214.139V116.643H218.432V115.316H214.125ZM215.424 125.762V120.949H216.709V122.33H221.959V120.949H223.258V125.762H215.424ZM216.709 124.709H221.959V123.355H216.709V124.709ZM235.485 113.662V125.912H234.186V113.662H235.485ZM226.065 122.795V114.852H227.35V121.674C229.141 121.667 231.021 121.51 232.983 121.113L233.16 122.207C230.993 122.651 229.025 122.802 227.09 122.795H226.065ZM246.535 113.662V118.406H248.504V119.473H246.535V125.939H245.236V113.662H246.535ZM237.512 122.891V114.838H243.24V115.891H238.811V121.811C240.868 121.804 242.406 121.715 244.156 121.4L244.32 122.494C242.4 122.836 240.773 122.897 238.496 122.891H237.512ZM250.066 124.846C249.533 124.839 249.089 124.408 249.096 123.875C249.089 123.342 249.533 122.904 250.066 122.904C250.593 122.904 251.03 123.342 251.037 123.875C251.03 124.408 250.593 124.839 250.066 124.846Z" fill="#E5E8EB"/>
</svg>
