<svg width="25" height="24" viewBox="0 0 25 24" fill="none" xmlns="http://www.w3.org/2000/svg">
<path d="M4.3 19V10C4.3 9.68333 4.37083 9.38333 4.5125 9.1C4.65417 8.81667 4.85 8.58333 5.1 8.4L11.1 3.9C11.45 3.63333 11.85 3.5 12.3 3.5C12.75 3.5 13.15 3.63333 13.5 3.9L19.5 8.4C19.75 8.58333 19.9458 8.81667 20.0875 9.1C20.2292 9.38333 20.3 9.68333 20.3 10V19C20.3 19.55 20.1042 20.0208 19.7125 20.4125C19.3208 20.8042 18.85 21 18.3 21H15.3C15.0167 21 14.7792 20.9042 14.5875 20.7125C14.3958 20.5208 14.3 20.2833 14.3 20V15C14.3 14.7167 14.2042 14.4792 14.0125 14.2875C13.8208 14.0958 13.5833 14 13.3 14H11.3C11.0167 14 10.7792 14.0958 10.5875 14.2875C10.3958 14.4792 10.3 14.7167 10.3 15V20C10.3 20.2833 10.2042 20.5208 10.0125 20.7125C9.82083 20.9042 9.58333 21 9.3 21H6.3C5.75 21 5.27917 20.8042 4.8875 20.4125C4.49583 20.0208 4.3 19.55 4.3 19Z" fill="#B0B8C1"/>
</svg>
