<svg width="64" height="71" viewBox="0 0 64 71" fill="none" xmlns="http://www.w3.org/2000/svg">
<ellipse cx="32" cy="63" rx="9" ry="3" fill="black" fill-opacity="0.2"/>
<g filter="url(#filter0_d_453_13811)">
<circle cx="32" cy="32" r="23" fill="#8B95A1"/>
<path d="M34.9394 33.0789C34.9394 34.0468 33.5909 35.288 32.1276 35.288C30.6643 35.288 29.4789 34.0468 29.4789 33.0789C29.4789 32.1111 30.6643 31.3242 32.1276 31.3242C33.5909 31.3242 34.9394 32.1074 34.9394 33.0789Z" fill="#8B95A1"/>
<path d="M33.3391 32.4435C33.2872 32.51 33.2354 32.5839 33.2243 32.6651C33.2132 32.7612 33.2576 32.8572 33.2984 32.9459C33.4873 33.3264 33.6873 33.7253 34.0319 33.9729C34.5468 34.346 35.3136 34.2832 35.8063 33.8768C35.8545 33.8362 35.8989 33.7918 35.9249 33.7364C35.9545 33.6589 35.936 33.5702 35.936 33.4852C35.9323 33.2488 36.0657 33.0308 36.0879 32.7981C36.1434 32.2034 35.5655 31.5717 35.0099 31.4793C34.3616 31.3685 33.7207 31.9632 33.3391 32.4435Z" fill="#8B95A1"/>
<path d="M34.8989 31.1912C34.884 31.1321 34.8655 31.0693 34.8248 31.025C34.7766 30.9732 34.7025 30.9585 34.6321 30.94C34.3321 30.8735 34.0172 30.8107 33.7208 30.892C33.2763 31.0139 32.9688 31.4756 32.9799 31.9337C32.9799 31.978 32.9836 32.0261 33.0058 32.063C33.0355 32.1147 33.0947 32.1443 33.1429 32.1812C33.2763 32.2847 33.343 32.4583 33.4652 32.5765C33.7764 32.8757 34.395 32.8314 34.6988 32.5617C35.0545 32.244 35.0026 31.616 34.9026 31.1875L34.8989 31.1912Z" fill="#8B95A1"/>
<path d="M31.539 30.6444C31.4686 30.6924 31.3946 30.7441 31.3575 30.818C31.3131 30.9067 31.3242 31.0138 31.339 31.1098C31.3945 31.5347 31.4538 31.9817 31.702 32.3326C32.0725 32.8609 32.8282 33.0493 33.4283 32.8202C33.4876 32.7981 33.5469 32.7722 33.5876 32.7242C33.6432 32.6577 33.6543 32.569 33.6803 32.4878C33.7543 32.2624 33.9544 32.0962 34.0507 31.8782C34.3026 31.3278 33.9544 30.5335 33.4543 30.2639C32.869 29.9462 32.0614 30.3045 31.539 30.6407V30.6444Z" fill="#8B95A1"/>
<path d="M31.2166 30.0349C31.1351 30.0201 31.0462 30.009 30.9684 30.0386C30.8758 30.0719 30.8128 30.1568 30.7572 30.2381C30.509 30.5816 30.2534 30.9437 30.1979 31.3648C30.1127 31.9928 30.5276 32.6356 31.1166 32.872C31.1722 32.8942 31.2351 32.9164 31.2944 32.909C31.3796 32.8979 31.4463 32.8425 31.5204 32.8018C31.7278 32.6873 31.9798 32.7021 32.1983 32.6097C32.7503 32.3807 33.0318 31.5754 32.854 31.0471C32.6466 30.4265 31.8242 30.1457 31.2203 30.0386L31.2166 30.0349Z" fill="#8B95A1"/>
<path d="M31.4126 30.7997C31.3829 30.7184 31.3459 30.6371 31.2792 30.5817C31.2014 30.5189 31.0977 30.5078 30.9976 30.4967C30.5679 30.4561 30.1197 30.4192 29.7196 30.5817C29.1231 30.8255 28.7712 31.52 28.8638 32.1554C28.8712 32.2182 28.8861 32.281 28.9231 32.3327C28.975 32.4029 29.0602 32.4325 29.1343 32.4768C29.338 32.5987 29.4566 32.8277 29.6492 32.9718C30.1345 33.3375 30.9865 33.1713 31.3607 32.7465C31.8015 32.2478 31.6274 31.3833 31.4126 30.7997Z" fill="#8B95A1"/>
<path d="M30.8314 31.3538C30.7795 31.2578 30.7166 31.158 30.6202 31.1026C30.5091 31.0361 30.372 31.0435 30.2424 31.0472C29.683 31.0767 29.1014 31.1137 28.6198 31.3981C27.9011 31.8267 27.5825 32.7798 27.8233 33.5814C27.8455 33.659 27.8752 33.7365 27.9344 33.7956C28.0122 33.8732 28.1308 33.8954 28.2345 33.9397C28.5198 34.0579 28.7161 34.3276 28.9865 34.4754C29.6756 34.8522 30.7388 34.4754 31.1389 33.8621C31.6056 33.1381 31.2204 32.0594 30.8314 31.3538Z" fill="#8B95A1"/>
<path d="M28.4194 33.3783C28.3527 33.4448 28.286 33.5187 28.2638 33.6111C28.2379 33.7182 28.2749 33.829 28.3119 33.9324C28.4712 34.3794 28.6454 34.8486 28.9936 35.17C29.5196 35.6502 30.3791 35.6798 30.9755 35.2919C31.0348 35.255 31.0904 35.2106 31.1237 35.1515C31.1682 35.0666 31.1607 34.9668 31.1682 34.8745C31.1941 34.6122 31.3719 34.3868 31.4275 34.1282C31.5682 33.4744 31.0052 32.6986 30.4013 32.5213C29.6937 32.3144 28.9047 32.8907 28.4194 33.3783Z" fill="#8B95A1"/>
<path d="M29.8128 33.7144C29.7313 33.7477 29.6498 33.7846 29.598 33.8548C29.5387 33.9361 29.5276 34.0395 29.5239 34.1393C29.4979 34.5715 29.472 35.0222 29.6498 35.4174C29.9166 36.0085 30.6241 36.3373 31.265 36.2265C31.328 36.2154 31.391 36.2006 31.4391 36.16C31.5058 36.1046 31.5354 36.0196 31.5762 35.942C31.691 35.7314 31.9207 35.6058 32.0578 35.4101C32.4097 34.9113 32.2171 34.0654 31.7762 33.7034C31.2576 33.2785 30.3944 33.4817 29.8128 33.7144Z" fill="#8B95A1"/>
<path d="M30.4347 35.1844C30.394 35.2694 30.3569 35.358 30.3644 35.4504C30.3755 35.5575 30.4459 35.6499 30.5125 35.7311C30.8052 36.0931 31.1201 36.47 31.5498 36.6547C32.1944 36.9317 32.9983 36.6768 33.4243 36.1227C33.4651 36.0673 33.5058 36.0119 33.5169 35.9417C33.5317 35.8493 33.491 35.7607 33.4688 35.6683C33.4058 35.4171 33.4984 35.1511 33.4651 34.8962C33.3836 34.2424 32.6056 33.7104 31.9907 33.7437C31.2683 33.7843 30.7274 34.5749 30.4347 35.1807V35.1844Z" fill="#8B95A1"/>
<path d="M33.6874 33.8289C33.6429 33.7846 33.5948 33.7403 33.5318 33.7255C33.4614 33.707 33.3873 33.7329 33.3169 33.7587C33.0206 33.8659 32.7094 33.9804 32.4982 34.2094C32.1796 34.5567 32.1611 35.1256 32.4204 35.5172C32.4463 35.5541 32.476 35.5947 32.513 35.6132C32.5686 35.6428 32.6353 35.6354 32.6983 35.6428C32.8724 35.6612 33.0205 35.7757 33.191 35.8127C33.6244 35.905 34.1393 35.5319 34.2542 35.133C34.3912 34.6675 34.006 34.1466 33.6837 33.8289H33.6874Z" fill="#8B95A1"/>
<path d="M33.0282 33.8441C32.9837 33.9032 32.9392 33.966 32.9281 34.0399C32.917 34.1248 32.9578 34.2098 32.9948 34.2874C33.1615 34.6199 33.343 34.9671 33.6468 35.1851C34.1025 35.5101 34.7767 35.4473 35.2027 35.089C35.2435 35.0558 35.2842 35.0151 35.3064 34.9634C35.3324 34.8932 35.3176 34.8156 35.3139 34.7418C35.3102 34.5349 35.425 34.3428 35.4435 34.1359C35.488 33.6114 34.9767 33.0609 34.4877 32.9833C33.9172 32.891 33.3579 33.4156 33.0282 33.8441Z" fill="#8B95A1"/>
<path d="M34.0471 32.1151C33.9768 32.141 33.9064 32.1706 33.8582 32.2297C33.8026 32.2962 33.7915 32.3885 33.7841 32.4735C33.7471 32.8466 33.7137 33.2382 33.8582 33.5854C34.0731 34.1026 34.6769 34.4092 35.2326 34.3316C35.2882 34.3243 35.3437 34.3132 35.3845 34.2799C35.4438 34.2356 35.4734 34.1617 35.5104 34.0952C35.6179 33.9179 35.8179 33.8145 35.9439 33.6482C36.2625 33.2271 36.1217 32.4846 35.7475 32.1595C35.3104 31.7753 34.5547 31.9267 34.0471 32.1115V32.1151Z" fill="#8B95A1"/>
<path d="M20.0853 36.2623C22.8975 41.8314 30.2042 43.4811 35.8345 42.0189C39.5668 41.0482 44.7913 37.6328 44.6989 33.2096C44.6758 32.0233 42.8232 32.1086 42.8491 33.2992C42.9214 36.8283 38.1 39.5276 35.2674 40.2605C30.3681 41.5266 24.0781 40.1006 21.6462 35.2752C21.1095 34.2125 19.5506 35.2076 20.0809 36.2651L20.0853 36.2623Z" fill="#8B95A1"/>
<path d="M26.4904 25H26.4866C25.7296 25 25.116 25.612 25.116 26.3668V28.0957C25.116 28.8506 25.7296 29.4625 26.4866 29.4625H26.4904C27.2474 29.4625 27.861 28.8506 27.861 28.0957V26.3668C27.861 25.612 27.2474 25 26.4904 25Z" fill="#8B95A1"/>
<path d="M37.5078 25H37.5041C36.7471 25 36.1334 25.612 36.1334 26.3668V28.0957C36.1334 28.8506 36.7471 29.4625 37.5041 29.4625H37.5078C38.2648 29.4625 38.8785 28.8506 38.8785 28.0957V26.3668C38.8785 25.612 38.2648 25 37.5078 25Z" fill="#8B95A1"/>
<path d="M32 62L25.9378 51.5L38.0622 51.5L32 62Z" fill="#8B95A1"/>
<path d="M23.9 32.1752C23.7167 31.9752 23.625 31.7377 23.625 31.4627C23.625 31.1877 23.7167 30.9502 23.9 30.7502L26.7 27.9502L25.625 26.8752L25.325 27.1752C25.125 27.3752 24.8875 27.4752 24.6125 27.4752C24.3375 27.4752 24.1 27.3752 23.9 27.1752C23.7167 26.9752 23.625 26.7377 23.625 26.4627C23.625 26.1877 23.7167 25.9585 23.9 25.7752L25.9 23.7752C26.1 23.5752 26.3375 23.4752 26.6125 23.4752C26.8875 23.4752 27.125 23.5752 27.325 23.7752C27.525 23.9585 27.625 24.1919 27.625 24.4752C27.625 24.7585 27.525 24.9919 27.325 25.1752L27.025 25.4752L28.1 26.5502L30.9 23.7502C31.1 23.5502 31.3375 23.4502 31.6125 23.4502C31.8875 23.4502 32.125 23.5502 32.325 23.7502C32.525 23.9502 32.625 24.1877 32.625 24.4627C32.625 24.7377 32.525 24.9752 32.325 25.1752L31.65 25.8252L33.2 27.3752L30.375 30.1752C30.1917 30.3752 30.1 30.6127 30.1 30.8877C30.1 31.1627 30.1917 31.4002 30.375 31.6002C30.575 31.8002 30.8125 31.9002 31.0875 31.9002C31.3625 31.9002 31.6 31.8002 31.8 31.6002L34.6 28.7752L36.125 30.2752L33.3 33.1002C33.1 33.3002 33 33.5377 33 33.8127C33 34.0877 33.1 34.3252 33.3 34.5252C33.4833 34.7085 33.7125 34.796 33.9875 34.7877C34.2625 34.7794 34.5 34.6835 34.7 34.5002L37.5 31.6752L39.025 33.2002C39.4083 33.5835 39.6 34.0544 39.6 34.6127C39.6 35.171 39.4083 35.6419 39.025 36.0252L38.325 36.7502L42.2 40.6002C42.3667 40.7669 42.4083 40.9502 42.325 41.1502C42.2417 41.3502 42.0833 41.4502 41.85 41.4502H40.825C40.625 41.4502 40.4292 41.4085 40.2375 41.3252C40.0458 41.2419 39.8833 41.1335 39.75 41.0002L36.9 38.1502L36.2 38.8752C35.8167 39.2585 35.3458 39.4502 34.7875 39.4502C34.2292 39.4502 33.7583 39.2585 33.375 38.8752L26 31.5002L25.325 32.1752C25.125 32.3585 24.8875 32.4502 24.6125 32.4502C24.3375 32.4502 24.1 32.3585 23.9 32.1752Z" fill="white"/>
</g>
<defs>
<filter id="filter0_d_453_13811" x="0" y="0" width="64" height="71" filterUnits="userSpaceOnUse" color-interpolation-filters="sRGB">
<feFlood flood-opacity="0" result="BackgroundImageFix"/>
<feColorMatrix in="SourceAlpha" type="matrix" values="0 0 0 0 0 0 0 0 0 0 0 0 0 0 0 0 0 0 127 0" result="hardAlpha"/>
<feOffset/>
<feGaussianBlur stdDeviation="4.5"/>
<feComposite in2="hardAlpha" operator="out"/>
<feColorMatrix type="matrix" values="0 0 0 0 0 0 0 0 0 0 0 0 0 0 0 0 0 0 0.15 0"/>
<feBlend mode="normal" in2="BackgroundImageFix" result="effect1_dropShadow_453_13811"/>
<feBlend mode="normal" in="SourceGraphic" in2="effect1_dropShadow_453_13811" result="shape"/>
</filter>
</defs>
</svg>
