<svg width="512" height="512" viewBox="0 0 512 512" fill="none" xmlns="http://www.w3.org/2000/svg">
<g clip-path="url(#clip0_148_19199)">
<path fill-rule="evenodd" clip-rule="evenodd" d="M204.531 26.3569C205.901 56.3459 191.737 69.2569 171.802 75.8149C106.956 86.5999 23.8359 101.607 35.3189 213.085C24.4189 302.879 -9.62214 300.085 2.61886 482.437H78.4189L117.119 316.837L162.613 485.637H349.379L394.873 316.837L433.573 482.437H509.373C521.614 300.081 487.573 302.879 476.673 213.085C488.164 101.607 405.044 86.5999 340.2 75.8149C320.265 69.2569 306.1 56.3459 307.471 26.3569H204.531Z" fill="#FCDBCA"/>
<path d="M408.862 215.766C408.884 213.879 409.65 212.077 410.992 210.751C412.334 209.424 414.145 208.681 416.032 208.681C417.918 208.681 419.729 209.424 421.072 210.751C422.414 212.077 423.179 213.879 423.201 215.766C423.201 221.915 423.065 227.832 422.793 233.515C422.56 239.227 422.152 244.915 421.657 250.594V250.623C420.491 263.33 418.771 275.396 416.586 286.966C415.07 294.981 407.405 324.941 401.78 346.391L394.873 316.839C397.758 306.376 400.352 295.563 402.48 284.339C404.607 273.06 406.268 261.431 407.38 249.339C407.846 244.064 408.225 238.614 408.458 232.902C408.721 227.219 408.857 221.507 408.866 215.765L408.862 215.766Z" fill="#FAC8AC"/>
<path d="M286.747 145.12C286.841 144.182 287.119 143.272 287.564 142.442C288.01 141.611 288.614 140.877 289.344 140.28C290.073 139.683 290.913 139.236 291.815 138.964C292.717 138.691 293.664 138.6 294.602 138.693C295.54 138.787 296.45 139.065 297.28 139.51C298.11 139.956 298.845 140.56 299.442 141.29C300.039 142.019 300.486 142.859 300.758 143.761C301.03 144.663 301.122 145.61 301.028 146.548C299.163 165.026 301.436 180.705 307.003 194.199C312.54 207.693 321.403 219.147 332.65 229.114C334.053 230.38 334.899 232.148 335.006 234.035C335.112 235.921 334.471 237.774 333.22 239.19C331.969 240.606 330.21 241.471 328.324 241.598C326.439 241.725 324.58 241.103 323.15 239.868C310.297 228.473 300.15 215.3 293.714 199.649C287.302 184.028 284.62 166.049 286.747 145.12ZM248.8 485.643H263.2V306.4C263.2 304.49 262.442 302.659 261.092 301.309C259.741 299.958 257.91 299.2 256 299.2C254.091 299.2 252.259 299.958 250.909 301.309C249.559 302.659 248.8 304.49 248.8 306.4V485.643ZM218.636 328.613C218.721 327.669 218.991 326.751 219.432 325.913C219.873 325.074 220.475 324.331 221.205 323.726C221.934 323.122 222.776 322.668 223.682 322.39C224.588 322.113 225.54 322.018 226.483 322.11C227.426 322.202 228.341 322.481 229.176 322.929C230.011 323.377 230.749 323.986 231.347 324.721C231.945 325.455 232.392 326.301 232.661 327.21C232.931 328.118 233.018 329.071 232.917 330.013C231.722 341.992 227.875 351.813 221.958 359.913C216.071 367.957 208.258 374.194 199.051 379.09C197.373 379.923 195.435 380.068 193.651 379.496C191.866 378.923 190.375 377.677 189.495 376.023C188.615 374.368 188.414 372.436 188.936 370.636C189.458 368.836 190.661 367.31 192.289 366.383C199.689 362.449 205.9 357.583 210.389 351.432C214.819 345.341 217.704 337.88 218.637 328.612L218.636 328.613ZM279.081 330.013C278.981 329.071 279.068 328.118 279.337 327.21C279.607 326.301 280.054 325.455 280.652 324.721C281.25 323.986 281.988 323.377 282.823 322.929C283.657 322.481 284.573 322.202 285.516 322.11C286.459 322.018 287.411 322.113 288.317 322.39C289.223 322.668 290.065 323.122 290.794 323.726C291.524 324.331 292.126 325.074 292.567 325.913C293.008 326.751 293.278 327.669 293.362 328.613C294.295 337.881 297.18 345.342 301.639 351.433C306.127 357.583 312.306 362.45 319.709 366.384C321.394 367.277 322.656 368.802 323.216 370.625C323.776 372.448 323.589 374.419 322.696 376.104C321.804 377.789 320.278 379.05 318.455 379.61C316.632 380.171 314.661 379.984 312.976 379.091C303.738 374.191 295.927 367.958 290.04 359.914C284.123 351.814 280.276 341.991 279.081 330.014V330.013ZM248.8 231.8C248.8 229.89 249.559 228.059 250.909 226.709C252.259 225.358 254.091 224.6 256 224.6C257.91 224.6 259.741 225.358 261.092 226.709C262.442 228.059 263.2 229.89 263.2 231.8V278.081C263.2 279.99 262.442 281.822 261.092 283.172C259.741 284.522 257.91 285.281 256 285.281C254.091 285.281 252.259 284.522 250.909 283.172C249.559 281.822 248.8 279.99 248.8 278.081V231.8ZM210.971 146.552C210.782 144.658 211.353 142.767 212.558 141.294C213.763 139.821 215.504 138.887 217.398 138.697C219.292 138.508 221.183 139.079 222.656 140.284C224.129 141.489 225.063 143.23 225.252 145.124C227.379 166.05 224.698 184.032 218.286 199.653C211.845 215.304 201.703 228.477 188.851 239.872C187.422 241.107 185.563 241.729 183.677 241.602C181.792 241.475 180.033 240.61 178.782 239.194C177.531 237.778 176.889 235.925 176.996 234.039C177.102 232.152 177.949 230.384 179.351 229.118C190.63 219.151 199.461 207.697 205.028 194.203C210.565 180.709 212.838 165.03 210.973 146.552H210.971Z" fill="#FAC8AC"/>
<path d="M103.167 215.766C103.145 213.879 102.38 212.077 101.038 210.751C99.6954 209.424 97.8846 208.681 95.9976 208.681C94.1107 208.681 92.2998 209.424 90.9577 210.751C89.6156 212.077 88.8504 213.879 88.8281 215.766C88.8281 221.915 88.9441 227.832 89.2071 233.515C89.4691 239.227 89.8578 244.92 90.3731 250.594V250.623C91.5091 263.33 93.2291 275.396 95.4141 286.966C96.9301 294.981 104.624 324.941 110.22 346.391L117.127 316.839C114.242 306.376 111.648 295.563 109.52 284.339C107.393 273.06 105.732 261.431 104.653 249.339C104.153 244.064 103.808 238.614 103.546 232.902C103.283 227.219 103.138 221.507 103.167 215.765V215.766Z" fill="#FAC8AC"/>
<path fill-rule="evenodd" clip-rule="evenodd" d="M78.423 482.437L117.127 316.839L104.974 271.753L55.749 482.437H78.423Z" fill="#FAC8AC"/>
<path fill-rule="evenodd" clip-rule="evenodd" d="M283.454 26.3569C296.161 165.638 470.444 42.6189 452 221.566C462.725 309.966 495.892 308.649 485.254 482.437H509.385C521.626 300.081 487.585 302.879 476.685 213.085C488.164 101.607 405.044 86.5999 340.2 75.8149C320.265 69.2569 306.1 56.3459 307.471 26.3569H283.454Z" fill="#FAC8AC"/>
<circle cx="131.5" cy="171.5" r="19.5" fill="#FF5761" fill-opacity="0.1"/>
<circle cx="131.5" cy="171.5" r="8.5" fill="#FF5761"/>
<circle cx="375.5" cy="204" r="15" fill="#FF5761" fill-opacity="0.1"/>
<circle cx="375.5" cy="203.5" r="5.5" fill="#FF5761"/>
<circle cx="371.5" cy="252.5" r="19.5" fill="#FF5761" fill-opacity="0.1"/>
<circle cx="371.5" cy="252.5" r="7.5" fill="#FF5761"/>
<circle cx="170.5" cy="309.5" r="16.5" fill="#FF5761" fill-opacity="0.1"/>
<circle cx="170.5" cy="309.5" r="6.5" fill="#FF5761"/>
<circle cx="55.5" cy="309.5" r="16.5" fill="#FF5761" fill-opacity="0.1"/>
<circle cx="55.5" cy="309.5" r="6.5" fill="#FF5761"/>
<circle cx="318.5" cy="444.5" r="16.5" fill="#FF5761" fill-opacity="0.1"/>
<circle cx="318.5" cy="444.5" r="7.5" fill="#FF5761"/>
<circle cx="187.5" cy="420.5" r="16.5" fill="#FF5761" fill-opacity="0.1"/>
<circle cx="187.5" cy="420.5" r="7.5" fill="#FF5761"/>
<circle cx="444.5" cy="328.5" r="16.5" fill="#FF5761" fill-opacity="0.1"/>
<circle cx="444.5" cy="328.5" r="6.5" fill="#FF5761"/>
</g>
<defs>
<clipPath id="clip0_148_19199">
<rect width="512" height="512" fill="white"/>
</clipPath>
</defs>
</svg>
