<svg width="600" height="576" viewBox="0 0 600 576" fill="none" xmlns="http://www.w3.org/2000/svg">
<path d="M69.2021 130.084C17.0794 241.397 55.8279 338.427 81.7174 373.029L497.3 409.102C459.386 487.507 420.662 596.317 511.656 402.845C625.398 161.004 476.687 58.6728 346.38 12.6605C242.135 -24.1493 216.073 27.9979 216.073 58.6728C188.834 36.0961 121.325 18.7709 69.2021 130.084Z" fill="#6A352C"/>
<path d="M146.503 345.053C146.503 383.882 113.707 415.36 73.2515 415.36C32.7958 415.36 0 383.882 0 345.053C0 306.224 32.7958 274.746 73.2515 274.746C113.707 274.746 146.503 306.224 146.503 345.053Z" fill="#FCDBCA"/>
<path d="M126.626 345.053C126.626 370.872 104.707 391.802 77.6685 391.802C50.6302 391.802 28.7114 370.872 28.7114 345.053C28.7114 319.235 50.6302 298.305 77.6685 298.305C104.707 298.305 126.626 319.235 126.626 345.053Z" fill="#F3C4AD"/>
<path d="M600 345.053C600 383.882 567.204 415.36 526.749 415.36C486.293 415.36 453.497 383.882 453.497 345.053C453.497 306.224 486.293 274.746 526.749 274.746C567.204 274.746 600 306.224 600 345.053Z" fill="#FCDBCA"/>
<path d="M577.178 345.053C577.178 370.872 555.259 391.802 528.221 391.802C501.182 391.802 479.264 370.872 479.264 345.053C479.264 319.235 501.182 298.305 528.221 298.305C555.259 298.305 577.178 319.235 577.178 345.053Z" fill="#F3C4AD"/>
<path fill-rule="evenodd" clip-rule="evenodd" d="M540.051 367.101C540.748 359.964 541.105 352.732 541.105 345.421C541.105 218.159 433.159 114.992 300 114.992C166.842 114.992 58.896 218.159 58.896 345.421C58.896 472.684 166.842 575.851 300 575.851C335.513 575.851 369.232 568.513 399.589 555.337C414.658 557.97 430.51 558.108 446.568 555.362C518.506 543.058 567.322 477.527 555.6 408.996C552.996 393.77 547.623 379.678 540.051 367.101Z" fill="url(#paint0_linear_149_19262)"/>
<path d="M206.871 152.54C175.067 202.306 94.4782 281.006 61.8402 301.619C43.4353 234.993 143.558 109.693 305.521 107.631C467.485 105.57 532.27 207.017 537.423 297.938C481.767 277.03 428.711 219.779 419.632 193.767C355.141 209.668 254.969 165.791 206.871 152.54Z" fill="#6A352C"/>
<path d="M252.515 338.795C252.515 353.026 243.945 364.562 233.374 364.562C222.803 364.562 214.233 353.026 214.233 338.795C214.233 324.565 222.803 313.029 233.374 313.029C243.945 313.029 252.515 324.565 252.515 338.795Z" fill="#4B2F23"/>
<path d="M396.81 338.795C396.81 353.026 388.24 364.562 377.668 364.562C367.097 364.562 358.527 353.026 358.527 338.795C358.527 324.565 367.097 313.029 377.668 313.029C388.24 313.029 396.81 324.565 396.81 338.795Z" fill="#4B2F23"/>
<path fill-rule="evenodd" clip-rule="evenodd" d="M296.506 423.774C284.227 431.075 275.236 442.352 270.787 450.44C269.709 452.4 267.247 453.114 265.288 452.037C263.328 450.959 262.614 448.497 263.692 446.537C268.679 437.471 278.594 425.002 292.367 416.813C306.294 408.533 324.239 404.62 344.628 413.135C346.691 413.997 347.666 416.368 346.804 418.432C345.942 420.495 343.571 421.469 341.507 420.608C323.881 413.247 308.63 416.566 296.506 423.774Z" fill="#C85353"/>
<path fill-rule="evenodd" clip-rule="evenodd" d="M296.873 340.06C298.614 340.622 299.57 342.488 299.009 344.23C297.027 350.372 293.479 356.392 290.324 361.128C288.734 363.514 287.213 365.621 286.001 367.287C285.93 367.385 285.86 367.481 285.792 367.574C284.635 369.165 283.921 370.147 283.619 370.659C283.059 371.611 282.992 372.339 283.128 372.964C283.28 373.658 283.778 374.627 285.055 375.807C287.678 378.231 292.804 380.819 300.938 383.089C302.7 383.581 303.73 385.409 303.238 387.171C302.746 388.933 300.919 389.963 299.156 389.471C290.708 387.113 284.351 384.179 280.558 380.674C278.628 378.89 277.183 376.792 276.656 374.38C276.113 371.897 276.628 369.477 277.908 367.3C278.385 366.49 279.293 365.243 280.293 363.87C280.408 363.712 280.525 363.551 280.643 363.39C281.845 361.736 283.3 359.721 284.81 357.454C287.856 352.882 291.003 347.464 292.703 342.196C293.265 340.454 295.132 339.498 296.873 340.06Z" fill="#F3C4AD"/>
<path fill-rule="evenodd" clip-rule="evenodd" d="M262.012 270.575C263.503 271.958 263.59 274.287 262.208 275.777C252.095 286.68 237.321 293.024 223.356 296.606C209.335 300.203 195.663 301.135 187.25 300.88C185.218 300.818 183.621 299.121 183.682 297.089C183.744 295.057 185.441 293.46 187.473 293.521C195.257 293.757 208.235 292.885 221.527 289.475C234.875 286.051 248.076 280.187 256.81 270.771C258.193 269.28 260.522 269.193 262.012 270.575Z" fill="#4B2F23"/>
<path fill-rule="evenodd" clip-rule="evenodd" d="M339.092 270.575C337.602 271.958 337.514 274.287 338.897 275.777C349.01 286.68 363.783 293.024 377.748 296.606C391.769 300.203 405.442 301.135 413.854 300.88C415.886 300.818 417.484 299.121 417.422 297.089C417.361 295.057 415.663 293.46 413.631 293.521C405.847 293.757 392.87 292.885 379.578 289.475C366.23 286.051 353.028 280.187 344.294 270.771C342.912 269.28 340.583 269.193 339.092 270.575Z" fill="#4B2F23"/>
<defs>
<linearGradient id="paint0_linear_149_19262" x1="416.785" y1="449.749" x2="499.364" y2="558.666" gradientUnits="userSpaceOnUse">
<stop stop-color="#FCDBCA"/>
<stop offset="1" stop-color="#FFBBBB"/>
</linearGradient>
</defs>
</svg>
