<svg width="353" height="220" viewBox="0 0 353 220" fill="none" xmlns="http://www.w3.org/2000/svg">
<g filter="url(#filter0_b_1131_33960)">
<g clip-path="url(#clip0_1131_33960)">
<rect width="353" height="220" rx="14" fill="#333D4B"/>
<mask id="mask0_1131_33960" style="mask-type:alpha" maskUnits="userSpaceOnUse" x="0" y="0" width="160" height="220">
<rect width="160" height="220" rx="14" fill="#4196FD"/>
<rect width="160" height="220" rx="14" fill="url(#paint0_linear_1131_33960)" fill-opacity="0.3"/>
</mask>
<g mask="url(#mask0_1131_33960)">
<g opacity="0.1">
<path d="M67.4871 41.2334C69.9979 46.4756 65.9144 56.6965 57.9889 60.4925C50.0634 64.2885 40.4228 60.641 37.912 55.3989C35.4012 50.1567 39.7806 42.8197 47.7061 39.0236C55.6316 35.2276 64.9667 35.9712 67.4871 41.2334Z" fill="white"/>
<path d="M57.1725 41.9413C57.0641 42.436 56.9749 42.9707 57.1255 43.4397C57.3145 43.9888 57.8044 44.3937 58.2551 44.7682C60.2655 46.3389 62.384 47.9808 64.892 48.4276C68.6489 49.1127 72.6394 46.7832 74.2538 43.3041C74.4092 42.9591 74.535 42.6037 74.5317 42.2363C74.491 41.7392 74.1606 41.3071 73.9402 40.8469C73.3068 39.576 73.4638 38.0495 72.9804 36.7313C71.7385 33.3659 66.9697 31.4436 63.7204 32.385C59.9216 33.4665 57.9933 38.3504 57.1725 41.9413Z" fill="white"/>
<path d="M62.3699 31.1133C62.1363 30.8316 61.873 30.5395 61.5373 30.4051C61.1423 30.2499 60.7027 30.3621 60.2736 30.4446C58.4758 30.8629 56.6074 31.3396 55.2131 32.5486C53.1216 34.3621 52.6542 37.6608 53.9027 40.113C54.0177 40.3531 54.1623 40.6036 54.3785 40.746C54.6732 40.9493 55.0709 40.9556 55.4276 41.0307C56.4183 41.245 57.2298 42.0124 58.1986 42.3355C60.6603 43.1489 63.8961 41.3039 64.8418 39.0553C65.9438 36.412 64.0338 33.1451 62.3804 31.0836L62.3699 31.1133Z" fill="white"/>
<path d="M42.7547 36.868C42.498 37.3107 42.2309 37.783 42.2219 38.2793C42.2111 38.8748 42.5492 39.4262 42.8786 39.908C44.2817 42.0648 45.7623 44.332 48.0171 45.5889C51.3939 47.4891 55.9758 46.549 58.6321 43.7516C58.8956 43.4778 59.1496 43.184 59.2457 42.8182C59.3742 42.3139 59.2044 41.8048 59.134 41.2974C58.9507 39.8847 59.603 38.4654 59.5592 37.035C59.4957 33.4003 55.5492 30.0019 52.1409 29.8386C48.1466 29.6363 44.7021 33.6722 42.7451 36.848L42.7547 36.868Z" fill="white"/>
<path d="M39.4257 34.4035C38.946 34.5349 38.4356 34.7055 38.091 35.0674C37.6756 35.4877 37.5549 36.1113 37.4648 36.6956C37.0117 39.2002 36.5664 41.8242 37.3579 44.2492C38.5256 47.8717 42.4403 50.2768 46.2439 50.0293C46.6024 50.0052 47.001 49.9619 47.3028 49.7681C47.7356 49.487 47.953 49.0139 48.2489 48.6016C49.0754 47.4432 50.4781 46.8697 51.4223 45.8025C53.8178 43.1301 53.2536 38.0379 50.9201 35.638C48.1865 32.8148 43.0038 33.4276 39.4554 34.4139L39.4257 34.4035Z" fill="white"/>
<path d="M42.4739 38.0354C42.1025 37.6721 41.691 37.328 41.1861 37.2009C40.6019 37.0626 40.0113 37.2716 39.4408 37.4711C37.0079 38.3658 34.4843 39.3285 32.7389 41.2468C30.1411 44.1146 30.0366 48.7891 32.1865 51.9903C32.3896 52.3112 32.6327 52.6129 32.9675 52.7969C33.4305 53.0425 33.9687 52.9816 34.485 53.0294C35.9048 53.1612 37.141 54.0941 38.5581 54.3747C42.1353 55.0966 46.3189 51.9859 47.2433 48.7143C48.3373 44.8696 45.1518 40.6393 42.4739 38.0354Z" fill="white"/>
<path d="M40.7603 42.545C40.2303 42.1593 39.6304 41.7824 38.965 41.7322C38.1906 41.6603 37.4673 42.0559 36.7747 42.4123C33.8216 44.0235 30.7673 45.7324 28.8968 48.5224C26.1159 52.7077 26.8629 58.6963 30.2466 62.4134C30.5683 62.776 30.93 63.1192 31.4044 63.2856C32.027 63.504 32.7266 63.3165 33.4034 63.2875C35.255 63.1878 37.018 64.139 38.866 64.2378C43.5755 64.4912 48.3566 59.6922 48.9327 55.3329C49.5825 50.2004 44.6975 45.3575 40.7603 42.545Z" fill="white"/>
<path d="M32.95 59.7682C32.7614 60.3013 32.5919 60.8745 32.7111 61.4323C32.8485 62.0798 33.3367 62.584 33.8056 63.0481C35.828 65.0559 37.9881 67.1452 40.7079 67.9826C44.8029 69.219 49.5345 67.1495 51.7587 63.5014C51.9839 63.1476 52.1699 62.7633 52.1971 62.3567C52.2175 61.7812 51.9186 61.2602 51.7192 60.7408C51.1792 59.2529 51.5577 57.5711 51.1878 56.0264C50.2541 52.1197 45.1918 49.3787 41.4612 49.9848C37.0923 50.6999 34.3135 55.8681 32.95 59.7682Z" fill="white"/>
<path d="M41.3669 57.9726C41.0117 58.3641 40.6661 58.7756 40.5673 59.2903C40.4571 59.8843 40.6652 60.4733 40.9039 61.0232C41.8847 63.4314 42.9134 65.9397 44.9019 67.6193C47.8799 70.1287 52.5651 70.0739 55.7488 67.811C56.0611 67.5876 56.3639 67.3442 56.5193 66.9992C56.7367 66.5261 56.6768 65.989 56.6963 65.4632C56.772 64.0248 57.6902 62.7486 57.9247 61.3326C58.5371 57.7185 55.2992 53.6364 51.9723 52.8192C48.0612 51.8637 43.9132 55.2033 41.3669 57.9726Z" fill="white"/>
<path d="M48.5515 64.3224C48.5512 64.8883 48.5805 65.4646 48.8603 65.9456C49.1984 66.497 49.8192 66.8146 50.3912 67.0818C52.9154 68.2834 55.5984 69.5074 58.4051 69.393C62.615 69.2215 66.3078 65.7555 67.1777 61.6491C67.2547 61.2432 67.3316 60.8374 67.2097 60.4284C67.0504 59.8898 66.5997 59.5153 66.2397 59.0727C65.247 57.8755 65.0586 56.1947 64.2168 54.9006C62.0791 51.5706 56.4856 50.7075 53.2411 52.4829C49.434 54.577 48.5554 60.2618 48.5419 64.3024L48.5515 64.3224Z" fill="white"/>
<path d="M62.6509 48.5431C62.2951 48.4183 61.9193 48.3031 61.5399 48.3865C61.1107 48.469 60.7765 48.8013 60.4624 49.1239C59.1351 50.473 57.7468 51.9005 57.1973 53.6888C56.3725 56.3961 57.748 59.5254 60.1684 60.9735C60.4047 61.1064 60.6706 61.2496 60.9192 61.2535C61.2968 61.2694 61.6388 61.0564 61.9991 60.9331C62.99 60.5814 64.0896 60.8173 65.1084 60.5753C67.6956 59.9511 69.5167 56.5944 69.1037 54.1356C68.6386 51.259 65.2006 49.4373 62.6308 48.5527L62.6509 48.5431Z" fill="white"/>
<path d="M59.1176 50.3314C59.0301 50.7669 58.9522 51.2224 59.0837 51.6514C59.2439 52.1404 59.685 52.4949 60.0869 52.8189C61.8523 54.1872 63.7363 55.5971 65.9471 55.9895C69.2583 56.5682 72.7471 54.479 74.125 51.433C74.2594 51.1472 74.3747 50.8214 74.361 50.4837C74.3193 50.0362 74.0378 49.6545 73.8261 49.264C73.2694 48.1531 73.393 46.8148 72.9567 45.6462C71.8366 42.6898 67.6398 41.0347 64.7901 41.8831C61.4605 42.8629 59.7916 47.1552 59.1176 50.3314Z" fill="white"/>
<path d="M60.1534 38.3254C59.8392 38.648 59.5346 38.9907 59.4271 39.4357C59.2987 39.94 59.4781 40.4691 59.6584 40.9485C60.4256 43.0654 61.2608 45.2728 62.9442 46.7788C65.4496 49.0225 69.5155 49.1168 72.324 47.2551C72.6058 47.0709 72.878 46.8667 73.0125 46.5809C73.2185 46.1871 73.1873 45.71 73.2155 45.2538C73.3374 44.0147 74.1525 42.9355 74.4035 41.7084C75.0365 38.6009 72.3478 34.9445 69.478 34.1544C66.1137 33.2075 62.4135 35.9883 60.1438 38.3054L60.1534 38.3254Z" fill="white"/>
<path d="M-4.70865 97.0067C24.97 119.875 68.824 109.855 95.5255 87.3298C113.222 72.3899 132.659 40.338 120.684 16.621C117.482 10.2561 107.669 15.5237 110.898 21.9053C120.444 40.832 101.333 67.9594 87.8927 79.2771C64.6416 98.8442 26.8742 107.438 1.18451 87.6113C-4.47895 83.2481 -10.3405 92.6818 -4.72534 97.0334L-4.70865 97.0067Z" fill="white"/>
<path d="M0.764969 19.3935L0.744915 19.4031C-3.35518 21.3669 -5.09145 26.2733 -3.13316 30.3619L1.35181 39.7258C3.3101 43.8144 8.2214 45.5369 12.3215 43.5731L12.3415 43.5635C16.4416 41.5997 18.1779 36.6932 16.2196 32.6046L11.7347 23.2407C9.77636 19.1522 4.86507 17.4297 0.764969 19.3935Z" fill="white"/>
<path d="M60.4389 -9.18844L60.4188 -9.17882C56.3187 -7.21501 54.5824 -2.30858 56.5407 1.78002L61.0257 11.1439C62.984 15.2325 67.8953 16.955 71.9954 14.9912L72.0155 14.9815C76.1156 13.0177 77.8518 8.1113 75.8935 4.02271L71.4086 -5.34116C69.4503 -9.42975 64.539 -11.1522 60.4389 -9.18844Z" fill="white"/>
</g>
</g>
<path d="M28.1641 104.754C28.1533 107.912 29.7861 111.296 33.0625 112.66L31.5801 114.809C29.2812 113.831 27.6914 111.887 26.8105 109.523C25.9297 112.091 24.3076 114.239 21.998 115.303L20.4297 113.133C23.6738 111.683 25.3496 108.062 25.3496 104.754V103.551H21.2031V101.316H32.2461V103.551H28.1641V104.754ZM34.1797 118.977V99.4258H36.9512V118.977H34.1797ZM55.3633 100.307V101.875C55.374 103.4 55.374 105.087 54.9014 107.332H57.4902V109.545H39.5938V107.332H52.1406C52.5596 105.388 52.6133 103.873 52.6348 102.498H41.7852V100.307H55.3633ZM41.7207 118.762V111.607H55.2988V118.762H41.7207ZM44.4062 116.57H52.5703V113.756H44.4062V116.57ZM79.1895 99.4258V105.033H81.832V107.311H79.1895V113.67H76.4395V99.4258H79.1895ZM63.8066 105.656C63.7959 102.745 66.1699 100.683 69.1777 100.693C72.1748 100.683 74.5059 102.745 74.5059 105.656C74.5059 108.524 72.1748 110.619 69.1777 110.619C66.1699 110.619 63.7959 108.524 63.8066 105.656ZM66.5137 118.633V112.166H69.2422V116.441H79.8984V118.633H66.5137ZM66.5137 105.656C66.4922 107.246 67.6846 108.234 69.1777 108.234C70.6816 108.234 71.8311 107.246 71.8418 105.656C71.8311 104.023 70.6816 103.067 69.1777 103.078C67.6846 103.067 66.4922 104.023 66.5137 105.656ZM97.7305 100.693V109.266H88.3418V100.693H97.7305ZM89.502 116.807C93.0146 116.377 94.9268 114.98 95.3672 113.477H90.3398V111.307H103.51V113.477H98.5039C98.9551 114.938 100.899 116.388 104.369 116.85L103.402 118.934C100.266 118.515 98.0527 117.269 96.9248 115.593C95.8076 117.269 93.6162 118.493 90.4902 118.891L89.502 116.807ZM91.0488 107.096H95.0234V102.863H91.0488V107.096ZM100.523 110.383V99.4258H103.273V103.68H105.916V105.914H103.273V110.383H100.523ZM115.691 100.414C119.816 100.425 123.05 102.659 123.061 106.043C123.05 109.459 119.816 111.683 115.691 111.672C111.556 111.683 108.344 109.459 108.344 106.043C108.344 102.659 111.556 100.425 115.691 100.414ZM106.775 116.592V114.379H124.672V116.592H106.775ZM111.008 106.043C110.997 108.17 112.974 109.438 115.691 109.438C118.388 109.438 120.343 108.17 120.354 106.043C120.343 103.948 118.388 102.627 115.691 102.648C112.974 102.627 110.997 103.948 111.008 106.043ZM135.887 101.016V102.498H139.539V99.4473H142.268V113.67H139.539V108.879H135.887V110.533H126.605V101.016H135.887ZM129.248 118.633V112.316H132.02V116.441H142.676V118.633H129.248ZM129.334 108.406H133.201V103.186H129.334V108.406ZM135.887 106.709H139.539V104.711H135.887V106.709ZM37.4883 129.445V131.658H21.4395V129.445H28.1211V127.404H30.8496V129.445H37.4883ZM20.5801 142.293V140.059H38.4766V142.293H30.8496V146.998H28.1211V142.293H20.5801ZM22.75 135.762C22.7393 133.592 25.2637 132.41 29.4961 132.41C33.6963 132.41 36.2314 133.592 36.2422 135.762C36.2314 137.921 33.6963 139.103 29.4961 139.113C25.2637 139.103 22.7393 137.921 22.75 135.762ZM25.5859 135.762C25.5859 136.653 26.875 137.072 29.4961 137.072C32.085 137.072 33.3848 136.653 33.3848 135.762C33.3848 134.87 32.085 134.44 29.4961 134.43C26.875 134.44 25.5859 134.87 25.5859 135.762ZM56.0293 127.426V146.977H53.3008V127.426H56.0293ZM39.6797 141.455C41.1729 141.444 42.8809 141.444 44.6641 141.401V139.747C42.5264 139.36 41.1299 138.028 41.1406 136.191C41.1299 134.011 43.1172 132.518 45.9961 132.518C48.8965 132.518 50.916 134.011 50.916 136.191C50.916 138.018 49.5195 139.35 47.3711 139.747V141.305C49.0146 141.229 50.6582 141.101 52.2266 140.896L52.4199 142.916C48.1338 143.657 43.5254 143.7 40.0449 143.689L39.6797 141.455ZM40.0664 131.744V129.596H44.6641V127.512H47.3926V129.596H51.9473V131.744H40.0664ZM43.7402 136.191C43.7295 137.223 44.6641 137.781 45.9961 137.781C47.3711 137.781 48.2949 137.223 48.2949 136.191C48.2949 135.182 47.3711 134.612 45.9961 134.602C44.6641 134.612 43.7295 135.182 43.7402 136.191ZM74.1191 127.447V133.441H76.7617V135.676H74.1191V142.035H71.3691V127.447H74.1191ZM58.6074 131.658V129.488H63.0547V127.404H65.7832V129.488H70.209V131.658H58.6074ZM59.5527 136.127C59.5527 133.86 61.5615 132.346 64.4082 132.346C67.2441 132.346 69.2207 133.86 69.2207 136.127C69.2207 138.383 67.2441 139.865 64.4082 139.865C61.5615 139.865 59.5527 138.383 59.5527 136.127ZM61.4434 146.633V140.918H64.1719V144.441H74.8281V146.633H61.4434ZM62.2383 136.127C62.2275 137.201 63.0977 137.781 64.4082 137.781C65.7295 137.781 66.6211 137.201 66.6211 136.127C66.6211 135.042 65.7295 134.44 64.4082 134.43C63.0977 134.44 62.2275 135.042 62.2383 136.127ZM93.0469 127.426V134.688H95.9258V136.922H93.0469V147.02H90.2969V127.426H93.0469ZM78.3945 142.271V129.23H87.5684V131.443H81.123V140.016C83.959 139.994 86.3008 139.844 88.9004 139.393L89.2012 141.691C86.1611 142.207 83.4971 142.282 80.0488 142.271H78.3945ZM112.254 139.607V146.762H98.6973V139.607H112.254ZM96.6777 137.996V135.848H103.338V132.496H106.045V135.848H114.424V137.996H96.6777ZM98.6758 130.369V128.221H112.318V129.811C112.308 131.336 112.308 132.969 111.781 134.988L109.074 134.73C109.515 132.99 109.568 131.69 109.59 130.369H98.6758ZM101.404 144.57H109.568V141.734H101.404V144.57ZM118.184 145.193C117.174 145.193 116.357 144.388 116.379 143.389C116.357 142.4 117.174 141.595 118.184 141.605C119.14 141.595 119.967 142.4 119.967 143.389C119.967 144.388 119.14 145.193 118.184 145.193ZM124.393 145.193C123.383 145.193 122.566 144.388 122.588 143.389C122.566 142.4 123.383 141.595 124.393 141.605C125.349 141.595 126.176 142.4 126.176 143.389C126.176 144.388 125.349 145.193 124.393 145.193ZM130.602 145.193C129.592 145.193 128.775 144.388 128.797 143.389C128.775 142.4 129.592 141.595 130.602 141.605C131.558 141.595 132.385 142.4 132.385 143.389C132.385 144.388 131.558 145.193 130.602 145.193Z" fill="white"/>
<path d="M24.2539 163.59C24.248 165.348 25.4023 167.164 27.0195 167.855L26.4102 168.723C25.1738 168.178 24.1895 167.018 23.7031 165.617C23.2168 167.117 22.2324 168.395 21.0078 168.992L20.3633 168.113C21.9453 167.369 23.1172 165.4 23.1289 163.59V162.477H20.7266V161.551H26.6445V162.477H24.2539V163.59ZM27.9688 170.996V160.496H29.082V170.996H27.9688ZM39.1484 161.023V161.82C39.1543 162.641 39.1543 163.59 38.8789 164.855H40.3672V165.77H30.7578V164.855H37.7539C38.0352 163.631 38.0469 162.734 38.0469 161.938H31.9648V161.023H39.1484ZM31.9297 170.867V167.105H39.1602V170.867H31.9297ZM33.0195 169.965H38.0586V167.984H33.0195V169.965ZM52.5898 160.953V161.469C52.5898 162.137 52.5898 163.203 52.2852 164.609L51.1953 164.48C51.4473 163.332 51.4883 162.477 51.5059 161.844H48.9688V160.953H52.5898ZM44.0703 166.32V165.418H48.5V163.391H49.6016V165.418H53.6211V166.32H44.0703ZM44.8789 161.844V160.953H48.1133V161.34C48.1016 161.967 48.1016 163.098 47.5977 164.621L46.5312 164.469C46.9004 163.303 46.9883 162.447 47.0117 161.844H44.8789ZM45.1133 168.254V167.352H52.4375V170.938H51.3008V168.254H45.1133ZM62.6797 161.199V165.723H57.7695V161.199H62.6797ZM58.3789 170.094C60.1777 169.836 61.5195 168.951 61.6895 167.926H58.8008V167.035H65.7734V167.926H62.8965C63.0547 168.928 64.4199 169.836 66.207 170.105L65.7969 170.961C64.2031 170.715 62.8906 169.982 62.2812 168.986C61.6836 169.988 60.3828 170.709 58.7891 170.949L58.3789 170.094ZM58.8594 164.832H61.5898V162.09H58.8594V164.832ZM64.4961 166.449V160.496H65.6094V162.934H67.1328V163.859H65.6094V166.449H64.4961ZM70.543 161.281C72.1133 161.287 73.2324 162.717 73.2383 164.961C73.2324 167.229 72.1133 168.658 70.543 168.652C68.9727 168.658 67.8535 167.229 67.8594 164.961C67.8535 162.717 68.9727 161.287 70.543 161.281ZM68.9258 164.961C68.9199 166.631 69.5879 167.656 70.543 167.656C71.5156 167.656 72.1719 166.631 72.1719 164.961C72.1719 163.314 71.5156 162.283 70.543 162.277C69.5879 162.283 68.9199 163.314 68.9258 164.961ZM74.7969 170.996V160.496H75.9102V164.609H77.5977V165.547H75.9102V170.996H74.7969ZM80.9141 161.281C82.4844 161.287 83.6035 162.717 83.6094 164.961C83.6035 167.229 82.4844 168.658 80.9141 168.652C79.3438 168.658 78.2246 167.229 78.2305 164.961C78.2246 162.717 79.3438 161.287 80.9141 161.281ZM79.2969 164.961C79.291 166.631 79.959 167.656 80.9141 167.656C81.8867 167.656 82.543 166.631 82.543 164.961C82.543 163.314 81.8867 162.283 80.9141 162.277C79.959 162.283 79.291 163.314 79.2969 164.961ZM85.168 170.996V160.496H86.2812V163.062H87.9102V164.012H86.2812V166.191H87.9102V167.105H86.2812V170.996H85.168ZM93.793 161.422V166.32H88.8828V161.422H93.793ZM89.9727 165.441H92.7031V162.324H89.9727V165.441ZM90.0664 170.773V167.445H91.1797V169.871H97.168V170.773H90.0664ZM95.6094 168.184V160.484H96.7227V163.625H98.2461V164.562H96.7227V168.184H95.6094ZM109.953 160.496V164.75H111.641V165.676H109.953V170.996H108.852V160.496H109.953ZM101.715 163.051V162.137H104.305V160.637H105.418V162.137H107.938V163.051H101.715ZM102.254 166.262C102.254 164.832 103.355 163.824 104.867 163.824C106.373 163.824 107.475 164.832 107.48 166.262C107.475 167.703 106.373 168.705 104.867 168.711C103.355 168.705 102.254 167.703 102.254 166.262ZM103.32 166.262C103.314 167.176 103.971 167.785 104.867 167.773C105.758 167.785 106.408 167.176 106.414 166.262C106.408 165.365 105.758 164.744 104.867 164.738C103.971 164.744 103.314 165.365 103.32 166.262ZM120.641 163.566V164.457H113.41V160.871H114.512V163.566H120.641ZM112.133 166.672V165.781H121.742V166.672H112.133ZM113.328 170.75V167.668H114.441V169.836H120.711V170.75H113.328ZM29.1172 178.496V183.922H27.9922V178.496H29.1172ZM20.5625 182.715C20.9609 182.715 21.3945 182.709 21.8398 182.703V180.066H20.8438V179.188H26.5508V180.066H25.543V182.551C26.0527 182.516 26.5566 182.469 27.0312 182.41L27.0781 183.219C24.9805 183.535 22.5371 183.611 20.6914 183.605L20.5625 182.715ZM22.1445 185.281V184.402H29.1172V187.004H23.2695V188H29.4805V188.891H22.1797V186.195H28.0156V185.281H22.1445ZM22.9062 182.68C23.4219 182.662 23.9492 182.645 24.4766 182.615V180.066H22.9062V182.68ZM36.1367 179.422C36.1309 180.816 37.8359 182.123 39.8984 182.398L39.4648 183.312C37.748 183.037 36.2422 182.146 35.5566 180.91C34.8711 182.146 33.3652 183.037 31.6602 183.312L31.2148 182.398C33.2715 182.123 34.9707 180.834 34.9766 179.422V178.848H36.1367V179.422ZM30.7578 185.258V184.344H40.332V185.258H36.0664V188.996H34.9766V185.258H30.7578ZM45.5586 179.164V180.77H47.5859V179.164H48.6172V184.121H44.5039V179.164H45.5586ZM45.5586 183.219H47.5859V181.637H45.5586V183.219ZM45.875 186.301V185.398H53.0117V188.996H51.9102V186.301H45.875ZM49.6953 184.742V178.695H50.7266V181.18H51.957V178.508H53.0117V184.812H51.957V182.094H50.7266V184.742H49.6953ZM63.1367 178.508V186.195H62.0234V178.508H63.1367ZM54.4883 183.828C56.1348 183.219 57.1074 181.707 57.1133 180.125V179.082H58.25V180.125C58.2441 181.66 59.2168 183.066 60.8398 183.629L60.2656 184.52C59.0527 184.068 58.1562 183.178 57.6875 182.041C57.2246 183.26 56.3164 184.232 55.0859 184.707L54.4883 183.828ZM56.2695 188.773V185.469H57.3945V187.871H63.4531V188.773H56.2695ZM69.582 178.672C71.9492 178.666 73.3262 179.305 73.332 180.477C73.3262 181.654 71.9492 182.293 69.582 182.293C67.2148 182.293 65.8262 181.654 65.832 180.477C65.8262 179.305 67.2148 178.666 69.582 178.672ZM64.8008 183.828V182.938H74.375V183.828H64.8008ZM65.9492 185.469V184.637H73.168V187.098H67.0508V188.035H73.4609V188.891H65.9609V186.289H72.0664V185.469H65.9492ZM66.9922 180.477C66.9863 181.127 67.9121 181.461 69.582 181.461C71.2637 181.461 72.1895 181.127 72.1836 180.477C72.1895 179.855 71.2637 179.492 69.582 179.492C67.9121 179.492 66.9863 179.855 66.9922 180.477ZM87.6758 184.824V185.738H83.4336V189.008H82.332V185.738H78.1016V184.824H87.6758ZM78.6641 183.207C80.6562 182.955 82.2617 181.842 82.332 180.664H79.0039V179.762H82.332V178.496H83.4336V179.762H86.7617V180.664H83.4453C83.5039 181.83 85.0918 182.955 87.0898 183.207L86.6914 184.098C85.0039 183.863 83.5684 183.072 82.8887 182C82.209 183.084 80.7676 183.863 79.0742 184.098L78.6641 183.207ZM92.1523 180.992C92.1523 182.316 93.1426 183.535 94.7539 184.039L94.2148 184.918C93.0078 184.537 92.0996 183.74 91.6191 182.715C91.1621 183.811 90.2539 184.672 89.0117 185.082L88.4727 184.215C90.0781 183.699 91.0508 182.404 91.0508 180.992V180.746H88.7656V179.844H91.0508V178.566H92.1641V179.844H94.4375V180.746H92.1523V180.992ZM90.4062 188.773V185.633H91.5195V187.871H97.5078V188.773H90.4062ZM94.0742 182.586V181.684H96.1133V178.508H97.2266V186.324H96.1133V182.586H94.0742ZM107.094 178.461V180.922H108.629V181.836H107.094V184.238H105.98V178.461H107.094ZM98.8555 180.266V179.387H101.434V178.402H102.547V179.387H105.113V180.266H98.8555ZM99.4297 182.387C99.4238 181.326 100.443 180.664 101.984 180.664C103.525 180.664 104.527 181.326 104.527 182.387C104.527 183.453 103.525 184.104 101.984 184.098C100.443 184.104 99.4238 183.453 99.4297 182.387ZM100.309 185.562V184.73H107.094V187.168H101.422V188.047H107.457V188.891H100.332V186.383H105.992V185.562H100.309ZM100.508 182.387C100.496 182.955 101.076 183.289 101.984 183.289C102.887 183.289 103.473 182.955 103.484 182.387C103.473 181.818 102.887 181.467 101.984 181.461C101.076 181.467 100.496 181.818 100.508 182.387ZM118.238 178.496V188.996H117.184V178.496H118.238ZM109.18 185.961C111.406 184.637 112.473 182.873 112.666 180.711H109.672V179.797H113.773C113.768 180.822 113.627 181.801 113.305 182.715H114.969V178.766H116.023V188.48H114.969V183.605H112.918C112.297 184.824 111.295 185.891 109.812 186.758L109.18 185.961ZM129.195 186.758V187.684H119.586V186.758H121.883V184.016C121.021 183.541 120.494 182.791 120.5 181.848C120.494 180.195 122.117 179.111 124.367 179.105C126.623 179.111 128.246 180.195 128.246 181.848C128.246 182.773 127.742 183.518 126.898 183.992V186.758H129.195ZM121.578 181.848C121.578 182.973 122.721 183.705 124.367 183.711C126.002 183.705 127.162 182.973 127.168 181.848C127.162 180.717 126.002 179.996 124.367 179.996C122.721 179.996 121.578 180.717 121.578 181.848ZM122.984 186.758H125.773V184.426C125.346 184.525 124.871 184.578 124.367 184.578C123.875 184.578 123.406 184.525 122.984 184.426V186.758ZM131.891 179.516L131.785 185.551H130.625L130.52 179.516H131.891ZM130.379 187.25C130.373 186.793 130.754 186.418 131.211 186.418C131.662 186.418 132.037 186.793 132.043 187.25C132.037 187.707 131.662 188.076 131.211 188.082C130.754 188.076 130.373 187.707 130.379 187.25Z" fill="white" fill-opacity="0.6"/>
<g clip-path="url(#clip1_1131_33960)">
<path d="M251.568 49.6134C251.568 41.5428 245.027 35.0002 236.958 35.0002C228.89 35.0002 222.349 41.5428 222.349 49.6134V69.563C222.349 77.6336 228.89 84.1762 236.958 84.1762C245.027 84.1762 251.568 77.6336 251.568 69.563V49.6134Z" fill="white"/>
<path d="M296.889 49.6134C296.889 41.5428 290.348 35.0002 282.279 35.0002C274.211 35.0002 267.67 41.5428 267.67 49.6134V69.563C267.67 77.6336 274.211 84.1762 282.279 84.1762C290.348 84.1762 296.889 77.6336 296.889 69.563V49.6134Z" fill="white"/>
<path d="M247.282 50.9522C247.282 45.2489 242.66 40.6255 236.958 40.6255C231.257 40.6255 226.635 45.2489 226.635 50.9522V65.0519C226.635 70.7552 231.257 75.3786 236.958 75.3786C242.66 75.3786 247.282 70.7552 247.282 65.0519V50.9522Z" fill="#E9ECF2"/>
<path d="M292.603 50.9522C292.603 45.2489 287.981 40.6255 282.279 40.6255C276.578 40.6255 271.956 45.2489 271.956 50.9522V65.0519C271.956 70.7552 276.578 75.3786 282.279 75.3786C287.981 75.3786 292.603 70.7552 292.603 65.0519V50.9522Z" fill="#E9ECF2"/>
<path d="M252.901 42.1658H266.342C283.205 42.1658 296.895 55.8559 296.895 72.719V168.031H222.349V72.719C222.349 55.8559 236.038 42.1658 252.901 42.1658Z" fill="white"/>
<path d="M242.407 90.0723C241.721 90.1011 240.18 90.1703 239.459 89.1607C238.836 88.2954 238.963 86.83 239.684 85.9704C240.982 84.4243 243.244 85.9877 246.371 84.8224C249.595 83.6224 250.801 80.6167 251.234 80.9051C251.649 81.1763 250.651 84.0089 248.701 86.3396C247.969 87.2165 245.701 89.9338 242.407 90.0723Z" fill="#4196FD"/>
<path d="M222.349 105.095C222.349 105.095 225.003 117.435 206.386 147.158C187.77 176.88 191.364 220.322 191.364 220.322C227.991 220.396 264.624 220.466 301.251 220.541C302.093 211.835 302.589 202.374 302.52 192.261C302.387 171.884 299.999 153.827 296.895 138.665C272.048 127.473 247.201 116.287 222.355 105.095H222.349Z" fill="white"/>
<path d="M254.453 92.0911C254.453 92.0911 260.948 81.874 269.729 85.9066" stroke="black" stroke-width="2.48633" stroke-linecap="round" stroke-linejoin="round"/>
<path d="M259.489 78.6317C259.489 80.1432 257.389 82.0816 255.11 82.0816C252.832 82.0816 250.986 80.1432 250.986 78.6317C250.986 77.1202 252.832 75.8914 255.11 75.8914C257.389 75.8914 259.489 77.1144 259.489 78.6317Z" fill="black"/>
<path d="M256.997 77.6454C256.916 77.7493 256.835 77.8647 256.818 77.9916C256.801 78.1416 256.87 78.2916 256.933 78.43C257.228 79.0243 257.539 79.6473 258.076 80.0339C258.878 80.6165 260.072 80.5185 260.839 79.8839C260.914 79.8204 260.983 79.7512 261.024 79.6646C261.07 79.5435 261.041 79.405 261.041 79.2723C261.035 78.9031 261.243 78.5627 261.277 78.1993C261.364 77.2705 260.464 76.2839 259.599 76.1397C258.589 75.9666 257.591 76.8955 256.997 77.6454Z" fill="black"/>
<path d="M259.425 75.6838C259.402 75.5915 259.373 75.4935 259.31 75.4242C259.235 75.3435 259.12 75.3204 259.01 75.2915C258.543 75.1877 258.052 75.0896 257.591 75.2165C256.899 75.4069 256.42 76.1281 256.437 76.8434C256.437 76.9127 256.443 76.9877 256.477 77.0454C256.524 77.1261 256.616 77.1723 256.691 77.23C256.899 77.3915 257.002 77.6627 257.193 77.8473C257.677 78.3146 258.641 78.2453 259.114 77.8242C259.668 77.328 259.587 76.3473 259.431 75.6781L259.425 75.6838Z" fill="black"/>
<path d="M254.193 74.8302C254.083 74.9051 253.968 74.9859 253.91 75.1013C253.841 75.2398 253.858 75.4071 253.882 75.5571C253.968 76.2205 254.06 76.9186 254.447 77.4666C255.024 78.2916 256.201 78.5858 257.135 78.2282C257.228 78.1935 257.32 78.1532 257.383 78.0782C257.47 77.9743 257.487 77.8359 257.528 77.7089C257.643 77.357 257.954 77.0974 258.104 76.757C258.497 75.8974 257.954 74.6571 257.176 74.2359C256.264 73.7398 255.006 74.2994 254.193 74.8244V74.8302Z" fill="black"/>
<path d="M253.691 73.8838C253.564 73.8608 253.426 73.8435 253.304 73.8896C253.16 73.9415 253.062 74.0742 252.976 74.2011C252.589 74.7377 252.191 75.303 252.104 75.9607C251.972 76.9415 252.618 77.9453 253.535 78.3145C253.622 78.3491 253.72 78.3838 253.812 78.3722C253.945 78.3549 254.049 78.2684 254.164 78.2049C254.487 78.0261 254.879 78.0491 255.22 77.9049C256.079 77.5472 256.518 76.2896 256.241 75.4646C255.918 74.4954 254.637 74.0569 253.697 73.8896L253.691 73.8838Z" fill="black"/>
<path d="M253.997 75.0721C253.951 74.9452 253.893 74.8183 253.789 74.7317C253.668 74.6337 253.507 74.6164 253.351 74.5991C252.682 74.5356 251.984 74.4779 251.361 74.7317C250.432 75.1125 249.884 76.1971 250.028 77.1894C250.04 77.2875 250.063 77.3855 250.12 77.4663C250.201 77.5759 250.334 77.6221 250.449 77.6913C250.766 77.8817 250.951 78.2394 251.251 78.4644C252.007 79.0355 253.334 78.7759 253.916 78.1124C254.603 77.3336 254.332 75.9836 253.997 75.0721Z" fill="black"/>
<path d="M253.091 75.9431C253.01 75.7931 252.912 75.6373 252.762 75.5508C252.589 75.4469 252.376 75.4585 252.174 75.4642C251.303 75.5104 250.397 75.5681 249.647 76.0123C248.528 76.6815 248.032 78.17 248.407 79.4219C248.441 79.543 248.488 79.6642 248.58 79.7565C248.701 79.8776 248.886 79.9122 249.047 79.9815C249.491 80.1661 249.797 80.5872 250.218 80.818C251.291 81.4064 252.947 80.818 253.57 79.8603C254.297 78.7296 253.697 77.045 253.091 75.9431Z" fill="black"/>
<path d="M249.336 79.0989C249.232 79.2027 249.128 79.3181 249.093 79.4623C249.053 79.6296 249.111 79.8027 249.168 79.9642C249.417 80.6623 249.688 81.395 250.23 81.8969C251.049 82.6469 252.388 82.693 253.316 82.0873C253.409 82.0296 253.495 81.9603 253.547 81.868C253.616 81.7353 253.605 81.5796 253.616 81.4353C253.657 81.0257 253.934 80.6738 254.02 80.27C254.239 79.2489 253.362 78.0373 252.422 77.7604C251.32 77.4373 250.091 78.3373 249.336 79.0989Z" fill="black"/>
<path d="M251.505 79.6296C251.378 79.6815 251.251 79.7392 251.17 79.8488C251.078 79.9757 251.061 80.1373 251.055 80.293C251.014 80.968 250.974 81.6718 251.251 82.2891C251.666 83.2122 252.768 83.7257 253.766 83.5526C253.864 83.5353 253.962 83.5122 254.037 83.4487C254.141 83.3622 254.187 83.2295 254.251 83.1084C254.43 82.7795 254.787 82.5834 255.001 82.2776C255.549 81.4988 255.249 80.1776 254.562 79.6123C253.755 78.9488 252.411 79.2661 251.505 79.6296Z" fill="black"/>
<path d="M252.474 81.9266C252.41 82.0593 252.353 82.1977 252.364 82.342C252.382 82.5093 252.491 82.6535 252.595 82.7804C253.051 83.3458 253.541 83.9342 254.21 84.2227C255.214 84.6554 256.466 84.2573 257.129 83.3919C257.193 83.3054 257.256 83.2189 257.274 83.1092C257.297 82.965 257.233 82.8266 257.199 82.6823C257.101 82.29 257.245 81.8747 257.193 81.4766C257.066 80.4555 255.854 79.6247 254.897 79.6766C253.772 79.7401 252.93 80.9747 252.474 81.9208V81.9266Z" fill="black"/>
<path d="M257.539 79.8088C257.47 79.7395 257.395 79.6703 257.296 79.6472C257.187 79.6184 257.071 79.6588 256.962 79.6991C256.5 79.8664 256.016 80.0453 255.687 80.403C255.191 80.9453 255.162 81.8337 255.566 82.4452C255.606 82.5029 255.652 82.5664 255.71 82.5952C255.797 82.6414 255.9 82.6298 255.998 82.6414C256.27 82.6702 256.5 82.8491 256.766 82.9068C257.441 83.051 258.243 82.4683 258.421 81.8452C258.635 81.1183 258.035 80.3049 257.533 79.8088H257.539Z" fill="black"/>
<path d="M256.512 79.8318C256.443 79.9242 256.374 80.0222 256.357 80.1376C256.339 80.2703 256.403 80.403 256.46 80.5241C256.72 81.0434 257.003 81.5857 257.476 81.926C258.185 82.4337 259.235 82.3356 259.899 81.776C259.962 81.7241 260.026 81.6607 260.06 81.5799C260.101 81.4703 260.078 81.3491 260.072 81.2337C260.066 80.9107 260.245 80.6107 260.274 80.2876C260.343 79.4684 259.547 78.6088 258.785 78.4876C257.897 78.3434 257.026 79.1626 256.512 79.8318Z" fill="black"/>
<path d="M258.099 77.1259C257.989 77.1663 257.879 77.2124 257.804 77.3047C257.718 77.4086 257.701 77.5528 257.689 77.6855C257.631 78.2682 257.579 78.8797 257.804 79.422C258.139 80.2297 259.079 80.7085 259.945 80.5874C260.031 80.5758 260.118 80.5585 260.181 80.5066C260.274 80.4374 260.32 80.322 260.377 80.2181C260.545 79.9412 260.856 79.7797 261.052 79.5201C261.549 78.8624 261.329 77.7028 260.747 77.1951C260.066 76.5951 258.889 76.8317 258.099 77.1201V77.1259Z" fill="black"/>
<path d="M245.032 66.0146H245.026C243.847 66.0146 242.892 66.9703 242.892 68.1492V70.8492C242.892 72.0281 243.847 72.9837 245.026 72.9837H245.032C246.211 72.9837 247.167 72.0281 247.167 70.8492V68.1492C247.167 66.9703 246.211 66.0146 245.032 66.0146Z" fill="black"/>
<path d="M262.189 66.0146H262.183C261.004 66.0146 260.048 66.9703 260.048 68.1492V70.8492C260.048 72.0281 261.004 72.9837 262.183 72.9837H262.189C263.367 72.9837 264.323 72.0281 264.323 70.8492V68.1492C264.323 66.9703 263.367 66.0146 262.189 66.0146Z" fill="black"/>
<path d="M341.865 102.481C341.986 101.979 341.974 101.454 341.83 100.964C341.686 100.468 341.409 100.024 341.034 99.6716C340.699 99.3947 340.307 99.1985 339.88 99.112C339.453 99.0197 339.015 99.037 338.599 99.1582C338.461 99.1985 338.311 99.2101 338.167 99.187C338.022 99.1639 337.884 99.1062 337.769 99.0197L335.928 97.6524C335.588 97.3986 335.323 97.0524 335.173 96.6601C335.023 96.2621 334.994 95.8294 335.08 95.414C335.207 94.8544 335.288 94.289 335.328 93.7179C335.415 92.4718 335.288 91.2256 334.965 90.0199C334.855 89.6045 334.873 89.1603 335.011 88.7564C335.149 88.3468 335.409 87.9892 335.749 87.7295L337.567 86.3161C337.665 86.2411 337.786 86.1834 337.907 86.1603C338.034 86.1373 338.161 86.143 338.282 86.1719C338.772 86.2988 339.286 86.2642 339.753 86.0738C340.22 85.8834 340.613 85.543 340.872 85.1046C341.132 84.6719 341.236 84.1642 341.178 83.6623C341.12 83.1604 340.901 82.6931 340.555 82.3239C340.266 82.0124 339.897 81.7816 339.488 81.672C339.078 81.5624 338.645 81.5681 338.236 81.6893C337.838 81.8047 337.474 82.0239 337.192 82.3239C336.903 82.6239 336.707 82.9989 336.609 83.4027C336.58 83.5239 336.522 83.6392 336.447 83.7373C336.367 83.8354 336.269 83.9104 336.153 83.9623L334.036 84.9084C333.644 85.0873 333.211 85.145 332.79 85.0758C332.369 85.0065 331.971 84.8219 331.653 84.5335C330.465 83.4316 329.052 82.595 327.517 82.0816C327.102 81.9374 326.738 81.672 326.473 81.3201C326.208 80.9681 326.058 80.547 326.035 80.1085L325.977 78.9663C325.971 78.7932 326 78.6201 326.069 78.4643C326.138 78.3086 326.242 78.1643 326.375 78.0547C326.854 77.6451 327.2 77.1086 327.367 76.5028C327.534 75.8971 327.523 75.2567 327.327 74.6625C327.131 74.0683 326.761 73.5433 326.265 73.1568C325.769 72.7702 325.169 72.5452 324.546 72.4991C323.917 72.4587 323.294 72.6029 322.752 72.9145C322.21 73.226 321.771 73.6991 321.494 74.2587C321.217 74.824 321.119 75.4529 321.2 76.0759C321.287 76.699 321.552 77.2817 321.973 77.749C322.089 77.8759 322.175 78.0317 322.227 78.199C322.273 78.3663 322.285 78.5393 322.256 78.7124L321.95 80.3105C321.869 80.7143 321.679 81.0835 321.402 81.3835C321.125 81.6835 320.773 81.9085 320.381 82.0239C318.673 82.572 317.11 83.5123 315.829 84.77C315.529 85.0584 315.149 85.2488 314.739 85.3296C314.329 85.4104 313.908 85.3757 313.516 85.2257L311.081 84.32C310.96 84.2738 310.856 84.2046 310.764 84.1123C310.678 84.02 310.614 83.9104 310.574 83.7835C310.424 83.2873 310.118 82.8489 309.697 82.5431C309.276 82.2373 308.768 82.0758 308.249 82.0816C307.73 82.0873 307.228 82.272 306.818 82.5893C306.409 82.9123 306.12 83.3566 305.987 83.8585C305.872 84.2796 305.872 84.7181 305.993 85.1392C306.114 85.5546 306.357 85.9296 306.685 86.218C307.003 86.5007 307.384 86.6969 307.805 86.7834C308.22 86.8699 308.653 86.8411 309.057 86.7084C309.178 86.668 309.305 86.6565 309.431 86.6738C309.558 86.6911 309.68 86.7373 309.783 86.8065L311.745 88.1392C312.114 88.3872 312.397 88.7391 312.558 89.1487C312.72 89.5584 312.76 90.0083 312.662 90.441C312.535 91.0064 312.454 91.5775 312.414 92.1545C312.327 93.389 312.449 94.6236 312.766 95.8178C312.87 96.2274 312.852 96.6601 312.72 97.064C312.587 97.4678 312.333 97.8197 312.004 98.0851L310.199 99.5389C310.089 99.6255 309.962 99.6831 309.83 99.712C309.697 99.7408 309.553 99.7351 309.42 99.7005C308.883 99.5678 308.324 99.6139 307.816 99.8331C307.309 100.052 306.887 100.427 306.616 100.906C306.345 101.385 306.235 101.939 306.305 102.481C306.374 103.029 306.622 103.537 307.009 103.929C307.372 104.258 307.816 104.489 308.295 104.587C308.774 104.691 309.27 104.662 309.737 104.506C310.124 104.356 310.47 104.108 310.741 103.791C311.012 103.473 311.197 103.093 311.283 102.683C311.312 102.55 311.37 102.423 311.456 102.32C311.543 102.216 311.653 102.129 311.774 102.072L313.804 101.125C314.191 100.941 314.618 100.872 315.039 100.929C315.46 100.987 315.858 101.166 316.181 101.448C317.191 102.36 318.356 103.081 319.619 103.583C320.012 103.727 320.346 103.987 320.594 104.322C320.842 104.656 320.987 105.054 321.016 105.47L321.189 108.758C321.194 108.902 321.171 109.052 321.114 109.185C321.056 109.318 320.969 109.439 320.854 109.531C320.514 109.819 320.248 110.189 320.081 110.604C319.914 111.019 319.856 111.469 319.908 111.914C319.994 112.433 320.219 112.917 320.56 113.321C320.9 113.725 321.339 114.031 321.835 114.21C322.4 114.377 323.006 114.354 323.56 114.146C324.113 113.939 324.581 113.558 324.898 113.056C325.215 112.554 325.36 111.966 325.308 111.377C325.256 110.789 325.019 110.229 324.627 109.791C324.529 109.681 324.454 109.548 324.413 109.404C324.373 109.26 324.367 109.11 324.39 108.966L324.985 105.787C325.06 105.371 325.25 104.991 325.538 104.685C325.827 104.379 326.19 104.16 326.6 104.056C328.527 103.583 330.292 102.614 331.734 101.252C332.046 100.964 332.432 100.768 332.853 100.693C333.275 100.618 333.701 100.67 334.094 100.837L336.194 101.72C336.326 101.777 336.447 101.864 336.54 101.973C336.632 102.083 336.701 102.216 336.736 102.354C336.88 102.914 337.203 103.41 337.659 103.768C338.115 104.125 338.669 104.327 339.245 104.339C339.822 104.35 340.388 104.177 340.855 103.837C341.322 103.497 341.668 103.018 341.836 102.464L341.865 102.481Z" fill="#E1F4FF"/>
<path d="M323.525 95.264C324.021 95.6909 324.771 95.6274 325.198 95.1313C325.625 94.6352 325.561 93.8852 325.065 93.4583C324.569 93.0313 323.819 93.0948 323.392 93.5909C322.965 94.0871 323.029 94.8371 323.525 95.264Z" fill="#69B4FF"/>
<path d="M320.623 89.1767C321.489 89.9152 322.787 89.8113 323.525 88.946C324.264 88.0806 324.16 86.7825 323.294 86.0441C322.429 85.3056 321.131 85.4095 320.393 86.2749C319.654 87.1402 319.758 88.4383 320.623 89.1767Z" fill="#69B4FF"/>
<path d="M329.098 92.8814C329.796 93.4756 330.846 93.3948 331.446 92.6968C332.046 91.9987 331.959 90.9487 331.261 90.3487C330.563 89.7487 329.513 89.8353 328.913 90.5333C328.313 91.2314 328.4 92.2814 329.098 92.8814Z" fill="#69B4FF"/>
<path d="M321.627 101.35C322.238 101.875 323.156 101.8 323.681 101.189C324.206 100.577 324.131 99.6599 323.519 99.1349C322.908 98.61 321.99 98.685 321.465 99.2965C320.94 99.908 321.015 100.825 321.627 101.35Z" fill="#69B4FF"/>
<path d="M316.366 94.8194C316.85 95.2348 317.583 95.1771 317.998 94.6925C318.414 94.2079 318.356 93.4752 317.871 93.0598C317.387 92.6444 316.654 92.7021 316.239 93.1867C315.823 93.6713 315.881 94.404 316.366 94.8194Z" fill="#69B4FF"/>
<path d="M212.98 87.7933C212.628 87.0952 212.103 86.501 211.446 86.0799C210.794 85.653 210.038 85.4106 209.253 85.376C208.596 85.3818 207.95 85.5491 207.373 85.8606C206.796 86.1722 206.3 86.6222 205.936 87.1702C205.815 87.3548 205.653 87.5106 205.469 87.626C205.279 87.7414 205.065 87.8048 204.846 87.8279L201.384 88.0644C200.744 88.1106 200.098 87.9721 199.538 87.6606C198.973 87.3491 198.512 86.8818 198.206 86.3164C197.802 85.5491 197.34 84.8164 196.821 84.1184C195.696 82.6011 194.323 81.28 192.766 80.2127C192.229 79.8377 191.814 79.3127 191.577 78.7069C191.335 78.1012 191.283 77.432 191.416 76.7916L192.12 73.3763C192.16 73.1859 192.241 73.0128 192.362 72.8628C192.483 72.7128 192.633 72.5917 192.812 72.5109C193.504 72.1763 194.064 71.6282 194.41 70.9475C194.762 70.2667 194.877 69.4879 194.744 68.7379C194.612 67.9822 194.237 67.2956 193.677 66.7706C193.118 66.2456 192.402 65.9226 191.641 65.8418C191 65.761 190.354 65.8649 189.772 66.1418C189.189 66.4187 188.693 66.8514 188.347 67.3937C188.001 67.9187 187.799 68.5244 187.764 69.1533C187.729 69.7821 187.868 70.4052 188.156 70.9648C188.243 71.1321 188.289 71.3225 188.295 71.5071C188.295 71.6975 188.26 71.8821 188.174 72.0551L186.662 75.2224C186.385 75.8108 185.947 76.307 185.393 76.6474C184.839 76.9877 184.199 77.155 183.547 77.1377C181.095 77.0397 178.643 77.4666 176.37 78.3839C175.753 78.6262 175.072 78.6839 174.42 78.5339C173.769 78.3896 173.18 78.0493 172.724 77.5646L171.53 76.307C171.351 76.1166 171.219 75.8858 171.144 75.6378C171.069 75.3897 171.051 75.1243 171.098 74.8647C171.248 73.9243 171.115 72.9609 170.717 72.1013C170.319 71.2359 169.673 70.5148 168.859 70.0186C168.046 69.5225 167.105 69.286 166.154 69.3264C165.202 69.3725 164.29 69.6956 163.523 70.261C162.761 70.8263 162.184 71.6109 161.861 72.5051C161.544 73.3994 161.498 74.3743 161.735 75.2916C161.971 76.2147 162.479 77.0397 163.188 77.6743C163.898 78.3089 164.781 78.7127 165.721 78.8396C165.98 78.8685 166.234 78.9608 166.454 79.105C166.673 79.2492 166.857 79.4396 166.99 79.6704L168.213 81.8165C168.513 82.3588 168.663 82.9703 168.64 83.5934C168.617 84.2107 168.432 84.8164 168.098 85.3356C166.667 87.6491 165.796 90.2625 165.554 92.974C165.484 93.6028 165.242 94.197 164.85 94.6932C164.457 95.1893 163.938 95.5643 163.344 95.772L159.652 97.1277C159.473 97.1969 159.277 97.22 159.087 97.1969C158.896 97.1739 158.712 97.1104 158.544 97.0066C157.887 96.5797 157.102 96.3777 156.317 96.4354C155.533 96.4931 154.789 96.8104 154.2 97.3296C153.612 97.8489 153.208 98.5527 153.052 99.3258C152.896 100.099 153 100.901 153.346 101.605C153.623 102.205 154.062 102.712 154.616 103.07C155.169 103.428 155.81 103.624 156.473 103.635C157.119 103.653 157.754 103.503 158.319 103.191C158.885 102.88 159.358 102.43 159.687 101.876C159.785 101.708 159.923 101.57 160.085 101.46C160.246 101.356 160.431 101.287 160.627 101.27L164.198 100.872C164.861 100.797 165.536 100.924 166.13 101.235C166.725 101.547 167.209 102.031 167.521 102.62C167.93 103.393 168.398 104.137 168.917 104.835C170.03 106.335 171.386 107.651 172.926 108.712C173.451 109.081 173.861 109.595 174.097 110.195C174.334 110.789 174.397 111.447 174.276 112.075L173.619 115.525C173.578 115.733 173.492 115.923 173.365 116.091C173.238 116.258 173.07 116.391 172.886 116.483C172.142 116.858 171.536 117.464 171.167 118.208C170.798 118.958 170.682 119.8 170.838 120.62C170.994 121.439 171.415 122.183 172.032 122.743C172.649 123.302 173.434 123.643 174.265 123.718C175.009 123.741 175.742 123.568 176.393 123.21C177.045 122.858 177.593 122.333 177.974 121.698C178.268 121.139 178.424 120.516 178.424 119.887C178.424 119.258 178.263 118.635 177.963 118.081C177.864 117.897 177.813 117.7 177.801 117.493C177.795 117.285 177.836 117.083 177.922 116.893L179.336 113.806C179.595 113.218 180.028 112.716 180.57 112.364C181.112 112.018 181.747 111.833 182.393 111.839C184.453 111.897 186.506 111.585 188.456 110.916C189.05 110.702 189.697 110.662 190.308 110.806C190.925 110.951 191.485 111.268 191.923 111.718L195.356 115.335C195.506 115.497 195.621 115.693 195.685 115.9C195.748 116.114 195.766 116.339 195.731 116.558C195.621 117.227 195.679 117.914 195.898 118.554C196.117 119.195 196.487 119.771 196.983 120.233C197.594 120.746 198.333 121.087 199.123 121.22C199.908 121.352 200.721 121.271 201.465 120.989C202.284 120.625 202.959 120.002 203.392 119.218C203.825 118.433 203.992 117.533 203.865 116.645C203.738 115.756 203.323 114.937 202.688 114.308C202.054 113.679 201.229 113.27 200.34 113.154C200.115 113.125 199.902 113.045 199.717 112.924C199.527 112.797 199.371 112.635 199.262 112.439L196.827 108.193C196.504 107.645 196.348 107.016 196.377 106.381C196.406 105.747 196.614 105.135 196.977 104.616C198.731 102.176 199.815 99.32 200.133 96.3316C200.208 95.6912 200.461 95.0855 200.871 94.5893C201.281 94.0932 201.829 93.7239 202.44 93.5278L205.728 92.4778C205.936 92.4144 206.161 92.397 206.38 92.4317C206.6 92.4663 206.802 92.5528 206.98 92.6797C207.696 93.1816 208.561 93.4355 209.432 93.4009C210.309 93.3663 211.146 93.049 211.826 92.4951C212.507 91.9413 212.98 91.1798 213.188 90.3317C213.395 89.4836 213.32 88.5894 212.974 87.7818L212.98 87.7933Z" fill="#E1F4FF"/>
<path d="M184.747 97.5147C185.739 97.5147 186.541 96.7128 186.541 95.7205C186.541 94.7282 185.739 93.9263 184.747 93.9263C183.755 93.9263 182.953 94.7282 182.953 95.7205C182.953 96.7128 183.755 97.5147 184.747 97.5147Z" fill="#69B4FF"/>
<path d="M175.413 93.3547C177.138 93.3547 178.534 91.9586 178.534 90.2336C178.534 88.5087 177.138 87.1125 175.413 87.1125C173.688 87.1125 172.292 88.5087 172.292 90.2336C172.292 91.9586 173.688 93.3547 175.413 93.3547Z" fill="#69B4FF"/>
<path d="M188.825 89.2878C190.216 89.2878 191.347 88.1571 191.347 86.7667C191.347 85.3764 190.216 84.2456 188.825 84.2456C187.435 84.2456 186.304 85.3764 186.304 86.7667C186.304 88.1571 187.435 89.2878 188.825 89.2878Z" fill="#69B4FF"/>
<path d="M188.543 106.399C189.76 106.399 190.747 105.412 190.747 104.189C190.747 102.966 189.76 101.979 188.543 101.979C187.326 101.979 186.333 102.966 186.333 104.189C186.333 105.412 187.32 106.399 188.543 106.399Z" fill="#69B4FF"/>
<path d="M176.059 104.04C177.028 104.04 177.812 103.255 177.812 102.286C177.812 101.317 177.028 100.532 176.059 100.532C175.09 100.532 174.305 101.317 174.305 102.286C174.305 103.255 175.09 104.04 176.059 104.04Z" fill="#69B4FF"/>
<path d="M288.652 110.812C294.259 109.693 299.041 110.206 303.23 112.341C304.262 112.854 304.77 114.014 304.522 115.104C304.499 115.202 304.476 115.3 304.43 115.393C302.555 120.689 299.613 124.721 295.638 127.427C296.642 155.402 290.538 182.528 277.523 208.074C279.94 213 280.898 217.933 280.379 222.768C280.275 224.019 279.196 224.977 277.939 225C272.389 225.058 267.739 223.275 264.134 219.687C244.594 221.175 226.041 217.021 209 207.335C204.206 209.043 199.239 208.668 194.249 206.251C193.124 205.691 192.57 204.399 192.997 203.187C194.589 198.595 197.56 194.545 201.846 191.118C200.969 162.457 207.021 135.325 219.863 110.449C217.422 106.306 216.482 101.403 217.047 95.8124C217.174 94.5663 218.178 93.6144 219.436 93.5682C224.137 93.424 228.631 94.9874 233.206 98.3623C250.438 97.3758 268.581 101.437 288.646 110.806L288.652 110.812Z" fill="#69B4FF"/>
<path opacity="0.3" d="M234.002 113.962C234.002 113.962 253.074 131.812 284.613 125.454" stroke="white" stroke-width="1.4918" stroke-linecap="round" stroke-linejoin="round"/>
<path opacity="0.3" d="M267.669 206.355C267.669 206.355 249.555 187.536 217.728 192.238" stroke="white" stroke-width="1.4918" stroke-linecap="round" stroke-linejoin="round"/>
<path d="M302.11 120.256C300.391 119.973 298.43 123.296 296.584 126.418C296.116 127.214 295.742 127.848 295.372 128.587C292.661 134.085 294.045 142.906 291.438 144.648C283.621 149.863 276.364 153.198 270.785 155.355C266.037 152.073 260.534 152.667 258.243 154.882C255.745 157.294 257.176 159.884 258.578 161.476C256.813 162.763 255.261 164.199 254.009 165.844C244.831 177.907 248.569 190.287 262.864 193.437C277.61 196.685 293.059 185.332 306.743 175.063C308.404 173.817 310.048 172.507 310.048 172.507C311.243 171.526 313.891 169.363 315.454 167.609C318.76 163.899 319.435 159.786 319.867 157.802C319.867 157.802 324.09 138.498 302.837 120.614C302.653 120.458 302.422 120.302 302.11 120.25V120.256Z" fill="white"/>
<path d="M306.743 175.068C293.059 185.332 277.604 196.691 262.865 193.443C248.563 190.293 244.831 177.913 254.009 165.849C255.261 164.205 256.813 162.769 258.578 161.482C257.176 159.896 255.746 157.305 258.244 154.888C260.534 152.673 266.032 152.078 270.785 155.361C270.785 155.361 290.861 145.946 293.342 142.583" stroke="#E9ECF2" stroke-width="1.4918" stroke-linecap="round" stroke-linejoin="round"/>
<path d="M216.851 117.147C216.482 122.904 214.244 139.335 219.407 143.904C225.995 149.731 232.254 153.729 237.106 156.423C241.727 153.913 246.654 155.131 248.523 157.484C250.553 160.046 249.013 162.302 247.594 163.628C249.071 165.048 250.34 166.582 251.321 168.273C258.486 180.688 253.922 191.845 240.66 193.085C226.981 194.36 214.059 181.859 202.631 170.592C201.24 169.224 199.879 167.794 199.879 167.794C198.887 166.732 196.7 164.384 195.448 162.555C193.389 159.538 192.374 155.713 192.385 152.829C192.414 144.129 209.432 116.218 216.857 117.147H216.851Z" fill="white"/>
<path d="M202.624 170.586C214.053 181.853 226.975 194.355 240.653 193.08C253.916 191.84 258.485 180.682 251.314 168.267C250.339 166.577 249.064 165.042 247.588 163.623C249.012 162.302 250.553 160.046 248.516 157.479C246.653 155.125 241.721 153.908 237.1 156.417C237.1 156.417 219.799 145.179 217.866 141.729" stroke="#E9ECF2" stroke-width="1.4918" stroke-linecap="round" stroke-linejoin="round"/>
</g>
</g>
</g>
<defs>
<filter id="filter0_b_1131_33960" x="-21.4612" y="-21.4612" width="395.922" height="262.922" filterUnits="userSpaceOnUse" color-interpolation-filters="sRGB">
<feFlood flood-opacity="0" result="BackgroundImageFix"/>
<feGaussianBlur in="BackgroundImageFix" stdDeviation="10.7306"/>
<feComposite in2="SourceAlpha" operator="in" result="effect1_backgroundBlur_1131_33960"/>
<feBlend mode="normal" in="SourceGraphic" in2="effect1_backgroundBlur_1131_33960" result="shape"/>
</filter>
<linearGradient id="paint0_linear_1131_33960" x1="150.042" y1="200.322" x2="-4.58469" y2="38.1137" gradientUnits="userSpaceOnUse">
<stop stop-color="#6DB2F8"/>
<stop offset="1" stop-color="white"/>
</linearGradient>
<clipPath id="clip0_1131_33960">
<rect width="353" height="220" rx="14" fill="white"/>
</clipPath>
<clipPath id="clip1_1131_33960">
<rect width="188.944" height="190" fill="white" transform="translate(153 35)"/>
</clipPath>
</defs>
</svg>
