<svg width="101" height="100" viewBox="0 0 101 100" fill="none" xmlns="http://www.w3.org/2000/svg">
<g clip-path="url(#clip0_873_21557)">
<path fill-rule="evenodd" clip-rule="evenodd" d="M93.0098 47.0278C93.0098 43.4757 91.8031 40.2817 89.8551 38.1673C91.9928 35.9258 93.3696 32.4793 93.3696 28.6104C93.3696 24.8882 92.0985 21.5474 90.0879 19.3058C91.9928 17.741 93.1995 15.3509 93.1995 12.7083C93.2013 7.9943 89.3682 4.1665 84.647 4.1665C80.2015 4.1665 76.5599 7.55029 76.1356 11.8848C75.2673 11.5679 74.3363 11.4193 73.3623 11.4193C69.2552 11.4193 65.8464 14.3805 65.1481 18.271C63.2646 16.9604 60.9551 16.1781 58.4575 16.1781C54.3074 16.1781 50.6659 18.3569 48.5908 21.6118C47.3197 18.5037 44.251 16.3052 40.672 16.3052C38.7241 16.3052 36.9033 16.9819 35.4639 18.0812C33.6001 15.6911 30.4043 14.1263 26.7824 14.1263C26.1898 14.1263 25.6187 14.1693 25.0672 14.2534C23.5436 12.8999 21.5742 12.096 19.3936 12.096C14.6724 12.096 10.8392 15.9238 10.8392 20.6396C10.8392 22.3727 11.3477 24.002 12.2572 25.3555C10.8177 26.1808 9.84375 27.7456 9.84375 29.5216C9.84375 30.1984 9.99235 30.8322 10.2466 31.4248C9.20996 32.841 8.59587 34.5758 8.59587 36.4575C8.59587 38.6776 9.46419 40.7078 10.8607 42.2297C9.18848 43.7944 8.13037 46.036 8.13037 48.5103C8.13037 51.7884 9.99414 54.6423 12.7244 56.0799C10.9878 57.6447 9.88672 59.9077 9.88672 62.4232C9.88672 67.139 13.7181 70.9668 18.4411 70.9668C22.9062 70.9668 26.5747 67.5418 26.9596 63.1805L26.974 63.1841C25.7673 75.7023 38.8298 75.9351 42.1545 73.6935H42.1652C41.4992 77.8454 42.6987 81.7609 44.9492 84.203C47.9982 87.5008 51.2585 88.8346 51.7454 93.486C51.8296 94.3525 52.0426 95.8761 53.8831 95.8332C55.4067 95.8117 55.8937 94.2684 55.9152 93.3589C55.9546 87.4596 56.0638 83.4313 53.2476 80.4665C57.1864 83.7715 64.124 83.3042 66.3315 80.5023C70.9059 86.38 82.6364 87.3325 85.304 76.1033C89.6868 75.4481 93.0957 70.564 93.0957 64.6432C93.0957 61.0911 91.8675 57.9186 89.9411 55.8042C91.8245 53.6683 93.0098 50.5387 93.0098 47.0278Z" fill="#D1D6DB"/>
<path fill-rule="evenodd" clip-rule="evenodd" d="M71.5524 11.8848C71.5614 11.7935 71.5739 11.7021 71.5864 11.6108C71.4181 11.6466 71.2516 11.6878 71.0869 11.7344C71.2427 11.7791 71.3984 11.8293 71.5524 11.8848Z" fill="#00FF00"/>
<path fill-rule="evenodd" clip-rule="evenodd" d="M42.1634 73.6935C42.3747 72.3776 42.7703 71.0402 43.3809 69.7171C45.3073 65.5724 49.5003 62.6756 54.3898 62.6756C59.0269 62.6756 63.0498 65.277 65.1034 69.0833C68.1094 66.7988 72.8735 67.3073 75.4982 68.1738C75.0757 63.8179 76.0908 58.658 78.5472 55.8669C76.6423 53.7524 75.4141 50.5799 75.4141 47.0278C75.4141 43.5814 76.5778 40.4733 78.3986 38.3589C76.345 36.3071 74.9683 33.0719 76.3236 28.6318C72.0052 31.3604 66.6055 32.798 61.4814 31.423C58.6437 34.2983 50.451 35.6733 47.0851 30.5135C45.5186 32.2896 43.2323 33.3888 40.6702 33.3888C37.7269 33.3888 35.1237 31.8867 33.5768 29.6255C31.756 30.9575 29.3641 31.7614 26.7806 31.7614C25.8496 31.7614 24.9598 31.6772 24.113 31.4857C25.1084 32.8822 25.701 34.5938 25.701 36.4557C25.701 38.93 24.6644 41.1501 22.9689 42.7148C24.3869 44.2367 25.2337 46.2669 25.2337 48.5085C25.2337 51.0239 24.1326 53.2869 22.396 54.8517C25.1281 56.2679 26.9901 59.145 26.9901 62.4214C26.9901 62.6774 26.9775 62.9281 26.9543 63.1787L26.9686 63.1823C25.7619 75.7005 38.8244 75.9333 42.1491 73.6917L42.1634 73.6935Z" fill="#8B95A1"/>
<path d="M58.5703 39.9867C58.5703 40.778 59.2113 41.4189 60.0026 41.4189C60.7939 41.4189 61.4349 40.778 61.4349 39.9867C61.4349 38.3073 62.6004 36.9001 64.1616 36.5277C65.7855 39.4173 68.8828 41.376 72.4313 41.376H72.4528C73.2441 41.376 73.8851 40.735 73.8851 39.9437C73.8851 39.1523 73.2441 38.5114 72.4528 38.5114H72.4313C68.7987 38.5114 65.841 35.5716 65.8195 31.9479C64.8688 31.9622 63.9146 31.896 62.9639 31.7402C62.9567 31.7957 62.9531 31.8512 62.9531 31.9085C62.9531 32.5674 63.0212 33.2101 63.1501 33.8314C60.5039 34.6227 58.5703 37.0827 58.5703 39.9867Z" fill="#6B7684"/>
<path d="M65.3735 60.6724C65.6438 60.9069 65.9786 61.0215 66.3098 61.0215C66.7109 61.0215 67.1101 60.8532 67.393 60.5273C67.9104 59.9294 67.846 59.0252 67.248 58.5078C62.1329 54.0802 58.4913 53.2728 50.3022 54.7552C49.0113 54.9897 47.7008 55.2941 46.435 55.5877C40.5411 56.9538 35.4529 58.1318 32.0441 53.2728C30.1928 50.6195 29.9529 48.1685 31.3297 45.986C32.9195 43.467 36.4072 41.9111 38.7937 42.0007C39.0211 42.0293 39.2521 42.0526 39.483 42.0705C40.2475 42.1296 40.9243 41.5763 41.0156 40.8154C41.1087 40.0545 40.5841 39.3545 39.8286 39.2292C39.5851 39.188 39.3326 39.1611 39.0712 39.1468C36.0402 38.7368 33.3045 37.1201 32.1372 35.0057C31.387 33.6468 31.319 32.1698 31.9295 30.6104C30.9466 31.083 29.8652 31.425 28.7193 31.6094C28.449 33.6056 28.9933 35.2384 29.6289 36.3914C30.5043 37.9777 31.9366 39.3348 33.693 40.3285C31.8238 41.2218 30.0747 42.6094 28.9073 44.457C27.7526 46.285 26.3221 50.0752 29.6969 54.9146C31.9492 58.1265 34.7779 59.3439 37.7947 59.5838C36.887 61.8504 36.2622 64.8081 36.597 66.5985C36.7259 67.2878 37.3274 67.7676 38.0024 67.7676C38.0901 67.7676 38.1778 67.7604 38.2674 67.7425C39.0444 67.5975 39.5582 66.8491 39.4114 66.0721C39.1572 64.7096 40.0004 61.3044 40.9654 59.5265C43.0172 59.3188 45.0922 58.839 47.0813 58.3789C48.3149 58.0924 49.5914 57.797 50.8142 57.575C58.5826 56.166 61.2628 57.1131 65.3735 60.6724Z" fill="#6B7684"/>
<path d="M72.5044 52.5296C73.0791 51.9854 73.1042 51.0794 72.5599 50.5047C65.744 43.3039 57.2863 42.6182 51.7183 43.1786C52.1193 40.5073 51.0326 37.2865 46.8252 35.326C46.1091 34.9912 45.2569 35.3027 44.9221 36.0189C44.5873 36.735 44.8988 37.5872 45.6149 37.922C48.3076 39.1771 49.4248 41.0982 48.7588 43.3307C47.8654 46.326 43.8801 49.0957 39.3737 48.444C38.5895 48.3312 37.8644 48.8737 37.7517 49.6561C37.6389 50.4385 38.1813 51.1654 38.9637 51.2782C39.5492 51.3623 40.1382 51.4053 40.7254 51.4053C42.9258 51.4053 45.0939 50.8145 46.9702 49.6847C48.4724 48.7788 49.7113 47.5703 50.5581 46.215C55.41 45.4666 63.8641 45.4845 70.4813 52.4741C70.7624 52.7713 71.142 52.9217 71.5215 52.9217C71.8742 52.9217 72.2269 52.7928 72.5044 52.5296Z" fill="#6B7684"/>
<path d="M24.1146 31.4857C24.129 31.4893 24.1433 31.4911 24.1558 31.4929C20.969 30.7964 18.33 28.8557 17.091 26.1612C16.7598 25.4433 15.9094 25.1281 15.1915 25.4594C14.4735 25.7906 14.1584 26.641 14.4896 27.3589C16.3606 31.4266 20.5966 34.1677 25.4968 34.5849C25.2426 33.4498 24.7663 32.3988 24.1146 31.4857Z" fill="#8B95A1"/>
<path d="M52.5135 83.4885C53.4087 84.0757 54.4149 84.5519 55.4873 84.9082C55.1185 83.1931 54.4507 81.7321 53.2494 80.4663C51.57 79.0376 50.6283 77.0485 50.5173 74.653C50.4797 73.8635 49.8155 73.2512 49.0205 73.2888C48.231 73.3263 47.6205 73.9959 47.6563 74.7855C47.8264 78.4575 49.5523 81.5477 52.5135 83.4885Z" fill="#8B95A1"/>
<path fill-rule="evenodd" clip-rule="evenodd" d="M52.5137 83.4888C51.1476 82.5936 50.0465 81.4495 49.2373 80.1211C50.7931 83.0949 51.3589 87.5815 51.3428 91.5884C51.5326 92.1577 51.6704 92.7843 51.7438 93.488C51.828 94.3545 52.041 95.8781 53.8815 95.8351C55.4051 95.8136 55.8921 94.2703 55.9136 93.3608C55.9368 89.9806 55.9816 87.2145 55.4857 84.9103C54.415 84.5522 53.4089 84.076 52.5137 83.4888Z" fill="#B0B8C1"/>
<path d="M76.6619 72.9953C75.9762 71.5612 75.6182 69.8675 75.4821 68.1685C74.6746 67.9035 73.6667 67.6725 72.5728 67.5454C72.673 69.8478 73.1134 72.2129 74.0784 74.2306C74.3237 74.7445 74.8376 75.0452 75.3711 75.0452C75.5788 75.0452 75.7882 75.0005 75.9888 74.9038C76.7031 74.5636 77.0039 73.7078 76.6619 72.9953Z" fill="#8B95A1"/>
<path d="M22.4549 54.8822C22.437 54.8732 22.4191 54.8625 22.4012 54.8535C23.1209 54.2054 23.7297 53.4355 24.1969 52.5798C22.505 51.5879 20.5356 51.0186 18.4338 51.0186C17.6424 51.0186 17.0015 51.6595 17.0015 52.4508C17.0015 53.2422 17.6424 53.8831 18.4338 53.8831C19.8857 53.8796 21.2554 54.243 22.4549 54.8822Z" fill="#8B95A1"/>
<path fill-rule="evenodd" clip-rule="evenodd" d="M22.3994 54.8521C22.4048 54.8556 22.4102 54.8574 22.4155 54.861C22.4102 54.8592 22.4048 54.8556 22.3994 54.8521Z" fill="#B0B8C1"/>
<path fill-rule="evenodd" clip-rule="evenodd" d="M20.2297 51.1584C21.6566 51.384 22.9958 51.8745 24.1953 52.5781C24.8577 51.3678 25.2373 49.9821 25.2373 48.5086C25.2373 46.2671 24.3905 44.2368 22.9725 42.715C24.6662 41.1502 25.7046 38.9302 25.7046 36.4559C25.7046 35.8132 25.633 35.1865 25.4987 34.5868C23.7191 34.4346 22.0272 33.9762 20.5036 33.2583C20.901 34.2448 21.1213 35.3226 21.1213 36.4559C21.1213 38.9302 20.0846 41.1502 18.3892 42.715C19.8071 44.2368 20.654 46.2671 20.654 48.5086C20.654 49.4342 20.5036 50.3241 20.2297 51.1584Z" fill="#B0B8C1"/>
<path fill-rule="evenodd" clip-rule="evenodd" d="M22.4551 54.8825C21.3379 54.2881 20.0739 53.9372 18.7329 53.8906C18.4518 54.2344 18.1457 54.5566 17.818 54.8538C20.5501 56.27 22.4121 59.1471 22.4121 62.4235C22.4121 66.3462 19.7588 69.6512 16.1494 70.6538C16.8799 70.8561 17.6479 70.9671 18.4411 70.9671C23.1623 70.9671 26.9954 67.1393 26.9954 62.4235C26.9954 59.1668 25.1567 56.3094 22.4551 54.8825Z" fill="#B0B8C1"/>
<path d="M19.9934 17.6657C20.8814 15.5477 23.1785 14.5164 25.0315 14.2586C25.044 14.2568 25.0566 14.255 25.0691 14.2533C24.0522 13.3509 22.8365 12.6938 21.4937 12.3555C19.5888 13.2686 18.1189 14.7277 17.3526 16.5575C17.0465 17.2861 17.3902 18.1258 18.1189 18.432C18.2997 18.5072 18.4877 18.543 18.6721 18.543C19.2307 18.543 19.7625 18.2135 19.9934 17.6657Z" fill="#8B95A1"/>
<path d="M86.491 15.7392C85.7032 15.655 84.9996 16.2262 84.9155 17.0121C84.6039 19.9609 82.7079 23.248 79.7145 26.0284C78.6546 27.0113 77.5051 27.8868 76.2984 28.6477C76.3074 28.6423 76.3163 28.637 76.3271 28.6298C75.9296 29.9332 75.7685 31.1327 75.79 32.2284C77.8972 31.1524 79.8917 29.7703 81.6642 28.1285C83.7177 26.22 87.2411 22.2776 87.7675 17.3129C87.8481 16.5269 87.277 15.8215 86.491 15.7392Z" fill="#8B95A1"/>
<path fill-rule="evenodd" clip-rule="evenodd" d="M93.0099 47.0278C93.0099 43.4757 91.8032 40.2817 89.8553 38.1673C91.993 35.9258 93.3698 32.4793 93.3698 28.6104C93.3698 24.8882 92.0986 21.5474 90.0881 19.3058C91.993 17.741 93.1997 15.3509 93.1997 12.7083C93.2015 7.9943 89.3683 4.1665 84.6471 4.1665C83.8522 4.1665 83.0841 4.27572 82.3537 4.47982C85.9648 5.48063 88.6182 8.78744 88.6182 12.7101C88.6182 14.1156 88.2744 15.4476 87.6675 16.6239C87.7534 16.8351 87.791 17.0715 87.766 17.3149C87.6263 18.6416 87.27 19.8931 86.7866 21.055C88.0399 23.1354 88.7865 25.7619 88.7865 28.6121C88.7865 32.4811 87.4097 35.9294 85.272 38.1691C87.2199 40.2835 88.4266 43.4757 88.4266 47.0296C88.4266 50.5405 87.2414 53.6701 85.3561 55.8042C87.2826 57.9186 88.5107 61.0912 88.5107 64.6432C88.5107 70.564 85.1019 75.4481 80.7191 76.1034C79.5088 81.1934 76.4383 83.7804 73.0151 84.5396C77.9655 85.5672 83.5622 83.4277 85.3024 76.1034C89.6852 75.4481 93.0941 70.564 93.0941 64.6432C93.0941 61.0912 91.8659 57.9186 89.9395 55.8042C91.8247 53.6683 93.0099 50.5387 93.0099 47.0278Z" fill="#B0B8C1"/>
<path d="M75.3684 73.9533C75.0816 73.5134 74.7107 73.1344 74.2771 72.8381C73.8435 72.5418 73.3556 72.334 72.8415 72.2266L67.621 71.1356C66.5826 70.9186 65.5004 71.123 64.6127 71.7038C63.725 72.2847 63.1043 73.1944 62.8873 74.2328C62.6703 75.2712 62.8747 76.3533 63.4556 77.2411C64.0364 78.1288 64.9461 78.7494 65.9845 78.9664L71.2051 80.0574C71.5352 80.1299 71.874 80.1548 72.2112 80.1315C72.9244 80.1033 73.6164 79.8805 74.212 79.4871C74.6518 79.2002 75.0308 78.8293 75.327 78.3957C75.6233 77.9621 75.8311 77.4743 75.9385 76.9602C76.046 76.4461 76.0509 75.9159 75.9531 75.4C75.8552 74.884 75.6566 74.3924 75.3684 73.9533Z" fill="#F81522"/>
<path d="M75.9392 76.9599C76.0898 76.2391 76.7962 75.7769 77.5171 75.9275L78.7896 76.1935C79.5104 76.3441 79.9726 77.0505 79.822 77.7713C79.6713 78.4921 78.9649 78.9544 78.2441 78.8037L76.9716 78.5378C76.2508 78.3872 75.7885 77.6807 75.9392 76.9599Z" fill="#F81522"/>
<path d="M59.2131 73.4648C59.3637 72.744 60.0702 72.2818 60.791 72.4324L62.0635 72.6983C62.7843 72.849 63.2465 73.5554 63.0959 74.2762C62.9453 74.997 62.2388 75.4592 61.518 75.3086L60.2455 75.0427C59.5247 74.8921 59.0625 74.1856 59.2131 73.4648Z" fill="#F81522"/>
<path d="M75.3575 73.9487C74.9543 73.3325 75.127 72.5062 75.7432 72.103L76.831 71.3912C77.4472 70.9881 78.2736 71.1607 78.6768 71.7769C79.0799 72.3931 78.9072 73.2195 78.291 73.6227L77.2032 74.3345C76.587 74.7376 75.7606 74.5649 75.3575 73.9487Z" fill="#F81522"/>
<path d="M72.0754 69.3759C72.226 68.6551 72.9325 68.1929 73.6533 68.3435C74.3741 68.4942 74.8363 69.2006 74.6857 69.9214L74.4198 71.1939C74.2691 71.9147 73.5627 72.377 72.8419 72.2263C72.1211 72.0757 71.6588 71.3693 71.8095 70.6484L72.0754 69.3759Z" fill="#F81522"/>
<path d="M69.6276 81.0898C69.7783 80.369 70.4847 79.9068 71.2055 80.0574C71.9263 80.208 72.3886 80.9145 72.2379 81.6353L71.972 82.9078C71.8214 83.6286 71.1149 84.0908 70.3941 83.9402C69.6733 83.7896 69.2111 83.0831 69.3617 82.3623L69.6276 81.0898Z" fill="#F81522"/>
<path d="M73.8145 81.3301C73.4113 80.7139 73.584 79.8875 74.2002 79.4843C74.8164 79.0812 75.6428 79.2539 76.0459 79.8701L76.7577 80.9579C77.1609 81.5741 76.9882 82.4005 76.372 82.8036C75.7558 83.2068 74.9294 83.0341 74.5263 82.4179L73.8145 81.3301Z" fill="#F81522"/>
<path d="M62.0454 70.2275C61.6423 69.6113 61.815 68.785 62.4312 68.3818C63.0474 67.9786 63.8737 68.1513 64.2769 68.7675L64.9887 69.8554C65.3918 70.4716 65.2192 71.2979 64.603 71.7011C63.9868 72.1043 63.1604 71.9316 62.7572 71.3154L62.0454 70.2275Z" fill="#F81522"/>
<path d="M66.8547 68.2851C67.0053 67.5643 67.7118 67.1021 68.4326 67.2527C69.1534 67.4034 69.6156 68.1098 69.465 68.8306L69.1991 70.1031C69.0484 70.8239 68.342 71.2861 67.6212 71.1355C66.9004 70.9849 66.4381 70.2784 66.5888 69.5576L66.8547 68.2851Z" fill="#F81522"/>
<path d="M64.4069 79.9985C64.5576 79.2777 65.264 78.8155 65.9848 78.9661C66.7056 79.1167 67.1679 79.8232 67.0172 80.544L66.7513 81.8165C66.6007 82.5373 65.8942 82.9995 65.1734 82.8489C64.4526 82.6983 63.9904 81.9918 64.141 81.271L64.4069 79.9985Z" fill="#F81522"/>
<path d="M60.1265 79.4067C59.7233 78.7905 59.896 77.9642 60.5122 77.561L61.6001 76.8492C62.2163 76.4461 63.0426 76.6188 63.4458 77.235C63.849 77.8512 63.6763 78.6775 63.0601 79.0807L61.9722 79.7925C61.356 80.1956 60.5297 80.0229 60.1265 79.4067Z" fill="#F81522"/>
<path d="M70.9325 81.3623L65.712 80.2713C64.3274 79.982 63.1144 79.1545 62.34 77.9708C61.5656 76.7872 61.293 75.3444 61.5824 73.9598C61.8717 72.5752 62.6992 71.3623 63.8829 70.5879C65.0665 69.8134 66.5093 69.5409 67.8939 69.8302L73.1145 70.9212C74.499 71.2105 75.712 72.0381 76.4864 73.2217C77.2609 74.4053 77.5334 75.8482 77.244 77.2327C76.9547 78.6173 76.1272 79.8302 74.9435 80.6047C73.7599 81.3791 72.3171 81.6517 70.9325 81.3623ZM67.3484 72.4405C66.6561 72.2958 65.9347 72.4321 65.3429 72.8193C64.7511 73.2065 64.3373 73.813 64.1926 74.5053C64.048 75.1976 64.1842 75.919 64.5715 76.5108C64.9587 77.1026 65.5652 77.5164 66.2574 77.6611L71.478 78.752C72.1703 78.8967 72.8917 78.7604 73.4835 78.3732C74.0753 77.986 74.4891 77.3795 74.6338 76.6872C74.7784 75.995 74.6422 75.2736 74.2549 74.6817C73.8677 74.0899 73.2613 73.6762 72.569 73.5315L67.3484 72.4405Z" fill="#FF5761"/>
<path d="M25.6635 77.4243C25.7332 76.9038 25.6995 76.3746 25.5643 75.8671C25.4291 75.3596 25.1951 74.8838 24.8756 74.467L21.6317 70.2336C20.9864 69.3916 20.0331 68.8403 18.9814 68.7011C17.9297 68.562 16.8658 68.8463 16.0237 69.4915C15.1816 70.1368 14.6304 71.0901 14.4912 72.1418C14.352 73.1935 14.6364 74.2574 15.2816 75.0995L18.5255 79.3329C18.7284 79.6032 18.9689 79.8432 19.2396 80.0455C19.7984 80.4896 20.4681 80.7723 21.1761 80.8629C21.6967 80.9325 22.2258 80.8987 22.7333 80.7635C23.2407 80.6283 23.7165 80.3942 24.1334 80.0748C24.5502 79.7554 24.9 79.3568 25.1625 78.902C25.4251 78.4472 25.5953 77.9451 25.6635 77.4243Z" fill="#F81522"/>
<path d="M24.1336 80.0751C24.7181 79.6272 25.555 79.738 26.0029 80.3225L26.7936 81.3544C27.2415 81.9389 27.1307 82.7758 26.5462 83.2237C25.9617 83.6716 25.1248 83.5609 24.6769 82.9763L23.8862 81.9445C23.4383 81.36 23.549 80.523 24.1336 80.0751Z" fill="#F81522"/>
<path d="M13.7405 66.5122C14.325 66.0643 15.1619 66.175 15.6098 66.7595L16.4005 67.7914C16.8484 68.3759 16.7377 69.2128 16.1531 69.6607C15.5686 70.1086 14.7317 69.9979 14.2838 69.4134L13.4931 68.3815C13.0452 67.797 13.156 66.96 13.7405 66.5122Z" fill="#F81522"/>
<path d="M25.6576 77.4136C25.7542 76.6836 26.4243 76.1701 27.1543 76.2667L28.4431 76.4372C29.1731 76.5339 29.6866 77.204 29.59 77.934C29.4934 78.664 28.8233 79.1775 28.0933 79.0809L26.8045 78.9103C26.0745 78.8137 25.561 78.1436 25.6576 77.4136Z" fill="#F81522"/>
<path d="M26.1545 71.8071C26.7391 71.3592 27.576 71.4699 28.0239 72.0544C28.4718 72.6389 28.361 73.4759 27.7765 73.9238L26.7446 74.7145C26.1601 75.1624 25.3232 75.0516 24.8753 74.4671C24.4274 73.8826 24.5382 73.0457 25.1227 72.5978L26.1545 71.8071Z" fill="#F81522"/>
<path d="M16.656 79.0859C17.2405 78.638 18.0774 78.7487 18.5253 79.3332C18.9732 79.9178 18.8625 80.7547 18.278 81.2026L17.2461 81.9933C16.6616 82.4412 15.8247 82.3304 15.3768 81.7459C14.9289 81.1614 15.0396 80.3245 15.6241 79.8766L16.656 79.0859Z" fill="#F81522"/>
<path d="M19.6718 82C19.7684 81.27 20.4385 80.7565 21.1685 80.8531C21.8985 80.9497 22.412 81.6198 22.3154 82.3499L22.1448 83.6386C22.0482 84.3686 21.3781 84.8821 20.6481 84.7855C19.9181 84.6889 19.4046 84.0188 19.5012 83.2888L19.6718 82Z" fill="#F81522"/>
<path d="M17.9989 65.9073C18.0955 65.1772 18.7656 64.6638 19.4956 64.7604C20.2257 64.857 20.7391 65.5271 20.6425 66.2571L20.472 67.5458C20.3754 68.2759 19.7053 68.7893 18.9753 68.6927C18.2453 68.5961 17.7318 67.926 17.8284 67.196L17.9989 65.9073Z" fill="#F81522"/>
<path d="M22.9109 67.5737C23.4954 67.1258 24.3323 67.2365 24.7802 67.821C25.2281 68.4055 25.1174 69.2425 24.5329 69.6904L23.501 70.4811C22.9165 70.929 22.0795 70.8182 21.6316 70.2337C21.1838 69.6492 21.2945 68.8123 21.879 68.3644L22.9109 67.5737Z" fill="#F81522"/>
<path d="M13.4119 74.8525C13.9964 74.4046 14.8333 74.5153 15.2812 75.0998C15.7291 75.6844 15.6183 76.5213 15.0338 76.9692L14.0019 77.7599C13.4174 78.2078 12.5805 78.097 12.1326 77.5125C11.6847 76.928 11.7955 76.0911 12.38 75.6432L13.4119 74.8525Z" fill="#F81522"/>
<path d="M10.5551 71.6104C10.6517 70.8804 11.3218 70.3669 12.0518 70.4635L13.3406 70.634C14.0706 70.7306 14.5841 71.4007 14.4875 72.1307C14.3909 72.8608 13.7207 73.3742 12.9907 73.2776L11.702 73.1071C10.9719 73.0105 10.4585 72.3404 10.5551 71.6104Z" fill="#F81522"/>
<path d="M17.4669 80.144L14.223 75.9107C13.3626 74.7879 12.9835 73.3694 13.1691 71.9671C13.3547 70.5648 14.0897 69.2937 15.2124 68.4334C16.3352 67.573 17.7537 67.1939 19.156 67.3795C20.5583 67.5651 21.8294 68.3001 22.6897 69.4228L25.9336 73.6562C26.794 74.779 27.1731 76.1975 26.9875 77.5998C26.8019 79.002 26.0669 80.2731 24.9442 81.1335C23.8214 81.9938 22.4029 82.3729 21.0006 82.1874C19.5983 82.0018 18.3272 81.2668 17.4669 80.144ZM20.573 71.0448C20.1429 70.4834 19.5073 70.1159 18.8062 70.0231C18.105 69.9303 17.3958 70.1199 16.8344 70.5501C16.273 70.9802 15.9055 71.6158 15.8127 72.3169C15.7199 73.0181 15.9095 73.7273 16.3397 74.2887L19.5836 78.5221C20.0137 79.0835 20.6493 79.451 21.3504 79.5437C22.0516 79.6365 22.7608 79.447 23.3222 79.0168C23.8836 78.5866 24.2511 77.9511 24.3439 77.2499C24.4367 76.5488 24.2471 75.8395 23.817 75.2782L20.573 71.0448Z" fill="#FF5761"/>
<path d="M21.5841 31.2865C22.1068 31.3374 22.6344 31.2847 23.1367 31.1313C23.639 30.9778 24.106 30.7268 24.5111 30.3925L28.6247 26.998C29.443 26.3228 29.9595 25.3502 30.0607 24.2942C30.1618 23.2381 29.8393 22.1852 29.1641 21.3669C28.4889 20.5487 27.5163 20.0322 26.4603 19.931C25.4042 19.8298 24.3513 20.1523 23.533 20.8275L19.4194 24.222C19.1566 24.4345 18.9254 24.6835 18.7329 24.9613C18.3093 25.5358 18.051 26.2153 17.9859 26.9261C17.9352 27.4488 17.988 27.9764 18.1414 28.4786C18.2949 28.9809 18.5459 29.4479 18.8802 29.853C19.2144 30.258 19.6253 30.5932 20.0893 30.8392C20.5533 31.0852 21.0612 31.2372 21.5841 31.2865Z" fill="#F81522"/>
<path d="M18.8799 29.8529C19.3486 30.4209 19.2681 31.2613 18.7001 31.73L17.6974 32.5574C17.1294 33.026 16.2891 32.9455 15.8204 32.3776C15.3517 31.8096 15.4322 30.9692 16.0002 30.5005L17.0029 29.6731C17.5708 29.2045 18.4112 29.285 18.8799 29.8529Z" fill="#F81522"/>
<path d="M32.0596 18.9779C32.5283 19.5459 32.4478 20.3863 31.8798 20.855L30.8771 21.6824C30.3091 22.151 29.4687 22.0705 29.0001 21.5026C28.5314 20.9346 28.6119 20.0942 29.1799 19.6255L30.1826 18.7981C30.7505 18.3295 31.5909 18.41 32.0596 18.9779Z" fill="#F81522"/>
<path d="M21.5946 31.2806C22.3276 31.3508 22.865 32.0019 22.7947 32.735L22.6708 34.029C22.6006 34.7621 21.9494 35.2994 21.2164 35.2292C20.4834 35.159 19.9461 34.5078 20.0163 33.7748L20.1402 32.4807C20.2104 31.7477 20.8616 31.2104 21.5946 31.2806Z" fill="#F81522"/>
<path d="M27.2153 31.5751C27.684 32.1431 27.6035 32.9835 27.0356 33.4521C26.4676 33.9208 25.6272 33.8403 25.1585 33.2723L24.3311 32.2696C23.8624 31.7017 23.9429 30.8613 24.5109 30.3926C25.0789 29.9239 25.9193 30.0044 26.3879 30.5724L27.2153 31.5751Z" fill="#F81522"/>
<path d="M19.5991 22.3451C20.0678 22.9131 19.9873 23.7535 19.4193 24.2222C18.8514 24.6908 18.011 24.6103 17.5423 24.0424L16.7149 23.0397C16.2462 22.4717 16.3267 21.6313 16.8947 21.1626C17.4627 20.694 18.3031 20.7745 18.7717 21.3424L19.5991 22.3451Z" fill="#F81522"/>
<path d="M16.7953 25.4642C17.5283 25.5344 18.0656 26.1855 17.9954 26.9186C17.9252 27.6516 17.2741 28.1889 16.541 28.1187L15.247 27.9947C14.5139 27.9245 13.9766 27.2734 14.0468 26.5404C14.117 25.8073 14.7682 25.27 15.5012 25.3402L16.7953 25.4642Z" fill="#F81522"/>
<path d="M32.8178 23.2117C33.5508 23.2819 34.0881 23.9331 34.0179 24.6661C33.9477 25.3992 33.2965 25.9365 32.5635 25.8663L31.2694 25.7423C30.5364 25.6721 29.9991 25.0209 30.0693 24.2879C30.1395 23.5549 30.7907 23.0176 31.5237 23.0878L32.8178 23.2117Z" fill="#F81522"/>
<path d="M31.3291 28.1806C31.7978 28.7486 31.7173 29.5889 31.1493 30.0576C30.5814 30.5263 29.741 30.4458 29.2723 29.8778L28.4449 28.8751C27.9762 28.3071 28.0567 27.4668 28.6247 26.9981C29.1927 26.5294 30.033 26.6099 30.5017 27.1779L31.3291 28.1806Z" fill="#F81522"/>
<path d="M23.7129 18.9506C24.1816 19.5186 24.1011 20.3589 23.5331 20.8276C22.9651 21.2963 22.1248 21.2158 21.6561 20.6478L20.8287 19.6451C20.36 19.0772 20.4405 18.2368 21.0085 17.7681C21.5765 17.2994 22.4168 17.3799 22.8855 17.9479L23.7129 18.9506Z" fill="#F81522"/>
<path d="M26.8495 15.9783C27.5825 16.0485 28.1198 16.6997 28.0496 17.4327L27.9257 18.7268C27.8555 19.4598 27.2043 19.9971 26.4713 19.9269C25.7383 19.8567 25.2009 19.2056 25.2712 18.4725L25.3951 17.1785C25.4653 16.4454 26.1165 15.9081 26.8495 15.9783Z" fill="#F81522"/>
<path d="M18.5707 23.1935L22.6843 19.799C23.7753 18.8988 25.1793 18.4688 26.5873 18.6036C27.9954 18.7385 29.2922 19.4272 30.1924 20.5182C31.0927 21.6092 31.5227 23.0132 31.3878 24.4212C31.253 25.8292 30.5643 27.126 29.4733 28.0263L25.3596 31.4208C24.2686 32.321 22.8647 32.751 21.4566 32.6162C20.0486 32.4813 18.7518 31.7926 17.8515 30.7016C16.9513 29.6106 16.5213 28.2067 16.6561 26.7986C16.791 25.3906 17.4797 24.0938 18.5707 23.1935ZM27.776 25.9695C28.3215 25.5194 28.6659 24.871 28.7333 24.1669C28.8008 23.4629 28.5858 22.7609 28.1356 22.2154C27.6855 21.6699 27.0371 21.3256 26.3331 21.2581C25.629 21.1907 24.9271 21.4057 24.3816 21.8559L20.2679 25.2503C19.7224 25.7005 19.3781 26.3489 19.3106 27.0529C19.2432 27.7569 19.4582 28.4589 19.9083 29.0044C20.3585 29.5499 21.0069 29.8942 21.7109 29.9617C22.4149 30.0291 23.1169 29.8141 23.6624 29.364L27.776 25.9695Z" fill="#FF5761"/>
<path d="M88.6249 40.0947C89.0575 39.7968 89.427 39.4165 89.7122 38.9755C89.9975 38.5346 90.1929 38.0416 90.2873 37.525L91.2462 32.2786C91.4369 31.235 91.2053 30.1584 90.6022 29.2856C89.9992 28.4128 89.0741 27.8153 88.0305 27.6246C86.9869 27.4339 85.9103 27.6655 85.0375 28.2686C84.1647 28.8716 83.5673 29.7967 83.3765 30.8403L82.4177 36.0867C82.3536 36.4186 82.3372 36.7579 82.369 37.0944C82.4152 37.8067 82.6554 38.4927 83.0637 39.0783C83.3616 39.5107 83.742 39.8802 84.1829 40.1654C84.6239 40.4506 85.1168 40.6461 85.6334 40.7405C86.15 40.8349 86.6801 40.8264 87.1935 40.7156C87.7068 40.6048 88.1932 40.3938 88.6249 40.0947Z" fill="#F81522"/>
<path d="M85.6337 40.7408C86.3581 40.8731 86.838 41.5677 86.7056 42.2921L86.4719 43.5709C86.3395 44.2953 85.6449 44.7752 84.9205 44.6428C84.1962 44.5104 83.7163 43.8158 83.8487 43.0915L84.0824 41.8126C84.2148 41.0883 84.9093 40.6084 85.6337 40.7408Z" fill="#F81522"/>
<path d="M88.7055 23.9322C89.4299 24.0645 89.9098 24.7591 89.7774 25.4835L89.5436 26.7623C89.4113 27.4867 88.7167 27.9666 87.9923 27.8342C87.2679 27.7018 86.788 27.0072 86.9204 26.2829L87.1542 25.004C87.2866 24.2797 87.9811 23.7998 88.7055 23.9322Z" fill="#F81522"/>
<path d="M88.6291 40.0831C89.235 39.6645 90.0654 39.8163 90.484 40.4221L91.223 41.4917C91.6416 42.0975 91.4898 42.928 90.884 43.3466C90.2782 43.7652 89.4477 43.6134 89.0291 43.0076L88.2901 41.938C87.8715 41.3322 88.0233 40.5017 88.6291 40.0831Z" fill="#F81522"/>
<path d="M93.1176 36.6866C93.842 36.8189 94.3219 37.5135 94.1895 38.2379C94.0571 38.9623 93.3625 39.4422 92.6382 39.3098L91.3593 39.076C90.635 38.9437 90.1551 38.2491 90.2875 37.5247C90.4198 36.8003 91.1144 36.3204 91.8388 36.4528L93.1176 36.6866Z" fill="#F81522"/>
<path d="M81.3461 34.5352C82.0705 34.6676 82.5504 35.3621 82.418 36.0865C82.2856 36.8109 81.5911 37.2908 80.8667 37.1584L79.5879 36.9247C78.8635 36.7923 78.3836 36.0977 78.516 35.3734C78.6484 34.649 79.3429 34.1691 80.0673 34.3015L81.3461 34.5352Z" fill="#F81522"/>
<path d="M81.2116 38.7272C81.8175 38.3086 82.6479 38.4604 83.0665 39.0662C83.4851 39.672 83.3334 40.5025 82.7275 40.9211L81.658 41.6601C81.0522 42.0787 80.2217 41.9269 79.8031 41.3211C79.3845 40.7152 79.5363 39.8848 80.1421 39.4662L81.2116 38.7272Z" fill="#F81522"/>
<path d="M92.0134 26.6813C92.6192 26.2627 93.4497 26.4145 93.8683 27.0203C94.2869 27.6261 94.1351 28.4566 93.5293 28.8752L92.4598 29.6142C91.8539 30.0328 91.0235 29.881 90.6049 29.2752C90.1863 28.6693 90.338 27.8389 90.9439 27.4203L92.0134 26.6813Z" fill="#F81522"/>
<path d="M94.0766 31.4405C94.801 31.5729 95.2809 32.2674 95.1485 32.9918C95.0161 33.7162 94.3215 34.1961 93.5971 34.0637L92.3183 33.8299C91.5939 33.6976 91.114 33.003 91.2464 32.2786C91.3788 31.5542 92.0734 31.0743 92.7978 31.2067L94.0766 31.4405Z" fill="#F81522"/>
<path d="M82.3051 29.2891C83.0295 29.4215 83.5094 30.116 83.377 30.8404C83.2446 31.5648 82.55 32.0447 81.8257 31.9123L80.5468 31.6786C79.8225 31.5462 79.3426 30.8516 79.475 30.1273C79.6073 29.4029 80.3019 28.923 81.0263 29.0554L82.3051 29.2891Z" fill="#F81522"/>
<path d="M82.7888 24.9948C83.3946 24.5762 84.2251 24.7279 84.6437 25.3338L85.3827 26.4033C85.8013 27.0091 85.6495 27.8396 85.0437 28.2582C84.4378 28.6768 83.6074 28.525 83.1888 27.9192L82.4498 26.8496C82.0312 26.2438 82.183 25.4134 82.7888 24.9948Z" fill="#F81522"/>
<path d="M81.1065 35.8471L82.0654 30.6007C82.3197 29.2092 83.1163 27.9758 84.28 27.1717C85.4437 26.3677 86.8792 26.0588 88.2707 26.3131C89.6621 26.5674 90.8955 27.3641 91.6996 28.5278C92.5037 29.6915 92.8125 31.127 92.5582 32.5184L91.5994 37.7648C91.345 39.1563 90.5484 40.3897 89.3847 41.1938C88.221 41.9978 86.7855 42.3067 85.3941 42.0524C84.0026 41.7981 82.7692 41.0014 81.9651 39.8377C81.161 38.674 80.8522 37.2385 81.1065 35.8471ZM89.935 32.039C90.0622 31.3432 89.9077 30.6255 89.5057 30.0436C89.1037 29.4618 88.4869 29.0635 87.7912 28.9363C87.0955 28.8092 86.3778 28.9636 85.7959 29.3656C85.214 29.7677 84.8157 30.3844 84.6886 31.0801L83.7297 36.3265C83.6026 37.0222 83.757 37.74 84.159 38.3218C84.5611 38.9037 85.1778 39.302 85.8735 39.4292C86.5692 39.5563 87.2869 39.4019 87.8688 38.9999C88.4507 38.5978 88.849 37.9811 88.9761 37.2854L89.935 32.039Z" fill="#FF5761"/>
</g>
<defs>
<clipPath id="clip0_873_21557">
<rect width="91.6667" height="91.6667" fill="white" transform="translate(4.9165 4.1665)"/>
</clipPath>
</defs>
</svg>
