<svg width="225" height="226" viewBox="0 0 225 226" fill="none" xmlns="http://www.w3.org/2000/svg">
<path d="M124.963 72.3164C124.963 76.4193 119.247 81.681 113.044 81.681C106.841 81.681 101.815 76.4193 101.815 72.3164C101.815 68.2135 106.841 64.8779 113.044 64.8779C119.247 64.8779 124.963 68.1978 124.963 72.3164Z" fill="#4196FD"/>
<path d="M118.179 69.6229C117.959 69.9048 117.739 70.218 117.692 70.5625C117.645 70.9697 117.833 71.3768 118.006 71.7527C118.807 73.3656 119.655 75.0569 121.115 76.1061C123.298 77.6878 126.549 77.4215 128.638 75.699C128.842 75.5267 129.03 75.3388 129.14 75.1039C129.266 74.775 129.187 74.3992 129.187 74.039C129.172 73.0368 129.737 72.1128 129.831 71.1263C130.067 68.605 127.617 65.9272 125.261 65.5357C122.513 65.0659 119.796 67.5871 118.179 69.6229Z" fill="#4196FD"/>
<path d="M124.79 64.3143C124.727 64.0637 124.649 63.7975 124.476 63.6096C124.272 63.3903 123.958 63.3277 123.659 63.2494C122.387 62.9675 121.053 62.7013 119.796 63.0458C117.912 63.5626 116.608 65.5201 116.656 67.4619C116.656 67.6498 116.671 67.8534 116.765 68.01C116.891 68.2293 117.142 68.3545 117.347 68.5111C117.912 68.9496 118.195 69.6856 118.713 70.1867C120.032 71.4552 122.654 71.2673 123.942 70.1241C125.45 68.7773 125.23 66.1152 124.806 64.2986L124.79 64.3143Z" fill="#4196FD"/>
<path d="M110.547 61.9958C110.249 62.1994 109.934 62.4186 109.777 62.7318C109.589 63.1076 109.636 63.5618 109.699 63.9689C109.934 65.7698 110.186 67.6647 111.238 69.1524C112.808 71.3917 116.012 72.1904 118.556 71.2195C118.807 71.1255 119.058 71.0159 119.231 70.8123C119.467 70.5305 119.514 70.1546 119.624 69.8101C119.938 68.8548 120.786 68.1501 121.194 67.2262C122.262 64.8929 120.786 61.526 118.666 60.3828C116.185 59.0361 112.761 60.5551 110.547 61.9801V61.9958Z" fill="#4196FD"/>
<path d="M109.181 59.4127C108.836 59.3501 108.459 59.3031 108.129 59.4284C107.736 59.5693 107.469 59.9295 107.234 60.274C106.182 61.7304 105.098 63.2651 104.862 65.0503C104.501 67.7125 106.26 70.4373 108.757 71.4395C108.993 71.5335 109.26 71.6275 109.511 71.5962C109.872 71.5492 110.155 71.3143 110.469 71.142C111.348 70.6566 112.416 70.7192 113.343 70.3277C115.683 69.3568 116.876 65.9429 116.122 63.7035C115.243 61.0727 111.757 59.8825 109.197 59.4284L109.181 59.4127Z" fill="#4196FD"/>
<path d="M110.012 62.6544C109.887 62.3098 109.73 61.9653 109.447 61.7304C109.117 61.4642 108.677 61.4172 108.253 61.3703C106.432 61.198 104.531 61.0414 102.835 61.7304C100.307 62.764 98.8152 65.7081 99.2078 68.4016C99.2393 68.6678 99.3021 68.934 99.4591 69.1532C99.679 69.4508 100.04 69.576 100.354 69.764C101.218 70.2807 101.72 71.2517 102.537 71.8624C104.594 73.4127 108.206 72.708 109.792 70.9071C111.661 68.7931 110.923 65.1286 110.012 62.6544Z" fill="#4196FD"/>
<path d="M107.547 65.0028C107.327 64.5956 107.06 64.1728 106.652 63.9379C106.181 63.656 105.6 63.6873 105.05 63.703C102.679 63.8283 100.213 63.9849 98.1719 65.1907C95.1254 67.0072 93.7748 71.0475 94.7956 74.4457C94.8898 74.7746 95.0155 75.1034 95.2667 75.354C95.5965 75.6828 96.099 75.7768 96.5387 75.9647C97.7479 76.4658 98.5803 77.609 99.7266 78.2354C102.648 79.8327 107.155 78.2354 108.851 75.6359C110.829 72.5665 109.196 67.9938 107.547 65.0028Z" fill="#4196FD"/>
<path d="M97.3242 73.585C97.0416 73.8669 96.7589 74.1801 96.6647 74.5716C96.5547 75.0257 96.7118 75.4955 96.8688 75.934C97.5441 77.8289 98.2822 79.8177 99.7584 81.1801C101.988 83.2159 105.632 83.3411 108.16 81.6969C108.411 81.5403 108.647 81.3523 108.788 81.1018C108.977 80.7416 108.945 80.3188 108.977 79.9273C109.087 78.8154 109.84 77.8602 110.076 76.764C110.673 73.9922 108.286 70.7036 105.726 69.9519C102.726 69.075 99.3815 71.5179 97.3242 73.585Z" fill="#4196FD"/>
<path d="M103.229 75.0103C102.884 75.1513 102.538 75.3079 102.318 75.6054C102.067 75.9499 102.02 76.3884 102.004 76.8112C101.894 78.6434 101.784 80.5539 102.538 82.2296C103.669 84.7351 106.668 86.1289 109.385 85.6591C109.652 85.6121 109.919 85.5495 110.123 85.3772C110.406 85.1423 110.531 84.7821 110.704 84.4533C111.191 83.5607 112.165 83.0282 112.746 82.1982C114.238 80.0842 113.421 76.498 111.552 74.9634C109.354 73.1625 105.695 74.0238 103.229 75.0103Z" fill="#4196FD"/>
<path d="M105.866 81.2425C105.693 81.6027 105.536 81.9786 105.568 82.3701C105.615 82.8242 105.913 83.2157 106.196 83.5602C107.436 85.0949 108.771 86.6922 110.593 87.4752C113.325 88.6497 116.733 87.5692 118.539 85.2202C118.712 84.9853 118.884 84.7504 118.932 84.4528C118.994 84.0613 118.822 83.6855 118.727 83.294C118.46 82.2291 118.853 81.1016 118.712 80.0211C118.366 77.2493 115.068 74.9942 112.462 75.1352C109.399 75.3074 107.107 78.6587 105.866 81.2269V81.2425Z" fill="#4196FD"/>
<path d="M119.655 75.4953C119.467 75.3073 119.263 75.1194 118.996 75.0568C118.697 74.9785 118.383 75.0881 118.085 75.1977C116.829 75.6519 115.509 76.1373 114.614 77.1082C113.264 78.5803 113.185 80.9919 114.285 82.6518C114.395 82.8084 114.52 82.9807 114.677 83.059C114.913 83.1843 115.195 83.153 115.462 83.1843C116.2 83.2626 116.829 83.748 117.551 83.9046C119.388 84.2961 121.571 82.7145 122.058 81.0232C122.639 79.0501 121.006 76.842 119.64 75.4953H119.655Z" fill="#4196FD"/>
<path d="M116.86 75.5583C116.671 75.8089 116.483 76.0751 116.436 76.3883C116.389 76.7485 116.561 77.1087 116.718 77.4375C117.425 78.8469 118.194 80.3189 119.482 81.2429C121.414 82.621 124.272 82.3547 126.078 80.8357C126.251 80.6948 126.423 80.5225 126.518 80.3033C126.628 80.0058 126.565 79.6769 126.549 79.3637C126.533 78.4867 127.02 77.6724 127.099 76.7955C127.287 74.5718 125.12 72.2384 123.047 71.9096C120.629 71.5181 118.257 73.7418 116.86 75.5583Z" fill="#4196FD"/>
<path d="M121.179 68.2298C120.881 68.3394 120.582 68.4647 120.378 68.7153C120.143 68.9972 120.095 69.3887 120.064 69.7488C119.907 71.3305 119.766 72.9904 120.378 74.4625C121.289 76.6549 123.849 77.9546 126.204 77.6258C126.44 77.5945 126.675 77.5475 126.848 77.4065C127.099 77.2186 127.225 76.9054 127.382 76.6235C127.837 75.8719 128.685 75.4334 129.219 74.7287C130.57 72.9435 129.973 69.7958 128.387 68.4177C126.534 66.7891 123.33 67.4312 121.179 68.2142V68.2298Z" fill="#4196FD"/>
<path d="M61.9939 85.81C73.9151 109.418 104.889 116.411 128.756 110.213C144.578 106.098 166.725 91.6196 166.334 72.8693C166.236 67.8407 158.382 68.2021 158.492 73.2494C158.798 88.2095 138.36 99.6522 126.352 102.759C105.584 108.126 78.9197 102.081 68.6105 81.6256C66.3354 77.1209 59.7273 81.3393 61.9752 85.8218L61.9939 85.81Z" fill="#4196FD"/>
<path d="M89.1435 38.0684H89.1278C85.9188 38.0684 83.3174 40.6625 83.3174 43.8625V51.1914C83.3174 54.3914 85.9188 56.9855 89.1278 56.9855H89.1435C92.3526 56.9855 94.954 54.3914 94.954 51.1914V43.8625C94.954 40.6625 92.3526 38.0684 89.1435 38.0684Z" fill="#4196FD"/>
<path d="M135.848 38.0684H135.832C132.623 38.0684 130.021 40.6625 130.021 43.8625V51.1914C130.021 54.3914 132.623 56.9855 135.832 56.9855H135.848C139.057 56.9855 141.658 54.3914 141.658 51.1914V43.8625C141.658 40.6625 139.057 38.0684 135.848 38.0684Z" fill="#4196FD"/>
<path d="M48.1523 153.828V161.75H51.293V164.188H48.1523V175.203H45.1523V153.828H48.1523ZM32.168 170.023V155.797H42.1758V158.211H35.1445V167.562C38.2383 167.539 40.793 167.375 43.6289 166.883L43.957 169.391C40.6406 169.953 37.7344 170.035 33.9727 170.023H32.168ZM61.793 154.227C66.5391 154.215 69.5391 155.797 69.5508 158.398C69.5391 160.988 66.5391 162.535 61.793 162.523C57.0703 162.535 54.0117 160.988 54.0117 158.398C54.0117 155.797 57.0703 154.215 61.793 154.227ZM52.0664 166.156V163.766H71.5195V166.156H52.0664ZM54.3164 174.922V167.656H69.1992V174.922H54.3164ZM57.1289 158.398C57.1055 159.594 58.8047 160.203 61.793 160.203C64.7344 160.203 66.457 159.594 66.457 158.398C66.457 157.168 64.7344 156.547 61.793 156.547C58.8047 156.547 57.1055 157.168 57.1289 158.398ZM57.2695 172.531H66.2695V170.023H57.2695V172.531ZM91.3008 153.828V175.156H88.4414V153.828H91.3008ZM72.9961 163.062C72.9961 158.293 74.8125 155.34 77.6367 155.352C80.2031 155.34 81.9609 157.742 82.2891 161.727H84.0352V154.133H86.8477V174.172H84.0352V164.094H82.3125C82.0547 168.277 80.2617 170.82 77.6367 170.82C74.8125 170.82 72.9961 167.855 72.9961 163.062ZM75.7617 163.062C75.7383 166.344 76.4414 167.961 77.6367 167.938C78.8672 167.961 79.5938 166.344 79.582 163.062C79.5938 159.793 78.8672 158.164 77.6367 158.164C76.4414 158.164 75.7383 159.793 75.7617 163.062ZM117.223 162.992V165.359H109.488V155.609H117.059V158H112.488V162.992H117.223ZM99.082 172.672V170.258H107.285V166.297H110.238V170.258H118.605V172.672H99.082ZM100.582 165.359V155.609H108.152V158H103.582V162.934C105.258 162.887 106.699 162.758 108.293 162.453L108.504 164.891C106.336 165.336 104.484 165.371 101.941 165.359H100.582ZM136.23 155.586V165.828H125.988V155.586H136.23ZM128.449 174.781V167.867H131.426V172.391H143.051V174.781H128.449ZM128.941 163.484H133.277V157.977H128.941V163.484ZM139.277 169.391V153.828H142.277V159.969H145.16V162.43H142.277V169.391H139.277ZM165.949 161.914V164.352H162.926V175.109H159.926V153.828H162.926V161.914H165.949ZM146.777 169.906V155.867H149.754V167.434C152.484 167.387 155.414 167.129 158.496 166.508L158.801 168.992C155.227 169.719 151.77 169.906 148.629 169.906H146.777ZM186.363 170.211V172.672H166.84V170.211H171.199V164.984C169.547 163.988 168.551 162.477 168.551 160.602C168.551 157.145 171.926 154.871 176.566 154.859C181.184 154.871 184.594 157.145 184.605 160.602C184.594 162.441 183.633 163.93 182.027 164.926V170.211H186.363ZM171.504 160.602C171.504 162.688 173.508 163.977 176.566 163.977C179.578 163.977 181.641 162.688 181.652 160.602C181.641 158.457 179.578 157.215 176.566 157.227C173.508 157.215 171.504 158.457 171.504 160.602ZM174.152 170.211H179.004V166.062C178.242 166.215 177.422 166.297 176.566 166.297C175.711 166.297 174.902 166.215 174.152 166.074V170.211ZM192.434 156.031L192.129 167.914H189.129L188.824 156.031H192.434ZM188.684 171.242C188.66 170.164 189.551 169.285 190.652 169.297C191.695 169.285 192.598 170.164 192.598 171.242C192.598 172.332 191.695 173.211 190.652 173.211C189.551 173.211 188.66 172.332 188.684 171.242Z" fill="#333D4B"/>
<path d="M5.86621 193.521C5.85938 195.572 7.20605 197.691 9.09277 198.498L8.38184 199.51C6.93945 198.874 5.79102 197.521 5.22363 195.887C4.65625 197.637 3.50781 199.127 2.0791 199.824L1.32715 198.799C3.17285 197.931 4.54004 195.634 4.55371 193.521V192.223H1.75098V191.143H8.65527V192.223H5.86621V193.521ZM10.2002 202.162V189.912H11.499V202.162H10.2002ZM23.2432 190.527V191.457C23.25 192.414 23.25 193.521 22.9287 194.998H24.665V196.064H13.4541V194.998H21.6162C21.9443 193.569 21.958 192.523 21.958 191.594H14.8623V190.527H23.2432ZM14.8213 202.012V197.623H23.2568V202.012H14.8213ZM16.0928 200.959H21.9717V198.648H16.0928V200.959ZM35.2881 189.912V194.889H37.0654V195.955H35.2881V202.162H33.9893V189.912H35.2881ZM25.4443 198.717C27.2354 196.851 27.8848 194.745 28.0146 192.291H25.8818V191.225H29.2451C29.2383 194.287 28.6914 197.076 26.4697 199.441L25.4443 198.717ZM28.9443 199.537C30.7695 197.404 31.3027 194.902 31.3984 192.291H29.6416V191.225H32.6221C32.6221 194.321 32.2324 197.589 29.9834 200.248L28.9443 199.537ZM42.165 193.521C42.1582 195.572 43.5049 197.691 45.3916 198.498L44.6807 199.51C43.2383 198.874 42.0898 197.521 41.5225 195.887C40.9551 197.637 39.8066 199.127 38.3779 199.824L37.626 198.799C39.4717 197.931 40.8389 195.634 40.8525 193.521V192.223H38.0498V191.143H44.9541V192.223H42.165V193.521ZM46.499 202.162V189.912H47.7979V202.162H46.499ZM54.9209 190.691V192.564H57.2861V190.691H58.4893V196.475H53.6904V190.691H54.9209ZM54.9209 195.422H57.2861V193.576H54.9209V195.422ZM55.29 199.018V197.965H63.6162V202.162H62.3311V199.018H55.29ZM59.7471 197.199V190.145H60.9502V193.043H62.3857V189.926H63.6162V197.281H62.3857V194.109H60.9502V197.199H59.7471ZM75.0459 197.637V202.012H66.6104V197.637H75.0459ZM65.2842 196.393V195.354H69.7549V193.07H71.0264V195.354H76.4268V196.393H65.2842ZM66.583 191.484V190.459H75.0459V191.471C75.0322 192.435 75.0322 193.439 74.7178 194.697L73.4189 194.574C73.7471 193.33 73.7471 192.428 73.7471 191.484H66.583ZM67.8955 200.959H73.7744V198.662H67.8955V200.959ZM84.1924 191.225V191.977C84.1855 193.009 84.1855 194.588 83.8369 196.775L82.5518 196.68C82.8662 194.725 82.9004 193.296 82.9072 192.277H77.9307V191.225H84.1924ZM77.2471 198.471C78.0127 198.464 78.8672 198.457 79.7627 198.437V194.725H81.0479V198.396C82.3467 198.341 83.6797 198.259 84.9033 198.102L84.9717 199.072C82.4219 199.482 79.5713 199.537 77.3975 199.523L77.2471 198.471ZM85.6006 202.162V189.912H86.9131V194.971H88.7861V196.078H86.9131V202.162H85.6006ZM102.513 189.912V193.084H104.29V194.191H102.513V197.295H101.214V189.912H102.513ZM92.9014 192.195V191.156H95.9092V189.816H97.208V191.156H100.202V192.195H92.9014ZM93.5713 194.916C93.5645 193.61 94.7676 192.729 96.5518 192.729C98.3223 192.729 99.5186 193.61 99.5186 194.916C99.5186 196.242 98.3154 197.11 96.5518 197.117C94.7676 197.11 93.5645 196.242 93.5713 194.916ZM94.6924 202.012V197.938H102.513V202.012H94.6924ZM94.8291 194.916C94.8154 195.675 95.5127 196.126 96.5518 196.133C97.5908 196.126 98.2881 195.675 98.3018 194.916C98.2881 194.185 97.5908 193.72 96.5518 193.727C95.5127 193.72 94.8154 194.185 94.8291 194.916ZM95.9639 200.959H101.228V198.963H95.9639V200.959ZM108.022 191.361C108.009 194.103 107.667 196.946 105.958 199.346L104.946 198.771C106.375 196.857 106.806 194.731 106.895 192.428H105.233V191.361H108.022ZM107.694 199.496C109.28 197.363 109.574 194.8 109.622 192.428H108.392V191.361H110.743C110.743 192.394 110.716 193.515 110.586 194.656H112.028V190.227H113.259V201.561H112.028V195.709H110.436C110.162 197.233 109.656 198.744 108.706 200.084L107.694 199.496ZM114.339 202.162V189.912H115.583V202.162H114.339ZM126.562 191.936V192.988H120.478V191.936H122.884V190.268H124.169V191.936H126.562ZM120.874 196.543C120.867 194.896 121.988 193.727 123.526 193.727C125.078 193.727 126.186 194.896 126.192 196.543C126.186 198.218 125.078 199.394 123.526 199.387C121.988 199.394 120.867 198.218 120.874 196.543ZM122.022 196.543C122.016 197.582 122.645 198.279 123.526 198.279C124.408 198.279 125.044 197.582 125.044 196.543C125.044 195.524 124.408 194.813 123.526 194.807C122.645 194.813 122.016 195.524 122.022 196.543ZM127.122 201.588V190.186H128.353V195.012H129.761V189.912H130.991V202.162H129.761V196.078H128.353V201.588H127.122ZM143.774 196.816V197.869H138.798V202.148H137.526V197.869H132.604V196.816H143.774ZM133.233 194.861C135.517 194.547 137.417 193.187 137.458 191.676H133.644V190.637H142.722V191.676H138.935C138.955 193.187 140.842 194.547 143.159 194.861L142.681 195.887C140.671 195.572 138.935 194.581 138.189 193.187C137.438 194.581 135.708 195.572 133.726 195.887L133.233 194.861ZM154.917 189.912V202.189H153.618V196.611H151.048V195.518H153.618V193.59H151.048V192.523H153.618V189.912H154.917ZM144.636 198.566C146.536 197.657 147.801 195.299 147.808 193.029V190.938H149.12V193.029C149.12 195.285 150.378 197.534 152.251 198.402L151.458 199.441C150.063 198.744 149.004 197.336 148.471 195.627C147.924 197.384 146.851 198.867 145.456 199.592L144.636 198.566ZM161.22 193.029C161.22 195.271 162.478 197.507 164.351 198.348L163.558 199.387C162.17 198.689 161.117 197.309 160.577 195.634C160.037 197.397 158.971 198.888 157.556 199.619L156.735 198.566C158.636 197.657 159.9 195.299 159.907 193.029V190.938H161.22V193.029ZM162.997 195.039V193.986H165.731V189.912H167.017V202.189H165.731V195.039H162.997ZM181.946 189.912V192.797H183.724V193.877H181.946V196.83H180.647V189.912H181.946ZM172.267 195.969C175.199 195.196 176.922 193.658 177.161 191.744H172.841V190.678H178.569C178.562 193.815 176.437 196.023 172.786 197.008L172.267 195.969ZM174.099 201.998V197.35H181.946V201.998H174.099ZM175.397 200.959H180.661V198.43H175.397V200.959ZM188.673 193.029C188.659 195.196 189.924 197.418 191.749 198.307L190.942 199.346C189.609 198.648 188.577 197.281 188.037 195.647C187.49 197.384 186.417 198.854 185.022 199.578L184.216 198.525C186.096 197.623 187.367 195.271 187.374 193.029V190.938H188.673V193.029ZM192.665 202.162V189.912H193.964V194.793H195.933V195.9H193.964V202.162H192.665ZM202.577 191.936V192.988H196.493V191.936H198.899V190.268H200.185V191.936H202.577ZM196.89 196.543C196.883 194.896 198.004 193.727 199.542 193.727C201.094 193.727 202.201 194.896 202.208 196.543C202.201 198.218 201.094 199.394 199.542 199.387C198.004 199.394 196.883 198.218 196.89 196.543ZM198.038 196.543C198.031 197.582 198.66 198.279 199.542 198.279C200.424 198.279 201.06 197.582 201.06 196.543C201.06 195.524 200.424 194.813 199.542 194.807C198.66 194.813 198.031 195.524 198.038 196.543ZM203.138 201.588V190.186H204.368V195.012H205.776V189.912H207.007V202.162H205.776V196.078H204.368V201.588H203.138ZM219.831 199.551V200.631H208.62V199.551H211.3V196.352C210.295 195.798 209.68 194.923 209.687 193.822C209.68 191.895 211.573 190.63 214.198 190.623C216.83 190.63 218.724 191.895 218.724 193.822C218.724 194.902 218.136 195.771 217.151 196.324V199.551H219.831ZM210.944 193.822C210.944 195.135 212.277 195.989 214.198 195.996C216.105 195.989 217.459 195.135 217.466 193.822C217.459 192.503 216.105 191.662 214.198 191.662C212.277 191.662 210.944 192.503 210.944 193.822ZM212.585 199.551H215.839V196.83C215.34 196.946 214.786 197.008 214.198 197.008C213.624 197.008 213.077 196.946 212.585 196.83V199.551ZM222.976 191.102L222.853 198.143H221.499L221.376 191.102H222.976ZM221.212 200.125C221.205 199.592 221.649 199.154 222.183 199.154C222.709 199.154 223.146 199.592 223.153 200.125C223.146 200.658 222.709 201.089 222.183 201.096C221.649 201.089 221.205 200.658 221.212 200.125ZM12.1211 211.047V212.127H7.81445V218.102C9.87207 218.088 11.2734 218.013 12.8867 217.705L13.0371 218.771C11.2734 219.106 9.7832 219.182 7.47266 219.182H6.50195V211.047H12.1211ZM11.4238 215.367V214.287H14.8281V209.912H16.127V222.189H14.8281V215.367H11.4238ZM32.8613 214.725V215.791H30.9609V222.148H29.6621V209.912H30.9609V214.725H32.8613ZM21.8828 219.072V211.102H23.168V217.992C24.877 217.985 26.6611 217.842 28.6094 217.445L28.7598 218.539C26.6611 218.956 24.7334 219.079 22.8945 219.072H21.8828ZM44.6875 216.311V217.35H33.5176V216.311H44.6875ZM34.7207 212.77C34.7139 211.231 36.4297 210.315 39.0957 210.322C41.748 210.315 43.4639 211.231 43.4707 212.77C43.4639 214.314 41.748 215.251 39.0957 215.258C36.4297 215.251 34.7139 214.314 34.7207 212.77ZM34.9258 221.902V218.348H36.2383V220.85H43.4297V221.902H34.9258ZM36.0605 212.77C36.0537 213.679 37.2158 214.191 39.0957 214.191C40.9688 214.191 42.1377 213.679 42.1309 212.77C42.1377 211.895 40.9688 211.361 39.0957 211.361C37.2158 211.361 36.0537 211.895 36.0605 212.77ZM50.7852 210.691V212.564H53.1504V210.691H54.3535V216.475H49.5547V210.691H50.7852ZM50.7852 215.422H53.1504V213.576H50.7852V215.422ZM51.1543 219.018V217.965H59.4805V222.162H58.1953V219.018H51.1543ZM55.6113 217.199V210.145H56.8145V213.043H58.25V209.926H59.4805V217.281H58.25V214.109H56.8145V217.199H55.6113ZM70.9102 217.637V222.012H62.4746V217.637H70.9102ZM61.1484 216.393V215.354H65.6191V213.07H66.8906V215.354H72.291V216.393H61.1484ZM62.4473 211.484V210.459H70.9102V211.471C70.8965 212.435 70.8965 213.439 70.582 214.697L69.2832 214.574C69.6113 213.33 69.6113 212.428 69.6113 211.484H62.4473ZM63.7598 220.959H69.6387V218.662H63.7598V220.959ZM83.3789 209.912V222.189H82.0801V209.912H83.3789ZM73.6582 215.121C73.6582 212.503 74.9775 210.835 76.8301 210.828C78.6484 210.835 79.9883 212.503 79.9883 215.121C79.9883 217.767 78.6484 219.435 76.8301 219.428C74.9775 219.435 73.6582 217.767 73.6582 215.121ZM74.916 215.121C74.9092 217.069 75.6885 218.266 76.8301 218.266C77.9512 218.266 78.7305 217.069 78.7305 215.121C78.7305 213.2 77.9512 211.997 76.8301 211.99C75.6885 211.997 74.9092 213.2 74.916 215.121ZM95.8887 213.016V214.027H93.5234V215.121C94.6309 215.066 95.7314 214.991 96.7637 214.875L96.8184 215.764C94.2139 216.16 91.3154 216.235 88.9844 216.229L88.8203 215.217C89.873 215.217 91.0283 215.203 92.2109 215.169V214.027H89.9277V210.432H95.752V211.416H91.2676V213.016H95.8887ZM90.7207 218.006V216.98H98.9375V219.947H92.0195V221H99.3203V222.039H90.748V218.977H97.6523V218.006H90.7207ZM97.6523 216.461V209.926H98.9375V216.461H97.6523ZM110.545 210.992C110.538 212.619 112.527 214.144 114.934 214.465L114.428 215.531C112.425 215.21 110.668 214.171 109.868 212.729C109.068 214.171 107.312 215.21 105.322 215.531L104.803 214.465C107.202 214.144 109.185 212.64 109.191 210.992V210.322H110.545V210.992ZM104.27 217.801V216.734H115.439V217.801H110.463V222.162H109.191V217.801H104.27ZM124.039 218.006C124.039 219.059 124.559 220.173 125.673 220.836C126.794 220.118 127.348 218.949 127.348 218.006V217.418H128.619V218.006C128.612 219.277 129.453 220.508 131.053 221.027L130.41 221.984C129.2 221.567 128.373 220.747 127.949 219.749C127.56 220.733 126.828 221.629 125.707 222.094C124.531 221.649 123.786 220.781 123.41 219.783C122.966 220.747 122.159 221.561 121.004 221.984L120.348 221.027C121.92 220.467 122.774 219.188 122.781 218.006V217.418H124.039V218.006ZM120.033 213.494C120.04 211.778 121.421 210.603 123.301 210.596C125.174 210.603 126.555 211.778 126.555 213.494C126.555 215.189 125.174 216.365 123.301 216.365C121.421 216.365 120.04 215.189 120.033 213.494ZM121.305 213.494C121.298 214.561 122.139 215.285 123.301 215.285C124.449 215.285 125.283 214.561 125.283 213.494C125.283 212.421 124.449 211.696 123.301 211.703C122.139 211.696 121.298 212.421 121.305 213.494ZM128.646 216.898V209.926H129.945V216.898H128.646ZM141.812 215.559V216.598H138.107V219.592H143.098V220.658H131.887V219.592H136.822V216.598H133.281V210.855H141.703V211.908H134.58V215.559H141.812ZM155.184 216.598V217.65H143.973V216.598H148.936V215.436H145.408V212.318H152.477V211.225H145.381V210.199H153.775V213.275H146.693V214.424H154.021V215.436H150.221V216.598H155.184ZM145.23 219.551V218.512H153.844V222.066H152.531V219.551H145.23ZM169.443 215.381V216.447H165.738V219.564H170.715V220.631H159.504V219.564H164.439V216.447H160.844V210.924H162.156V215.381H169.443ZM177.441 210.65V214.219H173.395V215.914C175.527 215.914 176.689 215.866 178.07 215.613L178.193 216.666C176.696 216.919 175.438 216.96 172.998 216.967H172.109V213.234H176.143V211.689H172.096V210.65H177.441ZM173.504 219.127V218.074H181.816V222.176H180.518V219.127H173.504ZM178.221 215.299V214.26H180.518V212.742H178.221V211.703H180.518V209.926H181.816V217.459H180.518V215.299H178.221ZM193.328 209.871V212.742H195.119V213.809H193.328V216.611H192.029V209.871H193.328ZM183.717 211.977V210.951H186.725V209.803H188.023V210.951H191.018V211.977H183.717ZM184.387 214.451C184.38 213.214 185.569 212.441 187.367 212.441C189.165 212.441 190.334 213.214 190.334 214.451C190.334 215.695 189.165 216.454 187.367 216.447C185.569 216.454 184.38 215.695 184.387 214.451ZM185.412 218.156V217.186H193.328V220.029H186.711V221.055H193.752V222.039H185.439V219.113H192.043V218.156H185.412ZM185.645 214.451C185.631 215.114 186.308 215.504 187.367 215.504C188.42 215.504 189.104 215.114 189.117 214.451C189.104 213.788 188.42 213.378 187.367 213.371C186.308 213.378 185.631 213.788 185.645 214.451ZM206.33 209.912V222.162H205.1V209.912H206.33ZM195.762 218.621C198.359 217.076 199.604 215.019 199.829 212.496H196.336V211.43H201.121C201.114 212.626 200.95 213.768 200.574 214.834H202.516V210.227H203.746V221.561H202.516V215.873H200.123C199.398 217.295 198.229 218.539 196.5 219.551L195.762 218.621ZM219.113 219.551V220.631H207.902V219.551H210.582V216.352C209.577 215.798 208.962 214.923 208.969 213.822C208.962 211.895 210.855 210.63 213.48 210.623C216.112 210.63 218.006 211.895 218.006 213.822C218.006 214.902 217.418 215.771 216.434 216.324V219.551H219.113ZM210.227 213.822C210.227 215.135 211.56 215.989 213.48 215.996C215.388 215.989 216.741 215.135 216.748 213.822C216.741 212.503 215.388 211.662 213.48 211.662C211.56 211.662 210.227 212.503 210.227 213.822ZM211.867 219.551H215.121V216.83C214.622 216.946 214.068 217.008 213.48 217.008C212.906 217.008 212.359 216.946 211.867 216.83V219.551Z" fill="#6B7684"/>
</svg>
