<svg width="111" height="86" viewBox="0 0 111 86" fill="none" xmlns="http://www.w3.org/2000/svg">
<g id="Group 40">
<g id="Group">
<path id="Vector" d="M67.9601 34.3164C67.9601 38.4193 62.2439 43.681 56.0408 43.681C49.8378 43.681 44.8125 38.4193 44.8125 34.3164C44.8125 30.2135 49.8378 26.8779 56.0408 26.8779C62.2439 26.8779 67.9601 30.1978 67.9601 34.3164Z" fill="#4196FD"/>
<g id="Group_2">
<path id="Vector_2" d="M61.1778 31.6229C60.9579 31.9048 60.738 32.218 60.6909 32.5625C60.6438 32.9697 60.8323 33.3768 61.005 33.7527C61.8059 35.3656 62.6539 37.0569 64.1144 38.1061C66.2972 39.6878 69.548 39.4215 71.6366 37.699C71.8408 37.5267 72.0292 37.3388 72.1391 37.1039C72.2648 36.775 72.1862 36.3992 72.1862 36.039C72.1705 35.0368 72.7359 34.1128 72.8301 33.1263C73.0657 30.605 70.6158 27.9272 68.2602 27.5357C65.512 27.0659 62.7953 29.5871 61.1778 31.6229Z" fill="#4196FD"/>
<path id="Vector_3" d="M67.7882 26.3143C67.7254 26.0637 67.6469 25.7975 67.4742 25.6096C67.27 25.3903 66.9559 25.3277 66.6575 25.2494C65.3855 24.9675 64.0507 24.7013 62.7944 25.0458C60.9099 25.5626 59.6065 27.5201 59.6536 29.4619C59.6536 29.6498 59.6693 29.8534 59.7635 30.01C59.8891 30.2293 60.1404 30.3545 60.3446 30.5111C60.9099 30.9496 61.1926 31.6856 61.7108 32.1867C63.0299 33.4552 65.6525 33.2673 66.9402 32.1241C68.4478 30.7773 68.228 28.1152 67.8039 26.2986L67.7882 26.3143Z" fill="#4196FD"/>
<path id="Vector_4" d="M53.544 23.9963C53.2456 24.1999 52.9315 24.4191 52.7745 24.7323C52.586 25.1081 52.6331 25.5623 52.696 25.9694C52.9315 27.7703 53.1828 29.6652 54.235 31.1529C55.8054 33.3922 59.009 34.1909 61.553 33.22C61.8043 33.126 62.0555 33.0164 62.2283 32.8128C62.4638 32.5309 62.511 32.1551 62.6209 31.8106C62.935 30.8553 63.783 30.1506 64.1913 29.2267C65.2592 26.8934 63.783 23.5265 61.6629 22.3833C59.1817 21.0366 55.7582 22.5556 53.544 23.9806V23.9963Z" fill="#4196FD"/>
<path id="Vector_5" d="M52.1781 21.4127C51.8327 21.3501 51.4557 21.3031 51.126 21.4284C50.7334 21.5693 50.4664 21.9295 50.2308 22.274C49.1787 23.7304 48.0951 25.2651 47.8595 27.0503C47.4984 29.7125 49.2572 32.4373 51.7541 33.4395C51.9897 33.5335 52.2566 33.6275 52.5079 33.5962C52.8691 33.5492 53.1518 33.3143 53.4659 33.142C54.3453 32.6566 55.4131 32.7192 56.3397 32.3277C58.6796 31.3568 59.8731 27.9429 59.1193 25.7035C58.2399 23.0727 54.7536 21.8825 52.1938 21.4284L52.1781 21.4127Z" fill="#4196FD"/>
<path id="Vector_6" d="M53.0112 24.6544C52.8856 24.3098 52.7285 23.9653 52.4459 23.7304C52.1161 23.4642 51.6764 23.4172 51.2523 23.3703C49.4307 23.198 47.5305 23.0414 45.8345 23.7304C43.3061 24.764 41.8143 27.7081 42.2069 30.4016C42.2383 30.6678 42.3011 30.934 42.4581 31.1532C42.678 31.4508 43.0392 31.576 43.3533 31.764C44.217 32.2807 44.7195 33.2517 45.5361 33.8624C47.5933 35.4127 51.2053 34.708 52.7914 32.9071C54.6601 30.7931 53.922 27.1286 53.0112 24.6544Z" fill="#4196FD"/>
<path id="Vector_7" d="M50.5453 27.0033C50.3254 26.5961 50.0585 26.1733 49.6501 25.9384C49.179 25.6565 48.598 25.6878 48.0483 25.7035C45.677 25.8288 43.2115 25.9854 41.17 27.1912C38.1234 29.0077 36.7729 33.048 37.7936 36.4462C37.8879 36.7751 38.0135 37.1039 38.2648 37.3545C38.5946 37.6833 39.0971 37.7773 39.5368 37.9652C40.746 38.4663 41.5783 39.6095 42.7247 40.2359C45.6456 41.8332 50.1527 40.2359 51.8487 37.6363C53.8274 34.567 52.1942 29.9943 50.5453 27.0033Z" fill="#4196FD"/>
<path id="Vector_8" d="M40.3213 35.585C40.0386 35.8669 39.756 36.1801 39.6617 36.5716C39.5518 37.0257 39.7088 37.4955 39.8659 37.934C40.5411 39.8289 41.2792 41.8177 42.7554 43.1801C44.9854 45.2159 48.6287 45.3411 51.157 43.6969C51.4083 43.5403 51.6439 43.3523 51.7852 43.1018C51.9737 42.7416 51.9422 42.3188 51.9736 41.9273C52.0836 40.8154 52.8374 39.8602 53.0729 38.764C53.6697 35.9922 51.2827 32.7036 48.7229 31.9519C45.7235 31.075 42.3785 33.5179 40.3213 35.585Z" fill="#4196FD"/>
<path id="Vector_9" d="M46.2272 37.0098C45.8817 37.1508 45.5362 37.3074 45.3163 37.6049C45.0651 37.9494 45.018 38.3879 45.0023 38.8107C44.8923 40.643 44.7824 42.5535 45.5362 44.2291C46.6669 46.7347 49.6663 48.1284 52.3831 47.6586C52.6501 47.6116 52.9171 47.549 53.1212 47.3767C53.4039 47.1418 53.5295 46.7816 53.7023 46.4528C54.1891 45.5602 55.1627 45.0277 55.7438 44.1978C57.2357 42.0837 56.4191 38.4975 54.5503 36.9629C52.3517 35.162 48.6927 36.0233 46.2272 37.0098Z" fill="#4196FD"/>
<path id="Vector_10" d="M48.8649 43.2425C48.6922 43.6027 48.5351 43.9786 48.5665 44.3701C48.6136 44.8242 48.912 45.2157 49.1947 45.5602C50.4353 47.0949 51.7701 48.6922 53.5918 49.4752C56.3243 50.6497 59.732 49.5692 61.538 47.2202C61.7107 46.9853 61.8835 46.7504 61.9306 46.4528C61.9934 46.0613 61.8207 45.6855 61.7264 45.294C61.4595 44.2291 61.8521 43.1016 61.7107 42.0211C61.3653 39.2493 58.0674 36.9942 55.4606 37.1352C52.3983 37.3074 50.1055 40.6587 48.8649 43.2269V43.2425Z" fill="#4196FD"/>
<path id="Vector_11" d="M62.6544 37.4953C62.4659 37.3073 62.2618 37.1194 61.9948 37.0568C61.6964 36.9785 61.3824 37.0881 61.084 37.1977C59.8277 37.6519 58.5085 38.1373 57.6134 39.1082C56.2628 40.5803 56.1843 42.9919 57.2836 44.6518C57.3935 44.8084 57.5192 44.9807 57.6762 45.059C57.9118 45.1843 58.1945 45.153 58.4614 45.1843C59.1995 45.2626 59.8276 45.748 60.55 45.9046C62.3874 46.2961 64.5703 44.7145 65.0571 43.0232C65.6381 41.0501 64.0049 38.842 62.6387 37.4953H62.6544Z" fill="#4196FD"/>
<path id="Vector_12" d="M59.8579 37.5583C59.6694 37.8089 59.481 38.0751 59.4339 38.3883C59.3867 38.7485 59.5595 39.1087 59.7165 39.4375C60.4232 40.8469 61.1927 42.3189 62.4804 43.2429C64.412 44.621 67.2701 44.3547 69.0761 42.8357C69.2488 42.6948 69.4216 42.5225 69.5158 42.3033C69.6257 42.0058 69.5629 41.6769 69.5472 41.3637C69.5315 40.4867 70.0183 39.6724 70.0968 38.7955C70.2853 36.5718 68.1181 34.2384 66.0452 33.9096C63.6268 33.5181 61.2555 35.7418 59.8579 37.5583Z" fill="#4196FD"/>
<path id="Vector_13" d="M64.178 30.2298C63.8797 30.3394 63.5813 30.4647 63.3771 30.7153C63.1416 30.9972 63.0944 31.3887 63.063 31.7488C62.906 33.3305 62.7647 34.9904 63.3771 36.4625C64.2879 38.6549 66.8477 39.9546 69.2033 39.6258C69.4389 39.5945 69.6744 39.5475 69.8472 39.4065C70.0984 39.2186 70.2241 38.9054 70.3811 38.6235C70.8365 37.8719 71.6845 37.4334 72.2185 36.7287C73.569 34.9435 72.9722 31.7958 71.3861 30.4177C69.5331 28.7891 66.3295 29.4312 64.178 30.2142V30.2298Z" fill="#4196FD"/>
</g>
</g>
<path id="Vector_14" d="M4.99214 47.81C16.9133 71.4181 47.8871 78.4114 71.7545 72.2129C87.5763 68.098 109.724 53.6196 109.332 34.8693C109.234 29.8407 101.38 30.2021 101.49 35.2494C101.797 50.2095 81.3585 61.6522 69.3507 64.7589C48.582 70.1261 21.9179 64.0809 11.6087 43.6256C9.33367 39.1209 2.72556 43.3393 4.9734 47.8218L4.99214 47.81Z" fill="#4196FD"/>
<g id="Group 39">
<path id="Vector_15" d="M32.1428 0.0683594H32.1271C28.918 0.0683594 26.3166 2.6625 26.3166 5.86253V13.1914C26.3166 16.3914 28.918 18.9855 32.1271 18.9855H32.1428C35.3518 18.9855 37.9532 16.3914 37.9532 13.1914V5.86253C37.9532 2.6625 35.3518 0.0683594 32.1428 0.0683594Z" fill="#4196FD"/>
<path id="Vector_16" d="M78.8479 0.0683594H78.8321C75.6231 0.0683594 73.0217 2.6625 73.0217 5.86253V13.1914C73.0217 16.3914 75.6231 18.9855 78.8321 18.9855H78.8479C82.0569 18.9855 84.6583 16.3914 84.6583 13.1914V5.86253C84.6583 2.6625 82.0569 0.0683594 78.8479 0.0683594Z" fill="#4196FD"/>
</g>
</g>
</svg>
