<svg width="40" height="41" viewBox="0 0 40 41" fill="none" xmlns="http://www.w3.org/2000/svg">
<rect y="0.5" width="40" height="40" rx="20" fill="#F9FAFB"/>
<path d="M11.5382 19.5191C11.3426 19.3056 11.2448 19.0522 11.2448 18.7587C11.2448 18.4653 11.3426 18.2118 11.5382 17.9984L14.5262 15.0104L13.379 13.8632L13.0589 14.1834C12.8455 14.3968 12.592 14.5035 12.2986 14.5035C12.0051 14.5035 11.7516 14.3968 11.5382 14.1834C11.3426 13.9699 11.2448 13.7165 11.2448 13.423C11.2448 13.1296 11.3426 12.885 11.5382 12.6894L13.6725 10.5551C13.8859 10.3416 14.1394 10.2349 14.4328 10.2349C14.7263 10.2349 14.9797 10.3416 15.1932 10.5551C15.4066 10.7507 15.5133 10.9997 15.5133 11.3021C15.5133 11.6044 15.4066 11.8534 15.1932 12.0491L14.873 12.3692L16.0202 13.5164L19.0082 10.5284C19.2216 10.315 19.4751 10.2083 19.7685 10.2083C20.062 10.2083 20.3154 10.315 20.5289 10.5284C20.7423 10.7418 20.849 10.9953 20.849 11.2887C20.849 11.5822 20.7423 11.8356 20.5289 12.0491L19.8086 12.7427L21.4626 14.3968L18.448 17.3848C18.2523 17.5982 18.1545 17.8516 18.1545 18.1451C18.1545 18.4386 18.2523 18.692 18.448 18.9055C18.6614 19.1189 18.9148 19.2256 19.2083 19.2256C19.5018 19.2256 19.7552 19.1189 19.9686 18.9055L22.9566 15.8908L24.584 17.4915L21.5693 20.5062C21.3559 20.7196 21.2492 20.973 21.2492 21.2665C21.2492 21.56 21.3559 21.8134 21.5693 22.0268C21.765 22.2225 22.0095 22.3159 22.303 22.307C22.5965 22.2981 22.8499 22.1958 23.0633 22.0002L26.0513 18.9855L27.6787 20.6129C28.0878 21.0219 28.2923 21.5244 28.2923 22.1202C28.2923 22.716 28.0878 23.2185 27.6787 23.6275L26.9317 24.4012L31.0669 28.5097C31.2448 28.6876 31.2892 28.8832 31.2003 29.0966C31.1114 29.3101 30.9424 29.4168 30.6934 29.4168H29.5996C29.3861 29.4168 29.1772 29.3723 28.9726 29.2834C28.7681 29.1945 28.5947 29.0789 28.4524 28.9366L25.411 25.8952L24.664 26.6689C24.255 27.078 23.7525 27.2825 23.1567 27.2825C22.5609 27.2825 22.0584 27.078 21.6494 26.6689L13.7792 18.7987L13.0589 19.5191C12.8455 19.7147 12.592 19.8125 12.2986 19.8125C12.0051 19.8125 11.7516 19.7147 11.5382 19.5191Z" fill="#6B7684"/>
</svg>
