<svg width="25" height="24" viewBox="0 0 25 24" fill="none" xmlns="http://www.w3.org/2000/svg">
<path d="M10 16C8.18333 16 6.64583 15.3708 5.3875 14.1125C4.12916 12.8542 3.5 11.3167 3.5 9.5C3.5 7.68333 4.12916 6.14583 5.3875 4.8875C6.64583 3.62917 8.18333 3 10 3C11.8167 3 13.3542 3.62917 14.6125 4.8875C15.8708 6.14583 16.5 7.68333 16.5 9.5C16.5 10.2333 16.3833 10.925 16.15 11.575C15.9167 12.225 15.6 12.8 15.2 13.3L20.8 18.9C20.9833 19.0833 21.075 19.3167 21.075 19.6C21.075 19.8833 20.9833 20.1167 20.8 20.3C20.6167 20.4833 20.3833 20.575 20.1 20.575C19.8167 20.575 19.5833 20.4833 19.4 20.3L13.8 14.7C13.3 15.1 12.725 15.4167 12.075 15.65C11.425 15.8833 10.7333 16 10 16ZM10 14C11.25 14 12.3125 13.5625 13.1875 12.6875C14.0625 11.8125 14.5 10.75 14.5 9.5C14.5 8.25 14.0625 7.1875 13.1875 6.3125C12.3125 5.4375 11.25 5 10 5C8.75 5 7.6875 5.4375 6.8125 6.3125C5.9375 7.1875 5.5 8.25 5.5 9.5C5.5 10.75 5.9375 11.8125 6.8125 12.6875C7.6875 13.5625 8.75 14 10 14Z" fill="#4196FD"/>
</svg>
