<svg width="21" height="21" viewBox="0 0 21 21" fill="none" xmlns="http://www.w3.org/2000/svg">
<path d="M7.05063 8.18964H6.22784C5.79141 8.18964 5.37286 8.36301 5.06425 8.67161C4.75565 8.98022 4.58228 9.39878 4.58228 9.83521V16.4175C4.58228 16.8539 4.75565 17.2725 5.06425 17.5811C5.37286 17.8897 5.79141 18.0631 6.22784 18.0631H14.4557C14.8921 18.0631 15.3107 17.8897 15.6193 17.5811C15.9279 17.2725 16.1013 16.8539 16.1013 16.4175V9.83521C16.1013 9.39878 15.9279 8.98022 15.6193 8.67161C15.3107 8.36301 14.8921 8.18964 14.4557 8.18964H13.6329M10.3418 12.3036V3.25293M10.3418 3.25293L7.87341 5.72128M10.3418 3.25293L12.8101 5.72128" stroke="#354052" stroke-width="1.64557" stroke-linecap="round" stroke-linejoin="round"/>
</svg>
