<svg width="24" height="24" viewBox="0 0 24 24" fill="none" xmlns="http://www.w3.org/2000/svg">
<path d="M11.9979 2L12.1159 2.007L12.1749 2.015L12.2359 2.028L12.3469 2.062C12.4236 2.09026 12.4964 2.12788 12.5639 2.174L12.6679 2.256L12.9229 2.474C14.9402 4.14956 17.4898 5.0493 20.1119 5.011L20.4539 5.001C20.6775 4.9908 20.898 5.05591 21.0802 5.1859C21.2625 5.31589 21.3958 5.50326 21.4589 5.718C21.9503 7.38958 22.1007 9.14288 21.9011 10.8737C21.7015 12.6046 21.156 14.2776 20.297 15.7935C19.4381 17.3093 18.2832 18.6371 16.901 19.6978C15.5187 20.7585 13.9374 21.5305 12.2509 21.968C12.0863 22.0107 11.9135 22.0107 11.7489 21.968C10.0623 21.5306 8.48087 20.7587 7.09853 19.698C5.71619 18.6374 4.56118 17.3096 3.70212 15.7938C2.84306 14.2779 2.29749 12.6048 2.09784 10.8739C1.89818 9.14301 2.04851 7.38964 2.53989 5.718C2.603 5.50326 2.73633 5.31589 2.91854 5.1859C3.10075 5.05591 3.3213 4.9908 3.54489 5.001C6.28236 5.12613 8.96796 4.22499 11.0759 2.474L11.3389 2.249L11.4349 2.174C11.5023 2.12788 11.5752 2.09026 11.6519 2.062L11.7639 2.028C11.8031 2.01853 11.8428 2.01152 11.8829 2.007L11.9979 2ZM15.7079 9.293C15.615 9.20002 15.5047 9.12626 15.3833 9.07594C15.2619 9.02562 15.1318 8.99971 15.0004 8.99971C14.869 8.99971 14.7389 9.02562 14.6175 9.07594C14.4961 9.12626 14.3858 9.20002 14.2929 9.293L10.9999 12.585L9.70689 11.293L9.61289 11.21C9.4119 11.0546 9.15929 10.9815 8.90637 11.0056C8.65344 11.0297 8.41918 11.1492 8.25114 11.3397C8.08311 11.5303 7.99391 11.7777 8.00167 12.0316C8.00942 12.2856 8.11355 12.527 8.29289 12.707L10.2929 14.707L10.3869 14.79C10.5793 14.9393 10.8195 15.0132 11.0626 14.9979C11.3056 14.9826 11.5347 14.8792 11.7069 14.707L15.7069 10.707L15.7899 10.613C15.9391 10.4206 16.0131 10.1803 15.9978 9.93732C15.9825 9.69429 15.8791 9.46519 15.7069 9.293H15.7079Z" fill="#4196FD"/>
</svg>
