<svg width="353" height="248" viewBox="0 0 353 248" fill="none" xmlns="http://www.w3.org/2000/svg">
<path d="M331.335 1.29952C331.729 0.689915 332.621 0.689916 333.015 1.29952L343 16.75H321.349L331.335 1.29952Z" fill="#333D4B"/>
<rect y="15.75" width="353" height="232" rx="14" fill="#333D4B"/>
<path d="M21.8457 49.3867C21.3125 49.3799 20.8682 48.9492 20.875 48.416C20.8682 47.8828 21.3125 47.4453 21.8457 47.4453C22.3721 47.4453 22.8096 47.8828 22.8164 48.416C22.8096 48.9492 22.3721 49.3799 21.8457 49.3867ZM27.2811 52.75V42.8516H28.785V47.1445H33.7069V42.8516H35.2108V52.75H33.7069V48.4297H28.785V52.75H27.2811ZM36.8142 52.75V42.8516H40.3416C42.6453 42.8516 43.7732 44.2324 43.7732 46.0645C43.7732 47.8896 42.6384 49.2773 40.3416 49.2773H38.3181V52.75H36.8142ZM38.3181 47.9922H40.1912C41.6472 47.999 42.2556 47.1787 42.2556 46.0645C42.2556 44.9434 41.6472 44.1436 40.1912 44.1367H38.3181V47.9922ZM45.8141 42.8516L48.5622 50.9043H48.6716L51.4196 42.8516H53.0466L49.4782 52.75H47.7419L44.1872 42.8516H45.8141ZM66.1109 42.2363V43.1523C66.1177 44.0547 66.1177 45.1348 65.8306 46.5566H67.5327V47.6094H62.5562V49.7012H66.1655V53.9121H64.8667V50.7402H57.4702V49.7012H61.2573V47.6094H56.3218V46.5566H64.5249C64.812 45.1826 64.8257 44.1641 64.8257 43.2891H57.73V42.2363H66.1109ZM77.5444 41.6621V46.543H79.4448V47.623H77.5444V53.8984H76.2455V41.6621H77.5444ZM68.0151 50.6309C71.0844 49.0996 72.7524 46.8848 73.019 44.0273H68.6303V42.9473H74.3452C74.3315 46.4883 72.7729 49.6533 68.7397 51.6426L68.0151 50.6309ZM93.22 41.6621V53.9121H91.9759V41.6621H93.22ZM82.8157 46.9531C82.8157 44.3008 83.8548 42.6396 85.4544 42.6465C86.5003 42.6396 87.3069 43.3369 87.7444 44.5469H89.5286V41.8945H90.7591V53.3105H89.5286V49.3594H87.7513C87.3069 50.5762 86.5003 51.2803 85.4544 51.2734C83.8548 51.2803 82.8157 49.6123 82.8157 46.9531ZM84.0052 46.9531C83.9983 48.9014 84.5452 50.0498 85.4544 50.043C86.3567 50.0498 86.9309 48.9014 86.9309 46.9531C86.9309 44.998 86.3567 43.8564 85.4544 43.8633C84.5452 43.8564 83.9983 44.998 84.0052 46.9531ZM88.0179 45.5996C88.0862 46.0166 88.1204 46.4678 88.1204 46.9531C88.1204 47.4316 88.0862 47.8828 88.0179 48.293H89.5286V45.5996H88.0179ZM100.032 49.291C102.555 49.291 104.093 50.1387 104.093 51.5879C104.093 53.0576 102.555 53.9053 100.032 53.9121C97.4826 53.9053 95.9172 53.0576 95.9172 51.5879C95.9172 50.1387 97.4826 49.291 100.032 49.291ZM94.8371 48.1152V42.4277H96.1086V44.1914H99.3215V42.4277H100.607V48.1152H94.8371ZM96.1086 47.0762H99.3215V45.2168H96.1086V47.0762ZM97.216 51.5879C97.2092 52.4082 98.2619 52.873 100.032 52.873C101.789 52.873 102.828 52.4082 102.821 51.5879C102.828 50.7744 101.789 50.3164 100.032 50.3164C98.2619 50.3164 97.2092 50.7744 97.216 51.5879ZM102.685 48.9766V41.6621H103.984V44.6562H105.761V45.7637H103.984V48.9766H102.685ZM116.237 41.6621V48.334H114.952V45.627H112.655V44.5605H114.952V41.6621H116.237ZM106.052 47.5137C107.932 46.8574 109.108 45.251 109.101 43.5625V43.3984H106.448V42.3457H113.052V43.3984H110.427V43.5762C110.42 45.0938 111.527 46.6318 113.38 47.2539L112.71 48.2656C111.329 47.7734 110.317 46.8027 109.784 45.5996C109.251 46.9463 108.178 48.0264 106.722 48.5391L106.052 47.5137ZM108.267 53.7617V48.8809H109.552V50.2891H114.952V48.8809H116.237V53.7617H108.267ZM109.552 52.709H114.952V51.3008H109.552V52.709ZM123.939 46.0234V47.6777H128.888V48.7441H117.718V47.6777H122.653V46.0234H123.939ZM118.292 45.6406C120.507 45.415 122.243 44.4443 122.421 43.2617H118.743V42.2227H127.89V43.2617H124.171C124.356 44.4375 126.092 45.415 128.314 45.6406L127.849 46.666C125.723 46.4199 123.966 45.5449 123.296 44.2529C122.626 45.5449 120.883 46.4199 118.757 46.666L118.292 45.6406ZM119.044 51.7656C119.044 50.3916 120.63 49.6328 123.296 49.6328C125.941 49.6328 127.514 50.3916 127.521 51.7656C127.514 53.1328 125.941 53.8916 123.296 53.8848C120.63 53.8916 119.044 53.1328 119.044 51.7656ZM120.356 51.7656C120.35 52.4971 121.402 52.9004 123.296 52.9004C125.162 52.9004 126.222 52.4971 126.222 51.7656C126.222 51.0342 125.162 50.6377 123.296 50.6309C121.402 50.6377 120.35 51.0342 120.356 51.7656ZM136.907 45.2715C136.9 47.3223 138.247 49.4414 140.134 50.248L139.423 51.2598C137.98 50.624 136.832 49.2705 136.265 47.6367C135.697 49.3867 134.549 50.877 133.12 51.5742L132.368 50.5488C134.214 49.6807 135.581 47.3838 135.595 45.2715V43.9727H132.792V42.8926H139.696V43.9727H136.907V45.2715ZM141.241 53.9121V41.6621H142.54V53.9121H141.241ZM154.261 41.6758V50.959H152.962V49.7832H150.501V48.8672H152.962V41.6758H154.261ZM144.02 47.2676C146.283 47.2471 149.339 47.2266 151.95 46.8984L152.032 47.8281C150.986 48.0059 149.886 48.1152 148.805 48.1904V50.5762H147.507V48.2588C146.317 48.3066 145.176 48.3066 144.184 48.3066L144.02 47.2676ZM144.977 44.3008C144.971 43.002 146.208 42.1406 148.026 42.1406C149.817 42.1406 151.061 43.002 151.061 44.3008C151.061 45.6064 149.817 46.4336 148.026 46.4336C146.215 46.4336 144.971 45.6064 144.977 44.3008ZM145.716 53.6523V50.0566H147.001V52.5996H154.561V53.6523H145.716ZM146.208 44.3008C146.201 45.0254 146.939 45.4766 148.026 45.4766C149.072 45.4766 149.824 45.0254 149.831 44.3008C149.824 43.5693 149.072 43.0977 148.026 43.1113C146.939 43.0977 146.201 43.5693 146.208 44.3008ZM163.005 44.7793C162.991 46.9463 164.256 49.168 166.081 50.0566L165.274 51.0957C163.941 50.3984 162.909 49.0312 162.369 47.3975C161.822 49.1338 160.749 50.6035 159.354 51.3281L158.548 50.2754C160.427 49.373 161.699 47.0215 161.706 44.7793V42.6875H163.005V44.7793ZM166.997 53.9121V41.6621H168.296V46.543H170.264V47.6504H168.296V53.9121H166.997ZM173.823 42.2227C175.436 42.209 176.687 43.1455 176.954 44.5195H179.346V41.6621H180.645V48.2383H179.346V45.5859H176.961C176.708 46.9941 175.45 47.9375 173.823 47.9375C171.95 47.9375 170.603 46.7549 170.61 45.0664C170.603 43.3984 171.95 42.209 173.823 42.2227ZM171.854 45.0664C171.847 46.1123 172.668 46.8438 173.823 46.8438C174.958 46.8438 175.764 46.1123 175.764 45.0664C175.764 44.0137 174.958 43.2959 173.823 43.3027C172.668 43.2959 171.847 44.0137 171.854 45.0664ZM172.661 53.7617V48.8262H173.946V50.248H179.346V48.8262H180.645V53.7617H172.661ZM173.946 52.6953H179.346V51.2734H173.946V52.6953ZM192.653 41.6621V53.9121H191.409V41.6621H192.653ZM182.249 46.9531C182.249 44.3008 183.288 42.6396 184.887 42.6465C186.377 42.6396 187.382 44.0547 187.533 46.3516H188.92V41.8945H190.165V53.3105H188.92V47.4043H187.54C187.423 49.7969 186.405 51.2803 184.887 51.2734C183.288 51.2803 182.249 49.6123 182.249 46.9531ZM183.452 46.9531C183.452 48.9014 184.005 50.0498 184.887 50.043C185.79 50.0498 186.35 48.9014 186.35 46.9531C186.35 44.998 185.79 43.8564 184.887 43.8633C184.005 43.8564 183.452 44.998 183.452 46.9531ZM201.082 44.1914C201.082 45.6064 202.19 46.9189 204.063 47.459L203.461 48.4707C202.046 48.0605 201 47.1924 200.453 46.0781C199.913 47.3018 198.847 48.252 197.391 48.7031L196.762 47.6914C198.635 47.1377 199.797 45.7432 199.797 44.1914V44.0684H197.131V43.0293H199.797V41.6074H201.096V43.0293H203.748V44.0684H201.082V44.1914ZM198.594 53.7617V49.4414H206.414V53.7617H198.594ZM199.866 52.709H205.129V50.4668H199.866V52.709ZM205.116 48.8945V41.6621H206.414V44.6973H208.192V45.7773H206.414V48.8945H205.116ZM211.791 42.5781C212.912 42.585 213.828 43.2207 214.368 44.3281H217.397V41.6621H218.682V53.9395H217.397V49.2363H214.457C213.931 50.4668 212.974 51.1846 211.791 51.1777C209.966 51.1846 208.674 49.5166 208.688 46.8711C208.674 44.2529 209.966 42.585 211.791 42.5781ZM209.918 46.8711C209.925 48.8193 210.684 50.0156 211.791 50.0156C212.899 50.0156 213.657 48.8193 213.664 46.8711C213.657 44.9502 212.899 43.7471 211.791 43.7402C210.684 43.7471 209.925 44.9502 209.918 46.8711ZM214.738 45.3945C214.833 45.8457 214.895 46.3379 214.895 46.8711C214.895 47.3359 214.854 47.7666 214.772 48.1699H217.397V45.3945H214.738ZM229.692 41.6621V46.625H231.66V47.7051H229.692V53.9121H228.406V41.6621H229.692ZM220.08 44.6426V43.5762H223.102V41.8262H224.401V43.5762H227.34V44.6426H220.08ZM220.709 48.3887C220.709 46.7207 221.994 45.5449 223.758 45.5449C225.515 45.5449 226.8 46.7207 226.807 48.3887C226.8 50.0703 225.515 51.2393 223.758 51.2461C221.994 51.2393 220.709 50.0703 220.709 48.3887ZM221.953 48.3887C221.946 49.4551 222.712 50.166 223.758 50.1523C224.797 50.166 225.556 49.4551 225.563 48.3887C225.556 47.3428 224.797 46.6182 223.758 46.6113C222.712 46.6182 221.946 47.3428 221.953 48.3887ZM235.15 42.5781C236.272 42.585 237.188 43.2207 237.728 44.3281H240.756V41.6621H242.041V53.9395H240.756V49.2363H237.816C237.29 50.4668 236.333 51.1846 235.15 51.1777C233.325 51.1846 232.033 49.5166 232.047 46.8711C232.033 44.2529 233.325 42.585 235.15 42.5781ZM233.277 46.8711C233.284 48.8193 234.043 50.0156 235.15 50.0156C236.258 50.0156 237.017 48.8193 237.024 46.8711C237.017 44.9502 236.258 43.7471 235.15 43.7402C234.043 43.7471 233.284 44.9502 233.277 46.8711ZM238.097 45.3945C238.192 45.8457 238.254 46.3379 238.254 46.8711C238.254 47.3359 238.213 47.7666 238.131 48.1699H240.756V45.3945H238.097ZM257.047 41.6621V53.9121H255.803V41.6621H257.047ZM246.643 46.9531C246.643 44.3008 247.682 42.6396 249.281 42.6465C250.327 42.6396 251.134 43.3369 251.571 44.5469H253.355V41.8945H254.586V53.3105H253.355V49.3594H251.578C251.134 50.5762 250.327 51.2803 249.281 51.2734C247.682 51.2803 246.643 49.6123 246.643 46.9531ZM247.832 46.9531C247.825 48.9014 248.372 50.0498 249.281 50.043C250.184 50.0498 250.758 48.9014 250.758 46.9531C250.758 44.998 250.184 43.8564 249.281 43.8633C248.372 43.8564 247.825 44.998 247.832 46.9531ZM251.845 45.5996C251.913 46.0166 251.947 46.4678 251.947 46.9531C251.947 47.4316 251.913 47.8828 251.845 48.293H253.355V45.5996H251.845ZM263.859 49.291C266.382 49.291 267.92 50.1387 267.92 51.5879C267.92 53.0576 266.382 53.9053 263.859 53.9121C261.309 53.9053 259.744 53.0576 259.744 51.5879C259.744 50.1387 261.309 49.291 263.859 49.291ZM258.664 48.1152V42.4277H259.935V44.1914H263.148V42.4277H264.433V48.1152H258.664ZM259.935 47.0762H263.148V45.2168H259.935V47.0762ZM261.043 51.5879C261.036 52.4082 262.089 52.873 263.859 52.873C265.616 52.873 266.655 52.4082 266.648 51.5879C266.655 50.7744 265.616 50.3164 263.859 50.3164C262.089 50.3164 261.036 50.7744 261.043 51.5879ZM266.512 48.9766V41.6621H267.81V44.6562H269.588V45.7637H267.81V48.9766H266.512ZM280.064 41.6621V48.334H278.779V45.627H276.482V44.5605H278.779V41.6621H280.064ZM269.879 47.5137C271.759 46.8574 272.934 45.251 272.928 43.5625V43.3984H270.275V42.3457H276.879V43.3984H274.254V43.5762C274.247 45.0938 275.354 46.6318 277.207 47.2539L276.537 48.2656C275.156 47.7734 274.144 46.8027 273.611 45.5996C273.078 46.9463 272.005 48.0264 270.549 48.5391L269.879 47.5137ZM272.094 53.7617V48.8809H273.379V50.2891H278.779V48.8809H280.064V53.7617H272.094ZM273.379 52.709H278.779V51.3008H273.379V52.709ZM287.765 46.0234V47.6777H292.715V48.7441H281.545V47.6777H286.48V46.0234H287.765ZM282.119 45.6406C284.334 45.415 286.07 44.4443 286.248 43.2617H282.57V42.2227H291.716V43.2617H287.998C288.182 44.4375 289.919 45.415 292.14 45.6406L291.675 46.666C289.549 46.4199 287.793 45.5449 287.123 44.2529C286.453 45.5449 284.71 46.4199 282.584 46.666L282.119 45.6406ZM282.871 51.7656C282.871 50.3916 284.457 49.6328 287.123 49.6328C289.768 49.6328 291.341 50.3916 291.347 51.7656C291.341 53.1328 289.768 53.8916 287.123 53.8848C284.457 53.8916 282.871 53.1328 282.871 51.7656ZM284.183 51.7656C284.176 52.4971 285.229 52.9004 287.123 52.9004C288.989 52.9004 290.049 52.4971 290.049 51.7656C290.049 51.0342 288.989 50.6377 287.123 50.6309C285.229 50.6377 284.176 51.0342 284.183 51.7656ZM306.367 41.6621V53.9395H305.068V41.6621H306.367ZM296.906 51V42.6875H298.205V45.832H301.5V42.6875H302.785V51H296.906ZM298.205 49.9336H301.5V46.8574H298.205V49.9336ZM319.072 47.6367V48.6895H307.902V47.6367H310.581V45.9893C309.631 45.6064 309.098 44.9912 309.105 44.1777C309.098 42.7217 310.787 41.874 313.48 41.8809C316.166 41.874 317.848 42.7217 317.855 44.1777C317.848 44.9912 317.315 45.6064 316.365 45.9961V47.6367H319.072ZM309.228 51.6973C309.228 50.2959 310.814 49.5234 313.48 49.5234C316.112 49.5234 317.698 50.2959 317.705 51.6973C317.698 53.1123 316.112 53.8848 313.48 53.8848C310.814 53.8848 309.228 53.1123 309.228 51.6973ZM310.445 44.1777C310.438 44.998 311.573 45.4561 313.48 45.4629C315.373 45.4561 316.522 44.998 316.515 44.1777C316.522 43.3574 315.373 42.8857 313.48 42.8789C311.573 42.8857 310.438 43.3574 310.445 44.1777ZM310.54 51.6973C310.534 52.4629 311.607 52.9004 313.48 52.8867C315.326 52.9004 316.406 52.4629 316.406 51.6973C316.406 50.9453 315.326 50.5215 313.48 50.5215C311.607 50.5215 310.534 50.9453 310.54 51.6973ZM311.894 47.6367H315.08V46.3311C314.601 46.4062 314.061 46.4473 313.48 46.4473C312.906 46.4473 312.372 46.4062 311.894 46.3379V47.6367ZM325.16 41.8672C327.921 41.8604 329.528 42.6055 329.535 43.9727C329.528 45.3467 327.921 46.0918 325.16 46.0918C322.398 46.0918 320.778 45.3467 320.785 43.9727C320.778 42.6055 322.398 41.8604 325.16 41.8672ZM319.581 47.8828V46.8438H330.751V47.8828H319.581ZM320.921 49.7969V48.8262H329.343V51.6973H322.206V52.791H329.685V53.7891H320.935V50.7539H328.058V49.7969H320.921ZM322.138 43.9727C322.131 44.7314 323.211 45.1211 325.16 45.1211C327.121 45.1211 328.202 44.7314 328.195 43.9727C328.202 43.248 327.121 42.8242 325.16 42.8242C323.211 42.8242 322.131 43.248 322.138 43.9727ZM30.9588 69.2715C30.952 71.3223 32.2987 73.4414 34.1854 74.248L33.4745 75.2598C32.0321 74.624 30.8836 73.2705 30.3162 71.6367C29.7489 73.3867 28.6004 74.877 27.1717 75.5742L26.4198 74.5488C28.2655 73.6807 29.6327 71.3838 29.6463 69.2715V67.9727H26.8436V66.8926H33.7479V67.9727H30.9588V69.2715ZM35.2928 77.9121V65.6621H36.5916V77.9121H35.2928ZM48.3123 65.6758V74.959H47.0134V73.7832H44.5525V72.8672H47.0134V65.6758H48.3123ZM38.072 71.2676C40.3347 71.2471 43.3904 71.2266 46.0017 70.8984L46.0837 71.8281C45.0379 72.0059 43.9373 72.1152 42.8572 72.1904V74.5762H41.5584V72.2588C40.3689 72.3066 39.2273 72.3066 38.2361 72.3066L38.072 71.2676ZM39.0291 68.3008C39.0222 67.002 40.2595 66.1406 42.0779 66.1406C43.8689 66.1406 45.113 67.002 45.113 68.3008C45.113 69.6064 43.8689 70.4336 42.0779 70.4336C40.2664 70.4336 39.0222 69.6064 39.0291 68.3008ZM39.7673 77.6523V74.0566H41.0525V76.5996H48.613V77.6523H39.7673ZM40.2595 68.3008C40.2527 69.0254 40.991 69.4766 42.0779 69.4766C43.1238 69.4766 43.8757 69.0254 43.8826 68.3008C43.8757 67.5693 43.1238 67.0977 42.0779 67.1113C40.991 67.0977 40.2527 67.5693 40.2595 68.3008ZM59.4313 65.6621V68.5605H61.2087V69.6406H59.4313V72.8125H58.1325V65.6621H59.4313ZM50.2848 72.1016V66.3594H51.5563V68.1367H54.7692V66.3594H56.0544V72.1016H50.2848ZM51.5563 71.0762H54.7692V69.1621H51.5563V71.0762ZM51.6247 77.7344V73.4551H59.527V74.4941H52.9235V76.709H59.7458V77.7344H51.6247ZM67.0641 65.8672C69.8258 65.8604 71.4322 66.6055 71.4391 67.9727C71.4322 69.3467 69.8258 70.0918 67.0641 70.0918C64.3023 70.0918 62.6822 69.3467 62.6891 67.9727C62.6822 66.6055 64.3023 65.8604 67.0641 65.8672ZM61.4859 71.8828V70.8438H72.6559V71.8828H61.4859ZM62.8258 73.7969V72.8262H71.2477V75.6973H64.1109V76.791H71.5895V77.7891H62.8395V74.7539H69.9625V73.7969H62.8258ZM64.0426 67.9727C64.0357 68.7314 65.1158 69.1211 67.0641 69.1211C69.026 69.1211 70.1061 68.7314 70.0992 67.9727C70.1061 67.248 69.026 66.8242 67.0641 66.8242C65.1158 66.8242 64.0357 67.248 64.0426 67.9727ZM82.4389 66.7422C82.4321 68.3691 84.4213 69.8936 86.8276 70.2148L86.3217 71.2812C84.3188 70.96 82.562 69.9209 81.7621 68.4785C80.9623 69.9209 79.2055 70.96 77.2163 71.2812L76.6967 70.2148C79.0961 69.8936 81.0786 68.3896 81.0854 66.7422V66.0723H82.4389V66.7422ZM76.1635 73.5508V72.4844H87.3334V73.5508H82.3569V77.9121H81.0854V73.5508H76.1635ZM95.093 73.7559C95.093 74.8086 95.6126 75.9229 96.7268 76.5859C97.8479 75.8682 98.4016 74.6992 98.4016 73.7559V73.168H99.6731V73.7559C99.6663 75.0273 100.507 76.2578 102.107 76.7773L101.464 77.7344C100.254 77.3174 99.427 76.4971 99.0032 75.499C98.6136 76.4834 97.8821 77.3789 96.761 77.8438C95.5852 77.3994 94.8401 76.5312 94.4641 75.5332C94.0198 76.4971 93.2132 77.3105 92.0579 77.7344L91.4016 76.7773C92.9739 76.2168 93.8284 74.9385 93.8352 73.7559V73.168H95.093V73.7559ZM91.0872 69.2441C91.094 67.5283 92.4749 66.3525 94.3548 66.3457C96.2278 66.3525 97.6087 67.5283 97.6087 69.2441C97.6087 70.9395 96.2278 72.1152 94.3548 72.1152C92.4749 72.1152 91.094 70.9395 91.0872 69.2441ZM92.3587 69.2441C92.3518 70.3105 93.1927 71.0352 94.3548 71.0352C95.5032 71.0352 96.3372 70.3105 96.3372 69.2441C96.3372 68.1709 95.5032 67.4463 94.3548 67.4531C93.1927 67.4463 92.3518 68.1709 92.3587 69.2441ZM99.7005 72.6484V65.6758H100.999V72.6484H99.7005ZM112.433 69.2441V70.2832H103.997V66.0996H105.282V69.2441H112.433ZM102.507 72.8672V71.8281H113.718V72.8672H102.507ZM103.902 77.625V74.0293H105.2V76.5586H112.515V77.625H103.902ZM121.19 66.5371C123.125 66.5303 124.52 67.7266 124.526 69.4492C124.52 71.1719 123.125 72.3682 121.19 72.375C119.263 72.3682 117.848 71.1719 117.855 69.4492C117.848 67.7266 119.263 66.5303 121.19 66.5371ZM117.267 74.2207C119.495 74.2207 122.585 74.2002 125.265 73.8105L125.36 74.7539C122.592 75.2871 119.618 75.3008 117.431 75.3008L117.267 74.2207ZM119.14 69.4492C119.126 70.5361 120.001 71.2402 121.19 71.2402C122.38 71.2402 123.255 70.5361 123.255 69.4492C123.255 68.376 122.38 67.6582 121.19 67.6582C120.001 67.6582 119.126 68.376 119.14 69.4492ZM126.03 77.9395V65.6621H127.329V77.9395H126.03ZM140.089 75.3555V76.4492H128.878V75.3555H131.94V73.1953H130.245V69.2988H137.436V67.5898H130.218V66.5234H138.722V70.3516H131.53V72.1289H139.009V73.1953H137.149V75.3555H140.089ZM133.198 75.3555H135.878V73.1953H133.198V75.3555ZM150.743 65.6621V77.9121H149.431V65.6621H150.743ZM140.681 74.6309C143.934 73.0791 145.527 70.8711 145.78 68.0137H141.268V66.9746H147.093C147.093 70.5635 145.568 73.667 141.364 75.6836L140.681 74.6309ZM159.059 66.5918V67.2754C159.046 68.0957 159.046 69.3125 158.745 70.8984L157.46 70.7754C157.726 69.4219 157.767 68.4307 157.781 67.6582H152.88V66.5918H159.059ZM152.141 71.9512C152.893 71.9512 153.748 71.9443 154.643 71.9238V69.3398H155.929V71.8828C157.241 71.8281 158.595 71.7324 159.825 71.5547L159.907 72.498C157.35 72.9492 154.425 72.9971 152.264 73.0039L152.141 71.9512ZM154.001 77.6523V74.0293H155.3V76.5996H162.327V77.6523H154.001ZM160.604 74.8633V65.6621H161.93V69.5586H163.612V70.6523H161.93V74.8633H160.604ZM174.075 65.6621V72.2383H172.776V65.6621H174.075ZM164.163 69.0664C164.17 67.3848 165.551 66.2158 167.43 66.2227C169.303 66.2158 170.684 67.3848 170.684 69.0664C170.684 70.7412 169.303 71.9102 167.43 71.8965C165.551 71.9102 164.17 70.7412 164.163 69.0664ZM165.434 69.0664C165.427 70.126 166.268 70.8301 167.43 70.8301C168.579 70.8301 169.413 70.126 169.413 69.0664C169.413 68.0205 168.579 67.3096 167.43 67.3164C166.268 67.3096 165.427 68.0205 165.434 69.0664ZM166.063 77.7617V72.8262H167.335V74.207H172.79V72.8262H174.075V77.7617H166.063ZM167.335 76.6953H172.79V75.2324H167.335V76.6953ZM185.768 65.6621V77.9121H184.469V65.6621H185.768ZM176.348 74.7949V66.8516H177.633V73.6738C179.424 73.667 181.304 73.5098 183.266 73.1133L183.444 74.207C181.277 74.6514 179.308 74.8018 177.374 74.7949H176.348ZM196.819 65.6621V70.4062H198.788V71.4727H196.819V77.9395H195.52V65.6621H196.819ZM187.795 74.8906V66.8379H193.524V67.8906H189.094V73.8105C191.152 73.8037 192.69 73.7148 194.44 73.4004L194.604 74.4941C192.683 74.8359 191.056 74.8975 188.78 74.8906H187.795ZM200.35 76.8457C199.817 76.8389 199.373 76.4082 199.379 75.875C199.373 75.3418 199.817 74.9043 200.35 74.9043C200.876 74.9043 201.314 75.3418 201.321 75.875C201.314 76.4082 200.876 76.8389 200.35 76.8457ZM21.8457 97.3867C21.3125 97.3799 20.8682 96.9492 20.875 96.416C20.8682 95.8828 21.3125 95.4453 21.8457 95.4453C22.3721 95.4453 22.8096 95.8828 22.8164 96.416C22.8096 96.9492 22.3721 97.3799 21.8457 97.3867ZM30.7127 90.5371C32.6473 90.5303 34.0418 91.7266 34.0487 93.4492C34.0418 95.1719 32.6473 96.3682 30.7127 96.375C28.785 96.3682 27.37 95.1719 27.3768 93.4492C27.37 91.7266 28.785 90.5303 30.7127 90.5371ZM26.7889 98.2207C29.0174 98.2207 32.1073 98.2002 34.787 97.8105L34.8827 98.7539C32.1141 99.2871 29.1405 99.3008 26.953 99.3008L26.7889 98.2207ZM28.662 93.4492C28.6483 94.5361 29.5233 95.2402 30.7127 95.2402C31.9022 95.2402 32.7772 94.5361 32.7772 93.4492C32.7772 92.376 31.9022 91.6582 30.7127 91.6582C29.5233 91.6582 28.6483 92.376 28.662 93.4492ZM35.5526 101.939V89.6621H36.8514V101.939H35.5526ZM49.6111 99.3555V100.449H38.4002V99.3555H41.4627V97.1953H39.7673V93.2988H46.9587V91.5898H39.74V90.5234H48.2439V94.3516H41.0525V96.1289H48.531V97.1953H46.6716V99.3555H49.6111ZM42.7205 99.3555H45.4002V97.1953H42.7205V99.3555ZM60.2653 89.6621V101.912H58.9528V89.6621H60.2653ZM50.2028 98.6309C53.4567 97.0791 55.0495 94.8711 55.3024 92.0137H50.7907V90.9746H56.6149C56.6149 94.5635 55.0905 97.667 50.8864 99.6836L50.2028 98.6309ZM68.5816 90.5918V91.2754C68.568 92.0957 68.568 93.3125 68.2672 94.8984L66.982 94.7754C67.2486 93.4219 67.2896 92.4307 67.3033 91.6582H62.402V90.5918H68.5816ZM61.6637 95.9512C62.4156 95.9512 63.2701 95.9443 64.1656 95.9238V93.3398H65.4508V95.8828C66.7633 95.8281 68.1168 95.7324 69.3473 95.5547L69.4293 96.498C66.8727 96.9492 63.9469 96.9971 61.7867 97.0039L61.6637 95.9512ZM63.523 101.652V98.0293H64.8219V100.6H71.8492V101.652H63.523ZM70.1266 98.8633V89.6621H71.4527V93.5586H73.1344V94.6523H71.4527V98.8633H70.1266ZM83.98 89.6621V101.912H82.7359V89.6621H83.98ZM73.5757 94.9531C73.5757 92.3008 74.6148 90.6396 76.2144 90.6465C77.7046 90.6396 78.7095 92.0547 78.8599 94.3516H80.2476V89.8945H81.4917V101.311H80.2476V95.4043H78.8667C78.7505 97.7969 77.732 99.2803 76.2144 99.2734C74.6148 99.2803 73.5757 97.6123 73.5757 94.9531ZM74.7788 94.9531C74.7788 96.9014 75.3325 98.0498 76.2144 98.043C77.1167 98.0498 77.6773 96.9014 77.6773 94.9531C77.6773 92.998 77.1167 91.8564 76.2144 91.8633C75.3325 91.8564 74.7788 92.998 74.7788 94.9531ZM97.8783 89.6348V94.3926H99.5599V95.4863H97.8783V101.912H96.5795V89.6348H97.8783ZM88.4447 98.7676V90.9199H91.5892V91.9863H89.7435V97.6807C90.3314 97.6533 90.9808 97.5918 91.6986 97.4414L91.808 98.5215C90.7005 98.7471 89.8187 98.7676 89.0052 98.7676H88.4447ZM92.2728 98.7676V90.9199H95.5404V91.9863H93.5443V97.6875C94.4466 97.6738 95.1234 97.6055 95.8685 97.4141L95.9779 98.4941C94.9935 98.7402 94.1869 98.7676 92.8744 98.7676H92.2728ZM109.339 89.6621V94.4473H111.308V95.541H109.339V101.939H108.054V89.6621H109.339ZM100.275 91.8223V90.7695H105.88V95.2676H101.587V97.9199C103.686 97.9131 105.251 97.8379 107.042 97.5098L107.165 98.5625C105.251 98.918 103.597 99 101.3 99.0137H100.302V94.2148H104.595V91.8223H100.275ZM124.673 89.6621V96.334H123.388V93.627H121.091V92.5605H123.388V89.6621H124.673ZM114.487 95.5137C116.367 94.8574 117.543 93.251 117.536 91.5625V91.3984H114.884V90.3457H121.487V91.3984H118.862V91.5762C118.856 93.0938 119.963 94.6318 121.816 95.2539L121.146 96.2656C119.765 95.7734 118.753 94.8027 118.22 93.5996C117.687 94.9463 116.613 96.0264 115.157 96.5391L114.487 95.5137ZM116.702 101.762V96.8809H117.987V98.2891H123.388V96.8809H124.673V101.762H116.702ZM117.987 100.709H123.388V99.3008H117.987V100.709ZM132.374 94.0234V95.6777H137.323V96.7441H126.153V95.6777H131.089V94.0234H132.374ZM126.728 93.6406C128.942 93.415 130.679 92.4443 130.856 91.2617H127.179V90.2227H136.325V91.2617H132.606C132.791 92.4375 134.527 93.415 136.749 93.6406L136.284 94.666C134.158 94.4199 132.401 93.5449 131.731 92.2529C131.062 93.5449 129.318 94.4199 127.192 94.666L126.728 93.6406ZM127.48 99.7656C127.48 98.3916 129.065 97.6328 131.731 97.6328C134.377 97.6328 135.949 98.3916 135.956 99.7656C135.949 101.133 134.377 101.892 131.731 101.885C129.065 101.892 127.48 101.133 127.48 99.7656ZM128.792 99.7656C128.785 100.497 129.838 100.9 131.731 100.9C133.598 100.9 134.657 100.497 134.657 99.7656C134.657 99.0342 133.598 98.6377 131.731 98.6309C129.838 98.6377 128.785 99.0342 128.792 99.7656ZM147.458 89.6211V92.4922H149.249V93.5586H147.458V96.3613H146.159V89.6211H147.458ZM137.847 91.7266V90.7012H140.854V89.5527H142.153V90.7012H145.147V91.7266H137.847ZM138.517 94.2012C138.51 92.9639 139.699 92.1914 141.497 92.1914C143.295 92.1914 144.464 92.9639 144.464 94.2012C144.464 95.4453 143.295 96.2041 141.497 96.1973C139.699 96.2041 138.51 95.4453 138.517 94.2012ZM139.542 97.9062V96.9355H147.458V99.7793H140.841V100.805H147.882V101.789H139.569V98.8633H146.173V97.9062H139.542ZM139.774 94.2012C139.761 94.8643 140.437 95.2539 141.497 95.2539C142.55 95.2539 143.233 94.8643 143.247 94.2012C143.233 93.5381 142.55 93.1279 141.497 93.1211C140.437 93.1279 139.761 93.5381 139.774 94.2012ZM158.786 90.7422C158.779 92.3691 160.768 93.8936 163.175 94.2148L162.669 95.2812C160.666 94.96 158.909 93.9209 158.109 92.4785C157.309 93.9209 155.553 94.96 153.563 95.2812L153.044 94.2148C155.443 93.8936 157.426 92.3896 157.432 90.7422V90.0723H158.786V90.7422ZM152.511 97.5508V96.4844H163.68V97.5508H158.704V101.912H157.432V97.5508H152.511ZM171.44 97.7559C171.44 98.8086 171.96 99.9229 173.074 100.586C174.195 99.8682 174.749 98.6992 174.749 97.7559V97.168H176.02V97.7559C176.013 99.0273 176.854 100.258 178.454 100.777L177.811 101.734C176.601 101.317 175.774 100.497 175.35 99.499C174.961 100.483 174.229 101.379 173.108 101.844C171.932 101.399 171.187 100.531 170.811 99.5332C170.367 100.497 169.56 101.311 168.405 101.734L167.749 100.777C169.321 100.217 170.175 98.9385 170.182 97.7559V97.168H171.44V97.7559ZM167.434 93.2441C167.441 91.5283 168.822 90.3525 170.702 90.3457C172.575 90.3525 173.956 91.5283 173.956 93.2441C173.956 94.9395 172.575 96.1152 170.702 96.1152C168.822 96.1152 167.441 94.9395 167.434 93.2441ZM168.706 93.2441C168.699 94.3105 169.54 95.0352 170.702 95.0352C171.85 95.0352 172.684 94.3105 172.684 93.2441C172.684 92.1709 171.85 91.4463 170.702 91.4531C169.54 91.4463 168.699 92.1709 168.706 93.2441ZM176.048 96.6484V89.6758H177.346V96.6484H176.048ZM188.78 93.2441V94.2832H180.344V90.0996H181.629V93.2441H188.78ZM178.854 96.8672V95.8281H190.065V96.8672H178.854ZM180.249 101.625V98.0293H181.547V100.559H188.862V101.625H180.249ZM195.295 90.4414V92.3145H197.661V90.4414H198.864V96.2246H194.065V90.4414H195.295ZM195.295 95.1719H197.661V93.3262H195.295V95.1719ZM195.664 98.7676V97.7148H203.991V101.912H202.705V98.7676H195.664ZM200.121 96.9492V89.8945H201.325V92.793H202.76V89.6758H203.991V97.0312H202.76V93.8594H201.325V96.9492H200.121ZM215.383 89.6758V98.6445H214.084V89.6758H215.383ZM205.293 95.8828C207.214 95.1719 208.349 93.4082 208.356 91.5625V90.3457H209.682V91.5625C209.675 93.3535 210.81 94.9941 212.703 95.6504L212.034 96.6895C210.618 96.1631 209.573 95.124 209.026 93.7979C208.486 95.2197 207.426 96.3545 205.991 96.9082L205.293 95.8828ZM207.371 101.652V97.7969H208.684V100.6H215.752V101.652H207.371ZM226.123 94.0234V95.6777H231.072V96.7441H219.902V95.6777H224.838V94.0234H226.123ZM220.477 93.6406C222.692 93.415 224.428 92.4443 224.606 91.2617H220.928V90.2227H230.074V91.2617H226.356C226.54 92.4375 228.277 93.415 230.498 93.6406L230.033 94.666C227.907 94.4199 226.151 93.5449 225.481 92.2529C224.811 93.5449 223.068 94.4199 220.942 94.666L220.477 93.6406ZM221.229 99.7656C221.229 98.3916 222.815 97.6328 225.481 97.6328C228.126 97.6328 229.698 98.3916 229.705 99.7656C229.698 101.133 228.126 101.892 225.481 101.885C222.815 101.892 221.229 101.133 221.229 99.7656ZM222.541 99.7656C222.534 100.497 223.587 100.9 225.481 100.9C227.347 100.9 228.406 100.497 228.406 99.7656C228.406 99.0342 227.347 98.6377 225.481 98.6309C223.587 98.6377 222.534 99.0342 222.541 99.7656ZM242.779 96.9355V97.9609H239.963V101.912H238.65V97.9609H235.697V101.912H234.399V97.9609H231.568V96.9355H242.779ZM232.895 91.166V90.0996H241.453V93.3809H234.234V94.7344H241.713V95.7871H232.936V92.4102H240.127V91.166H232.895ZM252.805 89.6621V94.543H254.705V95.623H252.805V101.898H251.506V89.6621H252.805ZM243.275 98.6309C246.345 97.0996 248.013 94.8848 248.279 92.0273H243.891V90.9473H249.605C249.592 94.4883 248.033 97.6533 244 99.6426L243.275 98.6309ZM267.482 89.6621V94.4062H269.451V95.4727H267.482V101.939H266.183V89.6621H267.482ZM258.459 98.8906V90.8379H264.187V91.8906H259.758V97.8105C261.815 97.8037 263.353 97.7148 265.103 97.4004L265.267 98.4941C263.347 98.8359 261.72 98.8975 259.443 98.8906H258.459ZM280.816 95.2812V96.2793H269.605V95.2812H280.816ZM270.931 98.0703V97.1406H279.435V99.834H272.244V100.846H279.818V101.762H270.945V98.9727H278.15V98.0703H270.931ZM271.013 90.8926V89.9766H279.408V92.6289H272.326V93.5586H279.613V94.4746H271.041V91.7676H278.109V90.8926H271.013ZM290.572 90.7422C290.565 92.3691 292.554 93.8936 294.961 94.2148L294.455 95.2812C292.452 94.96 290.695 93.9209 289.895 92.4785C289.095 93.9209 287.338 94.96 285.349 95.2812L284.83 94.2148C287.229 93.8936 289.212 92.3896 289.218 90.7422V90.0723H290.572V90.7422ZM284.296 97.5508V96.4844H295.466V97.5508H290.49V101.912H289.218V97.5508H284.296ZM303.226 97.7559C303.226 98.8086 303.746 99.9229 304.86 100.586C305.981 99.8682 306.535 98.6992 306.535 97.7559V97.168H307.806V97.7559C307.799 99.0273 308.64 100.258 310.24 100.777L309.597 101.734C308.387 101.317 307.56 100.497 307.136 99.499C306.747 100.483 306.015 101.379 304.894 101.844C303.718 101.399 302.973 100.531 302.597 99.5332C302.153 100.497 301.346 101.311 300.191 101.734L299.535 100.777C301.107 100.217 301.961 98.9385 301.968 97.7559V97.168H303.226V97.7559ZM299.22 93.2441C299.227 91.5283 300.608 90.3525 302.488 90.3457C304.361 90.3525 305.742 91.5283 305.742 93.2441C305.742 94.9395 304.361 96.1152 302.488 96.1152C300.608 96.1152 299.227 94.9395 299.22 93.2441ZM300.492 93.2441C300.485 94.3105 301.326 95.0352 302.488 95.0352C303.636 95.0352 304.47 94.3105 304.47 93.2441C304.47 92.1709 303.636 91.4463 302.488 91.4531C301.326 91.4463 300.485 92.1709 300.492 93.2441ZM307.833 96.6484V89.6758H309.132V96.6484H307.833ZM316.232 90.4004C318.802 90.4004 320.757 91.7607 320.757 93.8184C320.757 95.8896 318.802 97.2432 316.232 97.2363C313.668 97.2432 311.713 95.8896 311.72 93.8184C311.713 91.7607 313.668 90.4004 316.232 90.4004ZM310.654 100.326V99.2461H321.865V100.326H310.654ZM312.964 93.8184C312.957 95.2471 314.352 96.1699 316.232 96.1699C318.105 96.1699 319.493 95.2471 319.499 93.8184C319.493 92.3965 318.105 91.4463 316.232 91.4531C314.352 91.4463 312.957 92.3965 312.964 93.8184ZM31.6621 123.26V124.326H20.4512V123.26H31.6621ZM21.7363 120.566V114.688H30.3223V120.566H21.7363ZM22.9941 119.541H29.0508V115.74H22.9941V119.541ZM43.3417 123.355V124.449H32.1308V123.355H37.0663V121.209H33.498V117.312H40.6894V115.59H33.4706V114.523H41.9745V118.352H34.7831V120.143H42.2616V121.209H38.3515V123.355H43.3417ZM46.0116 123.807L44.9178 127.58H43.7557L44.4803 123.807H46.0116ZM64.1793 123.314V124.395H52.9684V123.314H57.9039V120.799H54.2535V114.496H55.5523V116.602H61.568V114.496H62.8531V120.799H59.1891V123.314H64.1793ZM55.5523 119.746H61.568V117.654H55.5523V119.746ZM75.2573 115.385V116.438H65.1812V115.385H69.5835V113.84H70.8687V115.385H75.2573ZM64.648 124.531V123.479H69.5835V121.858C67.437 121.722 66.1314 120.874 66.1382 119.514C66.1314 118.037 67.6968 117.169 70.2261 117.176C72.7212 117.169 74.3071 118.037 74.3003 119.514C74.3071 120.874 72.9878 121.722 70.8687 121.858V123.479H75.8589V124.531H64.648ZM67.4644 119.514C67.4507 120.368 68.4761 120.833 70.2261 120.84C71.9487 120.833 72.981 120.368 72.9741 119.514C72.981 118.666 71.9487 118.201 70.2261 118.201C68.4761 118.201 67.4507 118.666 67.4644 119.514ZM80.5932 117.271C80.5864 119.206 81.8647 121.366 83.7241 122.248L82.9858 123.26C81.6118 122.604 80.518 121.223 79.9643 119.623C79.4038 121.366 78.2553 122.877 76.8608 123.574L76.0952 122.549C77.9545 121.653 79.3012 119.343 79.308 117.271V115.973H76.5463V114.893H83.2592V115.973H80.5932V117.271ZM84.5717 125.912V113.662H85.8705V118.516H87.8393V119.609H85.8705V125.912H84.5717ZM97.9193 117.244V118.283H89.4837V114.1H90.7689V117.244H97.9193ZM87.9935 120.867V119.828H99.2045V120.867H87.9935ZM89.388 125.625V122.029H90.6869V124.559H98.0013V125.625H89.388ZM108.359 121.291C110.881 121.291 112.419 122.139 112.419 123.588C112.419 125.058 110.881 125.905 108.359 125.912C105.809 125.905 104.243 125.058 104.243 123.588C104.243 122.139 105.809 121.291 108.359 121.291ZM103.163 120.115V114.428H104.435V116.191H107.648V114.428H108.933V120.115H103.163ZM104.435 119.076H107.648V117.217H104.435V119.076ZM105.542 123.588C105.535 124.408 106.588 124.873 108.359 124.873C110.115 124.873 111.154 124.408 111.148 123.588C111.154 122.774 110.115 122.316 108.359 122.316C106.588 122.316 105.535 122.774 105.542 123.588ZM111.011 120.977V113.662H112.31V116.656H114.087V117.764H112.31V120.977H111.011ZM125.562 119.855V120.908H120.694V123.287H119.409V120.908H114.351V119.855H125.562ZM115.745 125.652V122.125H117.044V124.6H124.317V125.652H115.745ZM115.786 118.584V114.236H124.112V118.584H115.786ZM117.058 117.559H122.827V115.262H117.058V117.559ZM139.255 113.676V122.645H137.956V118.037H135.618V116.984H137.956V113.676H139.255ZM129.056 120.088C130.936 119.452 132.111 117.839 132.104 116.15V115.672H129.452V114.605H136.056V115.672H133.431V116.15C133.424 117.675 134.531 119.213 136.384 119.828L135.714 120.867C134.34 120.389 133.321 119.404 132.788 118.188C132.255 119.541 131.182 120.621 129.726 121.141L129.056 120.088ZM131.298 125.652V121.838H132.597V124.6H139.583V125.652H131.298ZM151.263 113.662V125.912H150.018V113.662H151.263ZM140.858 118.953C140.858 116.301 141.897 114.64 143.497 114.646C144.987 114.64 145.992 116.055 146.142 118.352H147.53V113.895H148.774V125.311H147.53V119.404H146.149C146.033 121.797 145.015 123.28 143.497 123.273C141.897 123.28 140.858 121.612 140.858 118.953ZM142.061 118.953C142.061 120.901 142.615 122.05 143.497 122.043C144.399 122.05 144.96 120.901 144.96 118.953C144.96 116.998 144.399 115.856 143.497 115.863C142.615 115.856 142.061 116.998 142.061 118.953ZM159.911 117.271C159.904 119.322 161.251 121.441 163.137 122.248L162.426 123.26C160.984 122.624 159.836 121.271 159.268 119.637C158.701 121.387 157.552 122.877 156.124 123.574L155.372 122.549C157.217 121.681 158.585 119.384 158.598 117.271V115.973H155.796V114.893H162.7V115.973H159.911V117.271ZM164.245 125.912V113.662H165.544V125.912H164.245ZM177.292 113.662V120.949H175.993V117.846H173.71V116.779H175.993V113.662H177.292ZM167.079 119.842C168.979 119.179 170.148 117.524 170.141 115.836V115.562H167.489V114.51H174.092V115.562H171.467V115.822C171.461 117.374 172.568 118.885 174.421 119.514L173.751 120.539C172.377 120.067 171.365 119.083 170.832 117.873C170.298 119.24 169.225 120.341 167.762 120.881L167.079 119.842ZM169.048 123.602C169.041 122.146 170.613 121.298 173.19 121.291C175.754 121.298 177.326 122.146 177.333 123.602C177.326 125.058 175.754 125.905 173.19 125.912C170.613 125.905 169.041 125.058 169.048 123.602ZM170.333 123.602C170.326 124.429 171.392 124.9 173.19 124.887C174.974 124.9 176.041 124.429 176.048 123.602C176.041 122.768 174.974 122.296 173.19 122.303C171.392 122.296 170.326 122.768 170.333 123.602ZM182.751 114.537C184.685 114.53 186.08 115.727 186.086 117.449C186.08 119.172 184.685 120.368 182.751 120.375C180.823 120.368 179.408 119.172 179.415 117.449C179.408 115.727 180.823 114.53 182.751 114.537ZM178.827 122.221C181.055 122.221 184.145 122.2 186.825 121.811L186.92 122.754C184.152 123.287 181.178 123.301 178.991 123.301L178.827 122.221ZM180.7 117.449C180.686 118.536 181.561 119.24 182.751 119.24C183.94 119.24 184.815 118.536 184.815 117.449C184.815 116.376 183.94 115.658 182.751 115.658C181.561 115.658 180.686 116.376 180.7 117.449ZM187.59 125.939V113.662H188.889V125.939H187.59ZM201.649 123.355V124.449H190.438V123.355H193.5V121.195H191.805V117.299H198.997V115.59H191.778V114.523H200.282V118.352H193.09V120.129H200.569V121.195H198.709V123.355H201.649ZM194.758 123.355H197.438V121.195H194.758V123.355ZM212.303 113.662V125.912H210.991V113.662H212.303ZM202.241 122.631C205.495 121.079 207.087 118.871 207.34 116.014H202.829V114.975H208.653C208.653 118.563 207.128 121.667 202.924 123.684L202.241 122.631ZM220.619 114.592V115.275C220.606 116.096 220.606 117.312 220.305 118.898L219.02 118.775C219.286 117.422 219.327 116.431 219.341 115.658H214.44V114.592H220.619ZM213.701 119.951C214.453 119.951 215.308 119.944 216.203 119.924V117.34H217.489V119.883C218.801 119.828 220.155 119.732 221.385 119.555L221.467 120.498C218.91 120.949 215.985 120.997 213.825 121.004L213.701 119.951ZM215.561 125.652V122.029H216.86V124.6H223.887V125.652H215.561ZM222.164 122.863V113.662H223.491V117.559H225.172V118.652H223.491V122.863H222.164ZM236.018 113.662V125.912H234.774V113.662H236.018ZM225.614 118.953C225.614 116.301 226.653 114.64 228.252 114.646C229.742 114.64 230.747 116.055 230.898 118.352H232.285V113.895H233.53V125.311H232.285V119.404H230.905C230.788 121.797 229.77 123.28 228.252 123.273C226.653 123.28 225.614 121.612 225.614 118.953ZM226.817 118.953C226.817 120.901 227.37 122.05 228.252 122.043C229.155 122.05 229.715 120.901 229.715 118.953C229.715 116.998 229.155 115.856 228.252 115.863C227.37 115.856 226.817 116.998 226.817 118.953ZM241.572 116.779C241.572 119.021 242.83 121.257 244.703 122.098L243.91 123.137C242.523 122.439 241.47 121.059 240.93 119.384C240.39 121.147 239.323 122.638 237.908 123.369L237.088 122.316C238.988 121.407 240.253 119.049 240.26 116.779V114.688H241.572V116.779ZM243.35 118.789V117.736H246.084V113.662H247.369V125.939H246.084V118.789H243.35ZM262.033 113.662V120.334H260.748V117.627H258.451V116.561H260.748V113.662H262.033ZM251.848 119.514C253.728 118.857 254.903 117.251 254.896 115.562V115.398H252.244V114.346H258.848V115.398H256.223V115.576C256.216 117.094 257.323 118.632 259.176 119.254L258.506 120.266C257.125 119.773 256.113 118.803 255.58 117.6C255.047 118.946 253.974 120.026 252.518 120.539L251.848 119.514ZM254.062 125.762V120.881H255.348V122.289H260.748V120.881H262.033V125.762H254.062ZM255.348 124.709H260.748V123.301H255.348V124.709ZM269.734 118.023V119.678H274.684V120.744H263.514V119.678H268.449V118.023H269.734ZM264.088 117.641C266.303 117.415 268.039 116.444 268.217 115.262H264.539V114.223H273.685V115.262H269.967C270.151 116.438 271.888 117.415 274.109 117.641L273.644 118.666C271.518 118.42 269.762 117.545 269.092 116.253C268.422 117.545 266.679 118.42 264.553 118.666L264.088 117.641ZM264.84 123.766C264.84 122.392 266.426 121.633 269.092 121.633C271.737 121.633 273.309 122.392 273.316 123.766C273.309 125.133 271.737 125.892 269.092 125.885C266.426 125.892 264.84 125.133 264.84 123.766ZM266.152 123.766C266.145 124.497 267.198 124.9 269.092 124.9C270.958 124.9 272.018 124.497 272.018 123.766C272.018 123.034 270.958 122.638 269.092 122.631C267.198 122.638 266.145 123.034 266.152 123.766ZM284.818 113.621V116.492H286.609V117.559H284.818V120.361H283.519V113.621H284.818ZM275.207 115.727V114.701H278.215V113.553H279.514V114.701H282.508V115.727H275.207ZM275.877 118.201C275.87 116.964 277.059 116.191 278.857 116.191C280.655 116.191 281.824 116.964 281.824 118.201C281.824 119.445 280.655 120.204 278.857 120.197C277.059 120.204 275.87 119.445 275.877 118.201ZM276.902 121.906V120.936H284.818V123.779H278.201V124.805H285.242V125.789H276.93V122.863H283.533V121.906H276.902ZM277.135 118.201C277.121 118.864 277.798 119.254 278.857 119.254C279.91 119.254 280.594 118.864 280.607 118.201C280.594 117.538 279.91 117.128 278.857 117.121C277.798 117.128 277.121 117.538 277.135 118.201ZM296.146 114.742C296.139 116.369 298.129 117.894 300.535 118.215L300.029 119.281C298.026 118.96 296.269 117.921 295.469 116.479C294.67 117.921 292.913 118.96 290.924 119.281L290.404 118.215C292.803 117.894 294.786 116.39 294.793 114.742V114.072H296.146V114.742ZM289.871 121.551V120.484H301.041V121.551H296.064V125.912H294.793V121.551H289.871ZM308.8 121.756C308.8 122.809 309.32 123.923 310.434 124.586C311.555 123.868 312.109 122.699 312.109 121.756V121.168H313.38V121.756C313.374 123.027 314.214 124.258 315.814 124.777L315.171 125.734C313.961 125.317 313.134 124.497 312.71 123.499C312.321 124.483 311.589 125.379 310.468 125.844C309.293 125.399 308.547 124.531 308.171 123.533C307.727 124.497 306.92 125.311 305.765 125.734L305.109 124.777C306.681 124.217 307.536 122.938 307.543 121.756V121.168H308.8V121.756ZM304.794 117.244C304.801 115.528 306.182 114.353 308.062 114.346C309.935 114.353 311.316 115.528 311.316 117.244C311.316 118.939 309.935 120.115 308.062 120.115C306.182 120.115 304.801 118.939 304.794 117.244ZM306.066 117.244C306.059 118.311 306.9 119.035 308.062 119.035C309.21 119.035 310.044 118.311 310.044 117.244C310.044 116.171 309.21 115.446 308.062 115.453C306.9 115.446 306.059 116.171 306.066 117.244ZM313.408 120.648V113.676H314.707V120.648H313.408ZM326.14 117.244V118.283H317.705V114.1H318.99V117.244H326.14ZM316.214 120.867V119.828H327.425V120.867H316.214ZM317.609 125.625V122.029H318.908V124.559H326.222V125.625H317.609ZM22.2012 138.441V140.314H24.5664V138.441H25.7695V144.225H20.9707V138.441H22.2012ZM22.2012 143.172H24.5664V141.326H22.2012V143.172ZM22.5703 146.768V145.715H30.8965V149.912H29.6113V146.768H22.5703ZM27.0273 144.949V137.895H28.2305V140.793H29.666V137.676H30.8965V145.031H29.666V141.859H28.2305V144.949H27.0273ZM42.289 137.676V146.645H40.9902V137.676H42.289ZM32.1991 143.883C34.12 143.172 35.2548 141.408 35.2616 139.562V138.346H36.5878V139.562C36.581 141.354 37.7157 142.994 39.6093 143.65L38.9394 144.689C37.5243 144.163 36.4784 143.124 35.9316 141.798C35.3915 143.22 34.332 144.354 32.8964 144.908L32.1991 143.883ZM34.2773 149.652V145.797H35.5898V148.6H42.6581V149.652H34.2773ZM53.0291 142.023V143.678H57.9783V144.744H46.8084V143.678H51.7439V142.023H53.0291ZM47.3826 141.641C49.5974 141.415 51.3337 140.444 51.5115 139.262H47.8337V138.223H56.9802V139.262H53.2615C53.4461 140.438 55.1824 141.415 57.4041 141.641L56.9392 142.666C54.8132 142.42 53.0564 141.545 52.3865 140.253C51.7166 141.545 49.9734 142.42 47.8474 142.666L47.3826 141.641ZM48.1345 147.766C48.1345 146.392 49.7205 145.633 52.3865 145.633C55.032 145.633 56.6043 146.392 56.6111 147.766C56.6043 149.133 55.032 149.892 52.3865 149.885C49.7205 149.892 48.1345 149.133 48.1345 147.766ZM49.447 147.766C49.4402 148.497 50.4929 148.9 52.3865 148.9C54.2527 148.9 55.3123 148.497 55.3123 147.766C55.3123 147.034 54.2527 146.638 52.3865 146.631C50.4929 146.638 49.4402 147.034 49.447 147.766ZM69.6852 144.936V145.961H66.8688V149.912H65.5563V145.961H62.6032V149.912H61.3044V145.961H58.4743V144.936H69.6852ZM59.8005 139.166V138.1H68.3591V141.381H61.1403V142.734H68.6188V143.787H59.8415V140.41H67.0329V139.166H59.8005ZM81.3648 143.281V144.279H70.1539V143.281H81.3648ZM71.4801 146.07V145.141H79.984V147.834H72.7926V148.846H80.3668V149.762H71.4938V146.973H78.6988V146.07H71.4801ZM71.5621 138.893V137.977H79.9566V140.629H72.8746V141.559H80.1617V142.475H71.5895V139.768H78.6578V138.893H71.5621ZM97.4818 137.676V141.312H99.2318V142.379H97.4818V145.92H96.183V137.676H97.4818ZM87.7611 144.553C88.7113 144.553 89.8119 144.553 90.9603 144.525V143.698C89.5658 143.541 88.6771 142.885 88.6908 141.9C88.6771 140.779 89.8461 140.082 91.6029 140.096C93.3597 140.082 94.5082 140.779 94.515 141.9C94.5082 142.878 93.64 143.534 92.2591 143.698V144.478C93.3529 144.423 94.4603 144.334 95.4857 144.184L95.5951 145.113C92.9632 145.571 90.058 145.592 87.8978 145.592L87.7611 144.553ZM88.0755 139.686V138.715H90.9603V137.566H92.2591V138.715H95.1439V139.686H88.0755ZM89.2923 147.506V146.494H97.4818V149.912H96.183V147.506H89.2923ZM89.9212 141.9C89.9212 142.475 90.557 142.851 91.6029 142.844C92.6351 142.851 93.2777 142.475 93.2709 141.9C93.2777 141.312 92.6351 140.971 91.6029 140.984C90.557 140.971 89.9212 141.312 89.9212 141.9ZM109.681 137.676V146.576H108.382V137.676H109.681ZM99.7688 141.531C99.7757 139.761 101.184 138.503 103.036 138.496C104.882 138.503 106.29 139.761 106.29 141.531C106.29 143.329 104.882 144.58 103.036 144.58C101.184 144.58 99.7757 143.329 99.7688 141.531ZM101.04 141.531C101.033 142.687 101.895 143.445 103.036 143.445C104.158 143.445 105.019 142.687 105.019 141.531C105.019 140.403 104.158 139.631 103.036 139.631C101.895 139.631 101.033 140.403 101.04 141.531ZM101.669 149.652V145.674H102.982V148.6H110.05V149.652H101.669ZM124.741 139.016V140.082H114.775V139.016H119.136V137.607H120.421V139.016H124.741ZM114.2 146.658V145.592H125.411V146.658H120.421V149.926H119.136V146.658H114.2ZM115.704 142.775C115.697 141.436 117.229 140.704 119.778 140.711C122.321 140.704 123.853 141.436 123.853 142.775C123.853 144.081 122.321 144.819 119.778 144.826C117.229 144.819 115.697 144.081 115.704 142.775ZM117.044 142.775C117.044 143.459 118.022 143.849 119.778 143.842C121.528 143.849 122.506 143.459 122.513 142.775C122.506 142.071 121.528 141.682 119.778 141.682C118.022 141.682 117.044 142.071 117.044 142.775ZM134.552 145.291C137.074 145.291 138.612 146.139 138.612 147.588C138.612 149.058 137.074 149.905 134.552 149.912C132.002 149.905 130.436 149.058 130.436 147.588C130.436 146.139 132.002 145.291 134.552 145.291ZM129.356 144.115V138.428H130.628V140.191H133.841V138.428H135.126V144.115H129.356ZM130.628 143.076H133.841V141.217H130.628V143.076ZM131.735 147.588C131.728 148.408 132.781 148.873 134.552 148.873C136.309 148.873 137.348 148.408 137.341 147.588C137.348 146.774 136.309 146.316 134.552 146.316C132.781 146.316 131.728 146.774 131.735 147.588ZM137.204 144.977V137.662H138.503V140.656H140.28V141.764H138.503V144.977H137.204ZM151.755 143.855V144.908H146.888V147.287H145.602V144.908H140.544V143.855H151.755ZM141.938 149.652V146.125H143.237V148.6H150.511V149.652H141.938ZM141.979 142.584V138.236H150.306V142.584H141.979ZM143.251 141.559H149.02V139.262H143.251V141.559ZM161.78 137.662V142.625H163.749V143.705H161.78V149.912H160.495V137.662H161.78ZM152.169 140.643V139.576H155.19V137.826H156.489V139.576H159.429V140.643H152.169ZM152.798 144.389C152.798 142.721 154.083 141.545 155.846 141.545C157.603 141.545 158.888 142.721 158.895 144.389C158.888 146.07 157.603 147.239 155.846 147.246C154.083 147.239 152.798 146.07 152.798 144.389ZM154.042 144.389C154.035 145.455 154.801 146.166 155.846 146.152C156.886 146.166 157.644 145.455 157.651 144.389C157.644 143.343 156.886 142.618 155.846 142.611C154.801 142.618 154.035 143.343 154.042 144.389ZM168.415 140.779C168.401 143.015 169.755 145.271 171.655 146.111L170.876 147.137C169.467 146.467 168.353 145.093 167.779 143.418C167.212 145.216 166.084 146.692 164.614 147.41L163.821 146.316C165.749 145.462 167.102 143.117 167.102 140.779V138.688H168.415V140.779ZM172.762 149.939V137.662H174.061V149.939H172.762ZM185.782 137.662V149.912H184.469V137.662H185.782ZM175.719 146.631C178.973 145.079 180.566 142.871 180.819 140.014H176.307V138.975H182.131C182.131 142.563 180.607 145.667 176.403 147.684L175.719 146.631ZM198.473 143.281V144.279H187.262V143.281H198.473ZM188.588 146.07V145.141H197.092V147.834H189.901V148.846H197.475V149.762H188.602V146.973H195.807V146.07H188.588ZM188.67 138.893V137.977H197.065V140.629H189.983V141.559H197.27V142.475H188.698V139.768H195.766V138.893H188.67ZM211.496 137.662V142.406H213.465V143.5H211.496V149.912H210.198V137.662H211.496ZM202.418 147V138.688H203.704V141.832H206.944V138.688H208.229V147H202.418ZM203.704 145.934H206.944V142.857H203.704V145.934ZM223.258 137.676V140.533H225.049V141.627H223.258V144.43H221.959V137.676H223.258ZM214.125 139.316V138.25H219.703V141.641H215.438V143.117C217.564 143.097 219.068 143.035 220.852 142.707L220.989 143.773C219.095 144.102 217.475 144.177 215.123 144.184H214.139V140.643H218.432V139.316H214.125ZM215.424 149.762V144.949H216.709V146.33H221.959V144.949H223.258V149.762H215.424ZM216.709 148.709H221.959V147.355H216.709V148.709ZM235.485 137.662V149.912H234.186V137.662H235.485ZM226.065 146.795V138.852H227.35V145.674C229.141 145.667 231.021 145.51 232.983 145.113L233.16 146.207C230.993 146.651 229.025 146.802 227.09 146.795H226.065ZM246.535 137.662V142.406H248.504V143.473H246.535V149.939H245.236V137.662H246.535ZM237.512 146.891V138.838H243.24V139.891H238.811V145.811C240.868 145.804 242.406 145.715 244.156 145.4L244.32 146.494C242.4 146.836 240.773 146.897 238.496 146.891H237.512ZM250.066 148.846C249.533 148.839 249.089 148.408 249.096 147.875C249.089 147.342 249.533 146.904 250.066 146.904C250.593 146.904 251.03 147.342 251.037 147.875C251.03 148.408 250.593 148.839 250.066 148.846ZM21.8457 169.387C21.3125 169.38 20.8682 168.949 20.875 168.416C20.8682 167.883 21.3125 167.445 21.8457 167.445C22.3721 167.445 22.8096 167.883 22.8164 168.416C22.8096 168.949 22.3721 169.38 21.8457 169.387ZM30.7127 162.537C32.6473 162.53 34.0418 163.727 34.0487 165.449C34.0418 167.172 32.6473 168.368 30.7127 168.375C28.785 168.368 27.37 167.172 27.3768 165.449C27.37 163.727 28.785 162.53 30.7127 162.537ZM26.7889 170.221C29.0174 170.221 32.1073 170.2 34.787 169.811L34.8827 170.754C32.1141 171.287 29.1405 171.301 26.953 171.301L26.7889 170.221ZM28.662 165.449C28.6483 166.536 29.5233 167.24 30.7127 167.24C31.9022 167.24 32.7772 166.536 32.7772 165.449C32.7772 164.376 31.9022 163.658 30.7127 163.658C29.5233 163.658 28.6483 164.376 28.662 165.449ZM35.5526 173.939V161.662H36.8514V173.939H35.5526ZM49.6111 171.355V172.449H38.4002V171.355H41.4627V169.195H39.7673V165.299H46.9587V163.59H39.74V162.523H48.2439V166.352H41.0525V168.129H48.531V169.195H46.6716V171.355H49.6111ZM42.7205 171.355H45.4002V169.195H42.7205V171.355ZM60.2653 161.662V173.912H58.9528V161.662H60.2653ZM50.2028 170.631C53.4567 169.079 55.0495 166.871 55.3024 164.014H50.7907V162.975H56.6149C56.6149 166.563 55.0905 169.667 50.8864 171.684L50.2028 170.631ZM68.5816 162.592V163.275C68.568 164.096 68.568 165.312 68.2672 166.898L66.982 166.775C67.2486 165.422 67.2896 164.431 67.3033 163.658H62.402V162.592H68.5816ZM61.6637 167.951C62.4156 167.951 63.2701 167.944 64.1656 167.924V165.34H65.4508V167.883C66.7633 167.828 68.1168 167.732 69.3473 167.555L69.4293 168.498C66.8727 168.949 63.9469 168.997 61.7867 169.004L61.6637 167.951ZM63.523 173.652V170.029H64.8219V172.6H71.8492V173.652H63.523ZM70.1266 170.863V161.662H71.4527V165.559H73.1344V166.652H71.4527V170.863H70.1266ZM83.6382 161.662V168.033H82.353V166.57H79.6734V167.582H74.0269V162.223H75.3257V163.877H78.3882V162.223H79.6734V163.344H82.353V161.662H83.6382ZM75.3257 166.543H78.3882V164.875H75.3257V166.543ZM75.6265 169.592V168.58H83.6382V171.588H76.9527V172.723H84.0757V173.762H75.6538V170.617H82.353V169.592H75.6265ZM79.6734 165.572H82.353V164.342H79.6734V165.572ZM96.3295 171.355V172.449H85.1186V171.355H90.0541V169.209H86.4858V165.312H93.6772V163.59H86.4584V162.523H94.9623V166.352H87.7709V168.143H95.2495V169.209H91.3393V171.355H96.3295ZM101.546 162.441V164.314H103.911V162.441H105.115V168.225H100.316V162.441H101.546ZM101.546 167.172H103.911V165.326H101.546V167.172ZM101.915 170.768V169.715H110.241V173.912H108.956V170.768H101.915ZM106.372 168.949V161.895H107.575V164.793H109.011V161.676H110.241V169.031H109.011V165.859H107.575V168.949H106.372ZM121.634 161.676V170.645H120.335V161.676H121.634ZM111.544 167.883C113.465 167.172 114.6 165.408 114.607 163.562V162.346H115.933V163.562C115.926 165.354 117.061 166.994 118.954 167.65L118.284 168.689C116.869 168.163 115.823 167.124 115.277 165.798C114.737 167.22 113.677 168.354 112.241 168.908L111.544 167.883ZM113.622 173.652V169.797H114.935V172.6H122.003V173.652H113.622ZM137.364 171.314V172.395H126.153V171.314H131.089V168.799H127.439V162.496H128.737V164.602H134.753V162.496H136.038V168.799H132.374V171.314H137.364ZM128.737 167.746H134.753V165.654H128.737V167.746ZM149.03 168.58V169.646H146.186V173.912H144.874V169.646H141.948V173.912H140.608V169.646H137.819V168.58H149.03ZM139.036 164.834C139.043 163.18 140.807 162.127 143.397 162.127C145.988 162.127 147.766 163.18 147.759 164.834C147.766 166.468 145.988 167.5 143.397 167.486C140.807 167.5 139.043 166.468 139.036 164.834ZM140.376 164.834C140.369 165.839 141.579 166.461 143.397 166.461C145.223 166.461 146.426 165.839 146.433 164.834C146.426 163.802 145.223 163.173 143.397 163.166C141.579 163.173 140.369 163.802 140.376 164.834ZM156.735 163.617C156.728 165.224 157.863 166.721 159.688 167.322L158.991 168.348C157.651 167.876 156.646 166.919 156.113 165.709C155.58 167.083 154.541 168.163 153.112 168.689L152.415 167.65C154.329 166.974 155.436 165.34 155.45 163.508V162.305H156.735V163.617ZM154.069 171.615C154.069 170.18 155.635 169.339 158.184 169.346C160.7 169.339 162.245 170.18 162.245 171.615C162.245 173.064 160.7 173.892 158.184 173.885C155.635 173.892 154.069 173.064 154.069 171.615ZM155.368 171.615C155.361 172.422 156.414 172.859 158.184 172.873C159.941 172.859 160.98 172.422 160.973 171.615C160.98 170.836 159.941 170.371 158.184 170.371C156.414 170.371 155.361 170.836 155.368 171.615ZM160.837 169.059V161.662H162.136V164.738H163.913V165.832H162.136V169.059H160.837ZM173.829 161.676V165.285H175.579V166.365H173.829V169.961H172.53V161.676H173.829ZM164.108 168.457C165.058 168.464 166.159 168.464 167.307 168.43V167.534C165.899 167.391 165.024 166.762 165.038 165.818C165.024 164.725 166.173 164.075 167.95 164.082C169.714 164.075 170.855 164.725 170.862 165.818C170.855 166.755 169.994 167.384 168.606 167.534V168.375C169.7 168.32 170.807 168.231 171.833 168.088L171.942 168.99C169.317 169.441 166.419 169.482 164.245 169.482L164.108 168.457ZM164.423 163.631V162.66H167.307V161.566H168.606V162.66H171.491V163.631H164.423ZM165.735 172.012C165.735 170.774 167.225 170.091 169.823 170.098C172.4 170.091 173.897 170.774 173.911 172.012C173.897 173.242 172.4 173.905 169.823 173.912C167.225 173.905 165.735 173.242 165.735 172.012ZM166.268 165.818C166.268 166.372 166.904 166.693 167.95 166.693C168.982 166.693 169.625 166.372 169.618 165.818C169.625 165.285 168.982 164.957 167.95 164.957C166.904 164.957 166.268 165.285 166.268 165.818ZM167.048 172.012C167.034 172.606 167.998 172.948 169.823 172.941C171.628 172.948 172.585 172.606 172.585 172.012C172.585 171.39 171.628 171.048 169.823 171.055C167.998 171.048 167.034 171.39 167.048 172.012ZM186.014 161.662V173.939H184.715V161.662H186.014ZM176.294 166.871C176.294 164.253 177.613 162.585 179.465 162.578C181.284 162.585 182.624 164.253 182.624 166.871C182.624 169.517 181.284 171.185 179.465 171.178C177.613 171.185 176.294 169.517 176.294 166.871ZM177.551 166.871C177.545 168.819 178.324 170.016 179.465 170.016C180.587 170.016 181.366 168.819 181.366 166.871C181.366 164.95 180.587 163.747 179.465 163.74C178.324 163.747 177.545 164.95 177.551 166.871ZM200.09 161.662V166.406H202.059V167.473H200.09V173.939H198.791V161.662H200.09ZM191.067 170.891V162.838H196.795V163.891H192.366V169.811C194.423 169.804 195.961 169.715 197.711 169.4L197.875 170.494C195.955 170.836 194.328 170.897 192.051 170.891H191.067ZM213.438 171.342V172.408H202.227V171.342H213.438ZM203.567 163.617V162.564H212.071V166.393H204.879V168.184H212.358V169.223H203.594V165.34H210.786V163.617H203.567ZM225.117 171.26V172.326H213.907V171.26H225.117ZM215.192 168.566V162.688H223.778V168.566H215.192ZM216.45 167.541H222.506V163.74H216.45V167.541ZM236.797 171.355V172.449H225.586V171.355H230.522V169.209H226.953V165.312H234.145V163.59H226.926V162.523H235.43V166.352H228.239V168.143H235.717V169.209H231.807V171.355H236.797ZM251.434 168.102V169.127H240.236V168.102H251.434ZM241.508 171.232V170.193H250.012V173.912H248.686V171.232H241.508ZM241.699 167.062V161.977H250.066V163.002H243.012V164H249.752V164.984H243.012V166.064H250.149V167.062H241.699ZM262.156 161.662V168.949H260.857V165.846H258.574V164.779H260.857V161.662H262.156ZM251.943 167.842C253.844 167.179 255.013 165.524 255.006 163.836V163.562H252.354V162.51H258.957V163.562H256.332V163.822C256.325 165.374 257.433 166.885 259.285 167.514L258.615 168.539C257.241 168.067 256.229 167.083 255.696 165.873C255.163 167.24 254.09 168.341 252.627 168.881L251.943 167.842ZM253.912 171.602C253.905 170.146 255.478 169.298 258.055 169.291C260.618 169.298 262.19 170.146 262.197 171.602C262.19 173.058 260.618 173.905 258.055 173.912C255.478 173.905 253.905 173.058 253.912 171.602ZM255.197 171.602C255.19 172.429 256.257 172.9 258.055 172.887C259.839 172.9 260.905 172.429 260.912 171.602C260.905 170.768 259.839 170.296 258.055 170.303C256.257 170.296 255.19 170.768 255.197 171.602ZM277.135 161.662V173.912H275.89V161.662H277.135ZM266.443 170.535C268.18 169.489 269.061 167.261 269.068 165.08V164.096H266.812V163.043H272.418V164.096H270.312V165.08C270.312 167.172 271.16 169.271 272.883 170.262L272.103 171.219C270.934 170.521 270.135 169.271 269.704 167.794C269.266 169.394 268.432 170.761 267.236 171.506L266.443 170.535ZM271.515 167.062V165.996H273.416V161.922H274.646V173.297H273.416V167.062H271.515ZM289.47 167.527V168.566H284.521V169.879H288.103V173.762H279.64V169.879H283.236V168.566H278.301V167.527H289.47ZM279.326 163.098V162.045H288.418V163.098H286.64V165.436H288.363V166.488H279.381V165.436H281.117V163.098H279.326ZM280.926 172.709H286.845V170.904H280.926V172.709ZM282.402 165.436H285.342V163.098H282.402V165.436ZM295.558 161.867C298.32 161.86 299.926 162.605 299.933 163.973C299.926 165.347 298.32 166.092 295.558 166.092C292.797 166.092 291.176 165.347 291.183 163.973C291.176 162.605 292.797 161.86 295.558 161.867ZM289.98 167.883V166.844H301.15V167.883H289.98ZM291.32 169.797V168.826H299.742V171.697H292.605V172.791H300.084V173.789H291.334V170.754H298.457V169.797H291.32ZM292.537 163.973C292.53 164.731 293.61 165.121 295.558 165.121C297.52 165.121 298.6 164.731 298.593 163.973C298.6 163.248 297.52 162.824 295.558 162.824C293.61 162.824 292.53 163.248 292.537 163.973ZM314.857 161.662V168.334H313.572V165.627H311.275V164.561H313.572V161.662H314.857ZM304.671 167.514C306.551 166.857 307.727 165.251 307.72 163.562V163.398H305.068V162.346H311.671V163.398H309.046V163.576C309.04 165.094 310.147 166.632 312 167.254L311.33 168.266C309.949 167.773 308.937 166.803 308.404 165.6C307.871 166.946 306.797 168.026 305.341 168.539L304.671 167.514ZM306.886 173.762V168.881H308.171V170.289H313.572V168.881H314.857V173.762H306.886ZM308.171 172.709H313.572V171.301H308.171V172.709ZM322.558 166.023V167.678H327.507V168.744H316.337V167.678H321.273V166.023H322.558ZM316.912 165.641C319.126 165.415 320.863 164.444 321.04 163.262H317.363V162.223H326.509V163.262H322.79C322.975 164.438 324.711 165.415 326.933 165.641L326.468 166.666C324.342 166.42 322.585 165.545 321.915 164.253C321.246 165.545 319.502 166.42 317.376 166.666L316.912 165.641ZM317.664 171.766C317.664 170.392 319.249 169.633 321.915 169.633C324.561 169.633 326.133 170.392 326.14 171.766C326.133 173.133 324.561 173.892 321.915 173.885C319.249 173.892 317.664 173.133 317.664 171.766ZM318.976 171.766C318.969 172.497 320.022 172.9 321.915 172.9C323.782 172.9 324.841 172.497 324.841 171.766C324.841 171.034 323.782 170.638 321.915 170.631C320.022 170.638 318.969 171.034 318.976 171.766ZM29.9941 185.662V190.625H31.9629V191.705H29.9941V197.912H28.709V185.662H29.9941ZM20.3828 188.643V187.576H23.4043V185.826H24.7031V187.576H27.6426V188.643H20.3828ZM21.0117 192.389C21.0117 190.721 22.2969 189.545 24.0605 189.545C25.8174 189.545 27.1025 190.721 27.1094 192.389C27.1025 194.07 25.8174 195.239 24.0605 195.246C22.2969 195.239 21.0117 194.07 21.0117 192.389ZM22.2559 192.389C22.249 193.455 23.0146 194.166 24.0605 194.152C25.0996 194.166 25.8584 193.455 25.8652 192.389C25.8584 191.343 25.0996 190.618 24.0605 190.611C23.0146 190.618 22.249 191.343 22.2559 192.389ZM42.0429 186.838V188.041C42.0361 189.552 42.0361 191.247 41.578 193.756L40.2655 193.619C40.7372 191.247 40.7372 189.511 40.7441 188.041V187.891H33.3066V186.838H42.0429ZM32.1308 196.258V195.178H36.3827V190.857H37.6679V195.178H43.3007V196.258H32.1308ZM48.076 189.271C48.0692 191.206 49.3475 193.366 51.2069 194.248L50.4686 195.26C49.0946 194.604 48.0008 193.223 47.4471 191.623C46.8866 193.366 45.7381 194.877 44.3436 195.574L43.578 194.549C45.4373 193.653 46.784 191.343 46.7909 189.271V187.973H44.0291V186.893H50.742V187.973H48.076V189.271ZM52.0545 197.912V185.662H53.3534V190.516H55.3221V191.609H53.3534V197.912H52.0545ZM68.0309 185.662V190.625H69.9997V191.705H68.0309V197.912H66.7458V185.662H68.0309ZM58.4196 188.643V187.576H61.4411V185.826H62.7399V187.576H65.6794V188.643H58.4196ZM59.0485 192.389C59.0485 190.721 60.3337 189.545 62.0973 189.545C63.8542 189.545 65.1393 190.721 65.1462 192.389C65.1393 194.07 63.8542 195.239 62.0973 195.246C60.3337 195.239 59.0485 194.07 59.0485 192.389ZM60.2927 192.389C60.2858 193.455 61.0514 194.166 62.0973 194.152C63.1364 194.166 63.8952 193.455 63.902 192.389C63.8952 191.343 63.1364 190.618 62.0973 190.611C61.0514 190.618 60.2858 191.343 60.2927 192.389ZM80.0797 189.244V190.283H71.6441V186.1H72.9293V189.244H80.0797ZM70.1539 192.867V191.828H81.3648V192.867H70.1539ZM71.5484 197.625V194.029H72.8473V196.559H80.1617V197.625H71.5484ZM95.058 185.676V192.922H93.7592V191.432H90.6694V190.365H93.7592V188.875H90.7993C90.0063 190.844 88.1674 192.231 85.5151 192.99L84.9955 191.979C87.894 191.151 89.5893 189.593 89.8217 187.617H85.6245V186.551H91.2299C91.2299 187.002 91.1821 187.439 91.1 187.85H93.7592V185.676H95.058ZM86.8959 195.451C86.8959 193.968 88.5092 193.065 91.0248 193.059C93.5063 193.065 95.1332 193.968 95.1401 195.451C95.1332 196.941 93.5063 197.857 91.0248 197.857C88.5092 197.857 86.8959 196.941 86.8959 195.451ZM88.1811 195.451C88.1811 196.312 89.2748 196.812 91.0248 196.818C92.7407 196.812 93.8344 196.312 93.8412 195.451C93.8344 194.576 92.7407 194.077 91.0248 194.084C89.2748 194.077 88.1811 194.576 88.1811 195.451ZM107.722 192.621V193.701H102.718V197.912H101.447V193.701H96.5111V192.621H107.722ZM97.7279 188.848C97.7347 187.18 99.4984 186.127 102.089 186.127C104.68 186.127 106.457 187.18 106.451 188.848C106.457 190.495 104.68 191.541 102.089 191.541C99.4984 191.541 97.7347 190.495 97.7279 188.848ZM99.0677 188.848C99.0609 189.866 100.271 190.502 102.089 190.502C103.914 190.502 105.118 189.866 105.124 188.848C105.118 187.815 103.914 187.173 102.089 187.166C100.271 187.173 99.0609 187.815 99.0677 188.848ZM116.876 193.291C119.399 193.291 120.937 194.139 120.937 195.588C120.937 197.058 119.399 197.905 116.876 197.912C114.326 197.905 112.761 197.058 112.761 195.588C112.761 194.139 114.326 193.291 116.876 193.291ZM111.681 192.115V186.428H112.952V188.191H116.165V186.428H117.45V192.115H111.681ZM112.952 191.076H116.165V189.217H112.952V191.076ZM114.06 195.588C114.053 196.408 115.106 196.873 116.876 196.873C118.633 196.873 119.672 196.408 119.665 195.588C119.672 194.774 118.633 194.316 116.876 194.316C115.106 194.316 114.053 194.774 114.06 195.588ZM119.529 192.977V185.662H120.827V188.656H122.605V189.764H120.827V192.977H119.529ZM134.079 191.855V192.908H129.212V195.287H127.927V192.908H122.868V191.855H134.079ZM124.263 197.652V194.125H125.562V196.6H132.835V197.652H124.263ZM124.304 190.584V186.236H132.63V190.584H124.304ZM125.575 189.559H131.345V187.262H125.575V189.559ZM144.105 185.662V190.625H146.073V191.705H144.105V197.912H142.819V185.662H144.105ZM134.493 188.643V187.576H137.515V185.826H138.814V187.576H141.753V188.643H134.493ZM135.122 192.389C135.122 190.721 136.407 189.545 138.171 189.545C139.928 189.545 141.213 190.721 141.22 192.389C141.213 194.07 139.928 195.239 138.171 195.246C136.407 195.239 135.122 194.07 135.122 192.389ZM136.366 192.389C136.359 193.455 137.125 194.166 138.171 194.152C139.21 194.166 139.969 193.455 139.976 192.389C139.969 191.343 139.21 190.618 138.171 190.611C137.125 190.618 136.359 191.343 136.366 192.389ZM156.386 185.662V191.965H155.101V185.662H156.386ZM146.282 190.871C148.196 190.235 149.365 188.629 149.372 186.934V185.99H150.698V186.934C150.691 188.574 151.867 190.064 153.747 190.652L153.104 191.664C151.676 191.199 150.603 190.235 150.049 188.991C149.495 190.331 148.401 191.397 146.938 191.896L146.282 190.871ZM148.347 193.578V192.553H156.399V195.615H149.645V196.75H156.81V197.789H148.388V194.631H155.114V193.578H148.347ZM164.911 186.537C166.846 186.53 168.24 187.727 168.247 189.449C168.24 191.172 166.846 192.368 164.911 192.375C162.983 192.368 161.568 191.172 161.575 189.449C161.568 187.727 162.983 186.53 164.911 186.537ZM160.987 194.221C163.216 194.221 166.305 194.2 168.985 193.811L169.081 194.754C166.312 195.287 163.339 195.301 161.151 195.301L160.987 194.221ZM162.86 189.449C162.846 190.536 163.721 191.24 164.911 191.24C166.1 191.24 166.975 190.536 166.975 189.449C166.975 188.376 166.1 187.658 164.911 187.658C163.721 187.658 162.846 188.376 162.86 189.449ZM169.751 197.939V185.662H171.05V197.939H169.751ZM183.809 195.355V196.449H172.598V195.355H175.661V193.195H173.966V189.299H181.157V187.59H173.938V186.523H182.442V190.352H175.251V192.129H182.729V193.195H180.87V195.355H183.809ZM176.919 195.355H179.598V193.195H176.919V195.355ZM194.464 185.662V197.912H193.151V185.662H194.464ZM184.401 194.631C187.655 193.079 189.248 190.871 189.501 188.014H184.989V186.975H190.813C190.813 190.563 189.289 193.667 185.085 195.684L184.401 194.631ZM202.78 186.592V187.275C202.766 188.096 202.766 189.312 202.465 190.898L201.18 190.775C201.447 189.422 201.488 188.431 201.502 187.658H196.6V186.592H202.78ZM195.862 191.951C196.614 191.951 197.468 191.944 198.364 191.924V189.34H199.649V191.883C200.961 191.828 202.315 191.732 203.545 191.555L203.628 192.498C201.071 192.949 198.145 192.997 195.985 193.004L195.862 191.951ZM197.721 197.652V194.029H199.02V196.6H206.047V197.652H197.721ZM204.325 194.863V185.662H205.651V189.559H207.333V190.652H205.651V194.863H204.325ZM218.178 185.662V197.912H216.934V185.662H218.178ZM207.774 190.953C207.774 188.301 208.813 186.64 210.413 186.646C211.903 186.64 212.908 188.055 213.058 190.352H214.446V185.895H215.69V197.311H214.446V191.404H213.065C212.949 193.797 211.93 195.28 210.413 195.273C208.813 195.28 207.774 193.612 207.774 190.953ZM208.977 190.953C208.977 192.901 209.531 194.05 210.413 194.043C211.315 194.05 211.875 192.901 211.875 190.953C211.875 188.998 211.315 187.856 210.413 187.863C209.531 187.856 208.977 188.998 208.977 190.953ZM226.567 188.779C226.553 190.946 227.818 193.168 229.643 194.057L228.836 195.096C227.503 194.398 226.471 193.031 225.931 191.397C225.384 193.134 224.311 194.604 222.916 195.328L222.11 194.275C223.99 193.373 225.261 191.021 225.268 188.779V186.688H226.567V188.779ZM230.559 197.912V185.662H231.858V190.543H233.826V191.65H231.858V197.912H230.559ZM244.207 185.676V194.645H242.908V190.037H240.571V188.984H242.908V185.676H244.207ZM234.008 192.088C235.888 191.452 237.064 189.839 237.057 188.15V187.672H234.405V186.605H241.008V187.672H238.383V188.15C238.376 189.675 239.484 191.213 241.336 191.828L240.666 192.867C239.292 192.389 238.274 191.404 237.74 190.188C237.207 191.541 236.134 192.621 234.678 193.141L234.008 192.088ZM236.25 197.652V193.838H237.549V196.6H244.535V197.652H236.25ZM258.311 185.676V189.312H260.061V190.379H258.311V193.92H257.012V185.676H258.311ZM248.59 192.553C249.54 192.553 250.641 192.553 251.789 192.525V191.698C250.395 191.541 249.506 190.885 249.52 189.9C249.506 188.779 250.675 188.082 252.432 188.096C254.189 188.082 255.337 188.779 255.344 189.9C255.337 190.878 254.469 191.534 253.088 191.698V192.478C254.182 192.423 255.289 192.334 256.315 192.184L256.424 193.113C253.792 193.571 250.887 193.592 248.727 193.592L248.59 192.553ZM248.904 187.686V186.715H251.789V185.566H253.088V186.715H255.973V187.686H248.904ZM250.121 195.506V194.494H258.311V197.912H257.012V195.506H250.121ZM250.75 189.9C250.75 190.475 251.386 190.851 252.432 190.844C253.464 190.851 254.107 190.475 254.1 189.9C254.107 189.312 253.464 188.971 252.432 188.984C251.386 188.971 250.75 189.312 250.75 189.9ZM270.51 185.676V194.576H269.211V185.676H270.51ZM260.598 189.531C260.604 187.761 262.013 186.503 263.865 186.496C265.711 186.503 267.119 187.761 267.119 189.531C267.119 191.329 265.711 192.58 263.865 192.58C262.013 192.58 260.604 191.329 260.598 189.531ZM261.869 189.531C261.862 190.687 262.724 191.445 263.865 191.445C264.986 191.445 265.848 190.687 265.848 189.531C265.848 188.403 264.986 187.631 263.865 187.631C262.724 187.631 261.862 188.403 261.869 189.531ZM262.498 197.652V193.674H263.811V196.6H270.879V197.652H262.498ZM281.574 185.662V190.625H283.543V191.705H281.574V197.912H280.289V185.662H281.574ZM271.963 188.643V187.576H274.984V185.826H276.283V187.576H279.223V188.643H271.963ZM272.592 192.389C272.592 190.721 273.877 189.545 275.641 189.545C277.397 189.545 278.683 190.721 278.689 192.389C278.683 194.07 277.397 195.239 275.641 195.246C273.877 195.239 272.592 194.07 272.592 192.389ZM273.836 192.389C273.829 193.455 274.595 194.166 275.641 194.152C276.68 194.166 277.438 193.455 277.445 192.389C277.438 191.343 276.68 190.618 275.641 190.611C274.595 190.618 273.829 191.343 273.836 192.389ZM288.209 188.779C288.195 191.015 289.549 193.271 291.449 194.111L290.67 195.137C289.262 194.467 288.147 193.093 287.573 191.418C287.006 193.216 285.878 194.692 284.408 195.41L283.615 194.316C285.543 193.462 286.896 191.117 286.896 188.779V186.688H288.209V188.779ZM292.556 197.939V185.662H293.855V197.939H292.556ZM305.576 185.662V197.912H304.263V185.662H305.576ZM295.513 194.631C298.767 193.079 300.36 190.871 300.613 188.014H296.101V186.975H301.926C301.926 190.563 300.401 193.667 296.197 195.684L295.513 194.631ZM318.267 191.281V192.279H307.056V191.281H318.267ZM308.383 194.07V193.141H316.886V195.834H309.695V196.846H317.269V197.762H308.396V194.973H315.601V194.07H308.383ZM308.465 186.893V185.977H316.859V188.629H309.777V189.559H317.064V190.475H308.492V187.768H315.56V186.893H308.465ZM29.9941 209.662V214.406H31.9629V215.5H29.9941V221.912H28.6953V209.662H29.9941ZM20.916 219V210.688H22.2012V213.832H25.4414V210.688H26.7266V219H20.916ZM22.2012 217.934H25.4414V214.857H22.2012V217.934ZM41.7558 209.676V212.533H43.5468V213.627H41.7558V216.43H40.457V209.676H41.7558ZM32.623 211.316V210.25H38.2011V213.641H33.9355V215.117C36.0614 215.097 37.5654 215.035 39.3495 214.707L39.4862 215.773C37.5927 216.102 35.9726 216.177 33.621 216.184H32.6366V212.643H36.9296V211.316H32.623ZM33.9218 221.762V216.949H35.207V218.33H40.457V216.949H41.7558V221.762H33.9218ZM35.207 220.709H40.457V219.355H35.207V220.709ZM53.9823 209.662V221.912H52.6834V209.662H53.9823ZM44.5623 218.795V210.852H45.8475V217.674C47.6385 217.667 49.5184 217.51 51.4803 217.113L51.658 218.207C49.4911 218.651 47.5223 218.802 45.5877 218.795H44.5623ZM65.033 209.662V214.406H67.0017V215.473H65.033V221.939H63.7341V209.662H65.033ZM56.0095 218.891V210.838H61.738V211.891H57.3084V217.811C59.366 217.804 60.9041 217.715 62.6541 217.4L62.8181 218.494C60.8972 218.836 59.2703 218.897 56.9939 218.891H56.0095ZM68.5641 220.846C68.0309 220.839 67.5866 220.408 67.5934 219.875C67.5866 219.342 68.0309 218.904 68.5641 218.904C69.0905 218.904 69.528 219.342 69.5348 219.875C69.528 220.408 69.0905 220.839 68.5641 220.846Z" fill="#E5E8EB"/>
</svg>
