<svg width="456" height="336" viewBox="0 0 456 336" fill="none" xmlns="http://www.w3.org/2000/svg">
<g filter="url(#filter0_b_134_253)">
<path d="M451.564 85.9351C452.781 89.6488 450.948 93.6381 447.394 95.0141L444.456 96.1513C442.181 97.0321 440.52 99.04 440.048 101.48L439.428 104.681C438.686 108.521 435.097 111.033 431.29 110.379L428.43 109.887C425.973 109.464 423.497 110.362 421.882 112.261L419.937 114.548C417.396 117.535 412.949 117.867 409.924 115.295L407.854 113.535C405.9 111.875 403.252 111.367 400.876 112.197L398.312 113.094C394.607 114.389 390.522 112.388 389.149 108.604L388.199 105.986C387.319 103.561 385.263 101.763 382.782 101.251L380.152 100.709C376.311 99.9158 373.746 96.1484 374.378 92.2272L374.862 89.2242C375.264 86.7307 374.371 84.1819 372.5 82.4843L370.322 80.5076C367.422 77.8769 367.036 73.4165 369.445 70.3929L371.453 67.8728C372.984 65.9515 373.439 63.3525 372.66 60.9752L371.654 57.9057C370.437 54.192 372.269 50.2027 375.823 48.8267L378.761 47.6895C381.037 46.8087 382.698 44.8008 383.17 42.3607L383.789 39.1601C384.532 35.3201 388.121 32.8074 391.927 33.4622L394.788 33.9542C397.244 34.3767 399.72 33.4788 401.335 31.5797L403.281 29.2925C405.821 26.3061 410.268 25.9743 413.293 28.5455L415.363 30.3055C417.317 31.9662 419.966 32.4741 422.341 31.6435L424.905 30.7471C428.61 29.4517 432.695 31.4532 434.068 35.2365L435.018 37.8544C435.898 40.2801 437.955 42.0774 440.436 42.5895L443.065 43.1321C446.907 43.9249 449.471 47.6924 448.839 51.6136L448.355 54.6166C447.953 57.1101 448.846 59.6589 450.717 61.3565L452.896 63.3332C455.795 65.9639 456.181 70.4243 453.772 73.4479L451.764 75.968C450.233 77.8892 449.778 80.4883 450.558 82.8656L451.564 85.9351Z" fill="#0073FE" fill-opacity="0.4"/>
</g>
<g clip-path="url(#clip0_134_253)">
<path d="M417.879 59.5722C418.311 59.4347 418.734 59.4673 419.148 59.67C419.561 59.8727 419.853 60.1902 420.023 60.6226L422.238 67.0376L424.622 66.1595L424.385 65.4721C424.227 65.0139 424.246 64.5712 424.442 64.1438C424.638 63.7165 424.958 63.4211 425.402 63.2578C425.834 63.1203 426.256 63.1529 426.67 63.3556C427.084 63.5583 427.363 63.8697 427.508 64.2897L429.09 68.8719C429.248 69.3301 429.229 69.7729 429.033 70.2002C428.836 70.6275 428.517 70.9229 428.073 71.0863C427.654 71.2619 427.232 71.2453 426.806 71.0365C426.379 70.8276 426.1 70.5002 425.967 70.0543L425.729 69.367L423.345 70.2451L425.559 76.6601C425.717 77.1183 425.698 77.5611 425.502 77.9884C425.306 78.4157 424.986 78.7111 424.542 78.8745C424.099 79.0378 423.67 79.0182 423.256 78.8155C422.842 78.6128 422.557 78.2823 422.398 77.8241L421.902 76.296L418.464 77.5621L416.268 71.1083C416.097 70.676 415.806 70.3585 415.392 70.1557C414.978 69.953 414.555 69.9204 414.124 70.0579C413.68 70.2213 413.36 70.5166 413.164 70.944C412.968 71.3713 412.948 71.8141 413.107 72.2723L415.359 78.7057L412.014 79.9698L409.779 73.4975C409.621 73.0393 409.335 72.7089 408.922 72.5062C408.508 72.3035 408.079 72.2838 407.636 72.4472C407.229 72.5969 406.934 72.8885 406.75 73.322C406.566 73.7555 406.541 74.1952 406.674 74.6411L408.926 81.0746L405.543 82.3202C404.693 82.6334 403.848 82.5841 403.008 82.1726C402.168 81.761 401.596 81.1161 401.293 80.2379L400.702 78.6157L392.144 81.7994C391.774 81.9355 391.469 81.8651 391.228 81.5882C390.986 81.3113 390.949 80.9916 391.115 80.629L391.847 79.0362C391.989 78.7254 392.192 78.4518 392.454 78.2153C392.716 77.9789 392.995 77.8063 393.291 77.6974L399.613 75.3694L399.021 73.7472C398.718 72.8689 398.766 71.996 399.164 71.1284C399.563 70.2607 400.187 69.6704 401.037 69.3572L417.396 63.333L416.862 61.7866C416.729 61.3406 416.761 60.904 416.957 60.4767C417.153 60.0493 417.461 59.7478 417.879 59.5722Z" fill="white"/>
</g>
<path d="M333.834 88.1048C333.834 78.1058 325.707 70 315.682 70C305.657 70 297.53 78.1058 297.53 88.1048V112.821C297.53 122.82 305.657 130.926 315.682 130.926C325.707 130.926 333.834 122.82 333.834 112.821V88.1048Z" fill="white"/>
<path d="M390.143 88.1048C390.143 78.1058 382.016 70 371.991 70C361.966 70 353.839 78.1058 353.839 88.1048V112.821C353.839 122.82 361.966 130.926 371.991 130.926C382.016 130.926 390.143 122.82 390.143 112.821V88.1048Z" fill="white"/>
<path d="M328.508 89.7629C328.508 82.6969 322.766 76.9688 315.682 76.9688C308.598 76.9688 302.855 82.6969 302.855 89.7629V107.232C302.855 114.298 308.598 120.026 315.682 120.026C322.766 120.026 328.508 114.298 328.508 107.232V89.7629Z" fill="#E9ECF2"/>
<path d="M384.817 89.7629C384.817 82.6969 379.074 76.9688 371.99 76.9688C364.906 76.9688 359.164 82.6969 359.164 89.7629V107.232C359.164 114.298 364.906 120.026 371.99 120.026C379.074 120.026 384.817 114.298 384.817 107.232V89.7629Z" fill="#E9ECF2"/>
<path d="M335.49 78.877H352.19C373.142 78.877 390.151 95.8382 390.151 116.731V234.816H297.53V116.731C297.53 95.8382 314.539 78.877 335.49 78.877Z" fill="white"/>
<path d="M349.337 118.868C349.337 120.74 346.728 123.142 343.897 123.142C341.066 123.142 338.772 120.74 338.772 118.868C338.772 116.995 341.066 115.473 343.897 115.473C346.728 115.473 349.337 116.988 349.337 118.868Z" fill="black"/>
<path d="M346.24 117.638C346.14 117.766 346.04 117.909 346.018 118.067C345.997 118.252 346.083 118.438 346.162 118.61C346.527 119.346 346.914 120.118 347.581 120.597C348.577 121.319 350.061 121.197 351.014 120.411C351.107 120.332 351.193 120.247 351.243 120.139C351.301 119.989 351.265 119.818 351.265 119.653C351.258 119.196 351.516 118.774 351.559 118.324C351.666 117.173 350.548 115.951 349.473 115.772C348.219 115.558 346.979 116.709 346.24 117.638Z" fill="black"/>
<path d="M349.259 115.216C349.23 115.101 349.194 114.98 349.116 114.894C349.022 114.794 348.879 114.766 348.743 114.73C348.162 114.601 347.553 114.48 346.98 114.637C346.12 114.873 345.525 115.766 345.546 116.653C345.546 116.738 345.553 116.831 345.596 116.903C345.654 117.003 345.768 117.06 345.861 117.131C346.12 117.332 346.249 117.667 346.485 117.896C347.087 118.475 348.284 118.389 348.872 117.868C349.56 117.253 349.46 116.038 349.266 115.209L349.259 115.216Z" fill="black"/>
<path d="M342.758 114.158C342.622 114.251 342.478 114.351 342.407 114.494C342.321 114.666 342.342 114.873 342.371 115.059C342.478 115.881 342.593 116.746 343.073 117.425C343.79 118.447 345.252 118.811 346.414 118.368C346.528 118.325 346.643 118.275 346.722 118.182C346.829 118.054 346.851 117.882 346.901 117.725C347.044 117.289 347.431 116.967 347.618 116.546C348.105 115.481 347.431 113.944 346.464 113.422C345.331 112.807 343.769 113.501 342.758 114.151V114.158Z" fill="black"/>
<path d="M342.133 112.978C341.976 112.949 341.804 112.928 341.653 112.985C341.474 113.05 341.352 113.214 341.245 113.371C340.764 114.036 340.27 114.736 340.162 115.551C339.997 116.766 340.8 118.01 341.94 118.467C342.047 118.51 342.169 118.553 342.284 118.539C342.449 118.517 342.578 118.41 342.721 118.332C343.122 118.11 343.61 118.139 344.033 117.96C345.101 117.517 345.646 115.959 345.301 114.936C344.9 113.736 343.309 113.192 342.14 112.985L342.133 112.978Z" fill="black"/>
<path d="M342.514 114.458C342.457 114.301 342.385 114.144 342.256 114.036C342.105 113.915 341.905 113.893 341.711 113.872C340.88 113.793 340.012 113.722 339.238 114.036C338.084 114.508 337.403 115.852 337.583 117.081C337.597 117.203 337.626 117.324 337.697 117.424C337.798 117.56 337.963 117.617 338.106 117.703C338.5 117.939 338.729 118.382 339.102 118.661C340.041 119.369 341.69 119.047 342.414 118.225C343.267 117.26 342.93 115.587 342.514 114.458Z" fill="black"/>
<path d="M341.389 115.529C341.288 115.343 341.167 115.15 340.98 115.043C340.765 114.915 340.5 114.929 340.249 114.936C339.167 114.993 338.042 115.065 337.11 115.615C335.719 116.444 335.103 118.288 335.569 119.839C335.612 119.989 335.669 120.139 335.784 120.254C335.934 120.404 336.164 120.447 336.364 120.533C336.916 120.761 337.296 121.283 337.819 121.569C339.153 122.298 341.21 121.569 341.984 120.382C342.887 118.982 342.141 116.894 341.389 115.529Z" fill="black"/>
<path d="M336.723 119.447C336.594 119.576 336.465 119.719 336.422 119.897C336.372 120.105 336.443 120.319 336.515 120.519C336.823 121.384 337.16 122.292 337.834 122.914C338.852 123.843 340.514 123.9 341.668 123.149C341.783 123.078 341.891 122.992 341.955 122.878C342.041 122.713 342.027 122.52 342.041 122.342C342.091 121.834 342.435 121.398 342.543 120.898C342.815 119.633 341.726 118.132 340.557 117.789C339.188 117.389 337.662 118.504 336.723 119.447Z" fill="black"/>
<path d="M339.418 120.098C339.26 120.162 339.102 120.233 339.002 120.369C338.887 120.526 338.866 120.727 338.859 120.92C338.808 121.756 338.758 122.628 339.102 123.393C339.618 124.536 340.987 125.172 342.227 124.958C342.349 124.936 342.471 124.908 342.564 124.829C342.693 124.722 342.751 124.558 342.829 124.408C343.052 124 343.496 123.757 343.761 123.378C344.442 122.413 344.069 120.777 343.217 120.076C342.213 119.254 340.543 119.647 339.418 120.098Z" fill="black"/>
<path d="M340.622 122.941C340.543 123.105 340.471 123.277 340.485 123.455C340.507 123.663 340.643 123.841 340.772 123.999C341.338 124.699 341.948 125.428 342.779 125.786C344.026 126.322 345.582 125.828 346.406 124.756C346.485 124.649 346.564 124.542 346.585 124.406C346.614 124.227 346.535 124.056 346.492 123.877C346.37 123.391 346.549 122.876 346.485 122.383C346.327 121.118 344.822 120.089 343.632 120.153C342.234 120.232 341.188 121.761 340.622 122.934V122.941Z" fill="black"/>
<path d="M346.915 120.32C346.829 120.234 346.735 120.148 346.614 120.12C346.477 120.084 346.334 120.134 346.198 120.184C345.624 120.391 345.022 120.613 344.614 121.056C343.997 121.728 343.962 122.828 344.463 123.586C344.513 123.658 344.571 123.736 344.642 123.772C344.75 123.829 344.879 123.815 345.001 123.829C345.338 123.865 345.624 124.086 345.954 124.158C346.793 124.337 347.789 123.615 348.011 122.843C348.277 121.942 347.531 120.934 346.907 120.32H346.915Z" fill="black"/>
<path d="M345.639 120.348C345.553 120.463 345.467 120.584 345.446 120.727C345.424 120.891 345.503 121.056 345.575 121.206C345.897 121.849 346.249 122.521 346.836 122.943C347.718 123.572 349.022 123.45 349.847 122.757C349.926 122.693 350.004 122.614 350.047 122.514C350.098 122.378 350.069 122.228 350.062 122.085C350.055 121.685 350.277 121.313 350.313 120.913C350.399 119.898 349.409 118.833 348.463 118.683C347.36 118.504 346.277 119.519 345.639 120.348Z" fill="black"/>
<path d="M347.61 117.002C347.474 117.052 347.338 117.109 347.245 117.223C347.137 117.352 347.116 117.531 347.101 117.695C347.03 118.417 346.965 119.175 347.245 119.847C347.661 120.847 348.829 121.44 349.904 121.29C350.012 121.276 350.119 121.255 350.198 121.19C350.313 121.105 350.37 120.962 350.442 120.833C350.649 120.49 351.036 120.29 351.28 119.968C351.897 119.153 351.624 117.717 350.9 117.088C350.055 116.344 348.592 116.637 347.61 116.995V117.002Z" fill="black"/>
<path d="M320.356 125.027C325.797 135.803 339.934 138.995 350.828 136.166C358.049 134.287 368.158 127.679 367.979 119.121C367.934 116.826 364.35 116.991 364.4 119.294C364.54 126.123 355.211 131.345 349.731 132.763C340.251 135.213 328.081 132.454 323.376 123.118C322.337 121.062 319.321 122.987 320.347 125.033L320.356 125.027Z" fill="black"/>
<path d="M331.375 103.236H331.368C329.904 103.236 328.716 104.42 328.716 105.881V109.226C328.716 110.687 329.904 111.871 331.368 111.871H331.375C332.84 111.871 334.027 110.687 334.027 109.226V105.881C334.027 104.42 332.84 103.236 331.375 103.236Z" fill="black"/>
<path d="M352.692 103.236H352.685C351.22 103.236 350.033 104.42 350.033 105.881V109.226C350.033 110.687 351.22 111.871 352.685 111.871H352.692C354.157 111.871 355.344 110.687 355.344 109.226V105.881C355.344 104.42 354.157 103.236 352.692 103.236Z" fill="black"/>
<path d="M297.707 157C297.707 157 300.992 172.743 277.944 210.661C254.896 248.58 259.345 304 259.345 304H390V199.827L297.714 157H297.707Z" fill="white"/>
<path d="M225.352 102.149L223.77 103.249C222.959 103.814 222.76 104.928 223.326 105.737L261.03 159.633C261.597 160.443 262.714 160.641 263.525 160.076L265.107 158.976C265.918 158.412 266.117 157.298 265.551 156.488L227.847 102.592C227.28 101.783 226.163 101.584 225.352 102.149Z" fill="#3D3F4D"/>
<path d="M265.872 149.948L254.768 157.673C253.742 158.386 253.49 159.794 254.206 160.817L265.836 177.442C266.552 178.465 267.964 178.716 268.99 178.002L280.094 170.277C281.12 169.564 281.372 168.156 280.656 167.133L269.026 150.508C268.31 149.485 266.898 149.234 265.872 149.948Z" fill="#69AFEE"/>
<path d="M355.049 277.424L343.944 285.149C342.918 285.863 342.667 287.271 343.382 288.294L363.506 317.059C364.221 318.082 365.633 318.333 366.659 317.619L377.764 309.894C378.79 309.181 379.041 307.773 378.326 306.75L358.202 277.984C357.486 276.961 356.075 276.71 355.049 277.424Z" fill="#3B80D3"/>
<path d="M279.18 155.798L255.683 172.143C254.657 172.857 254.406 174.265 255.121 175.288L266.752 191.913C267.467 192.936 268.879 193.187 269.905 192.473L293.402 176.127C294.428 175.414 294.679 174.006 293.964 172.983L282.333 156.358C281.618 155.335 280.206 155.084 279.18 155.798Z" fill="#3B80D3"/>
<path d="M263.581 187.582L290.97 168.529C295.467 165.401 301.658 166.506 304.792 170.984L371.637 266.537L327.965 296.917L261.119 201.365C257.982 196.881 259.09 190.707 263.581 187.582Z" fill="#E1F4FF"/>
<path d="M370.275 260.198L322.476 293.45C321.45 294.164 321.198 295.572 321.914 296.595L328.066 305.388C328.781 306.411 330.193 306.662 331.219 305.948L379.018 272.697C380.044 271.983 380.296 270.575 379.58 269.552L373.428 260.759C372.713 259.736 371.301 259.485 370.275 260.198Z" fill="#6DB2F8"/>
<path d="M390.421 289.017L342.622 322.268C341.596 322.982 341.345 324.39 342.061 325.413L348.212 334.206C348.928 335.229 350.34 335.48 351.366 334.766L399.165 301.515C400.19 300.801 400.442 299.393 399.726 298.37L393.575 289.577C392.859 288.554 391.447 288.303 390.421 289.017Z" fill="#6DB2F8"/>
<path d="M311.394 180.422L314.548 184.93L297.147 197.035C296.336 197.599 295.218 197.4 294.652 196.591L293.549 195.015C292.983 194.206 293.182 193.091 293.993 192.527L311.394 180.422Z" fill="#AAC5E2"/>
<path d="M356.819 245.373L359.973 249.881L342.572 261.986C341.761 262.55 340.643 262.352 340.077 261.543L338.974 259.966C338.408 259.157 338.607 258.042 339.419 257.478L356.819 245.373Z" fill="#AAC5E2"/>
<path d="M334.107 212.889L337.261 217.397L312.5 234.621C311.689 235.186 310.571 234.987 310.005 234.178L308.902 232.601C308.336 231.792 308.535 230.678 309.346 230.113L334.107 212.889Z" fill="#AAC5E2"/>
<path d="M322.75 196.66L325.903 201.168L313.805 209.584C312.994 210.149 311.876 209.95 311.31 209.141L310.207 207.564C309.641 206.755 309.84 205.641 310.651 205.076L322.75 196.66Z" fill="#AAC5E2"/>
<path d="M345.465 229.135L348.619 233.643L336.521 242.059C335.709 242.623 334.592 242.425 334.026 241.616L332.923 240.039C332.357 239.23 332.556 238.115 333.367 237.551L345.465 229.135Z" fill="#AAC5E2"/>
<path d="M255.477 268.917C255.477 268.917 219.868 245.409 268.013 199.393C316.159 153.377 325.19 209.399 306.131 227.404C287.072 245.409 279.546 284.921 279.546 284.921L255.47 268.917H255.477Z" fill="white"/>
<path d="M405.173 217.504C405.173 217.504 428.21 248.475 372.983 272.819C317.756 297.164 327.411 246.702 349.208 237.246C371.005 227.782 389.641 196.469 389.641 196.469L405.181 217.504H405.173Z" fill="white"/>
<g filter="url(#filter1_b_134_253)">
<path d="M240.186 202.602C243.86 201.203 248.003 203.095 249.474 206.842L250.382 209.154C251.326 211.557 253.432 213.299 255.929 213.743L258.283 214.162C262.147 214.849 264.813 218.546 264.283 222.483L263.915 225.216C263.577 227.718 264.537 230.241 266.452 231.888L268.467 233.619C271.433 236.169 271.937 240.613 269.609 243.699L267.829 246.059C266.35 248.019 265.964 250.626 266.804 252.978L267.797 255.763C269.109 259.438 267.384 263.469 263.87 264.942L261.207 266.057C258.957 267 257.351 269.049 256.943 271.497L256.452 274.447C255.809 278.302 252.288 280.908 248.466 280.359L245.87 279.986C243.402 279.631 240.95 280.596 239.385 282.538L237.676 284.659C235.215 287.715 230.773 288.167 227.68 285.677L225.796 284.161C223.797 282.553 221.131 282.117 218.776 283.014L216.51 283.877C212.836 285.275 208.693 283.384 207.221 279.636L206.314 277.325C205.37 274.922 203.264 273.179 200.767 272.735L198.413 272.317C194.548 271.63 191.882 267.932 192.413 263.995L192.781 261.262C193.118 258.76 192.158 256.237 190.243 254.591L188.229 252.86C185.262 250.31 184.759 245.866 187.086 242.78L188.867 240.419C190.345 238.459 190.731 235.853 189.892 233.5L188.898 230.716C187.587 227.04 189.312 223.009 192.826 221.537L195.489 220.421C197.738 219.479 199.344 217.43 199.752 214.981L200.244 212.032C200.886 208.177 204.407 205.57 208.23 206.12L210.826 206.493C213.293 206.847 215.746 205.882 217.31 203.94L219.019 201.819C221.481 198.764 225.923 198.312 229.016 200.801L230.9 202.317C232.899 203.926 235.564 204.361 237.92 203.465L240.186 202.602Z" fill="#6BB0FB"/>
<path d="M233.607 245.837C232.886 247.521 229.641 248.62 227.121 247.47C224.602 246.32 223.486 243.229 224.206 241.545C224.927 239.861 227.554 239.424 230.073 240.574C232.592 241.724 234.33 244.146 233.607 245.837Z" fill="white"/>
<path d="M231.326 243.474C231.187 243.549 231.043 243.637 230.963 243.77C230.873 243.928 230.878 244.13 230.882 244.316C230.924 245.127 230.971 245.978 231.38 246.68C231.989 247.733 233.356 248.227 234.506 247.907C234.62 247.874 234.729 247.832 234.815 247.756C234.924 247.644 234.958 247.476 235.021 247.328C235.191 246.913 235.583 246.639 235.794 246.252C236.333 245.26 235.808 243.707 234.92 243.11C233.887 242.407 232.341 242.939 231.326 243.474Z" fill="white"/>
<path d="M234.943 242.52C234.961 242.405 234.976 242.281 234.939 242.172C234.895 242.044 234.778 241.96 234.671 241.873C234.204 241.522 233.708 241.165 233.138 241.073C232.282 240.936 231.408 241.498 231.087 242.303C231.054 242.381 231.024 242.467 231.035 242.549C231.047 242.662 231.127 242.76 231.183 242.862C231.335 243.147 231.321 243.501 231.443 243.803C231.756 244.568 232.854 244.977 233.578 244.747C234.427 244.474 234.805 243.34 234.952 242.516L234.943 242.52Z" fill="white"/>
<path d="M229.566 238.929C229.409 238.957 229.243 238.989 229.124 239.088C228.982 239.207 228.921 239.403 228.875 239.581C228.655 240.364 228.424 241.188 228.59 241.994C228.834 243.204 229.995 244.126 231.199 244.199C231.317 244.207 231.439 244.209 231.544 244.157C231.69 244.085 231.775 243.94 231.88 243.819C232.175 243.485 232.643 243.353 232.972 243.049C233.815 242.29 233.807 240.634 233.147 239.772C232.376 238.759 230.718 238.748 229.569 238.922L229.566 238.929Z" fill="white"/>
<path d="M229.464 237.615C229.335 237.525 229.19 237.436 229.034 237.426C228.85 237.411 228.678 237.509 228.522 237.607C227.839 238.01 227.129 238.439 226.72 239.128C226.106 240.153 226.342 241.598 227.18 242.472C227.259 242.554 227.351 242.642 227.458 242.676C227.613 242.724 227.769 242.68 227.927 242.667C228.369 242.631 228.792 242.855 229.237 242.866C230.358 242.901 231.442 241.721 231.529 240.663C231.634 239.42 230.427 238.285 229.468 237.624L229.464 237.615Z" fill="white"/>
<path d="M229.233 239.1C229.243 238.936 229.239 238.765 229.166 238.616C229.079 238.446 228.908 238.345 228.744 238.247C228.035 237.839 227.291 237.422 226.481 237.391C225.272 237.346 224.15 238.278 223.836 239.456C223.802 239.571 223.781 239.692 223.806 239.811C223.843 239.974 223.968 240.092 224.062 240.228C224.322 240.6 224.356 241.092 224.58 241.494C225.143 242.511 226.734 242.892 227.694 242.447C228.825 241.926 229.168 240.285 229.233 239.1Z" fill="white"/>
<path d="M227.819 239.607C227.801 239.399 227.767 239.176 227.643 239.004C227.501 238.8 227.259 238.706 227.033 238.61C226.048 238.222 225.02 237.829 223.979 237.946C222.422 238.126 221.164 239.534 220.982 241.118C220.963 241.271 220.956 241.429 221.014 241.578C221.09 241.774 221.278 241.906 221.423 242.065C221.826 242.495 221.964 243.118 222.319 243.588C223.225 244.785 225.336 244.965 226.481 244.212C227.824 243.319 227.964 241.14 227.819 239.607Z" fill="white"/>
<path d="M222.16 241.233C221.995 241.296 221.826 241.372 221.718 241.515C221.594 241.681 221.575 241.903 221.562 242.112C221.504 243.015 221.454 243.968 221.814 244.801C222.362 246.05 223.82 246.777 225.135 246.571C225.265 246.553 225.394 246.52 225.495 246.443C225.635 246.33 225.696 246.151 225.778 245.996C226.018 245.56 226.492 245.308 226.78 244.901C227.509 243.874 227.117 242.082 226.21 241.299C225.146 240.383 223.358 240.766 222.16 241.233Z" fill="white"/>
<path d="M224.308 242.912C224.143 242.906 223.976 242.906 223.834 242.987C223.672 243.082 223.575 243.253 223.495 243.424C223.128 244.156 222.748 244.919 222.76 245.747C222.779 246.985 223.752 248.113 224.938 248.424C225.055 248.454 225.174 248.478 225.287 248.445C225.444 248.401 225.558 248.276 225.686 248.173C226.04 247.897 226.529 247.859 226.911 247.626C227.888 247.035 228.186 245.412 227.697 244.436C227.12 243.289 225.483 242.964 224.308 242.912Z" fill="white"/>
<path d="M224.285 245.96C224.151 246.076 224.021 246.201 223.965 246.367C223.905 246.562 223.957 246.778 224.011 246.972C224.246 247.832 224.507 248.735 225.11 249.394C226.013 250.383 227.587 250.571 228.733 249.942C228.844 249.878 228.955 249.813 229.027 249.7C229.121 249.551 229.117 249.364 229.147 249.186C229.226 248.7 229.584 248.31 229.716 247.84C230.062 246.638 229.119 245.101 228.036 244.676C226.762 244.179 225.242 245.129 224.287 245.953L224.285 245.96Z" fill="white"/>
<path d="M230.893 246.158C230.85 246.046 230.8 245.931 230.702 245.855C230.595 245.768 230.448 245.755 230.308 245.744C229.718 245.698 229.097 245.652 228.563 245.885C227.756 246.239 227.3 247.214 227.455 248.099C227.472 248.184 227.493 248.278 227.543 248.339C227.617 248.434 227.737 248.474 227.84 248.536C228.126 248.705 228.296 249.021 228.562 249.219C229.239 249.72 230.403 249.476 230.898 248.872C231.481 248.17 231.205 246.961 230.887 246.155L230.893 246.158Z" fill="white"/>
<path d="M229.747 245.665C229.627 245.732 229.503 245.807 229.429 245.927C229.347 246.066 229.354 246.246 229.36 246.41C229.399 247.119 229.453 247.866 229.814 248.484C230.356 249.408 231.564 249.828 232.564 249.54C232.659 249.514 232.759 249.475 232.836 249.403C232.933 249.301 232.965 249.154 233.014 249.023C233.162 248.66 233.502 248.416 233.688 248.071C234.155 247.193 233.685 245.833 232.901 245.314C231.988 244.705 230.634 245.178 229.747 245.665Z" fill="white"/>
<path d="M232.789 243.457C232.649 243.447 232.505 243.443 232.379 243.508C232.233 243.58 232.145 243.732 232.069 243.874C231.728 244.494 231.379 245.149 231.369 245.867C231.354 246.936 232.165 247.944 233.18 248.245C233.281 248.276 233.385 248.301 233.48 248.275C233.615 248.244 233.721 248.139 233.834 248.052C234.151 247.828 234.572 247.806 234.913 247.615C235.775 247.133 236.085 245.73 235.683 244.871C235.217 243.859 233.803 243.528 232.792 243.451L232.789 243.457Z" fill="white"/>
<path d="M205.665 239.699C206.36 251.599 217.71 260.212 228.492 262.093C235.64 263.337 247.177 261.501 250.311 253.733C251.154 251.651 247.902 250.343 247.06 252.435C244.557 258.632 234.247 259.539 228.825 258.588C219.448 256.94 209.681 249.516 209.087 239.209C208.954 236.938 205.53 237.444 205.655 239.701L205.665 239.699Z" fill="white"/>
<path d="M225.076 225.139L225.07 225.136C223.766 224.541 222.254 225.123 221.692 226.437L220.405 229.445C219.843 230.758 220.444 232.305 221.747 232.9L221.754 232.903C223.057 233.498 224.569 232.915 225.131 231.602L226.418 228.594C226.98 227.281 226.379 225.734 225.076 225.139Z" fill="white"/>
<path d="M244.044 233.797L244.038 233.794C242.734 233.199 241.222 233.782 240.66 235.095L239.373 238.103C238.811 239.416 239.412 240.963 240.715 241.558L240.721 241.561C242.025 242.156 243.537 241.574 244.099 240.26L245.386 237.252C245.948 235.939 245.347 234.392 244.044 233.797Z" fill="white"/>
</g>
<g filter="url(#filter2_b_134_253)">
<path d="M17.3964 244.635C18.2163 240.709 21.9343 238.143 25.76 238.863L28.2573 239.334C30.7093 239.795 33.2327 238.906 34.915 236.988L36.6091 235.056C39.2221 232.077 43.645 231.754 46.5805 234.328L48.6264 236.122C50.4986 237.763 53.074 238.284 55.4366 237.5L57.9639 236.66C61.6356 235.44 65.5553 237.411 66.8398 241.122L67.7867 243.858C68.6055 246.224 70.5503 247.98 72.9405 248.513L75.6765 249.122C79.4093 249.954 81.8107 253.666 81.126 257.546L80.6242 260.391C80.1858 262.875 81.0126 265.403 82.8154 267.09L84.9001 269.041C87.728 271.687 87.9905 276.181 85.4945 279.218L83.7764 281.308C82.1703 283.263 81.6508 285.92 82.4026 288.334L83.2242 290.973C84.4031 294.759 82.4214 298.856 78.7564 300.209L76.3803 301.087C74.0208 301.958 72.26 304.026 71.7344 306.542L71.1992 309.105C70.3792 313.031 66.6612 315.597 62.8355 314.877L60.3383 314.407C57.8862 313.946 55.3628 314.835 53.6806 316.753L51.9864 318.684C49.3734 321.664 44.9505 321.987 42.0151 319.413L39.9692 317.619C38.097 315.977 35.5216 315.456 33.1589 316.241L30.6316 317.081C26.96 318.3 23.0403 316.33 21.7558 312.618L20.8089 309.883C19.99 307.517 18.0453 305.76 15.655 305.228L12.919 304.618C9.18621 303.787 6.78488 300.075 7.46952 296.194L7.97134 293.35C8.40975 290.865 7.58292 288.337 5.78014 286.651L3.69546 284.7C0.867515 282.054 0.605 277.56 3.10102 274.523L4.81911 272.432C6.42524 270.478 6.94478 267.821 6.19293 265.406L5.37133 262.768C4.19248 258.981 6.17419 254.884 9.8391 253.531L12.2153 252.654C14.5747 251.783 16.3356 249.715 16.8611 247.198L17.3964 244.635Z" fill="#6BB0FB"/>
<path d="M49.1373 273.803C50.1322 275.341 49.3077 278.763 47.0286 280.336C44.7494 281.909 41.6272 281.211 40.6323 279.673C39.6374 278.135 40.675 275.611 42.9542 274.038C45.2333 272.465 48.1386 272.26 49.1373 273.803Z" fill="white"/>
<path d="M45.9919 274.514C45.9795 274.676 45.9747 274.849 46.0409 274.99C46.1223 275.154 46.2903 275.259 46.4449 275.356C47.1303 275.758 47.8519 276.177 48.643 276.2C49.8285 276.239 50.9584 275.315 51.3081 274.14C51.3413 274.023 51.365 273.905 51.3484 273.789C51.3148 273.634 51.1948 273.513 51.1075 273.378C50.8587 273.006 50.8424 272.517 50.6378 272.123C50.113 271.118 48.5635 270.736 47.6031 271.186C46.4794 271.707 46.0926 273.341 45.9919 274.514Z" fill="white"/>
<path d="M47.1338 270.847C47.0499 270.769 46.9565 270.689 46.8475 270.662C46.7193 270.632 46.5887 270.688 46.4601 270.734C45.9244 270.951 45.3694 271.19 44.9913 271.637C44.4243 272.309 44.42 273.373 44.9082 274.089C44.9537 274.16 45.0089 274.232 45.0814 274.267C45.1808 274.317 45.3035 274.3 45.4165 274.307C45.7305 274.328 46.0128 274.532 46.3247 274.589C47.117 274.73 48.035 273.994 48.231 273.239C48.4583 272.352 47.732 271.41 47.1358 270.837L47.1338 270.847Z" fill="white"/>
<path d="M41.3387 273.589C41.2785 273.741 41.2162 273.903 41.2345 274.06C41.2564 274.249 41.3838 274.407 41.5056 274.544C42.0288 275.159 42.5806 275.805 43.3279 276.096C44.4479 276.537 45.8187 276.024 46.518 275.015C46.5875 274.917 46.6533 274.812 46.6674 274.692C46.6856 274.526 46.6118 274.373 46.5686 274.216C46.4524 273.779 46.5931 273.3 46.5191 272.85C46.3456 271.704 44.9869 270.817 43.9307 270.926C42.6925 271.05 41.803 272.487 41.3349 273.583L41.3387 273.589Z" fill="white"/>
<path d="M40.2094 272.967C40.0673 273.032 39.9174 273.11 39.8266 273.24C39.7166 273.392 39.7058 273.595 39.7028 273.784C39.6693 274.597 39.6433 275.447 39.9897 276.176C40.5025 277.265 41.8094 277.841 42.9699 277.583C43.0792 277.559 43.2001 277.526 43.2848 277.451C43.4062 277.341 43.4531 277.182 43.5267 277.037C43.7321 276.633 44.1396 276.385 44.3851 276.004C45.0094 275.046 44.6202 273.464 43.8002 272.816C42.8392 272.053 41.2696 272.49 40.219 272.969L40.2094 272.967Z" fill="white"/>
<path d="M41.3015 273.973C41.1718 273.875 41.0306 273.786 40.8698 273.77C40.684 273.753 40.5111 273.847 40.3439 273.937C39.6328 274.335 38.8967 274.758 38.4406 275.446C37.7622 276.475 37.9279 277.956 38.7253 278.867C38.8014 278.958 38.889 279.042 38.9999 279.085C39.1528 279.14 39.3159 279.096 39.4769 279.086C39.9195 279.061 40.3396 279.298 40.7877 279.32C41.9195 279.379 43.0758 278.199 43.2219 277.122C43.3959 275.855 42.2361 274.669 41.3015 273.973Z" fill="white"/>
<path d="M40.9651 275.479C40.7855 275.382 40.5849 275.291 40.378 275.306C40.1365 275.32 39.9306 275.479 39.7325 275.625C38.8916 276.273 38.0236 276.957 37.5659 277.926C36.887 279.38 37.3705 281.237 38.5695 282.252C38.6839 282.351 38.8098 282.442 38.9629 282.473C39.1638 282.512 39.3712 282.42 39.5783 282.379C40.1441 282.26 40.7271 282.478 41.3002 282.422C42.7608 282.28 44.0295 280.538 44.0223 279.134C44.005 277.482 42.2962 276.182 40.9651 275.479Z" fill="white"/>
<path d="M39.2897 281.287C39.2541 281.465 39.2262 281.654 39.2865 281.824C39.3563 282.022 39.5279 282.159 39.6919 282.283C40.3995 282.822 41.1529 283.38 42.0257 283.517C43.3386 283.714 44.7077 282.838 45.2379 281.58C45.2923 281.458 45.3333 281.328 45.3244 281.198C45.3063 281.015 45.1923 280.865 45.1089 280.71C44.8797 280.265 44.925 279.716 44.7457 279.245C44.2929 278.055 42.6184 277.428 41.4956 277.795C40.1809 278.227 39.5443 279.991 39.2897 281.287Z" fill="white"/>
<path d="M41.805 280.324C41.7122 280.465 41.6233 280.611 41.6146 280.778C41.6059 280.971 41.6949 281.147 41.7916 281.31C42.1955 282.024 42.6184 282.769 43.3017 283.205C44.3246 283.858 45.7647 283.62 46.649 282.755C46.7357 282.669 46.8186 282.578 46.8518 282.462C46.8987 282.302 46.8575 282.135 46.8413 281.968C46.8037 281.51 47.0323 281.064 47.0446 280.605C47.0801 279.435 45.9105 278.297 44.8517 278.196C43.6072 278.079 42.4717 279.329 41.805 280.324Z" fill="white"/>
<path d="M44.2854 281.99C44.3093 282.169 44.3427 282.35 44.4492 282.489C44.5766 282.647 44.7812 282.718 44.9686 282.775C45.7966 283.036 46.6743 283.296 47.5335 283.128C48.8223 282.875 49.8124 281.606 49.9063 280.268C49.9128 280.136 49.9194 280.004 49.8645 279.881C49.7927 279.718 49.6381 279.621 49.5085 279.498C49.1522 279.167 49.0231 278.644 48.7091 278.275C47.9101 277.324 46.1516 277.315 45.2279 278.029C44.1445 278.87 44.1147 280.707 44.2816 281.984L44.2854 281.99Z" fill="white"/>
<path d="M47.9579 276.34C47.8431 276.318 47.7225 276.299 47.6093 276.343C47.4807 276.39 47.3918 276.51 47.3088 276.627C46.9573 277.116 46.5903 277.632 46.4969 278.223C46.3576 279.117 46.9135 280.041 47.7199 280.385C47.7983 280.416 47.8862 280.448 47.9629 280.438C48.0798 280.425 48.1761 280.342 48.2818 280.286C48.572 280.128 48.9205 280.151 49.2238 280.026C49.9939 279.707 50.4124 278.561 50.1812 277.803C49.9162 276.916 48.7807 276.503 47.9522 276.344L47.9579 276.34Z" fill="white"/>
<path d="M46.9458 277.072C46.9373 277.214 46.9326 277.361 46.9912 277.491C47.0613 277.638 47.2121 277.729 47.3495 277.812C47.9509 278.161 48.5906 278.518 49.2878 278.538C50.3316 278.565 51.3172 277.74 51.6124 276.713C51.6417 276.616 51.6634 276.508 51.6449 276.402C51.6131 276.262 51.5103 276.155 51.4286 276.041C51.2102 275.717 51.1916 275.288 51.0078 274.939C50.5378 274.058 49.1758 273.733 48.3344 274.135C47.3509 274.602 47.0188 276.037 46.9458 277.072Z" fill="white"/>
<path d="M46.7567 273.231C46.6737 273.347 46.5944 273.47 46.5802 273.616C46.562 273.781 46.6396 273.94 46.7154 274.083C47.0412 274.715 47.3918 275.374 47.9737 275.77C48.84 276.361 50.0957 276.199 50.8815 275.478C50.9604 275.407 51.0356 275.33 51.0649 275.233C51.1116 275.099 51.0818 274.95 51.0712 274.804C51.0563 274.407 51.2615 274.027 51.2868 273.628C51.3502 272.616 50.3677 271.588 49.4507 271.473C48.375 271.333 47.3536 272.386 46.7529 273.225L46.7567 273.231Z" fill="white"/>
<path d="M29.2729 294.827C39.3776 300.653 52.4538 295.421 59.7203 287.045C64.5358 281.491 69.1625 270.448 64.472 263.519C63.2166 261.659 60.4187 263.786 61.683 265.65C65.4231 271.18 60.6882 280.651 57.0296 284.861C50.7001 292.139 39.4373 296.634 30.6894 291.581C28.7612 290.469 27.3561 293.726 29.2689 294.836L29.2729 294.827Z" fill="white"/>
<path d="M27.6722 270.048L27.6664 270.052C26.4873 270.866 26.1605 272.498 26.9365 273.697L28.7136 276.444C29.4895 277.644 31.0744 277.957 32.2534 277.143L32.2592 277.139C33.4383 276.325 33.7651 274.693 32.9891 273.494L31.212 270.747C30.4361 269.547 28.8512 269.234 27.6722 270.048Z" fill="white"/>
<path d="M44.8331 258.204L44.8273 258.208C43.6482 259.022 43.3214 260.654 44.0974 261.854L45.8745 264.601C46.6504 265.8 48.2353 266.113 49.4143 265.299L49.4201 265.295C50.5992 264.481 50.926 262.849 50.15 261.65L48.3729 258.903C47.597 257.703 46.0121 257.391 44.8331 258.204Z" fill="white"/>
</g>
<g filter="url(#filter3_b_134_253)">
<path d="M117.332 114.894C119.892 111.795 124.464 111.345 127.544 113.888L129.388 115.409C131.364 117.04 134.061 117.498 136.478 116.613L138.663 115.812C142.389 114.448 146.502 116.32 147.904 120.02L148.9 122.65C149.788 124.993 151.824 126.703 154.284 127.173L156.9 127.672C160.698 128.397 163.24 131.984 162.676 135.821L162.217 138.947C161.86 141.375 162.749 143.811 164.582 145.425L166.885 147.456C169.748 149.979 170.148 154.307 167.798 157.345L165.908 159.788C164.404 161.731 163.977 164.297 164.771 166.611L165.794 169.592C167.05 173.249 165.21 177.267 161.614 178.721L159.136 179.722C156.806 180.664 155.12 182.741 154.677 185.215L154.18 187.992C153.481 191.898 149.785 194.54 145.876 193.927L143.584 193.568C141.048 193.17 138.483 194.147 136.841 196.134L135.31 197.988C132.75 201.087 128.178 201.537 125.097 198.994L123.254 197.473C121.278 195.841 118.581 195.384 116.164 196.269L113.978 197.069C110.252 198.434 106.14 196.562 104.738 192.862L103.742 190.232C102.854 187.889 100.818 186.179 98.3578 185.709L95.7418 185.21C91.944 184.484 89.4019 180.898 89.9657 177.061L90.4252 173.934C90.7818 171.507 89.8925 169.071 88.0603 167.456L85.7568 165.426C82.8934 162.903 82.4938 158.574 84.8437 155.537L86.7341 153.094C88.2378 151.151 88.6652 148.585 87.8708 146.271L86.8475 143.29C85.5916 139.633 87.4316 135.615 91.0282 134.161L93.5056 133.16C95.8358 132.218 97.5221 130.141 97.9648 127.667L98.4619 124.89C99.1611 120.984 102.857 118.342 106.766 118.955L109.058 119.314C111.594 119.711 114.158 118.735 115.801 116.748L117.332 114.894Z" fill="#0073FE" fill-opacity="0.4"/>
</g>
<path d="M113.065 157.195C112.735 156.888 112.548 156.503 112.506 156.039C112.463 155.576 112.575 155.162 112.843 154.795L116.973 149.63L115.053 147.992L114.611 148.545C114.316 148.914 113.944 149.121 113.496 149.165C113.047 149.209 112.644 149.079 112.287 148.774C111.957 148.467 111.771 148.082 111.728 147.619C111.685 147.155 111.799 146.755 112.069 146.416L115.02 142.727C115.315 142.358 115.686 142.151 116.135 142.107C116.583 142.063 116.986 142.193 117.343 142.498C117.698 142.775 117.897 143.152 117.941 143.629C117.985 144.106 117.859 144.515 117.561 144.856L117.118 145.409L119.038 147.047L123.169 141.882C123.464 141.513 123.835 141.306 124.284 141.262C124.732 141.218 125.135 141.348 125.492 141.653C125.849 141.957 126.049 142.341 126.092 142.805C126.135 143.268 126.009 143.684 125.714 144.053L124.714 145.256L127.483 147.617L123.312 152.787C123.044 153.153 122.931 153.568 122.974 154.031C123.017 154.494 123.203 154.879 123.533 155.187C123.891 155.492 124.293 155.622 124.742 155.578C125.19 155.533 125.562 155.327 125.857 154.958L129.983 149.75L132.703 152.032L128.536 157.243C128.241 157.612 128.115 158.028 128.158 158.491C128.2 158.955 128.4 159.339 128.758 159.643C129.085 159.923 129.472 160.033 129.919 159.975C130.367 159.917 130.739 159.717 131.037 159.376L135.163 154.169L137.887 156.492C138.571 157.076 138.957 157.838 139.044 158.779C139.131 159.719 138.891 160.543 138.326 161.25L137.297 162.583L144.214 168.445C144.512 168.699 144.609 169.001 144.504 169.351C144.399 169.702 144.156 169.895 143.776 169.933L142.105 170.097C141.778 170.13 141.453 170.091 141.127 169.981C140.802 169.872 140.52 169.715 140.282 169.512L135.191 165.17L134.163 166.504C133.597 167.211 132.859 167.609 131.949 167.699C131.039 167.789 130.241 167.541 129.556 166.957L116.384 155.721L115.388 156.966C115.091 157.307 114.718 157.5 114.269 157.544C113.821 157.588 113.419 157.472 113.065 157.195Z" fill="white"/>
<defs>
<filter id="filter0_b_134_253" x="307.865" y="-33.1855" width="207.488" height="210.211" filterUnits="userSpaceOnUse" color-interpolation-filters="sRGB">
<feFlood flood-opacity="0" result="BackgroundImageFix"/>
<feGaussianBlur in="BackgroundImageFix" stdDeviation="30"/>
<feComposite in2="SourceAlpha" operator="in" result="effect1_backgroundBlur_134_253"/>
<feBlend mode="normal" in="SourceGraphic" in2="effect1_backgroundBlur_134_253" result="shape"/>
</filter>
<filter id="filter1_b_134_253" x="122.676" y="138.481" width="209.11" height="214.011" filterUnits="userSpaceOnUse" color-interpolation-filters="sRGB">
<feFlood flood-opacity="0" result="BackgroundImageFix"/>
<feGaussianBlur in="BackgroundImageFix" stdDeviation="30.3571"/>
<feComposite in2="SourceAlpha" operator="in" result="effect1_backgroundBlur_134_253"/>
<feBlend mode="normal" in="SourceGraphic" in2="effect1_backgroundBlur_134_253" result="shape"/>
</filter>
<filter id="filter2_b_134_253" x="-59.7931" y="171.878" width="212.914" height="216.184" filterUnits="userSpaceOnUse" color-interpolation-filters="sRGB">
<feFlood flood-opacity="0" result="BackgroundImageFix"/>
<feGaussianBlur in="BackgroundImageFix" stdDeviation="30.3571"/>
<feComposite in2="SourceAlpha" operator="in" result="effect1_backgroundBlur_134_253"/>
<feBlend mode="normal" in="SourceGraphic" in2="effect1_backgroundBlur_134_253" result="shape"/>
</filter>
<filter id="filter3_b_134_253" x="23.3145" y="52.2402" width="206.013" height="208.402" filterUnits="userSpaceOnUse" color-interpolation-filters="sRGB">
<feFlood flood-opacity="0" result="BackgroundImageFix"/>
<feGaussianBlur in="BackgroundImageFix" stdDeviation="30"/>
<feComposite in2="SourceAlpha" operator="in" result="effect1_backgroundBlur_134_253"/>
<feBlend mode="normal" in="SourceGraphic" in2="effect1_backgroundBlur_134_253" result="shape"/>
</filter>
<clipPath id="clip0_134_253">
<rect width="41.0399" height="40.2087" fill="white" transform="matrix(-0.417342 0.908749 -0.898011 -0.439974 437.475 61.748)"/>
</clipPath>
</defs>
</svg>
