<svg width="101" height="100" viewBox="0 0 101 100" fill="none" xmlns="http://www.w3.org/2000/svg">
<g clip-path="url(#clip0_873_22009)">
<path fill-rule="evenodd" clip-rule="evenodd" d="M40.6974 5.14795C40.965 11.0052 38.1986 13.5269 34.3051 14.8077C21.6398 16.9142 5.40544 19.8452 7.64821 41.6183C5.51931 59.1562 -1.12933 58.6105 1.2615 94.2261H16.0662L23.6248 61.8823L32.5103 94.8511H68.9881L77.8736 61.8823L85.4322 94.2261H100.237C102.628 58.6097 95.9791 59.1562 93.8502 41.6183C96.0945 19.8452 79.8601 16.9142 67.1953 14.8077C63.3017 13.5269 60.5351 11.0052 60.8029 5.14795H40.6974Z" fill="#FCDBCA"/>
<path d="M80.6063 42.1417C80.6106 41.7731 80.7601 41.4212 81.0222 41.1621C81.2843 40.9031 81.638 40.7578 82.0065 40.7578C82.3751 40.7578 82.7288 40.9031 82.9909 41.1621C83.253 41.4212 83.4025 41.7731 83.4068 42.1417C83.4068 43.3427 83.3803 44.4982 83.3272 45.6083C83.2816 46.7239 83.202 47.8348 83.1053 48.944V48.9497C82.8775 51.4315 82.5416 53.7881 82.1148 56.0479C81.8188 57.6133 80.3217 63.4649 79.223 67.6544L77.874 61.8825C78.4375 59.8389 78.9441 57.727 79.3598 55.5348C79.7752 53.3319 80.0996 51.0606 80.3168 48.6989C80.4078 47.6686 80.4818 46.6042 80.5273 45.4885C80.5786 44.3786 80.6052 43.263 80.607 42.1415L80.6063 42.1417Z" fill="#FAC8AC"/>
<path d="M56.7555 28.3437C56.7738 28.1605 56.828 27.9828 56.915 27.8206C57.002 27.6584 57.1201 27.5149 57.2626 27.3984C57.405 27.2818 57.569 27.1945 57.7452 27.1413C57.9214 27.0881 58.1064 27.0702 58.2895 27.0885C58.4727 27.1068 58.6504 27.161 58.8126 27.248C58.9748 27.335 59.1183 27.4531 59.2349 27.5956C59.3514 27.738 59.4388 27.9021 59.4919 28.0783C59.5451 28.2545 59.563 28.4394 59.5447 28.6226C59.1805 32.2316 59.6244 35.2939 60.7117 37.9294C61.7932 40.565 63.5242 42.8021 65.7209 44.7488C65.9948 44.9961 66.1601 45.3414 66.181 45.7099C66.2018 46.0783 66.0764 46.4401 65.8321 46.7167C65.5877 46.9933 65.2442 47.1623 64.876 47.1871C64.5078 47.2119 64.1446 47.0905 63.8654 46.8491C61.3551 44.6236 59.3732 42.0507 58.1162 38.9939C56.8639 35.9429 56.34 32.4314 56.7555 28.3437ZM49.3439 94.8521H52.1564V59.8437C52.1564 59.4707 52.0083 59.113 51.7446 58.8493C51.4808 58.5856 51.1232 58.4374 50.7502 58.4374C50.3772 58.4374 50.0195 58.5856 49.7558 58.8493C49.4921 59.113 49.3439 59.4707 49.3439 59.8437V94.8521ZM43.4525 64.1822C43.469 63.9978 43.5218 63.8186 43.6079 63.6548C43.694 63.491 43.8117 63.3458 43.9541 63.2278C44.0966 63.1097 44.2611 63.021 44.438 62.9668C44.615 62.9126 44.8009 62.894 44.9851 62.9121C45.1692 62.9301 45.348 62.9845 45.5111 63.072C45.6741 63.1595 45.8182 63.2785 45.9351 63.422C46.0519 63.5655 46.1392 63.7307 46.1918 63.9081C46.2445 64.0855 46.2614 64.2716 46.2418 64.4556C46.0084 66.7952 45.257 68.7134 44.1014 70.2954C42.9516 71.8665 41.4256 73.0847 39.6273 74.0409C39.2994 74.2036 38.921 74.2321 38.5725 74.1202C38.224 74.0084 37.9328 73.765 37.7609 73.4419C37.5889 73.1187 37.5497 72.7413 37.6516 72.3897C37.7535 72.0381 37.9885 71.7402 38.3066 71.5591C39.7519 70.7907 40.965 69.8404 41.8418 68.639C42.707 67.4493 43.2705 65.9921 43.4527 64.182L43.4525 64.1822ZM55.2582 64.4556C55.2385 64.2716 55.2555 64.0855 55.3082 63.9081C55.3608 63.7307 55.4481 63.5655 55.5649 63.422C55.6818 63.2785 55.8259 63.1595 55.9889 63.072C56.152 62.9845 56.3307 62.9301 56.5149 62.9121C56.6991 62.894 56.885 62.9126 57.062 62.9668C57.2389 63.021 57.4034 63.1097 57.5458 63.2278C57.6883 63.3458 57.806 63.491 57.8921 63.6548C57.9782 63.8186 58.031 63.9978 58.0475 64.1822C58.2297 65.9923 58.7932 67.4495 59.6641 68.6392C60.5406 69.8404 61.7475 70.7909 63.1934 71.5593C63.5225 71.7337 63.7688 72.0317 63.8782 72.3877C63.9876 72.7437 63.9511 73.1286 63.7768 73.4577C63.6024 73.7868 63.3044 74.0332 62.9484 74.1426C62.5923 74.252 62.2074 74.2155 61.8783 74.0411C60.074 73.0841 58.5484 71.8667 57.3986 70.2956C56.243 68.7136 55.4916 66.795 55.2582 64.4558V64.4556ZM49.3439 45.2734C49.3439 44.9004 49.4921 44.5427 49.7558 44.279C50.0195 44.0153 50.3772 43.8671 50.7502 43.8671C51.1232 43.8671 51.4808 44.0153 51.7446 44.279C52.0083 44.5427 52.1564 44.9004 52.1564 45.2734V54.3126C52.1564 54.6856 52.0083 55.0433 51.7446 55.307C51.4808 55.5707 51.1232 55.7189 50.7502 55.7189C50.3772 55.7189 50.0195 55.5707 49.7558 55.307C49.4921 55.0433 49.3439 54.6856 49.3439 54.3126V45.2734ZM41.9555 28.6234C41.9185 28.2535 42.0299 27.8841 42.2653 27.5964C42.5007 27.3087 42.8408 27.1263 43.2106 27.0893C43.5805 27.0523 43.9499 27.1638 44.2376 27.3991C44.5253 27.6345 44.7077 27.9746 44.7447 28.3445C45.1602 32.4316 44.6365 35.9437 43.3842 38.9946C42.1262 42.0515 40.1453 44.6243 37.6352 46.8499C37.3559 47.0913 36.9928 47.2127 36.6246 47.1879C36.2564 47.1631 35.9128 46.9941 35.6685 46.7175C35.4242 46.4409 35.2988 46.0791 35.3196 45.7107C35.3404 45.3422 35.5058 44.9968 35.7797 44.7495C37.9826 42.8029 39.7074 40.5657 40.7947 37.9302C41.8762 35.2947 42.3201 32.2323 41.9559 28.6234H41.9555Z" fill="#FAC8AC"/>
<path d="M20.9002 42.1417C20.8958 41.7731 20.7464 41.4212 20.4843 41.1621C20.2221 40.9031 19.8684 40.7578 19.4999 40.7578C19.1314 40.7578 18.7777 40.9031 18.5155 41.1621C18.2534 41.4212 18.104 41.7731 18.0996 42.1417C18.0996 43.3426 18.1223 44.4983 18.1736 45.6083C18.2248 46.7239 18.3007 47.8358 18.4014 48.944V48.9497C18.6232 51.4315 18.9592 53.7881 19.3859 56.0479C19.682 57.6133 21.1848 63.4649 22.2777 67.6544L23.6268 61.8825C23.0633 59.8389 22.5566 57.727 22.141 55.5348C21.7256 53.3319 21.4012 51.0606 21.1904 48.6989C21.0928 47.6686 21.0254 46.6042 20.9742 45.4885C20.9229 44.3786 20.8945 43.263 20.9002 42.1415V42.1417Z" fill="#FAC8AC"/>
<path fill-rule="evenodd" clip-rule="evenodd" d="M16.0672 94.2264L23.6266 61.883L21.2529 53.0771L11.6387 94.2264H16.0672Z" fill="#FAC8AC"/>
<path fill-rule="evenodd" clip-rule="evenodd" d="M56.1123 5.14795C58.5941 32.3513 92.6338 8.32412 89.0314 43.2747C91.1262 60.5403 97.6041 60.2831 95.5264 94.2261H100.239C102.63 58.6097 95.9816 59.1562 93.8527 41.6183C96.0947 19.8452 79.8604 16.9142 67.1955 14.8077C63.302 13.5269 60.5354 11.0052 60.8031 5.14795H56.1123Z" fill="#FAC8AC"/>
<path d="M24.6667 40.4998C23 44.9665 24.4167 53.7498 25.3333 57.5831C30.25 68.6665 34.1667 54.9165 41.6667 54.9165C49.1667 54.9165 49 44.0832 49.8333 37.6665C50.6667 31.2498 54 29.0832 47.25 22.5832C40.5 16.0832 32.4167 20.7498 31.9167 26.0832C31.5895 29.5728 26.75 34.9165 24.6667 40.4998Z" fill="#FF5761" fill-opacity="0.1"/>
<path d="M17.05 27.5313C15.5896 28.7598 14.4732 32.116 14.0975 33.6406C13.8589 38.5027 17.9008 34.4778 20.7056 35.9806C23.5104 37.4835 25.4785 33.6606 26.9928 31.583C28.507 29.5054 30.1597 29.4154 28.8536 25.7892C27.5475 22.1629 23.6499 22.1756 22.4634 23.9411C21.687 25.0962 18.8756 25.9957 17.05 27.5313Z" fill="#FF5761" fill-opacity="0.1"/>
<path d="M73.5462 34.7919C72.9172 32.9901 70.1772 30.7533 68.8858 29.8602C64.4262 27.9085 66.7511 33.1172 64.3492 35.2045C61.9474 37.2917 64.8207 40.4904 66.2241 42.6444C67.6276 44.7984 67.1241 46.3751 70.9777 46.4436C74.8314 46.5122 76.2053 42.8647 74.9772 41.128C74.1735 39.9916 74.3324 37.0441 73.5462 34.7919Z" fill="#FF5761" fill-opacity="0.1"/>
<circle cx="29.2502" cy="43.3332" r="2.66667" fill="#FF5761" fill-opacity="0.1"/>
<circle cx="29.2502" cy="43.3333" r="1.02564" fill="#FF5761"/>
<circle cx="34.4997" cy="53.0002" r="1.91667" fill="#FF5761" fill-opacity="0.1"/>
<circle cx="34.4999" cy="53.0004" r="0.73718" fill="#FF5761"/>
<circle cx="35.2454" cy="26.9958" r="1.16235" fill="#FF5761"/>
<circle cx="43.3058" cy="45.4653" r="1.16235" transform="rotate(71.9505 43.3058 45.4653)" fill="#FF5761"/>
<circle cx="43.2424" cy="48.826" r="0.78734" transform="rotate(71.9505 43.2424 48.826)" fill="#FF5761"/>
<circle cx="29.9094" cy="58.826" r="0.78734" transform="rotate(71.9505 29.9094 58.826)" fill="#FF5761"/>
<circle cx="31.9094" cy="57.326" r="0.78734" transform="rotate(71.9505 31.9094 57.326)" fill="#FF5761"/>
<circle cx="29.9711" cy="54.9762" r="1.37827" transform="rotate(71.9505 29.9711 54.9762)" fill="#FF5761"/>
<circle cx="36.7502" cy="30.1667" r="0.666667" fill="#FF5761"/>
<circle cx="33.5832" cy="42.6667" r="0.666667" fill="#FF5761"/>
<circle cx="40.7573" cy="47.878" r="0.666667" transform="rotate(71.9505 40.7573 47.878)" fill="#FF5761"/>
</g>
<defs>
<clipPath id="clip0_873_22009">
<rect width="100" height="100" fill="white" transform="translate(0.75)"/>
</clipPath>
</defs>
</svg>
