<svg width="24" height="24" viewBox="0 0 24 24" fill="none" xmlns="http://www.w3.org/2000/svg">
<path d="M9.02998 14.2681C8.67199 14.2681 8.37115 14.1463 8.12748 13.9026C7.88382 13.659 7.76198 13.3581 7.76198 13.0001C7.76198 12.6421 7.88382 12.3413 8.12748 12.0976C8.37115 11.854 8.67199 11.7321 9.02998 11.7321C9.38782 11.7321 9.68857 11.854 9.93223 12.0976C10.1759 12.3413 10.2977 12.6421 10.2977 13.0001C10.2977 13.3581 10.1759 13.659 9.93223 13.9026C9.68857 14.1463 9.38782 14.2681 9.02998 14.2681ZM14.97 14.2681C14.6122 14.2681 14.3114 14.1463 14.0677 13.9026C13.8241 13.659 13.7022 13.3581 13.7022 13.0001C13.7022 12.6421 13.8241 12.3413 14.0677 12.0976C14.3114 11.854 14.6122 11.7321 14.97 11.7321C15.328 11.7321 15.6288 11.854 15.8725 12.0976C16.1162 12.3413 16.238 12.6421 16.238 13.0001C16.238 13.3581 16.1162 13.659 15.8725 13.9026C15.6288 14.1463 15.328 14.2681 14.97 14.2681ZM12 19.9284C14.2095 19.9284 16.0842 19.1615 17.6242 17.6276C19.1642 16.094 19.9342 14.2221 19.9342 12.0121C19.9342 11.6121 19.9092 11.2275 19.8592 10.8584C19.8092 10.4892 19.7176 10.1317 19.5842 9.78587C19.2342 9.86921 18.8872 9.93171 18.5432 9.97338C18.1992 10.015 17.8356 10.0359 17.4522 10.0359C15.9474 10.0359 14.527 9.71387 13.191 9.06987C11.855 8.42587 10.714 7.52454 9.76798 6.36588C9.24265 7.64988 8.48807 8.76613 7.50423 9.71463C6.52057 10.663 5.3784 11.3788 4.07773 11.8621V12.0121C4.07773 14.2221 4.84573 16.094 6.38173 17.6276C7.91773 19.1615 9.79048 19.9284 12 19.9284ZM12.006 22.2034C10.5952 22.2034 9.26932 21.9359 8.02848 21.4009C6.78782 20.8659 5.70748 20.1385 4.78748 19.2186C3.86748 18.2986 3.14007 17.2182 2.60523 15.9774C2.07023 14.7364 1.80273 13.4105 1.80273 11.9996C1.80273 10.5888 2.07023 9.26304 2.60523 8.02238C3.14007 6.78188 3.86748 5.70163 4.78748 4.78163C5.70748 3.86179 6.7879 3.13437 8.02873 2.59937C9.26973 2.06437 10.5957 1.79688 12.0065 1.79688C13.4173 1.79688 14.7421 2.06437 15.9807 2.59937C17.2192 3.13437 18.2985 3.86179 19.2185 4.78163C20.1383 5.70163 20.8657 6.78204 21.4007 8.02287C21.9357 9.26387 22.2032 10.5898 22.2032 12.0006C22.2032 13.4115 21.9357 14.7372 21.4007 15.9779C20.8657 17.2184 20.1383 18.2986 19.2185 19.2186C18.2985 20.1385 17.2187 20.8659 15.9792 21.4009C14.7397 21.9359 13.4153 22.2034 12.006 22.2034Z" fill="#4196FD"/>
</svg>
