<svg width="46" height="57" viewBox="0 0 46 57" fill="none" xmlns="http://www.w3.org/2000/svg">
<ellipse cx="23" cy="54" rx="9" ry="3" fill="black" fill-opacity="0.2"/>
<circle cx="23" cy="23" r="23" fill="#333D4B"/>
<path d="M25.9394 24.0789C25.9394 25.0468 24.5909 26.288 23.1276 26.288C21.6643 26.288 20.4789 25.0468 20.4789 24.0789C20.4789 23.1111 21.6643 22.3242 23.1276 22.3242C24.5909 22.3242 25.9394 23.1074 25.9394 24.0789Z" fill="white"/>
<path d="M24.3391 23.4435C24.2872 23.51 24.2354 23.5839 24.2243 23.6651C24.2132 23.7612 24.2576 23.8572 24.2984 23.9459C24.4873 24.3264 24.6873 24.7253 25.0319 24.9729C25.5468 25.346 26.3136 25.2832 26.8063 24.8768C26.8545 24.8362 26.8989 24.7918 26.9249 24.7364C26.9545 24.6589 26.936 24.5702 26.936 24.4852C26.9323 24.2488 27.0657 24.0308 27.0879 23.7981C27.1434 23.2034 26.5655 22.5717 26.0099 22.4793C25.3616 22.3685 24.7207 22.9632 24.3391 23.4435Z" fill="white"/>
<path d="M25.8989 22.1912C25.884 22.1321 25.8655 22.0693 25.8248 22.025C25.7766 21.9732 25.7025 21.9585 25.6321 21.94C25.3321 21.8735 25.0172 21.8107 24.7208 21.892C24.2763 22.0139 23.9688 22.4756 23.9799 22.9337C23.9799 22.978 23.9836 23.0261 24.0058 23.063C24.0355 23.1147 24.0947 23.1443 24.1429 23.1812C24.2763 23.2847 24.343 23.4583 24.4652 23.5765C24.7764 23.8757 25.395 23.8314 25.6988 23.5617C26.0545 23.244 26.0026 22.616 25.9026 22.1875L25.8989 22.1912Z" fill="white"/>
<path d="M22.539 21.6444C22.4686 21.6924 22.3946 21.7441 22.3575 21.818C22.3131 21.9067 22.3242 22.0138 22.339 22.1098C22.3945 22.5347 22.4538 22.9817 22.702 23.3326C23.0725 23.8609 23.8282 24.0493 24.4283 23.8202C24.4876 23.7981 24.5469 23.7722 24.5876 23.7242C24.6432 23.6577 24.6543 23.569 24.6803 23.4878C24.7543 23.2624 24.9544 23.0962 25.0507 22.8782C25.3026 22.3278 24.9544 21.5335 24.4543 21.2639C23.869 20.9462 23.0614 21.3045 22.539 21.6407V21.6444Z" fill="white"/>
<path d="M22.2166 21.0349C22.1351 21.0201 22.0462 21.009 21.9684 21.0386C21.8758 21.0719 21.8128 21.1568 21.7572 21.2381C21.509 21.5816 21.2534 21.9437 21.1979 22.3648C21.1127 22.9928 21.5276 23.6356 22.1166 23.872C22.1722 23.8942 22.2351 23.9164 22.2944 23.909C22.3796 23.8979 22.4463 23.8425 22.5204 23.8018C22.7278 23.6873 22.9798 23.7021 23.1983 23.6097C23.7503 23.3807 24.0318 22.5754 23.854 22.0471C23.6466 21.4265 22.8242 21.1457 22.2203 21.0386L22.2166 21.0349Z" fill="white"/>
<path d="M22.4126 21.7997C22.3829 21.7184 22.3459 21.6371 22.2792 21.5817C22.2014 21.5189 22.0977 21.5078 21.9976 21.4967C21.5679 21.4561 21.1197 21.4192 20.7196 21.5817C20.1231 21.8255 19.7712 22.52 19.8638 23.1554C19.8712 23.2182 19.8861 23.281 19.9231 23.3327C19.975 23.4029 20.0602 23.4325 20.1343 23.4768C20.338 23.5987 20.4566 23.8277 20.6492 23.9718C21.1345 24.3375 21.9865 24.1713 22.3607 23.7465C22.8015 23.2478 22.6274 22.3833 22.4126 21.7997Z" fill="white"/>
<path d="M21.8314 22.3538C21.7795 22.2578 21.7166 22.158 21.6202 22.1026C21.5091 22.0361 21.372 22.0435 21.2424 22.0472C20.683 22.0767 20.1014 22.1137 19.6198 22.3981C18.9011 22.8267 18.5825 23.7798 18.8233 24.5814C18.8455 24.659 18.8752 24.7365 18.9344 24.7956C19.0122 24.8732 19.1308 24.8954 19.2345 24.9397C19.5198 25.0579 19.7161 25.3276 19.9865 25.4754C20.6756 25.8522 21.7388 25.4754 22.1389 24.8621C22.6056 24.1381 22.2204 23.0594 21.8314 22.3538Z" fill="white"/>
<path d="M19.4194 24.3783C19.3527 24.4448 19.286 24.5187 19.2638 24.6111C19.2379 24.7182 19.2749 24.829 19.3119 24.9324C19.4712 25.3794 19.6454 25.8486 19.9936 26.17C20.5196 26.6502 21.3791 26.6798 21.9755 26.2919C22.0348 26.255 22.0904 26.2106 22.1237 26.1515C22.1682 26.0666 22.1607 25.9668 22.1682 25.8745C22.1941 25.6122 22.3719 25.3868 22.4275 25.1282C22.5682 24.4744 22.0052 23.6986 21.4013 23.5213C20.6937 23.3144 19.9047 23.8907 19.4194 24.3783Z" fill="white"/>
<path d="M20.8128 24.7144C20.7313 24.7477 20.6498 24.7846 20.598 24.8548C20.5387 24.9361 20.5276 25.0395 20.5239 25.1393C20.4979 25.5715 20.472 26.0222 20.6498 26.4174C20.9166 27.0085 21.6241 27.3373 22.265 27.2265C22.328 27.2154 22.391 27.2006 22.4391 27.16C22.5058 27.1046 22.5354 27.0196 22.5762 26.942C22.691 26.7314 22.9207 26.6058 23.0578 26.4101C23.4097 25.9113 23.2171 25.0654 22.7762 24.7034C22.2576 24.2785 21.3944 24.4817 20.8128 24.7144Z" fill="white"/>
<path d="M21.4347 26.1844C21.394 26.2694 21.3569 26.358 21.3644 26.4504C21.3755 26.5575 21.4459 26.6499 21.5125 26.7311C21.8052 27.0931 22.1201 27.47 22.5498 27.6547C23.1944 27.9317 23.9983 27.6768 24.4243 27.1227C24.4651 27.0673 24.5058 27.0119 24.5169 26.9417C24.5317 26.8493 24.491 26.7607 24.4688 26.6683C24.4058 26.4171 24.4984 26.1511 24.4651 25.8962C24.3836 25.2424 23.6056 24.7104 22.9907 24.7437C22.2683 24.7843 21.7274 25.5749 21.4347 26.1807V26.1844Z" fill="white"/>
<path d="M24.6874 24.8289C24.6429 24.7846 24.5948 24.7403 24.5318 24.7255C24.4614 24.707 24.3873 24.7329 24.3169 24.7587C24.0206 24.8659 23.7094 24.9804 23.4982 25.2094C23.1796 25.5567 23.1611 26.1256 23.4204 26.5172C23.4463 26.5541 23.476 26.5947 23.513 26.6132C23.5686 26.6428 23.6353 26.6354 23.6983 26.6428C23.8724 26.6612 24.0205 26.7757 24.191 26.8127C24.6244 26.905 25.1393 26.5319 25.2542 26.133C25.3912 25.6675 25.006 25.1466 24.6837 24.8289H24.6874Z" fill="white"/>
<path d="M24.0282 24.8441C23.9837 24.9032 23.9392 24.966 23.9281 25.0399C23.917 25.1248 23.9578 25.2098 23.9948 25.2874C24.1615 25.6199 24.343 25.9671 24.6468 26.1851C25.1025 26.5101 25.7767 26.4473 26.2027 26.089C26.2435 26.0558 26.2842 26.0151 26.3064 25.9634C26.3324 25.8932 26.3176 25.8156 26.3139 25.7418C26.3102 25.5349 26.425 25.3428 26.4435 25.1359C26.488 24.6114 25.9767 24.0609 25.4877 23.9833C24.9172 23.891 24.3579 24.4156 24.0282 24.8441Z" fill="white"/>
<path d="M25.0471 23.1151C24.9768 23.141 24.9064 23.1706 24.8582 23.2297C24.8026 23.2962 24.7915 23.3885 24.7841 23.4735C24.7471 23.8466 24.7137 24.2382 24.8582 24.5854C25.0731 25.1026 25.6769 25.4092 26.2326 25.3316C26.2882 25.3243 26.3437 25.3132 26.3845 25.2799C26.4438 25.2356 26.4734 25.1617 26.5104 25.0952C26.6179 24.9179 26.8179 24.8145 26.9439 24.6482C27.2625 24.2271 27.1217 23.4846 26.7475 23.1595C26.3104 22.7753 25.5547 22.9267 25.0471 23.1115V23.1151Z" fill="white"/>
<path d="M11.0853 27.2623C13.8975 32.8314 21.2042 34.4811 26.8345 33.0189C30.5668 32.0482 35.7913 28.6328 35.6989 24.2096C35.6758 23.0233 33.8232 23.1086 33.8491 24.2992C33.9214 27.8283 29.1 30.5276 26.2674 31.2605C21.3681 32.5266 15.0781 31.1006 12.6462 26.2752C12.1095 25.2125 10.5506 26.2076 11.0809 27.2651L11.0853 27.2623Z" fill="white"/>
<path d="M17.4904 16H17.4866C16.7296 16 16.116 16.612 16.116 17.3668V19.0957C16.116 19.8506 16.7296 20.4625 17.4866 20.4625H17.4904C18.2474 20.4625 18.861 19.8506 18.861 19.0957V17.3668C18.861 16.612 18.2474 16 17.4904 16Z" fill="white"/>
<path d="M28.5078 16H28.5041C27.7471 16 27.1334 16.612 27.1334 17.3668V19.0957C27.1334 19.8506 27.7471 20.4625 28.5041 20.4625H28.5078C29.2648 20.4625 29.8785 19.8506 29.8785 19.0957V17.3668C29.8785 16.612 29.2648 16 28.5078 16Z" fill="white"/>
<path d="M23 53L16.9378 42.5L29.0622 42.5L23 53Z" fill="#333D4B"/>
</svg>
