<svg width="40" height="40" viewBox="0 0 40 40" fill="none" xmlns="http://www.w3.org/2000/svg">
<rect width="40" height="40" rx="20" fill="#F9FAFB"/>
<path d="M15.0728 25.9616C15.3864 25.9616 15.649 25.8555 15.8606 25.6434C16.0721 25.4314 16.1778 25.1685 16.1778 24.855C16.1778 24.5415 16.0718 24.2789 15.8597 24.0672C15.6476 23.8557 15.3848 23.75 15.0713 23.75C14.7577 23.75 14.4952 23.856 14.2838 24.0681C14.0721 24.2802 13.9663 24.543 13.9663 24.8566C13.9663 25.1701 14.0723 25.4326 14.2844 25.6441C14.4967 25.8557 14.7595 25.9616 15.0728 25.9616ZM15.0728 21.1056C15.3864 21.1056 15.649 20.9996 15.8606 20.7875C16.0721 20.5754 16.1778 20.3126 16.1778 19.9991C16.1778 19.6855 16.0718 19.423 15.8597 19.2116C15.6476 19.0001 15.3848 18.8944 15.0713 18.8944C14.7577 18.8944 14.4952 19.0004 14.2838 19.2125C14.0721 19.4246 13.9663 19.6874 13.9663 20.0009C13.9663 20.3145 14.0723 20.577 14.2844 20.7884C14.4967 20.9999 14.7595 21.1056 15.0728 21.1056ZM15.0728 16.25C15.3864 16.25 15.649 16.144 15.8606 15.9319C16.0721 15.7198 16.1778 15.457 16.1778 15.1434C16.1778 14.8299 16.0718 14.5674 15.8597 14.3559C15.6476 14.1443 15.3848 14.0384 15.0713 14.0384C14.7577 14.0384 14.4952 14.1445 14.2838 14.3566C14.0721 14.5686 13.9663 14.8315 13.9663 15.145C13.9663 15.4585 14.0723 15.7211 14.2844 15.9328C14.4967 16.1443 14.7595 16.25 15.0728 16.25ZM19.8078 25.7931H25.0481C25.3138 25.7931 25.5364 25.7032 25.7159 25.5234C25.8957 25.3439 25.9856 25.1211 25.9856 24.8553C25.9856 24.5897 25.8957 24.3671 25.7159 24.1875C25.5364 24.0081 25.3138 23.9184 25.0481 23.9184H19.8078C19.5422 23.9184 19.3195 24.0082 19.1397 24.1878C18.9601 24.3676 18.8703 24.5904 18.8703 24.8563C18.8703 25.1219 18.9601 25.3445 19.1397 25.5241C19.3195 25.7034 19.5422 25.7931 19.8078 25.7931ZM19.8078 20.9375H25.0481C25.3138 20.9375 25.5364 20.8476 25.7159 20.6678C25.8957 20.488 25.9856 20.2653 25.9856 19.9997C25.9856 19.7339 25.8957 19.5113 25.7159 19.3319C25.5364 19.1523 25.3138 19.0625 25.0481 19.0625H19.8078C19.5422 19.0625 19.3195 19.1524 19.1397 19.3322C18.9601 19.512 18.8703 19.7347 18.8703 20.0003C18.8703 20.2661 18.9601 20.4888 19.1397 20.6681C19.3195 20.8477 19.5422 20.9375 19.8078 20.9375ZM19.8078 16.0816H25.0481C25.3138 16.0816 25.5364 15.9918 25.7159 15.8122C25.8957 15.6324 25.9856 15.4096 25.9856 15.1438C25.9856 14.8781 25.8957 14.6555 25.7159 14.4759C25.5364 14.2966 25.3138 14.2069 25.0481 14.2069H19.8078C19.5422 14.2069 19.3195 14.2968 19.1397 14.4766C18.9601 14.6561 18.8703 14.8789 18.8703 15.1447C18.8703 15.4103 18.9601 15.6329 19.1397 15.8125C19.3195 15.9919 19.5422 16.0816 19.8078 16.0816ZM11.6347 30.625C11.0032 30.625 10.4688 30.4063 10.0313 29.9688C9.59375 29.5313 9.375 28.9968 9.375 28.3653V11.6347C9.375 11.0032 9.59375 10.4688 10.0313 10.0313C10.4688 9.59375 11.0032 9.375 11.6347 9.375H28.3653C28.9968 9.375 29.5313 9.59375 29.9688 10.0313C30.4063 10.4688 30.625 11.0032 30.625 11.6347V28.3653C30.625 28.9968 30.4063 29.5313 29.9688 29.9688C29.5313 30.4063 28.9968 30.625 28.3653 30.625H11.6347Z" fill="#86D37F"/>
</svg>
