<svg width="36" height="36" viewBox="0 0 36 36" fill="none" xmlns="http://www.w3.org/2000/svg">
<path d="M17.985 2.95166C19.5195 2.95166 20.94 3.73316 21.753 4.99016L21.9075 5.24816L32.5575 23.6232L32.6505 23.8122C32.9165 24.4702 33.0232 25.1817 32.9617 25.8888C32.9002 26.5959 32.6724 27.2784 32.2967 27.8806C31.9211 28.4828 31.4084 28.9876 30.8004 29.3538C30.1924 29.72 29.5064 29.9372 28.7985 29.9877L28.5 29.9997H7.49998L7.42648 29.9952L7.25848 29.9982C6.59039 29.9638 5.93836 29.7809 5.34986 29.4627C4.76136 29.1446 4.25119 28.6993 3.85648 28.1592L3.69298 27.9192C3.33575 27.3579 3.10741 26.7244 3.02441 26.0643C2.94141 25.4042 3.00582 24.7339 3.21298 24.1017L3.32098 23.8107L3.41098 23.6232L14.049 5.27366C14.4381 4.5702 15.0085 3.98381 15.7009 3.57546C16.3934 3.16711 17.1826 2.95171 17.9865 2.95166H17.985ZM18.015 20.9997L17.8245 21.0102C17.4599 21.0535 17.1239 21.2291 16.8801 21.5036C16.6363 21.7781 16.5017 22.1325 16.5017 22.4997C16.5017 22.8668 16.6363 23.2212 16.8801 23.4957C17.1239 23.7702 17.4599 23.9458 17.8245 23.9892L18 23.9997L18.1905 23.9892C18.5551 23.9458 18.8911 23.7702 19.1349 23.4957C19.3787 23.2212 19.5133 22.8668 19.5133 22.4997C19.5133 22.1325 19.3787 21.7781 19.1349 21.5036C18.8911 21.2291 18.5551 21.0535 18.1905 21.0102L18.015 20.9997ZM18 11.9997C17.6326 11.9997 17.278 12.1346 17.0034 12.3787C16.7289 12.6229 16.5535 12.9593 16.5105 13.3242L16.5 13.4997V16.4997L16.5105 16.6752C16.5538 17.0397 16.7294 17.3757 17.0039 17.6195C17.2784 17.8633 17.6328 17.998 18 17.998C18.3671 17.998 18.7215 17.8633 18.996 17.6195C19.2705 17.3757 19.4461 17.0397 19.4895 16.6752L19.5 16.4997V13.4997L19.4895 13.3242C19.4465 12.9593 19.2711 12.6229 18.9965 12.3787C18.722 12.1346 18.3674 11.9997 18 11.9997Z" fill="#FF5761"/>
</svg>
