<svg width="46" height="57" viewBox="0 0 46 57" fill="none" xmlns="http://www.w3.org/2000/svg">
<ellipse cx="23" cy="54" rx="9" ry="3" fill="black" fill-opacity="0.2"/>
<circle cx="23" cy="23" r="23" fill="#4196FD"/>
<g clip-path="url(#clip0_2252_25957)">
<path fill-rule="evenodd" clip-rule="evenodd" d="M28.1096 19.1825C27.3465 21.3336 27.8827 23.7317 29.4901 25.3527C30.594 26.4659 31.2137 27.9706 31.2137 29.5381V29.54C31.2137 30.8239 30.7983 32.0736 30.0291 33.102L28.9102 34.5988C28.7214 34.8513 28.4246 35 28.1093 35H22.3718C21.8195 35 21.3718 34.5523 21.3718 34V33.5558C21.3697 33.5558 21.3676 33.5559 21.3655 33.556C21.3633 33.5561 21.3612 33.5563 21.3591 33.5563C17.7291 33.5563 14.7863 30.6134 14.7863 26.9834C14.7863 23.3825 17.6823 20.4589 21.2715 20.412C21.004 20.3694 20.2244 20.0069 19.5141 19.3094C18.0987 17.9195 19.7067 16.0387 21.3334 14.9032C22.3003 14.2282 23.2519 13.2255 23.7976 11.7483C23.9568 11.3173 24.3499 11 24.8094 11H28.5998C29.152 11 29.5998 11.4477 29.5998 12V13.2898C29.5998 14.4106 29.408 15.5234 29.0335 16.5795L28.1096 19.1825ZM19.925 24C18.8618 24 18 24.8206 18 25.8332C18 26.8945 18.6347 27.8958 19.6844 28.8124C20.0426 29.125 20.4284 29.3994 20.8109 29.6457C20.945 29.7317 21.0704 29.8097 21.1828 29.8747C21.2135 29.8924 21.2395 29.908 21.2614 29.9211C21.2884 29.9373 21.3093 29.9497 21.325 29.958C21.4307 30.014 21.5693 30.014 21.675 29.958C21.6907 29.9497 21.7116 29.9373 21.7386 29.9211C21.7605 29.908 21.7865 29.8924 21.8172 29.8747C21.9296 29.8097 22.055 29.7317 22.1891 29.6457C22.5716 29.3994 22.9574 29.125 23.3156 28.8124C24.3653 27.8958 25 26.8945 25 25.8332C25 24.8206 24.1382 24 23.075 24C22.4712 24 21.8816 24.3133 21.5109 24.7706C21.1494 24.3053 20.562 24 19.925 24Z" fill="white"/>
</g>
<path d="M23 53L16.9378 42.5L29.0622 42.5L23 53Z" fill="#4196FD"/>
<defs>
<clipPath id="clip0_2252_25957">
<rect width="24" height="24" fill="white" transform="translate(11 11)"/>
</clipPath>
</defs>
</svg>
