<svg width="101" height="100" viewBox="0 0 101 100" fill="none" xmlns="http://www.w3.org/2000/svg">
<path d="M92.3106 51.9346C93.2391 48.5766 89.9098 44.7298 84.8745 43.3425C79.8392 41.9552 75.0046 43.5527 74.0762 46.9106C73.1477 50.2686 76.4769 54.1154 81.5122 55.5027C86.5475 56.89 91.3821 55.2925 92.3106 51.9346Z" fill="#FFC8CB"/>
<path d="M85.5905 21.8055C76.1714 19.8463 71.3839 21.9618 67.8511 20.3952C64.3191 18.8279 59.2178 13.5 50.8975 13.5H50.6035C42.2833 13.5 37.1812 18.8279 33.6492 20.3952C30.1172 21.9625 25.3289 19.8463 15.9098 21.8055C6.49135 23.7639 -0.102194 32.2264 0.839437 38.2594C1.78107 44.2924 7.19704 49.2285 6.72658 52.5979C6.25541 55.9673 8.92443 56.8288 9.31695 55.34C11.986 58.9442 15.2041 59.1013 17.0874 57.0636C18.9713 55.0267 13.1628 53.7727 11.75 51.4224C10.3372 49.0722 12.7703 46.4079 15.9098 44.3709C19.0493 42.334 16.0671 40.7667 13.1628 42.5688C10.2586 44.3709 5.78495 41.5503 6.25541 36.4573C6.72658 31.3642 13.0055 26.0364 26.8983 27.917C32.2619 29.6406 35.1923 34.3418 35.5062 40.7144C35.8201 47.0869 37.9131 64.2198 41.2623 69.6523C44.6115 75.0849 44.7156 73.9356 44.2976 78.9501C43.8789 83.9646 42.9372 85.6883 45.2392 85.6883H56.2604C58.5631 85.6883 57.6207 83.9646 57.202 78.9501C56.7833 73.9356 56.8881 75.0849 60.2373 69.6523C63.5865 64.2198 65.6795 47.0869 65.9934 40.7144C66.3073 34.3418 69.2377 29.6406 74.6013 27.917C88.4941 26.0364 94.7737 31.3642 95.2442 36.4573C95.7154 41.5503 91.241 44.3709 88.3368 42.5688C85.4325 40.7667 82.4496 42.334 85.5898 44.3709C88.7293 46.4079 91.1624 49.0722 89.7496 51.4224C88.3368 53.7727 82.5283 55.0267 84.4122 57.0636C86.2962 59.1006 89.5143 58.9442 92.1826 55.34C92.5752 56.8288 95.2435 55.9666 94.773 52.5979C94.3018 49.2292 99.7178 44.2924 100.66 38.2594C101.602 32.2264 95.009 23.7639 85.5898 21.8055H85.5905Z" fill="#FF5761"/>
<path d="M19.9834 55.5056C25.0187 54.1183 28.3479 50.2715 27.4195 46.9136C26.491 43.5556 21.6564 41.9581 16.6211 43.3454C11.5858 44.7328 8.25658 48.5796 9.18505 51.9375C10.1135 55.2955 14.9481 56.893 19.9834 55.5056Z" fill="#FFC8CB"/>
<path d="M56.2609 85.6884C56.2609 85.6884 55.9995 84.3304 55.4234 83.9647C55.4234 83.9647 56.156 82.1365 54.6908 81.2488C54.6908 81.2488 55.5283 79.2119 54.5859 78.1149C54.5859 78.1149 55.4758 77.1749 54.6908 75.399C55.4758 74.2497 55.1095 73.78 53.8009 72.5784C53.8009 72.5784 58.458 69.6531 57.7254 68.0865C56.9928 66.5192 55.6324 68.8178 53.0683 68.9225C50.5041 69.0272 51.394 54.5579 51.9694 51.3716C54.321 50.2796 56.5436 46.9632 58.13 44.045C59.6654 41.2216 60.5326 38.0869 60.7019 34.8788C60.7041 34.8399 60.7062 34.8003 60.7083 34.7606C60.9173 30.7907 65.7318 28.1788 71.3305 27.1865C76.9293 26.1942 79.7556 24.3136 75.6738 23.8432C71.592 23.3729 60.0799 27.9178 51.4465 27.9178H49.6192C40.9851 27.9178 29.4729 23.3736 25.3918 23.8432C21.31 24.3136 24.1363 26.1935 29.7351 27.1865C35.3339 28.1788 40.1483 30.7907 40.3573 34.7606C40.3594 34.8003 40.3616 34.8399 40.3637 34.8788C40.5323 38.0869 41.4003 41.2216 42.9356 44.045C44.522 46.9632 46.7454 50.2796 49.0963 51.3716C49.6716 54.5579 50.5615 69.0272 47.9974 68.9225C45.4332 68.8178 44.0728 66.5199 43.3402 68.0865C42.6076 69.6538 47.2647 72.5784 47.2647 72.5784C45.9568 73.78 45.5905 74.2497 46.3748 75.399C45.5898 77.1749 46.4797 78.1149 46.4797 78.1149C45.5381 79.2119 46.3748 81.2488 46.3748 81.2488C44.9096 82.1372 45.6422 83.9647 45.6422 83.9647C45.0669 84.3304 44.8047 85.6884 44.8047 85.6884C48.2673 86.8766 55.1485 86.6941 56.2602 85.6884H56.2609Z" fill="#F3343F"/>
<path d="M18.3599 50.6195C18.1244 50.8062 17.9429 51.0522 17.834 51.3323C17.7251 51.6124 17.6928 51.9165 17.7404 52.2132C17.7942 52.4605 17.9078 52.6909 18.0712 52.8841C18.2346 53.0774 18.4429 53.2277 18.6779 53.3218C18.7572 53.3523 18.8284 53.4006 18.886 53.4631C18.9436 53.5255 18.986 53.6004 19.0099 53.682L19.3708 54.9687C19.439 55.2072 19.4366 55.4603 19.3638 55.6975C19.291 55.9346 19.151 56.1455 18.9607 56.3046C18.7028 56.5172 18.4617 56.7494 18.2396 56.9992C17.7569 57.543 17.3673 58.1628 17.0865 58.8335C16.9881 59.0657 16.8233 59.2637 16.6129 59.4026C16.4025 59.5416 16.1558 59.6154 15.9036 59.6148H14.5599C14.4858 59.6143 14.4129 59.5967 14.3467 59.5634C14.2806 59.53 14.2231 59.4818 14.1786 59.4226C13.9991 59.1891 13.7484 59.0205 13.4645 58.9423C13.1805 58.864 12.8788 58.8805 12.6051 58.9891C12.3313 59.0977 12.1004 59.2926 11.9473 59.5442C11.7943 59.7958 11.7274 60.0905 11.7568 60.3835C11.7771 60.6307 11.867 60.8671 12.016 61.0653C12.1651 61.2636 12.3672 61.4156 12.599 61.5038C12.8241 61.5934 13.069 61.6212 13.3085 61.5845C13.548 61.5479 13.7734 61.448 13.9615 61.2952C14.0179 61.2489 14.0843 61.2163 14.1555 61.2002C14.2267 61.184 14.3007 61.1848 14.3716 61.2023L15.6849 61.5218C15.9282 61.5797 16.1492 61.7075 16.3206 61.8895C16.4921 62.0715 16.6065 62.2997 16.6497 62.546C16.8057 63.4788 17.1583 64.3678 17.6841 65.1538C17.825 65.3682 17.8983 65.6199 17.8944 65.8763C17.8905 66.1328 17.8096 66.3822 17.6622 66.5921L17.2833 67.139C17.2253 67.2215 17.149 67.2895 17.0604 67.3376C16.9717 67.3857 16.8732 67.4126 16.7724 67.4163C16.4061 67.433 16.0531 67.5584 15.7584 67.7767C15.4638 67.995 15.2409 68.2961 15.1183 68.6417C14.9957 68.9873 14.9789 69.3616 15.0701 69.7167C15.1613 70.0719 15.3563 70.3918 15.6303 70.6356C15.9042 70.8793 16.2446 71.0359 16.6079 71.0852C16.9713 71.1345 17.3411 71.0744 17.6701 70.9125C17.9991 70.7506 18.2723 70.4942 18.4549 70.1762C18.6375 69.8582 18.7211 69.493 18.695 69.1273C18.686 69.0258 18.7006 68.9236 18.7377 68.8287C18.7749 68.7338 18.8336 68.6488 18.9091 68.5804L19.6208 67.9507C19.8016 67.7946 20.0212 67.6904 20.2564 67.6491C20.4917 67.6079 20.7337 67.6311 20.9568 67.7163C21.9409 68.075 22.9954 68.1979 24.0357 68.0749C24.2781 68.0501 24.5226 68.0946 24.7407 68.2034C24.9588 68.3121 25.1416 68.4805 25.2677 68.689L26.0677 69.9749C26.1072 70.0379 26.1316 70.1093 26.1389 70.1833C26.1462 70.2573 26.1363 70.332 26.1099 70.4015C26.001 70.6837 25.9874 70.9938 26.0711 71.2844C26.1548 71.5751 26.3313 71.8304 26.5736 72.0115C26.8159 72.1925 27.1107 72.2894 27.4132 72.2873C27.7157 72.2852 28.0092 72.1843 28.249 71.9999C28.4528 71.8488 28.6098 71.6431 28.7019 71.4066C28.7939 71.1701 28.8173 70.9124 28.7693 70.6632C28.7259 70.4191 28.618 70.191 28.4569 70.0026C28.2958 69.8141 28.0873 69.6722 27.8529 69.5913C27.7824 69.5668 27.7185 69.5263 27.6662 69.4731C27.6139 69.4198 27.5746 69.3552 27.5513 69.2843L27.1216 67.9695C27.0406 67.7246 27.0351 67.461 27.1059 67.213C27.1767 66.965 27.3204 66.744 27.5185 66.5788C27.7794 66.364 28.0228 66.1289 28.2466 65.8757C28.7247 65.3372 29.1116 64.7242 29.3919 64.0609C29.49 63.8338 29.6517 63.64 29.8576 63.5031C30.0636 63.3661 30.3048 63.2917 30.5521 63.289L31.9036 63.2656C31.9843 63.2646 32.064 63.2823 32.1367 63.3172C32.2093 63.3522 32.2729 63.4035 32.3224 63.4671C32.5214 63.7186 32.7971 63.8984 33.1076 63.979C33.418 64.0596 33.7463 64.0366 34.0426 63.9137C34.3388 63.7908 34.5869 63.5745 34.7491 63.2978C34.9112 63.021 34.9787 62.699 34.9411 62.3804C34.8921 62.0987 34.7688 61.8351 34.584 61.6169C34.3991 61.3987 34.1594 61.2337 33.8896 61.139C33.6564 61.0713 33.4101 61.0621 33.1726 61.1124C32.935 61.1627 32.7136 61.2709 32.5279 61.4273C32.4672 61.4785 32.3955 61.5149 32.3183 61.5336C32.2412 61.5523 32.1607 61.5528 32.0833 61.5351L30.8076 61.2452C30.5646 61.193 30.3422 61.0707 30.1681 60.8933C29.9939 60.716 29.8757 60.4915 29.8279 60.2476C29.6873 59.4673 29.4087 58.7184 29.0052 58.0359C28.8777 57.8287 28.8126 57.5892 28.8177 57.3461C28.8228 57.1029 28.898 56.8663 29.0341 56.6648L30.1279 55.0859C30.1767 55.0161 30.2411 54.9587 30.3159 54.918C30.3908 54.8773 30.474 54.8546 30.5591 54.8515C30.8195 54.8403 31.0732 54.7651 31.2976 54.6325C31.5221 54.4999 31.7103 54.314 31.8458 54.0913C31.9909 53.8203 32.0611 53.5156 32.0493 53.2084C32.0375 52.9012 31.9441 52.6028 31.7786 52.3437C31.5769 52.0643 31.2896 51.8584 30.9603 51.757C30.6309 51.6556 30.2775 51.6644 29.9536 51.782C29.6297 51.8995 29.353 52.1195 29.1653 52.4085C28.9777 52.6975 28.8894 53.0398 28.9138 53.3835C28.9215 53.4706 28.9088 53.5583 28.8768 53.6396C28.8448 53.721 28.7944 53.7938 28.7294 53.8523L27.3177 55.1023C27.136 55.2658 26.9112 55.3738 26.67 55.4135C26.4287 55.4531 26.1812 55.4226 25.9568 55.3257C24.8991 54.8575 23.7382 54.6715 22.5872 54.7859C22.3401 54.8089 22.0916 54.7597 21.8719 54.6442C21.6522 54.5286 21.4708 54.3518 21.3497 54.1351L20.6958 52.9788C20.6546 52.9049 20.631 52.8224 20.6271 52.7378C20.6232 52.6532 20.6389 52.5688 20.6732 52.4913C20.8058 52.1815 20.8338 51.8368 20.7527 51.5096C20.6717 51.1824 20.4861 50.8906 20.2241 50.6785C19.9622 50.4664 19.6381 50.3456 19.3013 50.3344C18.9644 50.3231 18.633 50.4221 18.3575 50.6163L18.3599 50.6195Z" fill="#49B340"/>
<path d="M22.2325 65.7883C22.8957 65.7883 23.4333 65.2507 23.4333 64.5875C23.4333 63.9243 22.8957 63.3867 22.2325 63.3867C21.5693 63.3867 21.0317 63.9243 21.0317 64.5875C21.0317 65.2507 21.5693 65.7883 22.2325 65.7883Z" fill="#86D37F"/>
<path d="M19.871 60.7757C20.4073 60.7757 20.8421 60.3409 20.8421 59.8046C20.8421 59.2683 20.4073 58.8335 19.871 58.8335C19.3347 58.8335 18.8999 59.2683 18.8999 59.8046C18.8999 60.3409 19.3347 60.7757 19.871 60.7757Z" fill="#86D37F"/>
<path d="M26.4613 59.3914C26.9308 59.3914 27.3113 59.0108 27.3113 58.5414C27.3113 58.072 26.9308 57.6914 26.4613 57.6914C25.9919 57.6914 25.6113 58.072 25.6113 58.5414C25.6113 59.0108 25.9919 59.3914 26.4613 59.3914Z" fill="#86D37F"/>
<path d="M23.5654 61.3311C23.9473 61.3311 24.2568 61.0215 24.2568 60.6396C24.2568 60.2578 23.9473 59.9482 23.5654 59.9482C23.1836 59.9482 22.874 60.2578 22.874 60.6396C22.874 61.0215 23.1836 61.3311 23.5654 61.3311Z" fill="#86D37F"/>
<path d="M26.724 64.0711C27.0964 64.0711 27.3982 63.7692 27.3982 63.3969C27.3982 63.0245 27.0964 62.7227 26.724 62.7227C26.3517 62.7227 26.0498 63.0245 26.0498 63.3969C26.0498 63.7692 26.3517 64.0711 26.724 64.0711Z" fill="#86D37F"/>
<path d="M67.3599 72.6195C67.1244 72.8062 66.9429 73.0522 66.834 73.3323C66.7251 73.6124 66.6928 73.9165 66.7404 74.2132C66.7942 74.4605 66.9078 74.6909 67.0712 74.8841C67.2346 75.0774 67.4429 75.2277 67.6779 75.3218C67.7572 75.3523 67.8284 75.4006 67.886 75.4631C67.9436 75.5255 67.986 75.6004 68.0099 75.682L68.3708 76.9687C68.439 77.2072 68.4366 77.4603 68.3638 77.6975C68.291 77.9346 68.151 78.1455 67.9607 78.3046C67.7028 78.5172 67.4617 78.7494 67.2396 78.9992C66.7569 79.543 66.3673 80.1628 66.0865 80.8335C65.9881 81.0657 65.8233 81.2637 65.6129 81.4026C65.4025 81.5416 65.1558 81.6154 64.9036 81.6148H63.5599C63.4858 81.6143 63.4129 81.5967 63.3467 81.5634C63.2806 81.53 63.2231 81.4818 63.1786 81.4226C62.9991 81.1891 62.7484 81.0205 62.4645 80.9423C62.1805 80.864 61.8788 80.8805 61.6051 80.9891C61.3313 81.0977 61.1004 81.2926 60.9473 81.5442C60.7943 81.7958 60.7274 82.0905 60.7568 82.3835C60.7771 82.6307 60.867 82.8671 61.016 83.0653C61.1651 83.2636 61.3672 83.4156 61.599 83.5038C61.8241 83.5934 62.069 83.6212 62.3085 83.5845C62.548 83.5479 62.7734 83.448 62.9615 83.2952C63.0179 83.2489 63.0843 83.2163 63.1555 83.2002C63.2267 83.184 63.3007 83.1848 63.3716 83.2023L64.6849 83.5218C64.9282 83.5797 65.1492 83.7075 65.3206 83.8895C65.4921 84.0715 65.6065 84.2997 65.6497 84.546C65.8057 85.4788 66.1583 86.3678 66.6841 87.1538C66.825 87.3682 66.8983 87.6199 66.8944 87.8763C66.8905 88.1328 66.8096 88.3822 66.6622 88.5921L66.2833 89.139C66.2253 89.2215 66.149 89.2895 66.0604 89.3376C65.9717 89.3857 65.8732 89.4126 65.7724 89.4163C65.4061 89.433 65.0531 89.5584 64.7584 89.7767C64.4638 89.995 64.2409 90.2961 64.1183 90.6417C63.9957 90.9873 63.9789 91.3616 64.0701 91.7167C64.1613 92.0719 64.3563 92.3918 64.6303 92.6356C64.9042 92.8793 65.2446 93.0359 65.6079 93.0852C65.9713 93.1345 66.3411 93.0744 66.6701 92.9125C66.9991 92.7506 67.2723 92.4942 67.4549 92.1762C67.6375 91.8582 67.7211 91.493 67.695 91.1273C67.686 91.0258 67.7006 90.9236 67.7377 90.8287C67.7749 90.7338 67.8336 90.6488 67.9091 90.5804L68.6208 89.9507C68.8016 89.7946 69.0212 89.6904 69.2564 89.6491C69.4917 89.6079 69.7337 89.6311 69.9568 89.7163C70.9409 90.075 71.9954 90.1979 73.0357 90.0749C73.2781 90.0501 73.5226 90.0946 73.7407 90.2034C73.9588 90.3121 74.1416 90.4805 74.2677 90.689L75.0677 91.9749C75.1072 92.0379 75.1316 92.1093 75.1389 92.1833C75.1462 92.2573 75.1363 92.332 75.1099 92.4015C75.001 92.6837 74.9874 92.9938 75.0711 93.2844C75.1548 93.5751 75.3313 93.8304 75.5736 94.0115C75.8159 94.1925 76.1107 94.2894 76.4132 94.2873C76.7157 94.2852 77.0092 94.1843 77.249 93.9999C77.4528 93.8488 77.6098 93.6431 77.7019 93.4066C77.7939 93.1701 77.8173 92.9124 77.7693 92.6632C77.7259 92.4191 77.618 92.191 77.4569 92.0026C77.2958 91.8141 77.0873 91.6722 76.8529 91.5913C76.7824 91.5668 76.7185 91.5263 76.6662 91.4731C76.6139 91.4198 76.5746 91.3552 76.5513 91.2843L76.1216 89.9695C76.0406 89.7246 76.0351 89.461 76.1059 89.213C76.1767 88.965 76.3204 88.744 76.5185 88.5788C76.7794 88.364 77.0228 88.1289 77.2466 87.8757C77.7247 87.3372 78.1116 86.7242 78.3919 86.0609C78.49 85.8338 78.6517 85.64 78.8576 85.5031C79.0636 85.3661 79.3048 85.2917 79.5521 85.289L80.9036 85.2656C80.9843 85.2646 81.064 85.2823 81.1367 85.3172C81.2093 85.3522 81.2729 85.4035 81.3224 85.4671C81.5214 85.7186 81.7971 85.8984 82.1076 85.979C82.418 86.0596 82.7463 86.0366 83.0426 85.9137C83.3388 85.7908 83.5869 85.5745 83.7491 85.2978C83.9112 85.021 83.9787 84.699 83.9411 84.3804C83.8921 84.0987 83.7688 83.8351 83.584 83.6169C83.3991 83.3987 83.1594 83.2337 82.8896 83.139C82.6564 83.0713 82.4101 83.0621 82.1726 83.1124C81.935 83.1627 81.7136 83.2709 81.5279 83.4273C81.4672 83.4785 81.3955 83.5149 81.3183 83.5336C81.2412 83.5523 81.1607 83.5528 81.0833 83.5351L79.8076 83.2452C79.5646 83.193 79.3422 83.0707 79.1681 82.8933C78.9939 82.716 78.8757 82.4915 78.8279 82.2476C78.6873 81.4673 78.4087 80.7184 78.0052 80.0359C77.8777 79.8287 77.8126 79.5892 77.8177 79.3461C77.8228 79.1029 77.898 78.8663 78.0341 78.6648L79.1279 77.0859C79.1767 77.0161 79.2411 76.9587 79.3159 76.918C79.3908 76.8773 79.474 76.8546 79.5591 76.8515C79.8195 76.8403 80.0732 76.7651 80.2976 76.6325C80.5221 76.4999 80.7103 76.314 80.8458 76.0913C80.9909 75.8203 81.0611 75.5156 81.0493 75.2084C81.0375 74.9012 80.9441 74.6028 80.7786 74.3437C80.5769 74.0643 80.2896 73.8584 79.9603 73.757C79.6309 73.6556 79.2775 73.6644 78.9536 73.782C78.6297 73.8995 78.353 74.1195 78.1653 74.4085C77.9777 74.6975 77.8894 75.0398 77.9138 75.3835C77.9215 75.4706 77.9088 75.5583 77.8768 75.6396C77.8448 75.721 77.7944 75.7938 77.7294 75.8523L76.3177 77.1023C76.136 77.2658 75.9112 77.3738 75.67 77.4135C75.4287 77.4531 75.1812 77.4226 74.9568 77.3257C73.8991 76.8575 72.7382 76.6715 71.5872 76.7859C71.3401 76.8089 71.0916 76.7597 70.8719 76.6442C70.6522 76.5286 70.4708 76.3518 70.3497 76.1351L69.6958 74.9788C69.6546 74.9049 69.631 74.8224 69.6271 74.7378C69.6232 74.6532 69.6389 74.5688 69.6732 74.4913C69.8058 74.1815 69.8338 73.8368 69.7527 73.5096C69.6717 73.1824 69.4861 72.8906 69.2241 72.6785C68.9622 72.4664 68.6381 72.3456 68.3013 72.3344C67.9644 72.3231 67.633 72.4221 67.3575 72.6163L67.3599 72.6195Z" fill="#49B340"/>
<path d="M71.2325 87.7883C71.8957 87.7883 72.4333 87.2507 72.4333 86.5875C72.4333 85.9243 71.8957 85.3867 71.2325 85.3867C70.5693 85.3867 70.0317 85.9243 70.0317 86.5875C70.0317 87.2507 70.5693 87.7883 71.2325 87.7883Z" fill="#86D37F"/>
<path d="M68.871 82.7757C69.4073 82.7757 69.8421 82.3409 69.8421 81.8046C69.8421 81.2683 69.4073 80.8335 68.871 80.8335C68.3347 80.8335 67.8999 81.2683 67.8999 81.8046C67.8999 82.3409 68.3347 82.7757 68.871 82.7757Z" fill="#86D37F"/>
<path d="M75.4613 81.3914C75.9308 81.3914 76.3113 81.0108 76.3113 80.5414C76.3113 80.072 75.9308 79.6914 75.4613 79.6914C74.9919 79.6914 74.6113 80.072 74.6113 80.5414C74.6113 81.0108 74.9919 81.3914 75.4613 81.3914Z" fill="#86D37F"/>
<path d="M72.5654 83.3311C72.9473 83.3311 73.2568 83.0215 73.2568 82.6396C73.2568 82.2578 72.9473 81.9482 72.5654 81.9482C72.1836 81.9482 71.874 82.2578 71.874 82.6396C71.874 83.0215 72.1836 83.3311 72.5654 83.3311Z" fill="#86D37F"/>
<path d="M75.724 86.0711C76.0964 86.0711 76.3982 85.7692 76.3982 85.3969C76.3982 85.0245 76.0964 84.7227 75.724 84.7227C75.3517 84.7227 75.0498 85.0245 75.0498 85.3969C75.0498 85.7692 75.3517 86.0711 75.724 86.0711Z" fill="#86D37F"/>
<path d="M66.3551 5.54714C66.1792 5.68663 66.0436 5.87045 65.9623 6.07971C65.8809 6.28897 65.8568 6.51612 65.8923 6.73781C65.9325 6.92257 66.0174 7.09466 66.1395 7.23904C66.2616 7.38342 66.4172 7.49569 66.5927 7.56602C66.652 7.58877 66.7052 7.62489 66.7482 7.67155C66.7912 7.71822 66.8229 7.77418 66.8408 7.83509L67.1104 8.79638C67.1614 8.97455 67.1595 9.16368 67.1051 9.34083C67.0508 9.51798 66.9461 9.67555 66.804 9.79444C66.6113 9.95325 66.4312 10.1267 66.2653 10.3133C65.9047 10.7196 65.6136 11.1826 65.4038 11.6837C65.3303 11.8572 65.2072 12.0051 65.05 12.1089C64.8928 12.2127 64.7085 12.2679 64.5201 12.2674H63.5162C63.4609 12.267 63.4064 12.2539 63.357 12.229C63.3076 12.2041 63.2646 12.1681 63.2314 12.1238C63.0973 11.9494 62.91 11.8234 62.6978 11.765C62.4857 11.7065 62.2603 11.7188 62.0558 11.8C61.8513 11.8811 61.6788 12.0267 61.5644 12.2147C61.4501 12.4027 61.4001 12.6228 61.422 12.8417C61.4372 13.0264 61.5044 13.203 61.6157 13.3511C61.7271 13.4992 61.8781 13.6128 62.0512 13.6787C62.2194 13.7456 62.4024 13.7664 62.5813 13.739C62.7603 13.7116 62.9286 13.637 63.0691 13.5229C63.1113 13.4882 63.1609 13.4639 63.2141 13.4518C63.2673 13.4398 63.3226 13.4403 63.3756 13.4534L64.3567 13.6921C64.5384 13.7354 64.7035 13.8309 64.8316 13.9668C64.9597 14.1028 65.0452 14.2733 65.0775 14.4573C65.194 15.1542 65.4574 15.8183 65.8503 16.4056C65.9556 16.5657 66.0103 16.7537 66.0074 16.9453C66.0045 17.1369 65.944 17.3232 65.8339 17.4801L65.5509 17.8886C65.5075 17.9503 65.4505 18.0011 65.3843 18.037C65.3181 18.0729 65.2444 18.0931 65.1691 18.0958C64.8955 18.1083 64.6317 18.202 64.4116 18.3651C64.1915 18.5281 64.025 18.7531 63.9334 19.0113C63.8418 19.2695 63.8293 19.5491 63.8974 19.8144C63.9655 20.0798 64.1112 20.3188 64.3159 20.5009C64.5205 20.683 64.7748 20.7999 65.0463 20.8368C65.3177 20.8736 65.594 20.8287 65.8398 20.7078C66.0856 20.5868 66.2897 20.3953 66.4261 20.1577C66.5625 19.9202 66.625 19.6473 66.6055 19.3741C66.5988 19.2982 66.6097 19.2219 66.6374 19.151C66.6652 19.0801 66.709 19.0166 66.7655 18.9655L67.2972 18.4951C67.4322 18.3784 67.5963 18.3006 67.772 18.2698C67.9478 18.2389 68.1286 18.2563 68.2952 18.32C69.0305 18.588 69.8183 18.6797 70.5954 18.5879C70.7766 18.5693 70.9592 18.6026 71.1222 18.6838C71.2851 18.765 71.4216 18.8908 71.5159 19.0466L72.1135 20.0073C72.1431 20.0544 72.1613 20.1077 72.1667 20.163C72.1722 20.2183 72.1648 20.2741 72.1451 20.326C72.0637 20.5368 72.0536 20.7685 72.1161 20.9856C72.1786 21.2028 72.3105 21.3935 72.4915 21.5288C72.6725 21.6641 72.8928 21.7364 73.1188 21.7349C73.3447 21.7333 73.564 21.6579 73.7431 21.5202C73.8954 21.4073 74.0127 21.2536 74.0815 21.0769C74.1503 20.9002 74.1677 20.7077 74.1318 20.5215C74.0994 20.3392 74.0189 20.1688 73.8985 20.028C73.7781 19.8872 73.6223 19.7811 73.4472 19.7208C73.3945 19.7024 73.3468 19.6722 73.3077 19.6324C73.2687 19.5926 73.2393 19.5444 73.2219 19.4914L72.9009 18.5091C72.8404 18.3262 72.8363 18.1292 72.8892 17.944C72.942 17.7587 73.0494 17.5936 73.1974 17.4702C73.3923 17.3097 73.5742 17.134 73.7414 16.9449C74.0985 16.5426 74.3876 16.0846 74.597 15.589C74.6703 15.4194 74.7911 15.2746 74.945 15.1723C75.0988 15.0699 75.279 15.0144 75.4638 15.0124L76.4735 14.9949C76.5337 14.9941 76.5933 15.0073 76.6476 15.0335C76.7018 15.0596 76.7493 15.0979 76.7863 15.1454C76.935 15.3334 77.141 15.4676 77.3729 15.5278C77.6049 15.588 77.8501 15.5709 78.0715 15.4791C78.2928 15.3872 78.4781 15.2257 78.5993 15.0189C78.7204 14.8122 78.7708 14.5716 78.7428 14.3336C78.7061 14.1231 78.614 13.9262 78.4759 13.7632C78.3378 13.6001 78.1588 13.4769 77.9572 13.4061C77.783 13.3555 77.599 13.3487 77.4215 13.3863C77.244 13.4238 77.0786 13.5046 76.9398 13.6215C76.8945 13.6598 76.8409 13.687 76.7833 13.7009C76.7256 13.7149 76.6655 13.7153 76.6077 13.702L75.6546 13.4855C75.4731 13.4465 75.307 13.3551 75.1769 13.2226C75.0468 13.0901 74.9584 12.9224 74.9227 12.7402C74.8177 12.1572 74.6095 11.5977 74.3081 11.0878C74.2128 10.9331 74.1642 10.7542 74.168 10.5725C74.1719 10.3908 74.228 10.2141 74.3297 10.0635L75.1468 8.88393C75.1833 8.83182 75.2314 8.78889 75.2873 8.75851C75.3432 8.72812 75.4054 8.71112 75.469 8.70883C75.6636 8.70046 75.8531 8.64426 76.0207 8.54521C76.1884 8.44615 76.3291 8.3073 76.4303 8.14093C76.5386 7.93845 76.5911 7.71077 76.5823 7.4813C76.5735 7.25182 76.5037 7.02884 76.3801 6.83528C76.2294 6.62658 76.0147 6.47271 75.7687 6.39698C75.5227 6.32125 75.2586 6.3278 75.0167 6.41563C74.7747 6.50347 74.5679 6.66779 74.4277 6.88371C74.2876 7.09962 74.2216 7.35535 74.2398 7.61213C74.2456 7.67719 74.2361 7.74268 74.2122 7.80346C74.1883 7.86423 74.1506 7.91862 74.1021 7.96233L73.0474 8.89618C72.9117 9.01839 72.7437 9.09907 72.5635 9.12866C72.3833 9.15825 72.1983 9.1355 72.0307 9.06311C71.2405 8.7133 70.3732 8.57434 69.5133 8.6598C69.3287 8.67702 69.143 8.64024 68.9789 8.55393C68.8148 8.46762 68.6793 8.3355 68.5888 8.17361L68.1003 7.3098C68.0695 7.25454 68.0519 7.19289 68.049 7.12969C68.046 7.06648 68.0578 7.00346 68.0834 6.94559C68.1825 6.7141 68.2033 6.45659 68.1428 6.21216C68.0822 5.96773 67.9436 5.74973 67.7479 5.59127C67.5522 5.4328 67.3101 5.34252 67.0584 5.33414C66.8068 5.32575 66.5592 5.39972 66.3534 5.54481L66.3551 5.54714Z" fill="#49B340"/>
<path d="M69.2486 16.8796C69.7441 16.8796 70.1457 16.478 70.1457 15.9825C70.1457 15.4871 69.7441 15.0854 69.2486 15.0854C68.7532 15.0854 68.3516 15.4871 68.3516 15.9825C68.3516 16.478 68.7532 16.8796 69.2486 16.8796Z" fill="#86D37F"/>
<path d="M67.4838 13.1346C67.8845 13.1346 68.2093 12.8098 68.2093 12.4091C68.2093 12.0084 67.8845 11.6836 67.4838 11.6836C67.0831 11.6836 66.7583 12.0084 66.7583 12.4091C66.7583 12.8098 67.0831 13.1346 67.4838 13.1346Z" fill="#86D37F"/>
<path d="M72.408 12.1006C72.7587 12.1006 73.043 11.8163 73.043 11.4656C73.043 11.1149 72.7587 10.8306 72.408 10.8306C72.0573 10.8306 71.7729 11.1149 71.7729 11.4656C71.7729 11.8163 72.0573 12.1006 72.408 12.1006Z" fill="#86D37F"/>
<path d="M70.2441 13.5497C70.5294 13.5497 70.7606 13.3184 70.7606 13.0331C70.7606 12.7479 70.5294 12.5166 70.2441 12.5166C69.9588 12.5166 69.7275 12.7479 69.7275 13.0331C69.7275 13.3184 69.9588 13.5497 70.2441 13.5497Z" fill="#86D37F"/>
<path d="M72.6038 15.5968C72.882 15.5968 73.1075 15.3712 73.1075 15.0931C73.1075 14.8149 72.882 14.5894 72.6038 14.5894C72.3256 14.5894 72.1001 14.8149 72.1001 15.0931C72.1001 15.3712 72.3256 15.5968 72.6038 15.5968Z" fill="#86D37F"/>
</svg>
