<svg width="101" height="100" viewBox="0 0 101 100" fill="none" xmlns="http://www.w3.org/2000/svg">
<g clip-path="url(#clip0_873_20419)">
<path d="M24.9541 57.1214C37.2151 52.8789 50.5705 52.8789 62.8316 57.1214C66.8767 58.5027 71.6574 57.1483 73.6665 53.453C75.6667 49.7755 73.1643 44.5374 67.8275 42.6897C52.3285 37.3261 35.4661 37.3261 19.9671 42.6897C14.6303 44.5285 12.1189 49.7666 14.1281 53.453C16.1282 57.1483 20.9179 58.4937 24.963 57.1214H24.9541Z" fill="#FFB72C"/>
<path d="M40.767 63.678C52.4361 69.3466 61.8808 78.7913 67.5495 90.4605C69.433 94.2904 73.7652 96.7211 77.8014 95.5281C81.8197 94.3442 83.7481 88.8639 81.2815 83.7873C74.115 69.0417 62.1858 57.1124 47.4402 49.9459C42.3636 47.4704 36.8833 49.4078 35.6993 53.426C34.5064 57.4622 36.9371 61.7944 40.767 63.678Z" fill="#FCAB0F"/>
<path d="M50.454 18.9929C62.1231 24.6616 71.5679 34.1063 77.2365 45.7754C79.12 49.6053 83.4522 52.036 87.4884 50.8431C91.5067 49.6591 93.4351 44.1789 90.9685 39.1022C83.802 24.3566 71.8728 12.4274 57.1272 5.26088C52.0506 2.78534 46.5703 4.72272 45.3864 8.74099C44.1934 12.7772 46.6241 17.1094 50.454 18.9929Z" fill="#FCAB0F"/>
<path d="M53.2438 72.3692C40.2651 72.3154 27.6722 67.9025 17.5009 59.8391C14.1374 57.2021 9.1774 56.8882 6.06504 59.7135C2.96165 62.5209 3.5895 68.2972 8.02035 71.7952C20.8734 81.9844 36.785 87.5633 53.181 87.6261C58.8227 87.653 62.9307 83.5361 62.249 79.4012C61.5763 75.2484 57.5132 72.3962 53.2438 72.3603V72.3692Z" fill="#FFC14A"/>
<path d="M22.4248 12.6334C17.3571 19.2348 14.1102 27.065 13.0159 35.3079C12.2715 40.8688 15.8323 45.201 19.5366 44.7526C23.2679 44.3131 25.9946 40.815 26.5238 37.1107C27.3041 31.2268 29.6182 25.6479 33.2328 20.93C35.4841 17.9342 36.0402 13.5393 33.7082 10.5883C31.412 7.6464 25.8241 8.18456 22.4158 12.6334H22.4248Z" fill="#FF8437"/>
<path d="M85.9007 49.7216C78.6983 53.8923 72.7068 59.8749 68.536 67.0862C65.7286 71.9387 67.3611 77.3023 70.9578 78.3069C74.5724 79.3294 78.4292 77.1409 80.3397 73.9119C83.3086 68.7725 87.5869 64.5031 92.7264 61.5252C95.9553 59.6237 98.1438 55.7669 97.1213 52.1433C96.1168 48.5466 90.7531 46.9142 85.9007 49.7216Z" fill="#FF8437"/>
<path d="M27.7259 58.9779C20.5235 63.1487 14.532 69.1312 10.3612 76.3426C7.55384 81.195 9.18626 86.5587 12.783 87.5632C16.3976 88.5857 20.2544 86.3972 22.1649 83.1683C25.1337 78.0288 29.4121 73.7594 34.5516 70.7816C37.7805 68.8711 39.969 65.0233 38.9465 61.3997C37.942 57.803 32.5783 56.1705 27.7259 58.9779Z" fill="#FCAB0F"/>
<path d="M54.3196 17.1899C47.1173 21.3606 41.1257 27.3432 36.955 34.5545C34.1476 39.4069 35.78 44.7706 39.3767 45.7751C42.9914 46.7977 46.8482 44.6091 48.7586 41.3802C51.7275 36.2407 56.0059 31.9713 61.1453 28.9935C64.3743 27.083 66.5628 23.2352 65.5403 19.6116C64.5357 16.0149 59.1721 14.3825 54.3196 17.1899Z" fill="#FFC14A"/>
</g>
<defs>
<clipPath id="clip0_873_20419">
<rect width="93.2453" height="91.6667" fill="white" transform="translate(4.12744 4.1665)"/>
</clipPath>
</defs>
</svg>
