<svg width="101" height="100" viewBox="0 0 101 100" fill="none" xmlns="http://www.w3.org/2000/svg">
<path d="M50.75 82.8125C33.4902 82.8125 21.0625 55.0859 21.0625 34.375C21.0625 7.8125 33.4902 20.3125 50.75 20.3125C68.0098 20.3125 80.4375 7.8125 80.4375 34.375C80.4375 55.0859 68.0098 82.8125 50.75 82.8125Z" fill="#BA0C17"/>
<path d="M28.875 57.8125C33.1897 57.8125 36.6875 54.3147 36.6875 50C36.6875 45.6853 33.1897 42.1875 28.875 42.1875C24.5603 42.1875 21.0625 45.6853 21.0625 50C21.0625 54.3147 24.5603 57.8125 28.875 57.8125Z" fill="#FF5761"/>
<path d="M72.625 57.8125C76.9397 57.8125 80.4375 54.3147 80.4375 50C80.4375 45.6853 76.9397 42.1875 72.625 42.1875C68.3103 42.1875 64.8125 45.6853 64.8125 50C64.8125 54.3147 68.3103 57.8125 72.625 57.8125Z" fill="#FF5761"/>
<path d="M27.3125 40.625C27.3125 35.4473 31.5098 31.25 36.6875 31.25C41.8652 31.25 46.0625 35.4473 46.0625 40.625C46.0625 43.2139 48.1611 45.3125 50.75 45.3125C53.3389 45.3125 55.4375 43.2139 55.4375 40.625C55.4375 35.4473 59.6348 31.25 64.8125 31.25C69.9902 31.25 74.1875 35.4473 74.1875 40.625L82 62.5V15.625H19.5V62.5L27.3125 40.625Z" fill="#FF808C"/>
<path d="M41.375 22.4375C40.5121 22.4375 39.8125 21.7379 39.8125 20.875V17.75C39.8125 16.8871 40.5121 16.1875 41.375 16.1875C42.2379 16.1875 42.9375 16.8871 42.9375 17.75V20.875C42.9375 21.7379 42.2379 22.4375 41.375 22.4375Z" fill="#E5E8EB"/>
<path d="M32 20.875C31.1371 20.875 30.4375 20.1754 30.4375 19.3125V16.1875C30.4375 15.3246 31.1371 14.625 32 14.625C32.8629 14.625 33.5625 15.3246 33.5625 16.1875V19.3125C33.5625 20.1754 32.8629 20.875 32 20.875Z" fill="#E5E8EB"/>
<path d="M60.125 22.4375C59.2621 22.4375 58.5625 21.7379 58.5625 20.875V17.75C58.5625 16.8871 59.2621 16.1875 60.125 16.1875C60.9879 16.1875 61.6875 16.8871 61.6875 17.75V20.875C61.6875 21.7379 60.9879 22.4375 60.125 22.4375Z" fill="#E5E8EB"/>
<path d="M50.75 22.4375C49.8871 22.4375 49.1875 21.7379 49.1875 20.875V17.75C49.1875 16.8871 49.8871 16.1875 50.75 16.1875C51.6129 16.1875 52.3125 16.8871 52.3125 17.75V20.875C52.3125 21.7379 51.6129 22.4375 50.75 22.4375Z" fill="#E5E8EB"/>
<path d="M69.5 20.875C68.6371 20.875 67.9375 20.1754 67.9375 19.3125V16.1875C67.9375 15.3246 68.6371 14.625 69.5 14.625C70.3629 14.625 71.0625 15.3246 71.0625 16.1875V19.3125C71.0625 20.1754 70.3629 20.875 69.5 20.875Z" fill="#E5E8EB"/>
<path d="M47.625 26.5625H44.5C42.774 26.5625 41.375 25.1635 41.375 23.4375V20.3125C41.375 18.5865 42.774 17.1875 44.5 17.1875H47.625C49.351 17.1875 50.75 18.5865 50.75 20.3125V23.4375C50.75 25.1635 49.351 26.5625 47.625 26.5625Z" fill="#F9FAFB"/>
<path d="M38.25 25H35.125C33.399 25 32 23.601 32 21.875V18.75C32 17.024 33.399 15.625 35.125 15.625H38.25C39.976 15.625 41.375 17.024 41.375 18.75V21.875C41.375 23.601 39.976 25 38.25 25Z" fill="#F9FAFB"/>
<path d="M78.875 65.625C78.875 77.707 69.082 87.5 57 87.5H44.5C32.418 87.5 22.625 77.707 22.625 65.625C22.625 61.7422 24.1992 58.2266 26.7441 55.6816C29.2891 53.1367 32.8047 51.5625 36.6875 51.5625C40.1719 51.5625 44.6289 55.3379 49.1875 56.1113C49.707 56.2012 50.2285 56.25 50.75 56.25C51.2715 56.25 51.793 56.2012 52.3125 56.1113C56.8711 55.3379 61.3281 51.5625 64.8125 51.5625C72.5781 51.5625 78.875 57.8594 78.875 65.625Z" fill="#FF808C"/>
<path d="M41.375 86.146C40.5121 86.146 39.8125 85.4464 39.8125 84.5835V79.896C39.8125 79.0331 40.5121 78.3335 41.375 78.3335C42.2379 78.3335 42.9375 79.0331 42.9375 79.896V84.5835C42.9375 85.4464 42.2379 86.146 41.375 86.146Z" fill="#E5E8EB"/>
<path d="M60.125 86.146C59.2621 86.146 58.5625 85.4464 58.5625 84.5835V79.896C58.5625 79.0331 59.2621 78.3335 60.125 78.3335C60.9879 78.3335 61.6875 79.0331 61.6875 79.896V84.5835C61.6875 85.4464 60.9879 86.146 60.125 86.146Z" fill="#E5E8EB"/>
<path d="M50.75 90.8335C49.8871 90.8335 49.1875 90.1339 49.1875 89.271V83.021C49.1875 82.1581 49.8871 81.4585 50.75 81.4585C51.6129 81.4585 52.3125 82.1581 52.3125 83.021V89.271C52.3125 90.1339 51.6129 90.8335 50.75 90.8335Z" fill="#E5E8EB"/>
<path d="M28.875 23.4375H25.75C24.024 23.4375 22.625 22.0385 22.625 20.3125V17.1875C22.625 15.4615 24.024 14.0625 25.75 14.0625H28.875C30.601 14.0625 32 15.4615 32 17.1875V20.3125C32 22.0385 30.601 23.4375 28.875 23.4375Z" fill="#F9FAFB"/>
<path d="M47.625 84.375H44.5C42.774 84.375 41.375 82.976 41.375 81.25V78.125C41.375 76.399 42.774 75 44.5 75H47.625C49.351 75 50.75 76.399 50.75 78.125V81.25C50.75 82.976 49.351 84.375 47.625 84.375Z" fill="#F9FAFB"/>
<path d="M38.25 81.25H35.125C33.399 81.25 32 79.851 32 78.125V75C32 73.274 33.399 71.875 35.125 71.875H38.25C39.976 71.875 41.375 73.274 41.375 75V78.125C41.375 79.851 39.976 81.25 38.25 81.25Z" fill="#F9FAFB"/>
<path d="M66.375 81.25H63.25C61.524 81.25 60.125 79.851 60.125 78.125V75C60.125 73.274 61.524 71.875 63.25 71.875H66.375C68.101 71.875 69.5 73.274 69.5 75V78.125C69.5 79.851 68.101 81.25 66.375 81.25Z" fill="#F9FAFB"/>
<path d="M57 84.375H53.875C52.149 84.375 50.75 82.976 50.75 81.25V78.125C50.75 76.399 52.149 75 53.875 75H57C58.726 75 60.125 76.399 60.125 78.125V81.25C60.125 82.976 58.726 84.375 57 84.375Z" fill="#F9FAFB"/>
<path d="M75.75 23.4375H72.625C70.899 23.4375 69.5 22.0385 69.5 20.3125V17.1875C69.5 15.4615 70.899 14.0625 72.625 14.0625H75.75C77.476 14.0625 78.875 15.4615 78.875 17.1875V20.3125C78.875 22.0385 77.476 23.4375 75.75 23.4375Z" fill="#F9FAFB"/>
<path d="M66.375 25H63.25C61.524 25 60.125 23.601 60.125 21.875V18.75C60.125 17.024 61.524 15.625 63.25 15.625H66.375C68.101 15.625 69.5 17.024 69.5 18.75V21.875C69.5 23.601 68.101 25 66.375 25Z" fill="#F9FAFB"/>
<path d="M57 26.5625H53.875C52.149 26.5625 50.75 25.1635 50.75 23.4375V20.3125C50.75 18.5865 52.149 17.1875 53.875 17.1875H57C58.726 17.1875 60.125 18.5865 60.125 20.3125V23.4375C60.125 25.1635 58.726 26.5625 57 26.5625Z" fill="#F9FAFB"/>
<mask id="mask0_873_20525" style="mask-type:alpha" maskUnits="userSpaceOnUse" x="22" y="51" width="57" height="37">
<path d="M78.875 65.625C78.875 77.707 69.082 87.5 57 87.5H44.5C32.418 87.5 22.625 77.707 22.625 65.625C22.625 61.7422 24.1992 58.2266 26.7441 55.6816C29.2891 53.1367 32.8047 51.5625 36.6875 51.5625C40.1719 51.5625 44.6289 55.3379 49.1875 56.1113C49.707 56.2012 50.2285 56.25 50.75 56.25C51.2715 56.25 51.793 56.2012 52.3125 56.1113C56.8711 55.3379 61.3281 51.5625 64.8125 51.5625C72.5781 51.5625 78.875 57.8594 78.875 65.625Z" fill="#ED6F6D"/>
</mask>
<g mask="url(#mask0_873_20525)">
<path d="M42.0002 59.4999C37.0002 52.5665 30.6391 52.8332 28.0835 53.8332L30.0002 50.6665L56.3335 51.8332C74.9168 43.3332 84.0835 65.3332 76.5835 58.1665C69.0835 50.9999 61.663 53.8332 59.4168 58.9165C57.8335 62.4999 48.2502 68.1665 42.0002 59.4999Z" fill="#FFAAA8"/>
</g>
<path d="M46.0902 9.58765C40.9667 6.38543 34.8289 4.08864 29.1444 6.13589C7.6552 13.8751 16.375 50 16.375 50C16.375 98.4375 50.75 95.3125 50.75 95.3125C50.75 95.3125 85.125 98.4375 85.125 50C85.125 50 93.8448 13.8751 72.3556 6.13589C66.6711 4.08864 60.5333 6.38543 55.4098 9.58765C52.5588 11.3695 48.9412 11.3695 46.0902 9.58765ZM50.75 82.8125C33.4902 82.8125 21.0625 55.0859 21.0625 34.375C21.0625 7.8125 33.4902 20.3125 50.75 20.3125C68.0098 20.3125 80.4375 7.8125 80.4375 34.375C80.4375 55.0859 68.0098 82.8125 50.75 82.8125Z" fill="#FF5761"/>
<path d="M33.8986 57.13C36.7549 58.5174 39.0666 60.829 40.4541 63.685C40.9152 64.6223 41.9755 65.2172 42.9635 64.9253C43.947 64.6355 44.419 63.2942 43.8153 62.0517C42.0612 58.4428 39.1413 55.5231 35.532 53.7692C34.2894 53.1633 32.948 53.6374 32.6582 54.6209C32.3662 55.6088 32.9612 56.669 33.8986 57.13Z" fill="#4196FD"/>
<path d="M64.0474 36.3183C63.2446 39.3621 61.433 42.0575 58.9102 43.9616C58.0833 44.592 57.7072 45.7376 58.1839 46.64C58.6577 47.5384 60.0601 47.7352 61.1576 46.9067C64.3454 44.4998 66.6336 41.0954 67.6489 37.2489C68.0004 35.9242 67.2771 34.7142 66.2597 34.6246C65.2376 34.5337 64.3164 35.3182 64.0474 36.3183Z" fill="#4196FD"/>
<path d="M56.8659 52.334C55.1191 54.9528 52.5311 56.9148 49.527 57.8976C48.5403 58.2257 47.813 59.1874 47.9712 60.1955C48.1279 61.1991 49.3907 61.8402 50.6976 61.4125C54.4938 60.1698 57.7626 57.6917 59.9707 54.3826C60.7329 53.2436 60.4412 51.8644 59.5079 51.4496C58.5705 51.032 57.4447 51.4753 56.8659 52.334Z" fill="#4196FD"/>
<path d="M66.8027 50.6782C65.0573 51.6889 63.6054 53.1386 62.5947 54.8862C61.9143 56.0621 62.3099 57.3619 63.1815 57.6053C64.0575 57.8531 64.9921 57.3228 65.4551 56.5403C66.1745 55.2948 67.2113 54.2602 68.4568 53.5386C69.2393 53.0778 69.7696 52.1431 69.5218 51.265C69.2784 50.3934 67.9786 49.9978 66.8027 50.6782Z" fill="#4196FD"/>
<path d="M34.4692 40.5112C32.7238 41.5219 31.2719 42.9717 30.2612 44.7192C29.5808 45.8951 29.9764 47.1949 30.848 47.4383C31.724 47.6861 32.6586 47.1558 33.1216 46.3733C33.841 45.1278 34.8778 44.0932 36.1233 43.3716C36.9058 42.9086 37.4361 41.9762 37.1883 41.098C36.9449 40.2264 35.6451 39.8308 34.4692 40.5112Z" fill="#4196FD"/>
<path d="M47.272 49.7776C46.4772 47.9151 45.2091 46.2914 43.5906 45.0713C42.5015 44.2501 41.1579 44.486 40.8091 45.3251C40.4555 46.1679 40.8702 47.164 41.5937 47.7207C42.7473 48.5894 43.6522 49.7487 44.2197 51.0778C44.5859 51.9141 45.4506 52.5562 46.356 52.4162C47.2543 52.2797 47.8068 51.0324 47.272 49.7776Z" fill="#4196FD"/>
</svg>
