<svg width="600" height="600" viewBox="0 0 600 600" fill="none" xmlns="http://www.w3.org/2000/svg">
<g clip-path="url(#clip0_151_19290)">
<path d="M528.293 135.807C516.359 111.331 485.909 102.746 462.83 117.188C437.669 132.924 410.065 143.254 381.219 148.374C379.828 113.49 380.456 76.777 383.086 41.6008C383.533 35.608 378.788 30.5085 372.778 30.5085H340.687C334.89 30.5085 330.195 35.2757 330.354 41.0707C331.33 76.6606 324.987 111.354 311.607 143.469C118.285 123.777 -54.0017 268.671 15.8567 474.535C24.61 500.369 56.8305 509.665 78.0349 491.654C133.296 444.685 183.642 447.164 218.993 439.005C221.095 478.086 220.674 519.042 217.725 558.387C217.275 564.383 222.018 569.49 228.031 569.49H260.119C265.917 569.49 270.613 564.723 270.454 558.927C269.13 510.555 281.321 463.831 306.358 422.967C464.395 443.254 594.828 272.291 528.293 135.807Z" fill="#FF6D7A"/>
<path d="M357.816 174.285C397.442 281.58 310.829 415.277 218.992 438.992V439.005C184.921 446.867 133.922 444.152 78.0337 491.654C56.8293 509.665 24.6088 500.369 15.8555 474.535C-54.0029 268.671 118.283 123.777 311.606 143.469C322.901 144.568 330.97 145.554 340.607 152.163C348.352 157.477 354.429 165.131 357.816 174.285Z" fill="#FF5761"/>
<path d="M306.357 422.969C281.32 463.832 269.129 510.556 270.453 558.928C270.612 564.724 265.916 569.491 260.118 569.491H228.03C222.017 569.491 217.273 564.386 217.723 558.389C222.405 495.92 218.992 439.132 218.992 438.993C248.13 431.47 268.935 414.789 269.495 414.789C281.894 418.719 294.216 421.417 306.357 422.969Z" fill="#4196FD"/>
<path d="M253.889 569.49H228.029C222.017 569.49 217.271 564.387 217.723 558.387C222.413 495.793 218.992 439.13 218.992 438.992C227.797 436.716 236.563 433.419 245.174 429.23C246.907 471.2 246.376 514.889 243.584 556.948C243.131 563.723 247.876 569.49 253.889 569.49Z" fill="#69ADFF"/>
<path d="M340.688 30.5085H372.779C378.788 30.5085 383.535 35.608 383.086 41.6008C380.456 76.777 379.828 113.49 381.219 148.374C367.915 150.74 354.339 151.995 340.607 152.163C330.897 145.505 322.712 144.551 311.606 143.469C324.987 111.353 331.33 76.6593 330.353 41.0707C330.194 35.2757 334.89 30.5085 340.688 30.5085Z" fill="#4196FD"/>
<path d="M356.213 40.6324C357.067 79.1366 352.231 116.787 341.887 152.15C341.461 152.15 341.034 152.163 340.607 152.163C330.897 145.505 322.712 144.55 311.606 143.469C324.989 111.352 331.323 76.6528 330.353 41.0707C330.198 35.2783 334.894 30.5085 340.686 30.5085H360.039C357.636 32.8876 356.123 36.5596 356.213 40.6324Z" fill="#69ADFF"/>
<path d="M491.534 294.646C551.437 294.646 600 343.197 600 403.1C600 463.015 551.437 511.566 491.534 511.566C431.631 511.566 383.068 463.015 383.068 403.1C383.068 343.197 431.631 294.646 491.534 294.646Z" fill="#4196FD"/>
<path d="M514.76 397.38C520.22 400.88 524 405.5 526.24 412.36C531.28 427.62 527.08 444.42 506.92 448.62C501.46 449.88 493.34 450.72 487.6 450.72C480.32 450.86 472.34 451.14 465.06 449.6C461.84 448.62 460.72 446.1 460.16 443.16C459.74 442.18 459.6 441.34 459.6 440.64V361.12C459.6 350.62 468.98 350.2 478.5 350.34C482.28 350.34 486.06 350.2 489.98 350.34C496.14 350.48 503.14 351.18 509.02 353.42C510.56 353.98 512.1 354.68 513.5 355.38C514.9 356.08 516.3 357.06 517.28 358.18C529.18 368.96 529.04 388.7 514.76 397.38ZM490.26 434.48C496 434.2 503 433.5 505.24 430.84C510.28 424.96 509.02 413.48 502.58 408.86C498.24 405.5 492.36 404.8 486.9 404.8C481.58 404.94 478.08 404.38 478.22 409.56C478.5 414.32 477.94 419.36 477.94 423.84C477.94 426.36 477.38 430 479.34 431.96C481.44 433.92 485.64 434.62 490.26 434.48ZM493.06 367.28C481.44 367 478.36 365.74 478.64 374.42C478.64 377.92 478.5 381.42 478.5 384.78C478.36 392.34 489.84 390.8 495.86 389.82C502.58 388.7 506.22 385.48 506.78 378.76C507.48 370.36 501.74 367.56 493.06 367.28Z" fill="white"/>
</g>
<defs>
<clipPath id="clip0_151_19290">
<rect width="600" height="600" fill="white"/>
</clipPath>
</defs>
</svg>
