<svg width="16" height="17" viewBox="0 0 16 17" fill="none" xmlns="http://www.w3.org/2000/svg">
<path d="M11.3334 2.72676C12.3389 3.30733 13.1753 4.14044 13.7599 5.14362C14.3445 6.14681 14.6569 7.28527 14.6663 8.44632C14.6757 9.60736 14.3817 10.7507 13.8134 11.7632C13.2451 12.7757 12.4222 13.6222 11.4262 14.219C10.4302 14.8157 9.29562 15.142 8.13477 15.1655C6.97393 15.189 5.82707 14.9089 4.80774 14.3529C3.78841 13.797 2.93195 12.9844 2.32315 11.9958C1.71435 11.0071 1.37431 9.87656 1.33671 8.71609L1.33337 8.50009L1.33671 8.28409C1.37404 7.13275 1.70907 6.01073 2.30913 5.02742C2.90919 4.04411 3.75381 3.23306 4.76064 2.67335C5.76746 2.11363 6.90214 1.82436 8.05404 1.83372C9.20595 1.84308 10.3358 2.15076 11.3334 2.72676ZM7.00737 6.59342C6.86769 6.51028 6.70245 6.48103 6.54271 6.51118C6.38298 6.54133 6.23977 6.6288 6.14001 6.75714C6.04025 6.88549 5.99082 7.04586 6.00101 7.20809C6.01121 7.37033 6.08033 7.52325 6.19537 7.63809L7.05671 8.50009L6.19537 9.36209L6.14004 9.42476C6.03643 9.55875 5.98771 9.72716 6.00377 9.89577C6.01984 10.0644 6.09948 10.2206 6.22652 10.3326C6.35357 10.4446 6.51849 10.5041 6.68779 10.4989C6.85708 10.4937 7.01807 10.4243 7.13804 10.3048L8.00004 9.44342L8.86204 10.3048L8.92471 10.3601C9.0587 10.4637 9.22711 10.5124 9.39573 10.4964C9.56434 10.4803 9.72052 10.4007 9.83254 10.2736C9.94456 10.1466 10.004 9.98165 9.99886 9.81235C9.99369 9.64305 9.92427 9.48206 9.80471 9.36209L8.94337 8.50009L9.80471 7.63809L9.86004 7.57542C9.96365 7.44143 10.0124 7.27302 9.99631 7.10441C9.98024 6.93579 9.9006 6.77961 9.77356 6.66759C9.64652 6.55557 9.4816 6.4961 9.3123 6.50127C9.143 6.50644 8.98201 6.57586 8.86204 6.69542L8.00004 7.55676L7.13804 6.69542L7.07537 6.64009L7.00737 6.59342Z" fill="#B0B8C1"/>
</svg>
