<svg width="161" height="40" viewBox="0 0 161 40" fill="none" xmlns="http://www.w3.org/2000/svg">
<rect x="0.5" y="0.5" width="160" height="39" rx="9.5" fill="white"/>
<rect x="0.5" y="0.5" width="160" height="39" rx="9.5" stroke="#E5E8EB"/>
<path d="M33 29L27 23M15 18C15 18.9193 15.1811 19.8295 15.5328 20.6788C15.8846 21.5281 16.4002 22.2997 17.0503 22.9497C17.7003 23.5998 18.4719 24.1154 19.3212 24.4672C20.1705 24.8189 21.0807 25 22 25C22.9193 25 23.8295 24.8189 24.6788 24.4672C25.5281 24.1154 26.2997 23.5998 26.9497 22.9497C27.5998 22.2997 28.1154 21.5281 28.4672 20.6788C28.8189 19.8295 29 18.9193 29 18C29 17.0807 28.8189 16.1705 28.4672 15.3212C28.1154 14.4719 27.5998 13.7003 26.9497 13.0503C26.2997 12.4002 25.5281 11.8846 24.6788 11.5328C23.8295 11.1811 22.9193 11 22 11C21.0807 11 20.1705 11.1811 19.3212 11.5328C18.4719 11.8846 17.7003 12.4002 17.0503 13.0503C16.4002 13.7003 15.8846 14.4719 15.5328 15.3212C15.1811 16.1705 15 17.0807 15 18Z" stroke="#333D4B" stroke-width="2" stroke-linecap="round" stroke-linejoin="round"/>
<path d="M55.6547 20.3164V21.3691H50.6781V25.6484H49.4066V21.3691H44.4848V20.3164H55.6547ZM45.1137 18.3613C47.3969 18.0469 49.2973 16.6865 49.3383 15.1758H45.5238V14.1367H54.602V15.1758H50.8148C50.8354 16.6865 52.7221 18.0469 55.0395 18.3613L54.5609 19.3867C52.5512 19.0723 50.8148 18.0811 50.0697 16.6865C49.3178 18.0811 47.5883 19.0723 45.6059 19.3867L45.1137 18.3613ZM66.4973 13.4258V22.4766H65.1984V19.291H62.5187V20.4395H56.8723V14.2324H58.1711V16.3105H61.2336V14.2324H62.5187V15.5996H65.1984V13.4258H66.4973ZM58.1711 19.3867H61.2336V17.3086H58.1711V19.3867ZM58.4992 25.4023V21.5879H59.8117V24.3496H66.7707V25.4023H58.4992ZM62.5187 18.2383H65.1984V16.666H62.5187V18.2383ZM75.1941 14.2871C77.1287 14.2803 78.5232 15.4766 78.5301 17.1992C78.5232 18.9219 77.1287 20.1182 75.1941 20.125C73.2664 20.1182 71.8514 18.9219 71.8582 17.1992C71.8514 15.4766 73.2664 14.2803 75.1941 14.2871ZM71.2703 21.9707C73.4988 21.9707 76.5887 21.9502 79.2684 21.5605L79.3641 22.5039C76.5955 23.0371 73.6219 23.0508 71.4344 23.0508L71.2703 21.9707ZM73.1434 17.1992C73.1297 18.2861 74.0047 18.9902 75.1941 18.9902C76.3836 18.9902 77.2586 18.2861 77.2586 17.1992C77.2586 16.126 76.3836 15.4082 75.1941 15.4082C74.0047 15.4082 73.1297 16.126 73.1434 17.1992ZM80.034 25.6895V13.4121H81.3328V25.6895H80.034ZM94.2125 23.1055V24.1992H83.0016V23.1055H86.0641V20.9453H84.3687V17.0488H91.5602V15.3398H84.3414V14.2734H92.8453V18.1016H85.6539V19.8789H93.1324V20.9453H91.273V23.1055H94.2125ZM87.3219 23.1055H90.0016V20.9453H87.3219V23.1055ZM104.987 13.4121V25.6621H103.674V13.4121H104.987ZM94.9242 22.3809C98.1781 20.8291 99.7709 18.6211 100.024 15.7637H95.5121V14.7246H101.336C101.336 18.3135 99.8119 21.417 95.6078 23.4336L94.9242 22.3809ZM113.423 14.3418V15.0254C113.409 15.8457 113.409 17.0625 113.109 18.6484L111.823 18.5254C112.09 17.1719 112.131 16.1807 112.145 15.4082H107.243V14.3418H113.423ZM106.505 19.7012C107.257 19.7012 108.112 19.6943 109.007 19.6738V17.0898H110.292V19.6328C111.605 19.5781 112.958 19.4824 114.189 19.3047L114.271 20.248C111.714 20.6992 108.788 20.7471 106.628 20.7539L106.505 19.7012ZM108.364 25.4023V21.7793H109.663V24.3496H116.691V25.4023H108.364ZM114.968 22.6133V13.4121H116.294V17.3086H117.976V18.4023H116.294V22.6133H114.968ZM132.729 23.0645V24.1309H121.518V23.0645H126.468V20.166H127.766V23.0645H132.729ZM122.038 19.6055C124.314 19.2227 126.427 17.5205 126.427 15.6406V15.5312H122.448V14.4648H131.759V15.5312H127.78V15.6406C127.78 17.5205 129.906 19.1885 132.237 19.5508L131.718 20.5762C129.735 20.207 127.91 19.0586 127.11 17.4453C126.324 19.0791 124.512 20.248 122.571 20.6309L122.038 19.6055ZM143.449 13.4121V25.6621H142.15V13.4121H143.449ZM133.386 22.3262C134.398 22.3193 135.546 22.3125 136.75 22.2852V21.0547C135.321 20.8633 134.391 20.0225 134.398 18.8262C134.391 17.4453 135.594 16.5361 137.365 16.5293C139.156 16.5361 140.379 17.4453 140.386 18.8262C140.379 20.0088 139.457 20.8428 138.035 21.0479V22.2373C139.17 22.1826 140.318 22.1006 141.398 21.957L141.494 22.9277C138.773 23.3789 135.806 23.4131 133.564 23.4062L133.386 22.3262ZM133.646 15.9141V14.875H136.75V13.4395H138.048V14.875H141.125V15.9141H133.646ZM135.629 18.8262C135.615 19.6055 136.339 20.0908 137.365 20.084C138.424 20.0908 139.142 19.6055 139.142 18.8262C139.142 18.04 138.424 17.541 137.365 17.541C136.339 17.541 135.615 18.04 135.629 18.8262Z" fill="#333D4B"/>
</svg>
