<svg width="34" height="34" viewBox="0 0 34 34" fill="none" xmlns="http://www.w3.org/2000/svg">
<rect width="34" height="34" rx="10" fill="#FFEEEF"/>
<path d="M8.9 16.1752C8.71667 15.9752 8.625 15.7377 8.625 15.4627C8.625 15.1877 8.71667 14.9502 8.9 14.7502L11.7 11.9502L10.625 10.8752L10.325 11.1752C10.125 11.3752 9.8875 11.4752 9.6125 11.4752C9.3375 11.4752 9.1 11.3752 8.9 11.1752C8.71667 10.9752 8.625 10.7377 8.625 10.4627C8.625 10.1877 8.71667 9.95853 8.9 9.7752L10.9 7.7752C11.1 7.5752 11.3375 7.4752 11.6125 7.4752C11.8875 7.4752 12.125 7.5752 12.325 7.7752C12.525 7.95853 12.625 8.19186 12.625 8.4752C12.625 8.75853 12.525 8.99186 12.325 9.1752L12.025 9.4752L13.1 10.5502L15.9 7.7502C16.1 7.5502 16.3375 7.4502 16.6125 7.4502C16.8875 7.4502 17.125 7.5502 17.325 7.7502C17.525 7.9502 17.625 8.1877 17.625 8.4627C17.625 8.7377 17.525 8.9752 17.325 9.1752L16.65 9.8252L18.2 11.3752L15.375 14.1752C15.1917 14.3752 15.1 14.6127 15.1 14.8877C15.1 15.1627 15.1917 15.4002 15.375 15.6002C15.575 15.8002 15.8125 15.9002 16.0875 15.9002C16.3625 15.9002 16.6 15.8002 16.8 15.6002L19.6 12.7752L21.125 14.2752L18.3 17.1002C18.1 17.3002 18 17.5377 18 17.8127C18 18.0877 18.1 18.3252 18.3 18.5252C18.4833 18.7085 18.7125 18.796 18.9875 18.7877C19.2625 18.7794 19.5 18.6835 19.7 18.5002L22.5 15.6752L24.025 17.2002C24.4083 17.5835 24.6 18.0544 24.6 18.6127C24.6 19.171 24.4083 19.6419 24.025 20.0252L23.325 20.7502L27.2 24.6002C27.3667 24.7669 27.4083 24.9502 27.325 25.1502C27.2417 25.3502 27.0833 25.4502 26.85 25.4502H25.825C25.625 25.4502 25.4292 25.4085 25.2375 25.3252C25.0458 25.2419 24.8833 25.1335 24.75 25.0002L21.9 22.1502L21.2 22.8752C20.8167 23.2585 20.3458 23.4502 19.7875 23.4502C19.2292 23.4502 18.7583 23.2585 18.375 22.8752L11 15.5002L10.325 16.1752C10.125 16.3585 9.8875 16.4502 9.6125 16.4502C9.3375 16.4502 9.1 16.3585 8.9 16.1752Z" fill="#FF5761"/>
</svg>
