<svg width="393" height="340" viewBox="0 0 393 340" fill="none" xmlns="http://www.w3.org/2000/svg">
<rect y="304" width="393" height="36" fill="white"/>
<g filter="url(#filter0_b_487_8097)">
<path d="M414.564 85.9341C415.781 89.6478 413.948 93.6371 410.394 95.0131L407.456 96.1504C405.181 97.0311 403.52 99.039 403.048 101.479L402.428 104.68C401.686 108.52 398.097 111.032 394.29 110.378L391.43 109.886C388.973 109.463 386.497 110.361 384.882 112.26L382.937 114.547C380.396 117.534 375.949 117.866 372.924 115.294L370.854 113.534C368.9 111.874 366.252 111.366 363.876 112.196L361.312 113.093C357.607 114.388 353.522 112.387 352.149 108.603L351.199 105.985C350.319 103.56 348.263 101.762 345.782 101.25L343.152 100.708C339.311 99.9149 336.746 96.1474 337.378 92.2262L337.862 89.2232C338.264 86.7297 337.371 84.1809 335.5 82.4833L333.322 80.5066C330.422 77.8759 330.036 73.4155 332.445 70.3919L334.453 67.8718C335.984 65.9506 336.439 63.3516 335.66 60.9742L334.654 57.9047C333.437 54.191 335.269 50.2017 338.823 48.8258L341.761 47.6885C344.037 46.8077 345.698 44.7998 346.17 42.3597L346.789 39.1592C347.532 35.3191 351.121 32.8064 354.927 33.4612L357.788 33.9532C360.244 34.3757 362.72 33.4778 364.335 31.5787L366.281 29.2915C368.821 26.3051 373.268 25.9733 376.293 28.5446L378.363 30.3045C380.317 31.9652 382.966 32.4731 385.341 31.6425L387.905 30.7462C391.61 29.4507 395.695 31.4522 397.068 35.2356L398.018 37.8534C398.898 40.2791 400.955 42.0765 403.436 42.5885L406.065 43.1312C409.907 43.924 412.471 47.6914 411.839 51.6126L411.355 54.6156C410.953 57.1091 411.846 59.6579 413.717 61.3555L415.896 63.3322C418.795 65.9629 419.181 70.4233 416.772 73.4469L414.764 75.967C413.233 77.8883 412.778 80.4873 413.558 82.8646L414.564 85.9341Z" fill="#0073FE" fill-opacity="0.4"/>
</g>
<g clip-path="url(#clip0_487_8097)">
<path d="M380.879 59.5727C381.311 59.4352 381.734 59.4678 382.148 59.6705C382.561 59.8732 382.853 60.1907 383.023 60.623L385.238 67.0381L387.622 66.16L387.385 65.4726C387.227 65.0144 387.246 64.5716 387.442 64.1443C387.638 63.717 387.958 63.4216 388.402 63.2582C388.834 63.1208 389.256 63.1534 389.67 63.3561C390.084 63.5588 390.363 63.8702 390.508 64.2902L392.09 68.8724C392.248 69.3306 392.229 69.7733 392.033 70.2007C391.836 70.628 391.516 70.9234 391.073 71.0867C390.654 71.2624 390.232 71.2458 389.806 71.0369C389.379 70.8281 389.1 70.5007 388.967 70.0548L388.729 69.3675L386.345 70.2456L388.559 76.6606C388.717 77.1188 388.698 77.5616 388.502 77.9889C388.306 78.4162 387.986 78.7116 387.542 78.875C387.099 79.0383 386.67 79.0187 386.256 78.816C385.842 78.6132 385.556 78.2828 385.398 77.8246L384.902 76.2965L381.464 77.5626L379.267 71.1088C379.097 70.6765 378.805 70.3589 378.392 70.1562C377.978 69.9535 377.555 69.9209 377.124 70.0584C376.68 70.2217 376.36 70.5171 376.164 70.9444C375.967 71.3718 375.948 71.8146 376.107 72.2728L378.359 78.7062L375.013 79.9703L372.779 73.498C372.621 73.0398 372.335 72.7094 371.921 72.5066C371.508 72.3039 371.079 72.2843 370.635 72.4476C370.229 72.5974 369.934 72.889 369.75 73.3225C369.566 73.756 369.541 74.1957 369.674 74.6416L371.926 81.075L368.543 82.3207C367.693 82.6339 366.848 82.5846 366.008 82.1731C365.168 81.7615 364.596 81.1166 364.293 80.2384L363.702 78.6162L355.144 81.7999C354.774 81.936 354.469 81.8656 354.227 81.5887C353.986 81.3118 353.949 80.992 354.115 80.6294L354.847 79.0366C354.989 78.7259 355.192 78.4522 355.454 78.2158C355.716 77.9794 355.995 77.8068 356.291 77.6978L362.612 75.3698L362.021 73.7477C361.718 72.8694 361.766 71.9965 362.164 71.1289C362.563 70.2612 363.187 69.6709 364.037 69.3577L380.396 63.3335L379.862 61.787C379.729 61.3411 379.761 60.9045 379.957 60.4771C380.153 60.0498 380.461 59.7483 380.879 59.5727Z" fill="white"/>
</g>
<path d="M20.875 19V17.9062L24.3066 14.4473C25.3936 13.3193 25.9336 12.6904 25.9336 11.8223C25.9336 10.8447 25.1406 10.2227 24.1016 10.2227C23.001 10.2227 22.3037 10.9199 22.2969 11.9727H20.875C20.8613 10.1611 22.2422 8.96484 24.1289 8.96484C26.0361 8.96484 27.3555 10.1748 27.3691 11.7812C27.3555 12.8887 26.8359 13.7705 24.9766 15.5957L22.9668 17.6328V17.7148H27.5332V19H20.875ZM32.2265 19.1367C29.9364 19.1367 28.5898 17.291 28.5898 14.0508C28.5898 10.8311 29.9501 8.96484 32.2265 8.96484C34.496 8.96484 35.8564 10.8311 35.8632 14.0508C35.8564 17.291 34.5165 19.1367 32.2265 19.1367ZM30.0937 14.0508C30.0868 16.5186 30.8866 17.8379 32.2265 17.8379C33.5595 17.8379 34.3593 16.5186 34.3593 14.0508C34.3593 11.5898 33.5527 10.2432 32.2265 10.2363C30.8935 10.2432 30.0937 11.5898 30.0937 14.0508ZM47.0916 7.91211V20.1621H45.8475V13.832H44.2616V19.5332H43.0721V8.1582H44.2616V12.7656H45.8475V7.91211H47.0916ZM36.9881 17.2227V9.38867H41.5819V10.4414H38.287V16.1152C39.7909 16.1084 40.9256 16.04 42.2381 15.7871L42.3338 16.8535C40.8641 17.1611 39.5926 17.209 37.8084 17.2227H36.9881ZM57.8005 7.91211V12.793H59.7009V13.873H57.8005V20.1484H56.5017V7.91211H57.8005ZM48.2712 16.8809C51.3406 15.3496 53.0086 13.1348 53.2752 10.2773H48.8865V9.19727H54.6013C54.5877 12.7383 53.0291 15.9033 48.9959 17.8926L48.2712 16.8809ZM72.7242 8.48633V9.40234C72.7311 10.3047 72.7311 11.3848 72.4439 12.8066H74.1461V13.8594H69.1695V15.9512H72.7789V20.1621H71.4801V16.9902H64.0836V15.9512H67.8707V13.8594H62.9352V12.8066H71.1383C71.4254 11.4326 71.4391 10.4141 71.4391 9.53906H64.3434V8.48633H72.7242ZM84.1577 7.91211V12.793H86.0581V13.873H84.1577V20.1484H82.8589V7.91211H84.1577ZM74.6284 16.8809C77.6978 15.3496 79.3657 13.1348 79.6323 10.2773H75.2437V9.19727H80.9585C80.9448 12.7383 79.3862 15.9033 75.353 17.8926L74.6284 16.8809ZM99.8334 7.91211V20.1621H98.5892V7.91211H99.8334ZM89.4291 13.2031C89.4291 10.5508 90.4681 8.88965 92.0677 8.89648C93.1136 8.88965 93.9203 9.58691 94.3578 10.7969H96.142V8.14453H97.3724V19.5605H96.142V15.6094H94.3646C93.9203 16.8262 93.1136 17.5303 92.0677 17.5234C90.4681 17.5303 89.4291 15.8623 89.4291 13.2031ZM90.6185 13.2031C90.6117 15.1514 91.1586 16.2998 92.0677 16.293C92.9701 16.2998 93.5443 15.1514 93.5443 13.2031C93.5443 11.248 92.9701 10.1064 92.0677 10.1133C91.1586 10.1064 90.6117 11.248 90.6185 13.2031ZM94.6312 11.8496C94.6996 12.2666 94.7337 12.7178 94.7337 13.2031C94.7337 13.6816 94.6996 14.1328 94.6312 14.543H96.142V11.8496H94.6312ZM106.646 15.541C109.168 15.541 110.706 16.3887 110.706 17.8379C110.706 19.3076 109.168 20.1553 106.646 20.1621C104.096 20.1553 102.531 19.3076 102.531 17.8379C102.531 16.3887 104.096 15.541 106.646 15.541ZM101.45 14.3652V8.67773H102.722V10.4414H105.935V8.67773H107.22V14.3652H101.45ZM102.722 13.3262H105.935V11.4668H102.722V13.3262ZM103.829 17.8379C103.823 18.6582 104.875 19.123 106.646 19.123C108.403 19.123 109.442 18.6582 109.435 17.8379C109.442 17.0244 108.403 16.5664 106.646 16.5664C104.875 16.5664 103.823 17.0244 103.829 17.8379ZM109.298 15.2266V7.91211H110.597V10.9062H112.374V12.0137H110.597V15.2266H109.298ZM122.851 7.91211V14.584H121.566V11.877H119.269V10.8105H121.566V7.91211H122.851ZM112.665 13.7637C114.545 13.1074 115.721 11.501 115.714 9.8125V9.64844H113.062V8.5957H119.665V9.64844H117.04V9.82617C117.033 11.3438 118.141 12.8818 119.993 13.5039L119.323 14.5156C117.943 14.0234 116.931 13.0527 116.398 11.8496C115.864 13.1963 114.791 14.2764 113.335 14.7891L112.665 13.7637ZM114.88 20.0117V15.1309H116.165V16.5391H121.566V15.1309H122.851V20.0117H114.88ZM116.165 18.959H121.566V17.5508H116.165V18.959ZM130.552 12.2734V13.9277H135.501V14.9941H124.331V13.9277H129.267V12.2734H130.552ZM124.905 11.8906C127.12 11.665 128.857 10.6943 129.034 9.51172H125.357V8.47266H134.503V9.51172H130.784C130.969 10.6875 132.705 11.665 134.927 11.8906L134.462 12.916C132.336 12.6699 130.579 11.7949 129.909 10.5029C129.239 11.7949 127.496 12.6699 125.37 12.916L124.905 11.8906ZM125.657 18.0156C125.657 16.6416 127.243 15.8828 129.909 15.8828C132.555 15.8828 134.127 16.6416 134.134 18.0156C134.127 19.3828 132.555 20.1416 129.909 20.1348C127.243 20.1416 125.657 19.3828 125.657 18.0156ZM126.97 18.0156C126.963 18.7471 128.016 19.1504 129.909 19.1504C131.776 19.1504 132.835 18.7471 132.835 18.0156C132.835 17.2842 131.776 16.8877 129.909 16.8809C128.016 16.8877 126.963 17.2842 126.97 18.0156ZM143.52 11.5215C143.514 13.5723 144.86 15.6914 146.747 16.498L146.036 17.5098C144.594 16.874 143.445 15.5205 142.878 13.8867C142.311 15.6367 141.162 17.127 139.733 17.8242L138.981 16.7988C140.827 15.9307 142.194 13.6338 142.208 11.5215V10.2227H139.405V9.14258H146.31V10.2227H143.52V11.5215ZM147.854 20.1621V7.91211H149.153V20.1621H147.854ZM160.874 7.92578V17.209H159.575V16.0332H157.114V15.1172H159.575V7.92578H160.874ZM150.634 13.5176C152.896 13.4971 155.952 13.4766 158.563 13.1484L158.645 14.0781C157.599 14.2559 156.499 14.3652 155.419 14.4404V16.8262H154.12V14.5088C152.931 14.5566 151.789 14.5566 150.798 14.5566L150.634 13.5176ZM151.591 10.5508C151.584 9.25195 152.821 8.39062 154.64 8.39062C156.431 8.39062 157.675 9.25195 157.675 10.5508C157.675 11.8564 156.431 12.6836 154.64 12.6836C152.828 12.6836 151.584 11.8564 151.591 10.5508ZM152.329 19.9023V16.3066H153.614V18.8496H161.175V19.9023H152.329ZM152.821 10.5508C152.814 11.2754 153.553 11.7266 154.64 11.7266C155.685 11.7266 156.437 11.2754 156.444 10.5508C156.437 9.81934 155.685 9.34766 154.64 9.36133C153.553 9.34766 152.814 9.81934 152.821 10.5508ZM169.618 11.0293C169.604 13.1963 170.869 15.418 172.694 16.3066L171.887 17.3457C170.554 16.6484 169.522 15.2812 168.982 13.6475C168.435 15.3838 167.362 16.8535 165.967 17.5781L165.161 16.5254C167.041 15.623 168.312 13.2715 168.319 11.0293V8.9375H169.618V11.0293ZM173.61 20.1621V7.91211H174.909V12.793H176.878V13.9004H174.909V20.1621H173.61ZM180.436 8.47266C182.049 8.45898 183.3 9.39551 183.567 10.7695H185.96V7.91211H187.258V14.4883H185.96V11.8359H183.574C183.321 13.2441 182.063 14.1875 180.436 14.1875C178.563 14.1875 177.216 13.0049 177.223 11.3164C177.216 9.64844 178.563 8.45898 180.436 8.47266ZM178.467 11.3164C178.461 12.3623 179.281 13.0938 180.436 13.0938C181.571 13.0938 182.378 12.3623 182.378 11.3164C182.378 10.2637 181.571 9.5459 180.436 9.55273C179.281 9.5459 178.461 10.2637 178.467 11.3164ZM179.274 20.0117V15.0762H180.559V16.498H185.96V15.0762H187.258V20.0117H179.274ZM180.559 18.9453H185.96V17.5234H180.559V18.9453ZM194.303 8.11719C197.065 8.11035 198.671 8.85547 198.678 10.2227C198.671 11.5967 197.065 12.3418 194.303 12.3418C191.542 12.3418 189.921 11.5967 189.928 10.2227C189.921 8.85547 191.542 8.11035 194.303 8.11719ZM188.725 14.1328V13.0938H199.895V14.1328H188.725ZM190.065 16.0469V15.0762H198.487V17.9473H191.35V19.041H198.829V20.0391H190.079V17.0039H197.202V16.0469H190.065ZM191.282 10.2227C191.275 10.9814 192.355 11.3711 194.303 11.3711C196.265 11.3711 197.345 10.9814 197.338 10.2227C197.345 9.49805 196.265 9.07422 194.303 9.07422C192.355 9.07422 191.275 9.49805 191.282 10.2227ZM214.573 14.3516V15.377H203.375V14.3516H208.325V13.2852H204.838V8.24023H213.205V9.26562H206.151V10.2637H212.891V11.2344H206.151V12.2734H213.288V13.2852H209.623V14.3516H214.573ZM204.729 18.166C204.729 16.8809 206.253 16.1768 208.981 16.1836C211.667 16.1768 213.199 16.8809 213.205 18.166C213.199 19.458 211.667 20.1416 208.981 20.1348C206.253 20.1416 204.729 19.458 204.729 18.166ZM206.028 18.166C206.021 18.8291 207.046 19.1641 208.981 19.1504C210.888 19.1641 211.907 18.8291 211.907 18.166C211.907 17.5029 210.888 17.1543 208.981 17.1543C207.046 17.1543 206.021 17.5029 206.028 18.166ZM221.139 9.93555V10.9883H215.055V9.93555H217.461V8.26758H218.746V9.93555H221.139ZM215.451 14.543C215.445 12.8955 216.566 11.7266 218.104 11.7266C219.656 11.7266 220.763 12.8955 220.77 14.543C220.763 16.2178 219.656 17.3936 218.104 17.3867C216.566 17.3936 215.445 16.2178 215.451 14.543ZM216.6 14.543C216.593 15.582 217.222 16.2793 218.104 16.2793C218.986 16.2793 219.621 15.582 219.621 14.543C219.621 13.5244 218.986 12.8135 218.104 12.8066C217.222 12.8135 216.593 13.5244 216.6 14.543ZM221.7 19.5879V8.18555H222.93V13.0117H224.338V7.91211H225.569V20.1621H224.338V14.0781H222.93V19.5879H221.7Z" fill="white" fill-opacity="0.6"/>
<path d="M28.9062 40.6406C28.8945 44.0859 30.6758 47.7773 34.25 49.2656L32.6328 51.6094C30.125 50.543 28.3906 48.4219 27.4297 45.8438C26.4688 48.6445 24.6992 50.9883 22.1797 52.1484L20.4688 49.7812C24.0078 48.1992 25.8359 44.25 25.8359 40.6406V39.3281H21.3125V36.8906H33.3594V39.3281H28.9062V40.6406ZM35.4688 56.1562V34.8281H38.4922V56.1562H35.4688ZM57.8581 35.7891V37.5C57.8698 39.1641 57.8698 41.0039 57.3542 43.4531H60.1784V45.8672H40.655V43.4531H54.3425C54.7995 41.332 54.8581 39.6797 54.8816 38.1797H43.0456V35.7891H57.8581ZM42.9753 55.9219V48.1172H57.7878V55.9219H42.9753ZM45.905 53.5312H54.8113V50.4609H45.905V53.5312ZM73.7619 40.6406C73.7502 44.0859 75.5314 47.7773 79.1056 49.2656L77.4884 51.6094C74.9806 50.543 73.2463 48.4219 72.2853 45.8438C71.3244 48.6445 69.5548 50.9883 67.0353 52.1484L65.3244 49.7812C68.8634 48.1992 70.6916 44.25 70.6916 40.6406V39.3281H66.1681V36.8906H78.215V39.3281H73.7619V40.6406ZM80.3244 56.1562V34.8281H83.3478V56.1562H80.3244ZM103.581 34.8516V50.9531H100.581V49.2656H96.5028V47.2266H100.581V34.8516H103.581ZM85.4403 44.2969C89.3427 44.2734 94.6161 44.2148 99.1278 43.6641L99.2919 45.7969C97.6044 46.0781 95.8583 46.2773 94.1356 46.4062V50.4609H91.1356V53.3906H104.05V55.7812H88.1591V49.4062H91.1356V46.582C89.2255 46.6523 87.4091 46.6641 85.7919 46.6641L85.4403 44.2969ZM87.0106 39.3984C87.0106 37.125 89.202 35.5664 92.3778 35.5781C95.4716 35.5664 97.6864 37.125 97.6981 39.3984C97.6864 41.6836 95.4716 43.1602 92.3778 43.1484C89.202 43.1602 87.0106 41.6836 87.0106 39.3984ZM89.8466 39.3984C89.8348 40.4297 90.8544 41.0039 92.3778 40.9922C93.8075 41.0039 94.8388 40.4297 94.8622 39.3984C94.8388 38.3438 93.8075 37.7578 92.3778 37.7578C90.8544 37.7578 89.8348 38.3438 89.8466 39.3984ZM122.455 34.8281V39.6797H125.338V42.1406H122.455V47.2734H119.455V34.8281H122.455ZM106.166 46.2188V36.0703H109.142V38.7891H113.502V36.0703H116.502V46.2188H106.166ZM108.509 55.875V48.2344H122.572V50.6016H111.486V53.5312H122.97V55.875H108.509ZM109.142 43.875H113.502V41.1094H109.142V43.875ZM135.282 35.1328C140.192 35.1328 143.028 36.4219 143.039 38.7656C143.028 41.1445 140.192 42.4219 135.282 42.4219C130.36 42.4219 127.5 41.1445 127.5 38.7656C127.5 36.4219 130.36 35.1328 135.282 35.1328ZM125.555 45.7969V43.4297H145.008V45.7969H125.555ZM127.805 49.2188V47.0391H142.641V52.4766H130.758V53.7656H143.203V56.0156H127.828V50.3906H139.688V49.2188H127.805ZM130.641 38.7656C130.629 39.8086 132.153 40.2188 135.282 40.2188C138.434 40.2188 139.946 39.8086 139.946 38.7656C139.946 37.8164 138.434 37.3125 135.282 37.3125C132.153 37.3125 130.629 37.8164 130.641 38.7656ZM161.709 36.4922C161.697 39.0117 164.275 41.7891 169.162 42.3984L167.99 44.8125C164.263 44.2734 161.533 42.5508 160.138 40.2422C158.732 42.5391 156.013 44.2734 152.334 44.8125L151.138 42.3984C155.99 41.7891 158.556 39.0117 158.568 36.4922V35.4609H161.709V36.4922ZM150.388 48.8672V46.4297H169.842V48.8672H161.545V56.1562H158.592V48.8672H150.388ZM182.98 48.5156C182.98 50.2266 183.706 52.0078 185.429 53.1797C187.198 51.9258 187.972 50.0977 187.972 48.5156V47.7891H190.925V48.5156C190.902 50.7422 192.085 52.793 194.933 53.6719L193.48 55.8516C191.441 55.1602 190.105 53.8594 189.366 52.207C188.663 53.8594 187.421 55.2891 185.511 56.0391C183.507 55.3125 182.253 53.9297 181.562 52.2891C180.8 53.8711 179.488 55.1602 177.542 55.8516L176.066 53.6719C178.866 52.7109 180.062 50.5898 180.073 48.5156V47.7891H182.98V48.5156ZM175.55 41.0625C175.55 38.0391 178.058 35.9297 181.386 35.9297C184.702 35.9297 187.21 38.0391 187.222 41.0625C187.21 44.0273 184.702 46.1602 181.386 46.1484C178.058 46.1602 175.55 44.0273 175.55 41.0625ZM178.48 41.0625C178.456 42.668 179.675 43.6758 181.386 43.6641C183.05 43.6758 184.257 42.668 184.269 41.0625C184.257 39.4102 183.05 38.4375 181.386 38.4375C179.675 38.4375 178.456 39.4102 178.48 41.0625ZM190.081 46.8984V34.8516H193.081V46.8984H190.081ZM212.564 40.6406V42.9844H197.658V35.5781H200.635V40.6406H212.564ZM195.221 47.625V45.2812H214.744V47.625H195.221ZM197.471 55.6875V49.3594H200.471V53.2969H212.705V55.6875H197.471ZM137.321 64.8281V86.2031H134.297V64.8281H137.321ZM120.094 73.9219C120.082 69.2695 122.461 66.3281 125.743 66.3281C128.953 66.3281 131.344 69.2695 131.344 73.9219C131.344 78.6094 128.953 81.5391 125.743 81.5391C122.461 81.5391 120.082 78.6094 120.094 73.9219ZM122.977 73.9219C122.965 77.0977 124.078 78.832 125.743 78.8203C127.36 78.832 128.45 77.0977 128.461 73.9219C128.45 70.7578 127.36 69.0234 125.743 69.0234C124.078 69.0234 122.965 70.7578 122.977 73.9219ZM152.052 78.5156C152.052 80.2266 152.779 82.0078 154.502 83.1797C156.271 81.9258 157.045 80.0977 157.045 78.5156V77.7891H159.998V78.5156C159.974 80.7422 161.158 82.793 164.006 83.6719L162.552 85.8516C160.513 85.1602 159.177 83.8594 158.439 82.207C157.736 83.8594 156.494 85.2891 154.584 86.0391C152.58 85.3125 151.326 83.9297 150.635 82.2891C149.873 83.8711 148.56 85.1602 146.615 85.8516L145.138 83.6719C147.939 82.7109 149.135 80.5898 149.146 78.5156V77.7891H152.052V78.5156ZM144.623 71.0625C144.623 68.0391 147.131 65.9297 150.459 65.9297C153.775 65.9297 156.283 68.0391 156.295 71.0625C156.283 74.0273 153.775 76.1602 150.459 76.1484C147.131 76.1602 144.623 74.0273 144.623 71.0625ZM147.552 71.0625C147.529 72.668 148.748 73.6758 150.459 73.6641C152.123 73.6758 153.33 72.668 153.342 71.0625C153.33 69.4102 152.123 68.4375 150.459 68.4375C148.748 68.4375 147.529 69.4102 147.552 71.0625ZM159.154 76.8984V64.8516H162.154V76.8984H159.154ZM170.2 66.3281C173.083 66.3281 175.239 68.6953 175.661 72.5391H179.364V64.8281H182.317V86.2031H179.364V74.9297H175.696C175.379 79.0312 173.176 81.5391 170.2 81.5391C166.965 81.5391 164.645 78.6094 164.668 73.9219C164.645 69.2695 166.965 66.3281 170.2 66.3281ZM167.528 73.9219C167.516 77.0977 168.606 78.832 170.2 78.8203C171.805 78.832 172.872 77.0977 172.872 73.9219C172.872 70.7578 171.805 69.0234 170.2 69.0234C168.606 69.0234 167.516 70.7578 167.528 73.9219ZM203.863 81.2109V83.6719H184.339V81.2109H188.698V75.9844C187.046 74.9883 186.05 73.4766 186.05 71.6016C186.05 68.1445 189.425 65.8711 194.066 65.8594C198.683 65.8711 202.093 68.1445 202.105 71.6016C202.093 73.4414 201.132 74.9297 199.527 75.9258V81.2109H203.863ZM189.003 71.6016C189.003 73.6875 191.007 74.9766 194.066 74.9766C197.077 74.9766 199.14 73.6875 199.152 71.6016C199.14 69.457 197.077 68.2148 194.066 68.2266C191.007 68.2148 189.003 69.457 189.003 71.6016ZM191.652 81.2109H196.503V77.0625C195.741 77.2148 194.921 77.2969 194.066 77.2969C193.21 77.2969 192.402 77.2148 191.652 77.0742V81.2109Z" fill="#E5F0FF" fill-opacity="0.8"/>
<path d="M21.3359 84L21.3125 81.4453L27.4062 75.8438C28.9883 74.332 29.8438 73.3945 29.8438 72.0469C29.8438 70.5352 28.707 69.5977 27.1484 69.6094C25.5547 69.5977 24.5117 70.6055 24.5234 72.2344H21.1719C21.1602 68.918 23.6211 66.7969 27.1953 66.7969C30.8281 66.7969 33.2422 68.8711 33.2422 71.8125C33.2422 73.7461 32.3047 75.3281 28.8125 78.4922L26.2344 81V81.0938H33.4766V84H21.3359ZM52.9597 64.8281V86.1562H50.0769V75.3047H48.1316V85.2188H45.3425V65.3906H48.1316V72.9141H50.0769V64.8281H52.9597ZM34.3034 79.7109C38.6511 77.1562 40.5261 74.0273 40.9245 69.8438H35.3816V67.4531H43.8425C43.8308 73.4062 42.0495 78.2812 36.0378 81.7734L34.3034 79.7109ZM61.4975 66.2578C64.8842 66.2461 67.392 68.4258 67.4038 71.4844C67.392 74.5547 64.8842 76.7227 61.4975 76.7344C58.1342 76.7227 55.5561 74.5547 55.5678 71.4844C55.5561 68.4258 58.1342 66.2461 61.4975 66.2578ZM54.6772 79.4062C58.4858 79.418 63.7592 79.3711 68.3178 78.7266L68.5522 80.8828C63.8178 81.8086 58.7553 81.8438 55.0288 81.8438L54.6772 79.4062ZM58.5444 71.4844C58.5327 73.1719 59.81 74.1445 61.4975 74.1328C63.1967 74.1445 64.4858 73.1719 64.4975 71.4844C64.4858 69.8203 63.1967 68.8359 61.4975 68.8359C59.81 68.8359 58.5327 69.8203 58.5444 71.4844ZM69.5366 86.2031V64.8281H72.5131V86.2031H69.5366ZM83.0028 66.1641V69.2109H85.9091V66.1641H88.6747V76.5H80.1669V66.1641H83.0028ZM83.0028 81.0469V78.6562H97.745V86.1562H94.7684V81.0469H83.0028ZM83.0028 74.1328H85.9091V71.4844H83.0028V74.1328ZM90.3387 77.5781V65.2266H93.1278V70.0547H94.9091V64.8516H97.745V77.6953H94.9091V72.4688H93.1278V77.5781H90.3387ZM117.298 64.8516V80.4141H114.298V64.8516H117.298ZM99.3688 75.1406C102.943 73.9453 104.502 70.9805 104.502 68.0859V66.0234H107.619V68.0859C107.595 70.9102 109.107 73.6641 112.611 74.7891L111.088 77.1328C108.673 76.3359 107.021 74.7422 106.072 72.7148C105.111 74.8945 103.412 76.6523 100.916 77.5078L99.3688 75.1406ZM103.002 85.7812V78.9141H106.025V83.3906H117.861V85.7812H103.002Z" fill="white"/>
<path d="M296.834 88.1048C296.834 78.1058 288.707 70 278.682 70C268.657 70 260.53 78.1058 260.53 88.1048V112.821C260.53 122.82 268.657 130.926 278.682 130.926C288.707 130.926 296.834 122.82 296.834 112.821V88.1048Z" fill="white"/>
<path d="M353.143 88.1043C353.143 78.1053 345.016 69.9995 334.991 69.9995C324.966 69.9995 316.839 78.1053 316.839 88.1043V112.821C316.839 122.82 324.966 130.926 334.991 130.926C345.016 130.926 353.143 122.82 353.143 112.821V88.1043Z" fill="white"/>
<path d="M291.508 89.7634C291.508 82.6974 285.766 76.9692 278.682 76.9692C271.598 76.9692 265.855 82.6974 265.855 89.7634V107.232C265.855 114.298 271.598 120.026 278.682 120.026C285.766 120.026 291.508 114.298 291.508 107.232V89.7634Z" fill="#E9ECF2"/>
<path d="M347.817 89.7634C347.817 82.6974 342.074 76.9692 334.99 76.9692C327.906 76.9692 322.164 82.6974 322.164 89.7634V107.232C322.164 114.298 327.906 120.026 334.99 120.026C342.074 120.026 347.817 114.298 347.817 107.232V89.7634Z" fill="#E9ECF2"/>
<path d="M298.49 78.877H315.191C336.142 78.877 353.151 95.8382 353.151 116.731V234.816H260.53V116.731C260.53 95.8382 277.539 78.877 298.49 78.877Z" fill="white"/>
<path d="M312.337 118.868C312.337 120.74 309.728 123.142 306.897 123.142C304.066 123.142 301.772 120.74 301.772 118.868C301.772 116.995 304.066 115.473 306.897 115.473C309.728 115.473 312.337 116.988 312.337 118.868Z" fill="black"/>
<path d="M309.24 117.639C309.14 117.767 309.04 117.91 309.018 118.068C308.997 118.253 309.083 118.439 309.162 118.611C309.527 119.347 309.914 120.119 310.581 120.598C311.577 121.32 313.061 121.198 314.014 120.412C314.107 120.333 314.193 120.248 314.243 120.14C314.301 119.99 314.265 119.819 314.265 119.654C314.258 119.197 314.516 118.775 314.559 118.325C314.666 117.174 313.548 115.952 312.473 115.773C311.219 115.559 309.979 116.709 309.24 117.639Z" fill="black"/>
<path d="M312.259 115.216C312.23 115.101 312.194 114.98 312.116 114.894C312.022 114.794 311.879 114.766 311.743 114.73C311.162 114.601 310.553 114.48 309.98 114.637C309.119 114.873 308.525 115.766 308.546 116.653C308.546 116.738 308.553 116.831 308.596 116.903C308.654 117.003 308.768 117.06 308.861 117.131C309.119 117.332 309.248 117.667 309.485 117.896C310.087 118.475 311.284 118.389 311.872 117.868C312.56 117.253 312.46 116.038 312.266 115.209L312.259 115.216Z" fill="black"/>
<path d="M305.758 114.158C305.622 114.251 305.478 114.351 305.407 114.494C305.321 114.665 305.342 114.873 305.371 115.058C305.478 115.88 305.593 116.745 306.073 117.424C306.79 118.446 308.252 118.811 309.414 118.368C309.528 118.325 309.643 118.275 309.722 118.182C309.829 118.053 309.851 117.882 309.901 117.724C310.044 117.288 310.431 116.967 310.618 116.545C311.105 115.48 310.431 113.943 309.464 113.422C308.331 112.807 306.769 113.5 305.758 114.151V114.158Z" fill="black"/>
<path d="M305.133 112.979C304.976 112.95 304.804 112.928 304.653 112.986C304.474 113.05 304.352 113.214 304.245 113.372C303.764 114.036 303.27 114.737 303.162 115.552C302.997 116.767 303.8 118.01 304.94 118.468C305.047 118.511 305.169 118.554 305.284 118.539C305.449 118.518 305.578 118.411 305.721 118.332C306.122 118.11 306.61 118.139 307.033 117.96C308.101 117.517 308.646 115.959 308.301 114.937C307.9 113.736 306.309 113.193 305.141 112.986L305.133 112.979Z" fill="black"/>
<path d="M305.514 114.458C305.457 114.301 305.385 114.144 305.256 114.036C305.105 113.915 304.905 113.893 304.711 113.872C303.88 113.793 303.013 113.722 302.238 114.036C301.084 114.508 300.403 115.852 300.583 117.081C300.597 117.203 300.626 117.324 300.697 117.424C300.798 117.56 300.963 117.617 301.106 117.703C301.5 117.939 301.729 118.382 302.102 118.661C303.041 119.369 304.69 119.047 305.414 118.225C306.267 117.26 305.93 115.587 305.514 114.458Z" fill="black"/>
<path d="M304.389 115.53C304.288 115.344 304.167 115.151 303.98 115.044C303.765 114.916 303.5 114.93 303.249 114.937C302.167 114.994 301.041 115.066 300.11 115.616C298.719 116.445 298.103 118.289 298.569 119.84C298.612 119.99 298.669 120.14 298.784 120.255C298.934 120.405 299.164 120.448 299.364 120.534C299.916 120.762 300.296 121.284 300.819 121.57C302.152 122.299 304.21 121.57 304.984 120.383C305.887 118.983 305.141 116.895 304.389 115.53Z" fill="black"/>
<path d="M299.723 119.447C299.594 119.576 299.465 119.719 299.422 119.897C299.371 120.105 299.443 120.319 299.515 120.519C299.823 121.384 300.16 122.292 300.834 122.914C301.851 123.843 303.514 123.9 304.668 123.149C304.783 123.078 304.891 122.992 304.955 122.878C305.041 122.713 305.027 122.52 305.041 122.342C305.091 121.834 305.435 121.398 305.543 120.898C305.815 119.633 304.726 118.132 303.557 117.789C302.188 117.389 300.662 118.504 299.723 119.447Z" fill="black"/>
<path d="M302.418 120.098C302.26 120.162 302.102 120.233 302.002 120.369C301.887 120.526 301.866 120.727 301.859 120.92C301.808 121.756 301.758 122.628 302.102 123.393C302.618 124.536 303.987 125.172 305.227 124.958C305.349 124.936 305.471 124.908 305.564 124.829C305.693 124.722 305.751 124.558 305.829 124.408C306.052 124 306.496 123.757 306.761 123.378C307.442 122.413 307.069 120.777 306.217 120.076C305.213 119.254 303.543 119.647 302.418 120.098Z" fill="black"/>
<path d="M303.622 122.942C303.543 123.107 303.471 123.278 303.485 123.457C303.507 123.664 303.643 123.843 303.772 124C304.338 124.701 304.948 125.43 305.779 125.787C307.026 126.323 308.582 125.83 309.406 124.758C309.485 124.651 309.564 124.543 309.585 124.408C309.614 124.229 309.535 124.057 309.492 123.879C309.37 123.393 309.549 122.878 309.485 122.385C309.327 121.12 307.822 120.09 306.632 120.155C305.234 120.233 304.188 121.763 303.622 122.935V122.942Z" fill="black"/>
<path d="M309.915 120.319C309.829 120.233 309.735 120.148 309.614 120.119C309.477 120.083 309.334 120.133 309.198 120.183C308.624 120.391 308.022 120.612 307.614 121.055C306.997 121.727 306.962 122.828 307.463 123.586C307.513 123.657 307.571 123.736 307.643 123.771C307.75 123.829 307.879 123.814 308.001 123.829C308.338 123.864 308.624 124.086 308.954 124.157C309.793 124.336 310.789 123.614 311.011 122.842C311.277 121.942 310.531 120.934 309.907 120.319H309.915Z" fill="black"/>
<path d="M308.639 120.348C308.553 120.462 308.467 120.584 308.446 120.727C308.424 120.891 308.503 121.055 308.575 121.205C308.897 121.849 309.248 122.521 309.836 122.942C310.718 123.571 312.022 123.45 312.847 122.756C312.926 122.692 313.004 122.613 313.047 122.513C313.098 122.378 313.069 122.228 313.062 122.085C313.055 121.684 313.277 121.313 313.313 120.912C313.399 119.897 312.409 118.832 311.463 118.682C310.359 118.504 309.277 119.519 308.639 120.348Z" fill="black"/>
<path d="M310.61 117.003C310.474 117.053 310.338 117.11 310.245 117.224C310.137 117.353 310.116 117.532 310.101 117.696C310.03 118.418 309.965 119.176 310.245 119.848C310.661 120.848 311.829 121.441 312.904 121.291C313.012 121.277 313.119 121.256 313.198 121.191C313.313 121.105 313.37 120.963 313.442 120.834C313.649 120.491 314.036 120.291 314.28 119.969C314.897 119.154 314.624 117.718 313.9 117.089C313.055 116.345 311.592 116.638 310.61 116.996V117.003Z" fill="black"/>
<path d="M283.356 125.027C288.797 135.802 302.934 138.994 313.828 136.165C321.049 134.287 331.158 127.679 330.979 119.12C330.934 116.825 327.35 116.99 327.4 119.294C327.54 126.122 318.211 131.345 312.731 132.763C303.251 135.213 291.081 132.453 286.376 123.117C285.337 121.061 282.321 122.986 283.347 125.032L283.356 125.027Z" fill="black"/>
<path d="M294.375 103.236H294.368C292.904 103.236 291.716 104.42 291.716 105.881V109.226C291.716 110.687 292.904 111.871 294.368 111.871H294.375C295.84 111.871 297.027 110.687 297.027 109.226V105.881C297.027 104.42 295.84 103.236 294.375 103.236Z" fill="black"/>
<path d="M315.692 103.236H315.685C314.22 103.236 313.033 104.42 313.033 105.881V109.226C313.033 110.687 314.22 111.871 315.685 111.871H315.692C317.157 111.871 318.344 110.687 318.344 109.226V105.881C318.344 104.42 317.157 103.236 315.692 103.236Z" fill="black"/>
<path d="M260.707 157C260.707 157 263.992 172.743 240.944 210.661C217.896 248.58 222.345 304 222.345 304H353V199.827L260.714 157H260.707Z" fill="white"/>
<path d="M188.352 102.15L186.77 103.25C185.959 103.814 185.76 104.928 186.326 105.737L224.03 159.634C224.597 160.443 225.714 160.641 226.525 160.077L228.107 158.977C228.918 158.412 229.117 157.298 228.551 156.489L190.847 102.593C190.28 101.783 189.163 101.585 188.352 102.15Z" fill="#3D3F4D"/>
<path d="M228.872 149.947L217.768 157.672C216.742 158.386 216.49 159.794 217.206 160.817L228.836 177.442C229.552 178.465 230.964 178.716 231.99 178.002L243.094 170.277C244.12 169.563 244.372 168.155 243.656 167.132L232.026 150.507C231.31 149.484 229.898 149.233 228.872 149.947Z" fill="#69AFEE"/>
<path d="M318.049 277.423L306.944 285.148C305.918 285.862 305.667 287.27 306.382 288.293L326.506 317.058C327.221 318.081 328.633 318.332 329.659 317.618L340.764 309.893C341.79 309.18 342.041 307.772 341.326 306.749L321.202 277.983C320.487 276.96 319.075 276.709 318.049 277.423Z" fill="#3B80D3"/>
<path d="M242.18 155.798L218.683 172.144C217.657 172.857 217.406 174.265 218.121 175.288L229.752 191.913C230.467 192.936 231.879 193.187 232.905 192.474L256.402 176.128C257.428 175.414 257.679 174.006 256.964 172.983L245.333 156.358C244.618 155.335 243.206 155.084 242.18 155.798Z" fill="#3B80D3"/>
<path d="M226.582 187.582L253.97 168.529C258.467 165.4 264.658 166.505 267.792 170.984L334.637 266.536L290.965 296.917L224.119 201.365C220.982 196.88 222.09 190.706 226.582 187.582Z" fill="#E1F4FF"/>
<path d="M333.275 260.199L285.476 293.451C284.45 294.165 284.199 295.573 284.914 296.596L291.066 305.389C291.781 306.412 293.193 306.663 294.219 305.949L342.018 272.697C343.044 271.984 343.296 270.576 342.58 269.553L336.428 260.76C335.713 259.737 334.301 259.486 333.275 260.199Z" fill="#6DB2F8"/>
<path d="M353.421 289.017L305.622 322.268C304.597 322.982 304.345 324.39 305.061 325.413L311.212 334.206C311.928 335.229 313.34 335.48 314.366 334.766L362.165 301.515C363.191 300.801 363.442 299.393 362.726 298.37L356.575 289.577C355.859 288.554 354.447 288.303 353.421 289.017Z" fill="#6DB2F8"/>
<path d="M274.394 180.422L277.548 184.93L260.147 197.035C259.336 197.599 258.218 197.4 257.652 196.591L256.549 195.015C255.983 194.206 256.182 193.091 256.993 192.527L274.394 180.422Z" fill="#AAC5E2"/>
<path d="M319.819 245.374L322.973 249.881L305.572 261.986C304.761 262.551 303.643 262.352 303.077 261.543L301.974 259.966C301.408 259.157 301.607 258.043 302.419 257.478L319.819 245.374Z" fill="#AAC5E2"/>
<path d="M297.107 212.89L300.261 217.398L275.5 234.622C274.689 235.187 273.571 234.988 273.005 234.179L271.902 232.602C271.336 231.793 271.535 230.679 272.346 230.114L297.107 212.89Z" fill="#AAC5E2"/>
<path d="M285.749 196.661L288.903 201.169L276.805 209.585C275.994 210.149 274.876 209.951 274.31 209.142L273.207 207.565C272.641 206.756 272.84 205.641 273.651 205.077L285.749 196.661Z" fill="#AAC5E2"/>
<path d="M308.465 229.134L311.619 233.642L299.521 242.058C298.709 242.623 297.592 242.424 297.026 241.615L295.923 240.038C295.357 239.229 295.556 238.115 296.367 237.55L308.465 229.134Z" fill="#AAC5E2"/>
<path d="M218.477 268.917C218.477 268.917 182.868 245.409 231.013 199.393C279.159 153.377 288.19 209.399 269.131 227.404C250.072 245.409 242.546 284.921 242.546 284.921L218.47 268.917H218.477Z" fill="white"/>
<path d="M368.173 217.505C368.173 217.505 391.21 248.475 335.983 272.82C280.756 297.164 290.411 246.702 312.208 237.246C334.005 227.783 352.641 196.469 352.641 196.469L368.181 217.505H368.173Z" fill="white"/>
<g filter="url(#filter1_b_487_8097)">
<path d="M203.186 202.602C206.86 201.203 211.003 203.095 212.474 206.842L213.382 209.154C214.326 211.557 216.432 213.299 218.929 213.743L221.283 214.162C225.147 214.849 227.813 218.546 227.283 222.483L226.915 225.216C226.577 227.718 227.537 230.241 229.452 231.888L231.467 233.619C234.433 236.169 234.937 240.613 232.609 243.699L230.829 246.059C229.35 248.019 228.964 250.626 229.804 252.978L230.797 255.763C232.109 259.438 230.384 263.469 226.87 264.942L224.207 266.057C221.957 267 220.351 269.049 219.943 271.497L219.452 274.447C218.809 278.302 215.288 280.908 211.466 280.359L208.87 279.986C206.402 279.631 203.95 280.596 202.385 282.538L200.676 284.659C198.215 287.715 193.773 288.167 190.68 285.677L188.796 284.161C186.797 282.553 184.132 282.117 181.776 283.014L179.51 283.877C175.836 285.275 171.693 283.384 170.221 279.636L169.314 277.325C168.37 274.922 166.264 273.179 163.767 272.735L161.413 272.317C157.548 271.63 154.882 267.932 155.413 263.995L155.781 261.262C156.118 258.76 155.159 256.237 153.243 254.591L151.229 252.86C148.262 250.31 147.759 245.866 150.086 242.78L151.867 240.419C153.345 238.459 153.732 235.853 152.892 233.5L151.898 230.716C150.587 227.04 152.312 223.009 155.826 221.537L158.489 220.421C160.738 219.479 162.344 217.43 162.753 214.981L163.244 212.032C163.887 208.177 167.407 205.57 171.23 206.12L173.826 206.493C176.293 206.847 178.746 205.882 180.31 203.94L182.019 201.819C184.481 198.764 188.923 198.312 192.016 200.801L193.9 202.317C195.899 203.926 198.564 204.361 200.92 203.465L203.186 202.602Z" fill="#90C9F6" fill-opacity="0.4"/>
<path d="M196.607 245.835C195.886 247.519 192.641 248.619 190.122 247.469C187.602 246.319 186.486 243.228 187.206 241.544C187.927 239.86 190.554 239.422 193.073 240.572C195.592 241.722 197.33 244.145 196.607 245.835Z" fill="white"/>
<path d="M194.326 243.472C194.187 243.547 194.043 243.635 193.963 243.767C193.873 243.926 193.878 244.128 193.882 244.314C193.924 245.124 193.971 245.976 194.38 246.677C194.989 247.731 196.356 248.224 197.506 247.905C197.619 247.872 197.729 247.83 197.815 247.754C197.924 247.642 197.958 247.473 198.021 247.325C198.191 246.911 198.583 246.637 198.794 246.249C199.333 245.258 198.808 243.705 197.92 243.107C196.887 242.405 195.34 242.936 194.326 243.472Z" fill="white"/>
<path d="M197.943 242.518C197.961 242.404 197.976 242.28 197.939 242.171C197.895 242.043 197.778 241.959 197.671 241.872C197.204 241.52 196.708 241.163 196.138 241.072C195.282 240.935 194.408 241.496 194.087 242.302C194.054 242.379 194.024 242.466 194.035 242.547C194.047 242.661 194.127 242.759 194.183 242.861C194.335 243.146 194.321 243.5 194.443 243.802C194.756 244.567 195.854 244.976 196.578 244.746C197.427 244.472 197.805 243.339 197.952 242.515L197.943 242.518Z" fill="white"/>
<path d="M192.566 238.927C192.409 238.955 192.243 238.987 192.124 239.086C191.982 239.205 191.921 239.401 191.875 239.579C191.655 240.362 191.424 241.186 191.59 241.992C191.834 243.202 192.995 244.124 194.199 244.197C194.317 244.205 194.439 244.207 194.544 244.155C194.69 244.083 194.775 243.938 194.88 243.817C195.175 243.483 195.643 243.351 195.971 243.047C196.815 242.288 196.807 240.632 196.147 239.77C195.375 238.757 193.718 238.746 192.569 238.92L192.566 238.927Z" fill="white"/>
<path d="M192.464 237.613C192.335 237.523 192.19 237.434 192.034 237.424C191.85 237.409 191.678 237.507 191.522 237.605C190.839 238.008 190.129 238.437 189.72 239.126C189.106 240.151 189.342 241.596 190.18 242.47C190.259 242.552 190.351 242.64 190.458 242.674C190.613 242.722 190.769 242.678 190.927 242.665C191.369 242.629 191.792 242.853 192.237 242.864C193.358 242.899 194.442 241.719 194.529 240.661C194.634 239.418 193.427 238.283 192.468 237.622L192.464 237.613Z" fill="white"/>
<path d="M192.233 239.097C192.242 238.933 192.239 238.762 192.166 238.613C192.079 238.443 191.908 238.342 191.744 238.244C191.035 237.836 190.291 237.419 189.481 237.388C188.272 237.343 187.149 238.275 186.836 239.453C186.802 239.568 186.781 239.689 186.806 239.808C186.843 239.971 186.968 240.089 187.062 240.225C187.322 240.597 187.356 241.089 187.58 241.491C188.143 242.508 189.734 242.889 190.694 242.444C191.825 241.923 192.168 240.282 192.233 239.097Z" fill="white"/>
<path d="M190.819 239.604C190.801 239.396 190.767 239.173 190.643 239.001C190.501 238.798 190.259 238.703 190.033 238.608C189.048 238.219 188.02 237.827 186.979 237.943C185.422 238.124 184.164 239.532 183.982 241.116C183.963 241.268 183.956 241.426 184.014 241.576C184.09 241.772 184.278 241.904 184.423 242.062C184.826 242.492 184.963 243.116 185.319 243.585C186.225 244.782 188.336 244.962 189.481 244.21C190.824 243.317 190.963 241.137 190.819 239.604Z" fill="white"/>
<path d="M185.16 241.232C184.995 241.295 184.825 241.371 184.718 241.514C184.594 241.68 184.575 241.902 184.562 242.111C184.503 243.014 184.454 243.967 184.814 244.8C185.362 246.049 186.82 246.776 188.135 246.57C188.265 246.552 188.394 246.519 188.495 246.442C188.635 246.329 188.696 246.15 188.778 245.995C189.018 245.559 189.492 245.307 189.78 244.9C190.509 243.873 190.117 242.081 189.21 241.298C188.146 240.382 186.358 240.765 185.16 241.232Z" fill="white"/>
<path d="M187.308 242.91C187.143 242.904 186.976 242.904 186.834 242.986C186.671 243.081 186.575 243.252 186.495 243.422C186.128 244.154 185.748 244.918 185.76 245.745C185.779 246.983 186.752 248.111 187.938 248.422C188.055 248.452 188.174 248.476 188.287 248.443C188.443 248.399 188.558 248.275 188.686 248.172C189.04 247.896 189.529 247.858 189.911 247.625C190.888 247.034 191.186 245.411 190.697 244.434C190.12 243.287 188.483 242.963 187.308 242.91Z" fill="white"/>
<path d="M187.284 245.958C187.151 246.074 187.021 246.199 186.965 246.365C186.905 246.56 186.957 246.776 187.011 246.97C187.246 247.83 187.507 248.733 188.109 249.392C189.013 250.381 190.587 250.569 191.733 249.94C191.844 249.876 191.955 249.811 192.027 249.698C192.121 249.549 192.117 249.362 192.147 249.184C192.226 248.698 192.583 248.308 192.716 247.838C193.062 246.636 192.119 245.1 191.036 244.674C189.762 244.177 188.242 245.127 187.287 245.951L187.284 245.958Z" fill="white"/>
<path d="M193.893 246.156C193.85 246.044 193.8 245.929 193.702 245.853C193.595 245.766 193.448 245.753 193.308 245.742C192.718 245.696 192.097 245.651 191.563 245.883C190.756 246.237 190.3 247.212 190.455 248.097C190.472 248.182 190.493 248.276 190.543 248.337C190.617 248.432 190.737 248.472 190.84 248.534C191.126 248.703 191.296 249.019 191.562 249.217C192.239 249.718 193.403 249.474 193.898 248.87C194.481 248.168 194.205 246.959 193.887 246.153L193.893 246.156Z" fill="white"/>
<path d="M192.747 245.663C192.627 245.731 192.503 245.805 192.429 245.925C192.347 246.064 192.354 246.244 192.36 246.408C192.399 247.117 192.453 247.864 192.814 248.482C193.356 249.406 194.564 249.826 195.564 249.538C195.659 249.512 195.759 249.473 195.836 249.401C195.933 249.299 195.965 249.152 196.014 249.021C196.162 248.658 196.502 248.414 196.688 248.069C197.155 247.191 196.685 245.831 195.901 245.312C194.987 244.703 193.634 245.176 192.747 245.663Z" fill="white"/>
<path d="M195.789 243.456C195.649 243.446 195.505 243.442 195.378 243.507C195.233 243.579 195.145 243.731 195.069 243.873C194.728 244.493 194.379 245.148 194.369 245.866C194.354 246.935 195.165 247.943 196.18 248.244C196.281 248.275 196.385 248.3 196.48 248.274C196.615 248.243 196.721 248.138 196.834 248.051C197.151 247.827 197.572 247.805 197.913 247.614C198.775 247.132 199.085 245.73 198.683 244.87C198.217 243.858 196.803 243.527 195.792 243.45L195.789 243.456Z" fill="white"/>
<path d="M168.665 239.699C169.36 251.599 180.71 260.211 191.492 262.092C198.64 263.337 210.177 261.5 213.311 253.732C214.154 251.65 210.902 250.342 210.06 252.434C207.557 258.631 197.247 259.538 191.825 258.587C182.448 256.94 172.681 249.515 172.087 239.208C171.954 236.938 168.53 237.444 168.655 239.7L168.665 239.699Z" fill="white"/>
<path d="M188.076 225.138L188.07 225.135C186.766 224.54 185.254 225.122 184.692 226.436L183.405 229.444C182.843 230.757 183.444 232.304 184.747 232.899L184.754 232.902C186.057 233.497 187.569 232.914 188.131 231.601L189.418 228.593C189.98 227.28 189.379 225.733 188.076 225.138Z" fill="white"/>
<path d="M207.044 233.797L207.037 233.794C205.734 233.199 204.222 233.782 203.66 235.095L202.373 238.103C201.811 239.416 202.412 240.963 203.715 241.558L203.721 241.561C205.025 242.156 206.537 241.574 207.099 240.26L208.386 237.252C208.948 235.939 208.347 234.392 207.044 233.797Z" fill="white"/>
</g>
<g filter="url(#filter2_b_487_8097)">
<path d="M-19.6037 244.636C-18.7837 240.71 -15.0658 238.144 -11.2401 238.864L-8.74283 239.335C-6.29075 239.796 -3.76735 238.907 -2.08512 236.989L-0.390968 235.057C2.22204 232.078 6.64491 231.755 9.58039 234.329L11.6263 236.123C13.4985 237.764 16.0739 238.285 18.4365 237.5L20.9638 236.661C24.6355 235.441 28.5552 237.412 29.8397 241.123L30.7866 243.859C31.6054 246.225 33.5502 247.981 35.9404 248.514L38.6764 249.123C42.4092 249.955 44.8106 253.667 44.1259 257.547L43.6241 260.391C43.1857 262.876 44.0125 265.404 45.8153 267.091L47.9 269.042C50.7279 271.688 50.9905 276.182 48.4944 279.219L46.7763 281.309C45.1702 283.264 44.6507 285.921 45.4025 288.335L46.2241 290.974C47.403 294.76 45.4213 298.857 41.7564 300.21L39.3802 301.088C37.0208 301.959 35.2599 304.027 34.7343 306.543L34.1991 309.106C33.3791 313.032 29.6612 315.598 25.8355 314.878L23.3382 314.408C20.8861 313.947 18.3627 314.835 16.6805 316.754L14.9863 318.685C12.3733 321.665 7.95045 321.988 5.01497 319.414L2.9691 317.62C1.0969 315.978 -1.47853 315.457 -3.84115 316.242L-6.36847 317.082C-10.0401 318.301 -13.9598 316.331 -15.2443 312.619L-16.1912 309.884C-17.0101 307.518 -18.9548 305.761 -21.3451 305.229L-24.0811 304.619C-27.8139 303.788 -30.2152 300.076 -29.5306 296.195L-29.0287 293.351C-28.5903 290.866 -29.4172 288.338 -31.2199 286.652L-33.3046 284.701C-36.1326 282.055 -36.3951 277.561 -33.8991 274.524L-32.181 272.433C-30.5749 270.479 -30.0553 267.822 -30.8072 265.407L-31.6288 262.769C-32.8076 258.982 -30.8259 254.885 -27.161 253.532L-24.7848 252.655C-22.4254 251.784 -20.6645 249.716 -20.139 247.199L-19.6037 244.636Z" fill="#90C9F6" fill-opacity="0.4"/>
<path d="M12.1374 273.804C13.1323 275.342 12.3079 278.764 10.0287 280.337C7.74955 281.91 4.62729 281.212 3.63242 279.674C2.63755 278.136 3.67514 275.611 5.95429 274.039C8.23345 272.466 11.1387 272.261 12.1374 273.804Z" fill="white"/>
<path d="M8.99222 274.514C8.97979 274.675 8.97495 274.848 9.04118 274.989C9.1226 275.154 9.29057 275.259 9.44517 275.356C10.1306 275.757 10.8522 276.176 11.6433 276.199C12.8288 276.238 13.9587 275.314 14.3084 274.139C14.3416 274.023 14.3653 273.905 14.3487 273.789C14.3151 273.633 14.1951 273.512 14.1078 273.377C13.859 273.006 13.8427 272.516 13.6381 272.122C13.1133 271.118 11.5638 270.735 10.6034 271.186C9.47975 271.706 9.09289 273.34 8.99222 274.514Z" fill="white"/>
<path d="M10.1339 270.848C10.05 270.77 9.95662 270.69 9.84758 270.663C9.71941 270.633 9.58882 270.689 9.4602 270.735C8.92448 270.952 8.36948 271.191 7.99142 271.638C7.42433 272.31 7.42007 273.374 7.90823 274.09C7.9538 274.161 8.00893 274.233 8.08152 274.268C8.18085 274.318 8.30355 274.301 8.41653 274.308C8.73057 274.329 9.0129 274.533 9.32482 274.59C10.1171 274.731 11.0351 273.995 11.231 273.24C11.4584 272.353 10.7321 271.411 10.1358 270.838L10.1339 270.848Z" fill="white"/>
<path d="M4.33898 273.59C4.27871 273.742 4.21647 273.904 4.23471 274.061C4.25661 274.25 4.38403 274.408 4.50584 274.545C5.02907 275.16 5.58086 275.807 6.32819 276.098C7.44819 276.539 8.81893 276.026 9.51824 275.017C9.58778 274.918 9.65352 274.813 9.66763 274.693C9.68583 274.528 9.612 274.375 9.56886 274.218C9.45263 273.78 9.59333 273.301 9.51932 272.851C9.34589 271.706 7.98711 270.818 6.93096 270.927C5.69273 271.051 4.8032 272.489 4.33518 273.585L4.33898 273.59Z" fill="white"/>
<path d="M3.2096 272.969C3.06747 273.033 2.91759 273.111 2.8268 273.242C2.71672 273.394 2.70597 273.597 2.70296 273.786C2.66951 274.598 2.64351 275.448 2.98985 276.177C3.50266 277.267 4.80962 277.842 5.97007 277.585C6.07941 277.56 6.20028 277.528 6.285 277.452C6.40632 277.343 6.45322 277.183 6.52686 277.039C6.73226 276.634 7.13981 276.387 7.38531 276.005C8.00962 275.048 7.62035 273.465 6.80038 272.817C5.83933 272.054 4.26979 272.492 3.21916 272.971L3.2096 272.969Z" fill="white"/>
<path d="M4.30173 273.973C4.17203 273.875 4.03079 273.786 3.86997 273.77C3.68425 273.753 3.51129 273.847 3.34411 273.937C2.63302 274.335 1.89688 274.758 1.44079 275.446C0.762437 276.475 0.928165 277.956 1.72554 278.867C1.80163 278.958 1.88926 279.042 2.00012 279.085C2.15305 279.14 2.31614 279.096 2.4771 279.086C2.91976 279.061 3.33983 279.298 3.78796 279.32C4.91976 279.379 6.07599 278.199 6.22208 277.122C6.39609 275.855 5.23635 274.669 4.30173 273.973Z" fill="white"/>
<path d="M3.96512 275.478C3.78561 275.381 3.585 275.291 3.37802 275.306C3.13657 275.32 2.93067 275.479 2.73252 275.624C1.89162 276.272 1.0237 276.956 0.565986 277.926C-0.112919 279.379 0.370548 281.236 1.5696 282.251C1.68396 282.351 1.80986 282.442 1.96293 282.472C2.16385 282.512 2.37127 282.42 2.5784 282.379C3.1442 282.26 3.72721 282.477 4.30031 282.421C5.76085 282.279 7.02952 280.538 7.02234 279.133C7.00511 277.481 5.29624 276.181 3.96512 275.478Z" fill="white"/>
<path d="M2.28986 281.288C2.25435 281.465 2.22643 281.655 2.28674 281.825C2.35647 282.023 2.52808 282.16 2.69211 282.284C3.39968 282.823 4.15312 283.381 5.02586 283.518C6.33884 283.715 7.70786 282.839 8.23812 281.581C8.29247 281.459 8.33346 281.329 8.32464 281.199C8.30654 281.016 8.19247 280.865 8.10908 280.711C7.87987 280.266 7.9252 279.717 7.74594 279.246C7.29309 278.056 5.61863 277.429 4.49585 277.796C3.18114 278.228 2.5445 279.992 2.28986 281.288Z" fill="white"/>
<path d="M4.80522 280.324C4.71245 280.464 4.62349 280.61 4.61485 280.778C4.60607 280.971 4.69509 281.147 4.79184 281.309C5.19573 282.024 5.61859 282.768 6.30186 283.205C7.32485 283.857 8.76488 283.619 9.64918 282.754C9.73587 282.669 9.81878 282.578 9.85202 282.461C9.89892 282.302 9.85774 282.135 9.84147 281.968C9.8039 281.51 10.0325 281.063 10.0448 280.605C10.0803 279.434 8.9107 278.297 7.85194 278.196C6.60746 278.078 5.47189 279.329 4.80522 280.324Z" fill="white"/>
<path d="M7.28554 281.992C7.30941 282.171 7.34284 282.351 7.44931 282.49C7.57674 282.648 7.7813 282.719 7.9687 282.777C8.79666 283.038 9.67443 283.298 10.5336 283.129C11.8224 282.877 12.8125 281.608 12.9064 280.269C12.9129 280.137 12.9195 280.006 12.8646 279.882C12.7928 279.719 12.6382 279.622 12.5086 279.499C12.1523 279.168 12.0232 278.646 11.7092 278.277C10.9102 277.325 9.15168 277.316 8.22803 278.03C7.14465 278.871 7.11483 280.709 7.28175 281.986L7.28554 281.992Z" fill="white"/>
<path d="M10.9582 276.341C10.8434 276.319 10.7228 276.3 10.6095 276.344C10.4809 276.391 10.3921 276.511 10.309 276.628C9.95756 277.117 9.59059 277.633 9.49713 278.224C9.35784 279.118 9.91377 280.042 10.7202 280.386C10.7985 280.417 10.8865 280.449 10.9632 280.439C11.0801 280.426 11.1763 280.343 11.282 280.287C11.5722 280.129 11.9207 280.152 12.2241 280.027C12.9941 279.708 13.4127 278.562 13.1814 277.804C12.9165 276.917 11.781 276.504 10.9524 276.345L10.9582 276.341Z" fill="white"/>
<path d="M9.946 277.073C9.93752 277.215 9.93283 277.362 9.99146 277.492C10.0615 277.639 10.2123 277.73 10.3497 277.813C10.9511 278.162 11.5908 278.519 12.288 278.539C13.3319 278.566 14.3174 277.741 14.6127 276.714C14.642 276.617 14.6637 276.509 14.6451 276.403C14.6134 276.263 14.5105 276.156 14.4288 276.042C14.2104 275.718 14.1918 275.289 14.008 274.94C13.5381 274.059 12.176 273.734 11.3346 274.136C10.3511 274.603 10.0191 276.038 9.946 277.073Z" fill="white"/>
<path d="M9.75681 273.231C9.67376 273.347 9.5945 273.47 9.58025 273.616C9.56205 273.781 9.63967 273.94 9.71547 274.083C10.0413 274.715 10.3919 275.374 10.9738 275.77C11.8401 276.361 13.0958 276.199 13.8815 275.478C13.9605 275.407 14.0357 275.33 14.065 275.233C14.1117 275.099 14.0819 274.95 14.0713 274.804C14.0563 274.407 14.2616 274.027 14.2869 273.628C14.3502 272.616 13.3677 271.588 12.4508 271.473C11.375 271.333 10.3536 272.386 9.75301 273.225L9.75681 273.231Z" fill="white"/>
<path d="M-7.72699 294.829C2.37765 300.655 15.4539 295.423 22.7203 287.047C27.5359 281.493 32.1625 270.45 27.472 263.521C26.2167 261.661 23.4188 263.788 24.6831 265.652C28.4231 271.182 23.6883 280.653 20.0297 284.863C13.7002 292.141 2.43735 296.636 -6.31052 291.583C-8.23873 290.471 -9.64382 293.728 -7.731 294.838L-7.72699 294.829Z" fill="white"/>
<path d="M7.83323 258.206L7.82745 258.21C6.64838 259.023 6.32158 260.655 7.09752 261.855L8.87462 264.602C9.65057 265.802 11.2354 266.114 12.4145 265.301L12.4203 265.297C13.5994 264.483 13.9262 262.851 13.1502 261.651L11.3731 258.904C10.5972 257.705 9.01231 257.392 7.83323 258.206Z" fill="white"/>
</g>
<g filter="url(#filter3_b_487_8097)">
<path d="M80.3318 114.896C82.8918 111.797 87.4634 111.347 90.5444 113.89L92.3874 115.411C94.3637 117.042 97.0606 117.5 99.4778 116.615L101.663 115.814C105.389 114.45 109.502 116.322 110.904 120.022L111.9 122.652C112.787 124.994 114.823 126.705 117.284 127.175L119.9 127.674C123.698 128.399 126.24 131.986 125.676 135.823L125.217 138.949C124.86 141.376 125.749 143.813 127.581 145.427L129.885 147.458C132.748 149.981 133.148 154.309 130.798 157.347L128.908 159.79C127.404 161.733 126.976 164.299 127.771 166.613L128.794 169.593C130.05 173.251 128.21 177.269 124.614 178.723L122.136 179.724C119.806 180.666 118.12 182.743 117.677 185.217L117.18 187.994C116.481 191.9 112.785 194.542 108.876 193.929L106.584 193.57C104.048 193.172 101.483 194.149 99.8412 196.136L98.3098 197.99C95.7498 201.089 91.1782 201.539 88.0972 198.996L86.2542 197.475C84.2779 195.843 81.5809 195.386 79.1637 196.271L76.9784 197.071C73.2523 198.436 69.1395 196.564 67.738 192.864L66.7416 190.234C65.8541 187.891 63.8182 186.181 61.3577 185.711L58.7416 185.212C54.9439 184.486 52.4018 180.9 52.9656 177.063L53.425 173.936C53.7817 171.509 52.8923 169.073 51.0601 167.458L48.7567 165.428C45.8933 162.905 45.4937 158.576 47.8435 155.539L49.734 153.096C51.2376 151.152 51.6651 148.587 50.8707 146.273L49.8473 143.292C48.5915 139.634 50.4314 135.617 54.0281 134.163L56.5055 133.162C58.8357 132.22 60.5219 130.143 60.9647 127.669L61.4618 124.892C62.161 120.986 65.857 118.344 69.7656 118.957L72.058 119.316C74.5937 119.713 77.1583 118.737 78.8004 116.75L80.3318 114.896Z" fill="#0073FE" fill-opacity="0.4"/>
</g>
<path d="M76.0647 157.196C75.7346 156.889 75.5482 156.504 75.5055 156.04C75.4627 155.577 75.5752 155.163 75.8431 154.796L79.9733 149.631L78.0532 147.993L77.6107 148.546C77.3157 148.915 76.944 149.122 76.4956 149.166C76.0472 149.21 75.6443 149.08 75.2871 148.775C74.9571 148.468 74.7707 148.083 74.7279 147.619C74.6852 147.156 74.799 146.756 75.0694 146.417L78.0195 142.728C78.3146 142.359 78.6863 142.152 79.1347 142.108C79.5831 142.064 79.9859 142.194 80.3431 142.499C80.6977 142.776 80.8971 143.153 80.9411 143.63C80.9852 144.107 80.8584 144.516 80.5608 144.857L80.1183 145.41L82.0384 147.048L86.1685 141.883C86.4636 141.514 86.8353 141.307 87.2837 141.263C87.7321 141.219 88.1349 141.349 88.4921 141.654C88.8493 141.958 89.0493 142.342 89.0921 142.806C89.1348 143.269 89.0087 143.685 88.7137 144.054L87.7142 145.257L90.4826 147.618L86.3116 152.788C86.0438 153.154 85.9313 153.569 85.974 154.032C86.0168 154.495 86.2032 154.88 86.5332 155.188C86.8905 155.492 87.2933 155.623 87.7417 155.579C88.1901 155.534 88.5618 155.328 88.8568 154.959L92.9831 149.751L95.703 152.033L91.5359 157.244C91.2409 157.613 91.1148 158.029 91.1576 158.492C91.2003 158.956 91.4003 159.339 91.7575 159.644C92.085 159.924 92.4723 160.034 92.9194 159.976C93.3665 159.918 93.7389 159.718 94.0365 159.377L98.1628 154.17L100.887 156.493C101.571 157.077 101.957 157.839 102.044 158.78C102.131 159.72 101.891 160.544 101.326 161.251L100.297 162.584L107.214 168.446C107.512 168.7 107.609 169.002 107.504 169.352C107.399 169.703 107.156 169.896 106.776 169.934L105.105 170.098C104.778 170.131 104.453 170.092 104.127 169.982C103.802 169.873 103.52 169.716 103.282 169.513L98.1913 165.171L97.1627 166.505C96.5972 167.212 95.8593 167.61 94.9489 167.7C94.0385 167.79 93.241 167.542 92.5563 166.958L79.3839 155.722L78.3883 156.967C78.0906 157.308 77.7176 157.501 77.2692 157.545C76.8208 157.589 76.4193 157.473 76.0647 157.196Z" fill="white"/>
<defs>
<filter id="filter0_b_487_8097" x="270.865" y="-33.1855" width="207.488" height="210.21" filterUnits="userSpaceOnUse" color-interpolation-filters="sRGB">
<feFlood flood-opacity="0" result="BackgroundImageFix"/>
<feGaussianBlur in="BackgroundImageFix" stdDeviation="30"/>
<feComposite in2="SourceAlpha" operator="in" result="effect1_backgroundBlur_487_8097"/>
<feBlend mode="normal" in="SourceGraphic" in2="effect1_backgroundBlur_487_8097" result="shape"/>
</filter>
<filter id="filter1_b_487_8097" x="85.6759" y="138.48" width="209.11" height="214.01" filterUnits="userSpaceOnUse" color-interpolation-filters="sRGB">
<feFlood flood-opacity="0" result="BackgroundImageFix"/>
<feGaussianBlur in="BackgroundImageFix" stdDeviation="30.3571"/>
<feComposite in2="SourceAlpha" operator="in" result="effect1_backgroundBlur_487_8097"/>
<feBlend mode="normal" in="SourceGraphic" in2="effect1_backgroundBlur_487_8097" result="shape"/>
</filter>
<filter id="filter2_b_487_8097" x="-96.7931" y="171.878" width="212.914" height="216.186" filterUnits="userSpaceOnUse" color-interpolation-filters="sRGB">
<feFlood flood-opacity="0" result="BackgroundImageFix"/>
<feGaussianBlur in="BackgroundImageFix" stdDeviation="30.3571"/>
<feComposite in2="SourceAlpha" operator="in" result="effect1_backgroundBlur_487_8097"/>
<feBlend mode="normal" in="SourceGraphic" in2="effect1_backgroundBlur_487_8097" result="shape"/>
</filter>
<filter id="filter3_b_487_8097" x="-13.6858" y="52.2422" width="206.013" height="208.401" filterUnits="userSpaceOnUse" color-interpolation-filters="sRGB">
<feFlood flood-opacity="0" result="BackgroundImageFix"/>
<feGaussianBlur in="BackgroundImageFix" stdDeviation="30"/>
<feComposite in2="SourceAlpha" operator="in" result="effect1_backgroundBlur_487_8097"/>
<feBlend mode="normal" in="SourceGraphic" in2="effect1_backgroundBlur_487_8097" result="shape"/>
</filter>
<clipPath id="clip0_487_8097">
<rect width="41.0399" height="40.2087" fill="white" transform="matrix(-0.417342 0.908749 -0.898011 -0.439974 400.475 61.749)"/>
</clipPath>
</defs>
</svg>
