<svg width="46" height="57" viewBox="0 0 46 57" fill="none" xmlns="http://www.w3.org/2000/svg">
<ellipse cx="23" cy="54" rx="9" ry="3" fill="black" fill-opacity="0.2"/>
<circle cx="23" cy="23" r="23" fill="#86D37F"/>
<g clip-path="url(#clip0_2252_26020)">
<path d="M16.6719 32.1406V32.8438C16.6719 34.0069 17.6181 35 18.7812 35H27.2188C28.3819 35 29.3281 34.0069 29.3281 32.8438V21.5938C29.3281 20.4306 28.3819 19.4844 27.2188 19.4844H18.7812C17.6181 19.4844 16.6719 20.4306 16.6719 21.5938V22.2969H20.8906V23.7031H16.6719V26.5156H20.8906V27.9219H16.6719V30.7344H20.8906V32.1406H16.6719Z" fill="white"/>
<path d="M23 11C21.8368 11 20.8906 11.9462 20.8906 13.1094V14.5156C20.8906 14.9036 20.5754 15.2656 20.1875 15.2656C19.0243 15.2656 18.0781 16.2118 18.0781 17.375V18.1493C18.3054 18.1029 18.5405 18.0781 18.7812 18.0781H27.2188C27.4595 18.0781 27.6946 18.1029 27.9219 18.1493V17.375C27.9219 16.2118 26.9757 15.2656 25.8125 15.2656C25.4246 15.2656 25.1094 14.9036 25.1094 14.5156V13.1094C25.1094 11.9462 24.1632 11 23 11Z" fill="white"/>
</g>
<path d="M23 53L16.9378 42.5L29.0622 42.5L23 53Z" fill="#86D37F"/>
<defs>
<clipPath id="clip0_2252_26020">
<rect width="24" height="24" fill="white" transform="translate(11 11)"/>
</clipPath>
</defs>
</svg>
