<svg width="98" height="99" viewBox="0 0 98 99" fill="none" xmlns="http://www.w3.org/2000/svg">
<g id="Frame 6">
<path id="Rectangle 19" d="M14.4212 57.0044C17.673 47.1538 26.8766 40.5 37.25 40.5C47.6234 40.5 56.827 47.1538 60.0787 57.0044L63.7398 68.0947C65.8383 74.4516 61.104 81 54.4097 81H20.0903C13.396 81 8.6617 74.4516 10.7602 68.0947L14.4212 57.0044Z" fill="#D1D6DB"/>
<ellipse id="Ellipse 439" cx="38.6958" cy="94.0628" rx="38.1958" ry="4.81912" fill="#F2F4F6"/>
<circle id="Ellipse 440" cx="37.25" cy="21.75" r="15.75" fill="#E5E8EB"/>
<g id="Group 54">
<g id="Group 52">
<path id="Rectangle 17" d="M60.8098 47.0298L62.9068 43.3977L78.4037 52.3449L76.3067 55.9769L60.8098 47.0298Z" fill="#6B7684"/>
<path id="Rectangle 18" d="M69.3497 52.9287C68.9485 52.697 68.8111 52.184 69.0427 51.7829L71.1397 48.1508C71.3713 47.7496 71.8843 47.6121 72.2855 47.8437L81.85 53.3658C83.2541 54.1765 83.7352 55.972 82.9245 57.3762C82.1139 58.7803 80.3184 59.2614 78.9142 58.4507L69.3497 52.9287Z" fill="#4196FD"/>
<path id="Ellipse 438" d="M59.3912 26.8396C66.412 30.8931 68.8175 39.8706 64.764 46.8914C60.7106 53.9122 51.7331 56.3178 44.7123 52.2643C37.6915 48.2108 35.286 39.2333 39.3394 32.2125C43.3929 25.1916 52.3704 22.7861 59.3912 26.8396Z" fill="white" fill-opacity="0.7"/>
<path id="Ellipse 438 (Stroke)" fill-rule="evenodd" clip-rule="evenodd" d="M60.8898 44.6546C63.7079 39.7735 62.0355 33.532 57.1544 30.7138C52.2733 27.8957 46.0318 29.5681 43.2137 34.4493C40.3955 39.3304 42.068 45.5719 46.9491 48.39C51.8302 51.2082 58.0717 49.5358 60.8898 44.6546ZM64.764 46.8914C68.8175 39.8706 66.412 30.8931 59.3912 26.8396C52.3704 22.7861 43.3929 25.1916 39.3394 32.2125C35.286 39.2333 37.6915 48.2108 44.7123 52.2643C51.7331 56.3178 60.7106 53.9122 64.764 46.8914Z" fill="#8B95A1"/>
</g>
</g>
</g>
</svg>
