<svg width="24" height="24" viewBox="0 0 24 24" fill="none" xmlns="http://www.w3.org/2000/svg">
<path d="M9 11.0002C9 11.7958 9.31607 12.5589 9.87868 13.1215C10.4413 13.6841 11.2044 14.0002 12 14.0002C12.7956 14.0002 13.5587 13.6841 14.1213 13.1215C14.6839 12.5589 15 11.7958 15 11.0002C15 10.2045 14.6839 9.44149 14.1213 8.87888C13.5587 8.31627 12.7956 8.0002 12 8.0002C11.2044 8.0002 10.4413 8.31627 9.87868 8.87888C9.31607 9.44149 9 10.2045 9 11.0002Z" stroke="#4E5968" stroke-linecap="round" stroke-linejoin="round"/>
<path d="M17.657 16.6572L13.414 20.9002C13.039 21.2748 12.5306 21.4853 12.0005 21.4853C11.4704 21.4853 10.962 21.2748 10.587 20.9002L6.343 16.6572C5.22422 15.5384 4.46234 14.1129 4.15369 12.5611C3.84504 11.0092 4.00349 9.40071 4.60901 7.93893C5.21452 6.47714 6.2399 5.22774 7.55548 4.3487C8.87107 3.46967 10.4178 3.00049 12 3.00049C13.5822 3.00049 15.1289 3.46967 16.4445 4.3487C17.7601 5.22774 18.7855 6.47714 19.391 7.93893C19.9965 9.40071 20.155 11.0092 19.8463 12.5611C19.5377 14.1129 18.7758 15.5384 17.657 16.6572Z" stroke="#4E5968" stroke-linecap="round" stroke-linejoin="round"/>
</svg>
