<svg width="25" height="24" viewBox="0 0 25 24" fill="none" xmlns="http://www.w3.org/2000/svg">
<path d="M3.99998 11.175C3.81665 10.975 3.72498 10.7375 3.72498 10.4625C3.72498 10.1875 3.81665 9.94995 3.99998 9.74995L6.79998 6.94995L5.72498 5.87495L5.42498 6.17495C5.22498 6.37495 4.98748 6.47495 4.71248 6.47495C4.43748 6.47495 4.19998 6.37495 3.99998 6.17495C3.81665 5.97495 3.72498 5.73745 3.72498 5.46245C3.72498 5.18745 3.81665 4.95828 3.99998 4.77495L5.99998 2.77495C6.19998 2.57495 6.43748 2.47495 6.71248 2.47495C6.98748 2.47495 7.22498 2.57495 7.42498 2.77495C7.62498 2.95828 7.72498 3.19162 7.72498 3.47495C7.72498 3.75828 7.62498 3.99162 7.42498 4.17495L7.12498 4.47495L8.19998 5.54995L11 2.74995C11.2 2.54995 11.4375 2.44995 11.7125 2.44995C11.9875 2.44995 12.225 2.54995 12.425 2.74995C12.625 2.94995 12.725 3.18745 12.725 3.46245C12.725 3.73745 12.625 3.97495 12.425 4.17495L11.75 4.82495L13.3 6.37495L10.475 9.17495C10.2916 9.37495 10.2 9.61245 10.2 9.88745C10.2 10.1625 10.2916 10.4 10.475 10.6C10.675 10.8 10.9125 10.9 11.1875 10.9C11.4625 10.9 11.7 10.8 11.9 10.6L14.7 7.77495L16.225 9.27495L13.4 12.1C13.2 12.3 13.1 12.5375 13.1 12.8125C13.1 13.0875 13.2 13.325 13.4 13.525C13.5833 13.7083 13.8125 13.7958 14.0875 13.7875C14.3625 13.7791 14.6 13.6833 14.8 13.5L17.6 10.675L19.125 12.2C19.5083 12.5833 19.7 13.0541 19.7 13.6125C19.7 14.1708 19.5083 14.6416 19.125 15.025L18.425 15.75L22.3 19.6C22.4667 19.7666 22.5083 19.95 22.425 20.15C22.3417 20.35 22.1833 20.45 21.95 20.45H20.925C20.725 20.45 20.5292 20.4083 20.3375 20.325C20.1458 20.2416 19.9833 20.1333 19.85 20L17 17.15L16.3 17.875C15.9166 18.2583 15.4458 18.45 14.8875 18.45C14.3292 18.45 13.8583 18.2583 13.475 17.875L6.09998 10.5L5.42498 11.175C5.22498 11.3583 4.98748 11.45 4.71248 11.45C4.43748 11.45 4.19998 11.3583 3.99998 11.175Z" fill="#B0B8C1"/>
</svg>
