<svg width="353" height="104" viewBox="0 0 353 104" fill="none" xmlns="http://www.w3.org/2000/svg">
<path d="M331.335 1.29952C331.729 0.689915 332.621 0.689916 333.015 1.29952L343 16.75H321.349L331.335 1.29952Z" fill="#333D4B"/>
<rect y="15.75" width="353" height="88" rx="14" fill="#333D4B"/>
<path d="M21.8457 49.3867C21.3125 49.3799 20.8682 48.9492 20.875 48.416C20.8682 47.8828 21.3125 47.4453 21.8457 47.4453C22.3721 47.4453 22.8096 47.8828 22.8164 48.416C22.8096 48.9492 22.3721 49.3799 21.8457 49.3867ZM27.2811 52.75V42.8516H28.785V47.1445H33.7069V42.8516H35.2108V52.75H33.7069V48.4297H28.785V52.75H27.2811ZM36.8142 52.75V42.8516H40.3416C42.6453 42.8516 43.7732 44.2324 43.7732 46.0645C43.7732 47.8896 42.6384 49.2773 40.3416 49.2773H38.3181V52.75H36.8142ZM38.3181 47.9922H40.1912C41.6472 47.999 42.2556 47.1787 42.2556 46.0645C42.2556 44.9434 41.6472 44.1436 40.1912 44.1367H38.3181V47.9922ZM45.8141 42.8516L48.5622 50.9043H48.6716L51.4196 42.8516H53.0466L49.4782 52.75H47.7419L44.1872 42.8516H45.8141ZM66.8628 41.6621V53.9121H65.6187V41.6621H66.8628ZM56.4585 46.9531C56.4585 44.3008 57.4976 42.6396 59.0972 42.6465C60.1431 42.6396 60.9497 43.3369 61.3872 44.5469H63.1714V41.8945H64.4019V53.3105H63.1714V49.3594H61.3941C60.9497 50.5762 60.1431 51.2803 59.0972 51.2734C57.4976 51.2803 56.4585 49.6123 56.4585 46.9531ZM57.648 46.9531C57.6411 48.9014 58.188 50.0498 59.0972 50.043C59.9995 50.0498 60.5737 48.9014 60.5737 46.9531C60.5737 44.998 59.9995 43.8564 59.0972 43.8633C58.188 43.8564 57.6411 44.998 57.648 46.9531ZM61.6607 45.5996C61.729 46.0166 61.7632 46.4678 61.7632 46.9531C61.7632 47.4316 61.729 47.8828 61.6607 48.293H63.1714V45.5996H61.6607ZM73.6752 49.291C76.1977 49.291 77.7358 50.1387 77.7358 51.5879C77.7358 53.0576 76.1977 53.9053 73.6752 53.9121C71.1254 53.9053 69.56 53.0576 69.56 51.5879C69.56 50.1387 71.1254 49.291 73.6752 49.291ZM68.4799 48.1152V42.4277H69.7514V44.1914H72.9643V42.4277H74.2495V48.1152H68.4799ZM69.7514 47.0762H72.9643V45.2168H69.7514V47.0762ZM70.8588 51.5879C70.852 52.4082 71.9047 52.873 73.6752 52.873C75.4321 52.873 76.4711 52.4082 76.4643 51.5879C76.4711 50.7744 75.4321 50.3164 73.6752 50.3164C71.9047 50.3164 70.852 50.7744 70.8588 51.5879ZM76.3276 48.9766V41.6621H77.6264V44.6562H79.4038V45.7637H77.6264V48.9766H76.3276ZM89.8802 41.6621V48.334H88.5951V45.627H86.2982V44.5605H88.5951V41.6621H89.8802ZM79.6947 47.5137C81.5746 46.8574 82.7504 45.251 82.7435 43.5625V43.3984H80.0912V42.3457H86.6947V43.3984H84.0697V43.5762C84.0629 45.0938 85.1703 46.6318 87.0228 47.2539L86.3529 48.2656C84.972 47.7734 83.9603 46.8027 83.4271 45.5996C82.8939 46.9463 81.8207 48.0264 80.3646 48.5391L79.6947 47.5137ZM81.9095 53.7617V48.8809H83.1947V50.2891H88.5951V48.8809H89.8802V53.7617H81.9095ZM83.1947 52.709H88.5951V51.3008H83.1947V52.709ZM97.5813 46.0234V47.6777H102.531V48.7441H91.3606V47.6777H96.2962V46.0234H97.5813ZM91.9348 45.6406C94.1497 45.415 95.886 44.4443 96.0638 43.2617H92.386V42.2227H101.533V43.2617H97.8138C97.9983 44.4375 99.7346 45.415 101.956 45.6406L101.491 46.666C99.3655 46.4199 97.6087 45.5449 96.9388 44.2529C96.2688 45.5449 94.5257 46.4199 92.3997 46.666L91.9348 45.6406ZM92.6868 51.7656C92.6868 50.3916 94.2727 49.6328 96.9388 49.6328C99.5843 49.6328 101.157 50.3916 101.163 51.7656C101.157 53.1328 99.5843 53.8916 96.9388 53.8848C94.2727 53.8916 92.6868 53.1328 92.6868 51.7656ZM93.9993 51.7656C93.9925 52.4971 95.0452 52.9004 96.9388 52.9004C98.805 52.9004 99.8645 52.4971 99.8645 51.7656C99.8645 51.0342 98.805 50.6377 96.9388 50.6309C95.0452 50.6377 93.9925 51.0342 93.9993 51.7656ZM116.183 41.6621V53.9395H114.884V41.6621H116.183ZM106.722 51V42.6875H108.021V45.832H111.316V42.6875H112.601V51H106.722ZM108.021 49.9336H111.316V46.8574H108.021V49.9336ZM128.888 47.6367V48.6895H117.718V47.6367H120.397V45.9893C119.447 45.6064 118.914 44.9912 118.921 44.1777C118.914 42.7217 120.603 41.874 123.296 41.8809C125.982 41.874 127.664 42.7217 127.671 44.1777C127.664 44.9912 127.131 45.6064 126.181 45.9961V47.6367H128.888ZM119.044 51.6973C119.044 50.2959 120.63 49.5234 123.296 49.5234C125.928 49.5234 127.514 50.2959 127.521 51.6973C127.514 53.1123 125.928 53.8848 123.296 53.8848C120.63 53.8848 119.044 53.1123 119.044 51.6973ZM120.261 44.1777C120.254 44.998 121.389 45.4561 123.296 45.4629C125.189 45.4561 126.338 44.998 126.331 44.1777C126.338 43.3574 125.189 42.8857 123.296 42.8789C121.389 42.8857 120.254 43.3574 120.261 44.1777ZM120.356 51.6973C120.35 52.4629 121.423 52.9004 123.296 52.8867C125.142 52.9004 126.222 52.4629 126.222 51.6973C126.222 50.9453 125.142 50.5215 123.296 50.5215C121.423 50.5215 120.35 50.9453 120.356 51.6973ZM121.71 47.6367H124.896V46.3311C124.417 46.4062 123.877 46.4473 123.296 46.4473C122.722 46.4473 122.189 46.4062 121.71 46.3379V47.6367ZM134.976 41.8672C137.737 41.8604 139.344 42.6055 139.351 43.9727C139.344 45.3467 137.737 46.0918 134.976 46.0918C132.214 46.0918 130.594 45.3467 130.601 43.9727C130.594 42.6055 132.214 41.8604 134.976 41.8672ZM129.397 47.8828V46.8438H140.567V47.8828H129.397ZM130.737 49.7969V48.8262H139.159V51.6973H132.022V52.791H139.501V53.7891H130.751V50.7539H137.874V49.7969H130.737ZM131.954 43.9727C131.947 44.7314 133.027 45.1211 134.976 45.1211C136.937 45.1211 138.018 44.7314 138.011 43.9727C138.018 43.248 136.937 42.8242 134.976 42.8242C133.027 42.8242 131.947 43.248 131.954 43.9727ZM148.587 45.2715C148.58 47.3223 149.927 49.4414 151.813 50.248L151.102 51.2598C149.66 50.624 148.512 49.2705 147.944 47.6367C147.377 49.3867 146.228 50.877 144.8 51.5742L144.048 50.5488C145.893 49.6807 147.261 47.3838 147.274 45.2715V43.9727H144.471V42.8926H151.376V43.9727H148.587V45.2715ZM152.921 53.9121V41.6621H154.22V53.9121H152.921ZM165.94 41.6758V50.959H164.641V49.7832H162.18V48.8672H164.641V41.6758H165.94ZM155.7 47.2676C157.963 47.2471 161.018 47.2266 163.63 46.8984L163.712 47.8281C162.666 48.0059 161.565 48.1152 160.485 48.1904V50.5762H159.186V48.2588C157.997 48.3066 156.855 48.3066 155.864 48.3066L155.7 47.2676ZM156.657 44.3008C156.65 43.002 157.887 42.1406 159.706 42.1406C161.497 42.1406 162.741 43.002 162.741 44.3008C162.741 45.6064 161.497 46.4336 159.706 46.4336C157.894 46.4336 156.65 45.6064 156.657 44.3008ZM157.395 53.6523V50.0566H158.68V52.5996H166.241V53.6523H157.395ZM157.887 44.3008C157.881 45.0254 158.619 45.4766 159.706 45.4766C160.752 45.4766 161.504 45.0254 161.51 44.3008C161.504 43.5693 160.752 43.0977 159.706 43.1113C158.619 43.0977 157.881 43.5693 157.887 44.3008ZM177.059 41.6621V44.5605H178.837V45.6406H177.059V48.8125H175.76V41.6621H177.059ZM167.913 48.1016V42.3594H169.184V44.1367H172.397V42.3594H173.682V48.1016H167.913ZM169.184 47.0762H172.397V45.1621H169.184V47.0762ZM169.253 53.7344V49.4551H177.155V50.4941H170.551V52.709H177.374V53.7344H169.253ZM184.692 41.8672C187.454 41.8604 189.06 42.6055 189.067 43.9727C189.06 45.3467 187.454 46.0918 184.692 46.0918C181.93 46.0918 180.31 45.3467 180.317 43.9727C180.31 42.6055 181.93 41.8604 184.692 41.8672ZM179.114 47.8828V46.8438H190.284V47.8828H179.114ZM180.454 49.7969V48.8262H188.876V51.6973H181.739V52.791H189.217V53.7891H180.467V50.7539H187.59V49.7969H180.454ZM181.67 43.9727C181.664 44.7314 182.744 45.1211 184.692 45.1211C186.654 45.1211 187.734 44.7314 187.727 43.9727C187.734 43.248 186.654 42.8242 184.692 42.8242C182.744 42.8242 181.664 43.248 181.67 43.9727ZM200.067 42.7422C200.06 44.3691 202.049 45.8936 204.455 46.2148L203.95 47.2812C201.947 46.96 200.19 45.9209 199.39 44.4785C198.59 45.9209 196.833 46.96 194.844 47.2812L194.325 46.2148C196.724 45.8936 198.706 44.3896 198.713 42.7422V42.0723H200.067V42.7422ZM193.791 49.5508V48.4844H204.961V49.5508H199.985V53.9121H198.713V49.5508H193.791ZM212.721 49.7559C212.721 50.8086 213.24 51.9229 214.355 52.5859C215.476 51.8682 216.03 50.6992 216.03 49.7559V49.168H217.301V49.7559C217.294 51.0273 218.135 52.2578 219.735 52.7773L219.092 53.7344C217.882 53.3174 217.055 52.4971 216.631 51.499C216.241 52.4834 215.51 53.3789 214.389 53.8438C213.213 53.3994 212.468 52.5312 212.092 51.5332C211.648 52.4971 210.841 53.3105 209.686 53.7344L209.03 52.7773C210.602 52.2168 211.456 50.9385 211.463 49.7559V49.168H212.721V49.7559ZM208.715 45.2441C208.722 43.5283 210.103 42.3525 211.983 42.3457C213.856 42.3525 215.237 43.5283 215.237 45.2441C215.237 46.9395 213.856 48.1152 211.983 48.1152C210.103 48.1152 208.722 46.9395 208.715 45.2441ZM209.987 45.2441C209.98 46.3105 210.821 47.0352 211.983 47.0352C213.131 47.0352 213.965 46.3105 213.965 45.2441C213.965 44.1709 213.131 43.4463 211.983 43.4531C210.821 43.4463 209.98 44.1709 209.987 45.2441ZM217.328 48.6484V41.6758H218.627V48.6484H217.328ZM230.061 45.2441V46.2832H221.625V42.0996H222.91V45.2441H230.061ZM220.135 48.8672V47.8281H231.346V48.8672H220.135ZM221.529 53.625V50.0293H222.828V52.5586H230.143V53.625H221.529ZM236.713 42.4141V44.2734H239.775V42.4141H241.061V43.6035H243.74V41.6621H245.039V49.0586H243.74V47.1719H241.061V48.2109H235.414V42.4141H236.713ZM236.713 47.1719H239.775V45.2988H236.713V47.1719ZM236.795 51.6016C236.788 50.125 238.36 49.2842 240.938 49.2773C243.501 49.2842 245.073 50.125 245.08 51.6016C245.073 53.0508 243.501 53.8916 240.938 53.8848C238.36 53.8916 236.788 53.0508 236.795 51.6016ZM238.08 51.6016C238.073 52.415 239.14 52.8799 240.938 52.8867C242.722 52.8799 243.788 52.415 243.795 51.6016C243.788 50.7539 242.722 50.2891 240.938 50.2754C239.14 50.2891 238.073 50.7539 238.08 51.6016ZM241.061 46.1055H243.74V44.6426H241.061V46.1055ZM256.691 41.6758V50.959H255.393V49.7832H252.932V48.8672H255.393V41.6758H256.691ZM246.451 47.2676C248.714 47.2471 251.769 47.2266 254.381 46.8984L254.463 47.8281C253.417 48.0059 252.316 48.1152 251.236 48.1904V50.5762H249.937V48.2588C248.748 48.3066 247.606 48.3066 246.615 48.3066L246.451 47.2676ZM247.408 44.3008C247.401 43.002 248.639 42.1406 250.457 42.1406C252.248 42.1406 253.492 43.002 253.492 44.3008C253.492 45.6064 252.248 46.4336 250.457 46.4336C248.645 46.4336 247.401 45.6064 247.408 44.3008ZM248.146 53.6523V50.0566H249.432V52.5996H256.992V53.6523H248.146ZM248.639 44.3008C248.632 45.0254 249.37 45.4766 250.457 45.4766C251.503 45.4766 252.255 45.0254 252.262 44.3008C252.255 43.5693 251.503 43.0977 250.457 43.1113C249.37 43.0977 248.632 43.5693 248.639 44.3008ZM268.33 41.6621V53.9395H267.031V41.6621H268.33ZM258.609 46.8711C258.609 44.2529 259.929 42.585 261.781 42.5781C263.599 42.585 264.939 44.2529 264.939 46.8711C264.939 49.5166 263.599 51.1846 261.781 51.1777C259.929 51.1846 258.609 49.5166 258.609 46.8711ZM259.867 46.8711C259.86 48.8193 260.639 50.0156 261.781 50.0156C262.902 50.0156 263.681 48.8193 263.681 46.8711C263.681 44.9502 262.902 43.7471 261.781 43.7402C260.639 43.7471 259.86 44.9502 259.867 46.8711ZM280.406 41.6621V53.9121H279.162V41.6621H280.406ZM270.002 46.9531C270.002 44.3008 271.041 42.6396 272.64 42.6465C274.131 42.6396 275.136 44.0547 275.286 46.3516H276.674V41.8945H277.918V53.3105H276.674V47.4043H275.293C275.177 49.7969 274.158 51.2803 272.64 51.2734C271.041 51.2803 270.002 49.6123 270.002 46.9531ZM271.205 46.9531C271.205 48.9014 271.759 50.0498 272.64 50.043C273.543 50.0498 274.103 48.9014 274.103 46.9531C274.103 44.998 273.543 43.8564 272.64 43.8633C271.759 43.8564 271.205 44.998 271.205 46.9531ZM292.756 51.3008V52.3809H281.545V51.3008H284.224V48.1016C283.219 47.5479 282.604 46.6729 282.611 45.5723C282.604 43.6445 284.498 42.3799 287.123 42.373C289.755 42.3799 291.648 43.6445 291.648 45.5723C291.648 46.6523 291.06 47.5205 290.076 48.0742V51.3008H292.756ZM283.869 45.5723C283.869 46.8848 285.202 47.7393 287.123 47.7461C289.03 47.7393 290.383 46.8848 290.39 45.5723C290.383 44.2529 289.03 43.4121 287.123 43.4121C285.202 43.4121 283.869 44.2529 283.869 45.5723ZM285.509 51.3008H288.763V48.5801C288.264 48.6963 287.711 48.7578 287.123 48.7578C286.549 48.7578 286.002 48.6963 285.509 48.5801V51.3008ZM294.619 52.8457C294.086 52.8389 293.641 52.4082 293.648 51.875C293.641 51.3418 294.086 50.9043 294.619 50.9043C295.145 50.9043 295.583 51.3418 295.589 51.875C295.583 52.4082 295.145 52.8389 294.619 52.8457ZM21.8457 73.3867C21.3125 73.3799 20.8682 72.9492 20.875 72.416C20.8682 71.8828 21.3125 71.4453 21.8457 71.4453C22.3721 71.4453 22.8096 71.8828 22.8164 72.416C22.8096 72.9492 22.3721 73.3799 21.8457 73.3867ZM36.9061 65.6758V74.959H35.6073V73.7832H33.1463V72.8672H35.6073V65.6758H36.9061ZM26.6659 71.2676C28.9286 71.2471 31.9842 71.2266 34.5955 70.8984L34.6776 71.8281C33.6317 72.0059 32.5311 72.1152 31.451 72.1904V74.5762H30.1522V72.2588C28.9627 72.3066 27.8211 72.3066 26.8299 72.3066L26.6659 71.2676ZM27.6229 68.3008C27.6161 67.002 28.8534 66.1406 30.6717 66.1406C32.4627 66.1406 33.7069 67.002 33.7069 68.3008C33.7069 69.6064 32.4627 70.4336 30.6717 70.4336C28.8602 70.4336 27.6161 69.6064 27.6229 68.3008ZM28.3612 77.6523V74.0566H29.6463V76.5996H37.2069V77.6523H28.3612ZM28.8534 68.3008C28.8465 69.0254 29.5848 69.4766 30.6717 69.4766C31.7176 69.4766 32.4696 69.0254 32.4764 68.3008C32.4696 67.5693 31.7176 67.0977 30.6717 67.1113C29.5848 67.0977 28.8465 67.5693 28.8534 68.3008ZM47.9431 65.6621V70.625H49.9119V71.7051H47.9431V77.9121H46.658V65.6621H47.9431ZM38.3318 68.6426V67.5762H41.3533V65.8262H42.6521V67.5762H45.5916V68.6426H38.3318ZM38.9607 72.3887C38.9607 70.7207 40.2459 69.5449 42.0095 69.5449C43.7664 69.5449 45.0515 70.7207 45.0584 72.3887C45.0515 74.0703 43.7664 75.2393 42.0095 75.2461C40.2459 75.2393 38.9607 74.0703 38.9607 72.3887ZM40.2048 72.3887C40.198 73.4551 40.9636 74.166 42.0095 74.1523C43.0486 74.166 43.8074 73.4551 43.8142 72.3887C43.8074 71.3428 43.0486 70.6182 42.0095 70.6113C40.9636 70.6182 40.198 71.3428 40.2048 72.3887ZM59.9919 69.2441V70.2832H51.5563V66.0996H52.8415V69.2441H59.9919ZM50.0661 72.8672V71.8281H61.277V72.8672H50.0661ZM51.4606 77.625V74.0293H52.7595V76.5586H60.0739V77.625H51.4606ZM75.271 65.6621V77.9121H74.0269V65.6621H75.271ZM64.5796 74.5352C66.3159 73.4893 67.1978 71.2607 67.2046 69.0801V68.0957H64.9487V67.043H70.5542V68.0957H68.4487V69.0801C68.4487 71.1719 69.2964 73.2705 71.0191 74.2617L70.2398 75.2188C69.0708 74.5215 68.271 73.2705 67.8404 71.7939C67.4029 73.3936 66.5689 74.7607 65.3726 75.5059L64.5796 74.5352ZM69.6519 71.0625V69.9961H71.5523V65.9219H72.7827V77.2969H71.5523V71.0625H69.6519ZM87.6069 71.5273V72.5664H82.6577V73.8789H86.2397V77.7617H77.7768V73.8789H81.3725V72.5664H76.437V71.5273H87.6069ZM77.4623 67.0977V66.0449H86.5541V67.0977H84.7768V69.4355H86.4995V70.4883H77.517V69.4355H79.2534V67.0977H77.4623ZM79.062 76.709H84.9819V74.9043H79.062V76.709ZM80.5385 69.4355H83.478V67.0977H80.5385V69.4355ZM101.697 65.6621V77.9121H100.452V71.623H98.9895V77.3105H97.7591V65.8945H98.9895V70.5293H100.452V65.6621H101.697ZM90.9505 74.4531C92.7415 73.4482 93.5755 71.3359 93.5755 68.9023V68.1094H91.2786V67.0566H96.9661V68.1094H94.8333V68.9023C94.8333 71.1035 95.6604 73.0996 97.4446 74.0156L96.679 75.0137C95.4759 74.3574 94.6692 73.2158 94.2317 71.8076C93.8147 73.4141 93.0081 74.6992 91.7571 75.4375L90.9505 74.4531ZM112.706 66.8379V68.041C112.699 69.5518 112.699 71.2471 112.241 73.7559L110.929 73.6191C111.401 71.2471 111.401 69.5107 111.407 68.041V67.8906H103.97V66.8379H112.706ZM102.794 76.2578V75.1777H107.046V70.8574H108.331V75.1777H113.964V76.2578H102.794ZM125.671 71.2812V72.2793H114.46V71.2812H125.671ZM115.786 74.0703V73.1406H124.29V75.834H117.099V76.8457H124.673V77.7617H115.8V74.9727H123.005V74.0703H115.786ZM115.868 66.8926V65.9766H124.263V68.6289H117.181V69.5586H124.468V70.4746H115.896V67.7676H122.964V66.8926H115.868ZM131.038 66.4141V68.2734H134.101V66.4141H135.386V67.6035H138.065V65.6621H139.364V73.0586H138.065V71.1719H135.386V72.2109H129.739V66.4141H131.038ZM131.038 71.1719H134.101V69.2988H131.038V71.1719ZM131.12 75.6016C131.113 74.125 132.686 73.2842 135.263 73.2773C137.826 73.2842 139.398 74.125 139.405 75.6016C139.398 77.0508 137.826 77.8916 135.263 77.8848C132.686 77.8916 131.113 77.0508 131.12 75.6016ZM132.405 75.6016C132.398 76.415 133.465 76.8799 135.263 76.8867C137.047 76.8799 138.113 76.415 138.12 75.6016C138.113 74.7539 137.047 74.2891 135.263 74.2754C133.465 74.2891 132.398 74.7539 132.405 75.6016ZM135.386 70.1055H138.065V68.6426H135.386V70.1055ZM151.016 65.6758V74.959H149.718V73.7832H147.257V72.8672H149.718V65.6758H151.016ZM140.776 71.2676C143.039 71.2471 146.095 71.2266 148.706 70.8984L148.788 71.8281C147.742 72.0059 146.641 72.1152 145.561 72.1904V74.5762H144.263V72.2588C143.073 72.3066 141.932 72.3066 140.94 72.3066L140.776 71.2676ZM141.733 68.3008C141.726 67.002 142.964 66.1406 144.782 66.1406C146.573 66.1406 147.817 67.002 147.817 68.3008C147.817 69.6064 146.573 70.4336 144.782 70.4336C142.971 70.4336 141.726 69.6064 141.733 68.3008ZM142.472 77.6523V74.0566H143.757V76.5996H151.317V77.6523H142.472ZM142.964 68.3008C142.957 69.0254 143.695 69.4766 144.782 69.4766C145.828 69.4766 146.58 69.0254 146.587 68.3008C146.58 67.5693 145.828 67.0977 144.782 67.1113C143.695 67.0977 142.957 67.5693 142.964 68.3008ZM163.052 65.6621V77.9121H161.807V65.6621H163.052ZM152.647 70.9531C152.647 68.3008 153.686 66.6396 155.286 66.6465C156.776 66.6396 157.781 68.0547 157.931 70.3516H159.319V65.8945H160.563V77.3105H159.319V71.4043H157.938C157.822 73.7969 156.804 75.2803 155.286 75.2734C153.686 75.2803 152.647 73.6123 152.647 70.9531ZM153.85 70.9531C153.85 72.9014 154.404 74.0498 155.286 74.043C156.188 74.0498 156.749 72.9014 156.749 70.9531C156.749 68.998 156.188 67.8564 155.286 67.8633C154.404 67.8564 153.85 68.998 153.85 70.9531ZM173.614 66.8379V74.8906H167.872V66.8379H173.614ZM169.157 73.8379H172.356V67.8633H169.157V73.8379ZM176.034 77.9395V65.6621H177.333V77.9395H176.034ZM189.04 65.6621V77.9395H187.741V65.6621H189.04ZM179.551 67.8223V66.7695H185.294V71.2402H180.891V73.9199C182.88 73.9131 184.61 73.8174 186.661 73.4824L186.784 74.5488C184.617 74.9111 182.771 74.9932 180.604 75H179.565V70.2012H183.967V67.8223H179.551ZM203.184 65.6758V69.3125H204.934V70.3789H203.184V73.9199H201.885V65.6758H203.184ZM193.463 72.5527C194.413 72.5527 195.514 72.5527 196.663 72.5254V71.6982C195.268 71.541 194.379 70.8848 194.393 69.9004C194.379 68.7793 195.548 68.082 197.305 68.0957C199.062 68.082 200.21 68.7793 200.217 69.9004C200.21 70.8779 199.342 71.5342 197.961 71.6982V72.4775C199.055 72.4229 200.163 72.334 201.188 72.1836L201.297 73.1133C198.665 73.5713 195.76 73.5918 193.6 73.5918L193.463 72.5527ZM193.778 67.6855V66.7148H196.663V65.5664H197.961V66.7148H200.846V67.6855H193.778ZM194.995 75.5059V74.4941H203.184V77.9121H201.885V75.5059H194.995ZM195.623 69.9004C195.623 70.4746 196.259 70.8506 197.305 70.8438C198.337 70.8506 198.98 70.4746 198.973 69.9004C198.98 69.3125 198.337 68.9707 197.305 68.9844C196.259 68.9707 195.623 69.3125 195.623 69.9004ZM215.383 65.6758V74.5762H214.084V65.6758H215.383ZM205.471 69.5312C205.478 67.7607 206.886 66.5029 208.739 66.4961C210.584 66.5029 211.992 67.7607 211.992 69.5312C211.992 71.3291 210.584 72.5801 208.739 72.5801C206.886 72.5801 205.478 71.3291 205.471 69.5312ZM206.742 69.5312C206.736 70.6865 207.597 71.4453 208.739 71.4453C209.86 71.4453 210.721 70.6865 210.721 69.5312C210.721 68.4033 209.86 67.6309 208.739 67.6309C207.597 67.6309 206.736 68.4033 206.742 69.5312ZM207.371 77.6523V73.6738H208.684V76.5996H215.752V77.6523H207.371ZM226.447 65.6621V70.625H228.416V71.7051H226.447V77.9121H225.162V65.6621H226.447ZM216.836 68.6426V67.5762H219.858V65.8262H221.156V67.5762H224.096V68.6426H216.836ZM217.465 72.3887C217.465 70.7207 218.75 69.5449 220.514 69.5449C222.271 69.5449 223.556 70.7207 223.563 72.3887C223.556 74.0703 222.271 75.2393 220.514 75.2461C218.75 75.2393 217.465 74.0703 217.465 72.3887ZM218.709 72.3887C218.702 73.4551 219.468 74.166 220.514 74.1523C221.553 74.166 222.312 73.4551 222.319 72.3887C222.312 71.3428 221.553 70.6182 220.514 70.6113C219.468 70.6182 218.702 71.3428 218.709 72.3887ZM232.317 69.0117C232.317 70.9668 233.137 73.0518 234.777 74.0566L234.053 75.0547C232.904 74.3643 232.132 73.1406 231.708 71.7256C231.264 73.2773 230.416 74.6035 229.227 75.3281L228.42 74.3574C230.15 73.3184 231.066 71.1514 231.059 69.0664V66.7832H232.317V69.0117ZM233.451 71.0488V69.9688H235.352V65.8945H236.582V77.3105H235.352V71.0488H233.451ZM237.881 77.9121V65.6621H239.125V77.9121H237.881ZM251.475 75.3008V76.3809H240.264V75.3008H242.943V72.1016C241.939 71.5479 241.323 70.6729 241.33 69.5723C241.323 67.6445 243.217 66.3799 245.842 66.373C248.474 66.3799 250.367 67.6445 250.367 69.5723C250.367 70.6523 249.779 71.5205 248.795 72.0742V75.3008H251.475ZM242.588 69.5723C242.588 70.8848 243.921 71.7393 245.842 71.7461C247.749 71.7393 249.103 70.8848 249.109 69.5723C249.103 68.2529 247.749 67.4121 245.842 67.4121C243.921 67.4121 242.588 68.2529 242.588 69.5723ZM244.229 75.3008H247.482V72.5801C246.983 72.6963 246.43 72.7578 245.842 72.7578C245.268 72.7578 244.721 72.6963 244.229 72.5801V75.3008ZM253.338 76.8457C252.805 76.8389 252.36 76.4082 252.367 75.875C252.36 75.3418 252.805 74.9043 253.338 74.9043C253.864 74.9043 254.302 75.3418 254.309 75.875C254.302 76.4082 253.864 76.8389 253.338 76.8457Z" fill="#E5E8EB"/>
</svg>
