<svg width="353" height="104" viewBox="0 0 353 104" fill="none" xmlns="http://www.w3.org/2000/svg">
<path d="M331.335 1.29952C331.729 0.689915 332.621 0.689916 333.015 1.29952L343 16.75H321.349L331.335 1.29952Z" fill="#333D4B"/>
<rect y="15.75" width="353" height="88" rx="14" fill="#333D4B"/>
<path d="M21.8457 49.3867C21.3125 49.3799 20.8682 48.9492 20.875 48.416C20.8682 47.8828 21.3125 47.4453 21.8457 47.4453C22.3721 47.4453 22.8096 47.8828 22.8164 48.416C22.8096 48.9492 22.3721 49.3799 21.8457 49.3867ZM36.8787 41.6758V50.5762H35.5799V41.6758H36.8787ZM26.9666 45.5312C26.9735 43.7607 28.3817 42.5029 30.2342 42.4961C32.0799 42.5029 33.4881 43.7607 33.4881 45.5312C33.4881 47.3291 32.0799 48.5801 30.2342 48.5801C28.3817 48.5801 26.9735 47.3291 26.9666 45.5312ZM28.2381 45.5312C28.2313 46.6865 29.0926 47.4453 30.2342 47.4453C31.3553 47.4453 32.2166 46.6865 32.2166 45.5312C32.2166 44.4033 31.3553 43.6309 30.2342 43.6309C29.0926 43.6309 28.2313 44.4033 28.2381 45.5312ZM28.867 53.6523V49.6738H30.1795V52.5996H37.2479V53.6523H28.867ZM48.5173 42.0312V43.0156H46.74V45.1348H48.4627V46.1328H39.4802V45.1348H41.2166V43.0156H39.4255V42.0312H48.5173ZM38.4002 48.0605V47.0352H49.5701V48.0605H38.4002ZM39.74 49.9883V49.0176H48.1619V51.8203H41.0252V52.8047H48.5037V53.7891H39.7537V50.9043H46.8767V49.9883H39.74ZM42.5017 45.1348H45.4412V43.0156H42.5017V45.1348ZM59.9509 42.1133V45.4492H52.7321V46.8574H60.2106V47.9102H51.4333V44.4512H58.6247V43.166H51.3923V42.1133H59.9509ZM50.0661 50.1113V49.0723H61.277V50.1113H56.3005V53.9395H55.0016V50.1113H50.0661ZM64.6715 42.6055C66.1344 42.6055 67.2486 43.5967 67.4537 45.1074H68.5953V41.8809H69.8121V50.4531H68.5953V46.1875H67.4469C67.2145 47.6436 66.107 48.6211 64.6715 48.6074C63.0377 48.6211 61.8619 47.377 61.8688 45.6133C61.8619 43.8223 63.0377 42.6055 64.6715 42.6055ZM63.0309 45.6133C63.024 46.748 63.7213 47.5 64.6715 47.5C65.6148 47.5 66.3121 46.748 66.3258 45.6133C66.3121 44.4854 65.6148 43.7061 64.6715 43.7129C63.7213 43.7061 63.024 44.4854 63.0309 45.6133ZM64.0836 53.6523V49.6328H65.3688V52.5996H72.5602V53.6523H64.0836ZM70.9742 50.8223V41.6621H72.2047V50.8223H70.9742ZM77.7046 45.2715C77.6978 47.2061 78.9761 49.3662 80.8355 50.248L80.0972 51.2598C78.7232 50.6035 77.6294 49.2227 77.0757 47.623C76.5152 49.3662 75.3667 50.877 73.9722 51.5742L73.2066 50.5488C75.0659 49.6533 76.4126 47.3428 76.4195 45.2715V43.9727H73.6577V42.8926H80.3706V43.9727H77.7046V45.2715ZM81.6831 53.9121V41.6621H82.982V46.5156H84.9507V47.6094H82.982V53.9121H81.6831ZM98.6576 41.6621V53.9121H97.4134V41.6621H98.6576ZM88.2533 46.9531C88.2533 44.3008 89.2923 42.6396 90.892 42.6465C91.9379 42.6396 92.7445 43.3369 93.182 44.5469H94.9662V41.8945H96.1966V53.3105H94.9662V49.3594H93.1888C92.7445 50.5762 91.9379 51.2803 90.892 51.2734C89.2923 51.2803 88.2533 49.6123 88.2533 46.9531ZM89.4427 46.9531C89.4359 48.9014 89.9828 50.0498 90.892 50.043C91.7943 50.0498 92.3685 48.9014 92.3685 46.9531C92.3685 44.998 91.7943 43.8564 90.892 43.8633C89.9828 43.8564 89.4359 44.998 89.4427 46.9531ZM93.4554 45.5996C93.5238 46.0166 93.558 46.4678 93.558 46.9531C93.558 47.4316 93.5238 47.8828 93.4554 48.293H94.9662V45.5996H93.4554ZM105.47 49.291C107.992 49.291 109.531 50.1387 109.531 51.5879C109.531 53.0576 107.992 53.9053 105.47 53.9121C102.92 53.9053 101.355 53.0576 101.355 51.5879C101.355 50.1387 102.92 49.291 105.47 49.291ZM100.275 48.1152V42.4277H101.546V44.1914H104.759V42.4277H106.044V48.1152H100.275ZM101.546 47.0762H104.759V45.2168H101.546V47.0762ZM102.654 51.5879C102.647 52.4082 103.699 52.873 105.47 52.873C107.227 52.873 108.266 52.4082 108.259 51.5879C108.266 50.7744 107.227 50.3164 105.47 50.3164C103.699 50.3164 102.647 50.7744 102.654 51.5879ZM108.122 48.9766V41.6621H109.421V44.6562H111.199V45.7637H109.421V48.9766H108.122ZM121.675 41.6621V48.334H120.39V45.627H118.093V44.5605H120.39V41.6621H121.675ZM111.489 47.5137C113.369 46.8574 114.545 45.251 114.538 43.5625V43.3984H111.886V42.3457H118.489V43.3984H115.864V43.5762C115.858 45.0938 116.965 46.6318 118.818 47.2539L118.148 48.2656C116.767 47.7734 115.755 46.8027 115.222 45.5996C114.689 46.9463 113.615 48.0264 112.159 48.5391L111.489 47.5137ZM113.704 53.7617V48.8809H114.989V50.2891H120.39V48.8809H121.675V53.7617H113.704ZM114.989 52.709H120.39V51.3008H114.989V52.709ZM129.376 46.0234V47.6777H134.325V48.7441H123.155V47.6777H128.091V46.0234H129.376ZM123.73 45.6406C125.944 45.415 127.681 44.4443 127.859 43.2617H124.181V42.2227H133.327V43.2617H129.609C129.793 44.4375 131.529 45.415 133.751 45.6406L133.286 46.666C131.16 46.4199 129.403 45.5449 128.734 44.2529C128.064 45.5449 126.32 46.4199 124.194 46.666L123.73 45.6406ZM124.482 51.7656C124.482 50.3916 126.067 49.6328 128.734 49.6328C131.379 49.6328 132.951 50.3916 132.958 51.7656C132.951 53.1328 131.379 53.8916 128.734 53.8848C126.067 53.8916 124.482 53.1328 124.482 51.7656ZM125.794 51.7656C125.787 52.4971 126.84 52.9004 128.734 52.9004C130.6 52.9004 131.659 52.4971 131.659 51.7656C131.659 51.0342 130.6 50.6377 128.734 50.6309C126.84 50.6377 125.787 51.0342 125.794 51.7656ZM147.978 41.6621V53.9395H146.679V41.6621H147.978ZM138.517 51V42.6875H139.815V45.832H143.11V42.6875H144.395V51H138.517ZM139.815 49.9336H143.11V46.8574H139.815V49.9336ZM160.682 47.6367V48.6895H149.513V47.6367H152.192V45.9893C151.242 45.6064 150.709 44.9912 150.716 44.1777C150.709 42.7217 152.397 41.874 155.091 41.8809C157.777 41.874 159.459 42.7217 159.466 44.1777C159.459 44.9912 158.926 45.6064 157.975 45.9961V47.6367H160.682ZM150.839 51.6973C150.839 50.2959 152.425 49.5234 155.091 49.5234C157.723 49.5234 159.308 50.2959 159.315 51.6973C159.308 53.1123 157.723 53.8848 155.091 53.8848C152.425 53.8848 150.839 53.1123 150.839 51.6973ZM152.056 44.1777C152.049 44.998 153.183 45.4561 155.091 45.4629C156.984 45.4561 158.133 44.998 158.126 44.1777C158.133 43.3574 156.984 42.8857 155.091 42.8789C153.183 42.8857 152.049 43.3574 152.056 44.1777ZM152.151 51.6973C152.144 52.4629 153.218 52.9004 155.091 52.8867C156.936 52.9004 158.016 52.4629 158.016 51.6973C158.016 50.9453 156.936 50.5215 155.091 50.5215C153.218 50.5215 152.144 50.9453 152.151 51.6973ZM153.505 47.6367H156.69V46.3311C156.212 46.4062 155.672 46.4473 155.091 46.4473C154.516 46.4473 153.983 46.4062 153.505 46.3379V47.6367ZM166.77 41.8672C169.532 41.8604 171.138 42.6055 171.145 43.9727C171.138 45.3467 169.532 46.0918 166.77 46.0918C164.009 46.0918 162.388 45.3467 162.395 43.9727C162.388 42.6055 164.009 41.8604 166.77 41.8672ZM161.192 47.8828V46.8438H172.362V47.8828H161.192ZM162.532 49.7969V48.8262H170.954V51.6973H163.817V52.791H171.296V53.7891H162.546V50.7539H169.669V49.7969H162.532ZM163.749 43.9727C163.742 44.7314 164.822 45.1211 166.77 45.1211C168.732 45.1211 169.812 44.7314 169.805 43.9727C169.812 43.248 168.732 42.8242 166.77 42.8242C164.822 42.8242 163.742 43.248 163.749 43.9727ZM180.381 45.2715C180.375 47.3223 181.721 49.4414 183.608 50.248L182.897 51.2598C181.455 50.624 180.306 49.2705 179.739 47.6367C179.172 49.3867 178.023 50.877 176.594 51.5742L175.842 50.5488C177.688 49.6807 179.055 47.3838 179.069 45.2715V43.9727H176.266V42.8926H183.171V43.9727H180.381V45.2715ZM184.715 53.9121V41.6621H186.014V53.9121H184.715ZM197.735 41.6758V50.959H196.436V49.7832H193.975V48.8672H196.436V41.6758H197.735ZM187.495 47.2676C189.757 47.2471 192.813 47.2266 195.424 46.8984L195.506 47.8281C194.461 48.0059 193.36 48.1152 192.28 48.1904V50.5762H190.981V48.2588C189.792 48.3066 188.65 48.3066 187.659 48.3066L187.495 47.2676ZM188.452 44.3008C188.445 43.002 189.682 42.1406 191.501 42.1406C193.292 42.1406 194.536 43.002 194.536 44.3008C194.536 45.6064 193.292 46.4336 191.501 46.4336C189.689 46.4336 188.445 45.6064 188.452 44.3008ZM189.19 53.6523V50.0566H190.475V52.5996H198.036V53.6523H189.19ZM189.682 44.3008C189.675 45.0254 190.414 45.4766 191.501 45.4766C192.546 45.4766 193.298 45.0254 193.305 44.3008C193.298 43.5693 192.546 43.0977 191.501 43.1113C190.414 43.0977 189.675 43.5693 189.682 44.3008ZM208.854 41.6621V44.5605H210.631V45.6406H208.854V48.8125H207.555V41.6621H208.854ZM199.708 48.1016V42.3594H200.979V44.1367H204.192V42.3594H205.477V48.1016H199.708ZM200.979 47.0762H204.192V45.1621H200.979V47.0762ZM201.047 53.7344V49.4551H208.95V50.4941H202.346V52.709H209.168V53.7344H201.047ZM216.487 41.8672C219.248 41.8604 220.855 42.6055 220.862 43.9727C220.855 45.3467 219.248 46.0918 216.487 46.0918C213.725 46.0918 212.105 45.3467 212.112 43.9727C212.105 42.6055 213.725 41.8604 216.487 41.8672ZM210.909 47.8828V46.8438H222.079V47.8828H210.909ZM212.248 49.7969V48.8262H220.67V51.6973H213.534V52.791H221.012V53.7891H212.262V50.7539H219.385V49.7969H212.248ZM213.465 43.9727C213.458 44.7314 214.538 45.1211 216.487 45.1211C218.449 45.1211 219.529 44.7314 219.522 43.9727C219.529 43.248 218.449 42.8242 216.487 42.8242C214.538 42.8242 213.458 43.248 213.465 43.9727ZM231.862 42.7422C231.855 44.3691 233.844 45.8936 236.25 46.2148L235.744 47.2812C233.741 46.96 231.985 45.9209 231.185 44.4785C230.385 45.9209 228.628 46.96 226.639 47.2812L226.119 46.2148C228.519 45.8936 230.501 44.3896 230.508 42.7422V42.0723H231.862V42.7422ZM225.586 49.5508V48.4844H236.756V49.5508H231.78V53.9121H230.508V49.5508H225.586ZM244.516 49.7559C244.516 50.8086 245.035 51.9229 246.149 52.5859C247.271 51.8682 247.824 50.6992 247.824 49.7559V49.168H249.096V49.7559C249.089 51.0273 249.93 52.2578 251.529 52.7773L250.887 53.7344C249.677 53.3174 248.85 52.4971 248.426 51.499C248.036 52.4834 247.305 53.3789 246.184 53.8438C245.008 53.3994 244.263 52.5312 243.887 51.5332C243.442 52.4971 242.636 53.3105 241.481 53.7344L240.824 52.7773C242.397 52.2168 243.251 50.9385 243.258 49.7559V49.168H244.516V49.7559ZM240.51 45.2441C240.517 43.5283 241.898 42.3525 243.777 42.3457C245.65 42.3525 247.031 43.5283 247.031 45.2441C247.031 46.9395 245.65 48.1152 243.777 48.1152C241.898 48.1152 240.517 46.9395 240.51 45.2441ZM241.781 45.2441C241.774 46.3105 242.615 47.0352 243.777 47.0352C244.926 47.0352 245.76 46.3105 245.76 45.2441C245.76 44.1709 244.926 43.4463 243.777 43.4531C242.615 43.4463 241.774 44.1709 241.781 45.2441ZM249.123 48.6484V41.6758H250.422V48.6484H249.123ZM261.855 45.2441V46.2832H253.42V42.0996H254.705V45.2441H261.855ZM251.93 48.8672V47.8281H263.141V48.8672H251.93ZM253.324 53.625V50.0293H254.623V52.5586H261.938V53.625H253.324ZM268.508 42.4141V44.2734H271.57V42.4141H272.855V43.6035H275.535V41.6621H276.834V49.0586H275.535V47.1719H272.855V48.2109H267.209V42.4141H268.508ZM268.508 47.1719H271.57V45.2988H268.508V47.1719ZM268.59 51.6016C268.583 50.125 270.155 49.2842 272.732 49.2773C275.296 49.2842 276.868 50.125 276.875 51.6016C276.868 53.0508 275.296 53.8916 272.732 53.8848C270.155 53.8916 268.583 53.0508 268.59 51.6016ZM269.875 51.6016C269.868 52.415 270.934 52.8799 272.732 52.8867C274.516 52.8799 275.583 52.415 275.59 51.6016C275.583 50.7539 274.516 50.2891 272.732 50.2754C270.934 50.2891 269.868 50.7539 269.875 51.6016ZM272.855 46.1055H275.535V44.6426H272.855V46.1055ZM288.486 41.6758V50.959H287.187V49.7832H284.726V48.8672H287.187V41.6758H288.486ZM278.246 47.2676C280.509 47.2471 283.564 47.2266 286.176 46.8984L286.258 47.8281C285.212 48.0059 284.111 48.1152 283.031 48.1904V50.5762H281.732V48.2588C280.543 48.3066 279.401 48.3066 278.41 48.3066L278.246 47.2676ZM279.203 44.3008C279.196 43.002 280.433 42.1406 282.252 42.1406C284.043 42.1406 285.287 43.002 285.287 44.3008C285.287 45.6064 284.043 46.4336 282.252 46.4336C280.44 46.4336 279.196 45.6064 279.203 44.3008ZM279.941 53.6523V50.0566H281.226V52.5996H288.787V53.6523H279.941ZM280.433 44.3008C280.427 45.0254 281.165 45.4766 282.252 45.4766C283.298 45.4766 284.05 45.0254 284.056 44.3008C284.05 43.5693 283.298 43.0977 282.252 43.1113C281.165 43.0977 280.427 43.5693 280.433 44.3008ZM300.125 41.6621V53.9395H298.826V41.6621H300.125ZM290.404 46.8711C290.404 44.2529 291.723 42.585 293.576 42.5781C295.394 42.585 296.734 44.2529 296.734 46.8711C296.734 49.5166 295.394 51.1846 293.576 51.1777C291.723 51.1846 290.404 49.5166 290.404 46.8711ZM291.662 46.8711C291.655 48.8193 292.434 50.0156 293.576 50.0156C294.697 50.0156 295.476 48.8193 295.476 46.8711C295.476 44.9502 294.697 43.7471 293.576 43.7402C292.434 43.7471 291.655 44.9502 291.662 46.8711ZM312.201 41.6621V53.9121H310.957V41.6621H312.201ZM301.796 46.9531C301.796 44.3008 302.836 42.6396 304.435 42.6465C305.925 42.6396 306.93 44.0547 307.081 46.3516H308.468V41.8945H309.712V53.3105H308.468V47.4043H307.087C306.971 49.7969 305.953 51.2803 304.435 51.2734C302.836 51.2803 301.796 49.6123 301.796 46.9531ZM303 46.9531C303 48.9014 303.553 50.0498 304.435 50.043C305.337 50.0498 305.898 48.9014 305.898 46.9531C305.898 44.998 305.337 43.8564 304.435 43.8633C303.553 43.8564 303 44.998 303 46.9531ZM324.55 51.3008V52.3809H313.339V51.3008H316.019V48.1016C315.014 47.5479 314.399 46.6729 314.406 45.5723C314.399 43.6445 316.293 42.3799 318.918 42.373C321.549 42.3799 323.443 43.6445 323.443 45.5723C323.443 46.6523 322.855 47.5205 321.871 48.0742V51.3008H324.55ZM315.664 45.5723C315.664 46.8848 316.997 47.7393 318.918 47.7461C320.825 47.7393 322.178 46.8848 322.185 45.5723C322.178 44.2529 320.825 43.4121 318.918 43.4121C316.997 43.4121 315.664 44.2529 315.664 45.5723ZM317.304 51.3008H320.558V48.5801C320.059 48.6963 319.505 48.7578 318.918 48.7578C318.343 48.7578 317.796 48.6963 317.304 48.5801V51.3008ZM326.414 52.8457C325.88 52.8389 325.436 52.4082 325.443 51.875C325.436 51.3418 325.88 50.9043 326.414 50.9043C326.94 50.9043 327.377 51.3418 327.384 51.875C327.377 52.4082 326.94 52.8389 326.414 52.8457ZM21.8457 73.3867C21.3125 73.3799 20.8682 72.9492 20.875 72.416C20.8682 71.8828 21.3125 71.4453 21.8457 71.4453C22.3721 71.4453 22.8096 71.8828 22.8164 72.416C22.8096 72.9492 22.3721 73.3799 21.8457 73.3867ZM36.9061 65.6758V74.959H35.6073V73.7832H33.1463V72.8672H35.6073V65.6758H36.9061ZM26.6659 71.2676C28.9286 71.2471 31.9842 71.2266 34.5955 70.8984L34.6776 71.8281C33.6317 72.0059 32.5311 72.1152 31.451 72.1904V74.5762H30.1522V72.2588C28.9627 72.3066 27.8211 72.3066 26.8299 72.3066L26.6659 71.2676ZM27.6229 68.3008C27.6161 67.002 28.8534 66.1406 30.6717 66.1406C32.4627 66.1406 33.7069 67.002 33.7069 68.3008C33.7069 69.6064 32.4627 70.4336 30.6717 70.4336C28.8602 70.4336 27.6161 69.6064 27.6229 68.3008ZM28.3612 77.6523V74.0566H29.6463V76.5996H37.2069V77.6523H28.3612ZM28.8534 68.3008C28.8465 69.0254 29.5848 69.4766 30.6717 69.4766C31.7176 69.4766 32.4696 69.0254 32.4764 68.3008C32.4696 67.5693 31.7176 67.0977 30.6717 67.1113C29.5848 67.0977 28.8465 67.5693 28.8534 68.3008ZM47.9431 65.6621V70.625H49.9119V71.7051H47.9431V77.9121H46.658V65.6621H47.9431ZM38.3318 68.6426V67.5762H41.3533V65.8262H42.6521V67.5762H45.5916V68.6426H38.3318ZM38.9607 72.3887C38.9607 70.7207 40.2459 69.5449 42.0095 69.5449C43.7664 69.5449 45.0515 70.7207 45.0584 72.3887C45.0515 74.0703 43.7664 75.2393 42.0095 75.2461C40.2459 75.2393 38.9607 74.0703 38.9607 72.3887ZM40.2048 72.3887C40.198 73.4551 40.9636 74.166 42.0095 74.1523C43.0486 74.166 43.8074 73.4551 43.8142 72.3887C43.8074 71.3428 43.0486 70.6182 42.0095 70.6113C40.9636 70.6182 40.198 71.3428 40.2048 72.3887ZM59.9919 69.2441V70.2832H51.5563V66.0996H52.8415V69.2441H59.9919ZM50.0661 72.8672V71.8281H61.277V72.8672H50.0661ZM51.4606 77.625V74.0293H52.7595V76.5586H60.0739V77.625H51.4606ZM75.271 65.6621V77.9121H74.0269V65.6621H75.271ZM64.5796 74.5352C66.3159 73.4893 67.1978 71.2607 67.2046 69.0801V68.0957H64.9487V67.043H70.5542V68.0957H68.4487V69.0801C68.4487 71.1719 69.2964 73.2705 71.0191 74.2617L70.2398 75.2188C69.0708 74.5215 68.271 73.2705 67.8404 71.7939C67.4029 73.3936 66.5689 74.7607 65.3726 75.5059L64.5796 74.5352ZM69.6519 71.0625V69.9961H71.5523V65.9219H72.7827V77.2969H71.5523V71.0625H69.6519ZM87.6069 71.5273V72.5664H82.6577V73.8789H86.2397V77.7617H77.7768V73.8789H81.3725V72.5664H76.437V71.5273H87.6069ZM77.4623 67.0977V66.0449H86.5541V67.0977H84.7768V69.4355H86.4995V70.4883H77.517V69.4355H79.2534V67.0977H77.4623ZM79.062 76.709H84.9819V74.9043H79.062V76.709ZM80.5385 69.4355H83.478V67.0977H80.5385V69.4355ZM101.697 65.6621V77.9121H100.452V71.623H98.9895V77.3105H97.7591V65.8945H98.9895V70.5293H100.452V65.6621H101.697ZM90.9505 74.4531C92.7415 73.4482 93.5755 71.3359 93.5755 68.9023V68.1094H91.2786V67.0566H96.9661V68.1094H94.8333V68.9023C94.8333 71.1035 95.6604 73.0996 97.4446 74.0156L96.679 75.0137C95.4759 74.3574 94.6692 73.2158 94.2317 71.8076C93.8147 73.4141 93.0081 74.6992 91.7571 75.4375L90.9505 74.4531ZM112.706 66.8379V68.041C112.699 69.5518 112.699 71.2471 112.241 73.7559L110.929 73.6191C111.401 71.2471 111.401 69.5107 111.407 68.041V67.8906H103.97V66.8379H112.706ZM102.794 76.2578V75.1777H107.046V70.8574H108.331V75.1777H113.964V76.2578H102.794ZM125.671 71.2812V72.2793H114.46V71.2812H125.671ZM115.786 74.0703V73.1406H124.29V75.834H117.099V76.8457H124.673V77.7617H115.8V74.9727H123.005V74.0703H115.786ZM115.868 66.8926V65.9766H124.263V68.6289H117.181V69.5586H124.468V70.4746H115.896V67.7676H122.964V66.8926H115.868ZM135.208 67.6855V68.7383H129.124V67.6855H131.53V66.0176H132.815V67.6855H135.208ZM129.52 72.293C129.514 70.6455 130.635 69.4766 132.173 69.4766C133.725 69.4766 134.832 70.6455 134.839 72.293C134.832 73.9678 133.725 75.1436 132.173 75.1367C130.635 75.1436 129.514 73.9678 129.52 72.293ZM130.669 72.293C130.662 73.332 131.291 74.0293 132.173 74.0293C133.055 74.0293 133.69 73.332 133.69 72.293C133.69 71.2744 133.055 70.5635 132.173 70.5566C131.291 70.5635 130.662 71.2744 130.669 72.293ZM135.769 77.3379V65.9355H136.999V70.7617H138.407V65.6621H139.638V77.9121H138.407V71.8281H136.999V77.3379H135.769ZM150.47 65.6621V68.7656H152.233V69.832H150.47V72.8945H149.157V65.6621H150.47ZM141.35 72.0059V66.5645H146.819V67.6172H142.636V70.9531C145.049 70.9395 146.409 70.8711 147.954 70.5566L148.077 71.6094C146.436 71.9443 144.974 72.0059 142.321 72.0059H141.35ZM142.39 75.5059C142.39 74.0088 143.975 73.1338 146.505 73.127C149.007 73.1338 150.565 74.0088 150.565 75.5059C150.565 77.0166 149.007 77.8916 146.505 77.8848C143.975 77.8916 142.39 77.0166 142.39 75.5059ZM143.675 75.5059C143.668 76.3535 144.734 76.8525 146.505 76.8457C148.241 76.8525 149.314 76.3535 149.321 75.5059C149.314 74.6582 148.241 74.1729 146.505 74.1797C144.734 74.1729 143.668 74.6582 143.675 75.5059ZM157.395 66.4141V68.2734H160.458V66.4141H161.743V67.6035H164.423V65.6621H165.721V73.0586H164.423V71.1719H161.743V72.2109H156.096V66.4141H157.395ZM157.395 71.1719H160.458V69.2988H157.395V71.1719ZM157.477 75.6016C157.47 74.125 159.043 73.2842 161.62 73.2773C164.183 73.2842 165.756 74.125 165.762 75.6016C165.756 77.0508 164.183 77.8916 161.62 77.8848C159.043 77.8916 157.47 77.0508 157.477 75.6016ZM158.762 75.6016C158.756 76.415 159.822 76.8799 161.62 76.8867C163.404 76.8799 164.47 76.415 164.477 75.6016C164.47 74.7539 163.404 74.2891 161.62 74.2754C159.822 74.2891 158.756 74.7539 158.762 75.6016ZM161.743 70.1055H164.423V68.6426H161.743V70.1055ZM177.374 65.6758V74.959H176.075V73.7832H173.614V72.8672H176.075V65.6758H177.374ZM167.133 71.2676C169.396 71.2471 172.452 71.2266 175.063 70.8984L175.145 71.8281C174.099 72.0059 172.999 72.1152 171.919 72.1904V74.5762H170.62V72.2588C169.43 72.3066 168.289 72.3066 167.298 72.3066L167.133 71.2676ZM168.09 68.3008C168.084 67.002 169.321 66.1406 171.139 66.1406C172.93 66.1406 174.174 67.002 174.174 68.3008C174.174 69.6064 172.93 70.4336 171.139 70.4336C169.328 70.4336 168.084 69.6064 168.09 68.3008ZM168.829 77.6523V74.0566H170.114V76.5996H177.674V77.6523H168.829ZM169.321 68.3008C169.314 69.0254 170.052 69.4766 171.139 69.4766C172.185 69.4766 172.937 69.0254 172.944 68.3008C172.937 67.5693 172.185 67.0977 171.139 67.1113C170.052 67.0977 169.314 67.5693 169.321 68.3008ZM189.409 65.6621V77.9121H188.165V65.6621H189.409ZM179.004 70.9531C179.004 68.3008 180.044 66.6396 181.643 66.6465C183.133 66.6396 184.138 68.0547 184.289 70.3516H185.676V65.8945H186.92V77.3105H185.676V71.4043H184.295C184.179 73.7969 183.161 75.2803 181.643 75.2734C180.044 75.2803 179.004 73.6123 179.004 70.9531ZM180.208 70.9531C180.208 72.9014 180.761 74.0498 181.643 74.043C182.545 74.0498 183.106 72.9014 183.106 70.9531C183.106 68.998 182.545 67.8564 181.643 67.8633C180.761 67.8564 180.208 68.998 180.208 70.9531ZM199.971 66.8379V74.8906H194.229V66.8379H199.971ZM195.514 73.8379H198.713V67.8633H195.514V73.8379ZM202.391 77.9395V65.6621H203.69V77.9395H202.391ZM215.397 65.6621V77.9395H214.098V65.6621H215.397ZM205.909 67.8223V66.7695H211.651V71.2402H207.248V73.9199C209.238 73.9131 210.967 73.8174 213.018 73.4824L213.141 74.5488C210.974 74.9111 209.128 74.9932 206.961 75H205.922V70.2012H210.325V67.8223H205.909ZM229.541 65.6758V69.3125H231.291V70.3789H229.541V73.9199H228.242V65.6758H229.541ZM219.82 72.5527C220.771 72.5527 221.871 72.5527 223.02 72.5254V71.6982C221.625 71.541 220.736 70.8848 220.75 69.9004C220.736 68.7793 221.905 68.082 223.662 68.0957C225.419 68.082 226.568 68.7793 226.574 69.9004C226.568 70.8779 225.699 71.5342 224.319 71.6982V72.4775C225.412 72.4229 226.52 72.334 227.545 72.1836L227.654 73.1133C225.023 73.5713 222.117 73.5918 219.957 73.5918L219.82 72.5527ZM220.135 67.6855V66.7148H223.02V65.5664H224.319V66.7148H227.203V67.6855H220.135ZM221.352 75.5059V74.4941H229.541V77.9121H228.242V75.5059H221.352ZM221.981 69.9004C221.981 70.4746 222.616 70.8506 223.662 70.8438C224.694 70.8506 225.337 70.4746 225.33 69.9004C225.337 69.3125 224.694 68.9707 223.662 68.9844C222.616 68.9707 221.981 69.3125 221.981 69.9004ZM241.74 65.6758V74.5762H240.441V65.6758H241.74ZM231.828 69.5312C231.835 67.7607 233.243 66.5029 235.096 66.4961C236.941 66.5029 238.35 67.7607 238.35 69.5312C238.35 71.3291 236.941 72.5801 235.096 72.5801C233.243 72.5801 231.835 71.3291 231.828 69.5312ZM233.1 69.5312C233.093 70.6865 233.954 71.4453 235.096 71.4453C236.217 71.4453 237.078 70.6865 237.078 69.5312C237.078 68.4033 236.217 67.6309 235.096 67.6309C233.954 67.6309 233.093 68.4033 233.1 69.5312ZM233.729 77.6523V73.6738H235.041V76.5996H242.109V77.6523H233.729ZM252.805 65.6621V70.625H254.773V71.7051H252.805V77.9121H251.52V65.6621H252.805ZM243.193 68.6426V67.5762H246.215V65.8262H247.514V67.5762H250.453V68.6426H243.193ZM243.822 72.3887C243.822 70.7207 245.107 69.5449 246.871 69.5449C248.628 69.5449 249.913 70.7207 249.92 72.3887C249.913 74.0703 248.628 75.2393 246.871 75.2461C245.107 75.2393 243.822 74.0703 243.822 72.3887ZM245.066 72.3887C245.06 73.4551 245.825 74.166 246.871 74.1523C247.91 74.166 248.669 73.4551 248.676 72.3887C248.669 71.3428 247.91 70.6182 246.871 70.6113C245.825 70.6182 245.06 71.3428 245.066 72.3887ZM258.674 69.0117C258.674 70.9668 259.494 73.0518 261.135 74.0566L260.41 75.0547C259.262 74.3643 258.489 73.1406 258.065 71.7256C257.621 73.2773 256.773 74.6035 255.584 75.3281L254.777 74.3574C256.507 73.3184 257.423 71.1514 257.416 69.0664V66.7832H258.674V69.0117ZM259.809 71.0488V69.9688H261.709V65.8945H262.939V77.3105H261.709V71.0488H259.809ZM264.238 77.9121V65.6621H265.482V77.9121H264.238ZM277.832 75.3008V76.3809H266.621V75.3008H269.301V72.1016C268.296 71.5479 267.681 70.6729 267.687 69.5723C267.681 67.6445 269.574 66.3799 272.199 66.373C274.831 66.3799 276.724 67.6445 276.724 69.5723C276.724 70.6523 276.137 71.5205 275.152 72.0742V75.3008H277.832ZM268.945 69.5723C268.945 70.8848 270.278 71.7393 272.199 71.7461C274.106 71.7393 275.46 70.8848 275.467 69.5723C275.46 68.2529 274.106 67.4121 272.199 67.4121C270.278 67.4121 268.945 68.2529 268.945 69.5723ZM270.586 75.3008H273.84V72.5801C273.341 72.6963 272.787 72.7578 272.199 72.7578C271.625 72.7578 271.078 72.6963 270.586 72.5801V75.3008ZM279.695 76.8457C279.162 76.8389 278.718 76.4082 278.724 75.875C278.718 75.3418 279.162 74.9043 279.695 74.9043C280.221 74.9043 280.659 75.3418 280.666 75.875C280.659 76.4082 280.221 76.8389 279.695 76.8457Z" fill="#E5E8EB"/>
</svg>
