<svg width="13" height="13" viewBox="0 0 13 13" fill="none" xmlns="http://www.w3.org/2000/svg">
<path d="M6.5 2C6.5 1.60217 6.65804 1.22064 6.93934 0.93934C7.22064 0.658035 7.60218 0.5 8 0.5C8.39782 0.5 8.77936 0.658035 9.06066 0.93934C9.34196 1.22064 9.5 1.60218 9.5 2M6.5 2C6.5 2.39782 6.65804 2.77936 6.93934 3.06066C7.22064 3.34196 7.60218 3.5 8 3.5C8.39782 3.5 8.77936 3.34196 9.06066 3.06066C9.34196 2.77936 9.5 2.39782 9.5 2M6.5 2L0.5 2M9.5 2L12.5 2M2 6.5C2 6.10217 2.15804 5.72064 2.43934 5.43934C2.72064 5.15804 3.10218 5 3.5 5C3.89782 5 4.27936 5.15804 4.56066 5.43934C4.84196 5.72064 5 6.10217 5 6.5M2 6.5C2 6.89782 2.15804 7.27935 2.43934 7.56066C2.72064 7.84196 3.10217 8 3.5 8C3.89782 8 4.27936 7.84196 4.56066 7.56066C4.84196 7.27935 5 6.89782 5 6.5M2 6.5L0.5 6.5M5 6.5L12.5 6.5M8.75 11C8.75 10.6022 8.90804 10.2206 9.18934 9.93934C9.47064 9.65804 9.85217 9.5 10.25 9.5C10.6478 9.5 11.0294 9.65804 11.3107 9.93934C11.592 10.2206 11.75 10.6022 11.75 11M8.75 11C8.75 11.3978 8.90804 11.7794 9.18934 12.0607C9.47064 12.342 9.85217 12.5 10.25 12.5C10.6478 12.5 11.0294 12.342 11.3107 12.0607C11.592 11.7794 11.75 11.3978 11.75 11M8.75 11L0.5 11M11.75 11L12.5 11" stroke="white" stroke-linecap="round" stroke-linejoin="round"/>
</svg>
