<svg width="18" height="20" viewBox="0 0 18 20" fill="none" xmlns="http://www.w3.org/2000/svg">
<path d="M11.235 17C12.1 17 12.557 18.024 11.98 18.668C11.6052 19.0875 11.146 19.4229 10.6324 19.6525C10.1188 19.8821 9.56256 20.0005 9.00003 20C8.4375 20.0005 7.88123 19.8821 7.36767 19.6525C6.85411 19.4229 6.39486 19.0875 6.02003 18.668C5.46803 18.052 5.86203 17.089 6.65403 17.007L6.76403 17.001L11.235 17Z" fill="#B0B8C1"/>
<path d="M9.00001 0C10.358 0 11.506 0.903 11.875 2.141L11.921 2.312L11.929 2.355C13.0314 2.9769 13.9708 3.8511 14.6702 4.906C15.3697 5.9609 15.8093 7.16648 15.953 8.424L15.981 8.711L16 9V11.931L16.021 12.067C16.1579 12.8038 16.5657 13.4627 17.164 13.914L17.331 14.031L17.493 14.13C18.353 14.617 18.053 15.896 17.116 15.994L17 16H1.00001C-0.0279917 16 -0.386992 14.636 0.507008 14.13C0.888038 13.9144 1.21725 13.618 1.47155 13.2616C1.72584 12.9052 1.89905 12.4974 1.97901 12.067L2.00001 11.924L2.00101 8.954C2.06198 7.64788 2.44217 6.37661 3.10829 5.25147C3.77442 4.12632 4.70617 3.18161 5.82201 2.5L6.07001 2.354L6.08001 2.311C6.22146 1.71303 6.54295 1.17284 7.00109 0.763336C7.45924 0.353836 8.03197 0.0947346 8.64201 0.0209999L8.82401 0.00399995L9.00001 0Z" fill="#B0B8C1"/>
<path d="M11.235 17C12.1 17 12.557 18.024 11.98 18.668C11.6052 19.0875 11.146 19.4229 10.6324 19.6525C10.1188 19.8821 9.56256 20.0005 9.00003 20C8.4375 20.0005 7.88123 19.8821 7.36767 19.6525C6.85411 19.4229 6.39486 19.0875 6.02003 18.668C5.46803 18.052 5.86203 17.089 6.65403 17.007L6.76403 17.001L11.235 17Z" stroke="#B0B8C1"/>
<path d="M9.00001 0C10.358 0 11.506 0.903 11.875 2.141L11.921 2.312L11.929 2.355C13.0314 2.9769 13.9708 3.8511 14.6702 4.906C15.3697 5.9609 15.8093 7.16648 15.953 8.424L15.981 8.711L16 9V11.931L16.021 12.067C16.1579 12.8038 16.5657 13.4627 17.164 13.914L17.331 14.031L17.493 14.13C18.353 14.617 18.053 15.896 17.116 15.994L17 16H1.00001C-0.0279917 16 -0.386992 14.636 0.507008 14.13C0.888038 13.9144 1.21725 13.618 1.47155 13.2616C1.72584 12.9052 1.89905 12.4974 1.97901 12.067L2.00001 11.924L2.00101 8.954C2.06198 7.64788 2.44217 6.37661 3.10829 5.25147C3.77442 4.12632 4.70617 3.18161 5.82201 2.5L6.07001 2.354L6.08001 2.311C6.22146 1.71303 6.54295 1.17284 7.00109 0.763336C7.45924 0.353836 8.03197 0.0947346 8.64201 0.0209999L8.82401 0.00399995L9.00001 0Z" stroke="#B0B8C1"/>
</svg>
